<?xml version="1.0" encoding="UTF-8" standalone="no"?>
<!DOCTYPE svg PUBLIC "-//W3C//DTD SVG 1.1//EN"
 "http://www.w3.org/Graphics/SVG/1.1/DTD/svg11.dtd">
<!-- Generated by graphviz version 2.43.0 (0)
 -->
<!-- Title: ml_types.h Pages: 1 -->
<svg width="1041pt" height="742pt"
 viewBox="0.00 0.00 1041.00 742.00" xmlns="http://www.w3.org/2000/svg" xmlns:xlink="http://www.w3.org/1999/xlink">
<g id="graph0" class="graph" transform="scale(1 1) rotate(0) translate(4 738)">
<title>ml_types.h</title>
<!-- Node1 -->
<g id="Node000001" class="node">
<title>Node1</title>
<g id="a_Node000001"><a xlink:title="ODP Machine Learning (ML) types.">
<polygon fill="#999999" stroke="#666666" points="440.5,-734 369.5,-734 369.5,-715 440.5,-715 440.5,-734"/>
<text text-anchor="middle" x="405" y="-722" font-family="Helvetica,sans-Serif" font-size="10.00">ml_types.h</text>
</a>
</g>
</g>
<!-- Node2 -->
<g id="Node000002" class="node">
<title>Node2</title>
<g id="a_Node000002"><a xlink:title=" ">
<polygon fill="#e0e0e0" stroke="#999999" points="394,-679 266,-679 266,-660 394,-660 394,-679"/>
<text text-anchor="middle" x="330" y="-667" font-family="Helvetica,sans-Serif" font-size="10.00">odp/api/abi/ml_types.h</text>
</a>
</g>
</g>
<!-- Node1&#45;&gt;Node2 -->
<g id="edge1_Node000001_Node000002" class="edge">
<title>Node1&#45;&gt;Node2</title>
<g id="a_edge1_Node000001_Node000002"><a xlink:title=" ">
<path fill="none" stroke="#63b8ff" d="M392.95,-714.98C381.54,-706.92 364.17,-694.65 350.57,-685.03"/>
<polygon fill="#63b8ff" stroke="#63b8ff" points="352.46,-682.08 342.27,-679.17 348.42,-687.8 352.46,-682.08"/>
</a>
</g>
</g>
<!-- Node3 -->
<g id="Node000003" class="node">
<title>Node3</title>
<g id="a_Node000003"><a xlink:href="api_2spec_2ml__types_8h.html" target="_top" xlink:title="ODP Machine Learning (ML) types.">
<polygon fill="white" stroke="#666666" points="547.5,-679 412.5,-679 412.5,-660 547.5,-660 547.5,-679"/>
<text text-anchor="middle" x="480" y="-667" font-family="Helvetica,sans-Serif" font-size="10.00">odp/api/spec/ml_types.h</text>
</a>
</g>
</g>
<!-- Node1&#45;&gt;Node3 -->
<g id="edge2_Node000001_Node000003" class="edge">
<title>Node1&#45;&gt;Node3</title>
<g id="a_edge2_Node000001_Node000003"><a xlink:title=" ">
<path fill="none" stroke="#63b8ff" d="M417.05,-714.98C428.46,-706.92 445.83,-694.65 459.43,-685.03"/>
<polygon fill="#63b8ff" stroke="#63b8ff" points="461.58,-687.8 467.73,-679.17 457.54,-682.08 461.58,-687.8"/>
</a>
</g>
</g>
<!-- Node4 -->
<g id="Node000004" class="node">
<title>Node4</title>
<g id="a_Node000004"><a xlink:href="visibility__begin_8h_source.html" target="_top" xlink:title=" ">
<polygon fill="white" stroke="#666666" points="413.5,-19 292.5,-19 292.5,0 413.5,0 413.5,-19"/>
<text text-anchor="middle" x="353" y="-7" font-family="Helvetica,sans-Serif" font-size="10.00">odp/visibility_begin.h</text>
</a>
</g>
</g>
<!-- Node3&#45;&gt;Node4 -->
<g id="edge3_Node000003_Node000004" class="edge">
<title>Node3&#45;&gt;Node4</title>
<g id="a_edge3_Node000003_Node000004"><a xlink:title=" ">
<path fill="none" stroke="#63b8ff" d="M412.42,-660.17C338.06,-650.7 223.46,-635.11 181,-624 97.71,-602.2 0,-641.09 0,-555 0,-555 0,-555 0,-129.5 0,-82.83 32.46,-76.28 74,-55 109.37,-36.88 211.73,-23.87 282.12,-16.76"/>
<polygon fill="#63b8ff" stroke="#63b8ff" points="282.65,-20.23 292.26,-15.76 281.96,-13.26 282.65,-20.23"/>
</a>
</g>
</g>
<!-- Node5 -->
<g id="Node000005" class="node">
<title>Node5</title>
<g id="a_Node000005"><a xlink:href="api_2event__types_8h.html" target="_top" xlink:title="ODP event API type definitions.">
<polygon fill="white" stroke="#666666" points="239.5,-250 114.5,-250 114.5,-231 239.5,-231 239.5,-250"/>
<text text-anchor="middle" x="177" y="-238" font-family="Helvetica,sans-Serif" font-size="10.00">odp/api/event_types.h</text>
</a>
</g>
</g>
<!-- Node3&#45;&gt;Node5 -->
<g id="edge4_Node000003_Node000005" class="edge">
<title>Node3&#45;&gt;Node5</title>
<g id="a_edge4_Node000003_Node000005"><a xlink:title=" ">
<path fill="none" stroke="#63b8ff" d="M431.27,-659.96C323.82,-640.46 76,-591.52 76,-555 76,-555 76,-555 76,-366 76,-329.46 72.79,-315.02 95,-286 106.09,-271.52 123.29,-261.16 139.08,-254.11"/>
<polygon fill="#63b8ff" stroke="#63b8ff" points="140.77,-257.2 148.67,-250.14 138.09,-250.73 140.77,-257.2"/>
</a>
</g>
</g>
<!-- Node8 -->
<g id="Node000008" class="node">
<title>Node8</title>
<g id="a_Node000008"><a xlink:href="visibility__end_8h_source.html" target="_top" xlink:title=" ">
<polygon fill="white" stroke="#666666" points="924,-19 812,-19 812,0 924,0 924,-19"/>
<text text-anchor="middle" x="868" y="-7" font-family="Helvetica,sans-Serif" font-size="10.00">odp/visibility_end.h</text>
</a>
</g>
</g>
<!-- Node3&#45;&gt;Node8 -->
<g id="edge46_Node000003_Node000008" class="edge">
<title>Node3&#45;&gt;Node8</title>
<g id="a_edge46_Node000003_Node000008"><a xlink:title=" ">
<path fill="none" stroke="#63b8ff" d="M547.53,-668.66C695.05,-667.17 1033,-653.07 1033,-555 1033,-555 1033,-555 1033,-129.5 1033,-70.19 962,-37.48 913.15,-22"/>
<polygon fill="#63b8ff" stroke="#63b8ff" points="913.98,-18.6 903.4,-19.04 911.95,-25.3 913.98,-18.6"/>
</a>
</g>
</g>
<!-- Node9 -->
<g id="Node000009" class="node">
<title>Node9</title>
<g id="a_Node000009"><a xlink:href="api_2queue__types_8h.html" target="_top" xlink:title="ODP queue.">
<polygon fill="white" stroke="#666666" points="543.5,-624 416.5,-624 416.5,-605 543.5,-605 543.5,-624"/>
<text text-anchor="middle" x="480" y="-612" font-family="Helvetica,sans-Serif" font-size="10.00">odp/api/queue_types.h</text>
</a>
</g>
</g>
<!-- Node3&#45;&gt;Node9 -->
<g id="edge9_Node000003_Node000009" class="edge">
<title>Node3&#45;&gt;Node9</title>
<g id="a_edge9_Node000003_Node000009"><a xlink:title=" ">
<path fill="none" stroke="#63b8ff" d="M480,-659.75C480,-652.8 480,-642.85 480,-634.13"/>
<polygon fill="#63b8ff" stroke="#63b8ff" points="483.5,-634.09 480,-624.09 476.5,-634.09 483.5,-634.09"/>
</a>
</g>
</g>
<!-- Node16 -->
<g id="Node000016" class="node">
<title>Node16</title>
<g id="a_Node000016"><a xlink:href="api_2std__types_8h.html" target="_top" xlink:title="Standard C language types and definitions for ODP.">
<polygon fill="white" stroke="#666666" points="696,-250 584,-250 584,-231 696,-231 696,-250"/>
<text text-anchor="middle" x="640" y="-238" font-family="Helvetica,sans-Serif" font-size="10.00">odp/api/std_types.h</text>
</a>
</g>
</g>
<!-- Node3&#45;&gt;Node16 -->
<g id="edge45_Node000003_Node000016" class="edge">
<title>Node3&#45;&gt;Node16</title>
<g id="a_edge45_Node000003_Node000016"><a xlink:title=" ">
<path fill="none" stroke="#63b8ff" d="M547.59,-667.61C687.31,-663.94 995,-645.58 995,-555 995,-555 995,-555 995,-432 995,-354.58 964.68,-328.54 900,-286 868.95,-265.58 772.75,-253.16 706.5,-246.81"/>
<polygon fill="#63b8ff" stroke="#63b8ff" points="706.42,-243.29 696.14,-245.84 705.77,-250.26 706.42,-243.29"/>
</a>
</g>
</g>
<!-- Node6 -->
<g id="Node000006" class="node">
<title>Node6</title>
<g id="a_Node000006"><a xlink:title=" ">
<polygon fill="#e0e0e0" stroke="#999999" points="244.5,-195 101.5,-195 101.5,-176 244.5,-176 244.5,-195"/>
<text text-anchor="middle" x="173" y="-183" font-family="Helvetica,sans-Serif" font-size="10.00">odp/api/abi/event_types.h</text>
</a>
</g>
</g>
<!-- Node5&#45;&gt;Node6 -->
<g id="edge5_Node000005_Node000006" class="edge">
<title>Node5&#45;&gt;Node6</title>
<g id="a_edge5_Node000005_Node000006"><a xlink:title=" ">
<path fill="none" stroke="#63b8ff" d="M176.34,-230.75C175.82,-223.8 175.06,-213.85 174.41,-205.13"/>
<polygon fill="#63b8ff" stroke="#63b8ff" points="177.89,-204.8 173.65,-195.09 170.91,-205.32 177.89,-204.8"/>
</a>
</g>
</g>
<!-- Node7 -->
<g id="Node000007" class="node">
<title>Node7</title>
<g id="a_Node000007"><a xlink:href="api_2spec_2event__types_8h.html" target="_top" xlink:title="ODP event API type definitions.">
<polygon fill="white" stroke="#666666" points="448.5,-85 339.5,-85 339.5,-55 448.5,-55 448.5,-85"/>
<text text-anchor="start" x="347.5" y="-73" font-family="Helvetica,sans-Serif" font-size="10.00">odp/api/spec/event</text>
<text text-anchor="middle" x="394" y="-62" font-family="Helvetica,sans-Serif" font-size="10.00">_types.h</text>
</a>
</g>
</g>
<!-- Node5&#45;&gt;Node7 -->
<g id="edge6_Node000005_Node000007" class="edge">
<title>Node5&#45;&gt;Node7</title>
<g id="a_edge6_Node000005_Node000007"><a xlink:title=" ">
<path fill="none" stroke="#63b8ff" d="M193.58,-230.99C209.36,-222.61 233.54,-209.06 253,-195 298.22,-162.34 345.98,-117.94 372.69,-92.09"/>
<polygon fill="#63b8ff" stroke="#63b8ff" points="375.24,-94.49 379.96,-85 370.35,-89.48 375.24,-94.49"/>
</a>
</g>
</g>
<!-- Node7&#45;&gt;Node4 -->
<g id="edge7_Node000007_Node000004" class="edge">
<title>Node7&#45;&gt;Node4</title>
<g id="a_edge7_Node000007_Node000004"><a xlink:title=" ">
<path fill="none" stroke="#63b8ff" d="M384.08,-54.84C378.31,-46.61 371,-36.18 364.92,-27.51"/>
<polygon fill="#63b8ff" stroke="#63b8ff" points="367.75,-25.45 359.14,-19.27 362.02,-29.46 367.75,-25.45"/>
</a>
</g>
</g>
<!-- Node7&#45;&gt;Node8 -->
<g id="edge8_Node000007_Node000008" class="edge">
<title>Node7&#45;&gt;Node8</title>
<g id="a_edge8_Node000007_Node000008"><a xlink:title=" ">
<path fill="none" stroke="#63b8ff" d="M448.84,-62.23C536.42,-51.42 707.59,-30.3 801.83,-18.67"/>
<polygon fill="#63b8ff" stroke="#63b8ff" points="802.33,-22.13 811.82,-17.43 801.47,-15.18 802.33,-22.13"/>
</a>
</g>
</g>
<!-- Node10 -->
<g id="Node000010" class="node">
<title>Node10</title>
<g id="a_Node000010"><a xlink:title=" ">
<polygon fill="#e0e0e0" stroke="#999999" points="625.5,-563.5 480.5,-563.5 480.5,-544.5 625.5,-544.5 625.5,-563.5"/>
<text text-anchor="middle" x="553" y="-551.5" font-family="Helvetica,sans-Serif" font-size="10.00">odp/api/abi/queue_types.h</text>
</a>
</g>
</g>
<!-- Node9&#45;&gt;Node10 -->
<g id="edge10_Node000009_Node000010" class="edge">
<title>Node9&#45;&gt;Node10</title>
<g id="a_edge10_Node000009_Node000010"><a xlink:title=" ">
<path fill="none" stroke="#63b8ff" d="M490.77,-604.87C502.2,-595.71 520.48,-581.06 534.28,-570.01"/>
<polygon fill="#63b8ff" stroke="#63b8ff" points="536.57,-572.65 542.18,-563.67 532.19,-567.19 536.57,-572.65"/>
</a>
</g>
</g>
<!-- Node11 -->
<g id="Node000011" class="node">
<title>Node11</title>
<g id="a_Node000011"><a xlink:href="api_2spec_2queue__types_8h.html" target="_top" xlink:title="ODP queue types.">
<polygon fill="white" stroke="#666666" points="462.5,-569 351.5,-569 351.5,-539 462.5,-539 462.5,-569"/>
<text text-anchor="start" x="359.5" y="-557" font-family="Helvetica,sans-Serif" font-size="10.00">odp/api/spec/queue</text>
<text text-anchor="middle" x="407" y="-546" font-family="Helvetica,sans-Serif" font-size="10.00">_types.h</text>
</a>
</g>
</g>
<!-- Node9&#45;&gt;Node11 -->
<g id="edge11_Node000009_Node000011" class="edge">
<title>Node9&#45;&gt;Node11</title>
<g id="a_edge11_Node000009_Node000011"><a xlink:title=" ">
<path fill="none" stroke="#63b8ff" d="M469.23,-604.87C459.6,-597.15 445.11,-585.54 432.53,-575.46"/>
<polygon fill="#63b8ff" stroke="#63b8ff" points="434.61,-572.64 424.61,-569.11 430.23,-578.1 434.61,-572.64"/>
</a>
</g>
</g>
<!-- Node11&#45;&gt;Node4 -->
<g id="edge12_Node000011_Node000004" class="edge">
<title>Node11&#45;&gt;Node4</title>
<g id="a_edge12_Node000011_Node000004"><a xlink:title=" ">
<path fill="none" stroke="#63b8ff" d="M361.75,-538.87C263.22,-504.98 38,-409.17 38,-241.5 38,-241.5 38,-241.5 38,-129.5 38,-75.9 199.63,-38.03 291.33,-20.86"/>
<polygon fill="#63b8ff" stroke="#63b8ff" points="292.14,-24.27 301.34,-19.01 290.87,-17.38 292.14,-24.27"/>
</a>
</g>
</g>
<!-- Node11&#45;&gt;Node8 -->
<g id="edge44_Node000011_Node000008" class="edge">
<title>Node11&#45;&gt;Node8</title>
<g id="a_edge44_Node000011_Node000008"><a xlink:title=" ">
<path fill="none" stroke="#63b8ff" d="M454.62,-538.96C594.6,-496.27 995,-363.52 995,-241.5 995,-241.5 995,-241.5 995,-129.5 995,-77.22 936.98,-41.24 899.37,-23.42"/>
<polygon fill="#63b8ff" stroke="#63b8ff" points="900.38,-20.04 889.83,-19.08 897.48,-26.41 900.38,-20.04"/>
</a>
</g>
</g>
<!-- Node12 -->
<g id="Node000012" class="node">
<title>Node12</title>
<g id="a_Node000012"><a xlink:href="api_2event__vector__types_8h.html" target="_top" xlink:title="ODP event vector API type definitions.">
<polygon fill="white" stroke="#666666" points="417.5,-382 298.5,-382 298.5,-352 417.5,-352 417.5,-382"/>
<text text-anchor="start" x="306.5" y="-370" font-family="Helvetica,sans-Serif" font-size="10.00">odp/api/event_vector</text>
<text text-anchor="middle" x="358" y="-359" font-family="Helvetica,sans-Serif" font-size="10.00">_types.h</text>
</a>
</g>
</g>
<!-- Node11&#45;&gt;Node12 -->
<g id="edge13_Node000011_Node000012" class="edge">
<title>Node11&#45;&gt;Node12</title>
<g id="a_edge13_Node000011_Node000012"><a xlink:title=" ">
<path fill="none" stroke="#63b8ff" d="M396.43,-538.9C389.77,-529.28 381.59,-515.98 377,-503 363.88,-465.94 359.79,-420.13 358.53,-392.53"/>
<polygon fill="#63b8ff" stroke="#63b8ff" points="362.02,-392.1 358.16,-382.24 355.02,-392.36 362.02,-392.1"/>
</a>
</g>
</g>
<!-- Node23 -->
<g id="Node000023" class="node">
<title>Node23</title>
<g id="a_Node000023"><a xlink:href="api_2schedule__types_8h.html" target="_top" xlink:title="ODP schedule.">
<polygon fill="white" stroke="#666666" points="526,-503 386,-503 386,-484 526,-484 526,-503"/>
<text text-anchor="middle" x="456" y="-491" font-family="Helvetica,sans-Serif" font-size="10.00">odp/api/schedule_types.h</text>
</a>
</g>
</g>
<!-- Node11&#45;&gt;Node23 -->
<g id="edge31_Node000011_Node000023" class="edge">
<title>Node11&#45;&gt;Node23</title>
<g id="a_edge31_Node000011_Node000023"><a xlink:title=" ">
<path fill="none" stroke="#63b8ff" d="M418.86,-538.84C425.9,-530.43 434.86,-519.74 442.21,-510.96"/>
<polygon fill="#63b8ff" stroke="#63b8ff" points="444.92,-513.18 448.66,-503.27 439.55,-508.68 444.92,-513.18"/>
</a>
</g>
</g>
<!-- Node13 -->
<g id="Node000013" class="node">
<title>Node13</title>
<g id="a_Node000013"><a xlink:title=" ">
<polygon fill="#e0e0e0" stroke="#999999" points="241.5,-316 104.5,-316 104.5,-286 241.5,-286 241.5,-316"/>
<text text-anchor="start" x="112.5" y="-304" font-family="Helvetica,sans-Serif" font-size="10.00">odp/api/abi/event_vector</text>
<text text-anchor="middle" x="173" y="-293" font-family="Helvetica,sans-Serif" font-size="10.00">_types.h</text>
</a>
</g>
</g>
<!-- Node12&#45;&gt;Node13 -->
<g id="edge14_Node000012_Node000013" class="edge">
<title>Node12&#45;&gt;Node13</title>
<g id="a_edge14_Node000012_Node000013"><a xlink:title=" ">
<path fill="none" stroke="#63b8ff" d="M317.4,-351.95C289.69,-342.37 252.79,-329.6 223.22,-319.37"/>
<polygon fill="#63b8ff" stroke="#63b8ff" points="224.1,-315.97 213.5,-316.01 221.81,-322.59 224.1,-315.97"/>
</a>
</g>
</g>
<!-- Node14 -->
<g id="Node000014" class="node">
<title>Node14</title>
<g id="a_Node000014"><a xlink:title=" ">
<polygon fill="#e0e0e0" stroke="#999999" points="396,-310.5 260,-310.5 260,-291.5 396,-291.5 396,-310.5"/>
<text text-anchor="middle" x="328" y="-298.5" font-family="Helvetica,sans-Serif" font-size="10.00">odp/api/abi/pool_types.h</text>
</a>
</g>
</g>
<!-- Node12&#45;&gt;Node14 -->
<g id="edge15_Node000012_Node000014" class="edge">
<title>Node12&#45;&gt;Node14</title>
<g id="a_edge15_Node000012_Node000014"><a xlink:title=" ">
<path fill="none" stroke="#63b8ff" d="M351.34,-351.8C346.94,-342.41 341.13,-330.02 336.41,-319.95"/>
<polygon fill="#63b8ff" stroke="#63b8ff" points="339.56,-318.41 332.15,-310.84 333.22,-321.38 339.56,-318.41"/>
</a>
</g>
</g>
<!-- Node15 -->
<g id="Node000015" class="node">
<title>Node15</title>
<g id="a_Node000015"><a xlink:href="api_2spec_2event__vector__types_8h.html" target="_top" xlink:title="ODP event vector API type definitions.">
<polygon fill="white" stroke="#666666" points="523.5,-316 414.5,-316 414.5,-286 523.5,-286 523.5,-316"/>
<text text-anchor="start" x="422.5" y="-304" font-family="Helvetica,sans-Serif" font-size="10.00">odp/api/spec/event</text>
<text text-anchor="middle" x="469" y="-293" font-family="Helvetica,sans-Serif" font-size="10.00">_vector_types.h</text>
</a>
</g>
</g>
<!-- Node12&#45;&gt;Node15 -->
<g id="edge16_Node000012_Node000015" class="edge">
<title>Node12&#45;&gt;Node15</title>
<g id="a_edge16_Node000012_Node000015"><a xlink:title=" ">
<path fill="none" stroke="#63b8ff" d="M382.36,-351.95C397.97,-342.95 418.45,-331.14 435.58,-321.27"/>
<polygon fill="#63b8ff" stroke="#63b8ff" points="437.78,-324.04 444.7,-316.01 434.29,-317.98 437.78,-324.04"/>
</a>
</g>
</g>
<!-- Node15&#45;&gt;Node4 -->
<g id="edge17_Node000015_Node000004" class="edge">
<title>Node15&#45;&gt;Node4</title>
<g id="a_edge17_Node000015_Node000004"><a xlink:title=" ">
<path fill="none" stroke="#63b8ff" d="M428.86,-285.82C371.52,-264.32 273,-222.18 273,-186.5 273,-186.5 273,-186.5 273,-129.5 273,-94.71 277.2,-83.6 297,-55 305.42,-42.83 318.13,-32.35 329.32,-24.62"/>
<polygon fill="#63b8ff" stroke="#63b8ff" points="331.4,-27.44 337.85,-19.04 327.57,-21.59 331.4,-27.44"/>
</a>
</g>
</g>
<!-- Node15&#45;&gt;Node5 -->
<g id="edge18_Node000015_Node000005" class="edge">
<title>Node15&#45;&gt;Node5</title>
<g id="a_edge18_Node000015_Node000005"><a xlink:title=" ">
<path fill="none" stroke="#63b8ff" d="M414.2,-287.93C411.09,-287.27 408.01,-286.62 405,-286 346.25,-273.84 278.8,-260.79 232.59,-251.99"/>
<polygon fill="#63b8ff" stroke="#63b8ff" points="232.96,-248.49 222.48,-250.06 231.65,-255.37 232.96,-248.49"/>
</a>
</g>
</g>
<!-- Node15&#45;&gt;Node8 -->
<g id="edge30_Node000015_Node000008" class="edge">
<title>Node15&#45;&gt;Node8</title>
<g id="a_edge30_Node000015_Node000008"><a xlink:title=" ">
<path fill="none" stroke="#63b8ff" d="M487.74,-285.88C508.32,-270.84 542.75,-247.03 575,-231 617.3,-209.97 633.03,-216.68 675,-195 749.09,-156.72 772.38,-148.02 827,-85 841.91,-67.79 853.74,-44.28 860.78,-28.31"/>
<polygon fill="#63b8ff" stroke="#63b8ff" points="864.03,-29.61 864.71,-19.04 857.58,-26.88 864.03,-29.61"/>
</a>
</g>
</g>
<!-- Node15&#45;&gt;Node16 -->
<g id="edge19_Node000015_Node000016" class="edge">
<title>Node15&#45;&gt;Node16</title>
<g id="a_edge19_Node000015_Node000016"><a xlink:title=" ">
<path fill="none" stroke="#63b8ff" d="M509.96,-285.99C539,-276.05 577.55,-262.86 605.12,-253.43"/>
<polygon fill="#63b8ff" stroke="#63b8ff" points="606.42,-256.69 614.75,-250.14 604.15,-250.06 606.42,-256.69"/>
</a>
</g>
</g>
<!-- Node17 -->
<g id="Node000017" class="node">
<title>Node17</title>
<g id="a_Node000017"><a xlink:title=" ">
<polygon fill="#e0e0e0" stroke="#999999" points="852,-195 722,-195 722,-176 852,-176 852,-195"/>
<text text-anchor="middle" x="787" y="-183" font-family="Helvetica,sans-Serif" font-size="10.00">odp/api/abi/std_types.h</text>
</a>
</g>
</g>
<!-- Node16&#45;&gt;Node17 -->
<g id="edge20_Node000016_Node000017" class="edge">
<title>Node16&#45;&gt;Node17</title>
<g id="a_edge20_Node000016_Node000017"><a xlink:title=" ">
<path fill="none" stroke="#63b8ff" d="M663.62,-230.98C687.9,-222.23 725.95,-208.51 753.37,-198.62"/>
<polygon fill="#63b8ff" stroke="#63b8ff" points="754.73,-201.85 762.95,-195.17 752.36,-195.27 754.73,-201.85"/>
</a>
</g>
</g>
<!-- Node18 -->
<g id="Node000018" class="node">
<title>Node18</title>
<g id="a_Node000018"><a xlink:href="api_2spec_2std__types_8h.html" target="_top" xlink:title="Common types and definitions for ODP API files.">
<polygon fill="white" stroke="#666666" points="665.5,-195 528.5,-195 528.5,-176 665.5,-176 665.5,-195"/>
<text text-anchor="middle" x="597" y="-183" font-family="Helvetica,sans-Serif" font-size="10.00">odp/api/spec/std_types.h</text>
</a>
</g>
</g>
<!-- Node16&#45;&gt;Node18 -->
<g id="edge21_Node000016_Node000018" class="edge">
<title>Node16&#45;&gt;Node18</title>
<g id="a_edge21_Node000016_Node000018"><a xlink:title=" ">
<path fill="none" stroke="#63b8ff" d="M632.9,-230.75C626.83,-223.26 617.91,-212.28 610.49,-203.13"/>
<polygon fill="#63b8ff" stroke="#63b8ff" points="612.99,-200.65 603.97,-195.09 607.55,-205.06 612.99,-200.65"/>
</a>
</g>
</g>
<!-- Node18&#45;&gt;Node4 -->
<g id="edge22_Node000018_Node000004" class="edge">
<title>Node18&#45;&gt;Node4</title>
<g id="a_edge22_Node000018_Node000004"><a xlink:title=" ">
<path fill="none" stroke="#63b8ff" d="M586.17,-175.97C575.75,-167.47 559.86,-153.74 548,-140 518.28,-105.57 527.32,-82.38 491,-55 469.26,-38.61 441.26,-28.13 416.17,-21.49"/>
<polygon fill="#63b8ff" stroke="#63b8ff" points="416.91,-18.06 406.36,-19.04 415.21,-24.85 416.91,-18.06"/>
</a>
</g>
</g>
<!-- Node18&#45;&gt;Node8 -->
<g id="edge29_Node000018_Node000008" class="edge">
<title>Node18&#45;&gt;Node8</title>
<g id="a_edge29_Node000018_Node000008"><a xlink:title=" ">
<path fill="none" stroke="#63b8ff" d="M632.69,-175.95C659.44,-168.66 696.39,-156.7 726,-140 780.28,-109.39 830.95,-54.51 854.38,-27.07"/>
<polygon fill="#63b8ff" stroke="#63b8ff" points="857.24,-29.1 861,-19.19 851.88,-24.59 857.24,-29.1"/>
</a>
</g>
</g>
<!-- Node19 -->
<g id="Node000019" class="node">
<title>Node19</title>
<g id="a_Node000019"><a xlink:title=" ">
<polygon fill="#e0e0e0" stroke="#999999" points="609.5,-140 556.5,-140 556.5,-121 609.5,-121 609.5,-140"/>
<text text-anchor="middle" x="583" y="-128" font-family="Helvetica,sans-Serif" font-size="10.00">stdint.h</text>
</a>
</g>
</g>
<!-- Node18&#45;&gt;Node19 -->
<g id="edge23_Node000018_Node000019" class="edge">
<title>Node18&#45;&gt;Node19</title>
<g id="a_edge23_Node000018_Node000019"><a xlink:title=" ">
<path fill="none" stroke="#63b8ff" d="M594.69,-175.75C592.83,-168.72 590.16,-158.62 587.85,-149.84"/>
<polygon fill="#63b8ff" stroke="#63b8ff" points="591.21,-148.86 585.27,-140.09 584.44,-150.65 591.21,-148.86"/>
</a>
</g>
</g>
<!-- Node20 -->
<g id="Node000020" class="node">
<title>Node20</title>
<g id="a_Node000020"><a xlink:href="api_2align_8h.html" target="_top" xlink:title="ODP alignments.">
<polygon fill="white" stroke="#666666" points="716.5,-140 627.5,-140 627.5,-121 716.5,-121 716.5,-140"/>
<text text-anchor="middle" x="672" y="-128" font-family="Helvetica,sans-Serif" font-size="10.00">odp/api/align.h</text>
</a>
</g>
</g>
<!-- Node18&#45;&gt;Node20 -->
<g id="edge24_Node000018_Node000020" class="edge">
<title>Node18&#45;&gt;Node20</title>
<g id="a_edge24_Node000018_Node000020"><a xlink:title=" ">
<path fill="none" stroke="#63b8ff" d="M609.05,-175.98C620.46,-167.92 637.83,-155.65 651.43,-146.03"/>
<polygon fill="#63b8ff" stroke="#63b8ff" points="653.58,-148.8 659.73,-140.17 649.54,-143.08 653.58,-148.8"/>
</a>
</g>
</g>
<!-- Node21 -->
<g id="Node000021" class="node">
<title>Node21</title>
<g id="a_Node000021"><a xlink:title=" ">
<polygon fill="#e0e0e0" stroke="#999999" points="782.5,-79.5 675.5,-79.5 675.5,-60.5 782.5,-60.5 782.5,-79.5"/>
<text text-anchor="middle" x="729" y="-67.5" font-family="Helvetica,sans-Serif" font-size="10.00">odp/api/abi/align.h</text>
</a>
</g>
</g>
<!-- Node20&#45;&gt;Node21 -->
<g id="edge25_Node000020_Node000021" class="edge">
<title>Node20&#45;&gt;Node21</title>
<g id="a_edge25_Node000020_Node000021"><a xlink:title=" ">
<path fill="none" stroke="#63b8ff" d="M680.41,-120.87C689.08,-111.97 702.8,-97.89 713.46,-86.95"/>
<polygon fill="#63b8ff" stroke="#63b8ff" points="716.08,-89.27 720.55,-79.67 711.07,-84.39 716.08,-89.27"/>
</a>
</g>
</g>
<!-- Node22 -->
<g id="Node000022" class="node">
<title>Node22</title>
<g id="a_Node000022"><a xlink:href="api_2spec_2align_8h.html" target="_top" xlink:title="ODP alignments.">
<polygon fill="white" stroke="#666666" points="657,-79.5 543,-79.5 543,-60.5 657,-60.5 657,-79.5"/>
<text text-anchor="middle" x="600" y="-67.5" font-family="Helvetica,sans-Serif" font-size="10.00">odp/api/spec/align.h</text>
</a>
</g>
</g>
<!-- Node20&#45;&gt;Node22 -->
<g id="edge26_Node000020_Node000022" class="edge">
<title>Node20&#45;&gt;Node22</title>
<g id="a_edge26_Node000020_Node000022"><a xlink:title=" ">
<path fill="none" stroke="#63b8ff" d="M661.38,-120.87C650.1,-111.71 632.08,-97.06 618.47,-86.01"/>
<polygon fill="#63b8ff" stroke="#63b8ff" points="620.64,-83.26 610.67,-79.67 616.22,-88.69 620.64,-83.26"/>
</a>
</g>
</g>
<!-- Node22&#45;&gt;Node4 -->
<g id="edge27_Node000022_Node000004" class="edge">
<title>Node22&#45;&gt;Node4</title>
<g id="a_edge27_Node000022_Node000004"><a xlink:title=" ">
<path fill="none" stroke="#63b8ff" d="M564.08,-60.49C520.36,-50.14 446.47,-32.64 398.73,-21.33"/>
<polygon fill="#63b8ff" stroke="#63b8ff" points="399.5,-17.92 388.96,-19.02 397.88,-24.73 399.5,-17.92"/>
</a>
</g>
</g>
<!-- Node22&#45;&gt;Node8 -->
<g id="edge28_Node000022_Node000008" class="edge">
<title>Node22&#45;&gt;Node8</title>
<g id="a_edge28_Node000022_Node000008"><a xlink:title=" ">
<path fill="none" stroke="#63b8ff" d="M638.97,-60.49C686.6,-50.1 767.25,-32.49 819.03,-21.19"/>
<polygon fill="#63b8ff" stroke="#63b8ff" points="819.96,-24.57 828.98,-19.02 818.47,-17.73 819.96,-24.57"/>
</a>
</g>
</g>
<!-- Node24 -->
<g id="Node000024" class="node">
<title>Node24</title>
<g id="a_Node000024"><a xlink:title=" ">
<polygon fill="#e0e0e0" stroke="#999999" points="509.5,-448 392.5,-448 392.5,-418 509.5,-418 509.5,-448"/>
<text text-anchor="start" x="400.5" y="-436" font-family="Helvetica,sans-Serif" font-size="10.00">odp/api/abi/schedule</text>
<text text-anchor="middle" x="451" y="-425" font-family="Helvetica,sans-Serif" font-size="10.00">_types.h</text>
</a>
</g>
</g>
<!-- Node23&#45;&gt;Node24 -->
<g id="edge32_Node000023_Node000024" class="edge">
<title>Node23&#45;&gt;Node24</title>
<g id="a_edge32_Node000023_Node000024"><a xlink:title=" ">
<path fill="none" stroke="#63b8ff" d="M455.26,-483.87C454.68,-477.11 453.85,-467.35 453.07,-458.26"/>
<polygon fill="#63b8ff" stroke="#63b8ff" points="456.55,-457.78 452.21,-448.11 449.57,-458.38 456.55,-457.78"/>
</a>
</g>
</g>
<!-- Node25 -->
<g id="Node000025" class="node">
<title>Node25</title>
<g id="a_Node000025"><a xlink:href="api_2spec_2schedule__types_8h.html" target="_top" xlink:title="ODP schedule types.">
<polygon fill="white" stroke="#666666" points="652.5,-448 527.5,-448 527.5,-418 652.5,-418 652.5,-448"/>
<text text-anchor="start" x="535.5" y="-436" font-family="Helvetica,sans-Serif" font-size="10.00">odp/api/spec/schedule</text>
<text text-anchor="middle" x="590" y="-425" font-family="Helvetica,sans-Serif" font-size="10.00">_types.h</text>
</a>
</g>
</g>
<!-- Node23&#45;&gt;Node25 -->
<g id="edge33_Node000023_Node000025" class="edge">
<title>Node23&#45;&gt;Node25</title>
<g id="a_edge33_Node000023_Node000025"><a xlink:title=" ">
<path fill="none" stroke="#63b8ff" d="M475.48,-483.99C494.52,-475.68 524.09,-462.78 548.41,-452.16"/>
<polygon fill="#63b8ff" stroke="#63b8ff" points="550.02,-455.27 557.78,-448.06 547.22,-448.86 550.02,-455.27"/>
</a>
</g>
</g>
<!-- Node25&#45;&gt;Node4 -->
<g id="edge34_Node000025_Node000004" class="edge">
<title>Node25&#45;&gt;Node4</title>
<g id="a_edge34_Node000025_Node000004"><a xlink:title=" ">
<path fill="none" stroke="#63b8ff" d="M586.58,-417.8C579.59,-390.59 561.84,-329.89 533,-286 463.28,-179.89 378.88,-202.18 330,-85 322.06,-65.96 331.72,-43.19 340.84,-27.88"/>
<polygon fill="#63b8ff" stroke="#63b8ff" points="343.82,-29.71 346.29,-19.41 337.94,-25.93 343.82,-29.71"/>
</a>
</g>
</g>
<!-- Node25&#45;&gt;Node8 -->
<g id="edge43_Node000025_Node000008" class="edge">
<title>Node25&#45;&gt;Node8</title>
<g id="a_edge43_Node000025_Node000008"><a xlink:title=" ">
<path fill="none" stroke="#63b8ff" d="M652.6,-427.03C724.17,-417.79 839.24,-391.39 900,-316 936.78,-270.36 925,-245.12 925,-186.5 925,-186.5 925,-186.5 925,-129.5 925,-89.64 898.66,-48.98 881.79,-27.03"/>
<polygon fill="#63b8ff" stroke="#63b8ff" points="884.42,-24.71 875.45,-19.07 878.95,-29.07 884.42,-24.71"/>
</a>
</g>
</g>
<!-- Node25&#45;&gt;Node12 -->
<g id="edge35_Node000025_Node000012" class="edge">
<title>Node25&#45;&gt;Node12</title>
<g id="a_edge35_Node000025_Node000012"><a xlink:title=" ">
<path fill="none" stroke="#63b8ff" d="M539.09,-417.95C503.58,-408.16 456.04,-395.05 418.58,-384.71"/>
<polygon fill="#63b8ff" stroke="#63b8ff" points="419.37,-381.3 408.79,-382.01 417.5,-388.05 419.37,-381.3"/>
</a>
</g>
</g>
<!-- Node25&#45;&gt;Node16 -->
<g id="edge36_Node000025_Node000016" class="edge">
<title>Node25&#45;&gt;Node16</title>
<g id="a_edge36_Node000025_Node000016"><a xlink:title=" ">
<path fill="none" stroke="#63b8ff" d="M589.84,-417.79C589.99,-391.07 592.48,-331.89 610,-286 613.81,-276.01 620.24,-266.03 626.17,-258.06"/>
<polygon fill="#63b8ff" stroke="#63b8ff" points="629.06,-260.05 632.48,-250.02 623.55,-255.72 629.06,-260.05"/>
</a>
</g>
</g>
<!-- Node26 -->
<g id="Node000026" class="node">
<title>Node26</title>
<g id="a_Node000026"><a xlink:href="api_2thrmask_8h.html" target="_top" xlink:title="ODP thread masks.">
<polygon fill="white" stroke="#666666" points="736.5,-376.5 631.5,-376.5 631.5,-357.5 736.5,-357.5 736.5,-376.5"/>
<text text-anchor="middle" x="684" y="-364.5" font-family="Helvetica,sans-Serif" font-size="10.00">odp/api/thrmask.h</text>
</a>
</g>
</g>
<!-- Node25&#45;&gt;Node26 -->
<g id="edge37_Node000025_Node000026" class="edge">
<title>Node25&#45;&gt;Node26</title>
<g id="a_edge37_Node000025_Node000026"><a xlink:title=" ">
<path fill="none" stroke="#63b8ff" d="M610.86,-417.8C626.32,-407.27 647.32,-392.97 662.85,-382.4"/>
<polygon fill="#63b8ff" stroke="#63b8ff" points="664.99,-385.18 671.28,-376.66 661.05,-379.39 664.99,-385.18"/>
</a>
</g>
</g>
<!-- Node27 -->
<g id="Node000027" class="node">
<title>Node27</title>
<g id="a_Node000027"><a xlink:title=" ">
<polygon fill="#e0e0e0" stroke="#999999" points="890.5,-310.5 767.5,-310.5 767.5,-291.5 890.5,-291.5 890.5,-310.5"/>
<text text-anchor="middle" x="829" y="-298.5" font-family="Helvetica,sans-Serif" font-size="10.00">odp/api/abi/thrmask.h</text>
</a>
</g>
</g>
<!-- Node26&#45;&gt;Node27 -->
<g id="edge38_Node000026_Node000027" class="edge">
<title>Node26&#45;&gt;Node27</title>
<g id="a_edge38_Node000026_Node000027"><a xlink:title=" ">
<path fill="none" stroke="#63b8ff" d="M703.56,-357.37C728.31,-346.44 771.17,-327.52 799.81,-314.88"/>
<polygon fill="#63b8ff" stroke="#63b8ff" points="801.56,-317.94 809.29,-310.7 798.73,-311.54 801.56,-317.94"/>
</a>
</g>
</g>
<!-- Node28 -->
<g id="Node000028" class="node">
<title>Node28</title>
<g id="a_Node000028"><a xlink:href="api_2spec_2thrmask_8h.html" target="_top" xlink:title="ODP thread masks.">
<polygon fill="white" stroke="#666666" points="749.5,-310.5 618.5,-310.5 618.5,-291.5 749.5,-291.5 749.5,-310.5"/>
<text text-anchor="middle" x="684" y="-298.5" font-family="Helvetica,sans-Serif" font-size="10.00">odp/api/spec/thrmask.h</text>
</a>
</g>
</g>
<!-- Node26&#45;&gt;Node28 -->
<g id="edge39_Node000026_Node000028" class="edge">
<title>Node26&#45;&gt;Node28</title>
<g id="a_edge39_Node000026_Node000028"><a xlink:title=" ">
<path fill="none" stroke="#63b8ff" d="M684,-357.37C684,-348.16 684,-333.29 684,-321.27"/>
<polygon fill="#63b8ff" stroke="#63b8ff" points="687.5,-320.91 684,-310.91 680.5,-320.91 687.5,-320.91"/>
</a>
</g>
</g>
<!-- Node28&#45;&gt;Node4 -->
<g id="edge40_Node000028_Node000004" class="edge">
<title>Node28&#45;&gt;Node4</title>
<g id="a_edge40_Node000028_Node000004"><a xlink:title=" ">
<path fill="none" stroke="#63b8ff" d="M658.86,-291.4C635.86,-282.87 601.49,-268.43 575,-250 546.62,-230.26 539.55,-223.51 520,-195 481.51,-138.88 506.5,-102.73 458,-55 442.17,-39.43 420.06,-28.96 400.21,-22.11"/>
<polygon fill="#63b8ff" stroke="#63b8ff" points="401.28,-18.78 390.68,-19.03 399.12,-25.44 401.28,-18.78"/>
</a>
</g>
</g>
<!-- Node28&#45;&gt;Node8 -->
<g id="edge42_Node000028_Node000008" class="edge">
<title>Node28&#45;&gt;Node8</title>
<g id="a_edge42_Node000028_Node000008"><a xlink:title=" ">
<path fill="none" stroke="#63b8ff" d="M710.12,-291.46C764.95,-272.74 887,-226.57 887,-186.5 887,-186.5 887,-186.5 887,-129.5 887,-93.54 878.44,-52.23 872.81,-28.96"/>
<polygon fill="#63b8ff" stroke="#63b8ff" points="876.16,-27.93 870.33,-19.09 869.37,-29.64 876.16,-27.93"/>
</a>
</g>
</g>
<!-- Node28&#45;&gt;Node16 -->
<g id="edge41_Node000028_Node000016" class="edge">
<title>Node28&#45;&gt;Node16</title>
<g id="a_edge41_Node000028_Node000016"><a xlink:title=" ">
<path fill="none" stroke="#63b8ff" d="M677.51,-291.37C671.01,-282.73 660.84,-269.2 652.72,-258.42"/>
<polygon fill="#63b8ff" stroke="#63b8ff" points="655.33,-256.06 646.52,-250.17 649.73,-260.26 655.33,-256.06"/>
</a>
</g>
</g>
</g>
</svg>
