<?xml version="1.0" encoding="UTF-8" standalone="no"?>
<!DOCTYPE svg PUBLIC "-//W3C//DTD SVG 1.1//EN"
 "http://www.w3.org/Graphics/SVG/1.1/DTD/svg11.dtd">
<!-- Generated by graphviz version 2.43.0 (0)
 -->
<!-- Title: event_vector_types.h Pages: 1 -->
<svg width="797pt" height="379pt"
 viewBox="0.00 0.00 796.50 379.00" xmlns="http://www.w3.org/2000/svg" xmlns:xlink="http://www.w3.org/1999/xlink">
<g id="graph0" class="graph" transform="scale(1 1) rotate(0) translate(4 375)">
<title>event_vector_types.h</title>
<!-- Node1 -->
<g id="Node000001" class="node">
<title>Node1</title>
<g id="a_Node000001"><a xlink:title="ODP event vector API type definitions.">
<polygon fill="#999999" stroke="#666666" points="284.5,-371 162.5,-371 162.5,-352 284.5,-352 284.5,-371"/>
<text text-anchor="middle" x="223.5" y="-359" font-family="Helvetica,sans-Serif" font-size="10.00">event_vector_types.h</text>
</a>
</g>
</g>
<!-- Node2 -->
<g id="Node000002" class="node">
<title>Node2</title>
<g id="a_Node000002"><a xlink:title=" ">
<polygon fill="#e0e0e0" stroke="#999999" points="137,-316 0,-316 0,-286 137,-286 137,-316"/>
<text text-anchor="start" x="8" y="-304" font-family="Helvetica,sans-Serif" font-size="10.00">odp/api/abi/event_vector</text>
<text text-anchor="middle" x="68.5" y="-293" font-family="Helvetica,sans-Serif" font-size="10.00">_types.h</text>
</a>
</g>
</g>
<!-- Node1&#45;&gt;Node2 -->
<g id="edge1_Node000001_Node000002" class="edge">
<title>Node1&#45;&gt;Node2</title>
<g id="a_edge1_Node000001_Node000002"><a xlink:title=" ">
<path fill="none" stroke="#63b8ff" d="M200.96,-351.99C178.65,-343.57 143.83,-330.43 115.49,-319.73"/>
<polygon fill="#63b8ff" stroke="#63b8ff" points="116.36,-316.32 105.76,-316.06 113.88,-322.87 116.36,-316.32"/>
</a>
</g>
</g>
<!-- Node3 -->
<g id="Node000003" class="node">
<title>Node3</title>
<g id="a_Node000003"><a xlink:title=" ">
<polygon fill="#e0e0e0" stroke="#999999" points="291.5,-310.5 155.5,-310.5 155.5,-291.5 291.5,-291.5 291.5,-310.5"/>
<text text-anchor="middle" x="223.5" y="-298.5" font-family="Helvetica,sans-Serif" font-size="10.00">odp/api/abi/pool_types.h</text>
</a>
</g>
</g>
<!-- Node1&#45;&gt;Node3 -->
<g id="edge2_Node000001_Node000003" class="edge">
<title>Node1&#45;&gt;Node3</title>
<g id="a_edge2_Node000001_Node000003"><a xlink:title=" ">
<path fill="none" stroke="#63b8ff" d="M223.5,-351.87C223.5,-343.75 223.5,-331.31 223.5,-320.89"/>
<polygon fill="#63b8ff" stroke="#63b8ff" points="227,-320.67 223.5,-310.67 220,-320.67 227,-320.67"/>
</a>
</g>
</g>
<!-- Node4 -->
<g id="Node000004" class="node">
<title>Node4</title>
<g id="a_Node000004"><a xlink:href="api_2spec_2event__vector__types_8h.html" target="_top" xlink:title="ODP event vector API type definitions.">
<polygon fill="white" stroke="#666666" points="419,-316 310,-316 310,-286 419,-286 419,-316"/>
<text text-anchor="start" x="318" y="-304" font-family="Helvetica,sans-Serif" font-size="10.00">odp/api/spec/event</text>
<text text-anchor="middle" x="364.5" y="-293" font-family="Helvetica,sans-Serif" font-size="10.00">_vector_types.h</text>
</a>
</g>
</g>
<!-- Node1&#45;&gt;Node4 -->
<g id="edge3_Node000001_Node000004" class="edge">
<title>Node1&#45;&gt;Node4</title>
<g id="a_edge3_Node000001_Node000004"><a xlink:title=" ">
<path fill="none" stroke="#63b8ff" d="M244,-351.99C264.12,-343.65 295.42,-330.66 321.08,-320.02"/>
<polygon fill="#63b8ff" stroke="#63b8ff" points="322.71,-323.13 330.6,-316.06 320.02,-316.66 322.71,-323.13"/>
</a>
</g>
</g>
<!-- Node5 -->
<g id="Node000005" class="node">
<title>Node5</title>
<g id="a_Node000005"><a xlink:href="visibility__begin_8h_source.html" target="_top" xlink:title=" ">
<polygon fill="white" stroke="#666666" points="416,-19 295,-19 295,0 416,0 416,-19"/>
<text text-anchor="middle" x="355.5" y="-7" font-family="Helvetica,sans-Serif" font-size="10.00">odp/visibility_begin.h</text>
</a>
</g>
</g>
<!-- Node4&#45;&gt;Node5 -->
<g id="edge4_Node000004_Node000005" class="edge">
<title>Node4&#45;&gt;Node5</title>
<g id="a_edge4_Node000004_Node000005"><a xlink:title=" ">
<path fill="none" stroke="#63b8ff" d="M312.07,-285.91C225.34,-261.87 61.5,-212.94 61.5,-186.5 61.5,-186.5 61.5,-186.5 61.5,-129.5 61.5,-95.33 55.28,-78.06 80.5,-55 109.59,-28.4 213.1,-17.63 284.49,-13.32"/>
<polygon fill="#63b8ff" stroke="#63b8ff" points="284.99,-16.8 294.77,-12.73 284.59,-9.81 284.99,-16.8"/>
</a>
</g>
</g>
<!-- Node6 -->
<g id="Node000006" class="node">
<title>Node6</title>
<g id="a_Node000006"><a xlink:href="api_2event__types_8h.html" target="_top" xlink:title="ODP event API type definitions.">
<polygon fill="white" stroke="#666666" points="360,-140 235,-140 235,-121 360,-121 360,-140"/>
<text text-anchor="middle" x="297.5" y="-128" font-family="Helvetica,sans-Serif" font-size="10.00">odp/api/event_types.h</text>
</a>
</g>
</g>
<!-- Node4&#45;&gt;Node6 -->
<g id="edge5_Node000004_Node000006" class="edge">
<title>Node4&#45;&gt;Node6</title>
<g id="a_edge5_Node000004_Node000006"><a xlink:title=" ">
<path fill="none" stroke="#63b8ff" d="M358.9,-285.92C346.81,-255.52 318.27,-183.73 304.79,-149.83"/>
<polygon fill="#63b8ff" stroke="#63b8ff" points="307.93,-148.25 300.98,-140.25 301.42,-150.84 307.93,-148.25"/>
</a>
</g>
</g>
<!-- Node9 -->
<g id="Node000009" class="node">
<title>Node9</title>
<g id="a_Node000009"><a xlink:href="visibility__end_8h_source.html" target="_top" xlink:title=" ">
<polygon fill="white" stroke="#666666" points="562.5,-19 450.5,-19 450.5,0 562.5,0 562.5,-19"/>
<text text-anchor="middle" x="506.5" y="-7" font-family="Helvetica,sans-Serif" font-size="10.00">odp/visibility_end.h</text>
</a>
</g>
</g>
<!-- Node4&#45;&gt;Node9 -->
<g id="edge21_Node000004_Node000009" class="edge">
<title>Node4&#45;&gt;Node9</title>
<g id="a_edge21_Node000004_Node000009"><a xlink:title=" ">
<path fill="none" stroke="#63b8ff" d="M419.06,-296.84C533.58,-288.71 788.5,-262.13 788.5,-186.5 788.5,-186.5 788.5,-186.5 788.5,-129.5 788.5,-36.28 656.07,-14.94 572.71,-10.74"/>
<polygon fill="#63b8ff" stroke="#63b8ff" points="572.69,-7.24 562.55,-10.3 572.39,-14.23 572.69,-7.24"/>
</a>
</g>
</g>
<!-- Node10 -->
<g id="Node000010" class="node">
<title>Node10</title>
<g id="a_Node000010"><a xlink:href="api_2std__types_8h.html" target="_top" xlink:title="Standard C language types and definitions for ODP.">
<polygon fill="white" stroke="#666666" points="482.5,-250 370.5,-250 370.5,-231 482.5,-231 482.5,-250"/>
<text text-anchor="middle" x="426.5" y="-238" font-family="Helvetica,sans-Serif" font-size="10.00">odp/api/std_types.h</text>
</a>
</g>
</g>
<!-- Node4&#45;&gt;Node10 -->
<g id="edge10_Node000004_Node000010" class="edge">
<title>Node4&#45;&gt;Node10</title>
<g id="a_edge10_Node000004_Node000010"><a xlink:title=" ">
<path fill="none" stroke="#63b8ff" d="M379.51,-285.84C388.69,-277.17 400.45,-266.08 409.91,-257.15"/>
<polygon fill="#63b8ff" stroke="#63b8ff" points="412.34,-259.67 417.21,-250.27 407.53,-254.58 412.34,-259.67"/>
</a>
</g>
</g>
<!-- Node7 -->
<g id="Node000007" class="node">
<title>Node7</title>
<g id="a_Node000007"><a xlink:title=" ">
<polygon fill="#e0e0e0" stroke="#999999" points="233,-79.5 90,-79.5 90,-60.5 233,-60.5 233,-79.5"/>
<text text-anchor="middle" x="161.5" y="-67.5" font-family="Helvetica,sans-Serif" font-size="10.00">odp/api/abi/event_types.h</text>
</a>
</g>
</g>
<!-- Node6&#45;&gt;Node7 -->
<g id="edge6_Node000006_Node000007" class="edge">
<title>Node6&#45;&gt;Node7</title>
<g id="a_edge6_Node000006_Node000007"><a xlink:title=" ">
<path fill="none" stroke="#63b8ff" d="M277.72,-120.99C254.86,-111.16 217.01,-94.88 190.74,-83.58"/>
<polygon fill="#63b8ff" stroke="#63b8ff" points="191.87,-80.25 181.3,-79.52 189.1,-86.68 191.87,-80.25"/>
</a>
</g>
</g>
<!-- Node8 -->
<g id="Node000008" class="node">
<title>Node8</title>
<g id="a_Node000008"><a xlink:href="api_2spec_2event__types_8h.html" target="_top" xlink:title="ODP event API type definitions.">
<polygon fill="white" stroke="#666666" points="360,-85 251,-85 251,-55 360,-55 360,-85"/>
<text text-anchor="start" x="259" y="-73" font-family="Helvetica,sans-Serif" font-size="10.00">odp/api/spec/event</text>
<text text-anchor="middle" x="305.5" y="-62" font-family="Helvetica,sans-Serif" font-size="10.00">_types.h</text>
</a>
</g>
</g>
<!-- Node6&#45;&gt;Node8 -->
<g id="edge7_Node000006_Node000008" class="edge">
<title>Node6&#45;&gt;Node8</title>
<g id="a_edge7_Node000006_Node000008"><a xlink:title=" ">
<path fill="none" stroke="#63b8ff" d="M298.68,-120.87C299.61,-114.11 300.94,-104.35 302.18,-95.26"/>
<polygon fill="#63b8ff" stroke="#63b8ff" points="305.68,-95.5 303.57,-85.11 298.75,-94.55 305.68,-95.5"/>
</a>
</g>
</g>
<!-- Node8&#45;&gt;Node5 -->
<g id="edge8_Node000008_Node000005" class="edge">
<title>Node8&#45;&gt;Node5</title>
<g id="a_edge8_Node000008_Node000005"><a xlink:title=" ">
<path fill="none" stroke="#63b8ff" d="M317.6,-54.84C324.79,-46.43 333.93,-35.74 341.43,-26.96"/>
<polygon fill="#63b8ff" stroke="#63b8ff" points="344.17,-29.14 348.01,-19.27 338.85,-24.59 344.17,-29.14"/>
</a>
</g>
</g>
<!-- Node8&#45;&gt;Node9 -->
<g id="edge9_Node000008_Node000009" class="edge">
<title>Node8&#45;&gt;Node9</title>
<g id="a_edge9_Node000008_Node000009"><a xlink:title=" ">
<path fill="none" stroke="#63b8ff" d="M353.64,-54.99C388.48,-44.85 434.97,-31.32 467.49,-21.85"/>
<polygon fill="#63b8ff" stroke="#63b8ff" points="468.49,-25.21 477.11,-19.05 466.53,-18.49 468.49,-25.21"/>
</a>
</g>
</g>
<!-- Node11 -->
<g id="Node000011" class="node">
<title>Node11</title>
<g id="a_Node000011"><a xlink:title=" ">
<polygon fill="#e0e0e0" stroke="#999999" points="491.5,-195 361.5,-195 361.5,-176 491.5,-176 491.5,-195"/>
<text text-anchor="middle" x="426.5" y="-183" font-family="Helvetica,sans-Serif" font-size="10.00">odp/api/abi/std_types.h</text>
</a>
</g>
</g>
<!-- Node10&#45;&gt;Node11 -->
<g id="edge11_Node000010_Node000011" class="edge">
<title>Node10&#45;&gt;Node11</title>
<g id="a_edge11_Node000010_Node000011"><a xlink:title=" ">
<path fill="none" stroke="#63b8ff" d="M426.5,-230.75C426.5,-223.8 426.5,-213.85 426.5,-205.13"/>
<polygon fill="#63b8ff" stroke="#63b8ff" points="430,-205.09 426.5,-195.09 423,-205.09 430,-205.09"/>
</a>
</g>
</g>
<!-- Node12 -->
<g id="Node000012" class="node">
<title>Node12</title>
<g id="a_Node000012"><a xlink:href="api_2spec_2std__types_8h.html" target="_top" xlink:title="Common types and definitions for ODP API files.">
<polygon fill="white" stroke="#666666" points="662,-195 525,-195 525,-176 662,-176 662,-195"/>
<text text-anchor="middle" x="593.5" y="-183" font-family="Helvetica,sans-Serif" font-size="10.00">odp/api/spec/std_types.h</text>
</a>
</g>
</g>
<!-- Node10&#45;&gt;Node12 -->
<g id="edge12_Node000010_Node000012" class="edge">
<title>Node10&#45;&gt;Node12</title>
<g id="a_edge12_Node000010_Node000012"><a xlink:title=" ">
<path fill="none" stroke="#63b8ff" d="M453.33,-230.98C481.37,-222.09 525.55,-208.07 556.8,-198.15"/>
<polygon fill="#63b8ff" stroke="#63b8ff" points="557.99,-201.44 566.46,-195.08 555.87,-194.77 557.99,-201.44"/>
</a>
</g>
</g>
<!-- Node12&#45;&gt;Node5 -->
<g id="edge13_Node000012_Node000005" class="edge">
<title>Node12&#45;&gt;Node5</title>
<g id="a_edge13_Node000012_Node000005"><a xlink:title=" ">
<path fill="none" stroke="#63b8ff" d="M569.59,-175.94C531.93,-161.57 457.88,-129.75 407.5,-85 389.14,-68.69 373.88,-44.67 364.74,-28.34"/>
<polygon fill="#63b8ff" stroke="#63b8ff" points="367.69,-26.45 359.87,-19.31 361.53,-29.77 367.69,-26.45"/>
</a>
</g>
</g>
<!-- Node12&#45;&gt;Node9 -->
<g id="edge20_Node000012_Node000009" class="edge">
<title>Node12&#45;&gt;Node9</title>
<g id="a_edge20_Node000012_Node000009"><a xlink:title=" ">
<path fill="none" stroke="#63b8ff" d="M607.84,-175.99C620.01,-168.08 637.09,-155.25 647.5,-140 669.27,-108.11 688.84,-85.77 665.5,-55 653.93,-39.75 611.15,-28.3 572.88,-20.83"/>
<polygon fill="#63b8ff" stroke="#63b8ff" points="573.23,-17.34 562.75,-18.93 571.93,-24.22 573.23,-17.34"/>
</a>
</g>
</g>
<!-- Node13 -->
<g id="Node000013" class="node">
<title>Node13</title>
<g id="a_Node000013"><a xlink:title=" ">
<polygon fill="#e0e0e0" stroke="#999999" points="760,-140 707,-140 707,-121 760,-121 760,-140"/>
<text text-anchor="middle" x="733.5" y="-128" font-family="Helvetica,sans-Serif" font-size="10.00">stdint.h</text>
</a>
</g>
</g>
<!-- Node12&#45;&gt;Node13 -->
<g id="edge14_Node000012_Node000013" class="edge">
<title>Node12&#45;&gt;Node13</title>
<g id="a_edge14_Node000012_Node000013"><a xlink:title=" ">
<path fill="none" stroke="#63b8ff" d="M615.99,-175.98C639.02,-167.27 675.04,-153.63 701.13,-143.75"/>
<polygon fill="#63b8ff" stroke="#63b8ff" points="702.48,-146.98 710.6,-140.17 700.01,-140.44 702.48,-146.98"/>
</a>
</g>
</g>
<!-- Node14 -->
<g id="Node000014" class="node">
<title>Node14</title>
<g id="a_Node000014"><a xlink:href="api_2align_8h.html" target="_top" xlink:title="ODP alignments.">
<polygon fill="white" stroke="#666666" points="638,-140 549,-140 549,-121 638,-121 638,-140"/>
<text text-anchor="middle" x="593.5" y="-128" font-family="Helvetica,sans-Serif" font-size="10.00">odp/api/align.h</text>
</a>
</g>
</g>
<!-- Node12&#45;&gt;Node14 -->
<g id="edge15_Node000012_Node000014" class="edge">
<title>Node12&#45;&gt;Node14</title>
<g id="a_edge15_Node000012_Node000014"><a xlink:title=" ">
<path fill="none" stroke="#63b8ff" d="M593.5,-175.75C593.5,-168.8 593.5,-158.85 593.5,-150.13"/>
<polygon fill="#63b8ff" stroke="#63b8ff" points="597,-150.09 593.5,-140.09 590,-150.09 597,-150.09"/>
</a>
</g>
</g>
<!-- Node15 -->
<g id="Node000015" class="node">
<title>Node15</title>
<g id="a_Node000015"><a xlink:title=" ">
<polygon fill="#e0e0e0" stroke="#999999" points="656,-79.5 549,-79.5 549,-60.5 656,-60.5 656,-79.5"/>
<text text-anchor="middle" x="602.5" y="-67.5" font-family="Helvetica,sans-Serif" font-size="10.00">odp/api/abi/align.h</text>
</a>
</g>
</g>
<!-- Node14&#45;&gt;Node15 -->
<g id="edge16_Node000014_Node000015" class="edge">
<title>Node14&#45;&gt;Node15</title>
<g id="a_edge16_Node000014_Node000015"><a xlink:title=" ">
<path fill="none" stroke="#63b8ff" d="M594.83,-120.87C596.09,-112.66 598.03,-100.04 599.65,-89.55"/>
<polygon fill="#63b8ff" stroke="#63b8ff" points="603.11,-90.08 601.17,-79.67 596.19,-89.02 603.11,-90.08"/>
</a>
</g>
</g>
<!-- Node16 -->
<g id="Node000016" class="node">
<title>Node16</title>
<g id="a_Node000016"><a xlink:href="api_2spec_2align_8h.html" target="_top" xlink:title="ODP alignments.">
<polygon fill="white" stroke="#666666" points="530.5,-79.5 416.5,-79.5 416.5,-60.5 530.5,-60.5 530.5,-79.5"/>
<text text-anchor="middle" x="473.5" y="-67.5" font-family="Helvetica,sans-Serif" font-size="10.00">odp/api/spec/align.h</text>
</a>
</g>
</g>
<!-- Node14&#45;&gt;Node16 -->
<g id="edge17_Node000014_Node000016" class="edge">
<title>Node14&#45;&gt;Node16</title>
<g id="a_edge17_Node000014_Node000016"><a xlink:title=" ">
<path fill="none" stroke="#63b8ff" d="M576.05,-120.99C556.14,-111.29 523.36,-95.31 500.23,-84.03"/>
<polygon fill="#63b8ff" stroke="#63b8ff" points="501.49,-80.75 490.97,-79.52 498.43,-87.04 501.49,-80.75"/>
</a>
</g>
</g>
<!-- Node16&#45;&gt;Node5 -->
<g id="edge18_Node000016_Node000005" class="edge">
<title>Node16&#45;&gt;Node5</title>
<g id="a_edge18_Node000016_Node000005"><a xlink:title=" ">
<path fill="none" stroke="#63b8ff" d="M456.34,-60.49C436.77,-50.79 404.53,-34.81 381.78,-23.53"/>
<polygon fill="#63b8ff" stroke="#63b8ff" points="383.19,-20.32 372.68,-19.02 380.08,-26.59 383.19,-20.32"/>
</a>
</g>
</g>
<!-- Node16&#45;&gt;Node9 -->
<g id="edge19_Node000016_Node000009" class="edge">
<title>Node16&#45;&gt;Node9</title>
<g id="a_edge19_Node000016_Node000009"><a xlink:title=" ">
<path fill="none" stroke="#63b8ff" d="M478.37,-60.37C483.15,-51.9 490.57,-38.74 496.59,-28.07"/>
<polygon fill="#63b8ff" stroke="#63b8ff" points="499.75,-29.6 501.61,-19.17 493.65,-26.16 499.75,-29.6"/>
</a>
</g>
</g>
</g>
</svg>
