<?xml version="1.0" encoding="UTF-8" standalone="no"?>
<!DOCTYPE svg PUBLIC "-//W3C//DTD SVG 1.1//EN"
 "http://www.w3.org/Graphics/SVG/1.1/DTD/svg11.dtd">
<!-- Generated by graphviz version 2.43.0 (0)
 -->
<!-- Title: queue_types.h Pages: 1 -->
<svg width="898pt" height="632pt"
 viewBox="0.00 0.00 898.00 632.00" xmlns="http://www.w3.org/2000/svg" xmlns:xlink="http://www.w3.org/1999/xlink">
<g id="graph0" class="graph" transform="scale(1 1) rotate(0) translate(4 628)">
<title>queue_types.h</title>
<!-- Node1 -->
<g id="Node000001" class="node">
<title>Node1</title>
<g id="a_Node000001"><a xlink:title="ODP queue.">
<polygon fill="#999999" stroke="#666666" points="285,-624 197,-624 197,-605 285,-605 285,-624"/>
<text text-anchor="middle" x="241" y="-612" font-family="Helvetica,sans-Serif" font-size="10.00">queue_types.h</text>
</a>
</g>
</g>
<!-- Node2 -->
<g id="Node000002" class="node">
<title>Node2</title>
<g id="a_Node000002"><a xlink:title=" ">
<polygon fill="#e0e0e0" stroke="#999999" points="240.5,-563.5 95.5,-563.5 95.5,-544.5 240.5,-544.5 240.5,-563.5"/>
<text text-anchor="middle" x="168" y="-551.5" font-family="Helvetica,sans-Serif" font-size="10.00">odp/api/abi/queue_types.h</text>
</a>
</g>
</g>
<!-- Node1&#45;&gt;Node2 -->
<g id="edge1_Node000001_Node000002" class="edge">
<title>Node1&#45;&gt;Node2</title>
<g id="a_edge1_Node000001_Node000002"><a xlink:title=" ">
<path fill="none" stroke="#63b8ff" d="M230.23,-604.87C218.8,-595.71 200.52,-581.06 186.72,-570.01"/>
<polygon fill="#63b8ff" stroke="#63b8ff" points="188.81,-567.19 178.82,-563.67 184.43,-572.65 188.81,-567.19"/>
</a>
</g>
</g>
<!-- Node3 -->
<g id="Node000003" class="node">
<title>Node3</title>
<g id="a_Node000003"><a xlink:href="api_2spec_2queue__types_8h.html" target="_top" xlink:title="ODP queue types.">
<polygon fill="white" stroke="#666666" points="369.5,-569 258.5,-569 258.5,-539 369.5,-539 369.5,-569"/>
<text text-anchor="start" x="266.5" y="-557" font-family="Helvetica,sans-Serif" font-size="10.00">odp/api/spec/queue</text>
<text text-anchor="middle" x="314" y="-546" font-family="Helvetica,sans-Serif" font-size="10.00">_types.h</text>
</a>
</g>
</g>
<!-- Node1&#45;&gt;Node3 -->
<g id="edge2_Node000001_Node000003" class="edge">
<title>Node1&#45;&gt;Node3</title>
<g id="a_edge2_Node000001_Node000003"><a xlink:title=" ">
<path fill="none" stroke="#63b8ff" d="M251.77,-604.87C261.4,-597.15 275.89,-585.54 288.47,-575.46"/>
<polygon fill="#63b8ff" stroke="#63b8ff" points="290.77,-578.1 296.39,-569.11 286.39,-572.64 290.77,-578.1"/>
</a>
</g>
</g>
<!-- Node4 -->
<g id="Node000004" class="node">
<title>Node4</title>
<g id="a_Node000004"><a xlink:href="visibility__begin_8h_source.html" target="_top" xlink:title=" ">
<polygon fill="white" stroke="#666666" points="336.5,-19 215.5,-19 215.5,0 336.5,0 336.5,-19"/>
<text text-anchor="middle" x="276" y="-7" font-family="Helvetica,sans-Serif" font-size="10.00">odp/visibility_begin.h</text>
</a>
</g>
</g>
<!-- Node3&#45;&gt;Node4 -->
<g id="edge3_Node000003_Node000004" class="edge">
<title>Node3&#45;&gt;Node4</title>
<g id="a_edge3_Node000003_Node000004"><a xlink:title=" ">
<path fill="none" stroke="#63b8ff" d="M262.5,-538.97C173.42,-513.97 0,-461.73 0,-434 0,-434 0,-434 0,-129.5 0,-40.09 123.66,-17.06 205.43,-11.6"/>
<polygon fill="#63b8ff" stroke="#63b8ff" points="205.66,-15.09 215.43,-11.01 205.24,-8.11 205.66,-15.09"/>
</a>
</g>
</g>
<!-- Node5 -->
<g id="Node000005" class="node">
<title>Node5</title>
<g id="a_Node000005"><a xlink:href="api_2event__vector__types_8h.html" target="_top" xlink:title="ODP event vector API type definitions.">
<polygon fill="white" stroke="#666666" points="319.5,-382 200.5,-382 200.5,-352 319.5,-352 319.5,-382"/>
<text text-anchor="start" x="208.5" y="-370" font-family="Helvetica,sans-Serif" font-size="10.00">odp/api/event_vector</text>
<text text-anchor="middle" x="260" y="-359" font-family="Helvetica,sans-Serif" font-size="10.00">_types.h</text>
</a>
</g>
</g>
<!-- Node3&#45;&gt;Node5 -->
<g id="edge4_Node000003_Node000005" class="edge">
<title>Node3&#45;&gt;Node5</title>
<g id="a_edge4_Node000003_Node000005"><a xlink:title=" ">
<path fill="none" stroke="#63b8ff" d="M303.19,-538.9C296.36,-529.29 287.92,-515.99 283,-503 269.02,-466.06 263.5,-420.22 261.34,-392.58"/>
<polygon fill="#63b8ff" stroke="#63b8ff" points="264.81,-392 260.63,-382.27 257.83,-392.48 264.81,-392"/>
</a>
</g>
</g>
<!-- Node12 -->
<g id="Node000012" class="node">
<title>Node12</title>
<g id="a_Node000012"><a xlink:href="visibility__end_8h_source.html" target="_top" xlink:title=" ">
<polygon fill="white" stroke="#666666" points="832,-19 720,-19 720,0 832,0 832,-19"/>
<text text-anchor="middle" x="776" y="-7" font-family="Helvetica,sans-Serif" font-size="10.00">odp/visibility_end.h</text>
</a>
</g>
</g>
<!-- Node3&#45;&gt;Node12 -->
<g id="edge39_Node000003_Node000012" class="edge">
<title>Node3&#45;&gt;Node12</title>
<g id="a_edge39_Node000003_Node000012"><a xlink:title=" ">
<path fill="none" stroke="#63b8ff" d="M369.75,-553.2C514.31,-552.23 890,-539.56 890,-434 890,-434 890,-434 890,-129.5 890,-79.55 836.98,-42.38 803.26,-23.8"/>
<polygon fill="#63b8ff" stroke="#63b8ff" points="804.79,-20.65 794.32,-19.05 801.51,-26.83 804.79,-20.65"/>
</a>
</g>
</g>
<!-- Node20 -->
<g id="Node000020" class="node">
<title>Node20</title>
<g id="a_Node000020"><a xlink:href="api_2schedule__types_8h.html" target="_top" xlink:title="ODP schedule.">
<polygon fill="white" stroke="#666666" points="432,-503 292,-503 292,-484 432,-484 432,-503"/>
<text text-anchor="middle" x="362" y="-491" font-family="Helvetica,sans-Serif" font-size="10.00">odp/api/schedule_types.h</text>
</a>
</g>
</g>
<!-- Node3&#45;&gt;Node20 -->
<g id="edge26_Node000003_Node000020" class="edge">
<title>Node3&#45;&gt;Node20</title>
<g id="a_edge26_Node000003_Node000020"><a xlink:title=" ">
<path fill="none" stroke="#63b8ff" d="M325.62,-538.84C332.44,-530.52 341.11,-519.96 348.27,-511.23"/>
<polygon fill="#63b8ff" stroke="#63b8ff" points="351.17,-513.22 354.81,-503.27 345.76,-508.78 351.17,-513.22"/>
</a>
</g>
</g>
<!-- Node6 -->
<g id="Node000006" class="node">
<title>Node6</title>
<g id="a_Node000006"><a xlink:title=" ">
<polygon fill="#e0e0e0" stroke="#999999" points="165.5,-316 28.5,-316 28.5,-286 165.5,-286 165.5,-316"/>
<text text-anchor="start" x="36.5" y="-304" font-family="Helvetica,sans-Serif" font-size="10.00">odp/api/abi/event_vector</text>
<text text-anchor="middle" x="97" y="-293" font-family="Helvetica,sans-Serif" font-size="10.00">_types.h</text>
</a>
</g>
</g>
<!-- Node5&#45;&gt;Node6 -->
<g id="edge5_Node000005_Node000006" class="edge">
<title>Node5&#45;&gt;Node6</title>
<g id="a_edge5_Node000005_Node000006"><a xlink:title=" ">
<path fill="none" stroke="#63b8ff" d="M224.23,-351.95C200.13,-342.49 168.15,-329.93 142.27,-319.78"/>
<polygon fill="#63b8ff" stroke="#63b8ff" points="143.27,-316.41 132.69,-316.01 140.72,-322.93 143.27,-316.41"/>
</a>
</g>
</g>
<!-- Node7 -->
<g id="Node000007" class="node">
<title>Node7</title>
<g id="a_Node000007"><a xlink:title=" ">
<polygon fill="#e0e0e0" stroke="#999999" points="320,-310.5 184,-310.5 184,-291.5 320,-291.5 320,-310.5"/>
<text text-anchor="middle" x="252" y="-298.5" font-family="Helvetica,sans-Serif" font-size="10.00">odp/api/abi/pool_types.h</text>
</a>
</g>
</g>
<!-- Node5&#45;&gt;Node7 -->
<g id="edge6_Node000005_Node000007" class="edge">
<title>Node5&#45;&gt;Node7</title>
<g id="a_edge6_Node000005_Node000007"><a xlink:title=" ">
<path fill="none" stroke="#63b8ff" d="M258.22,-351.8C257.09,-342.7 255.6,-330.79 254.36,-320.9"/>
<polygon fill="#63b8ff" stroke="#63b8ff" points="257.82,-320.33 253.11,-310.84 250.87,-321.2 257.82,-320.33"/>
</a>
</g>
</g>
<!-- Node8 -->
<g id="Node000008" class="node">
<title>Node8</title>
<g id="a_Node000008"><a xlink:href="api_2spec_2event__vector__types_8h.html" target="_top" xlink:title="ODP event vector API type definitions.">
<polygon fill="white" stroke="#666666" points="485.5,-316 376.5,-316 376.5,-286 485.5,-286 485.5,-316"/>
<text text-anchor="start" x="384.5" y="-304" font-family="Helvetica,sans-Serif" font-size="10.00">odp/api/spec/event</text>
<text text-anchor="middle" x="431" y="-293" font-family="Helvetica,sans-Serif" font-size="10.00">_vector_types.h</text>
</a>
</g>
</g>
<!-- Node5&#45;&gt;Node8 -->
<g id="edge7_Node000005_Node000008" class="edge">
<title>Node5&#45;&gt;Node8</title>
<g id="a_edge7_Node000005_Node000008"><a xlink:title=" ">
<path fill="none" stroke="#63b8ff" d="M297.53,-351.95C322.92,-342.45 356.66,-329.82 383.86,-319.64"/>
<polygon fill="#63b8ff" stroke="#63b8ff" points="385.42,-322.8 393.56,-316.01 382.97,-316.24 385.42,-322.8"/>
</a>
</g>
</g>
<!-- Node8&#45;&gt;Node4 -->
<g id="edge8_Node000008_Node000004" class="edge">
<title>Node8&#45;&gt;Node4</title>
<g id="a_edge8_Node000008_Node000004"><a xlink:title=" ">
<path fill="none" stroke="#63b8ff" d="M376.1,-292.78C336.06,-285.89 281.42,-273.03 238,-250 143.27,-199.77 101.16,-184.82 62,-85 57.13,-72.59 53.59,-65.34 62,-55 79.92,-32.97 150.05,-21.49 205.2,-15.75"/>
<polygon fill="#63b8ff" stroke="#63b8ff" points="205.71,-19.22 215.31,-14.75 205.01,-12.25 205.71,-19.22"/>
</a>
</g>
</g>
<!-- Node9 -->
<g id="Node000009" class="node">
<title>Node9</title>
<g id="a_Node000009"><a xlink:href="api_2event__types_8h.html" target="_top" xlink:title="ODP event API type definitions.">
<polygon fill="white" stroke="#666666" points="247.5,-140 122.5,-140 122.5,-121 247.5,-121 247.5,-140"/>
<text text-anchor="middle" x="185" y="-128" font-family="Helvetica,sans-Serif" font-size="10.00">odp/api/event_types.h</text>
</a>
</g>
</g>
<!-- Node8&#45;&gt;Node9 -->
<g id="edge9_Node000008_Node000009" class="edge">
<title>Node8&#45;&gt;Node9</title>
<g id="a_edge9_Node000008_Node000009"><a xlink:title=" ">
<path fill="none" stroke="#63b8ff" d="M376.26,-288.14C334.16,-278.24 280.21,-263.59 262,-250 226.57,-223.56 202.87,-175.64 191.94,-149.57"/>
<polygon fill="#63b8ff" stroke="#63b8ff" points="195.13,-148.12 188.15,-140.15 188.64,-150.74 195.13,-148.12"/>
</a>
</g>
</g>
<!-- Node8&#45;&gt;Node12 -->
<g id="edge25_Node000008_Node000012" class="edge">
<title>Node8&#45;&gt;Node12</title>
<g id="a_edge25_Node000008_Node000012"><a xlink:title=" ">
<path fill="none" stroke="#63b8ff" d="M456.75,-285.91C491.69,-266.51 555.77,-230.01 608,-195 641.74,-172.38 649.36,-165.47 681,-140 710.21,-116.48 722.98,-115.36 745,-85 757.43,-67.86 765.99,-45 770.91,-29.14"/>
<polygon fill="#63b8ff" stroke="#63b8ff" points="774.3,-30.01 773.75,-19.43 767.58,-28.05 774.3,-30.01"/>
</a>
</g>
</g>
<!-- Node13 -->
<g id="Node000013" class="node">
<title>Node13</title>
<g id="a_Node000013"><a xlink:href="api_2std__types_8h.html" target="_top" xlink:title="Standard C language types and definitions for ODP.">
<polygon fill="white" stroke="#666666" points="719,-250 607,-250 607,-231 719,-231 719,-250"/>
<text text-anchor="middle" x="663" y="-238" font-family="Helvetica,sans-Serif" font-size="10.00">odp/api/std_types.h</text>
</a>
</g>
</g>
<!-- Node8&#45;&gt;Node13 -->
<g id="edge14_Node000008_Node000013" class="edge">
<title>Node8&#45;&gt;Node13</title>
<g id="a_edge14_Node000008_Node000013"><a xlink:title=" ">
<path fill="none" stroke="#63b8ff" d="M485.69,-286.21C526.51,-275.92 581.56,-262.03 619.44,-252.49"/>
<polygon fill="#63b8ff" stroke="#63b8ff" points="620.31,-255.87 629.15,-250.03 618.6,-249.09 620.31,-255.87"/>
</a>
</g>
</g>
<!-- Node10 -->
<g id="Node000010" class="node">
<title>Node10</title>
<g id="a_Node000010"><a xlink:title=" ">
<polygon fill="#e0e0e0" stroke="#999999" points="247.5,-79.5 104.5,-79.5 104.5,-60.5 247.5,-60.5 247.5,-79.5"/>
<text text-anchor="middle" x="176" y="-67.5" font-family="Helvetica,sans-Serif" font-size="10.00">odp/api/abi/event_types.h</text>
</a>
</g>
</g>
<!-- Node9&#45;&gt;Node10 -->
<g id="edge10_Node000009_Node000010" class="edge">
<title>Node9&#45;&gt;Node10</title>
<g id="a_edge10_Node000009_Node000010"><a xlink:title=" ">
<path fill="none" stroke="#63b8ff" d="M183.67,-120.87C182.41,-112.66 180.47,-100.04 178.85,-89.55"/>
<polygon fill="#63b8ff" stroke="#63b8ff" points="182.31,-89.02 177.33,-79.67 175.39,-90.08 182.31,-89.02"/>
</a>
</g>
</g>
<!-- Node11 -->
<g id="Node000011" class="node">
<title>Node11</title>
<g id="a_Node000011"><a xlink:href="api_2spec_2event__types_8h.html" target="_top" xlink:title="ODP event API type definitions.">
<polygon fill="white" stroke="#666666" points="451.5,-85 342.5,-85 342.5,-55 451.5,-55 451.5,-85"/>
<text text-anchor="start" x="350.5" y="-73" font-family="Helvetica,sans-Serif" font-size="10.00">odp/api/spec/event</text>
<text text-anchor="middle" x="397" y="-62" font-family="Helvetica,sans-Serif" font-size="10.00">_types.h</text>
</a>
</g>
</g>
<!-- Node9&#45;&gt;Node11 -->
<g id="edge11_Node000009_Node000011" class="edge">
<title>Node9&#45;&gt;Node11</title>
<g id="a_edge11_Node000009_Node000011"><a xlink:title=" ">
<path fill="none" stroke="#63b8ff" d="M215.83,-120.99C247.27,-112.32 296.89,-98.62 336.26,-87.76"/>
<polygon fill="#63b8ff" stroke="#63b8ff" points="337.32,-91.1 346.03,-85.06 335.46,-84.35 337.32,-91.1"/>
</a>
</g>
</g>
<!-- Node11&#45;&gt;Node4 -->
<g id="edge12_Node000011_Node000004" class="edge">
<title>Node11&#45;&gt;Node4</title>
<g id="a_edge12_Node000011_Node000004"><a xlink:title=" ">
<path fill="none" stroke="#63b8ff" d="M368.02,-54.99C348.28,-45.45 322.33,-32.9 303.03,-23.57"/>
<polygon fill="#63b8ff" stroke="#63b8ff" points="304.4,-20.34 293.87,-19.14 301.35,-26.64 304.4,-20.34"/>
</a>
</g>
</g>
<!-- Node11&#45;&gt;Node12 -->
<g id="edge13_Node000011_Node000012" class="edge">
<title>Node11&#45;&gt;Node12</title>
<g id="a_edge13_Node000011_Node000012"><a xlink:title=" ">
<path fill="none" stroke="#63b8ff" d="M451.76,-56.74C454.88,-56.13 457.98,-55.54 461,-55 546.53,-39.63 645.9,-26.34 709.81,-18.38"/>
<polygon fill="#63b8ff" stroke="#63b8ff" points="710.26,-21.86 719.75,-17.15 709.4,-14.91 710.26,-21.86"/>
</a>
</g>
</g>
<!-- Node14 -->
<g id="Node000014" class="node">
<title>Node14</title>
<g id="a_Node000014"><a xlink:title=" ">
<polygon fill="#e0e0e0" stroke="#999999" points="785,-195 655,-195 655,-176 785,-176 785,-195"/>
<text text-anchor="middle" x="720" y="-183" font-family="Helvetica,sans-Serif" font-size="10.00">odp/api/abi/std_types.h</text>
</a>
</g>
</g>
<!-- Node13&#45;&gt;Node14 -->
<g id="edge15_Node000013_Node000014" class="edge">
<title>Node13&#45;&gt;Node14</title>
<g id="a_edge15_Node000013_Node000014"><a xlink:title=" ">
<path fill="none" stroke="#63b8ff" d="M672.16,-230.98C680.5,-223.23 693.03,-211.58 703.18,-202.14"/>
<polygon fill="#63b8ff" stroke="#63b8ff" points="705.74,-204.54 710.68,-195.17 700.97,-199.42 705.74,-204.54"/>
</a>
</g>
</g>
<!-- Node15 -->
<g id="Node000015" class="node">
<title>Node15</title>
<g id="a_Node000015"><a xlink:href="api_2spec_2std__types_8h.html" target="_top" xlink:title="Common types and definitions for ODP API files.">
<polygon fill="white" stroke="#666666" points="598.5,-195 461.5,-195 461.5,-176 598.5,-176 598.5,-195"/>
<text text-anchor="middle" x="530" y="-183" font-family="Helvetica,sans-Serif" font-size="10.00">odp/api/spec/std_types.h</text>
</a>
</g>
</g>
<!-- Node13&#45;&gt;Node15 -->
<g id="edge16_Node000013_Node000015" class="edge">
<title>Node13&#45;&gt;Node15</title>
<g id="a_edge16_Node000013_Node000015"><a xlink:title=" ">
<path fill="none" stroke="#63b8ff" d="M641.63,-230.98C619.85,-222.3 585.84,-208.75 561.08,-198.88"/>
<polygon fill="#63b8ff" stroke="#63b8ff" points="562.34,-195.62 551.76,-195.17 559.75,-202.12 562.34,-195.62"/>
</a>
</g>
</g>
<!-- Node15&#45;&gt;Node4 -->
<g id="edge17_Node000015_Node000004" class="edge">
<title>Node15&#45;&gt;Node4</title>
<g id="a_edge17_Node000015_Node000004"><a xlink:title=" ">
<path fill="none" stroke="#63b8ff" d="M504.89,-176C465.29,-161.73 387.25,-130.02 333,-85 313.31,-68.66 296.31,-44.3 286.12,-27.93"/>
<polygon fill="#63b8ff" stroke="#63b8ff" points="289.1,-26.1 280.94,-19.34 283.11,-29.71 289.1,-26.1"/>
</a>
</g>
</g>
<!-- Node15&#45;&gt;Node12 -->
<g id="edge24_Node000015_Node000012" class="edge">
<title>Node15&#45;&gt;Node12</title>
<g id="a_edge24_Node000015_Node000012"><a xlink:title=" ">
<path fill="none" stroke="#63b8ff" d="M562.95,-175.98C588.53,-168.57 624.34,-156.44 653,-140 686.12,-121 692.57,-112.56 719,-85 736.36,-66.9 753.47,-43.61 764.34,-27.93"/>
<polygon fill="#63b8ff" stroke="#63b8ff" points="767.51,-29.49 770.25,-19.26 761.72,-25.55 767.51,-29.49"/>
</a>
</g>
</g>
<!-- Node16 -->
<g id="Node000016" class="node">
<title>Node16</title>
<g id="a_Node000016"><a xlink:title=" ">
<polygon fill="#e0e0e0" stroke="#999999" points="643.5,-140 590.5,-140 590.5,-121 643.5,-121 643.5,-140"/>
<text text-anchor="middle" x="617" y="-128" font-family="Helvetica,sans-Serif" font-size="10.00">stdint.h</text>
</a>
</g>
</g>
<!-- Node15&#45;&gt;Node16 -->
<g id="edge18_Node000015_Node000016" class="edge">
<title>Node15&#45;&gt;Node16</title>
<g id="a_edge18_Node000015_Node000016"><a xlink:title=" ">
<path fill="none" stroke="#63b8ff" d="M543.98,-175.98C557.47,-167.77 578.13,-155.18 594.04,-145.49"/>
<polygon fill="#63b8ff" stroke="#63b8ff" points="596.05,-148.36 602.77,-140.17 592.41,-142.38 596.05,-148.36"/>
</a>
</g>
</g>
<!-- Node17 -->
<g id="Node000017" class="node">
<title>Node17</title>
<g id="a_Node000017"><a xlink:href="api_2align_8h.html" target="_top" xlink:title="ODP alignments.">
<polygon fill="white" stroke="#666666" points="572.5,-140 483.5,-140 483.5,-121 572.5,-121 572.5,-140"/>
<text text-anchor="middle" x="528" y="-128" font-family="Helvetica,sans-Serif" font-size="10.00">odp/api/align.h</text>
</a>
</g>
</g>
<!-- Node15&#45;&gt;Node17 -->
<g id="edge19_Node000015_Node000017" class="edge">
<title>Node15&#45;&gt;Node17</title>
<g id="a_edge19_Node000015_Node000017"><a xlink:title=" ">
<path fill="none" stroke="#63b8ff" d="M529.67,-175.75C529.41,-168.8 529.03,-158.85 528.7,-150.13"/>
<polygon fill="#63b8ff" stroke="#63b8ff" points="532.2,-149.95 528.32,-140.09 525.2,-150.21 532.2,-149.95"/>
</a>
</g>
</g>
<!-- Node18 -->
<g id="Node000018" class="node">
<title>Node18</title>
<g id="a_Node000018"><a xlink:title=" ">
<polygon fill="#e0e0e0" stroke="#999999" points="709.5,-79.5 602.5,-79.5 602.5,-60.5 709.5,-60.5 709.5,-79.5"/>
<text text-anchor="middle" x="656" y="-67.5" font-family="Helvetica,sans-Serif" font-size="10.00">odp/api/abi/align.h</text>
</a>
</g>
</g>
<!-- Node17&#45;&gt;Node18 -->
<g id="edge20_Node000017_Node000018" class="edge">
<title>Node17&#45;&gt;Node18</title>
<g id="a_edge20_Node000017_Node000018"><a xlink:title=" ">
<path fill="none" stroke="#63b8ff" d="M546.61,-120.99C568.04,-111.2 603.44,-95.02 628.15,-83.73"/>
<polygon fill="#63b8ff" stroke="#63b8ff" points="629.72,-86.86 637.37,-79.52 626.82,-80.49 629.72,-86.86"/>
</a>
</g>
</g>
<!-- Node19 -->
<g id="Node000019" class="node">
<title>Node19</title>
<g id="a_Node000019"><a xlink:href="api_2spec_2align_8h.html" target="_top" xlink:title="ODP alignments.">
<polygon fill="white" stroke="#666666" points="584,-79.5 470,-79.5 470,-60.5 584,-60.5 584,-79.5"/>
<text text-anchor="middle" x="527" y="-67.5" font-family="Helvetica,sans-Serif" font-size="10.00">odp/api/spec/align.h</text>
</a>
</g>
</g>
<!-- Node17&#45;&gt;Node19 -->
<g id="edge21_Node000017_Node000019" class="edge">
<title>Node17&#45;&gt;Node19</title>
<g id="a_edge21_Node000017_Node000019"><a xlink:title=" ">
<path fill="none" stroke="#63b8ff" d="M527.85,-120.87C527.71,-112.75 527.5,-100.31 527.32,-89.89"/>
<polygon fill="#63b8ff" stroke="#63b8ff" points="530.82,-89.61 527.15,-79.67 523.82,-89.73 530.82,-89.61"/>
</a>
</g>
</g>
<!-- Node19&#45;&gt;Node4 -->
<g id="edge22_Node000019_Node000004" class="edge">
<title>Node19&#45;&gt;Node4</title>
<g id="a_edge22_Node000019_Node000004"><a xlink:title=" ">
<path fill="none" stroke="#63b8ff" d="M490.5,-60.49C446.07,-50.14 370.99,-32.64 322.47,-21.33"/>
<polygon fill="#63b8ff" stroke="#63b8ff" points="323.08,-17.88 312.54,-19.02 321.49,-24.7 323.08,-17.88"/>
</a>
</g>
</g>
<!-- Node19&#45;&gt;Node12 -->
<g id="edge23_Node000019_Node000012" class="edge">
<title>Node19&#45;&gt;Node12</title>
<g id="a_edge23_Node000019_Node000012"><a xlink:title=" ">
<path fill="none" stroke="#63b8ff" d="M563.21,-60.49C607.28,-50.14 681.77,-32.64 729.9,-21.33"/>
<polygon fill="#63b8ff" stroke="#63b8ff" points="730.82,-24.71 739.75,-19.02 729.21,-17.9 730.82,-24.71"/>
</a>
</g>
</g>
<!-- Node21 -->
<g id="Node000021" class="node">
<title>Node21</title>
<g id="a_Node000021"><a xlink:title=" ">
<polygon fill="#e0e0e0" stroke="#999999" points="420.5,-448 303.5,-448 303.5,-418 420.5,-418 420.5,-448"/>
<text text-anchor="start" x="311.5" y="-436" font-family="Helvetica,sans-Serif" font-size="10.00">odp/api/abi/schedule</text>
<text text-anchor="middle" x="362" y="-425" font-family="Helvetica,sans-Serif" font-size="10.00">_types.h</text>
</a>
</g>
</g>
<!-- Node20&#45;&gt;Node21 -->
<g id="edge27_Node000020_Node000021" class="edge">
<title>Node20&#45;&gt;Node21</title>
<g id="a_edge27_Node000020_Node000021"><a xlink:title=" ">
<path fill="none" stroke="#63b8ff" d="M362,-483.87C362,-477.11 362,-467.35 362,-458.26"/>
<polygon fill="#63b8ff" stroke="#63b8ff" points="365.5,-458.11 362,-448.11 358.5,-458.11 365.5,-458.11"/>
</a>
</g>
</g>
<!-- Node22 -->
<g id="Node000022" class="node">
<title>Node22</title>
<g id="a_Node000022"><a xlink:href="api_2spec_2schedule__types_8h.html" target="_top" xlink:title="ODP schedule types.">
<polygon fill="white" stroke="#666666" points="576.5,-448 451.5,-448 451.5,-418 576.5,-418 576.5,-448"/>
<text text-anchor="start" x="459.5" y="-436" font-family="Helvetica,sans-Serif" font-size="10.00">odp/api/spec/schedule</text>
<text text-anchor="middle" x="514" y="-425" font-family="Helvetica,sans-Serif" font-size="10.00">_types.h</text>
</a>
</g>
</g>
<!-- Node20&#45;&gt;Node22 -->
<g id="edge28_Node000020_Node000022" class="edge">
<title>Node20&#45;&gt;Node22</title>
<g id="a_edge28_Node000020_Node000022"><a xlink:title=" ">
<path fill="none" stroke="#63b8ff" d="M384.1,-483.99C405.98,-475.57 440.13,-462.43 467.92,-451.73"/>
<polygon fill="#63b8ff" stroke="#63b8ff" points="469.38,-454.92 477.46,-448.06 466.87,-448.39 469.38,-454.92"/>
</a>
</g>
</g>
<!-- Node22&#45;&gt;Node4 -->
<g id="edge29_Node000022_Node000004" class="edge">
<title>Node22&#45;&gt;Node4</title>
<g id="a_edge29_Node000022_Node000004"><a xlink:title=" ">
<path fill="none" stroke="#63b8ff" d="M496.11,-417.77C450.58,-381.56 333.57,-288.62 329,-286 224.23,-225.82 76,-307.33 76,-186.5 76,-186.5 76,-186.5 76,-129.5 76,-95.33 70.73,-79.06 95,-55 110.72,-39.41 161.35,-27.77 205.08,-20.32"/>
<polygon fill="#63b8ff" stroke="#63b8ff" points="205.86,-23.74 215.15,-18.65 204.72,-16.83 205.86,-23.74"/>
</a>
</g>
</g>
<!-- Node22&#45;&gt;Node5 -->
<g id="edge30_Node000022_Node000005" class="edge">
<title>Node22&#45;&gt;Node5</title>
<g id="a_edge30_Node000022_Node000005"><a xlink:title=" ">
<path fill="none" stroke="#63b8ff" d="M458.26,-417.95C419.13,-408.1 366.67,-394.88 325.54,-384.51"/>
<polygon fill="#63b8ff" stroke="#63b8ff" points="326.16,-381.06 315.61,-382.01 324.45,-387.85 326.16,-381.06"/>
</a>
</g>
</g>
<!-- Node22&#45;&gt;Node12 -->
<g id="edge38_Node000022_Node000012" class="edge">
<title>Node22&#45;&gt;Node12</title>
<g id="a_edge38_Node000022_Node000012"><a xlink:title=" ">
<path fill="none" stroke="#63b8ff" d="M576.78,-421.12C674.53,-402.38 852,-360.31 852,-302 852,-302 852,-302 852,-129.5 852,-86.71 816.66,-46.94 794.18,-25.97"/>
<polygon fill="#63b8ff" stroke="#63b8ff" points="796.34,-23.21 786.57,-19.13 791.66,-28.42 796.34,-23.21"/>
</a>
</g>
</g>
<!-- Node22&#45;&gt;Node13 -->
<g id="edge31_Node000022_Node000013" class="edge">
<title>Node22&#45;&gt;Node13</title>
<g id="a_edge31_Node000022_Node000013"><a xlink:title=" ">
<path fill="none" stroke="#63b8ff" d="M512.34,-417.62C509.87,-389 508.54,-324.38 541,-286 555.2,-269.21 576.29,-258.75 596.97,-252.24"/>
<polygon fill="#63b8ff" stroke="#63b8ff" points="598.08,-255.56 606.73,-249.43 596.15,-248.83 598.08,-255.56"/>
</a>
</g>
</g>
<!-- Node23 -->
<g id="Node000023" class="node">
<title>Node23</title>
<g id="a_Node000023"><a xlink:href="api_2thrmask_8h.html" target="_top" xlink:title="ODP thread masks.">
<polygon fill="white" stroke="#666666" points="667.5,-376.5 562.5,-376.5 562.5,-357.5 667.5,-357.5 667.5,-376.5"/>
<text text-anchor="middle" x="615" y="-364.5" font-family="Helvetica,sans-Serif" font-size="10.00">odp/api/thrmask.h</text>
</a>
</g>
</g>
<!-- Node22&#45;&gt;Node23 -->
<g id="edge32_Node000022_Node000023" class="edge">
<title>Node22&#45;&gt;Node23</title>
<g id="a_edge32_Node000022_Node000023"><a xlink:title=" ">
<path fill="none" stroke="#63b8ff" d="M536.42,-417.8C553.19,-407.17 576.01,-392.7 592.75,-382.1"/>
<polygon fill="#63b8ff" stroke="#63b8ff" points="594.76,-384.97 601.34,-376.66 591.02,-379.05 594.76,-384.97"/>
</a>
</g>
</g>
<!-- Node24 -->
<g id="Node000024" class="node">
<title>Node24</title>
<g id="a_Node000024"><a xlink:title=" ">
<polygon fill="#e0e0e0" stroke="#999999" points="821.5,-310.5 698.5,-310.5 698.5,-291.5 821.5,-291.5 821.5,-310.5"/>
<text text-anchor="middle" x="760" y="-298.5" font-family="Helvetica,sans-Serif" font-size="10.00">odp/api/abi/thrmask.h</text>
</a>
</g>
</g>
<!-- Node23&#45;&gt;Node24 -->
<g id="edge33_Node000023_Node000024" class="edge">
<title>Node23&#45;&gt;Node24</title>
<g id="a_edge33_Node000023_Node000024"><a xlink:title=" ">
<path fill="none" stroke="#63b8ff" d="M634.56,-357.37C659.31,-346.44 702.17,-327.52 730.81,-314.88"/>
<polygon fill="#63b8ff" stroke="#63b8ff" points="732.56,-317.94 740.29,-310.7 729.73,-311.54 732.56,-317.94"/>
</a>
</g>
</g>
<!-- Node25 -->
<g id="Node000025" class="node">
<title>Node25</title>
<g id="a_Node000025"><a xlink:href="api_2spec_2thrmask_8h.html" target="_top" xlink:title="ODP thread masks.">
<polygon fill="white" stroke="#666666" points="680.5,-310.5 549.5,-310.5 549.5,-291.5 680.5,-291.5 680.5,-310.5"/>
<text text-anchor="middle" x="615" y="-298.5" font-family="Helvetica,sans-Serif" font-size="10.00">odp/api/spec/thrmask.h</text>
</a>
</g>
</g>
<!-- Node23&#45;&gt;Node25 -->
<g id="edge34_Node000023_Node000025" class="edge">
<title>Node23&#45;&gt;Node25</title>
<g id="a_edge34_Node000023_Node000025"><a xlink:title=" ">
<path fill="none" stroke="#63b8ff" d="M615,-357.37C615,-348.16 615,-333.29 615,-321.27"/>
<polygon fill="#63b8ff" stroke="#63b8ff" points="618.5,-320.91 615,-310.91 611.5,-320.91 618.5,-320.91"/>
</a>
</g>
</g>
<!-- Node25&#45;&gt;Node4 -->
<g id="edge35_Node000025_Node000004" class="edge">
<title>Node25&#45;&gt;Node4</title>
<g id="a_edge35_Node000025_Node000004"><a xlink:title=" ">
<path fill="none" stroke="#63b8ff" d="M549.24,-291.61C450.65,-277.16 276,-243.52 276,-186.5 276,-186.5 276,-186.5 276,-129.5 276,-94.15 276,-52.9 276,-29.42"/>
<polygon fill="#63b8ff" stroke="#63b8ff" points="279.5,-29.16 276,-19.16 272.5,-29.16 279.5,-29.16"/>
</a>
</g>
</g>
<!-- Node25&#45;&gt;Node12 -->
<g id="edge37_Node000025_Node000012" class="edge">
<title>Node25&#45;&gt;Node12</title>
<g id="a_edge37_Node000025_Node000012"><a xlink:title=" ">
<path fill="none" stroke="#63b8ff" d="M640.61,-291.37C694.36,-272.47 814,-225.97 814,-186.5 814,-186.5 814,-186.5 814,-129.5 814,-92.07 796.73,-51.03 785.48,-28.25"/>
<polygon fill="#63b8ff" stroke="#63b8ff" points="788.49,-26.46 780.81,-19.15 782.26,-29.65 788.49,-26.46"/>
</a>
</g>
</g>
<!-- Node25&#45;&gt;Node13 -->
<g id="edge36_Node000025_Node000013" class="edge">
<title>Node25&#45;&gt;Node13</title>
<g id="a_edge36_Node000025_Node000013"><a xlink:title=" ">
<path fill="none" stroke="#63b8ff" d="M622.08,-291.37C629.24,-282.64 640.49,-268.93 649.39,-258.09"/>
<polygon fill="#63b8ff" stroke="#63b8ff" points="652.25,-260.12 655.89,-250.17 646.84,-255.68 652.25,-260.12"/>
</a>
</g>
</g>
</g>
</svg>
