<?xml version="1.0" encoding="UTF-8" standalone="no"?>
<!DOCTYPE svg PUBLIC "-//W3C//DTD SVG 1.1//EN"
 "http://www.w3.org/Graphics/SVG/1.1/DTD/svg11.dtd">
<!-- Generated by graphviz version 2.43.0 (0)
 -->
<!-- Title: comp.h Pages: 1 -->
<svg width="1427pt" height="808pt"
 viewBox="0.00 0.00 1427.00 808.00" xmlns="http://www.w3.org/2000/svg" xmlns:xlink="http://www.w3.org/1999/xlink">
<g id="graph0" class="graph" transform="scale(1 1) rotate(0) translate(4 804)">
<title>comp.h</title>
<!-- Node1 -->
<g id="Node000001" class="node">
<title>Node1</title>
<g id="a_Node000001"><a xlink:title="ODP Compression.">
<polygon fill="#999999" stroke="#666666" points="983.5,-800 930.5,-800 930.5,-781 983.5,-781 983.5,-800"/>
<text text-anchor="middle" x="957" y="-788" font-family="Helvetica,sans-Serif" font-size="10.00">comp.h</text>
</a>
</g>
</g>
<!-- Node2 -->
<g id="Node000002" class="node">
<title>Node2</title>
<g id="a_Node000002"><a xlink:href="visibility__begin_8h_source.html" target="_top" xlink:title=" ">
<polygon fill="white" stroke="#666666" points="480.5,-19 359.5,-19 359.5,0 480.5,0 480.5,-19"/>
<text text-anchor="middle" x="420" y="-7" font-family="Helvetica,sans-Serif" font-size="10.00">odp/visibility_begin.h</text>
</a>
</g>
</g>
<!-- Node1&#45;&gt;Node2 -->
<g id="edge1_Node000001_Node000002" class="edge">
<title>Node1&#45;&gt;Node2</title>
<g id="a_edge1_Node000001_Node000002"><a xlink:title=" ">
<path fill="none" stroke="#63b8ff" d="M930.22,-789.05C811.19,-786.91 329.47,-776.41 182,-745 97.39,-726.98 0,-762.51 0,-676 0,-676 0,-676 0,-129.5 0,-88.61 18.76,-75.75 54,-55 102.51,-26.43 257.16,-16.11 349.18,-12.45"/>
<polygon fill="#63b8ff" stroke="#63b8ff" points="349.4,-15.95 359.26,-12.07 349.13,-8.95 349.4,-15.95"/>
</a>
</g>
</g>
<!-- Node3 -->
<g id="Node000003" class="node">
<title>Node3</title>
<g id="a_Node000003"><a xlink:href="api_2event__types_8h.html" target="_top" xlink:title="ODP event API type definitions.">
<polygon fill="white" stroke="#666666" points="289.5,-250 164.5,-250 164.5,-231 289.5,-231 289.5,-250"/>
<text text-anchor="middle" x="227" y="-238" font-family="Helvetica,sans-Serif" font-size="10.00">odp/api/event_types.h</text>
</a>
</g>
</g>
<!-- Node1&#45;&gt;Node3 -->
<g id="edge2_Node000001_Node000003" class="edge">
<title>Node1&#45;&gt;Node3</title>
<g id="a_edge2_Node000001_Node000003"><a xlink:title=" ">
<path fill="none" stroke="#63b8ff" d="M930.15,-788.94C782.5,-785.49 76,-764.38 76,-676 76,-676 76,-676 76,-432 76,-362.34 85.5,-336.95 133,-286 146.92,-271.07 166.88,-260.65 184.83,-253.66"/>
<polygon fill="#63b8ff" stroke="#63b8ff" points="186.34,-256.84 194.54,-250.13 183.95,-250.26 186.34,-256.84"/>
</a>
</g>
</g>
<!-- Node6 -->
<g id="Node000006" class="node">
<title>Node6</title>
<g id="a_Node000006"><a xlink:href="visibility__end_8h_source.html" target="_top" xlink:title=" ">
<polygon fill="white" stroke="#666666" points="1215,-19 1103,-19 1103,0 1215,0 1215,-19"/>
<text text-anchor="middle" x="1159" y="-7" font-family="Helvetica,sans-Serif" font-size="10.00">odp/visibility_end.h</text>
</a>
</g>
</g>
<!-- Node1&#45;&gt;Node6 -->
<g id="edge61_Node000001_Node000006" class="edge">
<title>Node1&#45;&gt;Node6</title>
<g id="a_edge61_Node000001_Node000006"><a xlink:title=" ">
<path fill="none" stroke="#63b8ff" d="M983.84,-788.72C1082.44,-785.12 1419,-766.23 1419,-676 1419,-676 1419,-676 1419,-129.5 1419,-44.34 1302.25,-19.88 1225.22,-13"/>
<polygon fill="#63b8ff" stroke="#63b8ff" points="1225.35,-9.5 1215.1,-12.18 1224.78,-16.48 1225.35,-9.5"/>
</a>
</g>
</g>
<!-- Node7 -->
<g id="Node000007" class="node">
<title>Node7</title>
<g id="a_Node000007"><a xlink:href="api_2packet__types_8h.html" target="_top" xlink:title="ODP packet.">
<polygon fill="white" stroke="#666666" points="1207.5,-745 1078.5,-745 1078.5,-726 1207.5,-726 1207.5,-745"/>
<text text-anchor="middle" x="1143" y="-733" font-family="Helvetica,sans-Serif" font-size="10.00">odp/api/packet_types.h</text>
</a>
</g>
</g>
<!-- Node1&#45;&gt;Node7 -->
<g id="edge7_Node000001_Node000007" class="edge">
<title>Node1&#45;&gt;Node7</title>
<g id="a_edge7_Node000001_Node000007"><a xlink:title=" ">
<path fill="none" stroke="#63b8ff" d="M983.65,-781.91C1014.96,-772.98 1067.2,-758.1 1103.29,-747.81"/>
<polygon fill="#63b8ff" stroke="#63b8ff" points="1104.35,-751.15 1113.01,-745.05 1102.43,-744.42 1104.35,-751.15"/>
</a>
</g>
</g>
<!-- Node16 -->
<g id="Node000016" class="node">
<title>Node16</title>
<g id="a_Node000016"><a xlink:href="api_2std__types_8h.html" target="_top" xlink:title="Standard C language types and definitions for ODP.">
<polygon fill="white" stroke="#666666" points="890,-250 778,-250 778,-231 890,-231 890,-250"/>
<text text-anchor="middle" x="834" y="-238" font-family="Helvetica,sans-Serif" font-size="10.00">odp/api/std_types.h</text>
</a>
</g>
</g>
<!-- Node1&#45;&gt;Node16 -->
<g id="edge60_Node000001_Node000016" class="edge">
<title>Node1&#45;&gt;Node16</title>
<g id="a_edge60_Node000001_Node000016"><a xlink:title=" ">
<path fill="none" stroke="#63b8ff" d="M958.39,-780.98C961.35,-762.13 968,-715.4 968,-676 968,-676 968,-676 968,-613.5 968,-495.86 1062.99,-456.52 1009,-352 993.52,-322.04 906.64,-276.6 861.4,-254.49"/>
<polygon fill="#63b8ff" stroke="#63b8ff" points="862.68,-251.23 852.16,-250.02 859.63,-257.53 862.68,-251.23"/>
</a>
</g>
</g>
<!-- Node23 -->
<g id="Node000023" class="node">
<title>Node23</title>
<g id="a_Node000023"><a xlink:href="api_2queue__types_8h.html" target="_top" xlink:title="ODP queue.">
<polygon fill="white" stroke="#666666" points="934.5,-624 807.5,-624 807.5,-605 934.5,-605 934.5,-624"/>
<text text-anchor="middle" x="871" y="-612" font-family="Helvetica,sans-Serif" font-size="10.00">odp/api/queue_types.h</text>
</a>
</g>
</g>
<!-- Node1&#45;&gt;Node23 -->
<g id="edge59_Node000001_Node000023" class="edge">
<title>Node1&#45;&gt;Node23</title>
<g id="a_edge59_Node000001_Node000023"><a xlink:title=" ">
<path fill="none" stroke="#63b8ff" d="M952.62,-780.63C939.1,-753.29 897.89,-669.9 879.74,-633.18"/>
<polygon fill="#63b8ff" stroke="#63b8ff" points="882.84,-631.56 875.27,-624.14 876.57,-634.66 882.84,-631.56"/>
</a>
</g>
</g>
<!-- Node4 -->
<g id="Node000004" class="node">
<title>Node4</title>
<g id="a_Node000004"><a xlink:title=" ">
<polygon fill="#e0e0e0" stroke="#999999" points="293.5,-195 150.5,-195 150.5,-176 293.5,-176 293.5,-195"/>
<text text-anchor="middle" x="222" y="-183" font-family="Helvetica,sans-Serif" font-size="10.00">odp/api/abi/event_types.h</text>
</a>
</g>
</g>
<!-- Node3&#45;&gt;Node4 -->
<g id="edge3_Node000003_Node000004" class="edge">
<title>Node3&#45;&gt;Node4</title>
<g id="a_edge3_Node000003_Node000004"><a xlink:title=" ">
<path fill="none" stroke="#63b8ff" d="M226.17,-230.75C225.52,-223.8 224.58,-213.85 223.76,-205.13"/>
<polygon fill="#63b8ff" stroke="#63b8ff" points="227.23,-204.72 222.81,-195.09 220.27,-205.37 227.23,-204.72"/>
</a>
</g>
</g>
<!-- Node5 -->
<g id="Node000005" class="node">
<title>Node5</title>
<g id="a_Node000005"><a xlink:href="api_2spec_2event__types_8h.html" target="_top" xlink:title="ODP event API type definitions.">
<polygon fill="white" stroke="#666666" points="633.5,-85 524.5,-85 524.5,-55 633.5,-55 633.5,-85"/>
<text text-anchor="start" x="532.5" y="-73" font-family="Helvetica,sans-Serif" font-size="10.00">odp/api/spec/event</text>
<text text-anchor="middle" x="579" y="-62" font-family="Helvetica,sans-Serif" font-size="10.00">_types.h</text>
</a>
</g>
</g>
<!-- Node3&#45;&gt;Node5 -->
<g id="edge4_Node000003_Node000005" class="edge">
<title>Node3&#45;&gt;Node5</title>
<g id="a_edge4_Node000003_Node000005"><a xlink:title=" ">
<path fill="none" stroke="#63b8ff" d="M244.94,-230.91C299.55,-204.77 464.66,-125.73 540.34,-89.5"/>
<polygon fill="#63b8ff" stroke="#63b8ff" points="542.04,-92.57 549.55,-85.1 539.02,-86.26 542.04,-92.57"/>
</a>
</g>
</g>
<!-- Node5&#45;&gt;Node2 -->
<g id="edge5_Node000005_Node000002" class="edge">
<title>Node5&#45;&gt;Node2</title>
<g id="a_edge5_Node000005_Node000002"><a xlink:title=" ">
<path fill="none" stroke="#63b8ff" d="M540.92,-54.99C514.15,-45.14 478.7,-32.1 453.11,-22.68"/>
<polygon fill="#63b8ff" stroke="#63b8ff" points="454.07,-19.31 443.48,-19.14 451.66,-25.88 454.07,-19.31"/>
</a>
</g>
</g>
<!-- Node5&#45;&gt;Node6 -->
<g id="edge6_Node000005_Node000006" class="edge">
<title>Node5&#45;&gt;Node6</title>
<g id="a_edge6_Node000005_Node000006"><a xlink:title=" ">
<path fill="none" stroke="#63b8ff" d="M633.55,-56.41C636.4,-55.9 639.23,-55.42 642,-55 802.83,-30.32 994.05,-18.31 1092.74,-13.38"/>
<polygon fill="#63b8ff" stroke="#63b8ff" points="1093.05,-16.87 1102.86,-12.89 1092.7,-9.88 1093.05,-16.87"/>
</a>
</g>
</g>
<!-- Node8 -->
<g id="Node000008" class="node">
<title>Node8</title>
<g id="a_Node000008"><a xlink:title=" ">
<polygon fill="#e0e0e0" stroke="#999999" points="1380,-690 1274,-690 1274,-660 1380,-660 1380,-690"/>
<text text-anchor="start" x="1282" y="-678" font-family="Helvetica,sans-Serif" font-size="10.00">odp/api/abi/packet</text>
<text text-anchor="middle" x="1327" y="-667" font-family="Helvetica,sans-Serif" font-size="10.00">_io_types.h</text>
</a>
</g>
</g>
<!-- Node7&#45;&gt;Node8 -->
<g id="edge8_Node000007_Node000008" class="edge">
<title>Node7&#45;&gt;Node8</title>
<g id="a_edge8_Node000007_Node000008"><a xlink:title=" ">
<path fill="none" stroke="#63b8ff" d="M1169.76,-725.99C1196.7,-717.43 1239.02,-703.97 1272.98,-693.18"/>
<polygon fill="#63b8ff" stroke="#63b8ff" points="1274.29,-696.43 1282.76,-690.06 1272.17,-689.76 1274.29,-696.43"/>
</a>
</g>
</g>
<!-- Node9 -->
<g id="Node000009" class="node">
<title>Node9</title>
<g id="a_Node000009"><a xlink:title=" ">
<polygon fill="#e0e0e0" stroke="#999999" points="1256,-690 1150,-690 1150,-660 1256,-660 1256,-690"/>
<text text-anchor="start" x="1158" y="-678" font-family="Helvetica,sans-Serif" font-size="10.00">odp/api/abi/packet</text>
<text text-anchor="middle" x="1203" y="-667" font-family="Helvetica,sans-Serif" font-size="10.00">_types.h</text>
</a>
</g>
</g>
<!-- Node7&#45;&gt;Node9 -->
<g id="edge9_Node000007_Node000009" class="edge">
<title>Node7&#45;&gt;Node9</title>
<g id="a_edge9_Node000007_Node000009"><a xlink:title=" ">
<path fill="none" stroke="#63b8ff" d="M1151.85,-725.87C1159.54,-718.37 1171,-707.2 1181.13,-697.33"/>
<polygon fill="#63b8ff" stroke="#63b8ff" points="1183.81,-699.6 1188.52,-690.11 1178.92,-694.59 1183.81,-699.6"/>
</a>
</g>
</g>
<!-- Node10 -->
<g id="Node000010" class="node">
<title>Node10</title>
<g id="a_Node000010"><a xlink:href="api_2spec_2packet__types_8h.html" target="_top" xlink:title="ODP packet types.">
<polygon fill="white" stroke="#666666" points="1131.5,-690 1018.5,-690 1018.5,-660 1131.5,-660 1131.5,-690"/>
<text text-anchor="start" x="1026.5" y="-678" font-family="Helvetica,sans-Serif" font-size="10.00">odp/api/spec/packet</text>
<text text-anchor="middle" x="1075" y="-667" font-family="Helvetica,sans-Serif" font-size="10.00">_types.h</text>
</a>
</g>
</g>
<!-- Node7&#45;&gt;Node10 -->
<g id="edge10_Node000007_Node000010" class="edge">
<title>Node7&#45;&gt;Node10</title>
<g id="a_edge10_Node000007_Node000010"><a xlink:title=" ">
<path fill="none" stroke="#63b8ff" d="M1132.97,-725.87C1124.08,-718.22 1110.75,-706.76 1099.12,-696.75"/>
<polygon fill="#63b8ff" stroke="#63b8ff" points="1101.27,-693.98 1091.41,-690.11 1096.7,-699.29 1101.27,-693.98"/>
</a>
</g>
</g>
<!-- Node10&#45;&gt;Node2 -->
<g id="edge11_Node000010_Node000002" class="edge">
<title>Node10&#45;&gt;Node2</title>
<g id="a_edge11_Node000010_Node000002"><a xlink:title=" ">
<path fill="none" stroke="#63b8ff" d="M1063.79,-659.62C1056.49,-649.89 1047.05,-636.57 1040,-624 991.11,-536.87 1018.51,-490.73 950,-418 881.58,-345.37 834.35,-369.31 750,-316 731.51,-304.32 729.64,-297.43 711,-286 630.84,-236.84 600.87,-242.98 520,-195 463.44,-161.44 434.37,-149.4 421,-85 417.14,-66.43 417.38,-44.69 418.28,-29.51"/>
<polygon fill="#63b8ff" stroke="#63b8ff" points="421.79,-29.57 419.04,-19.33 414.8,-29.04 421.79,-29.57"/>
</a>
</g>
</g>
<!-- Node10&#45;&gt;Node6 -->
<g id="edge58_Node000010_Node000006" class="edge">
<title>Node10&#45;&gt;Node6</title>
<g id="a_edge58_Node000010_Node000006"><a xlink:title=" ">
<path fill="none" stroke="#63b8ff" d="M1124.85,-659.95C1211.55,-634.79 1381,-582.15 1381,-555 1381,-555 1381,-555 1381,-129.5 1381,-58.1 1290.71,-29.37 1225.29,-17.93"/>
<polygon fill="#63b8ff" stroke="#63b8ff" points="1225.46,-14.41 1215.02,-16.23 1224.32,-21.31 1225.46,-14.41"/>
</a>
</g>
</g>
<!-- Node11 -->
<g id="Node000011" class="node">
<title>Node11</title>
<g id="a_Node000011"><a xlink:href="deprecated_8h.html" target="_top" xlink:title="Control deprecated API definitions.">
<polygon fill="white" stroke="#666666" points="1168.5,-624 1049.5,-624 1049.5,-605 1168.5,-605 1168.5,-624"/>
<text text-anchor="middle" x="1109" y="-612" font-family="Helvetica,sans-Serif" font-size="10.00">odp/api/deprecated.h</text>
</a>
</g>
</g>
<!-- Node10&#45;&gt;Node11 -->
<g id="edge12_Node000010_Node000011" class="edge">
<title>Node10&#45;&gt;Node11</title>
<g id="a_edge12_Node000010_Node000011"><a xlink:title=" ">
<path fill="none" stroke="#63b8ff" d="M1083.23,-659.84C1087.91,-651.78 1093.82,-641.62 1098.8,-633.06"/>
<polygon fill="#63b8ff" stroke="#63b8ff" points="1101.91,-634.67 1103.91,-624.27 1095.85,-631.15 1101.91,-634.67"/>
</a>
</g>
</g>
<!-- Node13 -->
<g id="Node000013" class="node">
<title>Node13</title>
<g id="a_Node000013"><a xlink:href="api_2proto__stats__types_8h.html" target="_top" xlink:title="ODP proto stats types.">
<polygon fill="white" stroke="#666666" points="1297,-382 1187,-382 1187,-352 1297,-352 1297,-382"/>
<text text-anchor="start" x="1195" y="-370" font-family="Helvetica,sans-Serif" font-size="10.00">odp/api/proto_stats</text>
<text text-anchor="middle" x="1242" y="-359" font-family="Helvetica,sans-Serif" font-size="10.00">_types.h</text>
</a>
</g>
</g>
<!-- Node10&#45;&gt;Node13 -->
<g id="edge16_Node000010_Node000013" class="edge">
<title>Node10&#45;&gt;Node13</title>
<g id="a_edge16_Node000010_Node000013"><a xlink:title=" ">
<path fill="none" stroke="#63b8ff" d="M1120.61,-659.92C1165.38,-642.93 1227,-609.63 1227,-555 1227,-555 1227,-555 1227,-492.5 1227,-457.42 1232.94,-417.17 1237.35,-392.16"/>
<polygon fill="#63b8ff" stroke="#63b8ff" points="1240.83,-392.59 1239.18,-382.12 1233.94,-391.33 1240.83,-392.59"/>
</a>
</g>
</g>
<!-- Node10&#45;&gt;Node23 -->
<g id="edge32_Node000010_Node000023" class="edge">
<title>Node10&#45;&gt;Node23</title>
<g id="a_edge32_Node000010_Node000023"><a xlink:title=" ">
<path fill="none" stroke="#63b8ff" d="M1026.14,-659.99C990.78,-649.85 943.6,-636.32 910.59,-626.85"/>
<polygon fill="#63b8ff" stroke="#63b8ff" points="911.41,-623.45 900.83,-624.05 909.48,-630.17 911.41,-623.45"/>
</a>
</g>
</g>
<!-- Node12 -->
<g id="Node000012" class="node">
<title>Node12</title>
<g id="a_Node000012"><a xlink:href="spec_2deprecated_8h.html" target="_top" xlink:title="Macro for deprecated API definitions.">
<polygon fill="white" stroke="#666666" points="1092.5,-79.5 947.5,-79.5 947.5,-60.5 1092.5,-60.5 1092.5,-79.5"/>
<text text-anchor="middle" x="1020" y="-67.5" font-family="Helvetica,sans-Serif" font-size="10.00">odp/api/spec/deprecated.h</text>
</a>
</g>
</g>
<!-- Node11&#45;&gt;Node12 -->
<g id="edge13_Node000011_Node000012" class="edge">
<title>Node11&#45;&gt;Node12</title>
<g id="a_edge13_Node000011_Node000012"><a xlink:title=" ">
<path fill="none" stroke="#63b8ff" d="M1115.54,-604.78C1129.09,-585.79 1159,-538.87 1159,-494.5 1159,-494.5 1159,-494.5 1159,-184.5 1159,-131.72 1098.12,-99.09 1056.94,-83.05"/>
<polygon fill="#63b8ff" stroke="#63b8ff" points="1058.05,-79.73 1047.46,-79.52 1055.61,-86.29 1058.05,-79.73"/>
</a>
</g>
</g>
<!-- Node12&#45;&gt;Node2 -->
<g id="edge14_Node000012_Node000002" class="edge">
<title>Node12&#45;&gt;Node2</title>
<g id="a_edge14_Node000012_Node000002"><a xlink:title=" ">
<path fill="none" stroke="#63b8ff" d="M949.28,-60.47C933.09,-58.59 915.96,-56.67 900,-55 754.79,-39.8 584.57,-24.65 490.87,-16.54"/>
<polygon fill="#63b8ff" stroke="#63b8ff" points="490.93,-13.03 480.66,-15.66 490.32,-20.01 490.93,-13.03"/>
</a>
</g>
</g>
<!-- Node12&#45;&gt;Node6 -->
<g id="edge15_Node000012_Node000006" class="edge">
<title>Node12&#45;&gt;Node6</title>
<g id="a_edge15_Node000012_Node000006"><a xlink:title=" ">
<path fill="none" stroke="#63b8ff" d="M1040.21,-60.49C1063.68,-50.62 1102.61,-34.23 1129.46,-22.93"/>
<polygon fill="#63b8ff" stroke="#63b8ff" points="1130.9,-26.12 1138.76,-19.02 1128.19,-19.67 1130.9,-26.12"/>
</a>
</g>
</g>
<!-- Node14 -->
<g id="Node000014" class="node">
<title>Node14</title>
<g id="a_Node000014"><a xlink:title=" ">
<polygon fill="#e0e0e0" stroke="#999999" points="1315,-316 1187,-316 1187,-286 1315,-286 1315,-316"/>
<text text-anchor="start" x="1195" y="-304" font-family="Helvetica,sans-Serif" font-size="10.00">odp/api/abi/proto_stats</text>
<text text-anchor="middle" x="1251" y="-293" font-family="Helvetica,sans-Serif" font-size="10.00">_types.h</text>
</a>
</g>
</g>
<!-- Node13&#45;&gt;Node14 -->
<g id="edge17_Node000013_Node000014" class="edge">
<title>Node13&#45;&gt;Node14</title>
<g id="a_edge17_Node000013_Node000014"><a xlink:title=" ">
<path fill="none" stroke="#63b8ff" d="M1244,-351.8C1245.06,-344.26 1246.39,-334.78 1247.61,-326.13"/>
<polygon fill="#63b8ff" stroke="#63b8ff" points="1251.08,-326.55 1249.01,-316.16 1244.15,-325.58 1251.08,-326.55"/>
</a>
</g>
</g>
<!-- Node15 -->
<g id="Node000015" class="node">
<title>Node15</title>
<g id="a_Node000015"><a xlink:href="api_2spec_2proto__stats__types_8h.html" target="_top" xlink:title="ODP proto stats types.">
<polygon fill="white" stroke="#666666" points="1092.5,-316 985.5,-316 985.5,-286 1092.5,-286 1092.5,-316"/>
<text text-anchor="start" x="993.5" y="-304" font-family="Helvetica,sans-Serif" font-size="10.00">odp/api/spec/proto</text>
<text text-anchor="middle" x="1039" y="-293" font-family="Helvetica,sans-Serif" font-size="10.00">_stats_types.h</text>
</a>
</g>
</g>
<!-- Node13&#45;&gt;Node15 -->
<g id="edge18_Node000013_Node000015" class="edge">
<title>Node13&#45;&gt;Node15</title>
<g id="a_edge18_Node000013_Node000015"><a xlink:title=" ">
<path fill="none" stroke="#63b8ff" d="M1197.45,-351.95C1166.78,-342.28 1125.84,-329.38 1093.27,-319.11"/>
<polygon fill="#63b8ff" stroke="#63b8ff" points="1094.03,-315.68 1083.45,-316.01 1091.93,-322.36 1094.03,-315.68"/>
</a>
</g>
</g>
<!-- Node15&#45;&gt;Node2 -->
<g id="edge19_Node000015_Node000002" class="edge">
<title>Node15&#45;&gt;Node2</title>
<g id="a_edge19_Node000015_Node000002"><a xlink:title=" ">
<path fill="none" stroke="#63b8ff" d="M1014.41,-285.89C986.99,-270.63 940.96,-246.43 899,-231 837.49,-208.39 817.45,-217.79 756,-195 738.3,-188.43 735.58,-182.9 718,-176 664.98,-155.18 648.46,-159.67 595,-140 538.8,-119.32 518.15,-123.16 472,-85 453.08,-69.35 437.94,-45.18 428.98,-28.64"/>
<polygon fill="#63b8ff" stroke="#63b8ff" points="431.93,-26.74 424.22,-19.48 425.72,-29.97 431.93,-26.74"/>
</a>
</g>
</g>
<!-- Node15&#45;&gt;Node6 -->
<g id="edge31_Node000015_Node000006" class="edge">
<title>Node15&#45;&gt;Node6</title>
<g id="a_edge31_Node000015_Node000006"><a xlink:title=" ">
<path fill="none" stroke="#63b8ff" d="M1051.96,-285.78C1080.63,-253.23 1148.8,-169.57 1173,-85 1178.41,-66.08 1172.73,-43.85 1167.06,-28.63"/>
<polygon fill="#63b8ff" stroke="#63b8ff" points="1170.29,-27.28 1163.28,-19.34 1163.81,-29.92 1170.29,-27.28"/>
</a>
</g>
</g>
<!-- Node15&#45;&gt;Node16 -->
<g id="edge20_Node000015_Node000016" class="edge">
<title>Node15&#45;&gt;Node16</title>
<g id="a_edge20_Node000015_Node000016"><a xlink:title=" ">
<path fill="none" stroke="#63b8ff" d="M989.9,-285.99C954.37,-275.85 906.96,-262.32 873.78,-252.85"/>
<polygon fill="#63b8ff" stroke="#63b8ff" points="874.55,-249.43 863.97,-250.05 872.63,-256.16 874.55,-249.43"/>
</a>
</g>
</g>
<!-- Node17 -->
<g id="Node000017" class="node">
<title>Node17</title>
<g id="a_Node000017"><a xlink:title=" ">
<polygon fill="#e0e0e0" stroke="#999999" points="709,-195 579,-195 579,-176 709,-176 709,-195"/>
<text text-anchor="middle" x="644" y="-183" font-family="Helvetica,sans-Serif" font-size="10.00">odp/api/abi/std_types.h</text>
</a>
</g>
</g>
<!-- Node16&#45;&gt;Node17 -->
<g id="edge21_Node000016_Node000017" class="edge">
<title>Node16&#45;&gt;Node17</title>
<g id="a_edge21_Node000016_Node000017"><a xlink:title=" ">
<path fill="none" stroke="#63b8ff" d="M803.47,-230.98C771.3,-222.01 720.44,-207.82 684.83,-197.89"/>
<polygon fill="#63b8ff" stroke="#63b8ff" points="685.34,-194.4 674.77,-195.08 683.46,-201.14 685.34,-194.4"/>
</a>
</g>
</g>
<!-- Node18 -->
<g id="Node000018" class="node">
<title>Node18</title>
<g id="a_Node000018"><a xlink:href="api_2spec_2std__types_8h.html" target="_top" xlink:title="Common types and definitions for ODP API files.">
<polygon fill="white" stroke="#666666" points="902.5,-195 765.5,-195 765.5,-176 902.5,-176 902.5,-195"/>
<text text-anchor="middle" x="834" y="-183" font-family="Helvetica,sans-Serif" font-size="10.00">odp/api/spec/std_types.h</text>
</a>
</g>
</g>
<!-- Node16&#45;&gt;Node18 -->
<g id="edge22_Node000016_Node000018" class="edge">
<title>Node16&#45;&gt;Node18</title>
<g id="a_edge22_Node000016_Node000018"><a xlink:title=" ">
<path fill="none" stroke="#63b8ff" d="M834,-230.75C834,-223.8 834,-213.85 834,-205.13"/>
<polygon fill="#63b8ff" stroke="#63b8ff" points="837.5,-205.09 834,-195.09 830.5,-205.09 837.5,-205.09"/>
</a>
</g>
</g>
<!-- Node18&#45;&gt;Node2 -->
<g id="edge23_Node000018_Node000002" class="edge">
<title>Node18&#45;&gt;Node2</title>
<g id="a_edge23_Node000018_Node000002"><a xlink:title=" ">
<path fill="none" stroke="#63b8ff" d="M789.47,-175.96C725.93,-162.62 606.8,-133.23 515,-85 498.79,-76.49 460.47,-44.9 437.76,-25.7"/>
<polygon fill="#63b8ff" stroke="#63b8ff" points="439.79,-22.83 429.9,-19.02 435.25,-28.16 439.79,-22.83"/>
</a>
</g>
</g>
<!-- Node18&#45;&gt;Node6 -->
<g id="edge30_Node000018_Node000006" class="edge">
<title>Node18&#45;&gt;Node6</title>
<g id="a_edge30_Node000018_Node000006"><a xlink:title=" ">
<path fill="none" stroke="#63b8ff" d="M846.37,-175.96C857.81,-167.66 874.83,-154.26 887,-140 915.6,-106.49 902,-80.4 938,-55 962.5,-37.71 1036.83,-25.18 1092.58,-17.9"/>
<polygon fill="#63b8ff" stroke="#63b8ff" points="1093.27,-21.34 1102.75,-16.6 1092.39,-14.4 1093.27,-21.34"/>
</a>
</g>
</g>
<!-- Node19 -->
<g id="Node000019" class="node">
<title>Node19</title>
<g id="a_Node000019"><a xlink:title=" ">
<polygon fill="#e0e0e0" stroke="#999999" points="771.5,-140 718.5,-140 718.5,-121 771.5,-121 771.5,-140"/>
<text text-anchor="middle" x="745" y="-128" font-family="Helvetica,sans-Serif" font-size="10.00">stdint.h</text>
</a>
</g>
</g>
<!-- Node18&#45;&gt;Node19 -->
<g id="edge24_Node000018_Node000019" class="edge">
<title>Node18&#45;&gt;Node19</title>
<g id="a_edge24_Node000018_Node000019"><a xlink:title=" ">
<path fill="none" stroke="#63b8ff" d="M819.7,-175.98C805.9,-167.77 784.76,-155.18 768.49,-145.49"/>
<polygon fill="#63b8ff" stroke="#63b8ff" points="769.94,-142.28 759.56,-140.17 766.36,-148.29 769.94,-142.28"/>
</a>
</g>
</g>
<!-- Node20 -->
<g id="Node000020" class="node">
<title>Node20</title>
<g id="a_Node000020"><a xlink:href="api_2align_8h.html" target="_top" xlink:title="ODP alignments.">
<polygon fill="white" stroke="#666666" points="878.5,-140 789.5,-140 789.5,-121 878.5,-121 878.5,-140"/>
<text text-anchor="middle" x="834" y="-128" font-family="Helvetica,sans-Serif" font-size="10.00">odp/api/align.h</text>
</a>
</g>
</g>
<!-- Node18&#45;&gt;Node20 -->
<g id="edge25_Node000018_Node000020" class="edge">
<title>Node18&#45;&gt;Node20</title>
<g id="a_edge25_Node000018_Node000020"><a xlink:title=" ">
<path fill="none" stroke="#63b8ff" d="M834,-175.75C834,-168.8 834,-158.85 834,-150.13"/>
<polygon fill="#63b8ff" stroke="#63b8ff" points="837.5,-150.09 834,-140.09 830.5,-150.09 837.5,-150.09"/>
</a>
</g>
</g>
<!-- Node21 -->
<g id="Node000021" class="node">
<title>Node21</title>
<g id="a_Node000021"><a xlink:title=" ">
<polygon fill="#e0e0e0" stroke="#999999" points="758.5,-79.5 651.5,-79.5 651.5,-60.5 758.5,-60.5 758.5,-79.5"/>
<text text-anchor="middle" x="705" y="-67.5" font-family="Helvetica,sans-Serif" font-size="10.00">odp/api/abi/align.h</text>
</a>
</g>
</g>
<!-- Node20&#45;&gt;Node21 -->
<g id="edge26_Node000020_Node000021" class="edge">
<title>Node20&#45;&gt;Node21</title>
<g id="a_edge26_Node000020_Node000021"><a xlink:title=" ">
<path fill="none" stroke="#63b8ff" d="M815.24,-120.99C793.65,-111.2 757.97,-95.02 733.07,-83.73"/>
<polygon fill="#63b8ff" stroke="#63b8ff" points="734.33,-80.46 723.78,-79.52 731.44,-86.83 734.33,-80.46"/>
</a>
</g>
</g>
<!-- Node22 -->
<g id="Node000022" class="node">
<title>Node22</title>
<g id="a_Node000022"><a xlink:href="api_2spec_2align_8h.html" target="_top" xlink:title="ODP alignments.">
<polygon fill="white" stroke="#666666" points="891,-79.5 777,-79.5 777,-60.5 891,-60.5 891,-79.5"/>
<text text-anchor="middle" x="834" y="-67.5" font-family="Helvetica,sans-Serif" font-size="10.00">odp/api/spec/align.h</text>
</a>
</g>
</g>
<!-- Node20&#45;&gt;Node22 -->
<g id="edge27_Node000020_Node000022" class="edge">
<title>Node20&#45;&gt;Node22</title>
<g id="a_edge27_Node000020_Node000022"><a xlink:title=" ">
<path fill="none" stroke="#63b8ff" d="M834,-120.87C834,-112.75 834,-100.31 834,-89.89"/>
<polygon fill="#63b8ff" stroke="#63b8ff" points="837.5,-89.67 834,-79.67 830.5,-89.67 837.5,-89.67"/>
</a>
</g>
</g>
<!-- Node22&#45;&gt;Node2 -->
<g id="edge28_Node000022_Node000002" class="edge">
<title>Node22&#45;&gt;Node2</title>
<g id="a_edge28_Node000022_Node000002"><a xlink:title=" ">
<path fill="none" stroke="#63b8ff" d="M795.83,-60.48C786.43,-58.54 776.37,-56.58 767,-55 671.81,-38.98 561.07,-25.7 490.77,-17.93"/>
<polygon fill="#63b8ff" stroke="#63b8ff" points="491.03,-14.44 480.7,-16.82 490.26,-21.4 491.03,-14.44"/>
</a>
</g>
</g>
<!-- Node22&#45;&gt;Node6 -->
<g id="edge29_Node000022_Node000006" class="edge">
<title>Node22&#45;&gt;Node6</title>
<g id="a_edge29_Node000022_Node000006"><a xlink:title=" ">
<path fill="none" stroke="#63b8ff" d="M876.4,-60.49C885.81,-58.64 895.74,-56.72 905,-55 971.02,-42.71 1046.88,-29.54 1098.38,-20.75"/>
<polygon fill="#63b8ff" stroke="#63b8ff" points="1099.07,-24.18 1108.34,-19.05 1097.9,-17.28 1099.07,-24.18"/>
</a>
</g>
</g>
<!-- Node24 -->
<g id="Node000024" class="node">
<title>Node24</title>
<g id="a_Node000024"><a xlink:title=" ">
<polygon fill="#e0e0e0" stroke="#999999" points="793.5,-563.5 648.5,-563.5 648.5,-544.5 793.5,-544.5 793.5,-563.5"/>
<text text-anchor="middle" x="721" y="-551.5" font-family="Helvetica,sans-Serif" font-size="10.00">odp/api/abi/queue_types.h</text>
</a>
</g>
</g>
<!-- Node23&#45;&gt;Node24 -->
<g id="edge33_Node000023_Node000024" class="edge">
<title>Node23&#45;&gt;Node24</title>
<g id="a_edge33_Node000023_Node000024"><a xlink:title=" ">
<path fill="none" stroke="#63b8ff" d="M849.19,-604.99C823.75,-595.07 781.49,-578.59 752.49,-567.28"/>
<polygon fill="#63b8ff" stroke="#63b8ff" points="753.43,-563.89 742.84,-563.52 750.88,-570.41 753.43,-563.89"/>
</a>
</g>
</g>
<!-- Node25 -->
<g id="Node000025" class="node">
<title>Node25</title>
<g id="a_Node000025"><a xlink:href="api_2spec_2queue__types_8h.html" target="_top" xlink:title="ODP queue types.">
<polygon fill="white" stroke="#666666" points="922.5,-569 811.5,-569 811.5,-539 922.5,-539 922.5,-569"/>
<text text-anchor="start" x="819.5" y="-557" font-family="Helvetica,sans-Serif" font-size="10.00">odp/api/spec/queue</text>
<text text-anchor="middle" x="867" y="-546" font-family="Helvetica,sans-Serif" font-size="10.00">_types.h</text>
</a>
</g>
</g>
<!-- Node23&#45;&gt;Node25 -->
<g id="edge34_Node000023_Node000025" class="edge">
<title>Node23&#45;&gt;Node25</title>
<g id="a_edge34_Node000023_Node000025"><a xlink:title=" ">
<path fill="none" stroke="#63b8ff" d="M870.41,-604.87C869.95,-598.11 869.28,-588.35 868.66,-579.26"/>
<polygon fill="#63b8ff" stroke="#63b8ff" points="872.14,-578.85 867.97,-569.11 865.16,-579.33 872.14,-578.85"/>
</a>
</g>
</g>
<!-- Node25&#45;&gt;Node2 -->
<g id="edge35_Node000025_Node000002" class="edge">
<title>Node25&#45;&gt;Node2</title>
<g id="a_edge35_Node000025_Node000002"><a xlink:title=" ">
<path fill="none" stroke="#63b8ff" d="M811.32,-540.95C625.45,-500.67 38,-372.97 38,-368 38,-368 38,-368 38,-129.5 38,-81.88 72.27,-76.01 115,-55 155.04,-35.32 272.34,-22.39 349.25,-15.78"/>
<polygon fill="#63b8ff" stroke="#63b8ff" points="349.69,-19.25 359.36,-14.92 349.1,-12.28 349.69,-19.25"/>
</a>
</g>
</g>
<!-- Node25&#45;&gt;Node6 -->
<g id="edge57_Node000025_Node000006" class="edge">
<title>Node25&#45;&gt;Node6</title>
<g id="a_edge57_Node000025_Node000006"><a xlink:title=" ">
<path fill="none" stroke="#63b8ff" d="M922.81,-547.26C1016.1,-534.63 1203.54,-495.84 1306,-382 1309.76,-377.82 1343,-243.96 1343,-241.5 1343,-241.5 1343,-241.5 1343,-129.5 1343,-67.36 1268.1,-36.07 1213.87,-21.56"/>
<polygon fill="#63b8ff" stroke="#63b8ff" points="1214.57,-18.13 1204.01,-19.05 1212.83,-24.91 1214.57,-18.13"/>
</a>
</g>
</g>
<!-- Node26 -->
<g id="Node000026" class="node">
<title>Node26</title>
<g id="a_Node000026"><a xlink:href="api_2event__vector__types_8h.html" target="_top" xlink:title="ODP event vector API type definitions.">
<polygon fill="white" stroke="#666666" points="566.5,-382 447.5,-382 447.5,-352 566.5,-352 566.5,-382"/>
<text text-anchor="start" x="455.5" y="-370" font-family="Helvetica,sans-Serif" font-size="10.00">odp/api/event_vector</text>
<text text-anchor="middle" x="507" y="-359" font-family="Helvetica,sans-Serif" font-size="10.00">_types.h</text>
</a>
</g>
</g>
<!-- Node25&#45;&gt;Node26 -->
<g id="edge36_Node000025_Node000026" class="edge">
<title>Node25&#45;&gt;Node26</title>
<g id="a_edge36_Node000025_Node000026"><a xlink:title=" ">
<path fill="none" stroke="#63b8ff" d="M839.65,-538.94C775.58,-506.02 615.76,-423.89 543.5,-386.76"/>
<polygon fill="#63b8ff" stroke="#63b8ff" points="544.81,-383.49 534.31,-382.04 541.61,-389.72 544.81,-383.49"/>
</a>
</g>
</g>
<!-- Node30 -->
<g id="Node000030" class="node">
<title>Node30</title>
<g id="a_Node000030"><a xlink:href="api_2schedule__types_8h.html" target="_top" xlink:title="ODP schedule.">
<polygon fill="white" stroke="#666666" points="929,-503 789,-503 789,-484 929,-484 929,-503"/>
<text text-anchor="middle" x="859" y="-491" font-family="Helvetica,sans-Serif" font-size="10.00">odp/api/schedule_types.h</text>
</a>
</g>
</g>
<!-- Node25&#45;&gt;Node30 -->
<g id="edge44_Node000025_Node000030" class="edge">
<title>Node25&#45;&gt;Node30</title>
<g id="a_edge44_Node000025_Node000030"><a xlink:title=" ">
<path fill="none" stroke="#63b8ff" d="M865.06,-538.84C864.02,-531.21 862.72,-521.7 861.59,-513.45"/>
<polygon fill="#63b8ff" stroke="#63b8ff" points="865.02,-512.7 860.2,-503.27 858.09,-513.65 865.02,-512.7"/>
</a>
</g>
</g>
<!-- Node27 -->
<g id="Node000027" class="node">
<title>Node27</title>
<g id="a_Node000027"><a xlink:title=" ">
<polygon fill="#e0e0e0" stroke="#999999" points="279.5,-316 142.5,-316 142.5,-286 279.5,-286 279.5,-316"/>
<text text-anchor="start" x="150.5" y="-304" font-family="Helvetica,sans-Serif" font-size="10.00">odp/api/abi/event_vector</text>
<text text-anchor="middle" x="211" y="-293" font-family="Helvetica,sans-Serif" font-size="10.00">_types.h</text>
</a>
</g>
</g>
<!-- Node26&#45;&gt;Node27 -->
<g id="edge37_Node000026_Node000027" class="edge">
<title>Node26&#45;&gt;Node27</title>
<g id="a_edge37_Node000026_Node000027"><a xlink:title=" ">
<path fill="none" stroke="#63b8ff" d="M447.46,-353.13C400.85,-343.05 335.75,-328.97 285.65,-318.14"/>
<polygon fill="#63b8ff" stroke="#63b8ff" points="286.36,-314.71 275.84,-316.02 284.88,-321.55 286.36,-314.71"/>
</a>
</g>
</g>
<!-- Node28 -->
<g id="Node000028" class="node">
<title>Node28</title>
<g id="a_Node000028"><a xlink:title=" ">
<polygon fill="#e0e0e0" stroke="#999999" points="434,-310.5 298,-310.5 298,-291.5 434,-291.5 434,-310.5"/>
<text text-anchor="middle" x="366" y="-298.5" font-family="Helvetica,sans-Serif" font-size="10.00">odp/api/abi/pool_types.h</text>
</a>
</g>
</g>
<!-- Node26&#45;&gt;Node28 -->
<g id="edge38_Node000026_Node000028" class="edge">
<title>Node26&#45;&gt;Node28</title>
<g id="a_edge38_Node000026_Node000028"><a xlink:title=" ">
<path fill="none" stroke="#63b8ff" d="M476.06,-351.95C451.55,-340.83 417.61,-325.42 393.92,-314.67"/>
<polygon fill="#63b8ff" stroke="#63b8ff" points="395.32,-311.46 384.76,-310.52 392.42,-317.84 395.32,-311.46"/>
</a>
</g>
</g>
<!-- Node29 -->
<g id="Node000029" class="node">
<title>Node29</title>
<g id="a_Node000029"><a xlink:href="api_2spec_2event__vector__types_8h.html" target="_top" xlink:title="ODP event vector API type definitions.">
<polygon fill="white" stroke="#666666" points="561.5,-316 452.5,-316 452.5,-286 561.5,-286 561.5,-316"/>
<text text-anchor="start" x="460.5" y="-304" font-family="Helvetica,sans-Serif" font-size="10.00">odp/api/spec/event</text>
<text text-anchor="middle" x="507" y="-293" font-family="Helvetica,sans-Serif" font-size="10.00">_vector_types.h</text>
</a>
</g>
</g>
<!-- Node26&#45;&gt;Node29 -->
<g id="edge39_Node000026_Node000029" class="edge">
<title>Node26&#45;&gt;Node29</title>
<g id="a_edge39_Node000026_Node000029"><a xlink:title=" ">
<path fill="none" stroke="#63b8ff" d="M507,-351.8C507,-344.34 507,-334.99 507,-326.41"/>
<polygon fill="#63b8ff" stroke="#63b8ff" points="510.5,-326.16 507,-316.16 503.5,-326.16 510.5,-326.16"/>
</a>
</g>
</g>
<!-- Node29&#45;&gt;Node2 -->
<g id="edge40_Node000029_Node000002" class="edge">
<title>Node29&#45;&gt;Node2</title>
<g id="a_edge40_Node000029_Node000002"><a xlink:title=" ">
<path fill="none" stroke="#63b8ff" d="M470.45,-285.99C416.54,-264.16 322,-220.98 322,-186.5 322,-186.5 322,-186.5 322,-129.5 322,-82.69 367.75,-44.29 396.73,-24.67"/>
<polygon fill="#63b8ff" stroke="#63b8ff" points="398.66,-27.59 405.12,-19.19 394.83,-21.73 398.66,-27.59"/>
</a>
</g>
</g>
<!-- Node29&#45;&gt;Node3 -->
<g id="edge41_Node000029_Node000003" class="edge">
<title>Node29&#45;&gt;Node3</title>
<g id="a_edge41_Node000029_Node000003"><a xlink:title=" ">
<path fill="none" stroke="#63b8ff" d="M452.2,-287.97C449.09,-287.3 446,-286.64 443,-286 387.06,-274.12 322.87,-260.95 279.09,-252.05"/>
<polygon fill="#63b8ff" stroke="#63b8ff" points="279.75,-248.61 269.25,-250.05 278.35,-255.47 279.75,-248.61"/>
</a>
</g>
</g>
<!-- Node29&#45;&gt;Node6 -->
<g id="edge43_Node000029_Node000006" class="edge">
<title>Node29&#45;&gt;Node6</title>
<g id="a_edge43_Node000029_Node000006"><a xlink:title=" ">
<path fill="none" stroke="#63b8ff" d="M559.65,-285.98C612.53,-271.94 696.36,-249.77 769,-231 832.04,-214.71 850.67,-219.48 911,-195 1001.77,-158.17 1028.36,-149.6 1102,-85 1121.06,-68.28 1138.02,-44.34 1148.38,-28.15"/>
<polygon fill="#63b8ff" stroke="#63b8ff" points="1151.64,-29.54 1153.94,-19.2 1145.69,-25.85 1151.64,-29.54"/>
</a>
</g>
</g>
<!-- Node29&#45;&gt;Node16 -->
<g id="edge42_Node000029_Node000016" class="edge">
<title>Node29&#45;&gt;Node16</title>
<g id="a_edge42_Node000029_Node000016"><a xlink:title=" ">
<path fill="none" stroke="#63b8ff" d="M561.6,-287.69C564.44,-287.1 567.25,-286.54 570,-286 637.39,-272.84 714.92,-260.05 768.44,-251.59"/>
<polygon fill="#63b8ff" stroke="#63b8ff" points="769.15,-255.02 778.48,-250 768.06,-248.1 769.15,-255.02"/>
</a>
</g>
</g>
<!-- Node31 -->
<g id="Node000031" class="node">
<title>Node31</title>
<g id="a_Node000031"><a xlink:title=" ">
<polygon fill="#e0e0e0" stroke="#999999" points="941.5,-448 824.5,-448 824.5,-418 941.5,-418 941.5,-448"/>
<text text-anchor="start" x="832.5" y="-436" font-family="Helvetica,sans-Serif" font-size="10.00">odp/api/abi/schedule</text>
<text text-anchor="middle" x="883" y="-425" font-family="Helvetica,sans-Serif" font-size="10.00">_types.h</text>
</a>
</g>
</g>
<!-- Node30&#45;&gt;Node31 -->
<g id="edge45_Node000030_Node000031" class="edge">
<title>Node30&#45;&gt;Node31</title>
<g id="a_edge45_Node000030_Node000031"><a xlink:title=" ">
<path fill="none" stroke="#63b8ff" d="M862.54,-483.87C865.41,-476.89 869.58,-466.71 873.41,-457.38"/>
<polygon fill="#63b8ff" stroke="#63b8ff" points="876.65,-458.69 877.21,-448.11 870.18,-456.04 876.65,-458.69"/>
</a>
</g>
</g>
<!-- Node32 -->
<g id="Node000032" class="node">
<title>Node32</title>
<g id="a_Node000032"><a xlink:href="api_2spec_2schedule__types_8h.html" target="_top" xlink:title="ODP schedule types.">
<polygon fill="white" stroke="#666666" points="806.5,-448 681.5,-448 681.5,-418 806.5,-418 806.5,-448"/>
<text text-anchor="start" x="689.5" y="-436" font-family="Helvetica,sans-Serif" font-size="10.00">odp/api/spec/schedule</text>
<text text-anchor="middle" x="744" y="-425" font-family="Helvetica,sans-Serif" font-size="10.00">_types.h</text>
</a>
</g>
</g>
<!-- Node30&#45;&gt;Node32 -->
<g id="edge46_Node000030_Node000032" class="edge">
<title>Node30&#45;&gt;Node32</title>
<g id="a_edge46_Node000030_Node000032"><a xlink:title=" ">
<path fill="none" stroke="#63b8ff" d="M842.03,-483.87C825.99,-475.71 801.4,-463.2 780.85,-452.75"/>
<polygon fill="#63b8ff" stroke="#63b8ff" points="782.25,-449.53 771.75,-448.11 779.07,-455.77 782.25,-449.53"/>
</a>
</g>
</g>
<!-- Node32&#45;&gt;Node2 -->
<g id="edge47_Node000032_Node000002" class="edge">
<title>Node32&#45;&gt;Node2</title>
<g id="a_edge47_Node000032_Node000002"><a xlink:title=" ">
<path fill="none" stroke="#63b8ff" d="M681.4,-426C544.61,-411.96 224,-373.74 133,-316 97.8,-293.66 76,-283.19 76,-241.5 76,-241.5 76,-241.5 76,-129.5 76,-72.22 248.49,-36.39 349.18,-20.36"/>
<polygon fill="#63b8ff" stroke="#63b8ff" points="349.95,-23.78 359.29,-18.78 348.87,-16.86 349.95,-23.78"/>
</a>
</g>
</g>
<!-- Node32&#45;&gt;Node6 -->
<g id="edge56_Node000032_Node000006" class="edge">
<title>Node32&#45;&gt;Node6</title>
<g id="a_edge56_Node000032_Node000006"><a xlink:title=" ">
<path fill="none" stroke="#63b8ff" d="M806.54,-418.46C896.94,-397.8 1058.02,-356.5 1101,-316 1180.85,-240.77 1170.72,-193.34 1188,-85 1190.1,-71.83 1191.8,-67.78 1188,-55 1185.02,-44.98 1179,-35.11 1173.21,-27.22"/>
<polygon fill="#63b8ff" stroke="#63b8ff" points="1175.87,-24.95 1166.94,-19.25 1170.37,-29.28 1175.87,-24.95"/>
</a>
</g>
</g>
<!-- Node32&#45;&gt;Node16 -->
<g id="edge49_Node000032_Node000016" class="edge">
<title>Node32&#45;&gt;Node16</title>
<g id="a_edge49_Node000032_Node000016"><a xlink:title=" ">
<path fill="none" stroke="#63b8ff" d="M778.06,-417.89C815.57,-400.26 873.87,-366.19 899,-316 904.97,-304.08 905.22,-297.79 899,-286 891.76,-272.27 878.17,-261.97 865.28,-254.76"/>
<polygon fill="#63b8ff" stroke="#63b8ff" points="866.61,-251.51 856.12,-250.05 863.41,-257.73 866.61,-251.51"/>
</a>
</g>
</g>
<!-- Node32&#45;&gt;Node26 -->
<g id="edge48_Node000032_Node000026" class="edge">
<title>Node32&#45;&gt;Node26</title>
<g id="a_edge48_Node000032_Node000026"><a xlink:title=" ">
<path fill="none" stroke="#63b8ff" d="M691.99,-417.95C655.72,-408.16 607.15,-395.05 568.89,-384.71"/>
<polygon fill="#63b8ff" stroke="#63b8ff" points="569.46,-381.24 558.89,-382.01 567.63,-388 569.46,-381.24"/>
</a>
</g>
</g>
<!-- Node33 -->
<g id="Node000033" class="node">
<title>Node33</title>
<g id="a_Node000033"><a xlink:href="api_2thrmask_8h.html" target="_top" xlink:title="ODP thread masks.">
<polygon fill="white" stroke="#666666" points="796.5,-376.5 691.5,-376.5 691.5,-357.5 796.5,-357.5 796.5,-376.5"/>
<text text-anchor="middle" x="744" y="-364.5" font-family="Helvetica,sans-Serif" font-size="10.00">odp/api/thrmask.h</text>
</a>
</g>
</g>
<!-- Node32&#45;&gt;Node33 -->
<g id="edge50_Node000032_Node000033" class="edge">
<title>Node32&#45;&gt;Node33</title>
<g id="a_edge50_Node000032_Node000033"><a xlink:title=" ">
<path fill="none" stroke="#63b8ff" d="M744,-417.8C744,-408.7 744,-396.79 744,-386.9"/>
<polygon fill="#63b8ff" stroke="#63b8ff" points="747.5,-386.84 744,-376.84 740.5,-386.84 747.5,-386.84"/>
</a>
</g>
</g>
<!-- Node34 -->
<g id="Node000034" class="node">
<title>Node34</title>
<g id="a_Node000034"><a xlink:title=" ">
<polygon fill="#e0e0e0" stroke="#999999" points="702.5,-310.5 579.5,-310.5 579.5,-291.5 702.5,-291.5 702.5,-310.5"/>
<text text-anchor="middle" x="641" y="-298.5" font-family="Helvetica,sans-Serif" font-size="10.00">odp/api/abi/thrmask.h</text>
</a>
</g>
</g>
<!-- Node33&#45;&gt;Node34 -->
<g id="edge51_Node000033_Node000034" class="edge">
<title>Node33&#45;&gt;Node34</title>
<g id="a_edge51_Node000033_Node000034"><a xlink:title=" ">
<path fill="none" stroke="#63b8ff" d="M730.11,-357.37C713.06,-346.78 683.93,-328.67 663.63,-316.06"/>
<polygon fill="#63b8ff" stroke="#63b8ff" points="665.34,-313 655,-310.7 661.65,-318.95 665.34,-313"/>
</a>
</g>
</g>
<!-- Node35 -->
<g id="Node000035" class="node">
<title>Node35</title>
<g id="a_Node000035"><a xlink:href="api_2spec_2thrmask_8h.html" target="_top" xlink:title="ODP thread masks.">
<polygon fill="white" stroke="#666666" points="890.5,-310.5 759.5,-310.5 759.5,-291.5 890.5,-291.5 890.5,-310.5"/>
<text text-anchor="middle" x="825" y="-298.5" font-family="Helvetica,sans-Serif" font-size="10.00">odp/api/spec/thrmask.h</text>
</a>
</g>
</g>
<!-- Node33&#45;&gt;Node35 -->
<g id="edge52_Node000033_Node000035" class="edge">
<title>Node33&#45;&gt;Node35</title>
<g id="a_edge52_Node000033_Node000035"><a xlink:title=" ">
<path fill="none" stroke="#63b8ff" d="M754.92,-357.37C767.97,-347.06 790.01,-329.65 805.9,-317.09"/>
<polygon fill="#63b8ff" stroke="#63b8ff" points="808.31,-319.64 813.99,-310.7 803.97,-314.15 808.31,-319.64"/>
</a>
</g>
</g>
<!-- Node35&#45;&gt;Node2 -->
<g id="edge53_Node000035_Node000002" class="edge">
<title>Node35&#45;&gt;Node2</title>
<g id="a_edge53_Node000035_Node000002"><a xlink:title=" ">
<path fill="none" stroke="#63b8ff" d="M802.56,-291.49C726.84,-262.59 484.14,-168.46 460,-140 432.57,-107.65 423.93,-56.66 421.23,-29.31"/>
<polygon fill="#63b8ff" stroke="#63b8ff" points="424.7,-28.84 420.39,-19.16 417.73,-29.41 424.7,-28.84"/>
</a>
</g>
</g>
<!-- Node35&#45;&gt;Node6 -->
<g id="edge55_Node000035_Node000006" class="edge">
<title>Node35&#45;&gt;Node6</title>
<g id="a_edge55_Node000035_Node000006"><a xlink:title=" ">
<path fill="none" stroke="#63b8ff" d="M845.87,-291.37C901.48,-267.32 1054.45,-194.06 1135,-85 1147.21,-68.46 1153.37,-45.46 1156.37,-29.4"/>
<polygon fill="#63b8ff" stroke="#63b8ff" points="1159.89,-29.56 1158.03,-19.13 1152.98,-28.44 1159.89,-29.56"/>
</a>
</g>
</g>
<!-- Node35&#45;&gt;Node16 -->
<g id="edge54_Node000035_Node000016" class="edge">
<title>Node35&#45;&gt;Node16</title>
<g id="a_edge54_Node000035_Node000016"><a xlink:title=" ">
<path fill="none" stroke="#63b8ff" d="M826.33,-291.37C827.59,-283.16 829.53,-270.54 831.15,-260.05"/>
<polygon fill="#63b8ff" stroke="#63b8ff" points="834.61,-260.58 832.67,-250.17 827.69,-259.52 834.61,-260.58"/>
</a>
</g>
</g>
</g>
</svg>
