<?xml version="1.0" encoding="UTF-8" standalone="no"?>
<!DOCTYPE svg PUBLIC "-//W3C//DTD SVG 1.1//EN"
 "http://www.w3.org/Graphics/SVG/1.1/DTD/svg11.dtd">
<!-- Generated by graphviz version 2.43.0 (0)
 -->
<!-- Title: schedule.h Pages: 1 -->
<svg width="1041pt" height="742pt"
 viewBox="0.00 0.00 1041.00 742.00" xmlns="http://www.w3.org/2000/svg" xmlns:xlink="http://www.w3.org/1999/xlink">
<g id="graph0" class="graph" transform="scale(1 1) rotate(0) translate(4 738)">
<title>schedule.h</title>
<!-- Node1 -->
<g id="Node000001" class="node">
<title>Node1</title>
<g id="a_Node000001"><a xlink:title="ODP schedule.">
<polygon fill="#999999" stroke="#666666" points="460.5,-734 391.5,-734 391.5,-715 460.5,-715 460.5,-734"/>
<text text-anchor="middle" x="426" y="-722" font-family="Helvetica,sans-Serif" font-size="10.00">schedule.h</text>
</a>
</g>
</g>
<!-- Node2 -->
<g id="Node000002" class="node">
<title>Node2</title>
<g id="a_Node000002"><a xlink:title=" ">
<polygon fill="#e0e0e0" stroke="#999999" points="415,-679 289,-679 289,-660 415,-660 415,-679"/>
<text text-anchor="middle" x="352" y="-667" font-family="Helvetica,sans-Serif" font-size="10.00">odp/api/abi/schedule.h</text>
</a>
</g>
</g>
<!-- Node1&#45;&gt;Node2 -->
<g id="edge1_Node000001_Node000002" class="edge">
<title>Node1&#45;&gt;Node2</title>
<g id="a_edge1_Node000001_Node000002"><a xlink:title=" ">
<path fill="none" stroke="#63b8ff" d="M414.11,-714.98C402.85,-706.92 385.71,-694.65 372.29,-685.03"/>
<polygon fill="#63b8ff" stroke="#63b8ff" points="374.27,-682.15 364.11,-679.17 370.2,-687.84 374.27,-682.15"/>
</a>
</g>
</g>
<!-- Node3 -->
<g id="Node000003" class="node">
<title>Node3</title>
<g id="a_Node000003"><a xlink:href="api_2spec_2schedule_8h.html" target="_top" xlink:title="ODP schedule.">
<polygon fill="white" stroke="#666666" points="567,-679 433,-679 433,-660 567,-660 567,-679"/>
<text text-anchor="middle" x="500" y="-667" font-family="Helvetica,sans-Serif" font-size="10.00">odp/api/spec/schedule.h</text>
</a>
</g>
</g>
<!-- Node1&#45;&gt;Node3 -->
<g id="edge2_Node000001_Node000003" class="edge">
<title>Node1&#45;&gt;Node3</title>
<g id="a_edge2_Node000001_Node000003"><a xlink:title=" ">
<path fill="none" stroke="#63b8ff" d="M437.89,-714.98C449.15,-706.92 466.29,-694.65 479.71,-685.03"/>
<polygon fill="#63b8ff" stroke="#63b8ff" points="481.8,-687.84 487.89,-679.17 477.73,-682.15 481.8,-687.84"/>
</a>
</g>
</g>
<!-- Node4 -->
<g id="Node000004" class="node">
<title>Node4</title>
<g id="a_Node000004"><a xlink:href="visibility__begin_8h_source.html" target="_top" xlink:title=" ">
<polygon fill="white" stroke="#666666" points="359.5,-19 238.5,-19 238.5,0 359.5,0 359.5,-19"/>
<text text-anchor="middle" x="299" y="-7" font-family="Helvetica,sans-Serif" font-size="10.00">odp/visibility_begin.h</text>
</a>
</g>
</g>
<!-- Node3&#45;&gt;Node4 -->
<g id="edge3_Node000003_Node000004" class="edge">
<title>Node3&#45;&gt;Node4</title>
<g id="a_edge3_Node000003_Node000004"><a xlink:title=" ">
<path fill="none" stroke="#63b8ff" d="M432.83,-660.21C296.47,-642.47 0,-598.87 0,-555 0,-555 0,-555 0,-129.5 0,-90.11 15.2,-76.81 48,-55 76.9,-35.78 164.62,-23.4 228.23,-16.7"/>
<polygon fill="#63b8ff" stroke="#63b8ff" points="228.63,-20.18 238.22,-15.68 227.91,-13.22 228.63,-20.18"/>
</a>
</g>
</g>
<!-- Node5 -->
<g id="Node000005" class="node">
<title>Node5</title>
<g id="a_Node000005"><a xlink:href="api_2std__types_8h.html" target="_top" xlink:title="Standard C language types and definitions for ODP.">
<polygon fill="white" stroke="#666666" points="725,-250 613,-250 613,-231 725,-231 725,-250"/>
<text text-anchor="middle" x="669" y="-238" font-family="Helvetica,sans-Serif" font-size="10.00">odp/api/std_types.h</text>
</a>
</g>
</g>
<!-- Node3&#45;&gt;Node5 -->
<g id="edge4_Node000003_Node000005" class="edge">
<title>Node3&#45;&gt;Node5</title>
<g id="a_edge4_Node000003_Node000005"><a xlink:title=" ">
<path fill="none" stroke="#63b8ff" d="M567.2,-661.84C631.57,-651.31 719,-624.27 719,-555 719,-555 719,-555 719,-492.5 719,-492.31 684.29,-318.22 672.71,-260.12"/>
<polygon fill="#63b8ff" stroke="#63b8ff" points="676.11,-259.26 670.72,-250.13 669.24,-260.62 676.11,-259.26"/>
</a>
</g>
</g>
<!-- Node12 -->
<g id="Node000012" class="node">
<title>Node12</title>
<g id="a_Node000012"><a xlink:href="visibility__end_8h_source.html" target="_top" xlink:title=" ">
<polygon fill="white" stroke="#666666" points="910,-19 798,-19 798,0 910,0 910,-19"/>
<text text-anchor="middle" x="854" y="-7" font-family="Helvetica,sans-Serif" font-size="10.00">odp/visibility_end.h</text>
</a>
</g>
</g>
<!-- Node3&#45;&gt;Node12 -->
<g id="edge48_Node000003_Node000012" class="edge">
<title>Node3&#45;&gt;Node12</title>
<g id="a_edge48_Node000003_Node000012"><a xlink:title=" ">
<path fill="none" stroke="#63b8ff" d="M567.23,-668.13C710.52,-665.52 1033,-649.2 1033,-555 1033,-555 1033,-555 1033,-129.5 1033,-68.15 959.18,-36.52 906.35,-21.74"/>
<polygon fill="#63b8ff" stroke="#63b8ff" points="906.98,-18.29 896.42,-19.09 905.18,-25.05 906.98,-18.29"/>
</a>
</g>
</g>
<!-- Node13 -->
<g id="Node000013" class="node">
<title>Node13</title>
<g id="a_Node000013"><a xlink:href="api_2event__types_8h.html" target="_top" xlink:title="ODP event API type definitions.">
<polygon fill="white" stroke="#666666" points="470.5,-250 345.5,-250 345.5,-231 470.5,-231 470.5,-250"/>
<text text-anchor="middle" x="408" y="-238" font-family="Helvetica,sans-Serif" font-size="10.00">odp/api/event_types.h</text>
</a>
</g>
</g>
<!-- Node3&#45;&gt;Node13 -->
<g id="edge15_Node000003_Node000013" class="edge">
<title>Node3&#45;&gt;Node13</title>
<g id="a_edge15_Node000003_Node000013"><a xlink:title=" ">
<path fill="none" stroke="#63b8ff" d="M454.59,-659.97C352.55,-640.18 114,-590.14 114,-555 114,-555 114,-555 114,-366 114,-329.46 106.24,-310.88 133,-286 161.61,-259.4 263.63,-248.65 335.01,-244.34"/>
<polygon fill="#63b8ff" stroke="#63b8ff" points="335.53,-247.82 345.31,-243.75 335.12,-240.83 335.53,-247.82"/>
</a>
</g>
</g>
<!-- Node16 -->
<g id="Node000016" class="node">
<title>Node16</title>
<g id="a_Node000016"><a xlink:href="api_2queue__types_8h.html" target="_top" xlink:title="ODP queue.">
<polygon fill="white" stroke="#666666" points="465.5,-624 338.5,-624 338.5,-605 465.5,-605 465.5,-624"/>
<text text-anchor="middle" x="402" y="-612" font-family="Helvetica,sans-Serif" font-size="10.00">odp/api/queue_types.h</text>
</a>
</g>
</g>
<!-- Node3&#45;&gt;Node16 -->
<g id="edge20_Node000003_Node000016" class="edge">
<title>Node3&#45;&gt;Node16</title>
<g id="a_edge20_Node000003_Node000016"><a xlink:title=" ">
<path fill="none" stroke="#63b8ff" d="M484.25,-659.98C468.77,-651.61 444.91,-638.7 426.86,-628.95"/>
<polygon fill="#63b8ff" stroke="#63b8ff" points="428.49,-625.85 418.03,-624.17 425.16,-632.01 428.49,-625.85"/>
</a>
</g>
</g>
<!-- Node23 -->
<g id="Node000023" class="node">
<title>Node23</title>
<g id="a_Node000023"><a xlink:href="api_2schedule__types_8h.html" target="_top" xlink:title="ODP schedule.">
<polygon fill="white" stroke="#666666" points="570,-503 430,-503 430,-484 570,-484 570,-503"/>
<text text-anchor="middle" x="500" y="-491" font-family="Helvetica,sans-Serif" font-size="10.00">odp/api/schedule_types.h</text>
</a>
</g>
</g>
<!-- Node3&#45;&gt;Node23 -->
<g id="edge46_Node000003_Node000023" class="edge">
<title>Node3&#45;&gt;Node23</title>
<g id="a_edge46_Node000003_Node000023"><a xlink:title=" ">
<path fill="none" stroke="#63b8ff" d="M500,-659.63C500,-632.64 500,-551.03 500,-513.61"/>
<polygon fill="#63b8ff" stroke="#63b8ff" points="503.5,-513.14 500,-503.14 496.5,-513.14 503.5,-513.14"/>
</a>
</g>
</g>
<!-- Node26 -->
<g id="Node000026" class="node">
<title>Node26</title>
<g id="a_Node000026"><a xlink:href="api_2thrmask_8h.html" target="_top" xlink:title="ODP thread masks.">
<polygon fill="white" stroke="#666666" points="811.5,-376.5 706.5,-376.5 706.5,-357.5 811.5,-357.5 811.5,-376.5"/>
<text text-anchor="middle" x="759" y="-364.5" font-family="Helvetica,sans-Serif" font-size="10.00">odp/api/thrmask.h</text>
</a>
</g>
</g>
<!-- Node3&#45;&gt;Node26 -->
<g id="edge47_Node000003_Node000026" class="edge">
<title>Node3&#45;&gt;Node26</title>
<g id="a_edge47_Node000003_Node000026"><a xlink:title=" ">
<path fill="none" stroke="#63b8ff" d="M567.12,-663.03C626.86,-656.88 708.48,-644.91 733,-624 757.82,-602.84 758,-587.62 758,-555 758,-555 758,-555 758,-492.5 758,-454.99 758.46,-411.13 758.76,-386.76"/>
<polygon fill="#63b8ff" stroke="#63b8ff" points="762.26,-386.8 758.88,-376.75 755.26,-386.71 762.26,-386.8"/>
</a>
</g>
</g>
<!-- Node6 -->
<g id="Node000006" class="node">
<title>Node6</title>
<g id="a_Node000006"><a xlink:title=" ">
<polygon fill="#e0e0e0" stroke="#999999" points="929,-195 799,-195 799,-176 929,-176 929,-195"/>
<text text-anchor="middle" x="864" y="-183" font-family="Helvetica,sans-Serif" font-size="10.00">odp/api/abi/std_types.h</text>
</a>
</g>
</g>
<!-- Node5&#45;&gt;Node6 -->
<g id="edge5_Node000005_Node000006" class="edge">
<title>Node5&#45;&gt;Node6</title>
<g id="a_edge5_Node000005_Node000006"><a xlink:title=" ">
<path fill="none" stroke="#63b8ff" d="M700.33,-230.98C733.49,-221.97 786,-207.7 822.56,-197.76"/>
<polygon fill="#63b8ff" stroke="#63b8ff" points="823.69,-201.08 832.42,-195.08 821.86,-194.33 823.69,-201.08"/>
</a>
</g>
</g>
<!-- Node7 -->
<g id="Node000007" class="node">
<title>Node7</title>
<g id="a_Node000007"><a xlink:href="api_2spec_2std__types_8h.html" target="_top" xlink:title="Common types and definitions for ODP API files.">
<polygon fill="white" stroke="#666666" points="742.5,-195 605.5,-195 605.5,-176 742.5,-176 742.5,-195"/>
<text text-anchor="middle" x="674" y="-183" font-family="Helvetica,sans-Serif" font-size="10.00">odp/api/spec/std_types.h</text>
</a>
</g>
</g>
<!-- Node5&#45;&gt;Node7 -->
<g id="edge6_Node000005_Node000007" class="edge">
<title>Node5&#45;&gt;Node7</title>
<g id="a_edge6_Node000005_Node000007"><a xlink:title=" ">
<path fill="none" stroke="#63b8ff" d="M669.83,-230.75C670.48,-223.8 671.42,-213.85 672.24,-205.13"/>
<polygon fill="#63b8ff" stroke="#63b8ff" points="675.73,-205.37 673.19,-195.09 668.77,-204.72 675.73,-205.37"/>
</a>
</g>
</g>
<!-- Node7&#45;&gt;Node4 -->
<g id="edge7_Node000007_Node000004" class="edge">
<title>Node7&#45;&gt;Node4</title>
<g id="a_edge7_Node000007_Node000004"><a xlink:title=" ">
<path fill="none" stroke="#63b8ff" d="M654.15,-175.86C624.28,-163.03 565.86,-138.55 515,-121 461.16,-102.42 442.52,-111.31 392,-85 375.97,-76.66 338.52,-45.01 316.34,-25.75"/>
<polygon fill="#63b8ff" stroke="#63b8ff" points="318.5,-22.99 308.66,-19.05 313.89,-28.26 318.5,-22.99"/>
</a>
</g>
</g>
<!-- Node8 -->
<g id="Node000008" class="node">
<title>Node8</title>
<g id="a_Node000008"><a xlink:title=" ">
<polygon fill="#e0e0e0" stroke="#999999" points="777.5,-140 724.5,-140 724.5,-121 777.5,-121 777.5,-140"/>
<text text-anchor="middle" x="751" y="-128" font-family="Helvetica,sans-Serif" font-size="10.00">stdint.h</text>
</a>
</g>
</g>
<!-- Node7&#45;&gt;Node8 -->
<g id="edge8_Node000007_Node000008" class="edge">
<title>Node7&#45;&gt;Node8</title>
<g id="a_edge8_Node000007_Node000008"><a xlink:title=" ">
<path fill="none" stroke="#63b8ff" d="M686.37,-175.98C698.09,-167.92 715.92,-155.65 729.89,-146.03"/>
<polygon fill="#63b8ff" stroke="#63b8ff" points="732.15,-148.72 738.4,-140.17 728.18,-142.96 732.15,-148.72"/>
</a>
</g>
</g>
<!-- Node9 -->
<g id="Node000009" class="node">
<title>Node9</title>
<g id="a_Node000009"><a xlink:href="api_2align_8h.html" target="_top" xlink:title="ODP alignments.">
<polygon fill="white" stroke="#666666" points="706.5,-140 617.5,-140 617.5,-121 706.5,-121 706.5,-140"/>
<text text-anchor="middle" x="662" y="-128" font-family="Helvetica,sans-Serif" font-size="10.00">odp/api/align.h</text>
</a>
</g>
</g>
<!-- Node7&#45;&gt;Node9 -->
<g id="edge9_Node000007_Node000009" class="edge">
<title>Node7&#45;&gt;Node9</title>
<g id="a_edge9_Node000007_Node000009"><a xlink:title=" ">
<path fill="none" stroke="#63b8ff" d="M672.02,-175.75C670.43,-168.72 668.14,-158.62 666.15,-149.84"/>
<polygon fill="#63b8ff" stroke="#63b8ff" points="669.57,-149.07 663.94,-140.09 662.74,-150.62 669.57,-149.07"/>
</a>
</g>
</g>
<!-- Node7&#45;&gt;Node12 -->
<g id="edge14_Node000007_Node000012" class="edge">
<title>Node7&#45;&gt;Node12</title>
<g id="a_edge14_Node000007_Node000012"><a xlink:title=" ">
<path fill="none" stroke="#63b8ff" d="M713.98,-175.98C737.2,-169.37 765.77,-158.18 786,-140 820.37,-109.13 840.23,-56.73 848.85,-28.99"/>
<polygon fill="#63b8ff" stroke="#63b8ff" points="852.31,-29.64 851.78,-19.06 845.59,-27.66 852.31,-29.64"/>
</a>
</g>
</g>
<!-- Node10 -->
<g id="Node000010" class="node">
<title>Node10</title>
<g id="a_Node000010"><a xlink:title=" ">
<polygon fill="#e0e0e0" stroke="#999999" points="806.5,-79.5 699.5,-79.5 699.5,-60.5 806.5,-60.5 806.5,-79.5"/>
<text text-anchor="middle" x="753" y="-67.5" font-family="Helvetica,sans-Serif" font-size="10.00">odp/api/abi/align.h</text>
</a>
</g>
</g>
<!-- Node9&#45;&gt;Node10 -->
<g id="edge10_Node000009_Node000010" class="edge">
<title>Node9&#45;&gt;Node10</title>
<g id="a_edge10_Node000009_Node000010"><a xlink:title=" ">
<path fill="none" stroke="#63b8ff" d="M675.43,-120.87C690.08,-111.45 713.76,-96.23 731.1,-85.08"/>
<polygon fill="#63b8ff" stroke="#63b8ff" points="733,-88.02 739.52,-79.67 729.21,-82.13 733,-88.02"/>
</a>
</g>
</g>
<!-- Node11 -->
<g id="Node000011" class="node">
<title>Node11</title>
<g id="a_Node000011"><a xlink:href="api_2spec_2align_8h.html" target="_top" xlink:title="ODP alignments.">
<polygon fill="white" stroke="#666666" points="681,-79.5 567,-79.5 567,-60.5 681,-60.5 681,-79.5"/>
<text text-anchor="middle" x="624" y="-67.5" font-family="Helvetica,sans-Serif" font-size="10.00">odp/api/spec/align.h</text>
</a>
</g>
</g>
<!-- Node9&#45;&gt;Node11 -->
<g id="edge11_Node000009_Node000011" class="edge">
<title>Node9&#45;&gt;Node11</title>
<g id="a_edge11_Node000009_Node000011"><a xlink:title=" ">
<path fill="none" stroke="#63b8ff" d="M656.39,-120.87C650.84,-112.31 642.17,-98.97 635.2,-88.24"/>
<polygon fill="#63b8ff" stroke="#63b8ff" points="638.01,-86.15 629.63,-79.67 632.14,-89.96 638.01,-86.15"/>
</a>
</g>
</g>
<!-- Node11&#45;&gt;Node4 -->
<g id="edge12_Node000011_Node000004" class="edge">
<title>Node11&#45;&gt;Node4</title>
<g id="a_edge12_Node000011_Node000004"><a xlink:title=" ">
<path fill="none" stroke="#63b8ff" d="M576.74,-60.49C518.37,-49.99 419.14,-32.12 356.43,-20.84"/>
<polygon fill="#63b8ff" stroke="#63b8ff" points="356.78,-17.34 346.31,-19.02 355.54,-24.23 356.78,-17.34"/>
</a>
</g>
</g>
<!-- Node11&#45;&gt;Node12 -->
<g id="edge13_Node000011_Node000012" class="edge">
<title>Node11&#45;&gt;Node12</title>
<g id="a_edge13_Node000011_Node000012"><a xlink:title=" ">
<path fill="none" stroke="#63b8ff" d="M657.44,-60.49C697.9,-50.2 766.1,-32.86 810.58,-21.54"/>
<polygon fill="#63b8ff" stroke="#63b8ff" points="811.69,-24.87 820.52,-19.02 809.96,-18.09 811.69,-24.87"/>
</a>
</g>
</g>
<!-- Node14 -->
<g id="Node000014" class="node">
<title>Node14</title>
<g id="a_Node000014"><a xlink:title=" ">
<polygon fill="#e0e0e0" stroke="#999999" points="434.5,-195 291.5,-195 291.5,-176 434.5,-176 434.5,-195"/>
<text text-anchor="middle" x="363" y="-183" font-family="Helvetica,sans-Serif" font-size="10.00">odp/api/abi/event_types.h</text>
</a>
</g>
</g>
<!-- Node13&#45;&gt;Node14 -->
<g id="edge16_Node000013_Node000014" class="edge">
<title>Node13&#45;&gt;Node14</title>
<g id="a_edge16_Node000013_Node000014"><a xlink:title=" ">
<path fill="none" stroke="#63b8ff" d="M400.57,-230.75C394.15,-223.18 384.69,-212.05 376.88,-202.84"/>
<polygon fill="#63b8ff" stroke="#63b8ff" points="379.43,-200.45 370.29,-195.09 374.1,-204.98 379.43,-200.45"/>
</a>
</g>
</g>
<!-- Node15 -->
<g id="Node000015" class="node">
<title>Node15</title>
<g id="a_Node000015"><a xlink:href="api_2spec_2event__types_8h.html" target="_top" xlink:title="ODP event API type definitions.">
<polygon fill="white" stroke="#666666" points="510.5,-85 401.5,-85 401.5,-55 510.5,-55 510.5,-85"/>
<text text-anchor="start" x="409.5" y="-73" font-family="Helvetica,sans-Serif" font-size="10.00">odp/api/spec/event</text>
<text text-anchor="middle" x="456" y="-62" font-family="Helvetica,sans-Serif" font-size="10.00">_types.h</text>
</a>
</g>
</g>
<!-- Node13&#45;&gt;Node15 -->
<g id="edge17_Node000013_Node000015" class="edge">
<title>Node13&#45;&gt;Node15</title>
<g id="a_edge17_Node000013_Node000015"><a xlink:title=" ">
<path fill="none" stroke="#63b8ff" d="M417.21,-230.94C425.5,-222.62 437.23,-209.21 443,-195 456.25,-162.36 457.9,-121.1 457.35,-95.38"/>
<polygon fill="#63b8ff" stroke="#63b8ff" points="460.85,-95.25 457.01,-85.38 453.86,-95.49 460.85,-95.25"/>
</a>
</g>
</g>
<!-- Node15&#45;&gt;Node4 -->
<g id="edge18_Node000015_Node000004" class="edge">
<title>Node15&#45;&gt;Node4</title>
<g id="a_edge18_Node000015_Node000004"><a xlink:title=" ">
<path fill="none" stroke="#63b8ff" d="M418.39,-54.99C391.97,-45.14 356.96,-32.1 331.69,-22.68"/>
<polygon fill="#63b8ff" stroke="#63b8ff" points="332.78,-19.35 322.19,-19.14 330.33,-25.91 332.78,-19.35"/>
</a>
</g>
</g>
<!-- Node15&#45;&gt;Node12 -->
<g id="edge19_Node000015_Node000012" class="edge">
<title>Node15&#45;&gt;Node12</title>
<g id="a_edge19_Node000015_Node000012"><a xlink:title=" ">
<path fill="none" stroke="#63b8ff" d="M510.55,-57.59C515.43,-56.67 520.3,-55.79 525,-55 615.82,-39.66 721.45,-26.13 788.01,-18.13"/>
<polygon fill="#63b8ff" stroke="#63b8ff" points="788.43,-21.61 797.95,-16.94 787.6,-14.66 788.43,-21.61"/>
</a>
</g>
</g>
<!-- Node17 -->
<g id="Node000017" class="node">
<title>Node17</title>
<g id="a_Node000017"><a xlink:title=" ">
<polygon fill="#e0e0e0" stroke="#999999" points="328.5,-563.5 183.5,-563.5 183.5,-544.5 328.5,-544.5 328.5,-563.5"/>
<text text-anchor="middle" x="256" y="-551.5" font-family="Helvetica,sans-Serif" font-size="10.00">odp/api/abi/queue_types.h</text>
</a>
</g>
</g>
<!-- Node16&#45;&gt;Node17 -->
<g id="edge21_Node000016_Node000017" class="edge">
<title>Node16&#45;&gt;Node17</title>
<g id="a_edge21_Node000016_Node000017"><a xlink:title=" ">
<path fill="none" stroke="#63b8ff" d="M380.77,-604.99C356.01,-595.07 314.88,-578.59 286.65,-567.28"/>
<polygon fill="#63b8ff" stroke="#63b8ff" points="287.84,-563.99 277.26,-563.52 285.24,-570.49 287.84,-563.99"/>
</a>
</g>
</g>
<!-- Node18 -->
<g id="Node000018" class="node">
<title>Node18</title>
<g id="a_Node000018"><a xlink:href="api_2spec_2queue__types_8h.html" target="_top" xlink:title="ODP queue types.">
<polygon fill="white" stroke="#666666" points="457.5,-569 346.5,-569 346.5,-539 457.5,-539 457.5,-569"/>
<text text-anchor="start" x="354.5" y="-557" font-family="Helvetica,sans-Serif" font-size="10.00">odp/api/spec/queue</text>
<text text-anchor="middle" x="402" y="-546" font-family="Helvetica,sans-Serif" font-size="10.00">_types.h</text>
</a>
</g>
</g>
<!-- Node16&#45;&gt;Node18 -->
<g id="edge22_Node000016_Node000018" class="edge">
<title>Node16&#45;&gt;Node18</title>
<g id="a_edge22_Node000016_Node000018"><a xlink:title=" ">
<path fill="none" stroke="#63b8ff" d="M402,-604.87C402,-598.11 402,-588.35 402,-579.26"/>
<polygon fill="#63b8ff" stroke="#63b8ff" points="405.5,-579.11 402,-569.11 398.5,-579.11 405.5,-579.11"/>
</a>
</g>
</g>
<!-- Node18&#45;&gt;Node4 -->
<g id="edge23_Node000018_Node000004" class="edge">
<title>Node18&#45;&gt;Node4</title>
<g id="a_edge23_Node000018_Node000004"><a xlink:title=" ">
<path fill="none" stroke="#63b8ff" d="M346.32,-540.66C244.35,-517.29 38,-466.04 38,-434 38,-434 38,-434 38,-129.5 38,-45.62 150.99,-20.6 228.28,-13.3"/>
<polygon fill="#63b8ff" stroke="#63b8ff" points="228.8,-16.77 238.47,-12.42 228.2,-9.8 228.8,-16.77"/>
</a>
</g>
</g>
<!-- Node18&#45;&gt;Node12 -->
<g id="edge45_Node000018_Node000012" class="edge">
<title>Node18&#45;&gt;Node12</title>
<g id="a_edge45_Node000018_Node000012"><a xlink:title=" ">
<path fill="none" stroke="#63b8ff" d="M400.46,-538.75C398.35,-512.68 397.23,-456.45 421,-418 463,-350.05 531.85,-386.72 569,-316 622.99,-213.22 482.25,-142.99 558,-55 587,-21.31 709.42,-12.78 787.45,-10.82"/>
<polygon fill="#63b8ff" stroke="#63b8ff" points="787.76,-14.32 797.69,-10.6 787.61,-7.32 787.76,-14.32"/>
</a>
</g>
</g>
<!-- Node19 -->
<g id="Node000019" class="node">
<title>Node19</title>
<g id="a_Node000019"><a xlink:href="api_2event__vector__types_8h.html" target="_top" xlink:title="ODP event vector API type definitions.">
<polygon fill="white" stroke="#666666" points="424.5,-382 305.5,-382 305.5,-352 424.5,-352 424.5,-382"/>
<text text-anchor="start" x="313.5" y="-370" font-family="Helvetica,sans-Serif" font-size="10.00">odp/api/event_vector</text>
<text text-anchor="middle" x="365" y="-359" font-family="Helvetica,sans-Serif" font-size="10.00">_types.h</text>
</a>
</g>
</g>
<!-- Node18&#45;&gt;Node19 -->
<g id="edge24_Node000018_Node000019" class="edge">
<title>Node18&#45;&gt;Node19</title>
<g id="a_edge24_Node000018_Node000019"><a xlink:title=" ">
<path fill="none" stroke="#63b8ff" d="M397.56,-538.66C394.58,-528.72 390.73,-515.14 388,-503 379.39,-464.67 372.32,-419.58 368.38,-392.42"/>
<polygon fill="#63b8ff" stroke="#63b8ff" points="371.81,-391.69 366.93,-382.28 364.88,-392.68 371.81,-391.69"/>
</a>
</g>
</g>
<!-- Node18&#45;&gt;Node23 -->
<g id="edge32_Node000018_Node000023" class="edge">
<title>Node18&#45;&gt;Node23</title>
<g id="a_edge32_Node000018_Node000023"><a xlink:title=" ">
<path fill="none" stroke="#63b8ff" d="M425.72,-538.84C441.2,-529.6 461.32,-517.59 476.71,-508.4"/>
<polygon fill="#63b8ff" stroke="#63b8ff" points="478.81,-511.23 485.6,-503.09 475.22,-505.21 478.81,-511.23"/>
</a>
</g>
</g>
<!-- Node20 -->
<g id="Node000020" class="node">
<title>Node20</title>
<g id="a_Node000020"><a xlink:title=" ">
<polygon fill="#e0e0e0" stroke="#999999" points="433.5,-316 296.5,-316 296.5,-286 433.5,-286 433.5,-316"/>
<text text-anchor="start" x="304.5" y="-304" font-family="Helvetica,sans-Serif" font-size="10.00">odp/api/abi/event_vector</text>
<text text-anchor="middle" x="365" y="-293" font-family="Helvetica,sans-Serif" font-size="10.00">_types.h</text>
</a>
</g>
</g>
<!-- Node19&#45;&gt;Node20 -->
<g id="edge25_Node000019_Node000020" class="edge">
<title>Node19&#45;&gt;Node20</title>
<g id="a_edge25_Node000019_Node000020"><a xlink:title=" ">
<path fill="none" stroke="#63b8ff" d="M365,-351.8C365,-344.34 365,-334.99 365,-326.41"/>
<polygon fill="#63b8ff" stroke="#63b8ff" points="368.5,-326.16 365,-316.16 361.5,-326.16 368.5,-326.16"/>
</a>
</g>
</g>
<!-- Node21 -->
<g id="Node000021" class="node">
<title>Node21</title>
<g id="a_Node000021"><a xlink:title=" ">
<polygon fill="#e0e0e0" stroke="#999999" points="278,-310.5 142,-310.5 142,-291.5 278,-291.5 278,-310.5"/>
<text text-anchor="middle" x="210" y="-298.5" font-family="Helvetica,sans-Serif" font-size="10.00">odp/api/abi/pool_types.h</text>
</a>
</g>
</g>
<!-- Node19&#45;&gt;Node21 -->
<g id="edge26_Node000019_Node000021" class="edge">
<title>Node19&#45;&gt;Node21</title>
<g id="a_edge26_Node000019_Node000021"><a xlink:title=" ">
<path fill="none" stroke="#63b8ff" d="M330.98,-351.95C303.8,-340.73 266.07,-325.15 240,-314.39"/>
<polygon fill="#63b8ff" stroke="#63b8ff" points="241.21,-311.1 230.63,-310.52 238.54,-317.57 241.21,-311.1"/>
</a>
</g>
</g>
<!-- Node22 -->
<g id="Node000022" class="node">
<title>Node22</title>
<g id="a_Node000022"><a xlink:href="api_2spec_2event__vector__types_8h.html" target="_top" xlink:title="ODP event vector API type definitions.">
<polygon fill="white" stroke="#666666" points="560.5,-316 451.5,-316 451.5,-286 560.5,-286 560.5,-316"/>
<text text-anchor="start" x="459.5" y="-304" font-family="Helvetica,sans-Serif" font-size="10.00">odp/api/spec/event</text>
<text text-anchor="middle" x="506" y="-293" font-family="Helvetica,sans-Serif" font-size="10.00">_vector_types.h</text>
</a>
</g>
</g>
<!-- Node19&#45;&gt;Node22 -->
<g id="edge27_Node000019_Node000022" class="edge">
<title>Node19&#45;&gt;Node22</title>
<g id="a_edge27_Node000019_Node000022"><a xlink:title=" ">
<path fill="none" stroke="#63b8ff" d="M395.94,-351.95C416.51,-342.62 443.73,-330.27 465.95,-320.18"/>
<polygon fill="#63b8ff" stroke="#63b8ff" points="467.47,-323.33 475.13,-316.01 464.58,-316.96 467.47,-323.33"/>
</a>
</g>
</g>
<!-- Node22&#45;&gt;Node4 -->
<g id="edge28_Node000022_Node000004" class="edge">
<title>Node22&#45;&gt;Node4</title>
<g id="a_edge28_Node000022_Node000004"><a xlink:title=" ">
<path fill="none" stroke="#63b8ff" d="M451.42,-286.65C409.67,-275.94 355.97,-260.93 336,-250 298.28,-229.35 263,-229.5 263,-186.5 263,-186.5 263,-186.5 263,-129.5 263,-92.25 279.36,-51.15 290.02,-28.31"/>
<polygon fill="#63b8ff" stroke="#63b8ff" points="293.23,-29.71 294.44,-19.18 286.93,-26.66 293.23,-29.71"/>
</a>
</g>
</g>
<!-- Node22&#45;&gt;Node5 -->
<g id="edge30_Node000022_Node000005" class="edge">
<title>Node22&#45;&gt;Node5</title>
<g id="a_edge30_Node000022_Node000005"><a xlink:title=" ">
<path fill="none" stroke="#63b8ff" d="M545.04,-285.99C572.6,-276.1 609.15,-262.98 635.41,-253.56"/>
<polygon fill="#63b8ff" stroke="#63b8ff" points="636.7,-256.81 644.93,-250.14 634.33,-250.22 636.7,-256.81"/>
</a>
</g>
</g>
<!-- Node22&#45;&gt;Node12 -->
<g id="edge31_Node000022_Node000012" class="edge">
<title>Node22&#45;&gt;Node12</title>
<g id="a_edge31_Node000022_Node000012"><a xlink:title=" ">
<path fill="none" stroke="#63b8ff" d="M521.83,-286C540.3,-270.37 572.37,-245.39 604,-231 665.23,-203.15 691.95,-227.22 751,-195 808.22,-163.78 825.74,-146.26 848,-85 854.57,-66.92 855.54,-44.81 855.2,-29.39"/>
<polygon fill="#63b8ff" stroke="#63b8ff" points="858.68,-28.91 854.75,-19.08 851.69,-29.22 858.68,-28.91"/>
</a>
</g>
</g>
<!-- Node22&#45;&gt;Node13 -->
<g id="edge29_Node000022_Node000013" class="edge">
<title>Node22&#45;&gt;Node13</title>
<g id="a_edge29_Node000022_Node000013"><a xlink:title=" ">
<path fill="none" stroke="#63b8ff" d="M482.28,-285.84C466.8,-276.6 446.68,-264.59 431.29,-255.4"/>
<polygon fill="#63b8ff" stroke="#63b8ff" points="432.78,-252.21 422.4,-250.09 429.19,-258.23 432.78,-252.21"/>
</a>
</g>
</g>
<!-- Node24 -->
<g id="Node000024" class="node">
<title>Node24</title>
<g id="a_Node000024"><a xlink:title=" ">
<polygon fill="#e0e0e0" stroke="#999999" points="547.5,-448 430.5,-448 430.5,-418 547.5,-418 547.5,-448"/>
<text text-anchor="start" x="438.5" y="-436" font-family="Helvetica,sans-Serif" font-size="10.00">odp/api/abi/schedule</text>
<text text-anchor="middle" x="489" y="-425" font-family="Helvetica,sans-Serif" font-size="10.00">_types.h</text>
</a>
</g>
</g>
<!-- Node23&#45;&gt;Node24 -->
<g id="edge33_Node000023_Node000024" class="edge">
<title>Node23&#45;&gt;Node24</title>
<g id="a_edge33_Node000023_Node000024"><a xlink:title=" ">
<path fill="none" stroke="#63b8ff" d="M498.38,-483.87C497.09,-477.03 495.23,-467.14 493.51,-457.97"/>
<polygon fill="#63b8ff" stroke="#63b8ff" points="496.94,-457.3 491.65,-448.11 490.06,-458.59 496.94,-457.3"/>
</a>
</g>
</g>
<!-- Node25 -->
<g id="Node000025" class="node">
<title>Node25</title>
<g id="a_Node000025"><a xlink:href="api_2spec_2schedule__types_8h.html" target="_top" xlink:title="ODP schedule types.">
<polygon fill="white" stroke="#666666" points="690.5,-448 565.5,-448 565.5,-418 690.5,-418 690.5,-448"/>
<text text-anchor="start" x="573.5" y="-436" font-family="Helvetica,sans-Serif" font-size="10.00">odp/api/spec/schedule</text>
<text text-anchor="middle" x="628" y="-425" font-family="Helvetica,sans-Serif" font-size="10.00">_types.h</text>
</a>
</g>
</g>
<!-- Node23&#45;&gt;Node25 -->
<g id="edge34_Node000023_Node000025" class="edge">
<title>Node23&#45;&gt;Node25</title>
<g id="a_edge34_Node000023_Node000025"><a xlink:title=" ">
<path fill="none" stroke="#63b8ff" d="M518.61,-483.99C536.65,-475.75 564.6,-462.98 587.73,-452.4"/>
<polygon fill="#63b8ff" stroke="#63b8ff" points="589.34,-455.52 596.98,-448.18 586.43,-449.15 589.34,-455.52"/>
</a>
</g>
</g>
<!-- Node25&#45;&gt;Node4 -->
<g id="edge35_Node000025_Node000004" class="edge">
<title>Node25&#45;&gt;Node4</title>
<g id="a_edge35_Node000025_Node000004"><a xlink:title=" ">
<path fill="none" stroke="#63b8ff" d="M565.21,-419.58C562.1,-419.03 559.01,-418.5 556,-418 447.75,-400 76,-411.74 76,-302 76,-302 76,-302 76,-129.5 76,-59.27 163.15,-30.34 228.48,-18.52"/>
<polygon fill="#63b8ff" stroke="#63b8ff" points="229.09,-21.97 238.36,-16.84 227.91,-15.07 229.09,-21.97"/>
</a>
</g>
</g>
<!-- Node25&#45;&gt;Node5 -->
<g id="edge37_Node000025_Node000005" class="edge">
<title>Node25&#45;&gt;Node5</title>
<g id="a_edge37_Node000025_Node000005"><a xlink:title=" ">
<path fill="none" stroke="#63b8ff" d="M629.38,-417.7C632.14,-391.32 639.2,-333.36 652,-286 654.4,-277.12 657.92,-267.55 661.14,-259.57"/>
<polygon fill="#63b8ff" stroke="#63b8ff" points="664.44,-260.77 665.08,-250.19 657.98,-258.06 664.44,-260.77"/>
</a>
</g>
</g>
<!-- Node25&#45;&gt;Node12 -->
<g id="edge44_Node000025_Node000012" class="edge">
<title>Node25&#45;&gt;Node12</title>
<g id="a_edge44_Node000025_Node000012"><a xlink:title=" ">
<path fill="none" stroke="#63b8ff" d="M690.67,-423.01C795.49,-406.19 995,-365.79 995,-302 995,-302 995,-302 995,-129.5 995,-74.49 931.55,-39.73 889.78,-22.81"/>
<polygon fill="#63b8ff" stroke="#63b8ff" points="890.78,-19.45 880.19,-19.08 888.24,-25.97 890.78,-19.45"/>
</a>
</g>
</g>
<!-- Node25&#45;&gt;Node19 -->
<g id="edge36_Node000025_Node000019" class="edge">
<title>Node25&#45;&gt;Node19</title>
<g id="a_edge36_Node000025_Node000019"><a xlink:title=" ">
<path fill="none" stroke="#63b8ff" d="M570.28,-417.95C529.6,-408.06 474.99,-394.77 432.32,-384.38"/>
<polygon fill="#63b8ff" stroke="#63b8ff" points="433.13,-380.98 422.58,-382.01 431.47,-387.78 433.13,-380.98"/>
</a>
</g>
</g>
<!-- Node25&#45;&gt;Node26 -->
<g id="edge38_Node000025_Node000026" class="edge">
<title>Node25&#45;&gt;Node26</title>
<g id="a_edge38_Node000025_Node000026"><a xlink:title=" ">
<path fill="none" stroke="#63b8ff" d="M656.75,-417.95C679.32,-406.93 710.49,-391.7 732.47,-380.96"/>
<polygon fill="#63b8ff" stroke="#63b8ff" points="734.12,-384.05 741.57,-376.52 731.04,-377.76 734.12,-384.05"/>
</a>
</g>
</g>
<!-- Node27 -->
<g id="Node000027" class="node">
<title>Node27</title>
<g id="a_Node000027"><a xlink:title=" ">
<polygon fill="#e0e0e0" stroke="#999999" points="966.5,-310.5 843.5,-310.5 843.5,-291.5 966.5,-291.5 966.5,-310.5"/>
<text text-anchor="middle" x="905" y="-298.5" font-family="Helvetica,sans-Serif" font-size="10.00">odp/api/abi/thrmask.h</text>
</a>
</g>
</g>
<!-- Node26&#45;&gt;Node27 -->
<g id="edge39_Node000026_Node000027" class="edge">
<title>Node26&#45;&gt;Node27</title>
<g id="a_edge39_Node000026_Node000027"><a xlink:title=" ">
<path fill="none" stroke="#63b8ff" d="M778.69,-357.37C803.73,-346.39 847.15,-327.36 875.98,-314.72"/>
<polygon fill="#63b8ff" stroke="#63b8ff" points="877.4,-317.92 885.16,-310.7 874.59,-311.51 877.4,-317.92"/>
</a>
</g>
</g>
<!-- Node28 -->
<g id="Node000028" class="node">
<title>Node28</title>
<g id="a_Node000028"><a xlink:href="api_2spec_2thrmask_8h.html" target="_top" xlink:title="ODP thread masks.">
<polygon fill="white" stroke="#666666" points="825.5,-310.5 694.5,-310.5 694.5,-291.5 825.5,-291.5 825.5,-310.5"/>
<text text-anchor="middle" x="760" y="-298.5" font-family="Helvetica,sans-Serif" font-size="10.00">odp/api/spec/thrmask.h</text>
</a>
</g>
</g>
<!-- Node26&#45;&gt;Node28 -->
<g id="edge40_Node000026_Node000028" class="edge">
<title>Node26&#45;&gt;Node28</title>
<g id="a_edge40_Node000026_Node000028"><a xlink:title=" ">
<path fill="none" stroke="#63b8ff" d="M759.13,-357.37C759.28,-348.16 759.51,-333.29 759.7,-321.27"/>
<polygon fill="#63b8ff" stroke="#63b8ff" points="763.2,-320.96 759.86,-310.91 756.2,-320.85 763.2,-320.96"/>
</a>
</g>
</g>
<!-- Node28&#45;&gt;Node4 -->
<g id="edge41_Node000028_Node000004" class="edge">
<title>Node28&#45;&gt;Node4</title>
<g id="a_edge41_Node000028_Node000004"><a xlink:title=" ">
<path fill="none" stroke="#63b8ff" d="M759.26,-291.39C757.53,-276.77 751.89,-247.1 734,-231 686.89,-188.6 655.82,-215.96 596,-195 482.59,-155.26 440.96,-162.36 349,-85 330.24,-69.22 315.66,-44.7 307.2,-28.14"/>
<polygon fill="#63b8ff" stroke="#63b8ff" points="310.27,-26.46 302.74,-19 303.98,-29.53 310.27,-26.46"/>
</a>
</g>
</g>
<!-- Node28&#45;&gt;Node5 -->
<g id="edge42_Node000028_Node000005" class="edge">
<title>Node28&#45;&gt;Node5</title>
<g id="a_edge42_Node000028_Node000005"><a xlink:title=" ">
<path fill="none" stroke="#63b8ff" d="M746.57,-291.37C731.92,-281.95 708.24,-266.73 690.9,-255.58"/>
<polygon fill="#63b8ff" stroke="#63b8ff" points="692.79,-252.63 682.48,-250.17 689,-258.52 692.79,-252.63"/>
</a>
</g>
</g>
<!-- Node28&#45;&gt;Node12 -->
<g id="edge43_Node000028_Node000012" class="edge">
<title>Node28&#45;&gt;Node12</title>
<g id="a_edge43_Node000028_Node000012"><a xlink:title=" ">
<path fill="none" stroke="#63b8ff" d="M784.95,-291.47C837.96,-272.57 957,-225.77 957,-186.5 957,-186.5 957,-186.5 957,-129.5 957,-81.96 909.42,-44.07 878.93,-24.67"/>
<polygon fill="#63b8ff" stroke="#63b8ff" points="880.45,-21.5 870.09,-19.26 876.79,-27.47 880.45,-21.5"/>
</a>
</g>
</g>
</g>
</svg>
