<?xml version="1.0" encoding="UTF-8" standalone="no"?>
<!DOCTYPE svg PUBLIC "-//W3C//DTD SVG 1.1//EN"
 "http://www.w3.org/Graphics/SVG/1.1/DTD/svg11.dtd">
<!-- Generated by graphviz version 2.43.0 (0)
 -->
<!-- Title: odp_pktio_capability_t Pages: 1 -->
<svg width="636pt" height="267pt"
 viewBox="0.00 0.00 636.00 267.00" xmlns="http://www.w3.org/2000/svg" xmlns:xlink="http://www.w3.org/1999/xlink">
<g id="graph0" class="graph" transform="scale(1 1) rotate(0) translate(4 263)">
<title>odp_pktio_capability_t</title>
<!-- Node1 -->
<g id="Node000001" class="node">
<title>Node1</title>
<g id="a_Node000001"><a xlink:title="Packet IO capabilities.">
<polygon fill="#999999" stroke="#666666" points="628,-111 501,-111 501,-92 628,-92 628,-111"/>
<text text-anchor="middle" x="564.5" y="-99" font-family="Helvetica,sans-Serif" font-size="10.00">odp_pktio_capability_t</text>
</a>
</g>
</g>
<!-- Node2 -->
<g id="Node000002" class="node">
<title>Node2</title>
<g id="a_Node000002"><a xlink:href="structodp__pktio__config__t.html" target="_top" xlink:title="Packet IO configuration options.">
<polygon fill="white" stroke="#666666" points="376.5,-204 268.5,-204 268.5,-185 376.5,-185 376.5,-204"/>
<text text-anchor="middle" x="322.5" y="-192" font-family="Helvetica,sans-Serif" font-size="10.00">odp_pktio_config_t</text>
</a>
</g>
</g>
<!-- Node2&#45;&gt;Node1 -->
<g id="edge1_Node000001_Node000002" class="edge">
<title>Node2&#45;&gt;Node1</title>
<g id="a_edge1_Node000001_Node000002"><a xlink:title=" ">
<path fill="none" stroke="#9a32cd" stroke-dasharray="5,2" d="M386.79,-184.63C416.82,-178.56 452.67,-169.24 483,-155.5 509.52,-143.49 536.96,-123.05 551.96,-111.06"/>
<polygon fill="#9a32cd" stroke="#9a32cd" points="385.99,-181.22 376.85,-186.57 387.33,-188.09 385.99,-181.22"/>
</a>
</g>
<text text-anchor="middle" x="452.5" y="-178.5" font-family="Helvetica,sans-Serif" font-size="10.00" fill="grey"> config</text>
</g>
<!-- Node3 -->
<g id="Node000003" class="node">
<title>Node3</title>
<g id="a_Node000003"><a xlink:href="unionodp__pktin__config__opt__t.html" target="_top" xlink:title="Packet input configuration options bit field.">
<polygon fill="white" stroke="#666666" points="136.5,-259 7.5,-259 7.5,-240 136.5,-240 136.5,-259"/>
<text text-anchor="middle" x="72" y="-247" font-family="Helvetica,sans-Serif" font-size="10.00">odp_pktin_config_opt_t</text>
</a>
</g>
</g>
<!-- Node3&#45;&gt;Node2 -->
<g id="edge2_Node000002_Node000003" class="edge">
<title>Node3&#45;&gt;Node2</title>
<g id="a_edge2_Node000002_Node000003"><a xlink:title=" ">
<path fill="none" stroke="#9a32cd" stroke-dasharray="5,2" d="M136.97,-238.11C163.65,-233.11 194.91,-226.91 223,-220.5 244.55,-215.58 268.54,-209.26 287.45,-204.09"/>
<polygon fill="#9a32cd" stroke="#9a32cd" points="136.18,-234.7 126.99,-239.97 137.46,-241.58 136.18,-234.7"/>
</a>
</g>
<text text-anchor="middle" x="192.5" y="-235.5" font-family="Helvetica,sans-Serif" font-size="10.00" fill="grey"> pktin</text>
</g>
<!-- Node4 -->
<g id="Node000004" class="node">
<title>Node4</title>
<g id="a_Node000004"><a xlink:href="unionodp__pktout__config__opt__t.html" target="_top" xlink:title="Packet output configuration options bit field.">
<polygon fill="white" stroke="#666666" points="140,-222 4,-222 4,-203 140,-203 140,-222"/>
<text text-anchor="middle" x="72" y="-210" font-family="Helvetica,sans-Serif" font-size="10.00">odp_pktout_config_opt_t</text>
</a>
</g>
</g>
<!-- Node4&#45;&gt;Node2 -->
<g id="edge3_Node000002_Node000004" class="edge">
<title>Node4&#45;&gt;Node2</title>
<g id="a_edge3_Node000002_Node000004"><a xlink:title=" ">
<path fill="none" stroke="#9a32cd" stroke-dasharray="5,2" d="M150.35,-206.9C188.68,-204.12 234,-200.84 268.37,-198.35"/>
<polygon fill="#9a32cd" stroke="#9a32cd" points="149.97,-203.42 140.25,-207.63 150.47,-210.4 149.97,-203.42"/>
</a>
</g>
<text text-anchor="middle" x="192.5" y="-208.5" font-family="Helvetica,sans-Serif" font-size="10.00" fill="grey"> pktout</text>
</g>
<!-- Node5 -->
<g id="Node000005" class="node">
<title>Node5</title>
<g id="a_Node000005"><a xlink:href="structodp__pktio__parser__config__t.html" target="_top" xlink:title="Parser configuration.">
<polygon fill="white" stroke="#666666" points="144,-185 0,-185 0,-166 144,-166 144,-185"/>
<text text-anchor="middle" x="72" y="-173" font-family="Helvetica,sans-Serif" font-size="10.00">odp_pktio_parser_config_t</text>
</a>
</g>
</g>
<!-- Node5&#45;&gt;Node2 -->
<g id="edge4_Node000002_Node000005" class="edge">
<title>Node5&#45;&gt;Node2</title>
<g id="a_edge4_Node000002_Node000005"><a xlink:title=" ">
<path fill="none" stroke="#9a32cd" stroke-dasharray="5,2" d="M154.42,-181.35C176.66,-182.99 200.76,-184.78 223,-186.5 237.71,-187.64 253.65,-188.91 268.34,-190.11"/>
<polygon fill="#9a32cd" stroke="#9a32cd" points="154.58,-177.86 144.35,-180.62 154.07,-184.84 154.58,-177.86"/>
</a>
</g>
<text text-anchor="middle" x="192.5" y="-189.5" font-family="Helvetica,sans-Serif" font-size="10.00" fill="grey"> parser</text>
</g>
<!-- Node6 -->
<g id="Node000006" class="node">
<title>Node6</title>
<g id="a_Node000006"><a xlink:href="structodp__reass__config__t.html" target="_top" xlink:title="Fragment reassembly configuration.">
<polygon fill="white" stroke="#666666" points="127,-148 17,-148 17,-129 127,-129 127,-148"/>
<text text-anchor="middle" x="72" y="-136" font-family="Helvetica,sans-Serif" font-size="10.00">odp_reass_config_t</text>
</a>
</g>
</g>
<!-- Node6&#45;&gt;Node2 -->
<g id="edge5_Node000002_Node000006" class="edge">
<title>Node6&#45;&gt;Node2</title>
<g id="a_edge5_Node000002_Node000006"><a xlink:title=" ">
<path fill="none" stroke="#9a32cd" stroke-dasharray="5,2" d="M137.33,-145.85C164.32,-150.12 195.71,-156.67 223,-166.5 231.61,-169.6 232.45,-173.25 241,-176.5 249.7,-179.81 259.17,-182.6 268.46,-184.92"/>
<polygon fill="#9a32cd" stroke="#9a32cd" points="137.63,-142.36 127.22,-144.33 136.58,-149.28 137.63,-142.36"/>
</a>
</g>
<text text-anchor="middle" x="192.5" y="-169.5" font-family="Helvetica,sans-Serif" font-size="10.00" fill="grey"> reassembly</text>
</g>
<!-- Node7 -->
<g id="Node000007" class="node">
<title>Node7</title>
<g id="a_Node000007"><a xlink:href="unionodp__pktio__set__op__t.html" target="_top" xlink:title="Packet IO set operations.">
<polygon fill="white" stroke="#666666" points="378,-167 267,-167 267,-148 378,-148 378,-167"/>
<text text-anchor="middle" x="322.5" y="-155" font-family="Helvetica,sans-Serif" font-size="10.00">odp_pktio_set_op_t</text>
</a>
</g>
</g>
<!-- Node7&#45;&gt;Node1 -->
<g id="edge6_Node000001_Node000007" class="edge">
<title>Node7&#45;&gt;Node1</title>
<g id="a_edge6_Node000001_Node000007"><a xlink:title=" ">
<path fill="none" stroke="#9a32cd" stroke-dasharray="5,2" d="M388.2,-147.25C417.35,-142.14 452.1,-135.36 483,-127.5 501.22,-122.86 521.34,-116.36 536.91,-111.02"/>
<polygon fill="#9a32cd" stroke="#9a32cd" points="387.39,-143.83 378.13,-148.98 388.58,-150.73 387.39,-143.83"/>
</a>
</g>
<text text-anchor="middle" x="452.5" y="-143.5" font-family="Helvetica,sans-Serif" font-size="10.00" fill="grey"> set_op</text>
</g>
<!-- Node8 -->
<g id="Node000008" class="node">
<title>Node8</title>
<g id="a_Node000008"><a xlink:href="structodp__pktin__vector__capability__t.html" target="_top" xlink:title="Packet input vector capabilities.">
<polygon fill="white" stroke="#666666" points="404,-130 241,-130 241,-111 404,-111 404,-130"/>
<text text-anchor="middle" x="322.5" y="-118" font-family="Helvetica,sans-Serif" font-size="10.00">odp_pktin_vector_capability_t</text>
</a>
</g>
</g>
<!-- Node8&#45;&gt;Node1 -->
<g id="edge7_Node000001_Node000008" class="edge">
<title>Node8&#45;&gt;Node1</title>
<g id="a_edge7_Node000001_Node000008"><a xlink:title=" ">
<path fill="none" stroke="#9a32cd" stroke-dasharray="5,2" d="M414.21,-113.32C443.14,-111.03 474.49,-108.55 500.96,-106.45"/>
<polygon fill="#9a32cd" stroke="#9a32cd" points="413.78,-109.84 404.08,-114.12 414.33,-116.82 413.78,-109.84"/>
</a>
</g>
<text text-anchor="middle" x="452.5" y="-115.5" font-family="Helvetica,sans-Serif" font-size="10.00" fill="grey"> vector</text>
</g>
<!-- Node9 -->
<g id="Node000009" class="node">
<title>Node9</title>
<g id="a_Node000009"><a xlink:href="structodp__lso__capability__t.html" target="_top" xlink:title="Large Send Offload (LSO) capabilities.">
<polygon fill="white" stroke="#666666" points="380.5,-93 264.5,-93 264.5,-74 380.5,-74 380.5,-93"/>
<text text-anchor="middle" x="322.5" y="-81" font-family="Helvetica,sans-Serif" font-size="10.00">odp_lso_capability_t</text>
</a>
</g>
</g>
<!-- Node9&#45;&gt;Node1 -->
<g id="edge8_Node000001_Node000009" class="edge">
<title>Node9&#45;&gt;Node1</title>
<g id="a_edge8_Node000001_Node000009"><a xlink:title=" ">
<path fill="none" stroke="#9a32cd" stroke-dasharray="5,2" d="M391.08,-83C419.52,-83.36 452.93,-84.52 483,-87.5 493.59,-88.55 504.88,-90.18 515.56,-91.97"/>
<polygon fill="#9a32cd" stroke="#9a32cd" points="390.87,-79.5 380.84,-82.9 390.8,-86.5 390.87,-79.5"/>
</a>
</g>
<text text-anchor="middle" x="452.5" y="-90.5" font-family="Helvetica,sans-Serif" font-size="10.00" fill="grey"> lso</text>
</g>
<!-- Node10 -->
<g id="Node000010" class="node">
<title>Node10</title>
<g id="a_Node000010"><a xlink:href="structodp__reass__capability__t.html" target="_top" xlink:title="Reassembly capabilities.">
<polygon fill="white" stroke="#666666" points="386.5,-56 258.5,-56 258.5,-37 386.5,-37 386.5,-56"/>
<text text-anchor="middle" x="322.5" y="-44" font-family="Helvetica,sans-Serif" font-size="10.00">odp_reass_capability_t</text>
</a>
</g>
</g>
<!-- Node10&#45;&gt;Node1 -->
<g id="edge9_Node000001_Node000010" class="edge">
<title>Node10&#45;&gt;Node1</title>
<g id="a_edge9_Node000001_Node000010"><a xlink:title=" ">
<path fill="none" stroke="#9a32cd" stroke-dasharray="5,2" d="M396.95,-53.42C424.25,-56.95 455.32,-62.11 483,-69.5 504.22,-75.16 527.41,-84.77 543.44,-91.99"/>
<polygon fill="#9a32cd" stroke="#9a32cd" points="397.04,-49.91 386.68,-52.15 396.18,-56.86 397.04,-49.91"/>
</a>
</g>
<text text-anchor="middle" x="452.5" y="-72.5" font-family="Helvetica,sans-Serif" font-size="10.00" fill="grey"> reassembly</text>
</g>
<!-- Node11 -->
<g id="Node000011" class="node">
<title>Node11</title>
<g id="a_Node000011"><a xlink:href="structodp__pktio__stats__capability__t.html" target="_top" xlink:title="Packet IO statistics capabilities.">
<polygon fill="white" stroke="#666666" points="400.5,-19 244.5,-19 244.5,0 400.5,0 400.5,-19"/>
<text text-anchor="middle" x="322.5" y="-7" font-family="Helvetica,sans-Serif" font-size="10.00">odp_pktio_stats_capability_t</text>
</a>
</g>
</g>
<!-- Node11&#45;&gt;Node1 -->
<g id="edge10_Node000001_Node000011" class="edge">
<title>Node11&#45;&gt;Node1</title>
<g id="a_edge10_Node000001_Node000011"><a xlink:title=" ">
<path fill="none" stroke="#9a32cd" stroke-dasharray="5,2" d="M410.49,-20.52C434.63,-25.42 460.4,-32.46 483,-42.5 511.18,-55.03 539.09,-78.66 553.48,-91.89"/>
<polygon fill="#9a32cd" stroke="#9a32cd" points="411.1,-17.07 400.62,-18.61 409.77,-23.94 411.1,-17.07"/>
</a>
</g>
<text text-anchor="middle" x="452.5" y="-45.5" font-family="Helvetica,sans-Serif" font-size="10.00" fill="grey"> stats</text>
</g>
</g>
</svg>
