<?xml version="1.0" encoding="UTF-8" standalone="no"?>
<!DOCTYPE svg PUBLIC "-//W3C//DTD SVG 1.1//EN"
 "http://www.w3.org/Graphics/SVG/1.1/DTD/svg11.dtd">
<!-- Generated by graphviz version 2.43.0 (0)
 -->
<!-- Title: odp_ipsec_capability_t Pages: 1 -->
<svg width="396pt" height="212pt"
 viewBox="0.00 0.00 396.00 212.00" xmlns="http://www.w3.org/2000/svg" xmlns:xlink="http://www.w3.org/1999/xlink">
<g id="graph0" class="graph" transform="scale(1 1) rotate(0) translate(4 208)">
<title>odp_ipsec_capability_t</title>
<!-- Node1 -->
<g id="Node000001" class="node">
<title>Node1</title>
<g id="a_Node000001"><a xlink:title="IPSEC capability.">
<polygon fill="#999999" stroke="#666666" points="388,-111 260,-111 260,-92 388,-92 388,-111"/>
<text text-anchor="middle" x="324" y="-99" font-family="Helvetica,sans-Serif" font-size="10.00">odp_ipsec_capability_t</text>
</a>
</g>
</g>
<!-- Node2 -->
<g id="Node000002" class="node">
<title>Node2</title>
<g id="a_Node000002"><a xlink:href="unionodp__proto__chksums__t.html" target="_top" xlink:title="Flags to control packet data checksum checking.">
<polygon fill="white" stroke="#666666" points="143,-204 20,-204 20,-185 143,-185 143,-204"/>
<text text-anchor="middle" x="81.5" y="-192" font-family="Helvetica,sans-Serif" font-size="10.00">odp_proto_chksums_t</text>
</a>
</g>
</g>
<!-- Node2&#45;&gt;Node1 -->
<g id="edge1_Node000001_Node000002" class="edge">
<title>Node2&#45;&gt;Node1</title>
<g id="a_edge1_Node000001_Node000002"><a xlink:title=" ">
<path fill="none" stroke="#9a32cd" stroke-dasharray="5,2" d="M153.17,-183.05C181.56,-176.97 214.11,-168.09 242,-155.5 268.65,-143.47 296.27,-123.04 311.38,-111.06"/>
<polygon fill="#9a32cd" stroke="#9a32cd" points="152.4,-179.64 143.32,-185.09 153.82,-186.49 152.4,-179.64"/>
</a>
</g>
<text text-anchor="middle" x="211.5" y="-178.5" font-family="Helvetica,sans-Serif" font-size="10.00" fill="grey"> chksums_in</text>
</g>
<!-- Node3 -->
<g id="Node000003" class="node">
<title>Node3</title>
<g id="a_Node000003"><a xlink:href="structodp__pktin__vector__capability__t.html" target="_top" xlink:title="Packet input vector capabilities.">
<polygon fill="white" stroke="#666666" points="163,-167 0,-167 0,-148 163,-148 163,-167"/>
<text text-anchor="middle" x="81.5" y="-155" font-family="Helvetica,sans-Serif" font-size="10.00">odp_pktin_vector_capability_t</text>
</a>
</g>
</g>
<!-- Node3&#45;&gt;Node1 -->
<g id="edge2_Node000001_Node000003" class="edge">
<title>Node3&#45;&gt;Node1</title>
<g id="a_edge2_Node000001_Node000003"><a xlink:title=" ">
<path fill="none" stroke="#9a32cd" stroke-dasharray="5,2" d="M152.8,-146.23C180.74,-141.24 213.05,-134.84 242,-127.5 260.32,-122.85 280.57,-116.35 296.24,-111.02"/>
<polygon fill="#9a32cd" stroke="#9a32cd" points="151.97,-142.82 142.72,-148 153.18,-149.71 151.97,-142.82"/>
</a>
</g>
<text text-anchor="middle" x="211.5" y="-143.5" font-family="Helvetica,sans-Serif" font-size="10.00" fill="grey"> vector</text>
</g>
<!-- Node4 -->
<g id="Node000004" class="node">
<title>Node4</title>
<g id="a_Node000004"><a xlink:href="unionodp__crypto__cipher__algos__t.html" target="_top" xlink:title="Cipher algorithms in a bit field structure.">
<polygon fill="white" stroke="#666666" points="154.5,-130 8.5,-130 8.5,-111 154.5,-111 154.5,-130"/>
<text text-anchor="middle" x="81.5" y="-118" font-family="Helvetica,sans-Serif" font-size="10.00">odp_crypto_cipher_algos_t</text>
</a>
</g>
</g>
<!-- Node4&#45;&gt;Node1 -->
<g id="edge3_Node000001_Node000004" class="edge">
<title>Node4&#45;&gt;Node1</title>
<g id="a_edge3_Node000001_Node000004"><a xlink:title=" ">
<path fill="none" stroke="#9a32cd" stroke-dasharray="5,2" d="M165.03,-113.98C196.08,-111.53 230.86,-108.78 259.87,-106.49"/>
<polygon fill="#9a32cd" stroke="#9a32cd" points="164.35,-110.52 154.66,-114.8 164.9,-117.5 164.35,-110.52"/>
</a>
</g>
<text text-anchor="middle" x="211.5" y="-115.5" font-family="Helvetica,sans-Serif" font-size="10.00" fill="grey"> ciphers</text>
</g>
<!-- Node5 -->
<g id="Node000005" class="node">
<title>Node5</title>
<g id="a_Node000005"><a xlink:href="unionodp__crypto__auth__algos__t.html" target="_top" xlink:title="Authentication algorithms in a bit field structure.">
<polygon fill="white" stroke="#666666" points="150.5,-93 12.5,-93 12.5,-74 150.5,-74 150.5,-93"/>
<text text-anchor="middle" x="81.5" y="-81" font-family="Helvetica,sans-Serif" font-size="10.00">odp_crypto_auth_algos_t</text>
</a>
</g>
</g>
<!-- Node5&#45;&gt;Node1 -->
<g id="edge4_Node000001_Node000005" class="edge">
<title>Node5&#45;&gt;Node1</title>
<g id="a_edge4_Node000001_Node000005"><a xlink:title=" ">
<path fill="none" stroke="#9a32cd" stroke-dasharray="5,2" d="M160.7,-83.19C186.62,-83.69 215.6,-84.9 242,-87.5 252.65,-88.55 264.01,-90.18 274.76,-91.97"/>
<polygon fill="#9a32cd" stroke="#9a32cd" points="160.6,-79.68 150.55,-83.02 160.49,-86.68 160.6,-79.68"/>
</a>
</g>
<text text-anchor="middle" x="211.5" y="-90.5" font-family="Helvetica,sans-Serif" font-size="10.00" fill="grey"> auths</text>
</g>
<!-- Node6 -->
<g id="Node000006" class="node">
<title>Node6</title>
<g id="a_Node000006"><a xlink:href="structodp__ipsec__test__capability__t.html" target="_top" xlink:title="IPSEC TEST capability.">
<polygon fill="white" stroke="#666666" points="157.5,-56 5.5,-56 5.5,-37 157.5,-37 157.5,-56"/>
<text text-anchor="middle" x="81.5" y="-44" font-family="Helvetica,sans-Serif" font-size="10.00">odp_ipsec_test_capability_t</text>
</a>
</g>
</g>
<!-- Node6&#45;&gt;Node1 -->
<g id="edge5_Node000001_Node000006" class="edge">
<title>Node6&#45;&gt;Node1</title>
<g id="a_edge5_Node000001_Node000006"><a xlink:title=" ">
<path fill="none" stroke="#9a32cd" stroke-dasharray="5,2" d="M167.45,-54.22C191.77,-57.5 218.15,-62.11 242,-68.5 263.71,-74.32 287.39,-84.44 303.5,-91.94"/>
<polygon fill="#9a32cd" stroke="#9a32cd" points="167.89,-50.75 157.52,-52.94 166.99,-57.69 167.89,-50.75"/>
</a>
</g>
<text text-anchor="middle" x="211.5" y="-71.5" font-family="Helvetica,sans-Serif" font-size="10.00" fill="grey"> test</text>
</g>
<!-- Node7 -->
<g id="Node000007" class="node">
<title>Node7</title>
<g id="a_Node000007"><a xlink:href="structodp__reass__capability__t.html" target="_top" xlink:title="Reassembly capabilities.">
<polygon fill="white" stroke="#666666" points="145.5,-19 17.5,-19 17.5,0 145.5,0 145.5,-19"/>
<text text-anchor="middle" x="81.5" y="-7" font-family="Helvetica,sans-Serif" font-size="10.00">odp_reass_capability_t</text>
</a>
</g>
</g>
<!-- Node7&#45;&gt;Node1 -->
<g id="edge6_Node000001_Node000007" class="edge">
<title>Node7&#45;&gt;Node1</title>
<g id="a_edge6_Node000001_Node000007"><a xlink:title=" ">
<path fill="none" stroke="#9a32cd" stroke-dasharray="5,2" d="M155.91,-16.67C183.73,-21.19 215.14,-28.55 242,-40.5 270.95,-53.38 299.23,-78.31 313.48,-91.97"/>
<polygon fill="#9a32cd" stroke="#9a32cd" points="156.25,-13.18 145.84,-15.12 155.19,-20.1 156.25,-13.18"/>
</a>
</g>
<text text-anchor="middle" x="211.5" y="-43.5" font-family="Helvetica,sans-Serif" font-size="10.00" fill="grey"> reassembly</text>
</g>
</g>
</svg>
