<?xml version="1.0" encoding="UTF-8" standalone="no"?>
<!DOCTYPE svg PUBLIC "-//W3C//DTD SVG 1.1//EN"
 "http://www.w3.org/Graphics/SVG/1.1/DTD/svg11.dtd">
<!-- Generated by graphviz version 2.43.0 (0)
 -->
<!-- Title: odp_timer_capability_t Pages: 1 -->
<svg width="292pt" height="104pt"
 viewBox="0.00 0.00 291.50 104.00" xmlns="http://www.w3.org/2000/svg" xmlns:xlink="http://www.w3.org/1999/xlink">
<g id="graph0" class="graph" transform="scale(1 1) rotate(0) translate(4 100)">
<title>odp_timer_capability_t</title>
<!-- Node1 -->
<g id="Node000001" class="node">
<title>Node1</title>
<g id="a_Node000001"><a xlink:title="Timer capability.">
<polygon fill="#999999" stroke="#666666" points="208.5,-19 80.5,-19 80.5,0 208.5,0 208.5,-19"/>
<text text-anchor="middle" x="144.5" y="-7" font-family="Helvetica,sans-Serif" font-size="10.00">odp_timer_capability_t</text>
</a>
</g>
</g>
<!-- Node2 -->
<g id="Node000002" class="node">
<title>Node2</title>
<g id="a_Node000002"><a xlink:href="structodp__timer__res__capability__t.html" target="_top" xlink:title="Timer resolution capability.">
<polygon fill="white" stroke="#666666" points="149,-96 0,-96 0,-77 149,-77 149,-96"/>
<text text-anchor="middle" x="74.5" y="-84" font-family="Helvetica,sans-Serif" font-size="10.00">odp_timer_res_capability_t</text>
</a>
</g>
</g>
<!-- Node2&#45;&gt;Node1 -->
<g id="edge1_Node000001_Node000002" class="edge">
<title>Node2&#45;&gt;Node1</title>
<g id="a_edge1_Node000001_Node000002"><a xlink:title=" ">
<path fill="none" stroke="#9a32cd" stroke-dasharray="5,2" d="M89.75,-69.16C104.17,-53.72 125.22,-31.15 136.56,-19"/>
<polygon fill="#9a32cd" stroke="#9a32cd" points="86.79,-67.2 82.53,-76.9 91.91,-71.97 86.79,-67.2"/>
</a>
</g>
<text text-anchor="middle" x="142" y="-51" font-family="Helvetica,sans-Serif" font-size="10.00" fill="grey"> max_res</text>
<text text-anchor="middle" x="142" y="-40" font-family="Helvetica,sans-Serif" font-size="10.00" fill="grey">max_tmo</text>
</g>
<!-- Node3 -->
<g id="Node000003" class="node">
<title>Node3</title>
<g id="a_Node000003"><a xlink:href="structodp__fract__u64__t.html" target="_top" xlink:title="Unsigned 64 bit fractional number.">
<polygon fill="white" stroke="#666666" points="262,-96 167,-96 167,-77 262,-77 262,-96"/>
<text text-anchor="middle" x="214.5" y="-84" font-family="Helvetica,sans-Serif" font-size="10.00">odp_fract_u64_t</text>
</a>
</g>
</g>
<!-- Node3&#45;&gt;Node1 -->
<g id="edge2_Node000001_Node000003" class="edge">
<title>Node3&#45;&gt;Node1</title>
<g id="a_edge2_Node000001_Node000003"><a xlink:title=" ">
<path fill="none" stroke="#9a32cd" stroke-dasharray="5,2" d="M199.61,-69.39C190.86,-59.94 179.58,-47.77 169.5,-37 163.97,-31.09 157.72,-24.46 152.85,-19.32"/>
<polygon fill="#9a32cd" stroke="#9a32cd" points="197.2,-71.93 206.56,-76.89 202.33,-67.18 197.2,-71.93"/>
</a>
</g>
<text text-anchor="middle" x="236" y="-51" font-family="Helvetica,sans-Serif" font-size="10.00" fill="grey"> max_base_freq_hz</text>
<text text-anchor="middle" x="236" y="-40" font-family="Helvetica,sans-Serif" font-size="10.00" fill="grey">min_base_freq_hz</text>
</g>
</g>
</svg>
