<?xml version="1.0" encoding="UTF-8" standalone="no"?>
<!DOCTYPE svg PUBLIC "-//W3C//DTD SVG 1.1//EN"
 "http://www.w3.org/Graphics/SVG/1.1/DTD/svg11.dtd">
<!-- Generated by graphviz version 2.43.0 (0)
 -->
<!-- Title: odp_tm_capabilities_t Pages: 1 -->
<svg width="308pt" height="170pt"
 viewBox="0.00 0.00 308.00 170.00" xmlns="http://www.w3.org/2000/svg" xmlns:xlink="http://www.w3.org/1999/xlink">
<g id="graph0" class="graph" transform="scale(1 1) rotate(0) translate(4 166)">
<title>odp_tm_capabilities_t</title>
<!-- Node1 -->
<g id="Node000001" class="node">
<title>Node1</title>
<g id="a_Node000001"><a xlink:title="TM Capabilities Record.">
<polygon fill="#999999" stroke="#666666" points="226,-19 102,-19 102,0 226,0 226,-19"/>
<text text-anchor="middle" x="164" y="-7" font-family="Helvetica,sans-Serif" font-size="10.00">odp_tm_capabilities_t</text>
</a>
</g>
</g>
<!-- Node2 -->
<g id="Node000002" class="node">
<title>Node2</title>
<g id="a_Node000002"><a xlink:href="structodp__tm__level__capabilities__t.html" target="_top" xlink:title="Per Level Capabilities.">
<polygon fill="white" stroke="#666666" points="163.5,-90.5 10.5,-90.5 10.5,-71.5 163.5,-71.5 163.5,-90.5"/>
<text text-anchor="middle" x="87" y="-78.5" font-family="Helvetica,sans-Serif" font-size="10.00">odp_tm_level_capabilities_t</text>
</a>
</g>
</g>
<!-- Node2&#45;&gt;Node1 -->
<g id="edge1_Node000001_Node000002" class="edge">
<title>Node2&#45;&gt;Node1</title>
<g id="a_edge1_Node000001_Node000002"><a xlink:title=" ">
<path fill="none" stroke="#9a32cd" stroke-dasharray="5,2" d="M104.27,-64.42C119.77,-50.42 141.97,-30.38 154.48,-19.09"/>
<polygon fill="#9a32cd" stroke="#9a32cd" points="101.52,-62.18 96.44,-71.48 106.21,-67.38 101.52,-62.18"/>
</a>
</g>
<text text-anchor="middle" x="157.5" y="-40" font-family="Helvetica,sans-Serif" font-size="10.00" fill="grey"> per_level</text>
</g>
<!-- Node3 -->
<g id="Node000003" class="node">
<title>Node3</title>
<g id="a_Node000003"><a xlink:href="structodp__tm__node__stats__capability__t.html" target="_top" xlink:title="TM node statistics capabilities.">
<polygon fill="white" stroke="#666666" points="174,-162 0,-162 0,-143 174,-143 174,-162"/>
<text text-anchor="middle" x="87" y="-150" font-family="Helvetica,sans-Serif" font-size="10.00">odp_tm_node_stats_capability_t</text>
</a>
</g>
</g>
<!-- Node3&#45;&gt;Node2 -->
<g id="edge2_Node000002_Node000003" class="edge">
<title>Node3&#45;&gt;Node2</title>
<g id="a_edge2_Node000002_Node000003"><a xlink:title=" ">
<path fill="none" stroke="#9a32cd" stroke-dasharray="5,2" d="M87,-132.71C87,-119 87,-101.05 87,-90.59"/>
<polygon fill="#9a32cd" stroke="#9a32cd" points="83.5,-132.98 87,-142.98 90.5,-132.98 83.5,-132.98"/>
</a>
</g>
<text text-anchor="middle" x="115.5" y="-117" font-family="Helvetica,sans-Serif" font-size="10.00" fill="grey"> node_stats</text>
</g>
<!-- Node4 -->
<g id="Node000004" class="node">
<title>Node4</title>
<g id="a_Node000004"><a xlink:href="structodp__tm__queue__stats__capability__t.html" target="_top" xlink:title="TM queue level statistics capabilities.">
<polygon fill="white" stroke="#666666" points="300,-96 182,-96 182,-66 300,-66 300,-96"/>
<text text-anchor="start" x="190" y="-84" font-family="Helvetica,sans-Serif" font-size="10.00">odp_tm_queue_stats</text>
<text text-anchor="middle" x="241" y="-73" font-family="Helvetica,sans-Serif" font-size="10.00">_capability_t</text>
</a>
</g>
</g>
<!-- Node4&#45;&gt;Node1 -->
<g id="edge3_Node000001_Node000004" class="edge">
<title>Node4&#45;&gt;Node1</title>
<g id="a_edge3_Node000001_Node000004"><a xlink:title=" ">
<path fill="none" stroke="#9a32cd" stroke-dasharray="5,2" d="M217.67,-58.94C202.94,-45.65 184.69,-29.17 173.71,-19.27"/>
<polygon fill="#9a32cd" stroke="#9a32cd" points="215.65,-61.83 225.42,-65.94 220.34,-56.64 215.65,-61.83"/>
</a>
</g>
<text text-anchor="middle" x="235.5" y="-40" font-family="Helvetica,sans-Serif" font-size="10.00" fill="grey"> queue_stats</text>
</g>
</g>
</svg>
