<?xml version="1.0" encoding="UTF-8" standalone="no"?>
<!DOCTYPE svg PUBLIC "-//W3C//DTD SVG 1.1//EN"
 "http://www.w3.org/Graphics/SVG/1.1/DTD/svg11.dtd">
<!-- Generated by graphviz version 2.43.0 (0)
 -->
<!-- Title: buffer_types.h Pages: 1 -->
<svg width="461pt" height="196pt"
 viewBox="0.00 0.00 461.00 196.00" xmlns="http://www.w3.org/2000/svg" xmlns:xlink="http://www.w3.org/1999/xlink">
<g id="graph0" class="graph" transform="scale(1 1) rotate(0) translate(4 192)">
<title>buffer_types.h</title>
<polygon fill="white" stroke="transparent" points="-4,4 -4,-192 457,-192 457,4 -4,4"/>
<!-- Node1 -->
<g id="node1" class="node">
<title>Node1</title>
<g id="a_node1"><a xlink:title="ODP buffer types.">
<polygon fill="#bfbfbf" stroke="black" points="91.5,-168.5 91.5,-187.5 177.5,-187.5 177.5,-168.5 91.5,-168.5"/>
<text text-anchor="middle" x="134.5" y="-175.5" font-family="Helvetica,sans-Serif" font-size="10.00">buffer_types.h</text>
</a>
</g>
</g>
<!-- Node2 -->
<g id="node2" class="node">
<title>Node2</title>
<g id="a_node2"><a xlink:href="spec_2buffer_8h.html" target="_top" xlink:title="ODP buffer.">
<polygon fill="white" stroke="black" points="16,-112.5 16,-131.5 69,-131.5 69,-112.5 16,-112.5"/>
<text text-anchor="middle" x="42.5" y="-119.5" font-family="Helvetica,sans-Serif" font-size="10.00">buffer.h</text>
</a>
</g>
</g>
<!-- Node1&#45;&gt;Node2 -->
<g id="edge1" class="edge">
<title>Node1&#45;&gt;Node2</title>
<path fill="none" stroke="midnightblue" d="M110.95,-163.18C94.02,-153.24 71.72,-140.15 57.24,-131.65"/>
<polygon fill="midnightblue" stroke="midnightblue" points="109.32,-166.28 119.72,-168.32 112.87,-160.24 109.32,-166.28"/>
</g>
<!-- Node5 -->
<g id="node5" class="node">
<title>Node5</title>
<g id="a_node5"><a xlink:href="buffer__inlines_8h_source.html" target="_top" xlink:title=" ">
<polygon fill="white" stroke="black" points="120.5,-56.5 120.5,-75.5 212.5,-75.5 212.5,-56.5 120.5,-56.5"/>
<text text-anchor="middle" x="166.5" y="-63.5" font-family="Helvetica,sans-Serif" font-size="10.00">buffer_inlines.h</text>
</a>
</g>
</g>
<!-- Node1&#45;&gt;Node5 -->
<g id="edge4" class="edge">
<title>Node1&#45;&gt;Node5</title>
<path fill="none" stroke="midnightblue" d="M123.36,-159.64C116.27,-146.26 109.6,-127.49 116.5,-112 123.63,-96 139.57,-83.3 151.55,-75.53"/>
<polygon fill="midnightblue" stroke="midnightblue" points="120.35,-161.43 128.42,-168.31 126.4,-157.9 120.35,-161.43"/>
</g>
<!-- Node6 -->
<g id="node6" class="node">
<title>Node6</title>
<g id="a_node6"><a xlink:href="event__inlines_8h_source.html" target="_top" xlink:title=" ">
<polygon fill="white" stroke="black" points="126,-112.5 126,-131.5 217,-131.5 217,-112.5 126,-112.5"/>
<text text-anchor="middle" x="171.5" y="-119.5" font-family="Helvetica,sans-Serif" font-size="10.00">event_inlines.h</text>
</a>
</g>
</g>
<!-- Node1&#45;&gt;Node6 -->
<g id="edge5" class="edge">
<title>Node1&#45;&gt;Node6</title>
<path fill="none" stroke="midnightblue" d="M146.45,-159.57C152.81,-150.27 160.37,-139.25 165.5,-131.75"/>
<polygon fill="midnightblue" stroke="midnightblue" points="143.37,-157.86 140.61,-168.08 149.15,-161.81 143.37,-157.86"/>
</g>
<!-- Node7 -->
<g id="node7" class="node">
<title>Node7</title>
<g id="a_node7"><a xlink:href="event__validation__external_8h.html" target="_top" xlink:title="ODP event validation.">
<polygon fill="white" stroke="black" points="235,-112.5 235,-131.5 388,-131.5 388,-112.5 235,-112.5"/>
<text text-anchor="middle" x="311.5" y="-119.5" font-family="Helvetica,sans-Serif" font-size="10.00">event_validation_external.h</text>
</a>
</g>
</g>
<!-- Node1&#45;&gt;Node7 -->
<g id="edge6" class="edge">
<title>Node1&#45;&gt;Node7</title>
<path fill="none" stroke="midnightblue" d="M172.4,-165.44C205.78,-155.26 253.6,-140.66 283.59,-131.52"/>
<polygon fill="midnightblue" stroke="midnightblue" points="171.09,-162.18 162.55,-168.44 173.13,-168.87 171.09,-162.18"/>
</g>
<!-- Node3 -->
<g id="node3" class="node">
<title>Node3</title>
<g id="a_node3"><a xlink:href="buffer_8h.html" target="_top" xlink:title="ODP buffer descriptor.">
<polygon fill="white" stroke="black" points="16,-56.5 16,-75.5 69,-75.5 69,-56.5 16,-56.5"/>
<text text-anchor="middle" x="42.5" y="-63.5" font-family="Helvetica,sans-Serif" font-size="10.00">buffer.h</text>
</a>
</g>
</g>
<!-- Node2&#45;&gt;Node3 -->
<g id="edge2" class="edge">
<title>Node2&#45;&gt;Node3</title>
<path fill="none" stroke="midnightblue" d="M42.5,-101.8C42.5,-92.91 42.5,-82.78 42.5,-75.75"/>
<polygon fill="midnightblue" stroke="midnightblue" points="39,-102.08 42.5,-112.08 46,-102.08 39,-102.08"/>
</g>
<!-- Node4 -->
<g id="node4" class="node">
<title>Node4</title>
<g id="a_node4"><a xlink:href="dma__inlines_8h_source.html" target="_top" xlink:title=" ">
<polygon fill="white" stroke="black" points="0,-0.5 0,-19.5 85,-19.5 85,-0.5 0,-0.5"/>
<text text-anchor="middle" x="42.5" y="-7.5" font-family="Helvetica,sans-Serif" font-size="10.00">dma_inlines.h</text>
</a>
</g>
</g>
<!-- Node3&#45;&gt;Node4 -->
<g id="edge3" class="edge">
<title>Node3&#45;&gt;Node4</title>
<path fill="none" stroke="midnightblue" d="M42.5,-45.8C42.5,-36.91 42.5,-26.78 42.5,-19.75"/>
<polygon fill="midnightblue" stroke="midnightblue" points="39,-46.08 42.5,-56.08 46,-46.08 39,-46.08"/>
</g>
<!-- Node7&#45;&gt;Node5 -->
<g id="edge7" class="edge">
<title>Node7&#45;&gt;Node5</title>
<path fill="none" stroke="midnightblue" d="M279.02,-108.91C251.76,-98.75 213.51,-84.51 189.37,-75.52"/>
<polygon fill="midnightblue" stroke="midnightblue" points="277.93,-112.23 288.52,-112.44 280.37,-105.67 277.93,-112.23"/>
</g>
<!-- Node8 -->
<g id="node8" class="node">
<title>Node8</title>
<g id="a_node8"><a xlink:href="packet__inlines_8h.html" target="_top" xlink:title="ODP packet inline functions.">
<polygon fill="white" stroke="black" points="247,-56.5 247,-75.5 342,-75.5 342,-56.5 247,-56.5"/>
<text text-anchor="middle" x="294.5" y="-63.5" font-family="Helvetica,sans-Serif" font-size="10.00">packet_inlines.h</text>
</a>
</g>
</g>
<!-- Node7&#45;&gt;Node8 -->
<g id="edge8" class="edge">
<title>Node7&#45;&gt;Node8</title>
<path fill="none" stroke="midnightblue" d="M305.64,-102.4C302.8,-93.36 299.52,-82.94 297.25,-75.75"/>
<polygon fill="midnightblue" stroke="midnightblue" points="302.35,-103.6 308.69,-112.08 309.03,-101.49 302.35,-103.6"/>
</g>
<!-- Node9 -->
<g id="node9" class="node">
<title>Node9</title>
<g id="a_node9"><a xlink:href="queue__inlines_8h_source.html" target="_top" xlink:title=" ">
<polygon fill="white" stroke="black" points="360,-56.5 360,-75.5 453,-75.5 453,-56.5 360,-56.5"/>
<text text-anchor="middle" x="406.5" y="-63.5" font-family="Helvetica,sans-Serif" font-size="10.00">queue_inlines.h</text>
</a>
</g>
</g>
<!-- Node7&#45;&gt;Node9 -->
<g id="edge9" class="edge">
<title>Node7&#45;&gt;Node9</title>
<path fill="none" stroke="midnightblue" d="M335.82,-107.18C353.3,-97.24 376.33,-84.15 391.27,-75.65"/>
<polygon fill="midnightblue" stroke="midnightblue" points="333.73,-104.34 326.76,-112.32 337.19,-110.43 333.73,-104.34"/>
</g>
</g>
</svg>
