<?xml version="1.0" encoding="UTF-8" standalone="no"?>
<!DOCTYPE svg PUBLIC "-//W3C//DTD SVG 1.1//EN"
 "http://www.w3.org/Graphics/SVG/1.1/DTD/svg11.dtd">
<!-- Generated by graphviz version 2.43.0 (0)
 -->
<!-- Title: debug_inlines.h Pages: 1 -->
<svg width="1461pt" height="93pt"
 viewBox="0.00 0.00 1460.50 93.00" xmlns="http://www.w3.org/2000/svg" xmlns:xlink="http://www.w3.org/1999/xlink">
<g id="graph0" class="graph" transform="scale(1 1) rotate(0) translate(4 89)">
<title>debug_inlines.h</title>
<!-- Node1 -->
<g id="Node000001" class="node">
<title>Node1</title>
<g id="a_Node000001"><a xlink:title="ODP Debug inlines.">
<polygon fill="#999999" stroke="#666666" points="725.5,-85 632.5,-85 632.5,-66 725.5,-66 725.5,-85"/>
<text text-anchor="middle" x="679" y="-73" font-family="Helvetica,sans-Serif" font-size="10.00">debug_inlines.h</text>
</a>
</g>
</g>
<!-- Node2 -->
<g id="Node000002" class="node">
<title>Node2</title>
<g id="a_Node000002"><a xlink:href="buffer__inlines_8h_source.html" target="_top" xlink:title=" ">
<polygon fill="white" stroke="#666666" points="92,-24.5 0,-24.5 0,-5.5 92,-5.5 92,-24.5"/>
<text text-anchor="middle" x="46" y="-12.5" font-family="Helvetica,sans-Serif" font-size="10.00">buffer_inlines.h</text>
</a>
</g>
</g>
<!-- Node1&#45;&gt;Node2 -->
<g id="edge1_Node000001_Node000002" class="edge">
<title>Node1&#45;&gt;Node2</title>
<g id="a_edge1_Node000001_Node000002"><a xlink:title=" ">
<path fill="none" stroke="#63b8ff" d="M621.93,-73.36C517.78,-70.56 290.14,-61.12 101,-30 92.64,-28.62 83.69,-26.59 75.49,-24.5"/>
<polygon fill="#63b8ff" stroke="#63b8ff" points="622.14,-76.87 632.22,-73.63 622.32,-69.87 622.14,-76.87"/>
</a>
</g>
</g>
<!-- Node3 -->
<g id="Node000003" class="node">
<title>Node3</title>
<g id="a_Node000003"><a xlink:href="crypto__inlines_8h_source.html" target="_top" xlink:title=" ">
<polygon fill="white" stroke="#666666" points="204,-24.5 110,-24.5 110,-5.5 204,-5.5 204,-24.5"/>
<text text-anchor="middle" x="157" y="-12.5" font-family="Helvetica,sans-Serif" font-size="10.00">crypto_inlines.h</text>
</a>
</g>
</g>
<!-- Node1&#45;&gt;Node3 -->
<g id="edge2_Node000001_Node000003" class="edge">
<title>Node1&#45;&gt;Node3</title>
<g id="a_edge2_Node000001_Node000003"><a xlink:title=" ">
<path fill="none" stroke="#63b8ff" d="M622.35,-71.83C534.27,-67.07 359.39,-55.14 213,-30 204.7,-28.58 195.82,-26.58 187.63,-24.54"/>
<polygon fill="#63b8ff" stroke="#63b8ff" points="622.22,-75.33 632.4,-72.36 622.6,-68.34 622.22,-75.33"/>
</a>
</g>
</g>
<!-- Node4 -->
<g id="Node000004" class="node">
<title>Node4</title>
<g id="a_Node000004"><a xlink:href="dma__inlines_8h_source.html" target="_top" xlink:title=" ">
<polygon fill="white" stroke="#666666" points="307.5,-24.5 222.5,-24.5 222.5,-5.5 307.5,-5.5 307.5,-24.5"/>
<text text-anchor="middle" x="265" y="-12.5" font-family="Helvetica,sans-Serif" font-size="10.00">dma_inlines.h</text>
</a>
</g>
</g>
<!-- Node1&#45;&gt;Node4 -->
<g id="edge3_Node000001_Node000004" class="edge">
<title>Node1&#45;&gt;Node4</title>
<g id="a_edge3_Node000001_Node000004"><a xlink:title=" ">
<path fill="none" stroke="#63b8ff" d="M622.05,-70.11C550.23,-63.98 423.16,-51.16 316,-30 308.52,-28.52 300.53,-26.53 293.15,-24.52"/>
<polygon fill="#63b8ff" stroke="#63b8ff" points="621.98,-73.61 632.24,-70.96 622.57,-66.64 621.98,-73.61"/>
</a>
</g>
</g>
<!-- Node5 -->
<g id="Node000005" class="node">
<title>Node5</title>
<g id="a_Node000005"><a xlink:href="event__inlines_8h_source.html" target="_top" xlink:title=" ">
<polygon fill="white" stroke="#666666" points="416.5,-24.5 325.5,-24.5 325.5,-5.5 416.5,-5.5 416.5,-24.5"/>
<text text-anchor="middle" x="371" y="-12.5" font-family="Helvetica,sans-Serif" font-size="10.00">event_inlines.h</text>
</a>
</g>
</g>
<!-- Node1&#45;&gt;Node5 -->
<g id="edge4_Node000001_Node000005" class="edge">
<title>Node1&#45;&gt;Node5</title>
<g id="a_edge4_Node000001_Node000005"><a xlink:title=" ">
<path fill="none" stroke="#63b8ff" d="M622.47,-65.93C570.83,-57.78 492.47,-44.63 425,-30 417.62,-28.4 409.72,-26.47 402.31,-24.57"/>
<polygon fill="#63b8ff" stroke="#63b8ff" points="622.01,-69.4 632.43,-67.49 623.1,-62.48 622.01,-69.4"/>
</a>
</g>
</g>
<!-- Node6 -->
<g id="Node000006" class="node">
<title>Node6</title>
<g id="a_Node000006"><a xlink:href="event__vector__inlines_8h.html" target="_top" xlink:title="Event vector inline functions.">
<polygon fill="white" stroke="#666666" points="561.5,-24.5 434.5,-24.5 434.5,-5.5 561.5,-5.5 561.5,-24.5"/>
<text text-anchor="middle" x="498" y="-12.5" font-family="Helvetica,sans-Serif" font-size="10.00">event_vector_inlines.h</text>
</a>
</g>
</g>
<!-- Node1&#45;&gt;Node6 -->
<g id="edge5_Node000001_Node000006" class="edge">
<title>Node1&#45;&gt;Node6</title>
<g id="a_edge5_Node000001_Node000006"><a xlink:title=" ">
<path fill="none" stroke="#63b8ff" d="M642.85,-62.82C607.85,-51.5 555.6,-34.62 524.35,-24.52"/>
<polygon fill="#63b8ff" stroke="#63b8ff" points="642.09,-66.25 652.68,-65.99 644.24,-59.59 642.09,-66.25"/>
</a>
</g>
</g>
<!-- Node7 -->
<g id="Node000007" class="node">
<title>Node7</title>
<g id="a_Node000007"><a xlink:href="ipsec__inlines_8h_source.html" target="_top" xlink:title=" ">
<polygon fill="white" stroke="#666666" points="668.5,-24.5 579.5,-24.5 579.5,-5.5 668.5,-5.5 668.5,-24.5"/>
<text text-anchor="middle" x="624" y="-12.5" font-family="Helvetica,sans-Serif" font-size="10.00">ipsec_inlines.h</text>
</a>
</g>
</g>
<!-- Node1&#45;&gt;Node7 -->
<g id="edge6_Node000001_Node000007" class="edge">
<title>Node1&#45;&gt;Node7</title>
<g id="a_edge6_Node000001_Node000007"><a xlink:title=" ">
<path fill="none" stroke="#63b8ff" d="M663.74,-58.27C653.51,-47.39 640.45,-33.49 632.15,-24.67"/>
<polygon fill="#63b8ff" stroke="#63b8ff" points="661.48,-60.98 670.88,-65.87 666.58,-56.19 661.48,-60.98"/>
</a>
</g>
</g>
<!-- Node8 -->
<g id="Node000008" class="node">
<title>Node8</title>
<g id="a_Node000008"><a xlink:href="packet__inlines_8h.html" target="_top" xlink:title="ODP packet inline functions.">
<polygon fill="white" stroke="#666666" points="781.5,-24.5 686.5,-24.5 686.5,-5.5 781.5,-5.5 781.5,-24.5"/>
<text text-anchor="middle" x="734" y="-12.5" font-family="Helvetica,sans-Serif" font-size="10.00">packet_inlines.h</text>
</a>
</g>
</g>
<!-- Node1&#45;&gt;Node8 -->
<g id="edge7_Node000001_Node000008" class="edge">
<title>Node1&#45;&gt;Node8</title>
<g id="a_edge7_Node000001_Node000008"><a xlink:title=" ">
<path fill="none" stroke="#63b8ff" d="M694.26,-58.27C704.49,-47.39 717.55,-33.49 725.85,-24.67"/>
<polygon fill="#63b8ff" stroke="#63b8ff" points="691.42,-56.19 687.12,-65.87 696.52,-60.98 691.42,-56.19"/>
</a>
</g>
</g>
<!-- Node9 -->
<g id="Node000009" class="node">
<title>Node9</title>
<g id="a_Node000009"><a xlink:href="packet__vector__inlines_8h.html" target="_top" xlink:title="Packet vector inline functions.">
<polygon fill="white" stroke="#666666" points="930.5,-24.5 799.5,-24.5 799.5,-5.5 930.5,-5.5 930.5,-24.5"/>
<text text-anchor="middle" x="865" y="-12.5" font-family="Helvetica,sans-Serif" font-size="10.00">packet_vector_inlines.h</text>
</a>
</g>
</g>
<!-- Node1&#45;&gt;Node9 -->
<g id="edge8_Node000001_Node000009" class="edge">
<title>Node1&#45;&gt;Node9</title>
<g id="a_edge8_Node000001_Node000009"><a xlink:title=" ">
<path fill="none" stroke="#63b8ff" d="M715.68,-62.96C751.66,-51.65 805.67,-34.66 837.92,-24.52"/>
<polygon fill="#63b8ff" stroke="#63b8ff" points="714.54,-59.65 706.05,-65.99 716.64,-66.33 714.54,-59.65"/>
</a>
</g>
</g>
<!-- Node10 -->
<g id="Node000010" class="node">
<title>Node10</title>
<g id="a_Node000010"><a xlink:href="rwlock__recursive__inlines_8h_source.html" target="_top" xlink:title=" ">
<polygon fill="white" stroke="#666666" points="1095,-24.5 949,-24.5 949,-5.5 1095,-5.5 1095,-24.5"/>
<text text-anchor="middle" x="1022" y="-12.5" font-family="Helvetica,sans-Serif" font-size="10.00">rwlock_recursive_inlines.h</text>
</a>
</g>
</g>
<!-- Node1&#45;&gt;Node10 -->
<g id="edge9_Node000001_Node000010" class="edge">
<title>Node1&#45;&gt;Node10</title>
<g id="a_edge9_Node000001_Node000010"><a xlink:title=" ">
<path fill="none" stroke="#63b8ff" d="M735.54,-64.86C788.4,-55.85 869.55,-42.02 940,-30 950.39,-28.23 961.53,-26.33 972.13,-24.52"/>
<polygon fill="#63b8ff" stroke="#63b8ff" points="734.95,-61.41 725.68,-66.55 736.12,-68.31 734.95,-61.41"/>
</a>
</g>
</g>
<!-- Node11 -->
<g id="Node000011" class="node">
<title>Node11</title>
<g id="a_Node000011"><a xlink:href="schedule__inlines_8h_source.html" target="_top" xlink:title=" ">
<polygon fill="white" stroke="#666666" points="1220.5,-24.5 1113.5,-24.5 1113.5,-5.5 1220.5,-5.5 1220.5,-24.5"/>
<text text-anchor="middle" x="1167" y="-12.5" font-family="Helvetica,sans-Serif" font-size="10.00">schedule_inlines.h</text>
</a>
</g>
</g>
<!-- Node1&#45;&gt;Node11 -->
<g id="edge10_Node000001_Node000011" class="edge">
<title>Node1&#45;&gt;Node11</title>
<g id="a_edge10_Node000001_Node000011"><a xlink:title=" ">
<path fill="none" stroke="#63b8ff" d="M735.85,-70.62C817.63,-64.58 973.04,-51.34 1104,-30 1113.07,-28.52 1122.79,-26.56 1131.82,-24.56"/>
<polygon fill="#63b8ff" stroke="#63b8ff" points="735.49,-67.14 725.77,-71.36 736,-74.12 735.49,-67.14"/>
</a>
</g>
</g>
<!-- Node12 -->
<g id="Node000012" class="node">
<title>Node12</title>
<g id="a_Node000012"><a xlink:href="spinlock__recursive__inlines_8h_source.html" target="_top" xlink:title=" ">
<polygon fill="white" stroke="#666666" points="1345.5,-30 1238.5,-30 1238.5,0 1345.5,0 1345.5,-30"/>
<text text-anchor="start" x="1246.5" y="-18" font-family="Helvetica,sans-Serif" font-size="10.00">spinlock_recursive</text>
<text text-anchor="middle" x="1292" y="-7" font-family="Helvetica,sans-Serif" font-size="10.00">_inlines.h</text>
</a>
</g>
</g>
<!-- Node1&#45;&gt;Node12 -->
<g id="edge11_Node000001_Node000012" class="edge">
<title>Node1&#45;&gt;Node12</title>
<g id="a_edge11_Node000001_Node000012"><a xlink:title=" ">
<path fill="none" stroke="#63b8ff" d="M735.91,-72.56C836.23,-68.55 1050.86,-57.32 1230,-30 1232.73,-29.58 1235.51,-29.12 1238.32,-28.61"/>
<polygon fill="#63b8ff" stroke="#63b8ff" points="735.55,-69.07 725.7,-72.96 735.83,-76.06 735.55,-69.07"/>
</a>
</g>
</g>
<!-- Node13 -->
<g id="Node000013" class="node">
<title>Node13</title>
<g id="a_Node000013"><a xlink:href="timer__inlines_8h_source.html" target="_top" xlink:title=" ">
<polygon fill="white" stroke="#666666" points="1452.5,-24.5 1363.5,-24.5 1363.5,-5.5 1452.5,-5.5 1452.5,-24.5"/>
<text text-anchor="middle" x="1408" y="-12.5" font-family="Helvetica,sans-Serif" font-size="10.00">timer_inlines.h</text>
</a>
</g>
</g>
<!-- Node1&#45;&gt;Node13 -->
<g id="edge12_Node000001_Node000013" class="edge">
<title>Node1&#45;&gt;Node13</title>
<g id="a_edge12_Node000001_Node000013"><a xlink:title=" ">
<path fill="none" stroke="#63b8ff" d="M735.79,-74.44C852.55,-73.5 1127.68,-67.15 1355,-30 1363.17,-28.66 1371.91,-26.62 1379.89,-24.5"/>
<polygon fill="#63b8ff" stroke="#63b8ff" points="735.63,-70.94 725.66,-74.51 735.68,-77.94 735.63,-70.94"/>
</a>
</g>
</g>
</g>
</svg>
