<?xml version="1.0" encoding="UTF-8" standalone="no"?>
<!DOCTYPE svg PUBLIC "-//W3C//DTD SVG 1.1//EN"
 "http://www.w3.org/Graphics/SVG/1.1/DTD/svg11.dtd">
<!-- Generated by graphviz version 2.43.0 (0)
 -->
<!-- Title: platform Pages: 1 -->
<svg width="186pt" height="132pt"
 viewBox="0.00 0.00 186.00 132.00" xmlns="http://www.w3.org/2000/svg" xmlns:xlink="http://www.w3.org/1999/xlink">
<g id="graph0" class="graph" transform="scale(1 1) rotate(0) translate(4 128)">
<title>platform</title>
<polygon fill="white" stroke="transparent" points="-4,4 -4,-128 182,-128 182,4 -4,4"/>
<g id="clust1" class="cluster">
<title>clusterdir_c5a52a81292cf9a5167198f4f346d6d9</title>
<g id="a_clust1"><a xlink:href="dir_c5a52a81292cf9a5167198f4f346d6d9.html" target="_top">
<polygon fill="#eeeeff" stroke="black" points="8,-64 8,-116 170,-116 170,-64 8,-64"/>
</a>
</g>
</g>
<!-- dir_c5a52a81292cf9a5167198f4f346d6d9 -->
<g id="node1" class="node">
<title>dir_c5a52a81292cf9a5167198f4f346d6d9</title>
<text text-anchor="middle" x="132" y="-87.5" font-family="Helvetica,sans-Serif" font-size="10.00">platform</text>
</g>
<!-- dir_12baf5773bce7237f9ec3d895e717f09 -->
<g id="node2" class="node">
<title>dir_12baf5773bce7237f9ec3d895e717f09</title>
<g id="a_node2"><a xlink:href="dir_12baf5773bce7237f9ec3d895e717f09.html" target="_top" xlink:title="linux&#45;dpdk">
<polygon fill="white" stroke="red" points="84,-108 16,-108 16,-72 84,-72 84,-108"/>
<text text-anchor="middle" x="50" y="-87.5" font-family="Helvetica,sans-Serif" font-size="10.00">linux&#45;dpdk</text>
</a>
</g>
</g>
<!-- dir_d44c64559bbebec7f509842c48db8b23 -->
<g id="node3" class="node">
<title>dir_d44c64559bbebec7f509842c48db8b23</title>
<g id="a_node3"><a xlink:href="dir_d44c64559bbebec7f509842c48db8b23.html" target="_top" xlink:title="include">
<polygon fill="white" stroke="red" points="77,-36 23,-36 23,0 77,0 77,-36"/>
<text text-anchor="middle" x="50" y="-15.5" font-family="Helvetica,sans-Serif" font-size="10.00">include</text>
</a>
</g>
</g>
<!-- dir_12baf5773bce7237f9ec3d895e717f09&#45;&gt;dir_d44c64559bbebec7f509842c48db8b23 -->
<g id="edge1" class="edge">
<title>dir_12baf5773bce7237f9ec3d895e717f09&#45;&gt;dir_d44c64559bbebec7f509842c48db8b23</title>
<path fill="none" stroke="black" d="M50,-71.7C50,-63.98 50,-54.71 50,-46.11"/>
<polygon fill="black" stroke="black" points="53.5,-46.1 50,-36.1 46.5,-46.1 53.5,-46.1"/>
<g id="a_edge1&#45;headlabel"><a xlink:href="dir_000008_000000.html" target="_top" xlink:title="66">
<text text-anchor="middle" x="56.34" y="-47.2" font-family="Helvetica,sans-Serif" font-size="10.00">66</text>
</a>
</g>
</g>
</g>
</svg>
