<?xml version="1.0" encoding="UTF-8" standalone="no"?>
<!DOCTYPE svg PUBLIC "-//W3C//DTD SVG 1.1//EN"
 "http://www.w3.org/Graphics/SVG/1.1/DTD/svg11.dtd">
<!-- Generated by graphviz version 2.43.0 (0)
 -->
<!-- Title: event_validation_external.h Pages: 1 -->
<svg width="1487pt" height="808pt"
 viewBox="0.00 0.00 1487.00 808.00" xmlns="http://www.w3.org/2000/svg" xmlns:xlink="http://www.w3.org/1999/xlink">
<g id="graph0" class="graph" transform="scale(1 1) rotate(0) translate(4 804)">
<title>event_validation_external.h</title>
<!-- Node1 -->
<g id="Node000001" class="node">
<title>Node1</title>
<g id="a_Node000001"><a xlink:title="ODP event validation.">
<polygon fill="#999999" stroke="#666666" points="290.5,-800 137.5,-800 137.5,-781 290.5,-781 290.5,-800"/>
<text text-anchor="middle" x="214" y="-788" font-family="Helvetica,sans-Serif" font-size="10.00">event_validation_external.h</text>
</a>
</g>
</g>
<!-- Node2 -->
<g id="Node000002" class="node">
<title>Node2</title>
<g id="a_Node000002"><a xlink:title=" ">
<polygon fill="#e0e0e0" stroke="#999999" points="148,-745 0,-745 0,-726 148,-726 148,-745"/>
<text text-anchor="middle" x="74" y="-733" font-family="Helvetica,sans-Serif" font-size="10.00">odp/autoheader_external.h</text>
</a>
</g>
</g>
<!-- Node1&#45;&gt;Node2 -->
<g id="edge1_Node000001_Node000002" class="edge">
<title>Node1&#45;&gt;Node2</title>
<g id="a_edge1_Node000001_Node000002"><a xlink:title=" ">
<path fill="none" stroke="#63b8ff" d="M191.51,-780.98C168.48,-772.27 132.46,-758.63 106.37,-748.75"/>
<polygon fill="#63b8ff" stroke="#63b8ff" points="107.49,-745.44 96.9,-745.17 105.02,-751.98 107.49,-745.44"/>
</a>
</g>
</g>
<!-- Node3 -->
<g id="Node000003" class="node">
<title>Node3</title>
<g id="a_Node000003"><a xlink:href="buffer__types_8h.html" target="_top" xlink:title="ODP buffer types.">
<polygon fill="white" stroke="#666666" points="201.5,-140 76.5,-140 76.5,-121 201.5,-121 201.5,-140"/>
<text text-anchor="middle" x="139" y="-128" font-family="Helvetica,sans-Serif" font-size="10.00">odp/api/buffer_types.h</text>
</a>
</g>
</g>
<!-- Node1&#45;&gt;Node3 -->
<g id="edge2_Node000001_Node000003" class="edge">
<title>Node1&#45;&gt;Node3</title>
<g id="a_edge2_Node000001_Node000003"><a xlink:title=" ">
<path fill="none" stroke="#63b8ff" d="M209.03,-781C198.73,-762.54 176,-717.14 176,-676 176,-676 176,-676 176,-239.5 176,-206.12 159.98,-169.91 149.02,-149.04"/>
<polygon fill="#63b8ff" stroke="#63b8ff" points="152.01,-147.21 144.14,-140.12 145.87,-150.57 152.01,-147.21"/>
</a>
</g>
</g>
<!-- Node8 -->
<g id="Node000008" class="node">
<title>Node8</title>
<g id="a_Node000008"><a xlink:href="event__types_8h.html" target="_top" xlink:title="ODP event API type definitions.">
<polygon fill="white" stroke="#666666" points="513.5,-250 388.5,-250 388.5,-231 513.5,-231 513.5,-250"/>
<text text-anchor="middle" x="451" y="-238" font-family="Helvetica,sans-Serif" font-size="10.00">odp/api/event_types.h</text>
</a>
</g>
</g>
<!-- Node1&#45;&gt;Node8 -->
<g id="edge7_Node000001_Node000008" class="edge">
<title>Node1&#45;&gt;Node8</title>
<g id="a_edge7_Node000001_Node000008"><a xlink:title=" ">
<path fill="none" stroke="#63b8ff" d="M214,-780.96C214,-762.05 214,-715.21 214,-676 214,-676 214,-676 214,-553 214,-420.43 249.17,-375.47 347,-286 363.69,-270.74 386.41,-260.2 406.35,-253.23"/>
<polygon fill="#63b8ff" stroke="#63b8ff" points="407.48,-256.54 415.88,-250.09 405.29,-249.89 407.48,-256.54"/>
</a>
</g>
</g>
<!-- Node11 -->
<g id="Node000011" class="node">
<title>Node11</title>
<g id="a_Node000011"><a xlink:href="hints_8h.html" target="_top" xlink:title="ODP compiler hints.">
<polygon fill="white" stroke="#666666" points="331.5,-624 242.5,-624 242.5,-605 331.5,-605 331.5,-624"/>
<text text-anchor="middle" x="287" y="-612" font-family="Helvetica,sans-Serif" font-size="10.00">odp/api/hints.h</text>
</a>
</g>
</g>
<!-- Node1&#45;&gt;Node11 -->
<g id="edge12_Node000001_Node000011" class="edge">
<title>Node1&#45;&gt;Node11</title>
<g id="a_edge12_Node000001_Node000011"><a xlink:title=" ">
<path fill="none" stroke="#63b8ff" d="M217.72,-780.63C229.14,-753.4 263.88,-670.61 279.38,-633.65"/>
<polygon fill="#63b8ff" stroke="#63b8ff" points="282.73,-634.72 283.37,-624.14 276.28,-632.01 282.73,-634.72"/>
</a>
</g>
</g>
<!-- Node13 -->
<g id="Node000013" class="node">
<title>Node13</title>
<g id="a_Node000013"><a xlink:href="packet__types_8h.html" target="_top" xlink:title="ODP packet.">
<polygon fill="white" stroke="#666666" points="485.5,-745 356.5,-745 356.5,-726 485.5,-726 485.5,-745"/>
<text text-anchor="middle" x="421" y="-733" font-family="Helvetica,sans-Serif" font-size="10.00">odp/api/packet_types.h</text>
</a>
</g>
</g>
<!-- Node1&#45;&gt;Node13 -->
<g id="edge16_Node000001_Node000013" class="edge">
<title>Node1&#45;&gt;Node13</title>
<g id="a_edge16_Node000001_Node000013"><a xlink:title=" ">
<path fill="none" stroke="#63b8ff" d="M247.26,-780.98C282.61,-771.93 338.67,-757.58 377.51,-747.64"/>
<polygon fill="#63b8ff" stroke="#63b8ff" points="378.66,-750.95 387.48,-745.08 376.93,-744.17 378.66,-750.95"/>
</a>
</g>
</g>
<!-- Node4 -->
<g id="Node000004" class="node">
<title>Node4</title>
<g id="a_Node000004"><a xlink:title=" ">
<polygon fill="#e0e0e0" stroke="#999999" points="190,-85 88,-85 88,-55 190,-55 190,-85"/>
<text text-anchor="start" x="96" y="-73" font-family="Helvetica,sans-Serif" font-size="10.00">odp/api/abi/buffer</text>
<text text-anchor="middle" x="139" y="-62" font-family="Helvetica,sans-Serif" font-size="10.00">_types.h</text>
</a>
</g>
</g>
<!-- Node3&#45;&gt;Node4 -->
<g id="edge3_Node000003_Node000004" class="edge">
<title>Node3&#45;&gt;Node4</title>
<g id="a_edge3_Node000003_Node000004"><a xlink:title=" ">
<path fill="none" stroke="#63b8ff" d="M139,-120.87C139,-114.11 139,-104.35 139,-95.26"/>
<polygon fill="#63b8ff" stroke="#63b8ff" points="142.5,-95.11 139,-85.11 135.5,-95.11 142.5,-95.11"/>
</a>
</g>
</g>
<!-- Node5 -->
<g id="Node000005" class="node">
<title>Node5</title>
<g id="a_Node000005"><a xlink:href="spec_2buffer__types_8h.html" target="_top" xlink:title="ODP buffer types.">
<polygon fill="white" stroke="#666666" points="368,-85 258,-85 258,-55 368,-55 368,-85"/>
<text text-anchor="start" x="266" y="-73" font-family="Helvetica,sans-Serif" font-size="10.00">odp/api/spec/buffer</text>
<text text-anchor="middle" x="313" y="-62" font-family="Helvetica,sans-Serif" font-size="10.00">_types.h</text>
</a>
</g>
</g>
<!-- Node3&#45;&gt;Node5 -->
<g id="edge4_Node000003_Node000005" class="edge">
<title>Node3&#45;&gt;Node5</title>
<g id="a_edge4_Node000003_Node000005"><a xlink:title=" ">
<path fill="none" stroke="#63b8ff" d="M164.3,-120.99C189.67,-112.46 229.46,-99.09 261.5,-88.32"/>
<polygon fill="#63b8ff" stroke="#63b8ff" points="262.8,-91.57 271.17,-85.06 260.57,-84.93 262.8,-91.57"/>
</a>
</g>
</g>
<!-- Node6 -->
<g id="Node000006" class="node">
<title>Node6</title>
<g id="a_Node000006"><a xlink:title=" ">
<polygon fill="#e0e0e0" stroke="#999999" points="1202.5,-19 1081.5,-19 1081.5,0 1202.5,0 1202.5,-19"/>
<text text-anchor="middle" x="1142" y="-7" font-family="Helvetica,sans-Serif" font-size="10.00">odp/visibility_begin.h</text>
</a>
</g>
</g>
<!-- Node5&#45;&gt;Node6 -->
<g id="edge5_Node000005_Node000006" class="edge">
<title>Node5&#45;&gt;Node6</title>
<g id="a_edge5_Node000005_Node000006"><a xlink:title=" ">
<path fill="none" stroke="#63b8ff" d="M368.06,-56.38C371.08,-55.87 374.07,-55.4 377,-55 630.69,-20.1 935.37,-12.52 1070.94,-10.91"/>
<polygon fill="#63b8ff" stroke="#63b8ff" points="1071.23,-14.41 1081.19,-10.8 1071.15,-7.41 1071.23,-14.41"/>
</a>
</g>
</g>
<!-- Node7 -->
<g id="Node000007" class="node">
<title>Node7</title>
<g id="a_Node000007"><a xlink:title=" ">
<polygon fill="#e0e0e0" stroke="#999999" points="622,-19 510,-19 510,0 622,0 622,-19"/>
<text text-anchor="middle" x="566" y="-7" font-family="Helvetica,sans-Serif" font-size="10.00">odp/visibility_end.h</text>
</a>
</g>
</g>
<!-- Node5&#45;&gt;Node7 -->
<g id="edge6_Node000005_Node000007" class="edge">
<title>Node5&#45;&gt;Node7</title>
<g id="a_edge6_Node000005_Node000007"><a xlink:title=" ">
<path fill="none" stroke="#63b8ff" d="M368.21,-56.23C413.3,-45.81 476.34,-31.23 519.04,-21.36"/>
<polygon fill="#63b8ff" stroke="#63b8ff" points="519.94,-24.74 528.89,-19.08 518.36,-17.92 519.94,-24.74"/>
</a>
</g>
</g>
<!-- Node9 -->
<g id="Node000009" class="node">
<title>Node9</title>
<g id="a_Node000009"><a xlink:title=" ">
<polygon fill="#e0e0e0" stroke="#999999" points="499.5,-195 356.5,-195 356.5,-176 499.5,-176 499.5,-195"/>
<text text-anchor="middle" x="428" y="-183" font-family="Helvetica,sans-Serif" font-size="10.00">odp/api/abi/event_types.h</text>
</a>
</g>
</g>
<!-- Node8&#45;&gt;Node9 -->
<g id="edge8_Node000008_Node000009" class="edge">
<title>Node8&#45;&gt;Node9</title>
<g id="a_edge8_Node000008_Node000009"><a xlink:title=" ">
<path fill="none" stroke="#63b8ff" d="M447.2,-230.75C444.09,-223.57 439.58,-213.18 435.71,-204.27"/>
<polygon fill="#63b8ff" stroke="#63b8ff" points="438.92,-202.87 431.73,-195.09 432.5,-205.66 438.92,-202.87"/>
</a>
</g>
</g>
<!-- Node10 -->
<g id="Node000010" class="node">
<title>Node10</title>
<g id="a_Node000010"><a xlink:href="spec_2event__types_8h.html" target="_top" xlink:title="ODP event API type definitions.">
<polygon fill="white" stroke="#666666" points="779.5,-85 670.5,-85 670.5,-55 779.5,-55 779.5,-85"/>
<text text-anchor="start" x="678.5" y="-73" font-family="Helvetica,sans-Serif" font-size="10.00">odp/api/spec/event</text>
<text text-anchor="middle" x="725" y="-62" font-family="Helvetica,sans-Serif" font-size="10.00">_types.h</text>
</a>
</g>
</g>
<!-- Node8&#45;&gt;Node10 -->
<g id="edge9_Node000008_Node000010" class="edge">
<title>Node8&#45;&gt;Node10</title>
<g id="a_edge9_Node000008_Node000010"><a xlink:title=" ">
<path fill="none" stroke="#63b8ff" d="M464.96,-230.91C507.08,-205.01 633.6,-127.21 693.24,-90.53"/>
<polygon fill="#63b8ff" stroke="#63b8ff" points="695.19,-93.44 701.87,-85.22 691.52,-87.48 695.19,-93.44"/>
</a>
</g>
</g>
<!-- Node10&#45;&gt;Node6 -->
<g id="edge10_Node000010_Node000006" class="edge">
<title>Node10&#45;&gt;Node6</title>
<g id="a_edge10_Node000010_Node000006"><a xlink:title=" ">
<path fill="none" stroke="#63b8ff" d="M779.52,-61.35C854.33,-50.86 988.89,-31.98 1071.35,-20.41"/>
<polygon fill="#63b8ff" stroke="#63b8ff" points="1071.97,-23.86 1081.39,-19 1071,-16.93 1071.97,-23.86"/>
</a>
</g>
</g>
<!-- Node10&#45;&gt;Node7 -->
<g id="edge11_Node000010_Node000007" class="edge">
<title>Node10&#45;&gt;Node7</title>
<g id="a_edge11_Node000010_Node000007"><a xlink:title=" ">
<path fill="none" stroke="#63b8ff" d="M686.92,-54.99C660.15,-45.14 624.7,-32.1 599.11,-22.68"/>
<polygon fill="#63b8ff" stroke="#63b8ff" points="600.07,-19.31 589.48,-19.14 597.66,-25.88 600.07,-19.31"/>
</a>
</g>
</g>
<!-- Node12 -->
<g id="Node000012" class="node">
<title>Node12</title>
<g id="a_Node000012"><a xlink:href="spec_2hints_8h.html" target="_top" xlink:title="ODP compiler hints.">
<polygon fill="white" stroke="#666666" points="500,-79.5 386,-79.5 386,-60.5 500,-60.5 500,-79.5"/>
<text text-anchor="middle" x="443" y="-67.5" font-family="Helvetica,sans-Serif" font-size="10.00">odp/api/spec/hints.h</text>
</a>
</g>
</g>
<!-- Node11&#45;&gt;Node12 -->
<g id="edge13_Node000011_Node000012" class="edge">
<title>Node11&#45;&gt;Node12</title>
<g id="a_edge13_Node000011_Node000012"><a xlink:title=" ">
<path fill="none" stroke="#63b8ff" d="M287.37,-604.84C288.17,-585.21 290,-535.83 290,-494.5 290,-494.5 290,-494.5 290,-184.5 290,-129.35 354.93,-97.89 400.19,-82.65"/>
<polygon fill="#63b8ff" stroke="#63b8ff" points="401.35,-85.96 409.8,-79.56 399.21,-79.29 401.35,-85.96"/>
</a>
</g>
</g>
<!-- Node12&#45;&gt;Node6 -->
<g id="edge14_Node000012_Node000006" class="edge">
<title>Node12&#45;&gt;Node6</title>
<g id="a_edge14_Node000012_Node000006"><a xlink:title=" ">
<path fill="none" stroke="#63b8ff" d="M500.2,-64.21C627.2,-53.58 932.4,-28.04 1071.18,-16.43"/>
<polygon fill="#63b8ff" stroke="#63b8ff" points="1071.6,-19.9 1081.28,-15.58 1071.02,-12.93 1071.6,-19.9"/>
</a>
</g>
</g>
<!-- Node12&#45;&gt;Node7 -->
<g id="edge15_Node000012_Node000007" class="edge">
<title>Node12&#45;&gt;Node7</title>
<g id="a_edge15_Node000012_Node000007"><a xlink:title=" ">
<path fill="none" stroke="#63b8ff" d="M460.89,-60.49C481.38,-50.75 515.19,-34.66 538.92,-23.38"/>
<polygon fill="#63b8ff" stroke="#63b8ff" points="540.57,-26.47 548.09,-19.02 537.56,-20.15 540.57,-26.47"/>
</a>
</g>
</g>
<!-- Node14 -->
<g id="Node000014" class="node">
<title>Node14</title>
<g id="a_Node000014"><a xlink:title=" ">
<polygon fill="#e0e0e0" stroke="#999999" points="409,-690 303,-690 303,-660 409,-660 409,-690"/>
<text text-anchor="start" x="311" y="-678" font-family="Helvetica,sans-Serif" font-size="10.00">odp/api/abi/packet</text>
<text text-anchor="middle" x="356" y="-667" font-family="Helvetica,sans-Serif" font-size="10.00">_io_types.h</text>
</a>
</g>
</g>
<!-- Node13&#45;&gt;Node14 -->
<g id="edge17_Node000013_Node000014" class="edge">
<title>Node13&#45;&gt;Node14</title>
<g id="a_edge17_Node000013_Node000014"><a xlink:title=" ">
<path fill="none" stroke="#63b8ff" d="M411.41,-725.87C403,-718.3 390.42,-706.98 379.37,-697.04"/>
<polygon fill="#63b8ff" stroke="#63b8ff" points="381.46,-694.2 371.68,-690.11 376.77,-699.41 381.46,-694.2"/>
</a>
</g>
</g>
<!-- Node15 -->
<g id="Node000015" class="node">
<title>Node15</title>
<g id="a_Node000015"><a xlink:title=" ">
<polygon fill="#e0e0e0" stroke="#999999" points="533,-690 427,-690 427,-660 533,-660 533,-690"/>
<text text-anchor="start" x="435" y="-678" font-family="Helvetica,sans-Serif" font-size="10.00">odp/api/abi/packet</text>
<text text-anchor="middle" x="480" y="-667" font-family="Helvetica,sans-Serif" font-size="10.00">_types.h</text>
</a>
</g>
</g>
<!-- Node13&#45;&gt;Node15 -->
<g id="edge18_Node000013_Node000015" class="edge">
<title>Node13&#45;&gt;Node15</title>
<g id="a_edge18_Node000013_Node000015"><a xlink:title=" ">
<path fill="none" stroke="#63b8ff" d="M429.71,-725.87C437.27,-718.37 448.54,-707.2 458.49,-697.33"/>
<polygon fill="#63b8ff" stroke="#63b8ff" points="461.13,-699.64 465.76,-690.11 456.2,-694.67 461.13,-699.64"/>
</a>
</g>
</g>
<!-- Node16 -->
<g id="Node000016" class="node">
<title>Node16</title>
<g id="a_Node000016"><a xlink:href="spec_2packet__types_8h.html" target="_top" xlink:title="ODP packet types.">
<polygon fill="white" stroke="#666666" points="702.5,-690 589.5,-690 589.5,-660 702.5,-660 702.5,-690"/>
<text text-anchor="start" x="597.5" y="-678" font-family="Helvetica,sans-Serif" font-size="10.00">odp/api/spec/packet</text>
<text text-anchor="middle" x="646" y="-667" font-family="Helvetica,sans-Serif" font-size="10.00">_types.h</text>
</a>
</g>
</g>
<!-- Node13&#45;&gt;Node16 -->
<g id="edge19_Node000013_Node000016" class="edge">
<title>Node13&#45;&gt;Node16</title>
<g id="a_edge19_Node000013_Node000016"><a xlink:title=" ">
<path fill="none" stroke="#63b8ff" d="M453.72,-725.99C487.23,-717.28 540.2,-703.51 582.07,-692.62"/>
<polygon fill="#63b8ff" stroke="#63b8ff" points="583.11,-695.97 591.91,-690.06 581.35,-689.19 583.11,-695.97"/>
</a>
</g>
</g>
<!-- Node16&#45;&gt;Node6 -->
<g id="edge20_Node000016_Node000006" class="edge">
<title>Node16&#45;&gt;Node6</title>
<g id="a_edge20_Node000016_Node000006"><a xlink:title=" ">
<path fill="none" stroke="#63b8ff" d="M702.6,-671.89C890.09,-664.16 1479,-633.61 1479,-555 1479,-555 1479,-555 1479,-129.5 1479,-87.54 1457.13,-76.35 1421,-55 1386.69,-34.72 1283.51,-22.26 1212.73,-15.86"/>
<polygon fill="#63b8ff" stroke="#63b8ff" points="1212.8,-12.35 1202.53,-14.96 1212.18,-19.32 1212.8,-12.35"/>
</a>
</g>
</g>
<!-- Node16&#45;&gt;Node7 -->
<g id="edge63_Node000016_Node000007" class="edge">
<title>Node16&#45;&gt;Node7</title>
<g id="a_edge63_Node000016_Node000007"><a xlink:title=" ">
<path fill="none" stroke="#63b8ff" d="M613.31,-659.94C501.81,-609.65 139.35,-426.37 67,-140 60.35,-113.68 73.03,-60.46 79,-55 109.39,-27.2 373.51,-15.98 499.57,-12.17"/>
<polygon fill="#63b8ff" stroke="#63b8ff" points="499.98,-15.66 509.87,-11.87 499.77,-8.67 499.98,-15.66"/>
</a>
</g>
</g>
<!-- Node17 -->
<g id="Node000017" class="node">
<title>Node17</title>
<g id="a_Node000017"><a xlink:href="proto__stats__types_8h.html" target="_top" xlink:title="ODP proto stats types.">
<polygon fill="white" stroke="#666666" points="701,-382 591,-382 591,-352 701,-352 701,-382"/>
<text text-anchor="start" x="599" y="-370" font-family="Helvetica,sans-Serif" font-size="10.00">odp/api/proto_stats</text>
<text text-anchor="middle" x="646" y="-359" font-family="Helvetica,sans-Serif" font-size="10.00">_types.h</text>
</a>
</g>
</g>
<!-- Node16&#45;&gt;Node17 -->
<g id="edge21_Node000016_Node000017" class="edge">
<title>Node16&#45;&gt;Node17</title>
<g id="a_edge21_Node000016_Node000017"><a xlink:title=" ">
<path fill="none" stroke="#63b8ff" d="M646,-659.71C646,-637.37 646,-592.81 646,-555 646,-555 646,-555 646,-492.5 646,-457.67 646,-417.35 646,-392.26"/>
<polygon fill="#63b8ff" stroke="#63b8ff" points="649.5,-392.19 646,-382.19 642.5,-392.19 649.5,-392.19"/>
</a>
</g>
</g>
<!-- Node27 -->
<g id="Node000027" class="node">
<title>Node27</title>
<g id="a_Node000027"><a xlink:href="queue__types_8h.html" target="_top" xlink:title="ODP queue.">
<polygon fill="white" stroke="#666666" points="821.5,-624 694.5,-624 694.5,-605 821.5,-605 821.5,-624"/>
<text text-anchor="middle" x="758" y="-612" font-family="Helvetica,sans-Serif" font-size="10.00">odp/api/queue_types.h</text>
</a>
</g>
</g>
<!-- Node16&#45;&gt;Node27 -->
<g id="edge37_Node000016_Node000027" class="edge">
<title>Node16&#45;&gt;Node27</title>
<g id="a_edge37_Node000016_Node000027"><a xlink:title=" ">
<path fill="none" stroke="#63b8ff" d="M672.83,-659.99C690.85,-650.58 714.46,-638.24 732.25,-628.95"/>
<polygon fill="#63b8ff" stroke="#63b8ff" points="734.22,-631.87 741.46,-624.14 730.98,-625.67 734.22,-631.87"/>
</a>
</g>
</g>
<!-- Node18 -->
<g id="Node000018" class="node">
<title>Node18</title>
<g id="a_Node000018"><a xlink:title=" ">
<polygon fill="#e0e0e0" stroke="#999999" points="484,-316 356,-316 356,-286 484,-286 484,-316"/>
<text text-anchor="start" x="364" y="-304" font-family="Helvetica,sans-Serif" font-size="10.00">odp/api/abi/proto_stats</text>
<text text-anchor="middle" x="420" y="-293" font-family="Helvetica,sans-Serif" font-size="10.00">_types.h</text>
</a>
</g>
</g>
<!-- Node17&#45;&gt;Node18 -->
<g id="edge22_Node000017_Node000018" class="edge">
<title>Node17&#45;&gt;Node18</title>
<g id="a_edge22_Node000017_Node000018"><a xlink:title=" ">
<path fill="none" stroke="#63b8ff" d="M596.4,-351.95C561.96,-342.2 515.9,-329.16 479.48,-318.84"/>
<polygon fill="#63b8ff" stroke="#63b8ff" points="480.06,-315.37 469.48,-316.01 478.15,-322.1 480.06,-315.37"/>
</a>
</g>
</g>
<!-- Node19 -->
<g id="Node000019" class="node">
<title>Node19</title>
<g id="a_Node000019"><a xlink:href="spec_2proto__stats__types_8h.html" target="_top" xlink:title="ODP proto stats types.">
<polygon fill="white" stroke="#666666" points="736.5,-316 629.5,-316 629.5,-286 736.5,-286 736.5,-316"/>
<text text-anchor="start" x="637.5" y="-304" font-family="Helvetica,sans-Serif" font-size="10.00">odp/api/spec/proto</text>
<text text-anchor="middle" x="683" y="-293" font-family="Helvetica,sans-Serif" font-size="10.00">_stats_types.h</text>
</a>
</g>
</g>
<!-- Node17&#45;&gt;Node19 -->
<g id="edge23_Node000017_Node000019" class="edge">
<title>Node17&#45;&gt;Node19</title>
<g id="a_edge23_Node000017_Node000019"><a xlink:title=" ">
<path fill="none" stroke="#63b8ff" d="M654.21,-351.8C658.76,-343.92 664.53,-333.95 669.71,-324.99"/>
<polygon fill="#63b8ff" stroke="#63b8ff" points="672.84,-326.57 674.81,-316.16 666.78,-323.07 672.84,-326.57"/>
</a>
</g>
</g>
<!-- Node19&#45;&gt;Node6 -->
<g id="edge24_Node000019_Node000006" class="edge">
<title>Node19&#45;&gt;Node6</title>
<g id="a_edge24_Node000019_Node000006"><a xlink:title=" ">
<path fill="none" stroke="#63b8ff" d="M736.53,-287.62C739.72,-287.03 742.9,-286.48 746,-286 833.53,-272.36 1073.7,-305.18 1143,-250 1209.99,-196.65 1168.54,-74.13 1149.78,-28.26"/>
<polygon fill="#63b8ff" stroke="#63b8ff" points="1152.99,-26.86 1145.87,-19.01 1146.54,-29.58 1152.99,-26.86"/>
</a>
</g>
</g>
<!-- Node19&#45;&gt;Node7 -->
<g id="edge36_Node000019_Node000007" class="edge">
<title>Node19&#45;&gt;Node7</title>
<g id="a_edge36_Node000019_Node000007"><a xlink:title=" ">
<path fill="none" stroke="#63b8ff" d="M664.28,-285.72C640.92,-266.13 604,-228.51 604,-186.5 604,-186.5 604,-186.5 604,-129.5 604,-92.07 586.73,-51.03 575.48,-28.25"/>
<polygon fill="#63b8ff" stroke="#63b8ff" points="578.49,-26.46 570.81,-19.15 572.26,-29.65 578.49,-26.46"/>
</a>
</g>
</g>
<!-- Node20 -->
<g id="Node000020" class="node">
<title>Node20</title>
<g id="a_Node000020"><a xlink:href="std__types_8h.html" target="_top" xlink:title="Standard C language types and definitions for ODP.">
<polygon fill="white" stroke="#666666" points="1134,-250 1022,-250 1022,-231 1134,-231 1134,-250"/>
<text text-anchor="middle" x="1078" y="-238" font-family="Helvetica,sans-Serif" font-size="10.00">odp/api/std_types.h</text>
</a>
</g>
</g>
<!-- Node19&#45;&gt;Node20 -->
<g id="edge25_Node000019_Node000020" class="edge">
<title>Node19&#45;&gt;Node20</title>
<g id="a_edge25_Node000019_Node000020"><a xlink:title=" ">
<path fill="none" stroke="#63b8ff" d="M736.55,-287.77C739.74,-287.15 742.91,-286.55 746,-286 795.6,-277.18 930.16,-259.91 1011.94,-249.67"/>
<polygon fill="#63b8ff" stroke="#63b8ff" points="1012.4,-253.14 1021.89,-248.43 1011.53,-246.2 1012.4,-253.14"/>
</a>
</g>
</g>
<!-- Node21 -->
<g id="Node000021" class="node">
<title>Node21</title>
<g id="a_Node000021"><a xlink:title=" ">
<polygon fill="#e0e0e0" stroke="#999999" points="1152,-195 1022,-195 1022,-176 1152,-176 1152,-195"/>
<text text-anchor="middle" x="1087" y="-183" font-family="Helvetica,sans-Serif" font-size="10.00">odp/api/abi/std_types.h</text>
</a>
</g>
</g>
<!-- Node20&#45;&gt;Node21 -->
<g id="edge26_Node000020_Node000021" class="edge">
<title>Node20&#45;&gt;Node21</title>
<g id="a_edge26_Node000020_Node000021"><a xlink:title=" ">
<path fill="none" stroke="#63b8ff" d="M1079.49,-230.75C1080.67,-223.8 1082.36,-213.85 1083.84,-205.13"/>
<polygon fill="#63b8ff" stroke="#63b8ff" points="1087.32,-205.53 1085.54,-195.09 1080.42,-204.36 1087.32,-205.53"/>
</a>
</g>
</g>
<!-- Node22 -->
<g id="Node000022" class="node">
<title>Node22</title>
<g id="a_Node000022"><a xlink:href="spec_2std__types_8h.html" target="_top" xlink:title="Common types and definitions for ODP API files.">
<polygon fill="white" stroke="#666666" points="965.5,-195 828.5,-195 828.5,-176 965.5,-176 965.5,-195"/>
<text text-anchor="middle" x="897" y="-183" font-family="Helvetica,sans-Serif" font-size="10.00">odp/api/spec/std_types.h</text>
</a>
</g>
</g>
<!-- Node20&#45;&gt;Node22 -->
<g id="edge27_Node000020_Node000022" class="edge">
<title>Node20&#45;&gt;Node22</title>
<g id="a_edge27_Node000020_Node000022"><a xlink:title=" ">
<path fill="none" stroke="#63b8ff" d="M1048.92,-230.98C1018.4,-222.05 970.24,-207.94 936.34,-198.02"/>
<polygon fill="#63b8ff" stroke="#63b8ff" points="936.89,-194.53 926.31,-195.08 934.92,-201.25 936.89,-194.53"/>
</a>
</g>
</g>
<!-- Node22&#45;&gt;Node6 -->
<g id="edge28_Node000022_Node000006" class="edge">
<title>Node22&#45;&gt;Node6</title>
<g id="a_edge28_Node000022_Node000006"><a xlink:title=" ">
<path fill="none" stroke="#63b8ff" d="M932.27,-175.99C958.45,-168.76 994.42,-156.84 1023,-140 1071.94,-111.15 1112.6,-55.83 1131.17,-27.76"/>
<polygon fill="#63b8ff" stroke="#63b8ff" points="1134.3,-29.35 1136.79,-19.05 1128.42,-25.55 1134.3,-29.35"/>
</a>
</g>
</g>
<!-- Node22&#45;&gt;Node7 -->
<g id="edge35_Node000022_Node000007" class="edge">
<title>Node22&#45;&gt;Node7</title>
<g id="a_edge35_Node000022_Node000007"><a xlink:title=" ">
<path fill="none" stroke="#63b8ff" d="M885.01,-175.8C873.89,-167.39 857.26,-153.9 845,-140 815.08,-106.07 826.53,-80.27 789,-55 763.84,-38.06 688.52,-25.42 632.33,-18.02"/>
<polygon fill="#63b8ff" stroke="#63b8ff" points="632.44,-14.51 622.08,-16.7 631.55,-21.45 632.44,-14.51"/>
</a>
</g>
</g>
<!-- Node23 -->
<g id="Node000023" class="node">
<title>Node23</title>
<g id="a_Node000023"><a xlink:title=" ">
<polygon fill="#e0e0e0" stroke="#999999" points="906.5,-140 853.5,-140 853.5,-121 906.5,-121 906.5,-140"/>
<text text-anchor="middle" x="880" y="-128" font-family="Helvetica,sans-Serif" font-size="10.00">stdint.h</text>
</a>
</g>
</g>
<!-- Node22&#45;&gt;Node23 -->
<g id="edge29_Node000022_Node000023" class="edge">
<title>Node22&#45;&gt;Node23</title>
<g id="a_edge29_Node000022_Node000023"><a xlink:title=" ">
<path fill="none" stroke="#63b8ff" d="M894.19,-175.75C891.94,-168.72 888.7,-158.62 885.88,-149.84"/>
<polygon fill="#63b8ff" stroke="#63b8ff" points="889.14,-148.54 882.75,-140.09 882.48,-150.68 889.14,-148.54"/>
</a>
</g>
</g>
<!-- Node24 -->
<g id="Node000024" class="node">
<title>Node24</title>
<g id="a_Node000024"><a xlink:href="align_8h.html" target="_top" xlink:title="ODP alignments.">
<polygon fill="white" stroke="#666666" points="1013.5,-140 924.5,-140 924.5,-121 1013.5,-121 1013.5,-140"/>
<text text-anchor="middle" x="969" y="-128" font-family="Helvetica,sans-Serif" font-size="10.00">odp/api/align.h</text>
</a>
</g>
</g>
<!-- Node22&#45;&gt;Node24 -->
<g id="edge30_Node000022_Node000024" class="edge">
<title>Node22&#45;&gt;Node24</title>
<g id="a_edge30_Node000022_Node000024"><a xlink:title=" ">
<path fill="none" stroke="#63b8ff" d="M908.57,-175.98C919.42,-168 935.88,-155.88 948.88,-146.31"/>
<polygon fill="#63b8ff" stroke="#63b8ff" points="951.24,-148.92 957.22,-140.17 947.09,-143.28 951.24,-148.92"/>
</a>
</g>
</g>
<!-- Node25 -->
<g id="Node000025" class="node">
<title>Node25</title>
<g id="a_Node000025"><a xlink:title=" ">
<polygon fill="#e0e0e0" stroke="#999999" points="1075.5,-79.5 968.5,-79.5 968.5,-60.5 1075.5,-60.5 1075.5,-79.5"/>
<text text-anchor="middle" x="1022" y="-67.5" font-family="Helvetica,sans-Serif" font-size="10.00">odp/api/abi/align.h</text>
</a>
</g>
</g>
<!-- Node24&#45;&gt;Node25 -->
<g id="edge31_Node000024_Node000025" class="edge">
<title>Node24&#45;&gt;Node25</title>
<g id="a_edge31_Node000024_Node000025"><a xlink:title=" ">
<path fill="none" stroke="#63b8ff" d="M976.82,-120.87C984.81,-112.05 997.39,-98.16 1007.26,-87.27"/>
<polygon fill="#63b8ff" stroke="#63b8ff" points="1010.03,-89.43 1014.15,-79.67 1004.84,-84.73 1010.03,-89.43"/>
</a>
</g>
</g>
<!-- Node26 -->
<g id="Node000026" class="node">
<title>Node26</title>
<g id="a_Node000026"><a xlink:href="spec_2align_8h.html" target="_top" xlink:title="ODP alignments.">
<polygon fill="white" stroke="#666666" points="950,-79.5 836,-79.5 836,-60.5 950,-60.5 950,-79.5"/>
<text text-anchor="middle" x="893" y="-67.5" font-family="Helvetica,sans-Serif" font-size="10.00">odp/api/spec/align.h</text>
</a>
</g>
</g>
<!-- Node24&#45;&gt;Node26 -->
<g id="edge32_Node000024_Node000026" class="edge">
<title>Node24&#45;&gt;Node26</title>
<g id="a_edge32_Node000024_Node000026"><a xlink:title=" ">
<path fill="none" stroke="#63b8ff" d="M957.79,-120.87C945.89,-111.71 926.86,-97.06 912.49,-86.01"/>
<polygon fill="#63b8ff" stroke="#63b8ff" points="914.32,-82.99 904.26,-79.67 910.05,-88.54 914.32,-82.99"/>
</a>
</g>
</g>
<!-- Node26&#45;&gt;Node6 -->
<g id="edge33_Node000026_Node000006" class="edge">
<title>Node26&#45;&gt;Node6</title>
<g id="a_edge33_Node000026_Node000006"><a xlink:title=" ">
<path fill="none" stroke="#63b8ff" d="M929.21,-60.49C973.28,-50.14 1047.77,-32.64 1095.9,-21.33"/>
<polygon fill="#63b8ff" stroke="#63b8ff" points="1096.82,-24.71 1105.75,-19.02 1095.21,-17.9 1096.82,-24.71"/>
</a>
</g>
</g>
<!-- Node26&#45;&gt;Node7 -->
<g id="edge34_Node000026_Node000007" class="edge">
<title>Node26&#45;&gt;Node7</title>
<g id="a_edge34_Node000026_Node000007"><a xlink:title=" ">
<path fill="none" stroke="#63b8ff" d="M850.61,-60.48C841.19,-58.63 831.26,-56.72 822,-55 755.47,-42.66 679.01,-29.5 627.1,-20.72"/>
<polygon fill="#63b8ff" stroke="#63b8ff" points="627.5,-17.24 617.06,-19.03 626.34,-24.14 627.5,-17.24"/>
</a>
</g>
</g>
<!-- Node28 -->
<g id="Node000028" class="node">
<title>Node28</title>
<g id="a_Node000028"><a xlink:title=" ">
<polygon fill="#e0e0e0" stroke="#999999" points="830.5,-563.5 685.5,-563.5 685.5,-544.5 830.5,-544.5 830.5,-563.5"/>
<text text-anchor="middle" x="758" y="-551.5" font-family="Helvetica,sans-Serif" font-size="10.00">odp/api/abi/queue_types.h</text>
</a>
</g>
</g>
<!-- Node27&#45;&gt;Node28 -->
<g id="edge38_Node000027_Node000028" class="edge">
<title>Node27&#45;&gt;Node28</title>
<g id="a_edge38_Node000027_Node000028"><a xlink:title=" ">
<path fill="none" stroke="#63b8ff" d="M758,-604.87C758,-596.75 758,-584.31 758,-573.89"/>
<polygon fill="#63b8ff" stroke="#63b8ff" points="761.5,-573.67 758,-563.67 754.5,-573.67 761.5,-573.67"/>
</a>
</g>
</g>
<!-- Node29 -->
<g id="Node000029" class="node">
<title>Node29</title>
<g id="a_Node000029"><a xlink:href="spec_2queue__types_8h.html" target="_top" xlink:title="ODP queue types.">
<polygon fill="white" stroke="#666666" points="1000.5,-569 889.5,-569 889.5,-539 1000.5,-539 1000.5,-569"/>
<text text-anchor="start" x="897.5" y="-557" font-family="Helvetica,sans-Serif" font-size="10.00">odp/api/spec/queue</text>
<text text-anchor="middle" x="945" y="-546" font-family="Helvetica,sans-Serif" font-size="10.00">_types.h</text>
</a>
</g>
</g>
<!-- Node27&#45;&gt;Node29 -->
<g id="edge39_Node000027_Node000029" class="edge">
<title>Node27&#45;&gt;Node29</title>
<g id="a_edge39_Node000027_Node000029"><a xlink:title=" ">
<path fill="none" stroke="#63b8ff" d="M785.19,-604.99C812.57,-596.43 855.59,-582.97 890.1,-572.18"/>
<polygon fill="#63b8ff" stroke="#63b8ff" points="891.54,-575.39 900.04,-569.06 889.45,-568.71 891.54,-575.39"/>
</a>
</g>
</g>
<!-- Node29&#45;&gt;Node6 -->
<g id="edge40_Node000029_Node000006" class="edge">
<title>Node29&#45;&gt;Node6</title>
<g id="a_edge40_Node000029_Node000006"><a xlink:title=" ">
<path fill="none" stroke="#63b8ff" d="M1000.93,-551.33C1130.65,-545.93 1441,-523.66 1441,-434 1441,-434 1441,-434 1441,-129.5 1441,-88.86 1422.3,-76.78 1388,-55 1359.5,-36.9 1274.77,-24.37 1212.69,-17.32"/>
<polygon fill="#63b8ff" stroke="#63b8ff" points="1212.88,-13.81 1202.55,-16.19 1212.1,-20.77 1212.88,-13.81"/>
</a>
</g>
</g>
<!-- Node29&#45;&gt;Node7 -->
<g id="edge62_Node000029_Node000007" class="edge">
<title>Node29&#45;&gt;Node7</title>
<g id="a_edge62_Node000029_Node000007"><a xlink:title=" ">
<path fill="none" stroke="#63b8ff" d="M891.44,-538.98C796.38,-513.27 592.87,-454.53 430,-382 347.65,-345.33 306.26,-334.92 276,-250 246.63,-167.58 191.59,-121.03 249,-55 280.81,-18.41 416.5,-11.03 499.71,-10.03"/>
<polygon fill="#63b8ff" stroke="#63b8ff" points="499.86,-13.53 509.83,-9.94 499.8,-6.53 499.86,-13.53"/>
</a>
</g>
</g>
<!-- Node30 -->
<g id="Node000030" class="node">
<title>Node30</title>
<g id="a_Node000030"><a xlink:href="event__vector__types_8h.html" target="_top" xlink:title="ODP event vector API type definitions.">
<polygon fill="white" stroke="#666666" points="1004.5,-382 885.5,-382 885.5,-352 1004.5,-352 1004.5,-382"/>
<text text-anchor="start" x="893.5" y="-370" font-family="Helvetica,sans-Serif" font-size="10.00">odp/api/event_vector</text>
<text text-anchor="middle" x="945" y="-359" font-family="Helvetica,sans-Serif" font-size="10.00">_types.h</text>
</a>
</g>
</g>
<!-- Node29&#45;&gt;Node30 -->
<g id="edge41_Node000029_Node000030" class="edge">
<title>Node29&#45;&gt;Node30</title>
<g id="a_edge41_Node000029_Node000030"><a xlink:title=" ">
<path fill="none" stroke="#63b8ff" d="M945,-538.79C945,-507.3 945,-431.36 945,-392.22"/>
<polygon fill="#63b8ff" stroke="#63b8ff" points="948.5,-392 945,-382 941.5,-392 948.5,-392"/>
</a>
</g>
</g>
<!-- Node34 -->
<g id="Node000034" class="node">
<title>Node34</title>
<g id="a_Node000034"><a xlink:href="schedule__types_8h.html" target="_top" xlink:title="ODP schedule.">
<polygon fill="white" stroke="#666666" points="1134,-503 994,-503 994,-484 1134,-484 1134,-503"/>
<text text-anchor="middle" x="1064" y="-491" font-family="Helvetica,sans-Serif" font-size="10.00">odp/api/schedule_types.h</text>
</a>
</g>
</g>
<!-- Node29&#45;&gt;Node34 -->
<g id="edge49_Node000029_Node000034" class="edge">
<title>Node29&#45;&gt;Node34</title>
<g id="a_edge49_Node000029_Node000034"><a xlink:title=" ">
<path fill="none" stroke="#63b8ff" d="M973.5,-538.99C992.91,-529.45 1018.43,-516.9 1037.42,-507.57"/>
<polygon fill="#63b8ff" stroke="#63b8ff" points="1039,-510.69 1046.43,-503.14 1035.91,-504.41 1039,-510.69"/>
</a>
</g>
</g>
<!-- Node31 -->
<g id="Node000031" class="node">
<title>Node31</title>
<g id="a_Node000031"><a xlink:title=" ">
<polygon fill="#e0e0e0" stroke="#999999" points="891.5,-316 754.5,-316 754.5,-286 891.5,-286 891.5,-316"/>
<text text-anchor="start" x="762.5" y="-304" font-family="Helvetica,sans-Serif" font-size="10.00">odp/api/abi/event_vector</text>
<text text-anchor="middle" x="823" y="-293" font-family="Helvetica,sans-Serif" font-size="10.00">_types.h</text>
</a>
</g>
</g>
<!-- Node30&#45;&gt;Node31 -->
<g id="edge42_Node000030_Node000031" class="edge">
<title>Node30&#45;&gt;Node31</title>
<g id="a_edge42_Node000030_Node000031"><a xlink:title=" ">
<path fill="none" stroke="#63b8ff" d="M918.23,-351.95C900.75,-342.78 877.72,-330.71 858.69,-320.72"/>
<polygon fill="#63b8ff" stroke="#63b8ff" points="860.19,-317.56 849.71,-316.01 856.94,-323.76 860.19,-317.56"/>
</a>
</g>
</g>
<!-- Node32 -->
<g id="Node000032" class="node">
<title>Node32</title>
<g id="a_Node000032"><a xlink:title=" ">
<polygon fill="#e0e0e0" stroke="#999999" points="1046,-310.5 910,-310.5 910,-291.5 1046,-291.5 1046,-310.5"/>
<text text-anchor="middle" x="978" y="-298.5" font-family="Helvetica,sans-Serif" font-size="10.00">odp/api/abi/pool_types.h</text>
</a>
</g>
</g>
<!-- Node30&#45;&gt;Node32 -->
<g id="edge43_Node000030_Node000032" class="edge">
<title>Node30&#45;&gt;Node32</title>
<g id="a_edge43_Node000030_Node000032"><a xlink:title=" ">
<path fill="none" stroke="#63b8ff" d="M952.32,-351.8C957.17,-342.41 963.55,-330.02 968.75,-319.95"/>
<polygon fill="#63b8ff" stroke="#63b8ff" points="971.97,-321.34 973.44,-310.84 965.75,-318.13 971.97,-321.34"/>
</a>
</g>
</g>
<!-- Node33 -->
<g id="Node000033" class="node">
<title>Node33</title>
<g id="a_Node000033"><a xlink:href="spec_2event__vector__types_8h.html" target="_top" xlink:title="ODP event vector API type definitions.">
<polygon fill="white" stroke="#666666" points="611.5,-316 502.5,-316 502.5,-286 611.5,-286 611.5,-316"/>
<text text-anchor="start" x="510.5" y="-304" font-family="Helvetica,sans-Serif" font-size="10.00">odp/api/spec/event</text>
<text text-anchor="middle" x="557" y="-293" font-family="Helvetica,sans-Serif" font-size="10.00">_vector_types.h</text>
</a>
</g>
</g>
<!-- Node30&#45;&gt;Node33 -->
<g id="edge44_Node000030_Node000033" class="edge">
<title>Node30&#45;&gt;Node33</title>
<g id="a_edge44_Node000030_Node000033"><a xlink:title=" ">
<path fill="none" stroke="#63b8ff" d="M885.39,-357.94C822.41,-349.16 719.98,-334.16 621.86,-316.09"/>
<polygon fill="#63b8ff" stroke="#63b8ff" points="622.24,-312.6 611.77,-314.22 620.96,-319.48 622.24,-312.6"/>
</a>
</g>
</g>
<!-- Node33&#45;&gt;Node6 -->
<g id="edge45_Node000033_Node000006" class="edge">
<title>Node33&#45;&gt;Node6</title>
<g id="a_edge45_Node000033_Node000006"><a xlink:title=" ">
<path fill="none" stroke="#63b8ff" d="M611.68,-287.52C717.34,-263.23 942.08,-210.6 975,-195 1010.44,-178.2 1090.34,-117.01 1113,-85 1125.12,-67.88 1133.04,-45.01 1137.49,-29.15"/>
<polygon fill="#63b8ff" stroke="#63b8ff" points="1140.88,-30 1140.03,-19.44 1134.11,-28.23 1140.88,-30"/>
</a>
</g>
</g>
<!-- Node33&#45;&gt;Node7 -->
<g id="edge48_Node000033_Node000007" class="edge">
<title>Node33&#45;&gt;Node7</title>
<g id="a_edge48_Node000033_Node000007"><a xlink:title=" ">
<path fill="none" stroke="#63b8ff" d="M558.86,-285.7C561.5,-264.2 566,-222.28 566,-186.5 566,-186.5 566,-186.5 566,-129.5 566,-94.15 566,-52.9 566,-29.42"/>
<polygon fill="#63b8ff" stroke="#63b8ff" points="569.5,-29.16 566,-19.16 562.5,-29.16 569.5,-29.16"/>
</a>
</g>
</g>
<!-- Node33&#45;&gt;Node8 -->
<g id="edge46_Node000033_Node000008" class="edge">
<title>Node33&#45;&gt;Node8</title>
<g id="a_edge46_Node000033_Node000008"><a xlink:title=" ">
<path fill="none" stroke="#63b8ff" d="M531.61,-285.99C514.71,-276.66 492.62,-264.47 475.84,-255.21"/>
<polygon fill="#63b8ff" stroke="#63b8ff" points="477.1,-251.91 466.65,-250.14 473.72,-258.04 477.1,-251.91"/>
</a>
</g>
</g>
<!-- Node33&#45;&gt;Node20 -->
<g id="edge47_Node000033_Node000020" class="edge">
<title>Node33&#45;&gt;Node20</title>
<g id="a_edge47_Node000033_Node000020"><a xlink:title=" ">
<path fill="none" stroke="#63b8ff" d="M611.73,-287.57C614.86,-287 617.97,-286.47 621,-286 791.7,-259.49 836.24,-268.41 1008,-250 1009.27,-249.86 1010.55,-249.73 1011.83,-249.58"/>
<polygon fill="#63b8ff" stroke="#63b8ff" points="1012.31,-253.05 1021.85,-248.46 1011.52,-246.1 1012.31,-253.05"/>
</a>
</g>
</g>
<!-- Node35 -->
<g id="Node000035" class="node">
<title>Node35</title>
<g id="a_Node000035"><a xlink:title=" ">
<polygon fill="#e0e0e0" stroke="#999999" points="1261.5,-448 1144.5,-448 1144.5,-418 1261.5,-418 1261.5,-448"/>
<text text-anchor="start" x="1152.5" y="-436" font-family="Helvetica,sans-Serif" font-size="10.00">odp/api/abi/schedule</text>
<text text-anchor="middle" x="1203" y="-425" font-family="Helvetica,sans-Serif" font-size="10.00">_types.h</text>
</a>
</g>
</g>
<!-- Node34&#45;&gt;Node35 -->
<g id="edge50_Node000034_Node000035" class="edge">
<title>Node34&#45;&gt;Node35</title>
<g id="a_edge50_Node000034_Node000035"><a xlink:title=" ">
<path fill="none" stroke="#63b8ff" d="M1084.21,-483.99C1104.04,-475.65 1134.9,-462.66 1160.19,-452.02"/>
<polygon fill="#63b8ff" stroke="#63b8ff" points="1161.72,-455.17 1169.58,-448.06 1159.01,-448.72 1161.72,-455.17"/>
</a>
</g>
</g>
<!-- Node36 -->
<g id="Node000036" class="node">
<title>Node36</title>
<g id="a_Node000036"><a xlink:href="spec_2schedule__types_8h.html" target="_top" xlink:title="ODP schedule types.">
<polygon fill="white" stroke="#666666" points="1126.5,-448 1001.5,-448 1001.5,-418 1126.5,-418 1126.5,-448"/>
<text text-anchor="start" x="1009.5" y="-436" font-family="Helvetica,sans-Serif" font-size="10.00">odp/api/spec/schedule</text>
<text text-anchor="middle" x="1064" y="-425" font-family="Helvetica,sans-Serif" font-size="10.00">_types.h</text>
</a>
</g>
</g>
<!-- Node34&#45;&gt;Node36 -->
<g id="edge51_Node000034_Node000036" class="edge">
<title>Node34&#45;&gt;Node36</title>
<g id="a_edge51_Node000034_Node000036"><a xlink:title=" ">
<path fill="none" stroke="#63b8ff" d="M1064,-483.87C1064,-477.11 1064,-467.35 1064,-458.26"/>
<polygon fill="#63b8ff" stroke="#63b8ff" points="1067.5,-458.11 1064,-448.11 1060.5,-458.11 1067.5,-458.11"/>
</a>
</g>
</g>
<!-- Node36&#45;&gt;Node6 -->
<g id="edge52_Node000036_Node000006" class="edge">
<title>Node36&#45;&gt;Node6</title>
<g id="a_edge52_Node000036_Node000006"><a xlink:title=" ">
<path fill="none" stroke="#63b8ff" d="M1114.75,-417.99C1209.32,-391.16 1403,-332.49 1403,-302 1403,-302 1403,-302 1403,-129.5 1403,-45.62 1290.01,-20.6 1212.72,-13.3"/>
<polygon fill="#63b8ff" stroke="#63b8ff" points="1212.8,-9.8 1202.53,-12.42 1212.2,-16.77 1212.8,-9.8"/>
</a>
</g>
</g>
<!-- Node36&#45;&gt;Node7 -->
<g id="edge61_Node000036_Node000007" class="edge">
<title>Node36&#45;&gt;Node7</title>
<g id="a_edge61_Node000036_Node000007"><a xlink:title=" ">
<path fill="none" stroke="#63b8ff" d="M1001.25,-427.51C823.26,-413.96 328,-370.12 328,-302 328,-302 328,-302 328,-239.5 328,-210.04 328.59,-199 347,-176 398.6,-111.52 446.63,-139.13 509,-85 528.33,-68.23 545.41,-43.97 555.71,-27.74"/>
<polygon fill="#63b8ff" stroke="#63b8ff" points="558.69,-29.58 560.97,-19.23 552.74,-25.9 558.69,-29.58"/>
</a>
</g>
</g>
<!-- Node36&#45;&gt;Node20 -->
<g id="edge54_Node000036_Node000020" class="edge">
<title>Node36&#45;&gt;Node20</title>
<g id="a_edge54_Node000036_Node000020"><a xlink:title=" ">
<path fill="none" stroke="#63b8ff" d="M1065.03,-417.99C1067.5,-384.35 1073.78,-298.97 1076.59,-260.64"/>
<polygon fill="#63b8ff" stroke="#63b8ff" points="1080.11,-260.59 1077.35,-250.36 1073.13,-260.08 1080.11,-260.59"/>
</a>
</g>
</g>
<!-- Node36&#45;&gt;Node30 -->
<g id="edge53_Node000036_Node000030" class="edge">
<title>Node36&#45;&gt;Node30</title>
<g id="a_edge53_Node000036_Node000030"><a xlink:title=" ">
<path fill="none" stroke="#63b8ff" d="M1037.88,-417.95C1020.91,-408.83 998.58,-396.82 980.07,-386.86"/>
<polygon fill="#63b8ff" stroke="#63b8ff" points="981.52,-383.67 971.05,-382.01 978.2,-389.83 981.52,-383.67"/>
</a>
</g>
</g>
<!-- Node37 -->
<g id="Node000037" class="node">
<title>Node37</title>
<g id="a_Node000037"><a xlink:href="thrmask_8h.html" target="_top" xlink:title="ODP thread masks.">
<polygon fill="white" stroke="#666666" points="1216.5,-376.5 1111.5,-376.5 1111.5,-357.5 1216.5,-357.5 1216.5,-376.5"/>
<text text-anchor="middle" x="1164" y="-364.5" font-family="Helvetica,sans-Serif" font-size="10.00">odp/api/thrmask.h</text>
</a>
</g>
</g>
<!-- Node36&#45;&gt;Node37 -->
<g id="edge55_Node000036_Node000037" class="edge">
<title>Node36&#45;&gt;Node37</title>
<g id="a_edge55_Node000036_Node000037"><a xlink:title=" ">
<path fill="none" stroke="#63b8ff" d="M1086.19,-417.8C1102.8,-407.17 1125.4,-392.7 1141.97,-382.1"/>
<polygon fill="#63b8ff" stroke="#63b8ff" points="1143.94,-385 1150.47,-376.66 1140.16,-379.1 1143.94,-385"/>
</a>
</g>
</g>
<!-- Node38 -->
<g id="Node000038" class="node">
<title>Node38</title>
<g id="a_Node000038"><a xlink:title=" ">
<polygon fill="#e0e0e0" stroke="#999999" points="1225.5,-310.5 1102.5,-310.5 1102.5,-291.5 1225.5,-291.5 1225.5,-310.5"/>
<text text-anchor="middle" x="1164" y="-298.5" font-family="Helvetica,sans-Serif" font-size="10.00">odp/api/abi/thrmask.h</text>
</a>
</g>
</g>
<!-- Node37&#45;&gt;Node38 -->
<g id="edge56_Node000037_Node000038" class="edge">
<title>Node37&#45;&gt;Node38</title>
<g id="a_edge56_Node000037_Node000038"><a xlink:title=" ">
<path fill="none" stroke="#63b8ff" d="M1164,-357.37C1164,-348.16 1164,-333.29 1164,-321.27"/>
<polygon fill="#63b8ff" stroke="#63b8ff" points="1167.5,-320.91 1164,-310.91 1160.5,-320.91 1167.5,-320.91"/>
</a>
</g>
</g>
<!-- Node39 -->
<g id="Node000039" class="node">
<title>Node39</title>
<g id="a_Node000039"><a xlink:href="spec_2thrmask_8h.html" target="_top" xlink:title="ODP thread masks.">
<polygon fill="white" stroke="#666666" points="1374.5,-310.5 1243.5,-310.5 1243.5,-291.5 1374.5,-291.5 1374.5,-310.5"/>
<text text-anchor="middle" x="1309" y="-298.5" font-family="Helvetica,sans-Serif" font-size="10.00">odp/api/spec/thrmask.h</text>
</a>
</g>
</g>
<!-- Node37&#45;&gt;Node39 -->
<g id="edge57_Node000037_Node000039" class="edge">
<title>Node37&#45;&gt;Node39</title>
<g id="a_edge57_Node000037_Node000039"><a xlink:title=" ">
<path fill="none" stroke="#63b8ff" d="M1183.56,-357.37C1208.31,-346.44 1251.17,-327.52 1279.81,-314.88"/>
<polygon fill="#63b8ff" stroke="#63b8ff" points="1281.56,-317.94 1289.29,-310.7 1278.73,-311.54 1281.56,-317.94"/>
</a>
</g>
</g>
<!-- Node39&#45;&gt;Node6 -->
<g id="edge58_Node000039_Node000006" class="edge">
<title>Node39&#45;&gt;Node6</title>
<g id="a_edge58_Node000039_Node000006"><a xlink:title=" ">
<path fill="none" stroke="#63b8ff" d="M1305.47,-291.34C1298.15,-272.57 1282,-226.6 1282,-186.5 1282,-186.5 1282,-186.5 1282,-129.5 1282,-74.57 1218.66,-39.7 1177.19,-22.75"/>
<polygon fill="#63b8ff" stroke="#63b8ff" points="1178.27,-19.41 1167.68,-19.02 1175.71,-25.93 1178.27,-19.41"/>
</a>
</g>
</g>
<!-- Node39&#45;&gt;Node7 -->
<g id="edge60_Node000039_Node000007" class="edge">
<title>Node39&#45;&gt;Node7</title>
<g id="a_edge60_Node000039_Node000007"><a xlink:title=" ">
<path fill="none" stroke="#63b8ff" d="M1292.58,-291.32C1263.38,-276.32 1200.12,-245.73 1143,-231 1003.13,-194.92 955.21,-245.83 820,-195 717.08,-156.31 618.63,-64.02 581.52,-26.64"/>
<polygon fill="#63b8ff" stroke="#63b8ff" points="583.68,-23.84 574.18,-19.14 578.68,-28.74 583.68,-23.84"/>
</a>
</g>
</g>
<!-- Node39&#45;&gt;Node20 -->
<g id="edge59_Node000039_Node000020" class="edge">
<title>Node39&#45;&gt;Node20</title>
<g id="a_edge59_Node000039_Node000020"><a xlink:title=" ">
<path fill="none" stroke="#63b8ff" d="M1275.41,-291.49C1234.69,-281.18 1166,-263.78 1121.33,-252.47"/>
<polygon fill="#63b8ff" stroke="#63b8ff" points="1122.18,-249.08 1111.63,-250.02 1120.46,-255.86 1122.18,-249.08"/>
</a>
</g>
</g>
</g>
</svg>
