<?xml version="1.0" encoding="UTF-8" standalone="no"?>
<!DOCTYPE svg PUBLIC "-//W3C//DTD SVG 1.1//EN"
 "http://www.w3.org/Graphics/SVG/1.1/DTD/svg11.dtd">
<!-- Generated by graphviz version 2.43.0 (0)
 -->
<!-- Title: hints.h Pages: 1 -->
<svg width="1651pt" height="313pt"
 viewBox="0.00 0.00 1650.50 313.00" xmlns="http://www.w3.org/2000/svg" xmlns:xlink="http://www.w3.org/1999/xlink">
<g id="graph0" class="graph" transform="scale(1 1) rotate(0) translate(4 309)">
<title>hints.h</title>
<!-- Node1 -->
<g id="Node000001" class="node">
<title>Node1</title>
<g id="a_Node000001"><a xlink:title="ODP compiler hints.">
<polygon fill="#999999" stroke="#666666" points="1226.5,-305 1176.5,-305 1176.5,-286 1226.5,-286 1226.5,-305"/>
<text text-anchor="middle" x="1201.5" y="-293" font-family="Helvetica,sans-Serif" font-size="10.00">hints.h</text>
</a>
</g>
</g>
<!-- Node2 -->
<g id="Node000002" class="node">
<title>Node2</title>
<g id="a_Node000002"><a xlink:href="buffer__inlines_8h_source.html" target="_top" xlink:title=" ">
<polygon fill="white" stroke="#666666" points="1340.5,-24.5 1248.5,-24.5 1248.5,-5.5 1340.5,-5.5 1340.5,-24.5"/>
<text text-anchor="middle" x="1294.5" y="-12.5" font-family="Helvetica,sans-Serif" font-size="10.00">buffer_inlines.h</text>
</a>
</g>
</g>
<!-- Node1&#45;&gt;Node2 -->
<g id="edge1_Node000001_Node000002" class="edge">
<title>Node1&#45;&gt;Node2</title>
<g id="a_edge1_Node000001_Node000002"><a xlink:title=" ">
<path fill="none" stroke="#63b8ff" d="M1196.28,-276.23C1190.66,-254.9 1182.5,-218.44 1182.5,-186.5 1182.5,-186.5 1182.5,-186.5 1182.5,-129.5 1182.5,-77.18 1243.55,-40.25 1275.5,-24.5"/>
<polygon fill="#63b8ff" stroke="#63b8ff" points="1192.92,-277.19 1198.94,-285.91 1199.67,-275.34 1192.92,-277.19"/>
</a>
</g>
</g>
<!-- Node3 -->
<g id="Node000003" class="node">
<title>Node3</title>
<g id="a_Node000003"><a xlink:href="cpu__inlines_8h_source.html" target="_top" xlink:title=" ">
<polygon fill="white" stroke="#666666" points="1538.5,-250 1458.5,-250 1458.5,-231 1538.5,-231 1538.5,-250"/>
<text text-anchor="middle" x="1498.5" y="-238" font-family="Helvetica,sans-Serif" font-size="10.00">cpu_inlines.h</text>
</a>
</g>
</g>
<!-- Node1&#45;&gt;Node3 -->
<g id="edge2_Node000001_Node000003" class="edge">
<title>Node1&#45;&gt;Node3</title>
<g id="a_edge2_Node000001_Node000003"><a xlink:title=" ">
<path fill="none" stroke="#63b8ff" d="M1236.62,-288.23C1292.11,-278.33 1399.77,-259.12 1458.28,-248.68"/>
<polygon fill="#63b8ff" stroke="#63b8ff" points="1235.8,-284.82 1226.57,-290.03 1237.03,-291.72 1235.8,-284.82"/>
</a>
</g>
</g>
<!-- Node4 -->
<g id="Node000004" class="node">
<title>Node4</title>
<g id="a_Node000004"><a xlink:href="debug__inlines_8h.html" target="_top" xlink:title="ODP Debug inlines.">
<polygon fill="white" stroke="#666666" points="836,-85 743,-85 743,-66 836,-66 836,-85"/>
<text text-anchor="middle" x="789.5" y="-73" font-family="Helvetica,sans-Serif" font-size="10.00">debug_inlines.h</text>
</a>
</g>
</g>
<!-- Node1&#45;&gt;Node4 -->
<g id="edge3_Node000001_Node000004" class="edge">
<title>Node1&#45;&gt;Node4</title>
<g id="a_edge3_Node000001_Node000004"><a xlink:title=" ">
<path fill="none" stroke="#63b8ff" d="M1166.23,-289.02C1127.65,-282.37 1064.39,-269.58 1012.5,-250 915.39,-213.35 871.03,-221.29 806.5,-140 793.59,-123.73 790.44,-98.5 789.7,-85.27"/>
<polygon fill="#63b8ff" stroke="#63b8ff" points="1165.99,-292.52 1176.43,-290.73 1167.15,-285.62 1165.99,-292.52"/>
</a>
</g>
</g>
<!-- Node6 -->
<g id="Node000006" class="node">
<title>Node6</title>
<g id="a_Node000006"><a xlink:href="dma__inlines_8h_source.html" target="_top" xlink:title=" ">
<polygon fill="white" stroke="#666666" points="1123,-24.5 1038,-24.5 1038,-5.5 1123,-5.5 1123,-24.5"/>
<text text-anchor="middle" x="1080.5" y="-12.5" font-family="Helvetica,sans-Serif" font-size="10.00">dma_inlines.h</text>
</a>
</g>
</g>
<!-- Node1&#45;&gt;Node6 -->
<g id="edge16_Node000001_Node000006" class="edge">
<title>Node1&#45;&gt;Node6</title>
<g id="a_edge16_Node000001_Node000006"><a xlink:title=" ">
<path fill="none" stroke="#63b8ff" d="M1176.81,-280.67C1148.66,-262.86 1106.5,-229.09 1106.5,-186.5 1106.5,-186.5 1106.5,-186.5 1106.5,-129.5 1106.5,-89.47 1090.95,-43.47 1083.9,-24.67"/>
<polygon fill="#63b8ff" stroke="#63b8ff" points="1175.02,-283.68 1185.38,-285.88 1178.66,-277.69 1175.02,-283.68"/>
</a>
</g>
</g>
<!-- Node10 -->
<g id="Node000010" class="node">
<title>Node10</title>
<g id="a_Node000010"><a xlink:href="packet__inlines_8h.html" target="_top" xlink:title="ODP packet inline functions.">
<polygon fill="white" stroke="#666666" points="1454,-24.5 1359,-24.5 1359,-5.5 1454,-5.5 1454,-24.5"/>
<text text-anchor="middle" x="1406.5" y="-12.5" font-family="Helvetica,sans-Serif" font-size="10.00">packet_inlines.h</text>
</a>
</g>
</g>
<!-- Node1&#45;&gt;Node10 -->
<g id="edge29_Node000001_Node000010" class="edge">
<title>Node1&#45;&gt;Node10</title>
<g id="a_edge29_Node000001_Node000010"><a xlink:title=" ">
<path fill="none" stroke="#63b8ff" d="M1236.63,-291.37C1289.59,-285.96 1386.38,-273.14 1411.5,-250 1433.17,-230.04 1430.5,-215.96 1430.5,-186.5 1430.5,-186.5 1430.5,-186.5 1430.5,-129.5 1430.5,-89.62 1416.14,-43.53 1409.64,-24.7"/>
<polygon fill="#63b8ff" stroke="#63b8ff" points="1236.26,-287.89 1226.65,-292.35 1236.95,-294.85 1236.26,-287.89"/>
</a>
</g>
</g>
<!-- Node15 -->
<g id="Node000015" class="node">
<title>Node15</title>
<g id="a_Node000015"><a xlink:href="timer__inlines_8h_source.html" target="_top" xlink:title=" ">
<polygon fill="white" stroke="#666666" points="1230,-24.5 1141,-24.5 1141,-5.5 1230,-5.5 1230,-24.5"/>
<text text-anchor="middle" x="1185.5" y="-12.5" font-family="Helvetica,sans-Serif" font-size="10.00">timer_inlines.h</text>
</a>
</g>
</g>
<!-- Node1&#45;&gt;Node15 -->
<g id="edge32_Node000001_Node000015" class="edge">
<title>Node1&#45;&gt;Node15</title>
<g id="a_edge32_Node000001_Node000015"><a xlink:title=" ">
<path fill="none" stroke="#63b8ff" d="M1186.45,-278.24C1169.56,-258.24 1144.5,-222.49 1144.5,-186.5 1144.5,-186.5 1144.5,-186.5 1144.5,-129.5 1144.5,-88.23 1168.78,-43.26 1179.97,-24.73"/>
<polygon fill="#63b8ff" stroke="#63b8ff" points="1183.86,-280.6 1193.09,-285.8 1189.12,-275.98 1183.86,-280.6"/>
</a>
</g>
</g>
<!-- Node16 -->
<g id="Node000016" class="node">
<title>Node16</title>
<g id="a_Node000016"><a xlink:href="event__validation__external_8h.html" target="_top" xlink:title="ODP event validation.">
<polygon fill="white" stroke="#666666" points="1402,-250 1249,-250 1249,-231 1402,-231 1402,-250"/>
<text text-anchor="middle" x="1325.5" y="-238" font-family="Helvetica,sans-Serif" font-size="10.00">event_validation_external.h</text>
</a>
</g>
</g>
<!-- Node1&#45;&gt;Node16 -->
<g id="edge17_Node000001_Node000016" class="edge">
<title>Node1&#45;&gt;Node16</title>
<g id="a_edge17_Node000001_Node000016"><a xlink:title=" ">
<path fill="none" stroke="#63b8ff" d="M1230.68,-282.03C1253.61,-272.23 1284.95,-258.83 1305.21,-250.17"/>
<polygon fill="#63b8ff" stroke="#63b8ff" points="1229.24,-278.84 1221.42,-285.98 1231.99,-285.27 1229.24,-278.84"/>
</a>
</g>
</g>
<!-- Node17 -->
<g id="Node000017" class="node">
<title>Node17</title>
<g id="a_Node000017"><a xlink:href="queue__inlines_8h_source.html" target="_top" xlink:title=" ">
<polygon fill="white" stroke="#666666" points="1304,-195 1211,-195 1211,-176 1304,-176 1304,-195"/>
<text text-anchor="middle" x="1257.5" y="-183" font-family="Helvetica,sans-Serif" font-size="10.00">queue_inlines.h</text>
</a>
</g>
</g>
<!-- Node1&#45;&gt;Node17 -->
<g id="edge30_Node000001_Node000017" class="edge">
<title>Node1&#45;&gt;Node17</title>
<g id="a_edge30_Node000001_Node000017"><a xlink:title=" ">
<path fill="none" stroke="#63b8ff" d="M1210.7,-276.76C1222.87,-253.28 1243.86,-212.81 1253.01,-195.16"/>
<polygon fill="#63b8ff" stroke="#63b8ff" points="1207.58,-275.17 1206.08,-285.66 1213.79,-278.4 1207.58,-275.17"/>
</a>
</g>
</g>
<!-- Node18 -->
<g id="Node000018" class="node">
<title>Node18</title>
<g id="a_Node000018"><a xlink:href="spec_2init_8h.html" target="_top" xlink:title=" ">
<polygon fill="white" stroke="#666666" points="1063,-250 1022,-250 1022,-231 1063,-231 1063,-250"/>
<text text-anchor="middle" x="1042.5" y="-238" font-family="Helvetica,sans-Serif" font-size="10.00">init.h</text>
</a>
</g>
</g>
<!-- Node1&#45;&gt;Node18 -->
<g id="edge21_Node000001_Node000018" class="edge">
<title>Node1&#45;&gt;Node18</title>
<g id="a_edge21_Node000001_Node000018"><a xlink:title=" ">
<path fill="none" stroke="#63b8ff" d="M1166.55,-282.85C1134.85,-272.28 1089.2,-257.07 1063.03,-248.34"/>
<polygon fill="#63b8ff" stroke="#63b8ff" points="1165.71,-286.26 1176.31,-286.1 1167.93,-279.62 1165.71,-286.26"/>
</a>
</g>
</g>
<!-- Node24 -->
<g id="Node000024" class="node">
<title>Node24</title>
<g id="a_Node000024"><a xlink:href="time__inlines_8h_source.html" target="_top" xlink:title=" ">
<polygon fill="white" stroke="#666666" points="1642.5,-250 1556.5,-250 1556.5,-231 1642.5,-231 1642.5,-250"/>
<text text-anchor="middle" x="1599.5" y="-238" font-family="Helvetica,sans-Serif" font-size="10.00">time_inlines.h</text>
</a>
</g>
</g>
<!-- Node1&#45;&gt;Node24 -->
<g id="edge31_Node000001_Node000024" class="edge">
<title>Node1&#45;&gt;Node24</title>
<g id="a_edge31_Node000001_Node000024"><a xlink:title=" ">
<path fill="none" stroke="#63b8ff" d="M1236.86,-290.36C1299.53,-282.92 1434.2,-266.54 1547.5,-250 1550.4,-249.58 1553.38,-249.13 1556.39,-248.66"/>
<polygon fill="#63b8ff" stroke="#63b8ff" points="1236.24,-286.91 1226.72,-291.56 1237.06,-293.86 1236.24,-286.91"/>
</a>
</g>
</g>
<!-- Node4&#45;&gt;Node2 -->
<g id="edge4_Node000004_Node000002" class="edge">
<title>Node4&#45;&gt;Node2</title>
<g id="a_edge4_Node000004_Node000002"><a xlink:title=" ">
<path fill="none" stroke="#63b8ff" d="M846.34,-65.85C1021.23,-45.08 1068.98,-59.28 1239.5,-30 1247.66,-28.6 1256.38,-26.61 1264.43,-24.57"/>
<polygon fill="#63b8ff" stroke="#63b8ff" points="845.79,-62.39 836.28,-67.07 846.63,-69.34 845.79,-62.39"/>
</a>
</g>
</g>
<!-- Node5 -->
<g id="Node000005" class="node">
<title>Node5</title>
<g id="a_Node000005"><a xlink:href="crypto__inlines_8h_source.html" target="_top" xlink:title=" ">
<polygon fill="white" stroke="#666666" points="1019.5,-24.5 925.5,-24.5 925.5,-5.5 1019.5,-5.5 1019.5,-24.5"/>
<text text-anchor="middle" x="972.5" y="-12.5" font-family="Helvetica,sans-Serif" font-size="10.00">crypto_inlines.h</text>
</a>
</g>
</g>
<!-- Node4&#45;&gt;Node5 -->
<g id="edge5_Node000004_Node000005" class="edge">
<title>Node4&#45;&gt;Node5</title>
<g id="a_edge5_Node000004_Node000005"><a xlink:title=" ">
<path fill="none" stroke="#63b8ff" d="M826.05,-62.82C861.44,-51.5 914.27,-34.62 945.86,-24.52"/>
<polygon fill="#63b8ff" stroke="#63b8ff" points="824.57,-59.61 816.11,-65.99 826.7,-66.28 824.57,-59.61"/>
</a>
</g>
</g>
<!-- Node4&#45;&gt;Node6 -->
<g id="edge6_Node000004_Node000006" class="edge">
<title>Node4&#45;&gt;Node6</title>
<g id="a_edge6_Node000004_Node000006"><a xlink:title=" ">
<path fill="none" stroke="#63b8ff" d="M846.44,-65.2C895.03,-56.95 966.64,-44.06 1028.5,-30 1035.61,-28.38 1043.22,-26.45 1050.35,-24.55"/>
<polygon fill="#63b8ff" stroke="#63b8ff" points="845.71,-61.77 836.44,-66.89 846.88,-68.68 845.71,-61.77"/>
</a>
</g>
</g>
<!-- Node7 -->
<g id="Node000007" class="node">
<title>Node7</title>
<g id="a_Node000007"><a xlink:href="event__inlines_8h_source.html" target="_top" xlink:title=" ">
<polygon fill="white" stroke="#666666" points="91,-24.5 0,-24.5 0,-5.5 91,-5.5 91,-24.5"/>
<text text-anchor="middle" x="45.5" y="-12.5" font-family="Helvetica,sans-Serif" font-size="10.00">event_inlines.h</text>
</a>
</g>
</g>
<!-- Node4&#45;&gt;Node7 -->
<g id="edge7_Node000004_Node000007" class="edge">
<title>Node4&#45;&gt;Node7</title>
<g id="a_edge7_Node000004_Node000007"><a xlink:title=" ">
<path fill="none" stroke="#63b8ff" d="M732.43,-74.46C613.79,-73.57 332.2,-67.32 99.5,-30 91.18,-28.67 82.28,-26.62 74.15,-24.5"/>
<polygon fill="#63b8ff" stroke="#63b8ff" points="732.7,-77.96 742.72,-74.52 732.75,-70.96 732.7,-77.96"/>
</a>
</g>
</g>
<!-- Node8 -->
<g id="Node000008" class="node">
<title>Node8</title>
<g id="a_Node000008"><a xlink:href="event__vector__inlines_8h.html" target="_top" xlink:title="Event vector inline functions.">
<polygon fill="white" stroke="#666666" points="236,-24.5 109,-24.5 109,-5.5 236,-5.5 236,-24.5"/>
<text text-anchor="middle" x="172.5" y="-12.5" font-family="Helvetica,sans-Serif" font-size="10.00">event_vector_inlines.h</text>
</a>
</g>
</g>
<!-- Node4&#45;&gt;Node8 -->
<g id="edge8_Node000004_Node000008" class="edge">
<title>Node4&#45;&gt;Node8</title>
<g id="a_edge8_Node000004_Node000008"><a xlink:title=" ">
<path fill="none" stroke="#63b8ff" d="M732.52,-71.93C633.1,-66.97 421.62,-54.38 244.5,-30 234.03,-28.56 222.78,-26.58 212.36,-24.57"/>
<polygon fill="#63b8ff" stroke="#63b8ff" points="732.49,-75.43 742.65,-72.42 732.84,-68.44 732.49,-75.43"/>
</a>
</g>
</g>
<!-- Node9 -->
<g id="Node000009" class="node">
<title>Node9</title>
<g id="a_Node000009"><a xlink:href="ipsec__inlines_8h_source.html" target="_top" xlink:title=" ">
<polygon fill="white" stroke="#666666" points="343,-24.5 254,-24.5 254,-5.5 343,-5.5 343,-24.5"/>
<text text-anchor="middle" x="298.5" y="-12.5" font-family="Helvetica,sans-Serif" font-size="10.00">ipsec_inlines.h</text>
</a>
</g>
</g>
<!-- Node4&#45;&gt;Node9 -->
<g id="edge9_Node000004_Node000009" class="edge">
<title>Node4&#45;&gt;Node9</title>
<g id="a_edge9_Node000004_Node000009"><a xlink:title=" ">
<path fill="none" stroke="#63b8ff" d="M732.73,-71.59C648.83,-66.64 487.04,-54.63 351.5,-30 343.63,-28.57 335.22,-26.57 327.47,-24.53"/>
<polygon fill="#63b8ff" stroke="#63b8ff" points="732.63,-75.09 742.81,-72.17 733.03,-68.1 732.63,-75.09"/>
</a>
</g>
</g>
<!-- Node4&#45;&gt;Node10 -->
<g id="edge10_Node000004_Node000010" class="edge">
<title>Node4&#45;&gt;Node10</title>
<g id="a_edge10_Node000004_Node000010"><a xlink:title=" ">
<path fill="none" stroke="#63b8ff" d="M846.35,-65.88C1069.86,-41.49 1130.47,-64.45 1349.5,-30 1358.16,-28.64 1367.43,-26.61 1375.93,-24.52"/>
<polygon fill="#63b8ff" stroke="#63b8ff" points="845.83,-62.42 836.27,-67 846.6,-69.38 845.83,-62.42"/>
</a>
</g>
</g>
<!-- Node11 -->
<g id="Node000011" class="node">
<title>Node11</title>
<g id="a_Node000011"><a xlink:href="packet__vector__inlines_8h.html" target="_top" xlink:title="Packet vector inline functions.">
<polygon fill="white" stroke="#666666" points="492,-24.5 361,-24.5 361,-5.5 492,-5.5 492,-24.5"/>
<text text-anchor="middle" x="426.5" y="-12.5" font-family="Helvetica,sans-Serif" font-size="10.00">packet_vector_inlines.h</text>
</a>
</g>
</g>
<!-- Node4&#45;&gt;Node11 -->
<g id="edge11_Node000004_Node000011" class="edge">
<title>Node4&#45;&gt;Node11</title>
<g id="a_edge11_Node000004_Node000011"><a xlink:title=" ">
<path fill="none" stroke="#63b8ff" d="M732.7,-66.26C674.55,-57.7 581.6,-43.66 501.5,-30 491.58,-28.31 480.93,-26.39 470.88,-24.52"/>
<polygon fill="#63b8ff" stroke="#63b8ff" points="732.39,-69.75 742.79,-67.74 733.4,-62.82 732.39,-69.75"/>
</a>
</g>
</g>
<!-- Node12 -->
<g id="Node000012" class="node">
<title>Node12</title>
<g id="a_Node000012"><a xlink:href="rwlock__recursive__inlines_8h_source.html" target="_top" xlink:title=" ">
<polygon fill="white" stroke="#666666" points="656.5,-24.5 510.5,-24.5 510.5,-5.5 656.5,-5.5 656.5,-24.5"/>
<text text-anchor="middle" x="583.5" y="-12.5" font-family="Helvetica,sans-Serif" font-size="10.00">rwlock_recursive_inlines.h</text>
</a>
</g>
</g>
<!-- Node4&#45;&gt;Node12 -->
<g id="edge12_Node000004_Node000012" class="edge">
<title>Node4&#45;&gt;Node12</title>
<g id="a_edge12_Node000004_Node000012"><a xlink:title=" ">
<path fill="none" stroke="#63b8ff" d="M749.89,-63.25C710.05,-51.94 649.51,-34.75 613.49,-24.52"/>
<polygon fill="#63b8ff" stroke="#63b8ff" points="748.97,-66.63 759.55,-65.99 750.88,-59.89 748.97,-66.63"/>
</a>
</g>
</g>
<!-- Node13 -->
<g id="Node000013" class="node">
<title>Node13</title>
<g id="a_Node000013"><a xlink:href="schedule__inlines_8h_source.html" target="_top" xlink:title=" ">
<polygon fill="white" stroke="#666666" points="782,-24.5 675,-24.5 675,-5.5 782,-5.5 782,-24.5"/>
<text text-anchor="middle" x="728.5" y="-12.5" font-family="Helvetica,sans-Serif" font-size="10.00">schedule_inlines.h</text>
</a>
</g>
</g>
<!-- Node4&#45;&gt;Node13 -->
<g id="edge13_Node000004_Node000013" class="edge">
<title>Node4&#45;&gt;Node13</title>
<g id="a_edge13_Node000004_Node000013"><a xlink:title=" ">
<path fill="none" stroke="#63b8ff" d="M773.24,-58.91C761.8,-47.94 746.92,-33.67 737.54,-24.67"/>
<polygon fill="#63b8ff" stroke="#63b8ff" points="770.86,-61.47 780.5,-65.87 775.7,-56.42 770.86,-61.47"/>
</a>
</g>
</g>
<!-- Node14 -->
<g id="Node000014" class="node">
<title>Node14</title>
<g id="a_Node000014"><a xlink:href="spinlock__recursive__inlines_8h_source.html" target="_top" xlink:title=" ">
<polygon fill="white" stroke="#666666" points="907,-30 800,-30 800,0 907,0 907,-30"/>
<text text-anchor="start" x="808" y="-18" font-family="Helvetica,sans-Serif" font-size="10.00">spinlock_recursive</text>
<text text-anchor="middle" x="853.5" y="-7" font-family="Helvetica,sans-Serif" font-size="10.00">_inlines.h</text>
</a>
</g>
</g>
<!-- Node4&#45;&gt;Node14 -->
<g id="edge14_Node000004_Node000014" class="edge">
<title>Node4&#45;&gt;Node14</title>
<g id="a_edge14_Node000004_Node000014"><a xlink:title=" ">
<path fill="none" stroke="#63b8ff" d="M806.49,-58.97C816.3,-50.01 828.53,-38.82 838.06,-30.11"/>
<polygon fill="#63b8ff" stroke="#63b8ff" points="803.96,-56.54 798.94,-65.87 808.69,-61.7 803.96,-56.54"/>
</a>
</g>
</g>
<!-- Node4&#45;&gt;Node15 -->
<g id="edge15_Node000004_Node000015" class="edge">
<title>Node4&#45;&gt;Node15</title>
<g id="a_edge15_Node000004_Node000015"><a xlink:title=" ">
<path fill="none" stroke="#63b8ff" d="M846.46,-65.77C974.02,-48.45 1009.07,-53.9 1132.5,-30 1140.16,-28.52 1148.35,-26.55 1155.95,-24.55"/>
<polygon fill="#63b8ff" stroke="#63b8ff" points="845.72,-62.34 836.29,-67.17 846.68,-69.28 845.72,-62.34"/>
</a>
</g>
</g>
<!-- Node16&#45;&gt;Node2 -->
<g id="edge18_Node000016_Node000002" class="edge">
<title>Node16&#45;&gt;Node2</title>
<g id="a_edge18_Node000016_Node000002"><a xlink:title=" ">
<path fill="none" stroke="#63b8ff" d="M1322.89,-220.67C1316.51,-174.71 1300.34,-58.14 1295.74,-24.94"/>
<polygon fill="#63b8ff" stroke="#63b8ff" points="1319.44,-221.31 1324.28,-230.74 1326.38,-220.35 1319.44,-221.31"/>
</a>
</g>
</g>
<!-- Node16&#45;&gt;Node10 -->
<g id="edge19_Node000016_Node000010" class="edge">
<title>Node16&#45;&gt;Node10</title>
<g id="a_edge19_Node000016_Node000010"><a xlink:title=" ">
<path fill="none" stroke="#63b8ff" d="M1332.11,-221.25C1348.62,-175.7 1391.18,-58.28 1403.26,-24.94"/>
<polygon fill="#63b8ff" stroke="#63b8ff" points="1328.79,-220.14 1328.68,-230.74 1335.37,-222.53 1328.79,-220.14"/>
</a>
</g>
</g>
<!-- Node16&#45;&gt;Node17 -->
<g id="edge20_Node000016_Node000017" class="edge">
<title>Node16&#45;&gt;Node17</title>
<g id="a_edge20_Node000016_Node000017"><a xlink:title=" ">
<path fill="none" stroke="#63b8ff" d="M1306.38,-224.6C1294.2,-215.11 1278.84,-203.13 1268.62,-195.17"/>
<polygon fill="#63b8ff" stroke="#63b8ff" points="1304.54,-227.6 1314.57,-230.98 1308.84,-222.08 1304.54,-227.6"/>
</a>
</g>
</g>
<!-- Node19 -->
<g id="Node000019" class="node">
<title>Node19</title>
<g id="a_Node000019"><a xlink:href="init_8h.html" target="_top" xlink:title="ODP initialization.">
<polygon fill="white" stroke="#666666" points="982,-195 941,-195 941,-176 982,-176 982,-195"/>
<text text-anchor="middle" x="961.5" y="-183" font-family="Helvetica,sans-Serif" font-size="10.00">init.h</text>
</a>
</g>
</g>
<!-- Node18&#45;&gt;Node19 -->
<g id="edge22_Node000018_Node000019" class="edge">
<title>Node18&#45;&gt;Node19</title>
<g id="a_edge22_Node000018_Node000019"><a xlink:title=" ">
<path fill="none" stroke="#63b8ff" d="M1020.99,-225.42C1006.29,-215.81 987.28,-203.37 974.75,-195.17"/>
<polygon fill="#63b8ff" stroke="#63b8ff" points="1019.2,-228.44 1029.49,-230.98 1023.03,-222.58 1019.2,-228.44"/>
</a>
</g>
</g>
<!-- Node19&#45;&gt;Node4 -->
<g id="edge23_Node000019_Node000004" class="edge">
<title>Node19&#45;&gt;Node4</title>
<g id="a_edge23_Node000019_Node000004"><a xlink:title=" ">
<path fill="none" stroke="#63b8ff" d="M930.63,-180.9C900.87,-176.05 855.98,-164.94 825.5,-140 807.45,-125.24 796.75,-98.89 792.16,-85.24"/>
<polygon fill="#63b8ff" stroke="#63b8ff" points="930.44,-184.42 940.85,-182.42 931.47,-177.49 930.44,-184.42"/>
</a>
</g>
</g>
<!-- Node20 -->
<g id="Node000020" class="node">
<title>Node20</title>
<g id="a_Node000020"><a xlink:href="spec_2shared__memory_8h.html" target="_top" xlink:title="ODP shared memory.">
<polygon fill="white" stroke="#666666" points="1078.5,-140 974.5,-140 974.5,-121 1078.5,-121 1078.5,-140"/>
<text text-anchor="middle" x="1026.5" y="-128" font-family="Helvetica,sans-Serif" font-size="10.00">shared_memory.h</text>
</a>
</g>
</g>
<!-- Node19&#45;&gt;Node20 -->
<g id="edge24_Node000019_Node000020" class="edge">
<title>Node19&#45;&gt;Node20</title>
<g id="a_edge24_Node000019_Node000020"><a xlink:title=" ">
<path fill="none" stroke="#63b8ff" d="M979.77,-169.6C991.42,-160.11 1006.1,-148.13 1015.87,-140.17"/>
<polygon fill="#63b8ff" stroke="#63b8ff" points="977.48,-166.95 971.94,-175.98 981.91,-172.38 977.48,-166.95"/>
</a>
</g>
</g>
<!-- Node22 -->
<g id="Node000022" class="node">
<title>Node22</title>
<g id="a_Node000022"><a xlink:href="thread__inline__types_8h_source.html" target="_top" xlink:title=" ">
<polygon fill="white" stroke="#666666" points="956.5,-140 834.5,-140 834.5,-121 956.5,-121 956.5,-140"/>
<text text-anchor="middle" x="895.5" y="-128" font-family="Helvetica,sans-Serif" font-size="10.00">thread_inline_types.h</text>
</a>
</g>
</g>
<!-- Node19&#45;&gt;Node22 -->
<g id="edge26_Node000019_Node000022" class="edge">
<title>Node19&#45;&gt;Node22</title>
<g id="a_edge26_Node000019_Node000022"><a xlink:title=" ">
<path fill="none" stroke="#63b8ff" d="M942.95,-169.6C931.12,-160.11 916.21,-148.13 906.3,-140.17"/>
<polygon fill="#63b8ff" stroke="#63b8ff" points="940.91,-172.45 950.9,-175.98 945.29,-166.99 940.91,-172.45"/>
</a>
</g>
</g>
<!-- Node21 -->
<g id="Node000021" class="node">
<title>Node21</title>
<g id="a_Node000021"><a xlink:href="shared__memory_8h.html" target="_top" xlink:title="ODP shared memory.">
<polygon fill="white" stroke="#666666" points="1078.5,-85 974.5,-85 974.5,-66 1078.5,-66 1078.5,-85"/>
<text text-anchor="middle" x="1026.5" y="-73" font-family="Helvetica,sans-Serif" font-size="10.00">shared_memory.h</text>
</a>
</g>
</g>
<!-- Node20&#45;&gt;Node21 -->
<g id="edge25_Node000020_Node000021" class="edge">
<title>Node20&#45;&gt;Node21</title>
<g id="a_edge25_Node000020_Node000021"><a xlink:title=" ">
<path fill="none" stroke="#63b8ff" d="M1026.5,-110.66C1026.5,-101.93 1026.5,-91.99 1026.5,-85.09"/>
<polygon fill="#63b8ff" stroke="#63b8ff" points="1023,-110.75 1026.5,-120.75 1030,-110.75 1023,-110.75"/>
</a>
</g>
</g>
<!-- Node22&#45;&gt;Node4 -->
<g id="edge27_Node000022_Node000004" class="edge">
<title>Node22&#45;&gt;Node4</title>
<g id="a_edge27_Node000022_Node000004"><a xlink:title=" ">
<path fill="none" stroke="#63b8ff" d="M869.5,-116.5C850,-106.75 823.85,-93.68 806.84,-85.17"/>
<polygon fill="#63b8ff" stroke="#63b8ff" points="867.96,-119.64 878.47,-120.98 871.09,-113.38 867.96,-119.64"/>
</a>
</g>
</g>
<!-- Node23 -->
<g id="Node000023" class="node">
<title>Node23</title>
<g id="a_Node000023"><a xlink:href="thread__inlines_8h_source.html" target="_top" xlink:title=" ">
<polygon fill="white" stroke="#666666" points="949,-85 854,-85 854,-66 949,-66 949,-85"/>
<text text-anchor="middle" x="901.5" y="-73" font-family="Helvetica,sans-Serif" font-size="10.00">thread_inlines.h</text>
</a>
</g>
</g>
<!-- Node22&#45;&gt;Node23 -->
<g id="edge28_Node000022_Node000023" class="edge">
<title>Node22&#45;&gt;Node23</title>
<g id="a_edge28_Node000022_Node000023"><a xlink:title=" ">
<path fill="none" stroke="#63b8ff" d="M897.63,-110.66C898.62,-101.93 899.75,-91.99 900.53,-85.09"/>
<polygon fill="#63b8ff" stroke="#63b8ff" points="894.14,-110.42 896.49,-120.75 901.09,-111.21 894.14,-110.42"/>
</a>
</g>
</g>
</g>
</svg>
