<?xml version="1.0" encoding="UTF-8" standalone="no"?>
<!DOCTYPE svg PUBLIC "-//W3C//DTD SVG 1.1//EN"
 "http://www.w3.org/Graphics/SVG/1.1/DTD/svg11.dtd">
<!-- Generated by graphviz version 2.43.0 (0)
 -->
<!-- Title: hints.h Pages: 1 -->
<svg width="1513pt" height="319pt"
 viewBox="0.00 0.00 1512.50 319.00" xmlns="http://www.w3.org/2000/svg" xmlns:xlink="http://www.w3.org/1999/xlink">
<g id="graph0" class="graph" transform="scale(1 1) rotate(0) translate(4 315)">
<title>hints.h</title>
<polygon fill="white" stroke="transparent" points="-4,4 -4,-315 1508.5,-315 1508.5,4 -4,4"/>
<!-- Node1 -->
<g id="node1" class="node">
<title>Node1</title>
<g id="a_node1"><a xlink:title="ODP compiler hints.">
<polygon fill="#bfbfbf" stroke="black" points="1071.5,-291.5 1071.5,-310.5 1121.5,-310.5 1121.5,-291.5 1071.5,-291.5"/>
<text text-anchor="middle" x="1096.5" y="-298.5" font-family="Helvetica,sans-Serif" font-size="10.00">hints.h</text>
</a>
</g>
</g>
<!-- Node2 -->
<g id="node2" class="node">
<title>Node2</title>
<g id="a_node2"><a xlink:href="spec_2init_8h.html" target="_top" xlink:title=" ">
<polygon fill="white" stroke="black" points="884,-235.5 884,-254.5 925,-254.5 925,-235.5 884,-235.5"/>
<text text-anchor="middle" x="904.5" y="-242.5" font-family="Helvetica,sans-Serif" font-size="10.00">init.h</text>
</a>
</g>
</g>
<!-- Node1&#45;&gt;Node2 -->
<g id="edge1" class="edge">
<title>Node1&#45;&gt;Node2</title>
<path fill="none" stroke="midnightblue" d="M1061.57,-290.18C1021.72,-278.97 957.86,-261.01 925.2,-251.82"/>
<polygon fill="midnightblue" stroke="midnightblue" points="1060.83,-293.6 1071.4,-292.94 1062.72,-286.86 1060.83,-293.6"/>
</g>
<!-- Node6 -->
<g id="node6" class="node">
<title>Node6</title>
<g id="a_node6"><a xlink:href="debug__inlines_8h.html" target="_top" xlink:title="ODP Debug inlines.">
<polygon fill="white" stroke="black" points="598,-67.5 598,-86.5 691,-86.5 691,-67.5 598,-67.5"/>
<text text-anchor="middle" x="644.5" y="-74.5" font-family="Helvetica,sans-Serif" font-size="10.00">debug_inlines.h</text>
</a>
</g>
</g>
<!-- Node1&#45;&gt;Node6 -->
<g id="edge22" class="edge">
<title>Node1&#45;&gt;Node6</title>
<path fill="none" stroke="midnightblue" d="M1061.36,-296.01C1017.04,-290.27 938.96,-277.77 875.5,-255 775.57,-219.15 732.13,-224.84 664.5,-143 650.66,-126.25 646.38,-100 645.07,-86.56"/>
<polygon fill="midnightblue" stroke="midnightblue" points="1060.98,-299.49 1071.34,-297.26 1061.86,-292.54 1060.98,-299.49"/>
</g>
<!-- Node7 -->
<g id="node7" class="node">
<title>Node7</title>
<g id="a_node7"><a xlink:href="buffer__inlines_8h_source.html" target="_top" xlink:title=" ">
<polygon fill="white" stroke="black" points="1103.5,-6 1103.5,-25 1195.5,-25 1195.5,-6 1103.5,-6"/>
<text text-anchor="middle" x="1149.5" y="-13" font-family="Helvetica,sans-Serif" font-size="10.00">buffer_inlines.h</text>
</a>
</g>
</g>
<!-- Node1&#45;&gt;Node7 -->
<g id="edge20" class="edge">
<title>Node1&#45;&gt;Node7</title>
<path fill="none" stroke="midnightblue" d="M1082.8,-283.21C1067.39,-262.58 1044.5,-225.88 1044.5,-190 1044.5,-190 1044.5,-190 1044.5,-132 1044.5,-80.24 1102.95,-41.42 1132.63,-25.05"/>
<polygon fill="midnightblue" stroke="midnightblue" points="1080.15,-285.5 1089.05,-291.26 1085.68,-281.21 1080.15,-285.5"/>
</g>
<!-- Node9 -->
<g id="node9" class="node">
<title>Node9</title>
<g id="a_node9"><a xlink:href="dma__inlines_8h_source.html" target="_top" xlink:title=" ">
<polygon fill="white" stroke="black" points="893,-6 893,-25 978,-25 978,-6 893,-6"/>
<text text-anchor="middle" x="935.5" y="-13" font-family="Helvetica,sans-Serif" font-size="10.00">dma_inlines.h</text>
</a>
</g>
</g>
<!-- Node1&#45;&gt;Node9 -->
<g id="edge23" class="edge">
<title>Node1&#45;&gt;Node9</title>
<path fill="none" stroke="midnightblue" d="M1061.83,-287.52C1023.92,-271.39 968.5,-239.36 968.5,-190 968.5,-190 968.5,-190 968.5,-132 968.5,-90.71 948.76,-44.2 939.81,-25.24"/>
<polygon fill="midnightblue" stroke="midnightblue" points="1060.93,-290.94 1071.52,-291.47 1063.57,-284.45 1060.93,-290.94"/>
</g>
<!-- Node12 -->
<g id="node12" class="node">
<title>Node12</title>
<g id="a_node12"><a xlink:href="packet__inlines_8h.html" target="_top" xlink:title="ODP packet inline functions.">
<polygon fill="white" stroke="black" points="1214,-6 1214,-25 1309,-25 1309,-6 1214,-6"/>
<text text-anchor="middle" x="1261.5" y="-13" font-family="Helvetica,sans-Serif" font-size="10.00">packet_inlines.h</text>
</a>
</g>
</g>
<!-- Node1&#45;&gt;Node12 -->
<g id="edge28" class="edge">
<title>Node1&#45;&gt;Node12</title>
<path fill="none" stroke="midnightblue" d="M1132.09,-297.21C1193.1,-291.86 1314.49,-278.55 1349.5,-255 1377.84,-235.94 1390.5,-224.16 1390.5,-190 1390.5,-190 1390.5,-190 1390.5,-132 1390.5,-75.94 1322.04,-40.26 1284.86,-25.02"/>
<polygon fill="midnightblue" stroke="midnightblue" points="1131.45,-293.75 1121.78,-298.09 1132.05,-300.73 1131.45,-293.75"/>
</g>
<!-- Node17 -->
<g id="node17" class="node">
<title>Node17</title>
<g id="a_node17"><a xlink:href="timer__inlines_8h_source.html" target="_top" xlink:title=" ">
<polygon fill="white" stroke="black" points="996,-6 996,-25 1085,-25 1085,-6 996,-6"/>
<text text-anchor="middle" x="1040.5" y="-13" font-family="Helvetica,sans-Serif" font-size="10.00">timer_inlines.h</text>
</a>
</g>
</g>
<!-- Node1&#45;&gt;Node17 -->
<g id="edge31" class="edge">
<title>Node1&#45;&gt;Node17</title>
<path fill="none" stroke="midnightblue" d="M1073.6,-285.82C1046.94,-267.34 1006.5,-232.34 1006.5,-190 1006.5,-190 1006.5,-190 1006.5,-132 1006.5,-90.61 1026.84,-44.15 1036.06,-25.23"/>
<polygon fill="midnightblue" stroke="midnightblue" points="1071.78,-288.81 1082.04,-291.44 1075.66,-282.98 1071.78,-288.81"/>
</g>
<!-- Node20 -->
<g id="node20" class="node">
<title>Node20</title>
<g id="a_node20"><a xlink:href="cpu__inlines_8h_source.html" target="_top" xlink:title=" ">
<polygon fill="white" stroke="black" points="1244.5,-235.5 1244.5,-254.5 1324.5,-254.5 1324.5,-235.5 1244.5,-235.5"/>
<text text-anchor="middle" x="1284.5" y="-242.5" font-family="Helvetica,sans-Serif" font-size="10.00">cpu_inlines.h</text>
</a>
</g>
</g>
<!-- Node1&#45;&gt;Node20 -->
<g id="edge21" class="edge">
<title>Node1&#45;&gt;Node20</title>
<path fill="none" stroke="midnightblue" d="M1131.77,-289.87C1167.19,-279.69 1221.2,-264.18 1254.59,-254.59"/>
<polygon fill="midnightblue" stroke="midnightblue" points="1130.5,-286.59 1121.85,-292.72 1132.43,-293.32 1130.5,-286.59"/>
</g>
<!-- Node21 -->
<g id="node21" class="node">
<title>Node21</title>
<g id="a_node21"><a xlink:href="event__validation__external_8h.html" target="_top" xlink:title="ODP event validation.">
<polygon fill="white" stroke="black" points="1073,-235.5 1073,-254.5 1226,-254.5 1226,-235.5 1073,-235.5"/>
<text text-anchor="middle" x="1149.5" y="-242.5" font-family="Helvetica,sans-Serif" font-size="10.00">event_validation_external.h</text>
</a>
</g>
</g>
<!-- Node1&#45;&gt;Node21 -->
<g id="edge24" class="edge">
<title>Node1&#45;&gt;Node21</title>
<path fill="none" stroke="midnightblue" d="M1112.48,-283.72C1121.82,-274.2 1133.25,-262.56 1140.91,-254.75"/>
<polygon fill="midnightblue" stroke="midnightblue" points="1109.76,-281.49 1105.25,-291.08 1114.75,-286.4 1109.76,-281.49"/>
</g>
<!-- Node22 -->
<g id="node22" class="node">
<title>Node22</title>
<g id="a_node22"><a xlink:href="queue__inlines_8h_source.html" target="_top" xlink:title=" ">
<polygon fill="white" stroke="black" points="1256,-179.5 1256,-198.5 1349,-198.5 1349,-179.5 1256,-179.5"/>
<text text-anchor="middle" x="1302.5" y="-186.5" font-family="Helvetica,sans-Serif" font-size="10.00">queue_inlines.h</text>
</a>
</g>
</g>
<!-- Node1&#45;&gt;Node22 -->
<g id="edge29" class="edge">
<title>Node1&#45;&gt;Node22</title>
<path fill="none" stroke="midnightblue" d="M1131.83,-298.61C1191.52,-295.45 1308.3,-285.43 1333.5,-255 1348.01,-237.47 1326.22,-212.01 1312.41,-198.76"/>
<polygon fill="midnightblue" stroke="midnightblue" points="1131.54,-295.12 1121.73,-299.11 1131.89,-302.12 1131.54,-295.12"/>
</g>
<!-- Node23 -->
<g id="node23" class="node">
<title>Node23</title>
<g id="a_node23"><a xlink:href="time__inlines_8h_source.html" target="_top" xlink:title=" ">
<polygon fill="white" stroke="black" points="1418.5,-235.5 1418.5,-254.5 1504.5,-254.5 1504.5,-235.5 1418.5,-235.5"/>
<text text-anchor="middle" x="1461.5" y="-242.5" font-family="Helvetica,sans-Serif" font-size="10.00">time_inlines.h</text>
</a>
</g>
</g>
<!-- Node1&#45;&gt;Node23 -->
<g id="edge30" class="edge">
<title>Node1&#45;&gt;Node23</title>
<path fill="none" stroke="midnightblue" d="M1131.64,-295C1188.85,-286.83 1305.67,-270.02 1404.5,-255 1408.96,-254.32 1413.61,-253.61 1418.25,-252.88"/>
<polygon fill="midnightblue" stroke="midnightblue" points="1131.07,-291.55 1121.67,-296.42 1132.06,-298.48 1131.07,-291.55"/>
</g>
<!-- Node3 -->
<g id="node3" class="node">
<title>Node3</title>
<g id="a_node3"><a xlink:href="init_8h.html" target="_top" xlink:title="ODP initialization.">
<polygon fill="white" stroke="black" points="803,-179.5 803,-198.5 844,-198.5 844,-179.5 803,-179.5"/>
<text text-anchor="middle" x="823.5" y="-186.5" font-family="Helvetica,sans-Serif" font-size="10.00">init.h</text>
</a>
</g>
</g>
<!-- Node2&#45;&gt;Node3 -->
<g id="edge2" class="edge">
<title>Node2&#45;&gt;Node3</title>
<path fill="none" stroke="midnightblue" d="M882.93,-229.62C868.14,-219.76 848.99,-206.99 836.48,-198.65"/>
<polygon fill="midnightblue" stroke="midnightblue" points="881.22,-232.69 891.49,-235.32 885.11,-226.86 881.22,-232.69"/>
</g>
<!-- Node4 -->
<g id="node4" class="node">
<title>Node4</title>
<g id="a_node4"><a xlink:href="spec_2shared__memory_8h.html" target="_top" xlink:title="ODP shared memory.">
<polygon fill="white" stroke="black" points="836.5,-123.5 836.5,-142.5 940.5,-142.5 940.5,-123.5 836.5,-123.5"/>
<text text-anchor="middle" x="888.5" y="-130.5" font-family="Helvetica,sans-Serif" font-size="10.00">shared_memory.h</text>
</a>
</g>
</g>
<!-- Node3&#45;&gt;Node4 -->
<g id="edge3" class="edge">
<title>Node3&#45;&gt;Node4</title>
<path fill="none" stroke="midnightblue" d="M841.77,-172.82C853.42,-163.15 868.1,-150.95 877.87,-142.83"/>
<polygon fill="midnightblue" stroke="midnightblue" points="839.4,-170.24 833.94,-179.32 843.87,-175.63 839.4,-170.24"/>
</g>
<!-- Node3&#45;&gt;Node6 -->
<g id="edge5" class="edge">
<title>Node3&#45;&gt;Node6</title>
<path fill="none" stroke="midnightblue" d="M792.49,-183.72C763,-178.37 718.64,-166.82 687.5,-143 667.73,-127.87 654.16,-100.91 648.1,-86.94"/>
<polygon fill="midnightblue" stroke="midnightblue" points="792.19,-187.22 802.63,-185.43 793.35,-180.32 792.19,-187.22"/>
</g>
<!-- Node18 -->
<g id="node18" class="node">
<title>Node18</title>
<g id="a_node18"><a xlink:href="thread__inline__types_8h_source.html" target="_top" xlink:title=" ">
<polygon fill="white" stroke="black" points="696.5,-123.5 696.5,-142.5 818.5,-142.5 818.5,-123.5 696.5,-123.5"/>
<text text-anchor="middle" x="757.5" y="-130.5" font-family="Helvetica,sans-Serif" font-size="10.00">thread_inline_types.h</text>
</a>
</g>
</g>
<!-- Node3&#45;&gt;Node18 -->
<g id="edge17" class="edge">
<title>Node3&#45;&gt;Node18</title>
<path fill="none" stroke="midnightblue" d="M804.95,-172.82C793.12,-163.15 778.21,-150.95 768.3,-142.83"/>
<polygon fill="midnightblue" stroke="midnightblue" points="802.94,-175.7 812.9,-179.32 807.37,-170.28 802.94,-175.7"/>
</g>
<!-- Node5 -->
<g id="node5" class="node">
<title>Node5</title>
<g id="a_node5"><a xlink:href="shared__memory_8h.html" target="_top" xlink:title="ODP shared memory.">
<polygon fill="white" stroke="black" points="836.5,-67.5 836.5,-86.5 940.5,-86.5 940.5,-67.5 836.5,-67.5"/>
<text text-anchor="middle" x="888.5" y="-74.5" font-family="Helvetica,sans-Serif" font-size="10.00">shared_memory.h</text>
</a>
</g>
</g>
<!-- Node4&#45;&gt;Node5 -->
<g id="edge4" class="edge">
<title>Node4&#45;&gt;Node5</title>
<path fill="none" stroke="midnightblue" d="M888.5,-112.8C888.5,-103.91 888.5,-93.78 888.5,-86.75"/>
<polygon fill="midnightblue" stroke="midnightblue" points="885,-113.08 888.5,-123.08 892,-113.08 885,-113.08"/>
</g>
<!-- Node6&#45;&gt;Node7 -->
<g id="edge6" class="edge">
<title>Node6&#45;&gt;Node7</title>
<path fill="none" stroke="midnightblue" d="M701.18,-67.04C701.29,-67.03 701.39,-67.01 701.5,-67 875.55,-45.31 921.77,-61.46 1094.5,-31 1103.16,-29.47 1112.44,-27.26 1120.87,-25.01"/>
<polygon fill="midnightblue" stroke="midnightblue" points="700.57,-63.59 691.13,-68.38 701.5,-70.53 700.57,-63.59"/>
</g>
<!-- Node8 -->
<g id="node8" class="node">
<title>Node8</title>
<g id="a_node8"><a xlink:href="crypto__inlines_8h_source.html" target="_top" xlink:title=" ">
<polygon fill="white" stroke="black" points="250.5,-6 250.5,-25 344.5,-25 344.5,-6 250.5,-6"/>
<text text-anchor="middle" x="297.5" y="-13" font-family="Helvetica,sans-Serif" font-size="10.00">crypto_inlines.h</text>
</a>
</g>
</g>
<!-- Node6&#45;&gt;Node8 -->
<g id="edge7" class="edge">
<title>Node6&#45;&gt;Node8</title>
<path fill="none" stroke="midnightblue" d="M587.67,-68.92C528.79,-61.19 434.27,-47.66 353.5,-31 345.24,-29.3 336.37,-27.15 328.18,-25.03"/>
<polygon fill="midnightblue" stroke="midnightblue" points="587.51,-72.43 597.88,-70.25 588.41,-65.49 587.51,-72.43"/>
</g>
<!-- Node6&#45;&gt;Node9 -->
<g id="edge8" class="edge">
<title>Node6&#45;&gt;Node9</title>
<path fill="none" stroke="midnightblue" d="M701.02,-66.77C749.63,-58.49 821.5,-45.45 883.5,-31 890.98,-29.26 899.01,-27.14 906.46,-25.07"/>
<polygon fill="midnightblue" stroke="midnightblue" points="700.29,-63.34 691.01,-68.46 701.45,-70.24 700.29,-63.34"/>
</g>
<!-- Node10 -->
<g id="node10" class="node">
<title>Node10</title>
<g id="a_node10"><a xlink:href="event__inlines_8h_source.html" target="_top" xlink:title=" ">
<polygon fill="white" stroke="black" points="363,-6 363,-25 454,-25 454,-6 363,-6"/>
<text text-anchor="middle" x="408.5" y="-13" font-family="Helvetica,sans-Serif" font-size="10.00">event_inlines.h</text>
</a>
</g>
</g>
<!-- Node6&#45;&gt;Node10 -->
<g id="edge9" class="edge">
<title>Node6&#45;&gt;Node10</title>
<path fill="none" stroke="midnightblue" d="M599.28,-65.08C562.41,-56.12 509.03,-43 462.5,-31 455.17,-29.11 447.29,-27.02 439.88,-25.04"/>
<polygon fill="midnightblue" stroke="midnightblue" points="598.67,-68.54 609.22,-67.5 600.33,-61.74 598.67,-68.54"/>
</g>
<!-- Node11 -->
<g id="node11" class="node">
<title>Node11</title>
<g id="a_node11"><a xlink:href="ipsec__inlines_8h_source.html" target="_top" xlink:title=" ">
<polygon fill="white" stroke="black" points="472,-6 472,-25 561,-25 561,-6 472,-6"/>
<text text-anchor="middle" x="516.5" y="-13" font-family="Helvetica,sans-Serif" font-size="10.00">ipsec_inlines.h</text>
</a>
</g>
</g>
<!-- Node6&#45;&gt;Node11 -->
<g id="edge10" class="edge">
<title>Node6&#45;&gt;Node11</title>
<path fill="none" stroke="midnightblue" d="M616.91,-63.17C592.07,-51.63 556.27,-34.99 534.81,-25.01"/>
<polygon fill="midnightblue" stroke="midnightblue" points="615.62,-66.43 626.16,-67.48 618.57,-60.09 615.62,-66.43"/>
</g>
<!-- Node6&#45;&gt;Node12 -->
<g id="edge11" class="edge">
<title>Node6&#45;&gt;Node12</title>
<path fill="none" stroke="midnightblue" d="M701.18,-67.04C701.29,-67.02 701.39,-67.01 701.5,-67 924.17,-41.5 983.25,-66.77 1204.5,-31 1213.57,-29.53 1223.31,-27.31 1232.13,-25.03"/>
<polygon fill="midnightblue" stroke="midnightblue" points="700.6,-63.58 691.12,-68.31 701.48,-70.53 700.6,-63.58"/>
</g>
<!-- Node13 -->
<g id="node13" class="node">
<title>Node13</title>
<g id="a_node13"><a xlink:href="packet__vector__inlines_8h.html" target="_top" xlink:title="Packet vector inline functions.">
<polygon fill="white" stroke="black" points="579,-6 579,-25 710,-25 710,-6 579,-6"/>
<text text-anchor="middle" x="644.5" y="-13" font-family="Helvetica,sans-Serif" font-size="10.00">packet_vector_inlines.h</text>
</a>
</g>
</g>
<!-- Node6&#45;&gt;Node13 -->
<g id="edge12" class="edge">
<title>Node6&#45;&gt;Node13</title>
<path fill="none" stroke="midnightblue" d="M644.5,-57.32C644.5,-46.5 644.5,-33.4 644.5,-25.01"/>
<polygon fill="midnightblue" stroke="midnightblue" points="641,-57.48 644.5,-67.48 648,-57.48 641,-57.48"/>
</g>
<!-- Node14 -->
<g id="node14" class="node">
<title>Node14</title>
<g id="a_node14"><a xlink:href="rwlock__recursive__inlines_8h_source.html" target="_top" xlink:title=" ">
<polygon fill="white" stroke="black" points="728.5,-6 728.5,-25 874.5,-25 874.5,-6 728.5,-6"/>
<text text-anchor="middle" x="801.5" y="-13" font-family="Helvetica,sans-Serif" font-size="10.00">rwlock_recursive_inlines.h</text>
</a>
</g>
</g>
<!-- Node6&#45;&gt;Node14 -->
<g id="edge13" class="edge">
<title>Node6&#45;&gt;Node14</title>
<path fill="none" stroke="midnightblue" d="M676.74,-63.78C707.25,-52.22 752.25,-35.16 779.05,-25.01"/>
<polygon fill="midnightblue" stroke="midnightblue" points="675.1,-60.66 666.99,-67.48 677.59,-67.2 675.1,-60.66"/>
</g>
<!-- Node15 -->
<g id="node15" class="node">
<title>Node15</title>
<g id="a_node15"><a xlink:href="schedule__inlines_8h_source.html" target="_top" xlink:title=" ">
<polygon fill="white" stroke="black" points="0,-6 0,-25 107,-25 107,-6 0,-6"/>
<text text-anchor="middle" x="53.5" y="-13" font-family="Helvetica,sans-Serif" font-size="10.00">schedule_inlines.h</text>
</a>
</g>
</g>
<!-- Node6&#45;&gt;Node15 -->
<g id="edge14" class="edge">
<title>Node6&#45;&gt;Node15</title>
<path fill="none" stroke="midnightblue" d="M587.68,-73.87C490.45,-69.62 286.12,-58.06 115.5,-31 105.89,-29.48 95.56,-27.29 86.15,-25.07"/>
<polygon fill="midnightblue" stroke="midnightblue" points="587.74,-77.37 597.88,-74.3 588.04,-70.38 587.74,-77.37"/>
</g>
<!-- Node16 -->
<g id="node16" class="node">
<title>Node16</title>
<g id="a_node16"><a xlink:href="spinlock__recursive__inlines_8h_source.html" target="_top" xlink:title=" ">
<polygon fill="white" stroke="black" points="125,-0.5 125,-30.5 232,-30.5 232,-0.5 125,-0.5"/>
<text text-anchor="start" x="133" y="-18.5" font-family="Helvetica,sans-Serif" font-size="10.00">spinlock_recursive</text>
<text text-anchor="middle" x="178.5" y="-7.5" font-family="Helvetica,sans-Serif" font-size="10.00">_inlines.h</text>
</a>
</g>
</g>
<!-- Node6&#45;&gt;Node16 -->
<g id="edge15" class="edge">
<title>Node6&#45;&gt;Node16</title>
<path fill="none" stroke="midnightblue" d="M587.58,-71.72C509.26,-65.36 364.04,-51.87 241.5,-31 238.4,-30.47 235.23,-29.89 232.03,-29.26"/>
<polygon fill="midnightblue" stroke="midnightblue" points="587.47,-75.22 597.72,-72.53 588.03,-68.24 587.47,-75.22"/>
</g>
<!-- Node6&#45;&gt;Node17 -->
<g id="edge16" class="edge">
<title>Node6&#45;&gt;Node17</title>
<path fill="none" stroke="midnightblue" d="M701.18,-67.04C701.29,-67.03 701.39,-67.01 701.5,-67 828.34,-49.01 861.84,-55.97 987.5,-31 995.55,-29.4 1004.17,-27.24 1012.07,-25.08"/>
<polygon fill="midnightblue" stroke="midnightblue" points="700.53,-63.6 691.14,-68.51 701.54,-70.53 700.53,-63.6"/>
</g>
<!-- Node18&#45;&gt;Node6 -->
<g id="edge18" class="edge">
<title>Node18&#45;&gt;Node6</title>
<path fill="none" stroke="midnightblue" d="M730.5,-119.1C709.39,-109.01 680.64,-95.27 662.32,-86.52"/>
<polygon fill="midnightblue" stroke="midnightblue" points="729.06,-122.29 739.59,-123.44 732.08,-115.97 729.06,-122.29"/>
</g>
<!-- Node19 -->
<g id="node19" class="node">
<title>Node19</title>
<g id="a_node19"><a xlink:href="thread__inlines_8h_source.html" target="_top" xlink:title=" ">
<polygon fill="white" stroke="black" points="710,-67.5 710,-86.5 805,-86.5 805,-67.5 710,-67.5"/>
<text text-anchor="middle" x="757.5" y="-74.5" font-family="Helvetica,sans-Serif" font-size="10.00">thread_inlines.h</text>
</a>
</g>
</g>
<!-- Node18&#45;&gt;Node19 -->
<g id="edge19" class="edge">
<title>Node18&#45;&gt;Node19</title>
<path fill="none" stroke="midnightblue" d="M757.5,-112.8C757.5,-103.91 757.5,-93.78 757.5,-86.75"/>
<polygon fill="midnightblue" stroke="midnightblue" points="754,-113.08 757.5,-123.08 761,-113.08 754,-113.08"/>
</g>
<!-- Node21&#45;&gt;Node7 -->
<g id="edge25" class="edge">
<title>Node21&#45;&gt;Node7</title>
<path fill="none" stroke="midnightblue" d="M1149.5,-225.14C1149.5,-178.36 1149.5,-58.39 1149.5,-25.15"/>
<polygon fill="midnightblue" stroke="midnightblue" points="1146,-225.36 1149.5,-235.36 1153,-225.36 1146,-225.36"/>
</g>
<!-- Node21&#45;&gt;Node12 -->
<g id="edge26" class="edge">
<title>Node21&#45;&gt;Node12</title>
<path fill="none" stroke="midnightblue" d="M1158.21,-226.31C1180.81,-180.4 1240.74,-58.67 1257.24,-25.15"/>
<polygon fill="midnightblue" stroke="midnightblue" points="1155.03,-224.84 1153.75,-235.36 1161.31,-227.93 1155.03,-224.84"/>
</g>
<!-- Node21&#45;&gt;Node22 -->
<g id="edge27" class="edge">
<title>Node21&#45;&gt;Node22</title>
<path fill="none" stroke="midnightblue" d="M1183.39,-232.04C1212.18,-221.88 1252.79,-207.55 1278.37,-198.52"/>
<polygon fill="midnightblue" stroke="midnightblue" points="1182.01,-228.81 1173.74,-235.44 1184.34,-235.42 1182.01,-228.81"/>
</g>
</g>
</svg>
