<?xml version="1.0" encoding="UTF-8" standalone="no"?>
<!DOCTYPE svg PUBLIC "-//W3C//DTD SVG 1.1//EN"
 "http://www.w3.org/Graphics/SVG/1.1/DTD/svg11.dtd">
<!-- Generated by graphviz version 2.43.0 (0)
 -->
<!-- Title: packet_types.h Pages: 1 -->
<svg width="1355pt" height="753pt"
 viewBox="0.00 0.00 1355.00 753.00" xmlns="http://www.w3.org/2000/svg" xmlns:xlink="http://www.w3.org/1999/xlink">
<g id="graph0" class="graph" transform="scale(1 1) rotate(0) translate(4 749)">
<title>packet_types.h</title>
<!-- Node1 -->
<g id="Node000001" class="node">
<title>Node1</title>
<g id="a_Node000001"><a xlink:title="ODP packet.">
<polygon fill="#999999" stroke="#666666" points="222,-745 132,-745 132,-726 222,-726 222,-745"/>
<text text-anchor="middle" x="177" y="-733" font-family="Helvetica,sans-Serif" font-size="10.00">packet_types.h</text>
</a>
</g>
</g>
<!-- Node2 -->
<g id="Node000002" class="node">
<title>Node2</title>
<g id="a_Node000002"><a xlink:title=" ">
<polygon fill="#e0e0e0" stroke="#999999" points="106,-690 0,-690 0,-660 106,-660 106,-690"/>
<text text-anchor="start" x="8" y="-678" font-family="Helvetica,sans-Serif" font-size="10.00">odp/api/abi/packet</text>
<text text-anchor="middle" x="53" y="-667" font-family="Helvetica,sans-Serif" font-size="10.00">_io_types.h</text>
</a>
</g>
</g>
<!-- Node1&#45;&gt;Node2 -->
<g id="edge1_Node000001_Node000002" class="edge">
<title>Node1&#45;&gt;Node2</title>
<g id="a_edge1_Node000001_Node000002"><a xlink:title=" ">
<path fill="none" stroke="#63b8ff" d="M158.97,-725.99C141.57,-717.79 114.66,-705.09 92.31,-694.55"/>
<polygon fill="#63b8ff" stroke="#63b8ff" points="93.59,-691.28 83.05,-690.18 90.6,-697.61 93.59,-691.28"/>
</a>
</g>
</g>
<!-- Node3 -->
<g id="Node000003" class="node">
<title>Node3</title>
<g id="a_Node000003"><a xlink:title=" ">
<polygon fill="#e0e0e0" stroke="#999999" points="230,-690 124,-690 124,-660 230,-660 230,-690"/>
<text text-anchor="start" x="132" y="-678" font-family="Helvetica,sans-Serif" font-size="10.00">odp/api/abi/packet</text>
<text text-anchor="middle" x="177" y="-667" font-family="Helvetica,sans-Serif" font-size="10.00">_types.h</text>
</a>
</g>
</g>
<!-- Node1&#45;&gt;Node3 -->
<g id="edge2_Node000001_Node000003" class="edge">
<title>Node1&#45;&gt;Node3</title>
<g id="a_edge2_Node000001_Node000003"><a xlink:title=" ">
<path fill="none" stroke="#63b8ff" d="M177,-725.87C177,-719.11 177,-709.35 177,-700.26"/>
<polygon fill="#63b8ff" stroke="#63b8ff" points="180.5,-700.11 177,-690.11 173.5,-700.11 180.5,-700.11"/>
</a>
</g>
</g>
<!-- Node4 -->
<g id="Node000004" class="node">
<title>Node4</title>
<g id="a_Node000004"><a xlink:href="spec_2packet__types_8h.html" target="_top" xlink:title="ODP packet types.">
<polygon fill="white" stroke="#666666" points="361.5,-690 248.5,-690 248.5,-660 361.5,-660 361.5,-690"/>
<text text-anchor="start" x="256.5" y="-678" font-family="Helvetica,sans-Serif" font-size="10.00">odp/api/spec/packet</text>
<text text-anchor="middle" x="305" y="-667" font-family="Helvetica,sans-Serif" font-size="10.00">_types.h</text>
</a>
</g>
</g>
<!-- Node1&#45;&gt;Node4 -->
<g id="edge3_Node000001_Node000004" class="edge">
<title>Node1&#45;&gt;Node4</title>
<g id="a_edge3_Node000001_Node000004"><a xlink:title=" ">
<path fill="none" stroke="#63b8ff" d="M195.61,-725.99C213.65,-717.75 241.6,-704.98 264.73,-694.4"/>
<polygon fill="#63b8ff" stroke="#63b8ff" points="266.34,-697.52 273.98,-690.18 263.43,-691.15 266.34,-697.52"/>
</a>
</g>
</g>
<!-- Node5 -->
<g id="Node000005" class="node">
<title>Node5</title>
<g id="a_Node000005"><a xlink:title=" ">
<polygon fill="#e0e0e0" stroke="#999999" points="458.5,-19 337.5,-19 337.5,0 458.5,0 458.5,-19"/>
<text text-anchor="middle" x="398" y="-7" font-family="Helvetica,sans-Serif" font-size="10.00">odp/visibility_begin.h</text>
</a>
</g>
</g>
<!-- Node4&#45;&gt;Node5 -->
<g id="edge4_Node000004_Node000005" class="edge">
<title>Node4&#45;&gt;Node5</title>
<g id="a_edge4_Node000004_Node000005"><a xlink:title=" ">
<path fill="none" stroke="#63b8ff" d="M259.67,-659.96C194.22,-638.31 81,-595.07 81,-555 81,-555 81,-555 81,-129.5 81,-89.87 96.78,-76.61 130,-55 161.73,-34.36 259.03,-22.11 327.2,-15.84"/>
<polygon fill="#63b8ff" stroke="#63b8ff" points="327.8,-19.3 337.45,-14.92 327.18,-12.33 327.8,-19.3"/>
</a>
</g>
</g>
<!-- Node6 -->
<g id="Node000006" class="node">
<title>Node6</title>
<g id="a_Node000006"><a xlink:href="deprecated_8h.html" target="_top" xlink:title="Control deprecated API definitions.">
<polygon fill="white" stroke="#666666" points="364.5,-624 245.5,-624 245.5,-605 364.5,-605 364.5,-624"/>
<text text-anchor="middle" x="305" y="-612" font-family="Helvetica,sans-Serif" font-size="10.00">odp/api/deprecated.h</text>
</a>
</g>
</g>
<!-- Node4&#45;&gt;Node6 -->
<g id="edge5_Node000004_Node000006" class="edge">
<title>Node4&#45;&gt;Node6</title>
<g id="a_edge5_Node000004_Node000006"><a xlink:title=" ">
<path fill="none" stroke="#63b8ff" d="M305,-659.84C305,-652.21 305,-642.7 305,-634.45"/>
<polygon fill="#63b8ff" stroke="#63b8ff" points="308.5,-634.27 305,-624.27 301.5,-634.27 308.5,-634.27"/>
</a>
</g>
</g>
<!-- Node8 -->
<g id="Node000008" class="node">
<title>Node8</title>
<g id="a_Node000008"><a xlink:title=" ">
<polygon fill="#e0e0e0" stroke="#999999" points="1191,-19 1079,-19 1079,0 1191,0 1191,-19"/>
<text text-anchor="middle" x="1135" y="-7" font-family="Helvetica,sans-Serif" font-size="10.00">odp/visibility_end.h</text>
</a>
</g>
</g>
<!-- Node4&#45;&gt;Node8 -->
<g id="edge55_Node000004_Node000008" class="edge">
<title>Node4&#45;&gt;Node8</title>
<g id="a_edge55_Node000004_Node000008"><a xlink:title=" ">
<path fill="none" stroke="#63b8ff" d="M361.76,-673.53C579.2,-671.01 1347,-655.03 1347,-555 1347,-555 1347,-555 1347,-129.5 1347,-61.73 1263.61,-32.16 1201.42,-19.53"/>
<polygon fill="#63b8ff" stroke="#63b8ff" points="1201.74,-16.03 1191.26,-17.57 1200.41,-22.9 1201.74,-16.03"/>
</a>
</g>
</g>
<!-- Node9 -->
<g id="Node000009" class="node">
<title>Node9</title>
<g id="a_Node000009"><a xlink:href="proto__stats__types_8h.html" target="_top" xlink:title="ODP proto stats types.">
<polygon fill="white" stroke="#666666" points="272,-382 162,-382 162,-352 272,-352 272,-382"/>
<text text-anchor="start" x="170" y="-370" font-family="Helvetica,sans-Serif" font-size="10.00">odp/api/proto_stats</text>
<text text-anchor="middle" x="217" y="-359" font-family="Helvetica,sans-Serif" font-size="10.00">_types.h</text>
</a>
</g>
</g>
<!-- Node4&#45;&gt;Node9 -->
<g id="edge9_Node000004_Node000009" class="edge">
<title>Node4&#45;&gt;Node9</title>
<g id="a_edge9_Node000004_Node000009"><a xlink:title=" ">
<path fill="none" stroke="#63b8ff" d="M277.22,-659.85C262.97,-651.28 246.45,-639.08 236,-624 217.88,-597.86 217,-586.81 217,-555 217,-555 217,-555 217,-492.5 217,-457.67 217,-417.35 217,-392.26"/>
<polygon fill="#63b8ff" stroke="#63b8ff" points="220.5,-392.19 217,-382.19 213.5,-392.19 220.5,-392.19"/>
</a>
</g>
</g>
<!-- Node19 -->
<g id="Node000019" class="node">
<title>Node19</title>
<g id="a_Node000019"><a xlink:href="queue__types_8h.html" target="_top" xlink:title="ODP queue.">
<polygon fill="white" stroke="#666666" points="792.5,-624 665.5,-624 665.5,-605 792.5,-605 792.5,-624"/>
<text text-anchor="middle" x="729" y="-612" font-family="Helvetica,sans-Serif" font-size="10.00">odp/api/queue_types.h</text>
</a>
</g>
</g>
<!-- Node4&#45;&gt;Node19 -->
<g id="edge25_Node000004_Node000019" class="edge">
<title>Node4&#45;&gt;Node19</title>
<g id="a_edge25_Node000004_Node000019"><a xlink:title=" ">
<path fill="none" stroke="#63b8ff" d="M361.74,-666.17C437.99,-655.65 573.56,-636.95 656.94,-625.44"/>
<polygon fill="#63b8ff" stroke="#63b8ff" points="657.66,-628.88 667.09,-624.04 656.71,-621.94 657.66,-628.88"/>
</a>
</g>
</g>
<!-- Node7 -->
<g id="Node000007" class="node">
<title>Node7</title>
<g id="a_Node000007"><a xlink:href="spec_2deprecated_8h.html" target="_top" xlink:title="Macro for deprecated API definitions.">
<polygon fill="white" stroke="#666666" points="350.5,-79.5 205.5,-79.5 205.5,-60.5 350.5,-60.5 350.5,-79.5"/>
<text text-anchor="middle" x="278" y="-67.5" font-family="Helvetica,sans-Serif" font-size="10.00">odp/api/spec/deprecated.h</text>
</a>
</g>
</g>
<!-- Node6&#45;&gt;Node7 -->
<g id="edge6_Node000006_Node000007" class="edge">
<title>Node6&#45;&gt;Node7</title>
<g id="a_edge6_Node000006_Node000007"><a xlink:title=" ">
<path fill="none" stroke="#63b8ff" d="M304.75,-604.84C304.22,-585.21 303,-535.83 303,-494.5 303,-494.5 303,-494.5 303,-366 303,-261.28 287.17,-136.4 280.7,-89.77"/>
<polygon fill="#63b8ff" stroke="#63b8ff" points="284.14,-89.08 279.27,-79.66 277.21,-90.06 284.14,-89.08"/>
</a>
</g>
</g>
<!-- Node7&#45;&gt;Node5 -->
<g id="edge7_Node000007_Node000005" class="edge">
<title>Node7&#45;&gt;Node5</title>
<g id="a_edge7_Node000007_Node000005"><a xlink:title=" ">
<path fill="none" stroke="#63b8ff" d="M295.45,-60.49C315.36,-50.79 348.14,-34.81 371.27,-23.53"/>
<polygon fill="#63b8ff" stroke="#63b8ff" points="373.07,-26.54 380.53,-19.02 370.01,-20.25 373.07,-26.54"/>
</a>
</g>
</g>
<!-- Node7&#45;&gt;Node8 -->
<g id="edge8_Node000007_Node000008" class="edge">
<title>Node7&#45;&gt;Node8</title>
<g id="a_edge8_Node000007_Node000008"><a xlink:title=" ">
<path fill="none" stroke="#63b8ff" d="M350.7,-64.04C514.62,-52.85 911.02,-25.79 1068.7,-15.03"/>
<polygon fill="#63b8ff" stroke="#63b8ff" points="1068.99,-18.51 1078.73,-14.34 1068.52,-11.53 1068.99,-18.51"/>
</a>
</g>
</g>
<!-- Node10 -->
<g id="Node000010" class="node">
<title>Node10</title>
<g id="a_Node000010"><a xlink:title=" ">
<polygon fill="#e0e0e0" stroke="#999999" points="275,-316 147,-316 147,-286 275,-286 275,-316"/>
<text text-anchor="start" x="155" y="-304" font-family="Helvetica,sans-Serif" font-size="10.00">odp/api/abi/proto_stats</text>
<text text-anchor="middle" x="211" y="-293" font-family="Helvetica,sans-Serif" font-size="10.00">_types.h</text>
</a>
</g>
</g>
<!-- Node9&#45;&gt;Node10 -->
<g id="edge10_Node000009_Node000010" class="edge">
<title>Node9&#45;&gt;Node10</title>
<g id="a_edge10_Node000009_Node000010"><a xlink:title=" ">
<path fill="none" stroke="#63b8ff" d="M215.67,-351.8C214.96,-344.26 214.07,-334.78 213.26,-326.13"/>
<polygon fill="#63b8ff" stroke="#63b8ff" points="216.75,-325.79 212.33,-316.16 209.78,-326.45 216.75,-325.79"/>
</a>
</g>
</g>
<!-- Node11 -->
<g id="Node000011" class="node">
<title>Node11</title>
<g id="a_Node000011"><a xlink:href="spec_2proto__stats__types_8h.html" target="_top" xlink:title="ODP proto stats types.">
<polygon fill="white" stroke="#666666" points="476.5,-316 369.5,-316 369.5,-286 476.5,-286 476.5,-316"/>
<text text-anchor="start" x="377.5" y="-304" font-family="Helvetica,sans-Serif" font-size="10.00">odp/api/spec/proto</text>
<text text-anchor="middle" x="423" y="-293" font-family="Helvetica,sans-Serif" font-size="10.00">_stats_types.h</text>
</a>
</g>
</g>
<!-- Node9&#45;&gt;Node11 -->
<g id="edge11_Node000009_Node000011" class="edge">
<title>Node9&#45;&gt;Node11</title>
<g id="a_edge11_Node000009_Node000011"><a xlink:title=" ">
<path fill="none" stroke="#63b8ff" d="M262.21,-351.95C293.33,-342.28 334.87,-329.38 367.93,-319.11"/>
<polygon fill="#63b8ff" stroke="#63b8ff" points="369.39,-322.32 377.9,-316.01 367.31,-315.64 369.39,-322.32"/>
</a>
</g>
</g>
<!-- Node11&#45;&gt;Node5 -->
<g id="edge12_Node000011_Node000005" class="edge">
<title>Node11&#45;&gt;Node5</title>
<g id="a_edge12_Node000011_Node000005"><a xlink:title=" ">
<path fill="none" stroke="#63b8ff" d="M397.98,-285.98C348.21,-256.46 237.94,-182.48 196,-85 172.01,-29.23 259.76,-14.24 327.13,-10.73"/>
<polygon fill="#63b8ff" stroke="#63b8ff" points="327.49,-14.22 337.33,-10.28 327.18,-7.23 327.49,-14.22"/>
</a>
</g>
</g>
<!-- Node11&#45;&gt;Node8 -->
<g id="edge24_Node000011_Node000008" class="edge">
<title>Node11&#45;&gt;Node8</title>
<g id="a_edge24_Node000011_Node000008"><a xlink:title=" ">
<path fill="none" stroke="#63b8ff" d="M451.58,-285.89C516.48,-254.13 680.3,-175.58 822,-121 870.4,-102.36 887.11,-109.16 933,-85 952.35,-74.81 952.42,-64.73 972,-55 1004.12,-39.04 1042.74,-28.18 1074.33,-21.18"/>
<polygon fill="#63b8ff" stroke="#63b8ff" points="1075.27,-24.56 1084.32,-19.04 1073.8,-17.71 1075.27,-24.56"/>
</a>
</g>
</g>
<!-- Node12 -->
<g id="Node000012" class="node">
<title>Node12</title>
<g id="a_Node000012"><a xlink:href="std__types_8h.html" target="_top" xlink:title="Standard C language types and definitions for ODP.">
<polygon fill="white" stroke="#666666" points="956,-250 844,-250 844,-231 956,-231 956,-250"/>
<text text-anchor="middle" x="900" y="-238" font-family="Helvetica,sans-Serif" font-size="10.00">odp/api/std_types.h</text>
</a>
</g>
</g>
<!-- Node11&#45;&gt;Node12 -->
<g id="edge13_Node000011_Node000012" class="edge">
<title>Node11&#45;&gt;Node12</title>
<g id="a_edge13_Node000011_Node000012"><a xlink:title=" ">
<path fill="none" stroke="#63b8ff" d="M476.54,-287.68C479.73,-287.07 482.9,-286.51 486,-286 607.93,-265.96 751.62,-252.84 833.64,-246.34"/>
<polygon fill="#63b8ff" stroke="#63b8ff" points="834.12,-249.81 843.82,-245.54 833.58,-242.83 834.12,-249.81"/>
</a>
</g>
</g>
<!-- Node13 -->
<g id="Node000013" class="node">
<title>Node13</title>
<g id="a_Node000013"><a xlink:title=" ">
<polygon fill="#e0e0e0" stroke="#999999" points="1101,-195 971,-195 971,-176 1101,-176 1101,-195"/>
<text text-anchor="middle" x="1036" y="-183" font-family="Helvetica,sans-Serif" font-size="10.00">odp/api/abi/std_types.h</text>
</a>
</g>
</g>
<!-- Node12&#45;&gt;Node13 -->
<g id="edge14_Node000012_Node000013" class="edge">
<title>Node12&#45;&gt;Node13</title>
<g id="a_edge14_Node000012_Node000013"><a xlink:title=" ">
<path fill="none" stroke="#63b8ff" d="M921.85,-230.98C944.12,-222.3 978.9,-208.75 1004.22,-198.88"/>
<polygon fill="#63b8ff" stroke="#63b8ff" points="1005.71,-202.06 1013.75,-195.17 1003.16,-195.54 1005.71,-202.06"/>
</a>
</g>
</g>
<!-- Node14 -->
<g id="Node000014" class="node">
<title>Node14</title>
<g id="a_Node000014"><a xlink:href="spec_2std__types_8h.html" target="_top" xlink:title="Common types and definitions for ODP API files.">
<polygon fill="white" stroke="#666666" points="952.5,-195 815.5,-195 815.5,-176 952.5,-176 952.5,-195"/>
<text text-anchor="middle" x="884" y="-183" font-family="Helvetica,sans-Serif" font-size="10.00">odp/api/spec/std_types.h</text>
</a>
</g>
</g>
<!-- Node12&#45;&gt;Node14 -->
<g id="edge15_Node000012_Node000014" class="edge">
<title>Node12&#45;&gt;Node14</title>
<g id="a_edge15_Node000012_Node000014"><a xlink:title=" ">
<path fill="none" stroke="#63b8ff" d="M897.36,-230.75C895.24,-223.72 892.19,-213.62 889.54,-204.84"/>
<polygon fill="#63b8ff" stroke="#63b8ff" points="892.83,-203.65 886.59,-195.09 886.13,-205.67 892.83,-203.65"/>
</a>
</g>
</g>
<!-- Node14&#45;&gt;Node5 -->
<g id="edge16_Node000014_Node000005" class="edge">
<title>Node14&#45;&gt;Node5</title>
<g id="a_edge16_Node000014_Node000005"><a xlink:title=" ">
<path fill="none" stroke="#63b8ff" d="M815.35,-183.01C724.21,-179.87 569.25,-170.14 522,-140 484.47,-116.06 500.44,-86.52 469,-55 456.48,-42.45 439.79,-31.76 425.73,-24.01"/>
<polygon fill="#63b8ff" stroke="#63b8ff" points="426.99,-20.71 416.51,-19.12 423.71,-26.9 426.99,-20.71"/>
</a>
</g>
</g>
<!-- Node14&#45;&gt;Node8 -->
<g id="edge23_Node000014_Node000008" class="edge">
<title>Node14&#45;&gt;Node8</title>
<g id="a_edge23_Node000014_Node000008"><a xlink:title=" ">
<path fill="none" stroke="#63b8ff" d="M921.26,-175.99C968.07,-163.52 1048.19,-136.02 1097,-85 1112.48,-68.82 1123.1,-45.1 1129.1,-28.79"/>
<polygon fill="#63b8ff" stroke="#63b8ff" points="1132.42,-29.9 1132.38,-19.3 1125.8,-27.61 1132.42,-29.9"/>
</a>
</g>
</g>
<!-- Node15 -->
<g id="Node000015" class="node">
<title>Node15</title>
<g id="a_Node000015"><a xlink:title=" ">
<polygon fill="#e0e0e0" stroke="#999999" points="990.5,-140 937.5,-140 937.5,-121 990.5,-121 990.5,-140"/>
<text text-anchor="middle" x="964" y="-128" font-family="Helvetica,sans-Serif" font-size="10.00">stdint.h</text>
</a>
</g>
</g>
<!-- Node14&#45;&gt;Node15 -->
<g id="edge17_Node000014_Node000015" class="edge">
<title>Node14&#45;&gt;Node15</title>
<g id="a_edge17_Node000014_Node000015"><a xlink:title=" ">
<path fill="none" stroke="#63b8ff" d="M896.85,-175.98C909.14,-167.84 927.91,-155.41 942.48,-145.76"/>
<polygon fill="#63b8ff" stroke="#63b8ff" points="944.51,-148.61 950.91,-140.17 940.64,-142.78 944.51,-148.61"/>
</a>
</g>
</g>
<!-- Node16 -->
<g id="Node000016" class="node">
<title>Node16</title>
<g id="a_Node000016"><a xlink:href="align_8h.html" target="_top" xlink:title="ODP alignments.">
<polygon fill="white" stroke="#666666" points="919.5,-140 830.5,-140 830.5,-121 919.5,-121 919.5,-140"/>
<text text-anchor="middle" x="875" y="-128" font-family="Helvetica,sans-Serif" font-size="10.00">odp/api/align.h</text>
</a>
</g>
</g>
<!-- Node14&#45;&gt;Node16 -->
<g id="edge18_Node000014_Node000016" class="edge">
<title>Node14&#45;&gt;Node16</title>
<g id="a_edge18_Node000014_Node000016"><a xlink:title=" ">
<path fill="none" stroke="#63b8ff" d="M882.51,-175.75C881.33,-168.8 879.64,-158.85 878.16,-150.13"/>
<polygon fill="#63b8ff" stroke="#63b8ff" points="881.58,-149.36 876.46,-140.09 874.68,-150.53 881.58,-149.36"/>
</a>
</g>
</g>
<!-- Node17 -->
<g id="Node000017" class="node">
<title>Node17</title>
<g id="a_Node000017"><a xlink:title=" ">
<polygon fill="#e0e0e0" stroke="#999999" points="1087.5,-79.5 980.5,-79.5 980.5,-60.5 1087.5,-60.5 1087.5,-79.5"/>
<text text-anchor="middle" x="1034" y="-67.5" font-family="Helvetica,sans-Serif" font-size="10.00">odp/api/abi/align.h</text>
</a>
</g>
</g>
<!-- Node16&#45;&gt;Node17 -->
<g id="edge19_Node000016_Node000017" class="edge">
<title>Node16&#45;&gt;Node17</title>
<g id="a_edge19_Node000016_Node000017"><a xlink:title=" ">
<path fill="none" stroke="#63b8ff" d="M898.12,-120.99C925.32,-110.99 970.67,-94.3 1001.42,-82.99"/>
<polygon fill="#63b8ff" stroke="#63b8ff" points="1002.68,-86.25 1010.85,-79.52 1000.26,-79.68 1002.68,-86.25"/>
</a>
</g>
</g>
<!-- Node18 -->
<g id="Node000018" class="node">
<title>Node18</title>
<g id="a_Node000018"><a xlink:href="spec_2align_8h.html" target="_top" xlink:title="ODP alignments.">
<polygon fill="white" stroke="#666666" points="924,-79.5 810,-79.5 810,-60.5 924,-60.5 924,-79.5"/>
<text text-anchor="middle" x="867" y="-67.5" font-family="Helvetica,sans-Serif" font-size="10.00">odp/api/spec/align.h</text>
</a>
</g>
</g>
<!-- Node16&#45;&gt;Node18 -->
<g id="edge20_Node000016_Node000018" class="edge">
<title>Node16&#45;&gt;Node18</title>
<g id="a_edge20_Node000016_Node000018"><a xlink:title=" ">
<path fill="none" stroke="#63b8ff" d="M873.82,-120.87C872.71,-112.75 871.01,-100.31 869.58,-89.89"/>
<polygon fill="#63b8ff" stroke="#63b8ff" points="873.01,-89.1 868.19,-79.67 866.07,-90.05 873.01,-89.1"/>
</a>
</g>
</g>
<!-- Node18&#45;&gt;Node5 -->
<g id="edge21_Node000018_Node000005" class="edge">
<title>Node18&#45;&gt;Node5</title>
<g id="a_edge21_Node000018_Node000005"><a xlink:title=" ">
<path fill="none" stroke="#63b8ff" d="M829.77,-60.43C820.41,-58.46 810.37,-56.51 801,-55 685.2,-36.37 549.42,-23.14 468.72,-16.17"/>
<polygon fill="#63b8ff" stroke="#63b8ff" points="468.94,-12.68 458.68,-15.31 468.34,-19.65 468.94,-12.68"/>
</a>
</g>
</g>
<!-- Node18&#45;&gt;Node8 -->
<g id="edge22_Node000018_Node000008" class="edge">
<title>Node18&#45;&gt;Node8</title>
<g id="a_edge22_Node000018_Node000008"><a xlink:title=" ">
<path fill="none" stroke="#63b8ff" d="M905.97,-60.49C953.6,-50.1 1034.25,-32.49 1086.03,-21.19"/>
<polygon fill="#63b8ff" stroke="#63b8ff" points="1086.96,-24.57 1095.98,-19.02 1085.47,-17.73 1086.96,-24.57"/>
</a>
</g>
</g>
<!-- Node20 -->
<g id="Node000020" class="node">
<title>Node20</title>
<g id="a_Node000020"><a xlink:title=" ">
<polygon fill="#e0e0e0" stroke="#999999" points="947.5,-563.5 802.5,-563.5 802.5,-544.5 947.5,-544.5 947.5,-563.5"/>
<text text-anchor="middle" x="875" y="-551.5" font-family="Helvetica,sans-Serif" font-size="10.00">odp/api/abi/queue_types.h</text>
</a>
</g>
</g>
<!-- Node19&#45;&gt;Node20 -->
<g id="edge26_Node000019_Node000020" class="edge">
<title>Node19&#45;&gt;Node20</title>
<g id="a_edge26_Node000019_Node000020"><a xlink:title=" ">
<path fill="none" stroke="#63b8ff" d="M750.23,-604.99C774.99,-595.07 816.12,-578.59 844.35,-567.28"/>
<polygon fill="#63b8ff" stroke="#63b8ff" points="845.76,-570.49 853.74,-563.52 843.16,-563.99 845.76,-570.49"/>
</a>
</g>
</g>
<!-- Node21 -->
<g id="Node000021" class="node">
<title>Node21</title>
<g id="a_Node000021"><a xlink:href="spec_2queue__types_8h.html" target="_top" xlink:title="ODP queue types.">
<polygon fill="white" stroke="#666666" points="784.5,-569 673.5,-569 673.5,-539 784.5,-539 784.5,-569"/>
<text text-anchor="start" x="681.5" y="-557" font-family="Helvetica,sans-Serif" font-size="10.00">odp/api/spec/queue</text>
<text text-anchor="middle" x="729" y="-546" font-family="Helvetica,sans-Serif" font-size="10.00">_types.h</text>
</a>
</g>
</g>
<!-- Node19&#45;&gt;Node21 -->
<g id="edge27_Node000019_Node000021" class="edge">
<title>Node19&#45;&gt;Node21</title>
<g id="a_edge27_Node000019_Node000021"><a xlink:title=" ">
<path fill="none" stroke="#63b8ff" d="M729,-604.87C729,-598.11 729,-588.35 729,-579.26"/>
<polygon fill="#63b8ff" stroke="#63b8ff" points="732.5,-579.11 729,-569.11 725.5,-579.11 732.5,-579.11"/>
</a>
</g>
</g>
<!-- Node21&#45;&gt;Node5 -->
<g id="edge28_Node000021_Node000005" class="edge">
<title>Node21&#45;&gt;Node5</title>
<g id="a_edge28_Node000021_Node000005"><a xlink:title=" ">
<path fill="none" stroke="#63b8ff" d="M673.25,-553.85C522.66,-554.66 119,-546.35 119,-434 119,-434 119,-434 119,-129.5 119,-39.01 244.7,-16.39 327.36,-11.29"/>
<polygon fill="#63b8ff" stroke="#63b8ff" points="327.67,-14.78 337.46,-10.74 327.29,-7.79 327.67,-14.78"/>
</a>
</g>
</g>
<!-- Node21&#45;&gt;Node8 -->
<g id="edge54_Node000021_Node000008" class="edge">
<title>Node21&#45;&gt;Node8</title>
<g id="a_edge54_Node000021_Node000008"><a xlink:title=" ">
<path fill="none" stroke="#63b8ff" d="M784.65,-540.92C787.81,-540.26 790.95,-539.62 794,-539 908.47,-515.77 1309,-550.8 1309,-434 1309,-434 1309,-434 1309,-129.5 1309,-68.82 1236,-36.82 1184.57,-21.81"/>
<polygon fill="#63b8ff" stroke="#63b8ff" points="1185.49,-18.43 1174.92,-19.11 1183.61,-25.17 1185.49,-18.43"/>
</a>
</g>
</g>
<!-- Node22 -->
<g id="Node000022" class="node">
<title>Node22</title>
<g id="a_Node000022"><a xlink:href="event__vector__types_8h.html" target="_top" xlink:title="ODP event vector API type definitions.">
<polygon fill="white" stroke="#666666" points="788.5,-382 669.5,-382 669.5,-352 788.5,-352 788.5,-382"/>
<text text-anchor="start" x="677.5" y="-370" font-family="Helvetica,sans-Serif" font-size="10.00">odp/api/event_vector</text>
<text text-anchor="middle" x="729" y="-359" font-family="Helvetica,sans-Serif" font-size="10.00">_types.h</text>
</a>
</g>
</g>
<!-- Node21&#45;&gt;Node22 -->
<g id="edge29_Node000021_Node000022" class="edge">
<title>Node21&#45;&gt;Node22</title>
<g id="a_edge29_Node000021_Node000022"><a xlink:title=" ">
<path fill="none" stroke="#63b8ff" d="M729,-538.79C729,-507.3 729,-431.36 729,-392.22"/>
<polygon fill="#63b8ff" stroke="#63b8ff" points="732.5,-392 729,-382 725.5,-392 732.5,-392"/>
</a>
</g>
</g>
<!-- Node29 -->
<g id="Node000029" class="node">
<title>Node29</title>
<g id="a_Node000029"><a xlink:href="schedule__types_8h.html" target="_top" xlink:title="ODP schedule.">
<polygon fill="white" stroke="#666666" points="974,-503 834,-503 834,-484 974,-484 974,-503"/>
<text text-anchor="middle" x="904" y="-491" font-family="Helvetica,sans-Serif" font-size="10.00">odp/api/schedule_types.h</text>
</a>
</g>
</g>
<!-- Node21&#45;&gt;Node29 -->
<g id="edge41_Node000021_Node000029" class="edge">
<title>Node21&#45;&gt;Node29</title>
<g id="a_edge41_Node000021_Node000029"><a xlink:title=" ">
<path fill="none" stroke="#63b8ff" d="M770.92,-538.99C800.73,-529.02 840.33,-515.78 868.56,-506.35"/>
<polygon fill="#63b8ff" stroke="#63b8ff" points="870.04,-509.54 878.41,-503.05 867.82,-502.9 870.04,-509.54"/>
</a>
</g>
</g>
<!-- Node23 -->
<g id="Node000023" class="node">
<title>Node23</title>
<g id="a_Node000023"><a xlink:title=" ">
<polygon fill="#e0e0e0" stroke="#999999" points="913.5,-316 776.5,-316 776.5,-286 913.5,-286 913.5,-316"/>
<text text-anchor="start" x="784.5" y="-304" font-family="Helvetica,sans-Serif" font-size="10.00">odp/api/abi/event_vector</text>
<text text-anchor="middle" x="845" y="-293" font-family="Helvetica,sans-Serif" font-size="10.00">_types.h</text>
</a>
</g>
</g>
<!-- Node22&#45;&gt;Node23 -->
<g id="edge30_Node000022_Node000023" class="edge">
<title>Node22&#45;&gt;Node23</title>
<g id="a_edge30_Node000022_Node000023"><a xlink:title=" ">
<path fill="none" stroke="#63b8ff" d="M754.46,-351.95C770.93,-342.87 792.57,-330.93 810.57,-321"/>
<polygon fill="#63b8ff" stroke="#63b8ff" points="812.54,-323.91 819.6,-316.01 809.16,-317.78 812.54,-323.91"/>
</a>
</g>
</g>
<!-- Node24 -->
<g id="Node000024" class="node">
<title>Node24</title>
<g id="a_Node000024"><a xlink:title=" ">
<polygon fill="#e0e0e0" stroke="#999999" points="758,-310.5 622,-310.5 622,-291.5 758,-291.5 758,-310.5"/>
<text text-anchor="middle" x="690" y="-298.5" font-family="Helvetica,sans-Serif" font-size="10.00">odp/api/abi/pool_types.h</text>
</a>
</g>
</g>
<!-- Node22&#45;&gt;Node24 -->
<g id="edge31_Node000022_Node000024" class="edge">
<title>Node22&#45;&gt;Node24</title>
<g id="a_edge31_Node000022_Node000024"><a xlink:title=" ">
<path fill="none" stroke="#63b8ff" d="M720.34,-351.8C714.56,-342.31 706.92,-329.76 700.74,-319.63"/>
<polygon fill="#63b8ff" stroke="#63b8ff" points="703.58,-317.56 695.39,-310.84 697.6,-321.21 703.58,-317.56"/>
</a>
</g>
</g>
<!-- Node25 -->
<g id="Node000025" class="node">
<title>Node25</title>
<g id="a_Node000025"><a xlink:href="spec_2event__vector__types_8h.html" target="_top" xlink:title="ODP event vector API type definitions.">
<polygon fill="white" stroke="#666666" points="603.5,-316 494.5,-316 494.5,-286 603.5,-286 603.5,-316"/>
<text text-anchor="start" x="502.5" y="-304" font-family="Helvetica,sans-Serif" font-size="10.00">odp/api/spec/event</text>
<text text-anchor="middle" x="549" y="-293" font-family="Helvetica,sans-Serif" font-size="10.00">_vector_types.h</text>
</a>
</g>
</g>
<!-- Node22&#45;&gt;Node25 -->
<g id="edge32_Node000022_Node000025" class="edge">
<title>Node22&#45;&gt;Node25</title>
<g id="a_edge32_Node000022_Node000025"><a xlink:title=" ">
<path fill="none" stroke="#63b8ff" d="M689.5,-351.95C662.53,-342.37 626.63,-329.6 597.87,-319.37"/>
<polygon fill="#63b8ff" stroke="#63b8ff" points="599,-316.06 588.41,-316.01 596.66,-322.66 599,-316.06"/>
</a>
</g>
</g>
<!-- Node25&#45;&gt;Node5 -->
<g id="edge33_Node000025_Node000005" class="edge">
<title>Node25&#45;&gt;Node5</title>
<g id="a_edge33_Node000025_Node000005"><a xlink:title=" ">
<path fill="none" stroke="#63b8ff" d="M537.45,-285.83C515.95,-258.87 469.4,-197.74 441,-140 422.51,-102.41 409.05,-54.96 402.49,-29.21"/>
<polygon fill="#63b8ff" stroke="#63b8ff" points="405.84,-28.17 400.04,-19.3 399.04,-29.85 405.84,-28.17"/>
</a>
</g>
</g>
<!-- Node25&#45;&gt;Node8 -->
<g id="edge40_Node000025_Node000008" class="edge">
<title>Node25&#45;&gt;Node8</title>
<g id="a_edge40_Node000025_Node000008"><a xlink:title=" ">
<path fill="none" stroke="#63b8ff" d="M603.74,-287.6C606.86,-287.02 609.97,-286.49 613,-286 723.87,-268.26 1040.15,-282.91 1110,-195 1148.83,-146.13 1143.31,-66.01 1138.25,-29.59"/>
<polygon fill="#63b8ff" stroke="#63b8ff" points="1141.66,-28.75 1136.68,-19.4 1134.74,-29.81 1141.66,-28.75"/>
</a>
</g>
</g>
<!-- Node25&#45;&gt;Node12 -->
<g id="edge39_Node000025_Node000012" class="edge">
<title>Node25&#45;&gt;Node12</title>
<g id="a_edge39_Node000025_Node000012"><a xlink:title=" ">
<path fill="none" stroke="#63b8ff" d="M603.77,-287.79C606.89,-287.16 609.98,-286.56 613,-286 688.28,-271.94 775.26,-258.9 833.55,-250.62"/>
<polygon fill="#63b8ff" stroke="#63b8ff" points="834.32,-254.05 843.73,-249.18 833.34,-247.12 834.32,-254.05"/>
</a>
</g>
</g>
<!-- Node26 -->
<g id="Node000026" class="node">
<title>Node26</title>
<g id="a_Node000026"><a xlink:href="event__types_8h.html" target="_top" xlink:title="ODP event API type definitions.">
<polygon fill="white" stroke="#666666" points="655.5,-140 530.5,-140 530.5,-121 655.5,-121 655.5,-140"/>
<text text-anchor="middle" x="593" y="-128" font-family="Helvetica,sans-Serif" font-size="10.00">odp/api/event_types.h</text>
</a>
</g>
</g>
<!-- Node25&#45;&gt;Node26 -->
<g id="edge34_Node000025_Node000026" class="edge">
<title>Node25&#45;&gt;Node26</title>
<g id="a_edge34_Node000025_Node000026"><a xlink:title=" ">
<path fill="none" stroke="#63b8ff" d="M552.68,-285.92C560.58,-255.65 579.2,-184.35 588.1,-150.27"/>
<polygon fill="#63b8ff" stroke="#63b8ff" points="591.57,-150.81 590.71,-140.25 584.8,-149.05 591.57,-150.81"/>
</a>
</g>
</g>
<!-- Node27 -->
<g id="Node000027" class="node">
<title>Node27</title>
<g id="a_Node000027"><a xlink:title=" ">
<polygon fill="#e0e0e0" stroke="#999999" points="664.5,-79.5 521.5,-79.5 521.5,-60.5 664.5,-60.5 664.5,-79.5"/>
<text text-anchor="middle" x="593" y="-67.5" font-family="Helvetica,sans-Serif" font-size="10.00">odp/api/abi/event_types.h</text>
</a>
</g>
</g>
<!-- Node26&#45;&gt;Node27 -->
<g id="edge35_Node000026_Node000027" class="edge">
<title>Node26&#45;&gt;Node27</title>
<g id="a_edge35_Node000026_Node000027"><a xlink:title=" ">
<path fill="none" stroke="#63b8ff" d="M593,-120.87C593,-112.75 593,-100.31 593,-89.89"/>
<polygon fill="#63b8ff" stroke="#63b8ff" points="596.5,-89.67 593,-79.67 589.5,-89.67 596.5,-89.67"/>
</a>
</g>
</g>
<!-- Node28 -->
<g id="Node000028" class="node">
<title>Node28</title>
<g id="a_Node000028"><a xlink:href="spec_2event__types_8h.html" target="_top" xlink:title="ODP event API type definitions.">
<polygon fill="white" stroke="#666666" points="791.5,-85 682.5,-85 682.5,-55 791.5,-55 791.5,-85"/>
<text text-anchor="start" x="690.5" y="-73" font-family="Helvetica,sans-Serif" font-size="10.00">odp/api/spec/event</text>
<text text-anchor="middle" x="737" y="-62" font-family="Helvetica,sans-Serif" font-size="10.00">_types.h</text>
</a>
</g>
</g>
<!-- Node26&#45;&gt;Node28 -->
<g id="edge36_Node000026_Node000028" class="edge">
<title>Node26&#45;&gt;Node28</title>
<g id="a_edge36_Node000026_Node000028"><a xlink:title=" ">
<path fill="none" stroke="#63b8ff" d="M613.94,-120.99C634.57,-112.61 666.73,-99.55 693,-88.87"/>
<polygon fill="#63b8ff" stroke="#63b8ff" points="694.43,-92.07 702.38,-85.06 691.8,-85.59 694.43,-92.07"/>
</a>
</g>
</g>
<!-- Node28&#45;&gt;Node5 -->
<g id="edge37_Node000028_Node000005" class="edge">
<title>Node28&#45;&gt;Node5</title>
<g id="a_edge37_Node000028_Node000005"><a xlink:title=" ">
<path fill="none" stroke="#63b8ff" d="M682.41,-56.66C679.57,-56.08 676.75,-55.53 674,-55 603.88,-41.57 523.22,-28.88 467.28,-20.52"/>
<polygon fill="#63b8ff" stroke="#63b8ff" points="467.54,-17.02 457.13,-19.01 466.51,-23.94 467.54,-17.02"/>
</a>
</g>
</g>
<!-- Node28&#45;&gt;Node8 -->
<g id="edge38_Node000028_Node000008" class="edge">
<title>Node28&#45;&gt;Node8</title>
<g id="a_edge38_Node000028_Node000008"><a xlink:title=" ">
<path fill="none" stroke="#63b8ff" d="M791.75,-56.71C794.88,-56.11 797.98,-55.53 801,-55 893.48,-38.75 1001.29,-25.39 1068.86,-17.67"/>
<polygon fill="#63b8ff" stroke="#63b8ff" points="1069.39,-21.14 1078.94,-16.53 1068.61,-14.18 1069.39,-21.14"/>
</a>
</g>
</g>
<!-- Node30 -->
<g id="Node000030" class="node">
<title>Node30</title>
<g id="a_Node000030"><a xlink:title=" ">
<polygon fill="#e0e0e0" stroke="#999999" points="1101.5,-448 984.5,-448 984.5,-418 1101.5,-418 1101.5,-448"/>
<text text-anchor="start" x="992.5" y="-436" font-family="Helvetica,sans-Serif" font-size="10.00">odp/api/abi/schedule</text>
<text text-anchor="middle" x="1043" y="-425" font-family="Helvetica,sans-Serif" font-size="10.00">_types.h</text>
</a>
</g>
</g>
<!-- Node29&#45;&gt;Node30 -->
<g id="edge42_Node000029_Node000030" class="edge">
<title>Node29&#45;&gt;Node30</title>
<g id="a_edge42_Node000029_Node000030"><a xlink:title=" ">
<path fill="none" stroke="#63b8ff" d="M924.21,-483.99C944.04,-475.65 974.9,-462.66 1000.19,-452.02"/>
<polygon fill="#63b8ff" stroke="#63b8ff" points="1001.72,-455.17 1009.58,-448.06 999.01,-448.72 1001.72,-455.17"/>
</a>
</g>
</g>
<!-- Node31 -->
<g id="Node000031" class="node">
<title>Node31</title>
<g id="a_Node000031"><a xlink:href="spec_2schedule__types_8h.html" target="_top" xlink:title="ODP schedule types.">
<polygon fill="white" stroke="#666666" points="966.5,-448 841.5,-448 841.5,-418 966.5,-418 966.5,-448"/>
<text text-anchor="start" x="849.5" y="-436" font-family="Helvetica,sans-Serif" font-size="10.00">odp/api/spec/schedule</text>
<text text-anchor="middle" x="904" y="-425" font-family="Helvetica,sans-Serif" font-size="10.00">_types.h</text>
</a>
</g>
</g>
<!-- Node29&#45;&gt;Node31 -->
<g id="edge43_Node000029_Node000031" class="edge">
<title>Node29&#45;&gt;Node31</title>
<g id="a_edge43_Node000029_Node000031"><a xlink:title=" ">
<path fill="none" stroke="#63b8ff" d="M904,-483.87C904,-477.11 904,-467.35 904,-458.26"/>
<polygon fill="#63b8ff" stroke="#63b8ff" points="907.5,-458.11 904,-448.11 900.5,-458.11 907.5,-458.11"/>
</a>
</g>
</g>
<!-- Node31&#45;&gt;Node5 -->
<g id="edge44_Node000031_Node000005" class="edge">
<title>Node31&#45;&gt;Node5</title>
<g id="a_edge44_Node000031_Node000005"><a xlink:title=" ">
<path fill="none" stroke="#63b8ff" d="M841.24,-428.22C711.45,-418.95 420.64,-390.19 361,-316 290.7,-228.56 360.64,-79 388.04,-28.08"/>
<polygon fill="#63b8ff" stroke="#63b8ff" points="391.14,-29.7 392.9,-19.25 385.01,-26.33 391.14,-29.7"/>
</a>
</g>
</g>
<!-- Node31&#45;&gt;Node8 -->
<g id="edge53_Node000031_Node000008" class="edge">
<title>Node31&#45;&gt;Node8</title>
<g id="a_edge53_Node000031_Node000008"><a xlink:title=" ">
<path fill="none" stroke="#63b8ff" d="M966.5,-419.07C1038.65,-402.4 1159.29,-369.08 1252,-316 1261.1,-310.79 1271,-312.49 1271,-302 1271,-302 1271,-302 1271,-129.5 1271,-75.45 1209.4,-40.25 1169.11,-23.01"/>
<polygon fill="#63b8ff" stroke="#63b8ff" points="1170.21,-19.68 1159.63,-19.11 1167.55,-26.15 1170.21,-19.68"/>
</a>
</g>
</g>
<!-- Node31&#45;&gt;Node12 -->
<g id="edge46_Node000031_Node000012" class="edge">
<title>Node31&#45;&gt;Node12</title>
<g id="a_edge46_Node000031_Node000012"><a xlink:title=" ">
<path fill="none" stroke="#63b8ff" d="M909.28,-417.72C918.28,-391.36 934.53,-333.44 923,-286 920.69,-276.51 915.98,-266.78 911.42,-258.85"/>
<polygon fill="#63b8ff" stroke="#63b8ff" points="914.32,-256.89 906.1,-250.2 908.36,-260.55 914.32,-256.89"/>
</a>
</g>
</g>
<!-- Node31&#45;&gt;Node22 -->
<g id="edge45_Node000031_Node000022" class="edge">
<title>Node31&#45;&gt;Node22</title>
<g id="a_edge45_Node000031_Node000022"><a xlink:title=" ">
<path fill="none" stroke="#63b8ff" d="M865.6,-417.95C839.49,-408.41 804.78,-395.71 776.87,-385.51"/>
<polygon fill="#63b8ff" stroke="#63b8ff" points="777.91,-382.16 767.31,-382.01 775.5,-388.73 777.91,-382.16"/>
</a>
</g>
</g>
<!-- Node32 -->
<g id="Node000032" class="node">
<title>Node32</title>
<g id="a_Node000032"><a xlink:href="thrmask_8h.html" target="_top" xlink:title="ODP thread masks.">
<polygon fill="white" stroke="#666666" points="1088.5,-376.5 983.5,-376.5 983.5,-357.5 1088.5,-357.5 1088.5,-376.5"/>
<text text-anchor="middle" x="1036" y="-364.5" font-family="Helvetica,sans-Serif" font-size="10.00">odp/api/thrmask.h</text>
</a>
</g>
</g>
<!-- Node31&#45;&gt;Node32 -->
<g id="edge47_Node000031_Node000032" class="edge">
<title>Node31&#45;&gt;Node32</title>
<g id="a_edge47_Node000031_Node000032"><a xlink:title=" ">
<path fill="none" stroke="#63b8ff" d="M932.97,-417.95C955.71,-406.93 987.12,-391.7 1009.27,-380.96"/>
<polygon fill="#63b8ff" stroke="#63b8ff" points="1010.96,-384.03 1018.43,-376.52 1007.91,-377.73 1010.96,-384.03"/>
</a>
</g>
</g>
<!-- Node33 -->
<g id="Node000033" class="node">
<title>Node33</title>
<g id="a_Node000033"><a xlink:title=" ">
<polygon fill="#e0e0e0" stroke="#999999" points="1242.5,-310.5 1119.5,-310.5 1119.5,-291.5 1242.5,-291.5 1242.5,-310.5"/>
<text text-anchor="middle" x="1181" y="-298.5" font-family="Helvetica,sans-Serif" font-size="10.00">odp/api/abi/thrmask.h</text>
</a>
</g>
</g>
<!-- Node32&#45;&gt;Node33 -->
<g id="edge48_Node000032_Node000033" class="edge">
<title>Node32&#45;&gt;Node33</title>
<g id="a_edge48_Node000032_Node000033"><a xlink:title=" ">
<path fill="none" stroke="#63b8ff" d="M1055.56,-357.37C1080.31,-346.44 1123.17,-327.52 1151.81,-314.88"/>
<polygon fill="#63b8ff" stroke="#63b8ff" points="1153.56,-317.94 1161.29,-310.7 1150.73,-311.54 1153.56,-317.94"/>
</a>
</g>
</g>
<!-- Node34 -->
<g id="Node000034" class="node">
<title>Node34</title>
<g id="a_Node000034"><a xlink:href="spec_2thrmask_8h.html" target="_top" xlink:title="ODP thread masks.">
<polygon fill="white" stroke="#666666" points="1101.5,-310.5 970.5,-310.5 970.5,-291.5 1101.5,-291.5 1101.5,-310.5"/>
<text text-anchor="middle" x="1036" y="-298.5" font-family="Helvetica,sans-Serif" font-size="10.00">odp/api/spec/thrmask.h</text>
</a>
</g>
</g>
<!-- Node32&#45;&gt;Node34 -->
<g id="edge49_Node000032_Node000034" class="edge">
<title>Node32&#45;&gt;Node34</title>
<g id="a_edge49_Node000032_Node000034"><a xlink:title=" ">
<path fill="none" stroke="#63b8ff" d="M1036,-357.37C1036,-348.16 1036,-333.29 1036,-321.27"/>
<polygon fill="#63b8ff" stroke="#63b8ff" points="1039.5,-320.91 1036,-310.91 1032.5,-320.91 1039.5,-320.91"/>
</a>
</g>
</g>
<!-- Node34&#45;&gt;Node5 -->
<g id="edge50_Node000034_Node000005" class="edge">
<title>Node34&#45;&gt;Node5</title>
<g id="a_edge50_Node000034_Node000005"><a xlink:title=" ">
<path fill="none" stroke="#63b8ff" d="M1029.69,-291.15C1018.5,-276.17 993.64,-245.97 965,-231 871.31,-182.01 587.98,-195.52 498,-140 486.18,-132.71 434.04,-60.95 410.1,-27.5"/>
<polygon fill="#63b8ff" stroke="#63b8ff" points="412.81,-25.27 404.15,-19.17 407.11,-29.34 412.81,-25.27"/>
</a>
</g>
</g>
<!-- Node34&#45;&gt;Node8 -->
<g id="edge52_Node000034_Node000008" class="edge">
<title>Node34&#45;&gt;Node8</title>
<g id="a_edge52_Node000034_Node000008"><a xlink:title=" ">
<path fill="none" stroke="#63b8ff" d="M1070.62,-291.41C1116.58,-277.7 1192,-246.12 1192,-186.5 1192,-186.5 1192,-186.5 1192,-129.5 1192,-94.71 1183.91,-85.94 1168,-55 1162.9,-45.07 1155.64,-35 1149.23,-26.96"/>
<polygon fill="#63b8ff" stroke="#63b8ff" points="1151.82,-24.6 1142.75,-19.13 1146.43,-29.06 1151.82,-24.6"/>
</a>
</g>
</g>
<!-- Node34&#45;&gt;Node12 -->
<g id="edge51_Node000034_Node000012" class="edge">
<title>Node34&#45;&gt;Node12</title>
<g id="a_edge51_Node000034_Node000012"><a xlink:title=" ">
<path fill="none" stroke="#63b8ff" d="M1016.22,-291.49C993.36,-281.66 955.51,-265.38 929.24,-254.08"/>
<polygon fill="#63b8ff" stroke="#63b8ff" points="930.37,-250.75 919.8,-250.02 927.6,-257.18 930.37,-250.75"/>
</a>
</g>
</g>
</g>
</svg>
