<?xml version="1.0" encoding="UTF-8" standalone="no"?>
<!DOCTYPE svg PUBLIC "-//W3C//DTD SVG 1.1//EN"
 "http://www.w3.org/Graphics/SVG/1.1/DTD/svg11.dtd">
<!-- Generated by graphviz version 2.43.0 (0)
 -->
<!-- Title: packet_flag_inlines.h Pages: 1 -->
<svg width="242pt" height="151pt"
 viewBox="0.00 0.00 242.00 151.00" xmlns="http://www.w3.org/2000/svg" xmlns:xlink="http://www.w3.org/1999/xlink">
<g id="graph0" class="graph" transform="scale(1 1) rotate(0) translate(4 147)">
<title>packet_flag_inlines.h</title>
<polygon fill="white" stroke="transparent" points="-4,4 -4,-147 238,-147 238,4 -4,4"/>
<!-- Node1 -->
<g id="node1" class="node">
<title>Node1</title>
<g id="a_node1"><a xlink:title="Packet flag inline functions.">
<polygon fill="#bfbfbf" stroke="black" points="56.5,-123.5 56.5,-142.5 175.5,-142.5 175.5,-123.5 56.5,-123.5"/>
<text text-anchor="middle" x="116" y="-130.5" font-family="Helvetica,sans-Serif" font-size="10.00">packet_flag_inlines.h</text>
</a>
</g>
</g>
<!-- Node2 -->
<g id="node2" class="node">
<title>Node2</title>
<g id="a_node2"><a xlink:title=" ">
<polygon fill="white" stroke="#bfbfbf" points="0,-56.5 0,-86.5 106,-86.5 106,-56.5 0,-56.5"/>
<text text-anchor="start" x="8" y="-74.5" font-family="Helvetica,sans-Serif" font-size="10.00">odp/api/abi/packet</text>
<text text-anchor="middle" x="53" y="-63.5" font-family="Helvetica,sans-Serif" font-size="10.00">_types.h</text>
</a>
</g>
</g>
<!-- Node1&#45;&gt;Node2 -->
<g id="edge1" class="edge">
<title>Node1&#45;&gt;Node2</title>
<path fill="none" stroke="midnightblue" d="M106.97,-123.48C98.76,-115.72 86.29,-103.94 75.41,-93.66"/>
<polygon fill="midnightblue" stroke="midnightblue" points="77.52,-90.84 67.85,-86.52 72.71,-95.93 77.52,-90.84"/>
</g>
<!-- Node3 -->
<g id="node3" class="node">
<title>Node3</title>
<g id="a_node3"><a xlink:href="packet__inline__types_8h.html" target="_top" xlink:title="ODP packet descriptor.">
<polygon fill="white" stroke="black" points="124,-56.5 124,-86.5 234,-86.5 234,-56.5 124,-56.5"/>
<text text-anchor="start" x="132" y="-74.5" font-family="Helvetica,sans-Serif" font-size="10.00">odp/api/plat/packet</text>
<text text-anchor="middle" x="179" y="-63.5" font-family="Helvetica,sans-Serif" font-size="10.00">_inline_types.h</text>
</a>
</g>
</g>
<!-- Node1&#45;&gt;Node3 -->
<g id="edge2" class="edge">
<title>Node1&#45;&gt;Node3</title>
<path fill="none" stroke="midnightblue" d="M125.03,-123.48C133.24,-115.72 145.71,-103.94 156.59,-93.66"/>
<polygon fill="midnightblue" stroke="midnightblue" points="159.29,-95.93 164.15,-86.52 154.48,-90.84 159.29,-95.93"/>
</g>
<!-- Node4 -->
<g id="node4" class="node">
<title>Node4</title>
<g id="a_node4"><a xlink:title=" ">
<polygon fill="white" stroke="#bfbfbf" points="152.5,-0.5 152.5,-19.5 205.5,-19.5 205.5,-0.5 152.5,-0.5"/>
<text text-anchor="middle" x="179" y="-7.5" font-family="Helvetica,sans-Serif" font-size="10.00">stdint.h</text>
</a>
</g>
</g>
<!-- Node3&#45;&gt;Node4 -->
<g id="edge3" class="edge">
<title>Node3&#45;&gt;Node4</title>
<path fill="none" stroke="midnightblue" d="M179,-56.4C179,-48.47 179,-38.46 179,-29.86"/>
<polygon fill="midnightblue" stroke="midnightblue" points="182.5,-29.66 179,-19.66 175.5,-29.66 182.5,-29.66"/>
</g>
</g>
</svg>
