<?xml version="1.0" encoding="UTF-8" standalone="no"?>
<!DOCTYPE svg PUBLIC "-//W3C//DTD SVG 1.1//EN"
 "http://www.w3.org/Graphics/SVG/1.1/DTD/svg11.dtd">
<!-- Generated by graphviz version 2.43.0 (0)
 -->
<!-- Title: packet_flags.h Pages: 1 -->
<svg width="1398pt" height="874pt"
 viewBox="0.00 0.00 1398.00 874.00" xmlns="http://www.w3.org/2000/svg" xmlns:xlink="http://www.w3.org/1999/xlink">
<g id="graph0" class="graph" transform="scale(1 1) rotate(0) translate(4 870)">
<title>packet_flags.h</title>
<!-- Node1 -->
<g id="Node000001" class="node">
<title>Node1</title>
<g id="a_Node000001"><a xlink:title="ODP packet flags.">
<polygon fill="#999999" stroke="#666666" points="1223,-866 1137,-866 1137,-847 1223,-847 1223,-866"/>
<text text-anchor="middle" x="1180" y="-854" font-family="Helvetica,sans-Serif" font-size="10.00">packet_flags.h</text>
</a>
</g>
</g>
<!-- Node2 -->
<g id="Node000002" class="node">
<title>Node2</title>
<g id="a_Node000002"><a xlink:title=" ">
<polygon fill="#e0e0e0" stroke="#999999" points="1169,-811 1063,-811 1063,-781 1169,-781 1169,-811"/>
<text text-anchor="start" x="1071" y="-799" font-family="Helvetica,sans-Serif" font-size="10.00">odp/api/abi/packet</text>
<text text-anchor="middle" x="1116" y="-788" font-family="Helvetica,sans-Serif" font-size="10.00">_flags.h</text>
</a>
</g>
</g>
<!-- Node1&#45;&gt;Node2 -->
<g id="edge1_Node000001_Node000002" class="edge">
<title>Node1&#45;&gt;Node2</title>
<g id="a_edge1_Node000001_Node000002"><a xlink:title=" ">
<path fill="none" stroke="#63b8ff" d="M1170.56,-846.87C1162.27,-839.3 1149.89,-827.98 1139.01,-818.04"/>
<polygon fill="#63b8ff" stroke="#63b8ff" points="1141.18,-815.28 1131.44,-811.11 1136.46,-820.44 1141.18,-815.28"/>
</a>
</g>
</g>
<!-- Node3 -->
<g id="Node000003" class="node">
<title>Node3</title>
<g id="a_Node000003"><a xlink:href="spec_2packet__flags_8h.html" target="_top" xlink:title="ODP packet flags.">
<polygon fill="white" stroke="#666666" points="1300.5,-811 1187.5,-811 1187.5,-781 1300.5,-781 1300.5,-811"/>
<text text-anchor="start" x="1195.5" y="-799" font-family="Helvetica,sans-Serif" font-size="10.00">odp/api/spec/packet</text>
<text text-anchor="middle" x="1244" y="-788" font-family="Helvetica,sans-Serif" font-size="10.00">_flags.h</text>
</a>
</g>
</g>
<!-- Node1&#45;&gt;Node3 -->
<g id="edge2_Node000001_Node000003" class="edge">
<title>Node1&#45;&gt;Node3</title>
<g id="a_edge2_Node000001_Node000003"><a xlink:title=" ">
<path fill="none" stroke="#63b8ff" d="M1189.44,-846.87C1197.73,-839.3 1210.11,-827.98 1220.99,-818.04"/>
<polygon fill="#63b8ff" stroke="#63b8ff" points="1223.54,-820.44 1228.56,-811.11 1218.82,-815.28 1223.54,-820.44"/>
</a>
</g>
</g>
<!-- Node4 -->
<g id="Node000004" class="node">
<title>Node4</title>
<g id="a_Node000004"><a xlink:title=" ">
<polygon fill="#e0e0e0" stroke="#999999" points="412.5,-19 291.5,-19 291.5,0 412.5,0 412.5,-19"/>
<text text-anchor="middle" x="352" y="-7" font-family="Helvetica,sans-Serif" font-size="10.00">odp/visibility_begin.h</text>
</a>
</g>
</g>
<!-- Node3&#45;&gt;Node4 -->
<g id="edge3_Node000003_Node000004" class="edge">
<title>Node3&#45;&gt;Node4</title>
<g id="a_edge3_Node000003_Node000004"><a xlink:title=" ">
<path fill="none" stroke="#63b8ff" d="M1187.2,-782.5C1184.09,-781.96 1181.01,-781.45 1178,-781 1048.05,-761.5 0,-807.41 0,-676 0,-676 0,-676 0,-129.5 0,-90.11 14.88,-76.32 48,-55 85.51,-30.86 203.75,-19.27 281.23,-14.13"/>
<polygon fill="#63b8ff" stroke="#63b8ff" points="281.66,-17.61 291.41,-13.48 281.21,-10.63 281.66,-17.61"/>
</a>
</g>
</g>
<!-- Node5 -->
<g id="Node000005" class="node">
<title>Node5</title>
<g id="a_Node000005"><a xlink:href="packet__types_8h.html" target="_top" xlink:title="ODP packet.">
<polygon fill="white" stroke="#666666" points="1174.5,-745 1045.5,-745 1045.5,-726 1174.5,-726 1174.5,-745"/>
<text text-anchor="middle" x="1110" y="-733" font-family="Helvetica,sans-Serif" font-size="10.00">odp/api/packet_types.h</text>
</a>
</g>
</g>
<!-- Node3&#45;&gt;Node5 -->
<g id="edge4_Node000003_Node000005" class="edge">
<title>Node3&#45;&gt;Node5</title>
<g id="a_edge4_Node000003_Node000005"><a xlink:title=" ">
<path fill="none" stroke="#63b8ff" d="M1211.9,-780.99C1189.75,-771.31 1160.52,-758.56 1139.05,-749.18"/>
<polygon fill="#63b8ff" stroke="#63b8ff" points="1140.35,-745.93 1129.79,-745.14 1137.55,-752.35 1140.35,-745.93"/>
</a>
</g>
</g>
<!-- Node11 -->
<g id="Node000011" class="node">
<title>Node11</title>
<g id="a_Node000011"><a xlink:title=" ">
<polygon fill="#e0e0e0" stroke="#999999" points="1085,-19 973,-19 973,0 1085,0 1085,-19"/>
<text text-anchor="middle" x="1029" y="-7" font-family="Helvetica,sans-Serif" font-size="10.00">odp/visibility_end.h</text>
</a>
</g>
</g>
<!-- Node3&#45;&gt;Node11 -->
<g id="edge61_Node000003_Node000011" class="edge">
<title>Node3&#45;&gt;Node11</title>
<g id="a_edge61_Node000003_Node000011"><a xlink:title=" ">
<path fill="none" stroke="#63b8ff" d="M1286.62,-780.88C1329.72,-763.59 1390,-729.79 1390,-676 1390,-676 1390,-676 1390,-129.5 1390,-75.14 1342.83,-76.72 1293,-55 1229.45,-27.31 1150.35,-16.78 1095.38,-12.81"/>
<polygon fill="#63b8ff" stroke="#63b8ff" points="1095.27,-9.3 1085.06,-12.12 1094.81,-16.28 1095.27,-9.3"/>
</a>
</g>
</g>
<!-- Node15 -->
<g id="Node000015" class="node">
<title>Node15</title>
<g id="a_Node000015"><a xlink:href="std__types_8h.html" target="_top" xlink:title="Standard C language types and definitions for ODP.">
<polygon fill="white" stroke="#666666" points="938,-250 826,-250 826,-231 938,-231 938,-250"/>
<text text-anchor="middle" x="882" y="-238" font-family="Helvetica,sans-Serif" font-size="10.00">odp/api/std_types.h</text>
</a>
</g>
</g>
<!-- Node3&#45;&gt;Node15 -->
<g id="edge60_Node000003_Node000015" class="edge">
<title>Node3&#45;&gt;Node15</title>
<g id="a_edge60_Node000003_Node000015"><a xlink:title=" ">
<path fill="none" stroke="#63b8ff" d="M1259.19,-780.82C1279.78,-759.99 1314,-718.9 1314,-676 1314,-676 1314,-676 1314,-366 1314,-329.46 1322.41,-310.16 1295,-286 1269.56,-263.57 1058.47,-250.08 948.33,-244.5"/>
<polygon fill="#63b8ff" stroke="#63b8ff" points="948.48,-241 938.32,-244 948.14,-247.99 948.48,-241"/>
</a>
</g>
</g>
<!-- Node6 -->
<g id="Node000006" class="node">
<title>Node6</title>
<g id="a_Node000006"><a xlink:title=" ">
<polygon fill="#e0e0e0" stroke="#999999" points="975,-690 869,-690 869,-660 975,-660 975,-690"/>
<text text-anchor="start" x="877" y="-678" font-family="Helvetica,sans-Serif" font-size="10.00">odp/api/abi/packet</text>
<text text-anchor="middle" x="922" y="-667" font-family="Helvetica,sans-Serif" font-size="10.00">_io_types.h</text>
</a>
</g>
</g>
<!-- Node5&#45;&gt;Node6 -->
<g id="edge5_Node000005_Node000006" class="edge">
<title>Node5&#45;&gt;Node6</title>
<g id="a_edge5_Node000005_Node000006"><a xlink:title=" ">
<path fill="none" stroke="#63b8ff" d="M1082.66,-725.99C1055.02,-717.39 1011.52,-703.86 976.75,-693.04"/>
<polygon fill="#63b8ff" stroke="#63b8ff" points="977.79,-689.69 967.2,-690.06 975.71,-696.38 977.79,-689.69"/>
</a>
</g>
</g>
<!-- Node7 -->
<g id="Node000007" class="node">
<title>Node7</title>
<g id="a_Node000007"><a xlink:title=" ">
<polygon fill="#e0e0e0" stroke="#999999" points="1099,-690 993,-690 993,-660 1099,-660 1099,-690"/>
<text text-anchor="start" x="1001" y="-678" font-family="Helvetica,sans-Serif" font-size="10.00">odp/api/abi/packet</text>
<text text-anchor="middle" x="1046" y="-667" font-family="Helvetica,sans-Serif" font-size="10.00">_types.h</text>
</a>
</g>
</g>
<!-- Node5&#45;&gt;Node7 -->
<g id="edge6_Node000005_Node000007" class="edge">
<title>Node5&#45;&gt;Node7</title>
<g id="a_edge6_Node000005_Node000007"><a xlink:title=" ">
<path fill="none" stroke="#63b8ff" d="M1100.56,-725.87C1092.27,-718.3 1079.89,-706.98 1069.01,-697.04"/>
<polygon fill="#63b8ff" stroke="#63b8ff" points="1071.18,-694.28 1061.44,-690.11 1066.46,-699.44 1071.18,-694.28"/>
</a>
</g>
</g>
<!-- Node8 -->
<g id="Node000008" class="node">
<title>Node8</title>
<g id="a_Node000008"><a xlink:href="spec_2packet__types_8h.html" target="_top" xlink:title="ODP packet types.">
<polygon fill="white" stroke="#666666" points="1230.5,-690 1117.5,-690 1117.5,-660 1230.5,-660 1230.5,-690"/>
<text text-anchor="start" x="1125.5" y="-678" font-family="Helvetica,sans-Serif" font-size="10.00">odp/api/spec/packet</text>
<text text-anchor="middle" x="1174" y="-667" font-family="Helvetica,sans-Serif" font-size="10.00">_types.h</text>
</a>
</g>
</g>
<!-- Node5&#45;&gt;Node8 -->
<g id="edge7_Node000005_Node000008" class="edge">
<title>Node5&#45;&gt;Node8</title>
<g id="a_edge7_Node000005_Node000008"><a xlink:title=" ">
<path fill="none" stroke="#63b8ff" d="M1119.44,-725.87C1127.73,-718.3 1140.11,-706.98 1150.99,-697.04"/>
<polygon fill="#63b8ff" stroke="#63b8ff" points="1153.54,-699.44 1158.56,-690.11 1148.82,-694.28 1153.54,-699.44"/>
</a>
</g>
</g>
<!-- Node8&#45;&gt;Node4 -->
<g id="edge8_Node000008_Node000004" class="edge">
<title>Node8&#45;&gt;Node4</title>
<g id="a_edge8_Node000008_Node000004"><a xlink:title=" ">
<path fill="none" stroke="#63b8ff" d="M1117.21,-661.43C1114.1,-660.9 1111.02,-660.42 1108,-660 989.7,-643.42 38,-674.46 38,-555 38,-555 38,-555 38,-129.5 38,-89.87 53.8,-76.64 87,-55 118.22,-34.65 213.72,-22.36 281.09,-16.01"/>
<polygon fill="#63b8ff" stroke="#63b8ff" points="281.59,-19.47 291.22,-15.07 280.95,-12.5 281.59,-19.47"/>
</a>
</g>
</g>
<!-- Node9 -->
<g id="Node000009" class="node">
<title>Node9</title>
<g id="a_Node000009"><a xlink:href="deprecated_8h.html" target="_top" xlink:title="Control deprecated API definitions.">
<polygon fill="white" stroke="#666666" points="1189.5,-624 1070.5,-624 1070.5,-605 1189.5,-605 1189.5,-624"/>
<text text-anchor="middle" x="1130" y="-612" font-family="Helvetica,sans-Serif" font-size="10.00">odp/api/deprecated.h</text>
</a>
</g>
</g>
<!-- Node8&#45;&gt;Node9 -->
<g id="edge9_Node000008_Node000009" class="edge">
<title>Node8&#45;&gt;Node9</title>
<g id="a_edge9_Node000008_Node000009"><a xlink:title=" ">
<path fill="none" stroke="#63b8ff" d="M1163.35,-659.84C1157.16,-651.61 1149.31,-641.18 1142.79,-632.51"/>
<polygon fill="#63b8ff" stroke="#63b8ff" points="1145.4,-630.15 1136.59,-624.27 1139.81,-634.36 1145.4,-630.15"/>
</a>
</g>
</g>
<!-- Node8&#45;&gt;Node11 -->
<g id="edge59_Node000008_Node000011" class="edge">
<title>Node8&#45;&gt;Node11</title>
<g id="a_edge59_Node000008_Node000011"><a xlink:title=" ">
<path fill="none" stroke="#63b8ff" d="M1205.41,-660C1256.51,-634.83 1352,-576.79 1352,-494.5 1352,-494.5 1352,-494.5 1352,-129.5 1352,-74.94 1187.67,-37.67 1093.44,-20.78"/>
<polygon fill="#63b8ff" stroke="#63b8ff" points="1093.88,-17.31 1083.43,-19.02 1092.67,-24.2 1093.88,-17.31"/>
</a>
</g>
</g>
<!-- Node12 -->
<g id="Node000012" class="node">
<title>Node12</title>
<g id="a_Node000012"><a xlink:href="proto__stats__types_8h.html" target="_top" xlink:title="ODP proto stats types.">
<polygon fill="white" stroke="#666666" points="1273,-382 1163,-382 1163,-352 1273,-352 1273,-382"/>
<text text-anchor="start" x="1171" y="-370" font-family="Helvetica,sans-Serif" font-size="10.00">odp/api/proto_stats</text>
<text text-anchor="middle" x="1218" y="-359" font-family="Helvetica,sans-Serif" font-size="10.00">_types.h</text>
</a>
</g>
</g>
<!-- Node8&#45;&gt;Node12 -->
<g id="edge13_Node000008_Node000012" class="edge">
<title>Node8&#45;&gt;Node12</title>
<g id="a_edge13_Node000008_Node000012"><a xlink:title=" ">
<path fill="none" stroke="#63b8ff" d="M1182.9,-659.97C1195.76,-638.32 1218,-595.09 1218,-555 1218,-555 1218,-555 1218,-492.5 1218,-457.67 1218,-417.35 1218,-392.26"/>
<polygon fill="#63b8ff" stroke="#63b8ff" points="1221.5,-392.19 1218,-382.19 1214.5,-392.19 1221.5,-392.19"/>
</a>
</g>
</g>
<!-- Node22 -->
<g id="Node000022" class="node">
<title>Node22</title>
<g id="a_Node000022"><a xlink:href="queue__types_8h.html" target="_top" xlink:title="ODP queue.">
<polygon fill="white" stroke="#666666" points="727.5,-624 600.5,-624 600.5,-605 727.5,-605 727.5,-624"/>
<text text-anchor="middle" x="664" y="-612" font-family="Helvetica,sans-Serif" font-size="10.00">odp/api/queue_types.h</text>
</a>
</g>
</g>
<!-- Node8&#45;&gt;Node22 -->
<g id="edge29_Node000008_Node000022" class="edge">
<title>Node8&#45;&gt;Node22</title>
<g id="a_edge29_Node000008_Node000022"><a xlink:title=" ">
<path fill="none" stroke="#63b8ff" d="M1117.19,-661.54C1114.09,-660.99 1111.01,-660.47 1108,-660 978.41,-639.82 826.04,-626.87 737.7,-620.41"/>
<polygon fill="#63b8ff" stroke="#63b8ff" points="737.74,-616.91 727.51,-619.68 737.23,-623.89 737.74,-616.91"/>
</a>
</g>
</g>
<!-- Node10 -->
<g id="Node000010" class="node">
<title>Node10</title>
<g id="a_Node000010"><a xlink:href="spec_2deprecated_8h.html" target="_top" xlink:title="Macro for deprecated API definitions.">
<polygon fill="white" stroke="#666666" points="1101.5,-79.5 956.5,-79.5 956.5,-60.5 1101.5,-60.5 1101.5,-79.5"/>
<text text-anchor="middle" x="1029" y="-67.5" font-family="Helvetica,sans-Serif" font-size="10.00">odp/api/spec/deprecated.h</text>
</a>
</g>
</g>
<!-- Node9&#45;&gt;Node10 -->
<g id="edge10_Node000009_Node000010" class="edge">
<title>Node9&#45;&gt;Node10</title>
<g id="a_edge10_Node000009_Node000010"><a xlink:title=" ">
<path fill="none" stroke="#63b8ff" d="M1130,-604.84C1130,-585.21 1130,-535.82 1130,-494.5 1130,-494.5 1130,-494.5 1130,-432 1130,-345.67 1092,-327.83 1092,-241.5 1092,-241.5 1092,-241.5 1092,-184.5 1092,-145.68 1063.47,-107.71 1044.81,-87.02"/>
<polygon fill="#63b8ff" stroke="#63b8ff" points="1047.15,-84.4 1037.76,-79.5 1042.05,-89.19 1047.15,-84.4"/>
</a>
</g>
</g>
<!-- Node10&#45;&gt;Node4 -->
<g id="edge11_Node000010_Node000004" class="edge">
<title>Node10&#45;&gt;Node4</title>
<g id="a_edge11_Node000010_Node000004"><a xlink:title=" ">
<path fill="none" stroke="#63b8ff" d="M956.23,-62.71C825.39,-51.41 552.03,-27.78 422.71,-16.61"/>
<polygon fill="#63b8ff" stroke="#63b8ff" points="422.79,-13.1 412.52,-15.73 422.18,-20.08 422.79,-13.1"/>
</a>
</g>
</g>
<!-- Node10&#45;&gt;Node11 -->
<g id="edge12_Node000010_Node000011" class="edge">
<title>Node10&#45;&gt;Node11</title>
<g id="a_edge12_Node000010_Node000011"><a xlink:title=" ">
<path fill="none" stroke="#63b8ff" d="M1029,-60.37C1029,-52.25 1029,-39.81 1029,-29.39"/>
<polygon fill="#63b8ff" stroke="#63b8ff" points="1032.5,-29.17 1029,-19.17 1025.5,-29.17 1032.5,-29.17"/>
</a>
</g>
</g>
<!-- Node13 -->
<g id="Node000013" class="node">
<title>Node13</title>
<g id="a_Node000013"><a xlink:title=" ">
<polygon fill="#e0e0e0" stroke="#999999" points="1286,-316 1158,-316 1158,-286 1286,-286 1286,-316"/>
<text text-anchor="start" x="1166" y="-304" font-family="Helvetica,sans-Serif" font-size="10.00">odp/api/abi/proto_stats</text>
<text text-anchor="middle" x="1222" y="-293" font-family="Helvetica,sans-Serif" font-size="10.00">_types.h</text>
</a>
</g>
</g>
<!-- Node12&#45;&gt;Node13 -->
<g id="edge14_Node000012_Node000013" class="edge">
<title>Node12&#45;&gt;Node13</title>
<g id="a_edge14_Node000012_Node000013"><a xlink:title=" ">
<path fill="none" stroke="#63b8ff" d="M1218.89,-351.8C1219.35,-344.34 1219.94,-334.99 1220.47,-326.41"/>
<polygon fill="#63b8ff" stroke="#63b8ff" points="1223.98,-326.36 1221.11,-316.16 1217,-325.93 1223.98,-326.36"/>
</a>
</g>
</g>
<!-- Node14 -->
<g id="Node000014" class="node">
<title>Node14</title>
<g id="a_Node000014"><a xlink:href="spec_2proto__stats__types_8h.html" target="_top" xlink:title="ODP proto stats types.">
<polygon fill="white" stroke="#666666" points="1021.5,-316 914.5,-316 914.5,-286 1021.5,-286 1021.5,-316"/>
<text text-anchor="start" x="922.5" y="-304" font-family="Helvetica,sans-Serif" font-size="10.00">odp/api/spec/proto</text>
<text text-anchor="middle" x="968" y="-293" font-family="Helvetica,sans-Serif" font-size="10.00">_stats_types.h</text>
</a>
</g>
</g>
<!-- Node12&#45;&gt;Node14 -->
<g id="edge15_Node000012_Node000014" class="edge">
<title>Node12&#45;&gt;Node14</title>
<g id="a_edge15_Node000012_Node000014"><a xlink:title=" ">
<path fill="none" stroke="#63b8ff" d="M1163.14,-351.95C1124.36,-342.03 1072.28,-328.7 1031.67,-318.3"/>
<polygon fill="#63b8ff" stroke="#63b8ff" points="1032.43,-314.88 1021.88,-315.79 1030.7,-321.66 1032.43,-314.88"/>
</a>
</g>
</g>
<!-- Node14&#45;&gt;Node4 -->
<g id="edge16_Node000014_Node000004" class="edge">
<title>Node14&#45;&gt;Node4</title>
<g id="a_edge16_Node000014_Node000004"><a xlink:title=" ">
<path fill="none" stroke="#63b8ff" d="M967.99,-285.92C967.15,-269.97 963.16,-244.47 947,-231 839.09,-141.07 758.94,-257.22 633,-195 594.25,-175.86 534.85,-77.58 498,-55 471.74,-38.91 439.23,-28.26 411.56,-21.42"/>
<polygon fill="#63b8ff" stroke="#63b8ff" points="412.14,-17.96 401.6,-19.07 410.53,-24.78 412.14,-17.96"/>
</a>
</g>
</g>
<!-- Node14&#45;&gt;Node11 -->
<g id="edge28_Node000014_Node000011" class="edge">
<title>Node14&#45;&gt;Node11</title>
<g id="a_edge28_Node000014_Node000011"><a xlink:title=" ">
<path fill="none" stroke="#63b8ff" d="M981.81,-285.96C1012.37,-253.77 1085.06,-170.82 1111,-85 1114.86,-72.24 1117.82,-66.46 1111,-55 1102.08,-40.02 1086.16,-29.76 1070.71,-22.91"/>
<polygon fill="#63b8ff" stroke="#63b8ff" points="1071.8,-19.58 1061.21,-19.08 1069.17,-26.07 1071.8,-19.58"/>
</a>
</g>
</g>
<!-- Node14&#45;&gt;Node15 -->
<g id="edge17_Node000014_Node000015" class="edge">
<title>Node14&#45;&gt;Node15</title>
<g id="a_edge17_Node000014_Node000015"><a xlink:title=" ">
<path fill="none" stroke="#63b8ff" d="M947.18,-285.84C933.85,-276.77 916.61,-265.04 903.21,-255.92"/>
<polygon fill="#63b8ff" stroke="#63b8ff" points="904.87,-252.83 894.63,-250.09 900.93,-258.61 904.87,-252.83"/>
</a>
</g>
</g>
<!-- Node16 -->
<g id="Node000016" class="node">
<title>Node16</title>
<g id="a_Node000016"><a xlink:title=" ">
<polygon fill="#e0e0e0" stroke="#999999" points="1004,-195 874,-195 874,-176 1004,-176 1004,-195"/>
<text text-anchor="middle" x="939" y="-183" font-family="Helvetica,sans-Serif" font-size="10.00">odp/api/abi/std_types.h</text>
</a>
</g>
</g>
<!-- Node15&#45;&gt;Node16 -->
<g id="edge18_Node000015_Node000016" class="edge">
<title>Node15&#45;&gt;Node16</title>
<g id="a_edge18_Node000015_Node000016"><a xlink:title=" ">
<path fill="none" stroke="#63b8ff" d="M891.16,-230.98C899.5,-223.23 912.03,-211.58 922.18,-202.14"/>
<polygon fill="#63b8ff" stroke="#63b8ff" points="924.74,-204.54 929.68,-195.17 919.97,-199.42 924.74,-204.54"/>
</a>
</g>
</g>
<!-- Node17 -->
<g id="Node000017" class="node">
<title>Node17</title>
<g id="a_Node000017"><a xlink:href="spec_2std__types_8h.html" target="_top" xlink:title="Common types and definitions for ODP API files.">
<polygon fill="white" stroke="#666666" points="779.5,-195 642.5,-195 642.5,-176 779.5,-176 779.5,-195"/>
<text text-anchor="middle" x="711" y="-183" font-family="Helvetica,sans-Serif" font-size="10.00">odp/api/spec/std_types.h</text>
</a>
</g>
</g>
<!-- Node15&#45;&gt;Node17 -->
<g id="edge19_Node000015_Node000017" class="edge">
<title>Node15&#45;&gt;Node17</title>
<g id="a_edge19_Node000015_Node000017"><a xlink:title=" ">
<path fill="none" stroke="#63b8ff" d="M854.53,-230.98C825.82,-222.09 780.58,-208.07 748.58,-198.15"/>
<polygon fill="#63b8ff" stroke="#63b8ff" points="749.28,-194.7 738.69,-195.08 747.2,-201.39 749.28,-194.7"/>
</a>
</g>
</g>
<!-- Node17&#45;&gt;Node4 -->
<g id="edge20_Node000017_Node000004" class="edge">
<title>Node17&#45;&gt;Node4</title>
<g id="a_edge20_Node000017_Node000004"><a xlink:title=" ">
<path fill="none" stroke="#63b8ff" d="M681.86,-175.92C659.96,-168.58 629.92,-156.57 607,-140 566.17,-110.48 575.08,-81.12 532,-55 499.06,-35.02 457.57,-24 422.73,-17.92"/>
<polygon fill="#63b8ff" stroke="#63b8ff" points="423.06,-14.43 412.63,-16.26 421.93,-21.34 423.06,-14.43"/>
</a>
</g>
</g>
<!-- Node17&#45;&gt;Node11 -->
<g id="edge27_Node000017_Node000011" class="edge">
<title>Node17&#45;&gt;Node11</title>
<g id="a_edge27_Node000017_Node000011"><a xlink:title=" ">
<path fill="none" stroke="#63b8ff" d="M727.51,-175.88C742.94,-167.53 766.33,-154.09 785,-140 829.18,-106.67 827.89,-82.36 876,-55 904.28,-38.91 938.88,-28.21 968.01,-21.35"/>
<polygon fill="#63b8ff" stroke="#63b8ff" points="969.09,-24.69 978.07,-19.08 967.55,-17.86 969.09,-24.69"/>
</a>
</g>
</g>
<!-- Node18 -->
<g id="Node000018" class="node">
<title>Node18</title>
<g id="a_Node000018"><a xlink:title=" ">
<polygon fill="#e0e0e0" stroke="#999999" points="776.5,-140 723.5,-140 723.5,-121 776.5,-121 776.5,-140"/>
<text text-anchor="middle" x="750" y="-128" font-family="Helvetica,sans-Serif" font-size="10.00">stdint.h</text>
</a>
</g>
</g>
<!-- Node17&#45;&gt;Node18 -->
<g id="edge21_Node000017_Node000018" class="edge">
<title>Node17&#45;&gt;Node18</title>
<g id="a_edge21_Node000017_Node000018"><a xlink:title=" ">
<path fill="none" stroke="#63b8ff" d="M717.44,-175.75C722.89,-168.34 730.86,-157.5 737.56,-148.41"/>
<polygon fill="#63b8ff" stroke="#63b8ff" points="740.57,-150.22 743.68,-140.09 734.93,-146.07 740.57,-150.22"/>
</a>
</g>
</g>
<!-- Node19 -->
<g id="Node000019" class="node">
<title>Node19</title>
<g id="a_Node000019"><a xlink:href="align_8h.html" target="_top" xlink:title="ODP alignments.">
<polygon fill="white" stroke="#666666" points="705.5,-140 616.5,-140 616.5,-121 705.5,-121 705.5,-140"/>
<text text-anchor="middle" x="661" y="-128" font-family="Helvetica,sans-Serif" font-size="10.00">odp/api/align.h</text>
</a>
</g>
</g>
<!-- Node17&#45;&gt;Node19 -->
<g id="edge22_Node000017_Node000019" class="edge">
<title>Node17&#45;&gt;Node19</title>
<g id="a_edge22_Node000017_Node000019"><a xlink:title=" ">
<path fill="none" stroke="#63b8ff" d="M702.74,-175.75C695.54,-168.11 684.89,-156.82 676.15,-147.56"/>
<polygon fill="#63b8ff" stroke="#63b8ff" points="678.51,-144.96 669.1,-140.09 673.42,-149.76 678.51,-144.96"/>
</a>
</g>
</g>
<!-- Node20 -->
<g id="Node000020" class="node">
<title>Node20</title>
<g id="a_Node000020"><a xlink:title=" ">
<polygon fill="#e0e0e0" stroke="#999999" points="823.5,-79.5 716.5,-79.5 716.5,-60.5 823.5,-60.5 823.5,-79.5"/>
<text text-anchor="middle" x="770" y="-67.5" font-family="Helvetica,sans-Serif" font-size="10.00">odp/api/abi/align.h</text>
</a>
</g>
</g>
<!-- Node19&#45;&gt;Node20 -->
<g id="edge23_Node000019_Node000020" class="edge">
<title>Node19&#45;&gt;Node20</title>
<g id="a_edge23_Node000019_Node000020"><a xlink:title=" ">
<path fill="none" stroke="#63b8ff" d="M677.08,-120.87C694.95,-111.28 724.04,-95.67 744.91,-84.47"/>
<polygon fill="#63b8ff" stroke="#63b8ff" points="746.69,-87.48 753.85,-79.67 743.38,-81.31 746.69,-87.48"/>
</a>
</g>
</g>
<!-- Node21 -->
<g id="Node000021" class="node">
<title>Node21</title>
<g id="a_Node000021"><a xlink:href="spec_2align_8h.html" target="_top" xlink:title="ODP alignments.">
<polygon fill="white" stroke="#666666" points="698,-79.5 584,-79.5 584,-60.5 698,-60.5 698,-79.5"/>
<text text-anchor="middle" x="641" y="-67.5" font-family="Helvetica,sans-Serif" font-size="10.00">odp/api/spec/align.h</text>
</a>
</g>
</g>
<!-- Node19&#45;&gt;Node21 -->
<g id="edge24_Node000019_Node000021" class="edge">
<title>Node19&#45;&gt;Node21</title>
<g id="a_edge24_Node000019_Node000021"><a xlink:title=" ">
<path fill="none" stroke="#63b8ff" d="M658.05,-120.87C655.21,-112.57 650.84,-99.78 647.23,-89.22"/>
<polygon fill="#63b8ff" stroke="#63b8ff" points="650.51,-88 643.96,-79.67 643.89,-90.26 650.51,-88"/>
</a>
</g>
</g>
<!-- Node21&#45;&gt;Node4 -->
<g id="edge25_Node000021_Node000004" class="edge">
<title>Node21&#45;&gt;Node4</title>
<g id="a_edge25_Node000021_Node000004"><a xlink:title=" ">
<path fill="none" stroke="#63b8ff" d="M598.98,-60.49C547.4,-50.05 459.92,-32.35 404.11,-21.05"/>
<polygon fill="#63b8ff" stroke="#63b8ff" points="404.57,-17.57 394.07,-19.02 403.18,-24.43 404.57,-17.57"/>
</a>
</g>
</g>
<!-- Node21&#45;&gt;Node11 -->
<g id="edge26_Node000021_Node000011" class="edge">
<title>Node21&#45;&gt;Node11</title>
<g id="a_edge26_Node000021_Node000011"><a xlink:title=" ">
<path fill="none" stroke="#63b8ff" d="M678.95,-60.46C688.11,-58.54 697.88,-56.59 707,-55 795.12,-39.59 897.57,-26.2 962.82,-18.24"/>
<polygon fill="#63b8ff" stroke="#63b8ff" points="963.46,-21.69 972.97,-17.01 962.62,-14.74 963.46,-21.69"/>
</a>
</g>
</g>
<!-- Node23 -->
<g id="Node000023" class="node">
<title>Node23</title>
<g id="a_Node000023"><a xlink:title=" ">
<polygon fill="#e0e0e0" stroke="#999999" points="590.5,-563.5 445.5,-563.5 445.5,-544.5 590.5,-544.5 590.5,-563.5"/>
<text text-anchor="middle" x="518" y="-551.5" font-family="Helvetica,sans-Serif" font-size="10.00">odp/api/abi/queue_types.h</text>
</a>
</g>
</g>
<!-- Node22&#45;&gt;Node23 -->
<g id="edge30_Node000022_Node000023" class="edge">
<title>Node22&#45;&gt;Node23</title>
<g id="a_edge30_Node000022_Node000023"><a xlink:title=" ">
<path fill="none" stroke="#63b8ff" d="M642.77,-604.99C618.01,-595.07 576.88,-578.59 548.65,-567.28"/>
<polygon fill="#63b8ff" stroke="#63b8ff" points="549.84,-563.99 539.26,-563.52 547.24,-570.49 549.84,-563.99"/>
</a>
</g>
</g>
<!-- Node24 -->
<g id="Node000024" class="node">
<title>Node24</title>
<g id="a_Node000024"><a xlink:href="spec_2queue__types_8h.html" target="_top" xlink:title="ODP queue types.">
<polygon fill="white" stroke="#666666" points="719.5,-569 608.5,-569 608.5,-539 719.5,-539 719.5,-569"/>
<text text-anchor="start" x="616.5" y="-557" font-family="Helvetica,sans-Serif" font-size="10.00">odp/api/spec/queue</text>
<text text-anchor="middle" x="664" y="-546" font-family="Helvetica,sans-Serif" font-size="10.00">_types.h</text>
</a>
</g>
</g>
<!-- Node22&#45;&gt;Node24 -->
<g id="edge31_Node000022_Node000024" class="edge">
<title>Node22&#45;&gt;Node24</title>
<g id="a_edge31_Node000022_Node000024"><a xlink:title=" ">
<path fill="none" stroke="#63b8ff" d="M664,-604.87C664,-598.11 664,-588.35 664,-579.26"/>
<polygon fill="#63b8ff" stroke="#63b8ff" points="667.5,-579.11 664,-569.11 660.5,-579.11 667.5,-579.11"/>
</a>
</g>
</g>
<!-- Node24&#45;&gt;Node4 -->
<g id="edge32_Node000024_Node000004" class="edge">
<title>Node24&#45;&gt;Node4</title>
<g id="a_edge32_Node000024_Node000004"><a xlink:title=" ">
<path fill="none" stroke="#63b8ff" d="M608.34,-540.96C605.18,-540.29 602.05,-539.63 599,-539 482.94,-514.85 76,-552.54 76,-434 76,-434 76,-434 76,-129.5 76,-40.09 199.66,-17.06 281.43,-11.6"/>
<polygon fill="#63b8ff" stroke="#63b8ff" points="281.66,-15.09 291.43,-11.01 281.24,-8.11 281.66,-15.09"/>
</a>
</g>
</g>
<!-- Node24&#45;&gt;Node11 -->
<g id="edge58_Node000024_Node000011" class="edge">
<title>Node24&#45;&gt;Node11</title>
<g id="a_edge58_Node000024_Node000011"><a xlink:title=" ">
<path fill="none" stroke="#63b8ff" d="M696.54,-538.94C767.97,-506.98 941.44,-423.28 1059,-316 1088.06,-289.48 1094.05,-281.21 1118,-250 1171.38,-180.43 1207.1,-119.78 1148,-55 1133.24,-38.82 1112.03,-28.5 1091.6,-21.93"/>
<polygon fill="#63b8ff" stroke="#63b8ff" points="1092.56,-18.56 1081.97,-19.07 1090.57,-25.27 1092.56,-18.56"/>
</a>
</g>
</g>
<!-- Node25 -->
<g id="Node000025" class="node">
<title>Node25</title>
<g id="a_Node000025"><a xlink:href="event__vector__types_8h.html" target="_top" xlink:title="ODP event vector API type definitions.">
<polygon fill="white" stroke="#666666" points="395.5,-382 276.5,-382 276.5,-352 395.5,-352 395.5,-382"/>
<text text-anchor="start" x="284.5" y="-370" font-family="Helvetica,sans-Serif" font-size="10.00">odp/api/event_vector</text>
<text text-anchor="middle" x="336" y="-359" font-family="Helvetica,sans-Serif" font-size="10.00">_types.h</text>
</a>
</g>
</g>
<!-- Node24&#45;&gt;Node25 -->
<g id="edge33_Node000024_Node000025" class="edge">
<title>Node24&#45;&gt;Node25</title>
<g id="a_edge33_Node000024_Node000025"><a xlink:title=" ">
<path fill="none" stroke="#63b8ff" d="M639.08,-538.94C580.82,-506.09 435.69,-424.23 369.66,-386.98"/>
<polygon fill="#63b8ff" stroke="#63b8ff" points="371.31,-383.9 360.88,-382.04 367.88,-390 371.31,-383.9"/>
</a>
</g>
</g>
<!-- Node32 -->
<g id="Node000032" class="node">
<title>Node32</title>
<g id="a_Node000032"><a xlink:href="schedule__types_8h.html" target="_top" xlink:title="ODP schedule.">
<polygon fill="white" stroke="#666666" points="734,-503 594,-503 594,-484 734,-484 734,-503"/>
<text text-anchor="middle" x="664" y="-491" font-family="Helvetica,sans-Serif" font-size="10.00">odp/api/schedule_types.h</text>
</a>
</g>
</g>
<!-- Node24&#45;&gt;Node32 -->
<g id="edge45_Node000024_Node000032" class="edge">
<title>Node24&#45;&gt;Node32</title>
<g id="a_edge45_Node000024_Node000032"><a xlink:title=" ">
<path fill="none" stroke="#63b8ff" d="M664,-538.84C664,-531.21 664,-521.7 664,-513.45"/>
<polygon fill="#63b8ff" stroke="#63b8ff" points="667.5,-513.27 664,-503.27 660.5,-513.27 667.5,-513.27"/>
</a>
</g>
</g>
<!-- Node26 -->
<g id="Node000026" class="node">
<title>Node26</title>
<g id="a_Node000026"><a xlink:title=" ">
<polygon fill="#e0e0e0" stroke="#999999" points="395.5,-316 258.5,-316 258.5,-286 395.5,-286 395.5,-316"/>
<text text-anchor="start" x="266.5" y="-304" font-family="Helvetica,sans-Serif" font-size="10.00">odp/api/abi/event_vector</text>
<text text-anchor="middle" x="327" y="-293" font-family="Helvetica,sans-Serif" font-size="10.00">_types.h</text>
</a>
</g>
</g>
<!-- Node25&#45;&gt;Node26 -->
<g id="edge34_Node000025_Node000026" class="edge">
<title>Node25&#45;&gt;Node26</title>
<g id="a_edge34_Node000025_Node000026"><a xlink:title=" ">
<path fill="none" stroke="#63b8ff" d="M334,-351.8C332.94,-344.26 331.61,-334.78 330.39,-326.13"/>
<polygon fill="#63b8ff" stroke="#63b8ff" points="333.85,-325.58 328.99,-316.16 326.92,-326.55 333.85,-325.58"/>
</a>
</g>
</g>
<!-- Node27 -->
<g id="Node000027" class="node">
<title>Node27</title>
<g id="a_Node000027"><a xlink:title=" ">
<polygon fill="#e0e0e0" stroke="#999999" points="240,-310.5 104,-310.5 104,-291.5 240,-291.5 240,-310.5"/>
<text text-anchor="middle" x="172" y="-298.5" font-family="Helvetica,sans-Serif" font-size="10.00">odp/api/abi/pool_types.h</text>
</a>
</g>
</g>
<!-- Node25&#45;&gt;Node27 -->
<g id="edge35_Node000025_Node000027" class="edge">
<title>Node25&#45;&gt;Node27</title>
<g id="a_edge35_Node000025_Node000027"><a xlink:title=" ">
<path fill="none" stroke="#63b8ff" d="M300.01,-351.95C271.12,-340.68 230.97,-325.01 203.38,-314.25"/>
<polygon fill="#63b8ff" stroke="#63b8ff" points="204.41,-310.89 193.83,-310.52 201.87,-317.41 204.41,-310.89"/>
</a>
</g>
</g>
<!-- Node28 -->
<g id="Node000028" class="node">
<title>Node28</title>
<g id="a_Node000028"><a xlink:href="spec_2event__vector__types_8h.html" target="_top" xlink:title="ODP event vector API type definitions.">
<polygon fill="white" stroke="#666666" points="561.5,-316 452.5,-316 452.5,-286 561.5,-286 561.5,-316"/>
<text text-anchor="start" x="460.5" y="-304" font-family="Helvetica,sans-Serif" font-size="10.00">odp/api/spec/event</text>
<text text-anchor="middle" x="507" y="-293" font-family="Helvetica,sans-Serif" font-size="10.00">_vector_types.h</text>
</a>
</g>
</g>
<!-- Node25&#45;&gt;Node28 -->
<g id="edge36_Node000025_Node000028" class="edge">
<title>Node25&#45;&gt;Node28</title>
<g id="a_edge36_Node000025_Node000028"><a xlink:title=" ">
<path fill="none" stroke="#63b8ff" d="M373.53,-351.95C398.92,-342.45 432.66,-329.82 459.86,-319.64"/>
<polygon fill="#63b8ff" stroke="#63b8ff" points="461.42,-322.8 469.56,-316.01 458.97,-316.24 461.42,-322.8"/>
</a>
</g>
</g>
<!-- Node28&#45;&gt;Node4 -->
<g id="edge37_Node000028_Node000004" class="edge">
<title>Node28&#45;&gt;Node4</title>
<g id="a_edge37_Node000028_Node000004"><a xlink:title=" ">
<path fill="none" stroke="#63b8ff" d="M452.31,-288.26C352.73,-266.12 152,-217.64 152,-186.5 152,-186.5 152,-186.5 152,-129.5 152,-95.33 146.73,-79.06 171,-55 186.72,-39.41 237.35,-27.77 281.08,-20.32"/>
<polygon fill="#63b8ff" stroke="#63b8ff" points="281.86,-23.74 291.15,-18.65 280.72,-16.83 281.86,-23.74"/>
</a>
</g>
</g>
<!-- Node28&#45;&gt;Node11 -->
<g id="edge44_Node000028_Node000011" class="edge">
<title>Node28&#45;&gt;Node11</title>
<g id="a_edge44_Node000028_Node000011"><a xlink:title=" ">
<path fill="none" stroke="#63b8ff" d="M561.55,-287.31C620.71,-271.85 716.28,-241.86 788,-195 860.62,-147.55 852.42,-104.01 924,-55 944.59,-40.9 970.36,-29.9 991.21,-22.36"/>
<polygon fill="#63b8ff" stroke="#63b8ff" points="992.43,-25.65 1000.71,-19.04 990.12,-19.04 992.43,-25.65"/>
</a>
</g>
</g>
<!-- Node28&#45;&gt;Node15 -->
<g id="edge43_Node000028_Node000015" class="edge">
<title>Node28&#45;&gt;Node15</title>
<g id="a_edge43_Node000028_Node000015"><a xlink:title=" ">
<path fill="none" stroke="#63b8ff" d="M561.56,-287.96C565.09,-287.27 568.59,-286.61 572,-286 655.65,-271.01 752.71,-257.73 815.63,-249.67"/>
<polygon fill="#63b8ff" stroke="#63b8ff" points="816.33,-253.11 825.81,-248.37 815.45,-246.16 816.33,-253.11"/>
</a>
</g>
</g>
<!-- Node29 -->
<g id="Node000029" class="node">
<title>Node29</title>
<g id="a_Node000029"><a xlink:href="event__types_8h.html" target="_top" xlink:title="ODP event API type definitions.">
<polygon fill="white" stroke="#666666" points="451.5,-140 326.5,-140 326.5,-121 451.5,-121 451.5,-140"/>
<text text-anchor="middle" x="389" y="-128" font-family="Helvetica,sans-Serif" font-size="10.00">odp/api/event_types.h</text>
</a>
</g>
</g>
<!-- Node28&#45;&gt;Node29 -->
<g id="edge38_Node000028_Node000029" class="edge">
<title>Node28&#45;&gt;Node29</title>
<g id="a_edge38_Node000028_Node000029"><a xlink:title=" ">
<path fill="none" stroke="#63b8ff" d="M497.14,-285.92C475.57,-255.12 424.26,-181.85 400.92,-148.53"/>
<polygon fill="#63b8ff" stroke="#63b8ff" points="403.73,-146.44 395.13,-140.25 398,-150.45 403.73,-146.44"/>
</a>
</g>
</g>
<!-- Node30 -->
<g id="Node000030" class="node">
<title>Node30</title>
<g id="a_Node000030"><a xlink:title=" ">
<polygon fill="#e0e0e0" stroke="#999999" points="323.5,-79.5 180.5,-79.5 180.5,-60.5 323.5,-60.5 323.5,-79.5"/>
<text text-anchor="middle" x="252" y="-67.5" font-family="Helvetica,sans-Serif" font-size="10.00">odp/api/abi/event_types.h</text>
</a>
</g>
</g>
<!-- Node29&#45;&gt;Node30 -->
<g id="edge39_Node000029_Node000030" class="edge">
<title>Node29&#45;&gt;Node30</title>
<g id="a_edge39_Node000029_Node000030"><a xlink:title=" ">
<path fill="none" stroke="#63b8ff" d="M369.08,-120.99C346.05,-111.16 307.92,-94.88 281.46,-83.58"/>
<polygon fill="#63b8ff" stroke="#63b8ff" points="282.52,-80.22 271.95,-79.52 279.77,-86.66 282.52,-80.22"/>
</a>
</g>
</g>
<!-- Node31 -->
<g id="Node000031" class="node">
<title>Node31</title>
<g id="a_Node000031"><a xlink:href="spec_2event__types_8h.html" target="_top" xlink:title="ODP event API type definitions.">
<polygon fill="white" stroke="#666666" points="489.5,-85 380.5,-85 380.5,-55 489.5,-55 489.5,-85"/>
<text text-anchor="start" x="388.5" y="-73" font-family="Helvetica,sans-Serif" font-size="10.00">odp/api/spec/event</text>
<text text-anchor="middle" x="435" y="-62" font-family="Helvetica,sans-Serif" font-size="10.00">_types.h</text>
</a>
</g>
</g>
<!-- Node29&#45;&gt;Node31 -->
<g id="edge40_Node000029_Node000031" class="edge">
<title>Node29&#45;&gt;Node31</title>
<g id="a_edge40_Node000029_Node000031"><a xlink:title=" ">
<path fill="none" stroke="#63b8ff" d="M395.79,-120.87C401.51,-113.59 409.95,-102.85 417.54,-93.2"/>
<polygon fill="#63b8ff" stroke="#63b8ff" points="420.47,-95.14 423.9,-85.11 414.97,-90.81 420.47,-95.14"/>
</a>
</g>
</g>
<!-- Node31&#45;&gt;Node4 -->
<g id="edge41_Node000031_Node000004" class="edge">
<title>Node31&#45;&gt;Node4</title>
<g id="a_edge41_Node000031_Node000004"><a xlink:title=" ">
<path fill="none" stroke="#63b8ff" d="M414.91,-54.84C402.12,-45.83 385.6,-34.18 372.7,-25.09"/>
<polygon fill="#63b8ff" stroke="#63b8ff" points="374.63,-22.17 364.44,-19.27 370.59,-27.89 374.63,-22.17"/>
</a>
</g>
</g>
<!-- Node31&#45;&gt;Node11 -->
<g id="edge42_Node000031_Node000011" class="edge">
<title>Node31&#45;&gt;Node11</title>
<g id="a_edge42_Node000031_Node000011"><a xlink:title=" ">
<path fill="none" stroke="#63b8ff" d="M489.52,-63.52C515.41,-60.93 546.8,-57.79 575,-55 712.79,-41.36 874.11,-25.59 962.57,-16.97"/>
<polygon fill="#63b8ff" stroke="#63b8ff" points="963.12,-20.43 972.73,-15.98 962.44,-13.47 963.12,-20.43"/>
</a>
</g>
</g>
<!-- Node33 -->
<g id="Node000033" class="node">
<title>Node33</title>
<g id="a_Node000033"><a xlink:title=" ">
<polygon fill="#e0e0e0" stroke="#999999" points="652.5,-448 535.5,-448 535.5,-418 652.5,-418 652.5,-448"/>
<text text-anchor="start" x="543.5" y="-436" font-family="Helvetica,sans-Serif" font-size="10.00">odp/api/abi/schedule</text>
<text text-anchor="middle" x="594" y="-425" font-family="Helvetica,sans-Serif" font-size="10.00">_types.h</text>
</a>
</g>
</g>
<!-- Node32&#45;&gt;Node33 -->
<g id="edge46_Node000032_Node000033" class="edge">
<title>Node32&#45;&gt;Node33</title>
<g id="a_edge46_Node000032_Node000033"><a xlink:title=" ">
<path fill="none" stroke="#63b8ff" d="M653.67,-483.87C644.52,-476.22 630.81,-464.76 618.83,-454.75"/>
<polygon fill="#63b8ff" stroke="#63b8ff" points="620.81,-451.84 610.89,-448.11 616.32,-457.21 620.81,-451.84"/>
</a>
</g>
</g>
<!-- Node34 -->
<g id="Node000034" class="node">
<title>Node34</title>
<g id="a_Node000034"><a xlink:href="spec_2schedule__types_8h.html" target="_top" xlink:title="ODP schedule types.">
<polygon fill="white" stroke="#666666" points="795.5,-448 670.5,-448 670.5,-418 795.5,-418 795.5,-448"/>
<text text-anchor="start" x="678.5" y="-436" font-family="Helvetica,sans-Serif" font-size="10.00">odp/api/spec/schedule</text>
<text text-anchor="middle" x="733" y="-425" font-family="Helvetica,sans-Serif" font-size="10.00">_types.h</text>
</a>
</g>
</g>
<!-- Node32&#45;&gt;Node34 -->
<g id="edge47_Node000032_Node000034" class="edge">
<title>Node32&#45;&gt;Node34</title>
<g id="a_edge47_Node000032_Node000034"><a xlink:title=" ">
<path fill="none" stroke="#63b8ff" d="M674.18,-483.87C683.2,-476.22 696.72,-464.76 708.53,-454.75"/>
<polygon fill="#63b8ff" stroke="#63b8ff" points="710.99,-457.25 716.35,-448.11 706.46,-451.91 710.99,-457.25"/>
</a>
</g>
</g>
<!-- Node34&#45;&gt;Node4 -->
<g id="edge48_Node000034_Node000004" class="edge">
<title>Node34&#45;&gt;Node4</title>
<g id="a_edge48_Node000034_Node000004"><a xlink:title=" ">
<path fill="none" stroke="#63b8ff" d="M687.02,-417.98C628.28,-399.1 524.5,-362.46 443,-316 424,-305.17 423.86,-295.16 404,-286 333.87,-253.65 306.61,-276.32 234,-250 177.27,-229.44 114,-246.84 114,-186.5 114,-186.5 114,-186.5 114,-129.5 114,-92.73 121.15,-77.8 150,-55 170.26,-38.99 231.53,-26.92 281.32,-19.42"/>
<polygon fill="#63b8ff" stroke="#63b8ff" points="282.05,-22.85 291.43,-17.93 281.03,-15.93 282.05,-22.85"/>
</a>
</g>
</g>
<!-- Node34&#45;&gt;Node11 -->
<g id="edge57_Node000034_Node000011" class="edge">
<title>Node34&#45;&gt;Node11</title>
<g id="a_edge57_Node000034_Node000011"><a xlink:title=" ">
<path fill="none" stroke="#63b8ff" d="M795.74,-422.07C861.69,-408.63 964.73,-378.7 1030,-316 1119.24,-230.26 1194.02,-159.03 1127,-55 1116.84,-39.23 1099.57,-28.98 1082.34,-22.35"/>
<polygon fill="#63b8ff" stroke="#63b8ff" points="1083.41,-19.02 1072.81,-19.03 1081.1,-25.63 1083.41,-19.02"/>
</a>
</g>
</g>
<!-- Node34&#45;&gt;Node15 -->
<g id="edge50_Node000034_Node000015" class="edge">
<title>Node34&#45;&gt;Node15</title>
<g id="a_edge50_Node000034_Node000015"><a xlink:title=" ">
<path fill="none" stroke="#63b8ff" d="M755.8,-417.99C785.11,-398.75 835.37,-361.31 862,-316 872.16,-298.72 877.27,-276.18 879.77,-260.44"/>
<polygon fill="#63b8ff" stroke="#63b8ff" points="883.26,-260.73 881.16,-250.35 876.33,-259.78 883.26,-260.73"/>
</a>
</g>
</g>
<!-- Node34&#45;&gt;Node25 -->
<g id="edge49_Node000034_Node000025" class="edge">
<title>Node34&#45;&gt;Node25</title>
<g id="a_edge49_Node000034_Node000025"><a xlink:title=" ">
<path fill="none" stroke="#63b8ff" d="M670.2,-419.6C667.09,-419.05 664.01,-418.51 661,-418 549.88,-399.24 521.17,-400.48 410,-382 408.55,-381.76 407.08,-381.51 405.6,-381.26"/>
<polygon fill="#63b8ff" stroke="#63b8ff" points="406.19,-377.81 395.73,-379.54 404.98,-384.7 406.19,-377.81"/>
</a>
</g>
</g>
<!-- Node35 -->
<g id="Node000035" class="node">
<title>Node35</title>
<g id="a_Node000035"><a xlink:href="thrmask_8h.html" target="_top" xlink:title="ODP thread masks.">
<polygon fill="white" stroke="#666666" points="785.5,-376.5 680.5,-376.5 680.5,-357.5 785.5,-357.5 785.5,-376.5"/>
<text text-anchor="middle" x="733" y="-364.5" font-family="Helvetica,sans-Serif" font-size="10.00">odp/api/thrmask.h</text>
</a>
</g>
</g>
<!-- Node34&#45;&gt;Node35 -->
<g id="edge51_Node000034_Node000035" class="edge">
<title>Node34&#45;&gt;Node35</title>
<g id="a_edge51_Node000034_Node000035"><a xlink:title=" ">
<path fill="none" stroke="#63b8ff" d="M733,-417.8C733,-408.7 733,-396.79 733,-386.9"/>
<polygon fill="#63b8ff" stroke="#63b8ff" points="736.5,-386.84 733,-376.84 729.5,-386.84 736.5,-386.84"/>
</a>
</g>
</g>
<!-- Node36 -->
<g id="Node000036" class="node">
<title>Node36</title>
<g id="a_Node000036"><a xlink:title=" ">
<polygon fill="#e0e0e0" stroke="#999999" points="704.5,-310.5 581.5,-310.5 581.5,-291.5 704.5,-291.5 704.5,-310.5"/>
<text text-anchor="middle" x="643" y="-298.5" font-family="Helvetica,sans-Serif" font-size="10.00">odp/api/abi/thrmask.h</text>
</a>
</g>
</g>
<!-- Node35&#45;&gt;Node36 -->
<g id="edge52_Node000035_Node000036" class="edge">
<title>Node35&#45;&gt;Node36</title>
<g id="a_edge52_Node000035_Node000036"><a xlink:title=" ">
<path fill="none" stroke="#63b8ff" d="M720.86,-357.37C706.23,-346.97 681.42,-329.32 663.74,-316.75"/>
<polygon fill="#63b8ff" stroke="#63b8ff" points="665.41,-313.64 655.23,-310.7 661.35,-319.35 665.41,-313.64"/>
</a>
</g>
</g>
<!-- Node37 -->
<g id="Node000037" class="node">
<title>Node37</title>
<g id="a_Node000037"><a xlink:href="spec_2thrmask_8h.html" target="_top" xlink:title="ODP thread masks.">
<polygon fill="white" stroke="#666666" points="853.5,-310.5 722.5,-310.5 722.5,-291.5 853.5,-291.5 853.5,-310.5"/>
<text text-anchor="middle" x="788" y="-298.5" font-family="Helvetica,sans-Serif" font-size="10.00">odp/api/spec/thrmask.h</text>
</a>
</g>
</g>
<!-- Node35&#45;&gt;Node37 -->
<g id="edge53_Node000035_Node000037" class="edge">
<title>Node35&#45;&gt;Node37</title>
<g id="a_edge53_Node000035_Node000037"><a xlink:title=" ">
<path fill="none" stroke="#63b8ff" d="M740.42,-357.37C748.9,-347.5 762.98,-331.11 773.63,-318.72"/>
<polygon fill="#63b8ff" stroke="#63b8ff" points="776.48,-320.77 780.35,-310.91 771.17,-316.21 776.48,-320.77"/>
</a>
</g>
</g>
<!-- Node37&#45;&gt;Node4 -->
<g id="edge54_Node000037_Node000004" class="edge">
<title>Node37&#45;&gt;Node4</title>
<g id="a_edge54_Node000037_Node000004"><a xlink:title=" ">
<path fill="none" stroke="#63b8ff" d="M765.67,-291.41C724.12,-275.04 632.63,-237.24 561,-195 513.07,-166.73 508.61,-148.09 460,-121 422.73,-100.23 399.07,-117.13 371,-85 357.59,-69.65 353.41,-46.09 352.23,-29.59"/>
<polygon fill="#63b8ff" stroke="#63b8ff" points="355.72,-29.32 351.81,-19.48 348.73,-29.61 355.72,-29.32"/>
</a>
</g>
</g>
<!-- Node37&#45;&gt;Node11 -->
<g id="edge56_Node000037_Node000011" class="edge">
<title>Node37&#45;&gt;Node11</title>
<g id="a_edge56_Node000037_Node000011"><a xlink:title=" ">
<path fill="none" stroke="#63b8ff" d="M790.73,-291.07C795.11,-277.48 804.48,-251.07 817,-231 834.17,-203.47 842.38,-199.26 865,-176 881.45,-159.09 889.78,-158.82 904,-140 929.52,-106.22 917.5,-85.37 947,-55 960.37,-41.24 978.91,-30.69 994.99,-23.32"/>
<polygon fill="#63b8ff" stroke="#63b8ff" points="996.83,-26.34 1004.61,-19.15 994.04,-19.92 996.83,-26.34"/>
</a>
</g>
</g>
<!-- Node37&#45;&gt;Node15 -->
<g id="edge55_Node000037_Node000015" class="edge">
<title>Node37&#45;&gt;Node15</title>
<g id="a_edge55_Node000037_Node000015"><a xlink:title=" ">
<path fill="none" stroke="#63b8ff" d="M801.87,-291.37C817,-281.95 841.46,-266.73 859.38,-255.58"/>
<polygon fill="#63b8ff" stroke="#63b8ff" points="861.43,-258.42 868.07,-250.17 857.73,-252.48 861.43,-258.42"/>
</a>
</g>
</g>
</g>
</svg>
