<?xml version="1.0" encoding="UTF-8" standalone="no"?>
<!DOCTYPE svg PUBLIC "-//W3C//DTD SVG 1.1//EN"
 "http://www.w3.org/Graphics/SVG/1.1/DTD/svg11.dtd">
<!-- Generated by graphviz version 2.43.0 (0)
 -->
<!-- Title: packet_types.h Pages: 1 -->
<svg width="1499pt" height="700pt"
 viewBox="0.00 0.00 1499.07 700.00" xmlns="http://www.w3.org/2000/svg" xmlns:xlink="http://www.w3.org/1999/xlink">
<g id="graph0" class="graph" transform="scale(1 1) rotate(0) translate(4 696)">
<title>packet_types.h</title>
<polygon fill="white" stroke="transparent" points="-4,4 -4,-696 1495.07,-696 1495.07,4 -4,4"/>
<!-- Node1 -->
<g id="node1" class="node">
<title>Node1</title>
<g id="a_node1"><a xlink:title="ODP packet.">
<polygon fill="#bfbfbf" stroke="black" points="1060.5,-672.5 1060.5,-691.5 1150.5,-691.5 1150.5,-672.5 1060.5,-672.5"/>
<text text-anchor="middle" x="1105.5" y="-679.5" font-family="Helvetica,sans-Serif" font-size="10.00">packet_types.h</text>
</a>
</g>
</g>
<!-- Node2 -->
<g id="node2" class="node">
<title>Node2</title>
<g id="a_node2"><a xlink:href="spec_2comp_8h.html" target="_top" xlink:title="ODP Compression.">
<polygon fill="white" stroke="black" points="0,-616.5 0,-635.5 53,-635.5 53,-616.5 0,-616.5"/>
<text text-anchor="middle" x="26.5" y="-623.5" font-family="Helvetica,sans-Serif" font-size="10.00">comp.h</text>
</a>
</g>
</g>
<!-- Node1&#45;&gt;Node2 -->
<g id="edge1" class="edge">
<title>Node1&#45;&gt;Node2</title>
<path fill="none" stroke="midnightblue" d="M1050.38,-679.87C864.31,-675.85 260.27,-661.14 67.5,-636 62.88,-635.4 58,-634.53 53.29,-633.58"/>
<polygon fill="midnightblue" stroke="midnightblue" points="1050.41,-683.37 1060.48,-680.08 1050.56,-676.37 1050.41,-683.37"/>
</g>
<!-- Node4 -->
<g id="node4" class="node">
<title>Node4</title>
<g id="a_node4"><a xlink:href="spec_2crypto_8h.html" target="_top" xlink:title="ODP crypto.">
<polygon fill="white" stroke="black" points="178.5,-168.5 178.5,-187.5 234.5,-187.5 234.5,-168.5 178.5,-168.5"/>
<text text-anchor="middle" x="206.5" y="-175.5" font-family="Helvetica,sans-Serif" font-size="10.00">crypto.h</text>
</a>
</g>
</g>
<!-- Node1&#45;&gt;Node4 -->
<g id="edge3" class="edge">
<title>Node1&#45;&gt;Node4</title>
<path fill="none" stroke="midnightblue" d="M1050.15,-680.92C837.05,-679.89 81.5,-669.3 81.5,-571 81.5,-571 81.5,-571 81.5,-289 81.5,-235.81 146.08,-202.25 182.4,-187.59"/>
<polygon fill="midnightblue" stroke="midnightblue" points="1050.16,-684.42 1060.18,-680.96 1050.19,-677.42 1050.16,-684.42"/>
</g>
<!-- Node6 -->
<g id="node6" class="node">
<title>Node6</title>
<g id="a_node6"><a xlink:href="spec_2crypto__types_8h.html" target="_top" xlink:title="ODP crypto types.">
<polygon fill="white" stroke="black" points="616,-392.5 616,-411.5 705,-411.5 705,-392.5 616,-392.5"/>
<text text-anchor="middle" x="660.5" y="-399.5" font-family="Helvetica,sans-Serif" font-size="10.00">crypto_types.h</text>
</a>
</g>
</g>
<!-- Node1&#45;&gt;Node6 -->
<g id="edge5" class="edge">
<title>Node1&#45;&gt;Node6</title>
<path fill="none" stroke="midnightblue" d="M1050.32,-679.93C977.24,-675.24 857.5,-654.78 857.5,-571 857.5,-571 857.5,-571 857.5,-513 857.5,-443.67 763.33,-417.62 705.2,-408.15"/>
<polygon fill="midnightblue" stroke="midnightblue" points="1050.12,-683.42 1060.3,-680.49 1050.51,-676.43 1050.12,-683.42"/>
</g>
<!-- Node8 -->
<g id="node8" class="node">
<title>Node8</title>
<g id="a_node8"><a xlink:href="spec_2ipsec_8h.html" target="_top" xlink:title="ODP IPsec API.">
<polygon fill="white" stroke="black" points="344,-56.5 344,-75.5 395,-75.5 395,-56.5 344,-56.5"/>
<text text-anchor="middle" x="369.5" y="-63.5" font-family="Helvetica,sans-Serif" font-size="10.00">ipsec.h</text>
</a>
</g>
</g>
<!-- Node1&#45;&gt;Node8 -->
<g id="edge66" class="edge">
<title>Node1&#45;&gt;Node8</title>
<path fill="none" stroke="midnightblue" d="M1049.94,-681.36C831.48,-681.3 43.5,-666.68 43.5,-459 43.5,-459 43.5,-459 43.5,-177 43.5,-113.68 267.07,-79.8 343.92,-70.02"/>
<polygon fill="midnightblue" stroke="midnightblue" points="1050.21,-684.86 1060.21,-681.35 1050.2,-677.86 1050.21,-684.86"/>
</g>
<!-- Node14 -->
<g id="node14" class="node">
<title>Node14</title>
<g id="a_node14"><a xlink:href="spec_2dma__types_8h.html" target="_top" xlink:title="ODP DMA.">
<polygon fill="white" stroke="black" points="540.5,-616.5 540.5,-635.5 620.5,-635.5 620.5,-616.5 540.5,-616.5"/>
<text text-anchor="middle" x="580.5" y="-623.5" font-family="Helvetica,sans-Serif" font-size="10.00">dma_types.h</text>
</a>
</g>
</g>
<!-- Node1&#45;&gt;Node14 -->
<g id="edge15" class="edge">
<title>Node1&#45;&gt;Node14</title>
<path fill="none" stroke="midnightblue" d="M1050.09,-675.3C943.82,-664.37 713.69,-640.7 620.69,-631.13"/>
<polygon fill="midnightblue" stroke="midnightblue" points="1049.98,-678.81 1060.28,-676.35 1050.7,-671.84 1049.98,-678.81"/>
</g>
<!-- Node25 -->
<g id="node25" class="node">
<title>Node25</title>
<g id="a_node25"><a xlink:href="spec_2packet__io_8h.html" target="_top" xlink:title="ODP Packet IO.">
<polygon fill="white" stroke="black" points="774.5,-168.5 774.5,-187.5 846.5,-187.5 846.5,-168.5 774.5,-168.5"/>
<text text-anchor="middle" x="810.5" y="-175.5" font-family="Helvetica,sans-Serif" font-size="10.00">packet_io.h</text>
</a>
</g>
</g>
<!-- Node1&#45;&gt;Node25 -->
<g id="edge70" class="edge">
<title>Node1&#45;&gt;Node25</title>
<path fill="none" stroke="midnightblue" d="M1147.78,-669.17C1168.92,-661.88 1194.08,-651.02 1213.5,-636 1364.46,-519.28 1577.52,-425.02 1453.5,-280 1374.18,-187.25 970.95,-179.11 846.88,-178.83"/>
<polygon fill="midnightblue" stroke="midnightblue" points="1146.47,-665.92 1138.07,-672.37 1148.66,-672.57 1146.47,-665.92"/>
</g>
<!-- Node27 -->
<g id="node27" class="node">
<title>Node27</title>
<g id="a_node27"><a xlink:href="spec_2event_8h.html" target="_top" xlink:title="ODP event.">
<polygon fill="white" stroke="black" points="1036,-392.5 1036,-411.5 1089,-411.5 1089,-392.5 1036,-392.5"/>
<text text-anchor="middle" x="1062.5" y="-399.5" font-family="Helvetica,sans-Serif" font-size="10.00">event.h</text>
</a>
</g>
</g>
<!-- Node1&#45;&gt;Node27 -->
<g id="edge65" class="edge">
<title>Node1&#45;&gt;Node27</title>
<path fill="none" stroke="midnightblue" d="M1097.24,-663.25C1088.06,-641.86 1074.5,-604.59 1074.5,-571 1074.5,-571 1074.5,-571 1074.5,-513 1074.5,-474.96 1067.32,-429.96 1064.07,-411.52"/>
<polygon fill="midnightblue" stroke="midnightblue" points="1094.05,-664.69 1101.32,-672.39 1100.44,-661.83 1094.05,-664.69"/>
</g>
<!-- Node30 -->
<g id="node30" class="node">
<title>Node30</title>
<g id="a_node30"><a xlink:href="packet__inlines_8h.html" target="_top" xlink:title="ODP packet inline functions.">
<polygon fill="white" stroke="black" points="1238,-280.5 1238,-299.5 1333,-299.5 1333,-280.5 1238,-280.5"/>
<text text-anchor="middle" x="1285.5" y="-287.5" font-family="Helvetica,sans-Serif" font-size="10.00">packet_inlines.h</text>
</a>
</g>
</g>
<!-- Node1&#45;&gt;Node30 -->
<g id="edge77" class="edge">
<title>Node1&#45;&gt;Node30</title>
<path fill="none" stroke="midnightblue" d="M1160.66,-681.33C1238.05,-678.58 1369.5,-660.69 1369.5,-571 1369.5,-571 1369.5,-571 1369.5,-401 1369.5,-370.9 1368.11,-360.41 1350.5,-336 1338.7,-319.64 1319.02,-307.23 1304.4,-299.63"/>
<polygon fill="midnightblue" stroke="midnightblue" points="1160.48,-677.84 1150.58,-681.62 1160.68,-684.83 1160.48,-677.84"/>
</g>
<!-- Node31 -->
<g id="node31" class="node">
<title>Node31</title>
<g id="a_node31"><a xlink:href="packet__vector__inlines_8h.html" target="_top" xlink:title="Packet vector inline functions.">
<polygon fill="white" stroke="black" points="794,-280.5 794,-299.5 925,-299.5 925,-280.5 794,-280.5"/>
<text text-anchor="middle" x="859.5" y="-287.5" font-family="Helvetica,sans-Serif" font-size="10.00">packet_vector_inlines.h</text>
</a>
</g>
</g>
<!-- Node1&#45;&gt;Node31 -->
<g id="edge78" class="edge">
<title>Node1&#45;&gt;Node31</title>
<path fill="none" stroke="midnightblue" d="M1120.83,-664.97C1163.94,-618 1278.51,-478.52 1207.5,-392 1155.47,-328.6 1104.46,-381.48 1026.5,-356 1006.47,-349.45 1002.98,-344.05 983.5,-336 950.06,-322.18 910.66,-308.28 885.4,-299.66"/>
<polygon fill="midnightblue" stroke="midnightblue" points="1118.17,-662.71 1113.9,-672.4 1123.28,-667.48 1118.17,-662.71"/>
</g>
<!-- Node35 -->
<g id="node35" class="node">
<title>Node35</title>
<g id="a_node35"><a xlink:href="spec_2packet_8h.html" target="_top" xlink:title="ODP packet descriptor.">
<polygon fill="white" stroke="black" points="717.5,-280.5 717.5,-299.5 775.5,-299.5 775.5,-280.5 717.5,-280.5"/>
<text text-anchor="middle" x="746.5" y="-287.5" font-family="Helvetica,sans-Serif" font-size="10.00">packet.h</text>
</a>
</g>
</g>
<!-- Node1&#45;&gt;Node35 -->
<g id="edge67" class="edge">
<title>Node1&#45;&gt;Node35</title>
<path fill="none" stroke="midnightblue" d="M1137.86,-668.18C1173.7,-651.59 1226.5,-619.01 1226.5,-571 1226.5,-571 1226.5,-571 1226.5,-457 1226.5,-426.9 1230.07,-411.91 1207.5,-392 1131.89,-325.29 1082.04,-377.37 983.5,-356 906.78,-339.37 817.91,-313.06 773.99,-299.59"/>
<polygon fill="midnightblue" stroke="midnightblue" points="1135.98,-665.18 1128.26,-672.43 1138.82,-671.58 1135.98,-665.18"/>
</g>
<!-- Node37 -->
<g id="node37" class="node">
<title>Node37</title>
<g id="a_node37"><a xlink:href="spec_2packet__io__types_8h.html" target="_top" xlink:title="ODP Packet IO types.">
<polygon fill="white" stroke="black" points="875.5,-392.5 875.5,-411.5 979.5,-411.5 979.5,-392.5 875.5,-392.5"/>
<text text-anchor="middle" x="927.5" y="-399.5" font-family="Helvetica,sans-Serif" font-size="10.00">packet_io_types.h</text>
</a>
</g>
</g>
<!-- Node1&#45;&gt;Node37 -->
<g id="edge71" class="edge">
<title>Node1&#45;&gt;Node37</title>
<path fill="none" stroke="midnightblue" d="M1070.46,-668.75C1031.96,-652.79 975.5,-620.88 975.5,-571 975.5,-571 975.5,-571 975.5,-513 975.5,-472.16 947.36,-429.38 934.17,-411.56"/>
<polygon fill="midnightblue" stroke="midnightblue" points="1069.23,-672.03 1079.82,-672.47 1071.81,-665.52 1069.23,-672.03"/>
</g>
<!-- Node45 -->
<g id="node45" class="node">
<title>Node45</title>
<g id="a_node45"><a xlink:href="event__inlines_8h_source.html" target="_top" xlink:title=" ">
<polygon fill="white" stroke="black" points="1107,-392.5 1107,-411.5 1198,-411.5 1198,-392.5 1107,-392.5"/>
<text text-anchor="middle" x="1152.5" y="-399.5" font-family="Helvetica,sans-Serif" font-size="10.00">event_inlines.h</text>
</a>
</g>
</g>
<!-- Node1&#45;&gt;Node45 -->
<g id="edge72" class="edge">
<title>Node1&#45;&gt;Node45</title>
<path fill="none" stroke="midnightblue" d="M1114.03,-663.28C1123.51,-641.92 1137.5,-604.67 1137.5,-571 1137.5,-571 1137.5,-571 1137.5,-513 1137.5,-474.84 1146.47,-429.91 1150.54,-411.5"/>
<polygon fill="midnightblue" stroke="midnightblue" points="1110.83,-661.86 1109.82,-672.41 1117.18,-664.79 1110.83,-661.86"/>
</g>
<!-- Node47 -->
<g id="node47" class="node">
<title>Node47</title>
<g id="a_node47"><a xlink:href="spec_2packet__flags_8h.html" target="_top" xlink:title="ODP packet flags.">
<polygon fill="white" stroke="black" points="1397.5,-616.5 1397.5,-635.5 1483.5,-635.5 1483.5,-616.5 1397.5,-616.5"/>
<text text-anchor="middle" x="1440.5" y="-623.5" font-family="Helvetica,sans-Serif" font-size="10.00">packet_flags.h</text>
</a>
</g>
</g>
<!-- Node1&#45;&gt;Node47 -->
<g id="edge68" class="edge">
<title>Node1&#45;&gt;Node47</title>
<path fill="none" stroke="midnightblue" d="M1160.94,-672.06C1227.3,-661.37 1337,-643.68 1397.36,-633.95"/>
<polygon fill="midnightblue" stroke="midnightblue" points="1160,-668.67 1150.68,-673.72 1161.11,-675.58 1160,-668.67"/>
</g>
<!-- Node49 -->
<g id="node49" class="node">
<title>Node49</title>
<g id="a_node49"><a xlink:href="event__validation__external_8h.html" target="_top" xlink:title="ODP event validation.">
<polygon fill="white" stroke="black" points="1188,-336.5 1188,-355.5 1341,-355.5 1341,-336.5 1188,-336.5"/>
<text text-anchor="middle" x="1264.5" y="-343.5" font-family="Helvetica,sans-Serif" font-size="10.00">event_validation_external.h</text>
</a>
</g>
</g>
<!-- Node1&#45;&gt;Node49 -->
<g id="edge73" class="edge">
<title>Node1&#45;&gt;Node49</title>
<path fill="none" stroke="midnightblue" d="M1160.68,-677.69C1227.59,-670.35 1331.5,-646.75 1331.5,-571 1331.5,-571 1331.5,-571 1331.5,-457 1331.5,-413.62 1293.02,-372.82 1274.39,-355.6"/>
<polygon fill="midnightblue" stroke="midnightblue" points="1160.29,-674.21 1150.69,-678.7 1160.99,-681.18 1160.29,-674.21"/>
</g>
<!-- Node3 -->
<g id="node3" class="node">
<title>Node3</title>
<g id="a_node3"><a xlink:href="comp_8h.html" target="_top" xlink:title="ODP crypto.">
<polygon fill="white" stroke="black" points="0,-560.5 0,-579.5 53,-579.5 53,-560.5 0,-560.5"/>
<text text-anchor="middle" x="26.5" y="-567.5" font-family="Helvetica,sans-Serif" font-size="10.00">comp.h</text>
</a>
</g>
</g>
<!-- Node2&#45;&gt;Node3 -->
<g id="edge2" class="edge">
<title>Node2&#45;&gt;Node3</title>
<path fill="none" stroke="midnightblue" d="M26.5,-605.8C26.5,-596.91 26.5,-586.78 26.5,-579.75"/>
<polygon fill="midnightblue" stroke="midnightblue" points="23,-606.08 26.5,-616.08 30,-606.08 23,-606.08"/>
</g>
<!-- Node5 -->
<g id="node5" class="node">
<title>Node5</title>
<g id="a_node5"><a xlink:href="crypto_8h.html" target="_top" xlink:title="ODP crypto.">
<polygon fill="white" stroke="black" points="178.5,-112.5 178.5,-131.5 234.5,-131.5 234.5,-112.5 178.5,-112.5"/>
<text text-anchor="middle" x="206.5" y="-119.5" font-family="Helvetica,sans-Serif" font-size="10.00">crypto.h</text>
</a>
</g>
</g>
<!-- Node4&#45;&gt;Node5 -->
<g id="edge4" class="edge">
<title>Node4&#45;&gt;Node5</title>
<path fill="none" stroke="midnightblue" d="M206.5,-157.8C206.5,-148.91 206.5,-138.78 206.5,-131.75"/>
<polygon fill="midnightblue" stroke="midnightblue" points="203,-158.08 206.5,-168.08 210,-158.08 203,-158.08"/>
</g>
<!-- Node7 -->
<g id="node7" class="node">
<title>Node7</title>
<g id="a_node7"><a xlink:href="crypto__types_8h.html" target="_top" xlink:title="ODP crypto.">
<polygon fill="white" stroke="black" points="325,-224.5 325,-243.5 414,-243.5 414,-224.5 325,-224.5"/>
<text text-anchor="middle" x="369.5" y="-231.5" font-family="Helvetica,sans-Serif" font-size="10.00">crypto_types.h</text>
</a>
</g>
</g>
<!-- Node6&#45;&gt;Node7 -->
<g id="edge6" class="edge">
<title>Node6&#45;&gt;Node7</title>
<path fill="none" stroke="midnightblue" d="M628.66,-388.69C586.05,-371.59 508.85,-338.39 448.5,-300 421.23,-282.65 392.8,-257.12 378.65,-243.8"/>
<polygon fill="midnightblue" stroke="midnightblue" points="627.63,-392.05 638.21,-392.49 630.21,-385.54 627.63,-392.05"/>
</g>
<!-- Node7&#45;&gt;Node4 -->
<g id="edge7" class="edge">
<title>Node7&#45;&gt;Node4</title>
<path fill="none" stroke="midnightblue" d="M333.8,-221.17C303.1,-211 259.58,-196.59 232.21,-187.52"/>
<polygon fill="midnightblue" stroke="midnightblue" points="333.08,-224.62 343.67,-224.44 335.28,-217.98 333.08,-224.62"/>
</g>
<!-- Node7&#45;&gt;Node8 -->
<g id="edge8" class="edge">
<title>Node7&#45;&gt;Node8</title>
<path fill="none" stroke="midnightblue" d="M369.5,-213.93C369.5,-177.92 369.5,-101.23 369.5,-75.57"/>
<polygon fill="midnightblue" stroke="midnightblue" points="366,-214.08 369.5,-224.08 373,-214.08 366,-214.08"/>
</g>
<!-- Node10 -->
<g id="node10" class="node">
<title>Node10</title>
<g id="a_node10"><a xlink:href="spec_2ipsec__types_8h.html" target="_top" xlink:title="ODP IPsec API type definitions.">
<polygon fill="white" stroke="black" points="436,-168.5 436,-187.5 519,-187.5 519,-168.5 436,-168.5"/>
<text text-anchor="middle" x="477.5" y="-175.5" font-family="Helvetica,sans-Serif" font-size="10.00">ipsec_types.h</text>
</a>
</g>
</g>
<!-- Node7&#45;&gt;Node10 -->
<g id="edge10" class="edge">
<title>Node7&#45;&gt;Node10</title>
<path fill="none" stroke="midnightblue" d="M396.05,-219.73C416.05,-209.73 442.89,-196.31 460.19,-187.65"/>
<polygon fill="midnightblue" stroke="midnightblue" points="394.23,-216.72 386.85,-224.32 397.36,-222.98 394.23,-216.72"/>
</g>
<!-- Node13 -->
<g id="node13" class="node">
<title>Node13</title>
<g id="a_node13"><a xlink:href="crypto__inlines_8h_source.html" target="_top" xlink:title=" ">
<polygon fill="white" stroke="black" points="624.5,-168.5 624.5,-187.5 718.5,-187.5 718.5,-168.5 624.5,-168.5"/>
<text text-anchor="middle" x="671.5" y="-175.5" font-family="Helvetica,sans-Serif" font-size="10.00">crypto_inlines.h</text>
</a>
</g>
</g>
<!-- Node7&#45;&gt;Node13 -->
<g id="edge14" class="edge">
<title>Node7&#45;&gt;Node13</title>
<path fill="none" stroke="midnightblue" d="M424,-223.26C481.14,-213.04 570.01,-197.15 624.27,-187.45"/>
<polygon fill="midnightblue" stroke="midnightblue" points="423.29,-219.83 414.06,-225.03 424.52,-226.72 423.29,-219.83"/>
</g>
<!-- Node9 -->
<g id="node9" class="node">
<title>Node9</title>
<g id="a_node9"><a xlink:href="ipsec_8h.html" target="_top" xlink:title="ODP IPSEC API &#45; platform specific header.">
<polygon fill="white" stroke="black" points="344,-0.5 344,-19.5 395,-19.5 395,-0.5 344,-0.5"/>
<text text-anchor="middle" x="369.5" y="-7.5" font-family="Helvetica,sans-Serif" font-size="10.00">ipsec.h</text>
</a>
</g>
</g>
<!-- Node8&#45;&gt;Node9 -->
<g id="edge9" class="edge">
<title>Node8&#45;&gt;Node9</title>
<path fill="none" stroke="midnightblue" d="M369.5,-45.8C369.5,-36.91 369.5,-26.78 369.5,-19.75"/>
<polygon fill="midnightblue" stroke="midnightblue" points="366,-46.08 369.5,-56.08 373,-46.08 366,-46.08"/>
</g>
<!-- Node11 -->
<g id="node11" class="node">
<title>Node11</title>
<g id="a_node11"><a xlink:href="ipsec__types_8h.html" target="_top" xlink:title="ODP IPsec.">
<polygon fill="white" stroke="black" points="436,-112.5 436,-131.5 519,-131.5 519,-112.5 436,-112.5"/>
<text text-anchor="middle" x="477.5" y="-119.5" font-family="Helvetica,sans-Serif" font-size="10.00">ipsec_types.h</text>
</a>
</g>
</g>
<!-- Node10&#45;&gt;Node11 -->
<g id="edge11" class="edge">
<title>Node10&#45;&gt;Node11</title>
<path fill="none" stroke="midnightblue" d="M477.5,-157.8C477.5,-148.91 477.5,-138.78 477.5,-131.75"/>
<polygon fill="midnightblue" stroke="midnightblue" points="474,-158.08 477.5,-168.08 481,-158.08 474,-158.08"/>
</g>
<!-- Node11&#45;&gt;Node8 -->
<g id="edge12" class="edge">
<title>Node11&#45;&gt;Node8</title>
<path fill="none" stroke="midnightblue" d="M450.95,-107.73C430.95,-97.73 404.11,-84.31 386.81,-75.65"/>
<polygon fill="midnightblue" stroke="midnightblue" points="449.64,-110.98 460.15,-112.32 452.77,-104.72 449.64,-110.98"/>
</g>
<!-- Node12 -->
<g id="node12" class="node">
<title>Node12</title>
<g id="a_node12"><a xlink:href="ipsec__inlines_8h_source.html" target="_top" xlink:title=" ">
<polygon fill="white" stroke="black" points="702,-56.5 702,-75.5 791,-75.5 791,-56.5 702,-56.5"/>
<text text-anchor="middle" x="746.5" y="-63.5" font-family="Helvetica,sans-Serif" font-size="10.00">ipsec_inlines.h</text>
</a>
</g>
</g>
<!-- Node11&#45;&gt;Node12 -->
<g id="edge13" class="edge">
<title>Node11&#45;&gt;Node12</title>
<path fill="none" stroke="midnightblue" d="M529.34,-110.59C580.07,-100.41 656.43,-85.08 703.78,-75.58"/>
<polygon fill="midnightblue" stroke="midnightblue" points="528.35,-107.22 519.24,-112.62 529.73,-114.09 528.35,-107.22"/>
</g>
<!-- Node15 -->
<g id="node15" class="node">
<title>Node15</title>
<g id="a_node15"><a xlink:href="dma__types_8h.html" target="_top" xlink:title="ODP DMA.">
<polygon fill="white" stroke="black" points="282.5,-560.5 282.5,-579.5 362.5,-579.5 362.5,-560.5 282.5,-560.5"/>
<text text-anchor="middle" x="322.5" y="-567.5" font-family="Helvetica,sans-Serif" font-size="10.00">dma_types.h</text>
</a>
</g>
</g>
<!-- Node14&#45;&gt;Node15 -->
<g id="edge16" class="edge">
<title>Node14&#45;&gt;Node15</title>
<path fill="none" stroke="midnightblue" d="M530.42,-614.52C481.45,-604.27 407.85,-588.86 362.62,-579.4"/>
<polygon fill="midnightblue" stroke="midnightblue" points="529.97,-618 540.47,-616.62 531.4,-611.15 529.97,-618"/>
</g>
<!-- Node16 -->
<g id="node16" class="node">
<title>Node16</title>
<g id="a_node16"><a xlink:href="spec_2dma_8h.html" target="_top" xlink:title="ODP DMA.">
<polygon fill="white" stroke="black" points="110,-392.5 110,-411.5 157,-411.5 157,-392.5 110,-392.5"/>
<text text-anchor="middle" x="133.5" y="-399.5" font-family="Helvetica,sans-Serif" font-size="10.00">dma.h</text>
</a>
</g>
</g>
<!-- Node15&#45;&gt;Node16 -->
<g id="edge17" class="edge">
<title>Node15&#45;&gt;Node16</title>
<path fill="none" stroke="midnightblue" d="M272.04,-565.89C239.38,-561.29 198.14,-550.25 171.5,-524 139.35,-492.32 134.32,-433.79 133.6,-411.72"/>
<polygon fill="midnightblue" stroke="midnightblue" points="271.96,-569.41 282.31,-567.17 272.82,-562.46 271.96,-569.41"/>
</g>
<!-- Node18 -->
<g id="node18" class="node">
<title>Node18</title>
<g id="a_node18"><a xlink:href="spec_2pool__types_8h.html" target="_top" xlink:title="Type definitions for pools.">
<polygon fill="white" stroke="black" points="418,-504.5 418,-523.5 497,-523.5 497,-504.5 418,-504.5"/>
<text text-anchor="middle" x="457.5" y="-511.5" font-family="Helvetica,sans-Serif" font-size="10.00">pool_types.h</text>
</a>
</g>
</g>
<!-- Node15&#45;&gt;Node18 -->
<g id="edge19" class="edge">
<title>Node15&#45;&gt;Node18</title>
<path fill="none" stroke="midnightblue" d="M353.41,-556.64C378.74,-546.5 413.93,-532.43 436.21,-523.52"/>
<polygon fill="midnightblue" stroke="midnightblue" points="351.88,-553.48 343.89,-560.44 354.48,-559.98 351.88,-553.48"/>
</g>
<!-- Node22 -->
<g id="node22" class="node">
<title>Node22</title>
<g id="a_node22"><a xlink:href="dma__inlines_8h_source.html" target="_top" xlink:title=" ">
<polygon fill="white" stroke="black" points="181,-280.5 181,-299.5 266,-299.5 266,-280.5 181,-280.5"/>
<text text-anchor="middle" x="223.5" y="-287.5" font-family="Helvetica,sans-Serif" font-size="10.00">dma_inlines.h</text>
</a>
</g>
</g>
<!-- Node15&#45;&gt;Node22 -->
<g id="edge64" class="edge">
<title>Node15&#45;&gt;Node22</title>
<path fill="none" stroke="midnightblue" d="M284.49,-556.89C243.95,-541.31 185.5,-510 185.5,-459 185.5,-459 185.5,-459 185.5,-401 185.5,-361.4 207.77,-317.96 218.22,-299.77"/>
<polygon fill="midnightblue" stroke="midnightblue" points="283.52,-560.26 294.11,-560.42 285.93,-553.69 283.52,-560.26"/>
</g>
<!-- Node17 -->
<g id="node17" class="node">
<title>Node17</title>
<g id="a_node17"><a xlink:href="dma_8h.html" target="_top" xlink:title="ODP DMA.">
<polygon fill="white" stroke="black" points="110,-336.5 110,-355.5 157,-355.5 157,-336.5 110,-336.5"/>
<text text-anchor="middle" x="133.5" y="-343.5" font-family="Helvetica,sans-Serif" font-size="10.00">dma.h</text>
</a>
</g>
</g>
<!-- Node16&#45;&gt;Node17 -->
<g id="edge18" class="edge">
<title>Node16&#45;&gt;Node17</title>
<path fill="none" stroke="midnightblue" d="M133.5,-381.8C133.5,-372.91 133.5,-362.78 133.5,-355.75"/>
<polygon fill="midnightblue" stroke="midnightblue" points="130,-382.08 133.5,-392.08 137,-382.08 130,-382.08"/>
</g>
<!-- Node19 -->
<g id="node19" class="node">
<title>Node19</title>
<g id="a_node19"><a xlink:href="pool__types_8h.html" target="_top" xlink:title="ODP pool.">
<polygon fill="white" stroke="black" points="621,-448.5 621,-467.5 700,-467.5 700,-448.5 621,-448.5"/>
<text text-anchor="middle" x="660.5" y="-455.5" font-family="Helvetica,sans-Serif" font-size="10.00">pool_types.h</text>
</a>
</g>
</g>
<!-- Node18&#45;&gt;Node19 -->
<g id="edge20" class="edge">
<title>Node18&#45;&gt;Node19</title>
<path fill="none" stroke="midnightblue" d="M499.49,-501.83C537.82,-491.63 593.65,-476.78 628.48,-467.52"/>
<polygon fill="midnightblue" stroke="midnightblue" points="498.43,-498.49 489.67,-504.44 500.23,-505.26 498.43,-498.49"/>
</g>
<!-- Node19&#45;&gt;Node6 -->
<g id="edge29" class="edge">
<title>Node19&#45;&gt;Node6</title>
<path fill="none" stroke="midnightblue" d="M660.5,-437.8C660.5,-428.91 660.5,-418.78 660.5,-411.75"/>
<polygon fill="midnightblue" stroke="midnightblue" points="657,-438.08 660.5,-448.08 664,-438.08 657,-438.08"/>
</g>
<!-- Node19&#45;&gt;Node16 -->
<g id="edge30" class="edge">
<title>Node19&#45;&gt;Node16</title>
<path fill="none" stroke="midnightblue" d="M610.79,-452.34C527.67,-444.49 355.22,-427.9 209.5,-412 191.93,-410.08 172.11,-407.73 157.11,-405.91"/>
<polygon fill="midnightblue" stroke="midnightblue" points="610.68,-455.85 620.96,-453.3 611.33,-448.88 610.68,-455.85"/>
</g>
<!-- Node20 -->
<g id="node20" class="node">
<title>Node20</title>
<g id="a_node20"><a xlink:href="spec_2buffer_8h.html" target="_top" xlink:title="ODP buffer.">
<polygon fill="white" stroke="black" points="252,-392.5 252,-411.5 305,-411.5 305,-392.5 252,-392.5"/>
<text text-anchor="middle" x="278.5" y="-399.5" font-family="Helvetica,sans-Serif" font-size="10.00">buffer.h</text>
</a>
</g>
</g>
<!-- Node19&#45;&gt;Node20 -->
<g id="edge21" class="edge">
<title>Node19&#45;&gt;Node20</title>
<path fill="none" stroke="midnightblue" d="M610.49,-452.33C542.95,-445.61 419.02,-431.79 314.5,-412 311.46,-411.42 308.3,-410.75 305.16,-410.03"/>
<polygon fill="midnightblue" stroke="midnightblue" points="610.53,-455.85 620.83,-453.35 611.22,-448.88 610.53,-455.85"/>
</g>
<!-- Node19&#45;&gt;Node22 -->
<g id="edge59" class="edge">
<title>Node19&#45;&gt;Node22</title>
<path fill="none" stroke="midnightblue" d="M610.89,-455C505.92,-450.3 268.74,-437 242.5,-412 210.78,-381.79 217.81,-321.85 221.76,-299.59"/>
<polygon fill="midnightblue" stroke="midnightblue" points="610.78,-458.5 620.93,-455.44 611.09,-451.51 610.78,-458.5"/>
</g>
<!-- Node23 -->
<g id="node23" class="node">
<title>Node23</title>
<g id="a_node23"><a xlink:href="spec_2classification_8h.html" target="_top" xlink:title="ODP classification descriptor.">
<polygon fill="white" stroke="black" points="572,-280.5 572,-299.5 661,-299.5 661,-280.5 572,-280.5"/>
<text text-anchor="middle" x="616.5" y="-287.5" font-family="Helvetica,sans-Serif" font-size="10.00">classification.h</text>
</a>
</g>
</g>
<!-- Node19&#45;&gt;Node23 -->
<g id="edge24" class="edge">
<title>Node19&#45;&gt;Node23</title>
<path fill="none" stroke="midnightblue" d="M685.09,-443.07C704.27,-430.33 725.76,-410.68 713.5,-392 691.44,-358.38 656,-387.09 630.5,-356 617.03,-339.58 615.69,-313.18 616,-299.64"/>
<polygon fill="midnightblue" stroke="midnightblue" points="683.18,-440.13 676.57,-448.41 686.9,-446.06 683.18,-440.13"/>
</g>
<!-- Node19&#45;&gt;Node27 -->
<g id="edge31" class="edge">
<title>Node19&#45;&gt;Node27</title>
<path fill="none" stroke="midnightblue" d="M710.47,-452.24C780.35,-445.25 911.08,-430.96 1021.5,-412 1026.1,-411.21 1030.96,-410.25 1035.66,-409.26"/>
<polygon fill="midnightblue" stroke="midnightblue" points="709.81,-448.79 700.21,-453.26 710.5,-455.75 709.81,-448.79"/>
</g>
<!-- Node29 -->
<g id="node29" class="node">
<title>Node29</title>
<g id="a_node29"><a xlink:href="buffer__inlines_8h_source.html" target="_top" xlink:title=" ">
<polygon fill="white" stroke="black" points="1127.5,-280.5 1127.5,-299.5 1219.5,-299.5 1219.5,-280.5 1127.5,-280.5"/>
<text text-anchor="middle" x="1173.5" y="-287.5" font-family="Helvetica,sans-Serif" font-size="10.00">buffer_inlines.h</text>
</a>
</g>
</g>
<!-- Node19&#45;&gt;Node29 -->
<g id="edge58" class="edge">
<title>Node19&#45;&gt;Node29</title>
<path fill="none" stroke="midnightblue" d="M693.22,-444.98C733.5,-430.59 804.23,-406.59 866.5,-392 967.67,-368.3 1003.1,-399.42 1097.5,-356 1126.84,-342.51 1153.66,-314.31 1166.14,-299.9"/>
<polygon fill="midnightblue" stroke="midnightblue" points="691.88,-441.75 683.66,-448.43 694.25,-448.33 691.88,-441.75"/>
</g>
<!-- Node19&#45;&gt;Node30 -->
<g id="edge61" class="edge">
<title>Node19&#45;&gt;Node30</title>
<path fill="none" stroke="midnightblue" d="M710.12,-455.53C775.4,-452.41 893.04,-442.62 988.5,-412 1006.67,-406.17 1009.02,-399.67 1026.5,-392 1070.14,-372.85 1083.01,-373.07 1127.5,-356 1177.62,-336.77 1235.85,-312.24 1265.67,-299.52"/>
<polygon fill="midnightblue" stroke="midnightblue" points="709.93,-452.04 700.1,-455.98 710.25,-459.03 709.93,-452.04"/>
</g>
<!-- Node19&#45;&gt;Node31 -->
<g id="edge62" class="edge">
<title>Node19&#45;&gt;Node31</title>
<path fill="none" stroke="midnightblue" d="M692.9,-444.59C711.1,-436.77 733.67,-425.57 751.5,-412 797.2,-377.21 838.65,-321.03 853.6,-299.64"/>
<polygon fill="midnightblue" stroke="midnightblue" points="691.45,-441.4 683.57,-448.48 694.14,-447.87 691.45,-441.4"/>
</g>
<!-- Node33 -->
<g id="node33" class="node">
<title>Node33</title>
<g id="a_node33"><a xlink:href="spec_2ml_8h.html" target="_top" xlink:title="ODP Machine Learning (ML) offload.">
<polygon fill="white" stroke="black" points="323.5,-392.5 323.5,-411.5 361.5,-411.5 361.5,-392.5 323.5,-392.5"/>
<text text-anchor="middle" x="342.5" y="-399.5" font-family="Helvetica,sans-Serif" font-size="10.00">ml.h</text>
</a>
</g>
</g>
<!-- Node19&#45;&gt;Node33 -->
<g id="edge39" class="edge">
<title>Node19&#45;&gt;Node33</title>
<path fill="none" stroke="midnightblue" d="M610.7,-451.68C552.56,-444.92 453.75,-431.71 370.5,-412 367.62,-411.32 364.6,-410.48 361.67,-409.6"/>
<polygon fill="midnightblue" stroke="midnightblue" points="610.38,-455.17 620.72,-452.83 611.18,-448.22 610.38,-455.17"/>
</g>
<!-- Node19&#45;&gt;Node35 -->
<g id="edge41" class="edge">
<title>Node19&#45;&gt;Node35</title>
<path fill="none" stroke="midnightblue" d="M688.88,-443.64C702.65,-435.98 718.54,-425.25 729.5,-412 752,-384.81 754.84,-371.21 752.5,-336 751.65,-323.26 749.48,-308.62 747.99,-299.59"/>
<polygon fill="midnightblue" stroke="midnightblue" points="686.99,-440.68 679.77,-448.44 690.25,-446.87 686.99,-440.68"/>
</g>
<!-- Node19&#45;&gt;Node37 -->
<g id="edge45" class="edge">
<title>Node19&#45;&gt;Node37</title>
<path fill="none" stroke="midnightblue" d="M710.21,-446.95C760.65,-436.75 837.87,-421.13 885.39,-411.52"/>
<polygon fill="midnightblue" stroke="midnightblue" points="709.29,-443.56 700.18,-448.97 710.68,-450.42 709.29,-443.56"/>
</g>
<!-- Node41 -->
<g id="node41" class="node">
<title>Node41</title>
<g id="a_node41"><a xlink:href="spec_2pool_8h.html" target="_top" xlink:title="ODP pool.">
<polygon fill="white" stroke="black" points="380,-392.5 380,-411.5 427,-411.5 427,-392.5 380,-392.5"/>
<text text-anchor="middle" x="403.5" y="-399.5" font-family="Helvetica,sans-Serif" font-size="10.00">pool.h</text>
</a>
</g>
</g>
<!-- Node19&#45;&gt;Node41 -->
<g id="edge54" class="edge">
<title>Node19&#45;&gt;Node41</title>
<path fill="none" stroke="midnightblue" d="M610.92,-448.22C565.17,-439.84 495.46,-426.4 435.5,-412 432.81,-411.35 430,-410.63 427.21,-409.89"/>
<polygon fill="midnightblue" stroke="midnightblue" points="610.41,-451.68 620.87,-450.03 611.66,-444.79 610.41,-451.68"/>
</g>
<!-- Node43 -->
<g id="node43" class="node">
<title>Node43</title>
<g id="a_node43"><a xlink:href="spec_2timer_8h.html" target="_top" xlink:title="ODP timer service.">
<polygon fill="white" stroke="black" points="445,-392.5 445,-411.5 496,-411.5 496,-392.5 445,-392.5"/>
<text text-anchor="middle" x="470.5" y="-399.5" font-family="Helvetica,sans-Serif" font-size="10.00">timer.h</text>
</a>
</g>
</g>
<!-- Node19&#45;&gt;Node43 -->
<g id="edge56" class="edge">
<title>Node19&#45;&gt;Node43</title>
<path fill="none" stroke="midnightblue" d="M620.32,-445.58C582.85,-434.93 528.1,-419.37 496.2,-410.3"/>
<polygon fill="midnightblue" stroke="midnightblue" points="619.82,-449.08 630.39,-448.44 621.73,-442.34 619.82,-449.08"/>
</g>
<!-- Node19&#45;&gt;Node45 -->
<g id="edge60" class="edge">
<title>Node19&#45;&gt;Node45</title>
<path fill="none" stroke="midnightblue" d="M710.49,-452.83C791.8,-445.82 957.68,-430.62 1097.5,-412 1100.57,-411.59 1103.73,-411.14 1106.91,-410.67"/>
<polygon fill="midnightblue" stroke="midnightblue" points="709.73,-449.38 700.06,-453.72 710.32,-456.36 709.73,-449.38"/>
</g>
<!-- Node46 -->
<g id="node46" class="node">
<title>Node46</title>
<g id="a_node46"><a xlink:href="pool__inlines_8h_source.html" target="_top" xlink:title=" ">
<polygon fill="white" stroke="black" points="514.5,-392.5 514.5,-411.5 598.5,-411.5 598.5,-392.5 514.5,-392.5"/>
<text text-anchor="middle" x="556.5" y="-399.5" font-family="Helvetica,sans-Serif" font-size="10.00">pool_inlines.h</text>
</a>
</g>
</g>
<!-- Node19&#45;&gt;Node46 -->
<g id="edge63" class="edge">
<title>Node19&#45;&gt;Node46</title>
<path fill="none" stroke="midnightblue" d="M634.67,-443.59C615.44,-433.61 589.76,-420.27 573.17,-411.65"/>
<polygon fill="midnightblue" stroke="midnightblue" points="633.3,-446.82 643.79,-448.32 636.53,-440.61 633.3,-446.82"/>
</g>
<!-- Node21 -->
<g id="node21" class="node">
<title>Node21</title>
<g id="a_node21"><a xlink:href="buffer_8h.html" target="_top" xlink:title="ODP buffer descriptor.">
<polygon fill="white" stroke="black" points="252,-336.5 252,-355.5 305,-355.5 305,-336.5 252,-336.5"/>
<text text-anchor="middle" x="278.5" y="-343.5" font-family="Helvetica,sans-Serif" font-size="10.00">buffer.h</text>
</a>
</g>
</g>
<!-- Node20&#45;&gt;Node21 -->
<g id="edge22" class="edge">
<title>Node20&#45;&gt;Node21</title>
<path fill="none" stroke="midnightblue" d="M278.5,-381.8C278.5,-372.91 278.5,-362.78 278.5,-355.75"/>
<polygon fill="midnightblue" stroke="midnightblue" points="275,-382.08 278.5,-392.08 282,-382.08 275,-382.08"/>
</g>
<!-- Node21&#45;&gt;Node22 -->
<g id="edge23" class="edge">
<title>Node21&#45;&gt;Node22</title>
<path fill="none" stroke="midnightblue" d="M262.21,-329C252.46,-319.43 240.45,-307.64 232.41,-299.75"/>
<polygon fill="midnightblue" stroke="midnightblue" points="259.83,-331.57 269.42,-336.08 264.73,-326.58 259.83,-331.57"/>
</g>
<!-- Node24 -->
<g id="node24" class="node">
<title>Node24</title>
<g id="a_node24"><a xlink:href="classification_8h.html" target="_top" xlink:title="ODP classification descriptor.">
<polygon fill="white" stroke="black" points="572,-224.5 572,-243.5 661,-243.5 661,-224.5 572,-224.5"/>
<text text-anchor="middle" x="616.5" y="-231.5" font-family="Helvetica,sans-Serif" font-size="10.00">classification.h</text>
</a>
</g>
</g>
<!-- Node23&#45;&gt;Node24 -->
<g id="edge25" class="edge">
<title>Node23&#45;&gt;Node24</title>
<path fill="none" stroke="midnightblue" d="M616.5,-269.8C616.5,-260.91 616.5,-250.78 616.5,-243.75"/>
<polygon fill="midnightblue" stroke="midnightblue" points="613,-270.08 616.5,-280.08 620,-270.08 613,-270.08"/>
</g>
<!-- Node24&#45;&gt;Node10 -->
<g id="edge26" class="edge">
<title>Node24&#45;&gt;Node10</title>
<path fill="none" stroke="midnightblue" d="M585.02,-220.77C558.91,-210.63 522.46,-196.47 499.42,-187.52"/>
<polygon fill="midnightblue" stroke="midnightblue" points="583.89,-224.08 594.48,-224.44 586.42,-217.56 583.89,-224.08"/>
</g>
<!-- Node24&#45;&gt;Node25 -->
<g id="edge27" class="edge">
<title>Node24&#45;&gt;Node25</title>
<path fill="none" stroke="midnightblue" d="M657.1,-221.7C693.72,-211.51 746.76,-196.74 779.9,-187.52"/>
<polygon fill="midnightblue" stroke="midnightblue" points="655.94,-218.39 647.24,-224.44 657.81,-225.13 655.94,-218.39"/>
</g>
<!-- Node26 -->
<g id="node26" class="node">
<title>Node26</title>
<g id="a_node26"><a xlink:href="packet__io_8h.html" target="_top" xlink:title="ODP Packet IO.">
<polygon fill="white" stroke="black" points="774.5,-112.5 774.5,-131.5 846.5,-131.5 846.5,-112.5 774.5,-112.5"/>
<text text-anchor="middle" x="810.5" y="-119.5" font-family="Helvetica,sans-Serif" font-size="10.00">packet_io.h</text>
</a>
</g>
</g>
<!-- Node25&#45;&gt;Node26 -->
<g id="edge28" class="edge">
<title>Node25&#45;&gt;Node26</title>
<path fill="none" stroke="midnightblue" d="M810.5,-157.8C810.5,-148.91 810.5,-138.78 810.5,-131.75"/>
<polygon fill="midnightblue" stroke="midnightblue" points="807,-158.08 810.5,-168.08 814,-158.08 807,-158.08"/>
</g>
<!-- Node28 -->
<g id="node28" class="node">
<title>Node28</title>
<g id="a_node28"><a xlink:href="event_8h.html" target="_top" xlink:title="ODP event.">
<polygon fill="white" stroke="black" points="1036,-336.5 1036,-355.5 1089,-355.5 1089,-336.5 1036,-336.5"/>
<text text-anchor="middle" x="1062.5" y="-343.5" font-family="Helvetica,sans-Serif" font-size="10.00">event.h</text>
</a>
</g>
</g>
<!-- Node27&#45;&gt;Node28 -->
<g id="edge32" class="edge">
<title>Node27&#45;&gt;Node28</title>
<path fill="none" stroke="midnightblue" d="M1062.5,-381.8C1062.5,-372.91 1062.5,-362.78 1062.5,-355.75"/>
<polygon fill="midnightblue" stroke="midnightblue" points="1059,-382.08 1062.5,-392.08 1066,-382.08 1059,-382.08"/>
</g>
<!-- Node28&#45;&gt;Node12 -->
<g id="edge35" class="edge">
<title>Node28&#45;&gt;Node12</title>
<path fill="none" stroke="midnightblue" d="M1040.29,-330.35C1029.9,-322.47 1018.16,-311.93 1010.5,-300 994.24,-274.68 991.5,-265.1 991.5,-235 991.5,-235 991.5,-235 991.5,-177 991.5,-90.16 861.82,-71.45 791.15,-67.71"/>
<polygon fill="midnightblue" stroke="midnightblue" points="1038.42,-333.32 1048.58,-336.31 1042.51,-327.63 1038.42,-333.32"/>
</g>
<!-- Node28&#45;&gt;Node13 -->
<g id="edge34" class="edge">
<title>Node28&#45;&gt;Node13</title>
<path fill="none" stroke="midnightblue" d="M1036.97,-331.6C1002.5,-313.6 944.13,-283.44 933.5,-280 837.14,-248.85 791.74,-301.68 708.5,-244 688.65,-230.24 678.11,-202.16 673.83,-187.84"/>
<polygon fill="midnightblue" stroke="midnightblue" points="1035.52,-334.79 1046,-336.33 1038.76,-328.59 1035.52,-334.79"/>
</g>
<!-- Node28&#45;&gt;Node29 -->
<g id="edge33" class="edge">
<title>Node28&#45;&gt;Node29</title>
<path fill="none" stroke="midnightblue" d="M1089.51,-331.86C1110.09,-321.85 1137.84,-308.35 1155.71,-299.65"/>
<polygon fill="midnightblue" stroke="midnightblue" points="1087.8,-328.8 1080.33,-336.32 1090.86,-335.1 1087.8,-328.8"/>
</g>
<!-- Node28&#45;&gt;Node30 -->
<g id="edge36" class="edge">
<title>Node28&#45;&gt;Node30</title>
<path fill="none" stroke="midnightblue" d="M1099.17,-336.12C1140.96,-326 1208.78,-309.58 1250.05,-299.58"/>
<polygon fill="midnightblue" stroke="midnightblue" points="1098.29,-332.73 1089.4,-338.49 1099.94,-339.53 1098.29,-332.73"/>
</g>
<!-- Node28&#45;&gt;Node31 -->
<g id="edge37" class="edge">
<title>Node28&#45;&gt;Node31</title>
<path fill="none" stroke="midnightblue" d="M1026.26,-335.36C988.04,-325.19 928.38,-309.32 891.74,-299.58"/>
<polygon fill="midnightblue" stroke="midnightblue" points="1025.4,-338.75 1035.96,-337.94 1027.2,-331.99 1025.4,-338.75"/>
</g>
<!-- Node32 -->
<g id="node32" class="node">
<title>Node32</title>
<g id="a_node32"><a xlink:href="timer__inlines_8h_source.html" target="_top" xlink:title=" ">
<polygon fill="white" stroke="black" points="1020,-280.5 1020,-299.5 1109,-299.5 1109,-280.5 1020,-280.5"/>
<text text-anchor="middle" x="1064.5" y="-287.5" font-family="Helvetica,sans-Serif" font-size="10.00">timer_inlines.h</text>
</a>
</g>
</g>
<!-- Node28&#45;&gt;Node32 -->
<g id="edge38" class="edge">
<title>Node28&#45;&gt;Node32</title>
<path fill="none" stroke="midnightblue" d="M1063.21,-325.8C1063.54,-316.91 1063.92,-306.78 1064.18,-299.75"/>
<polygon fill="midnightblue" stroke="midnightblue" points="1059.7,-325.96 1062.83,-336.08 1066.7,-326.22 1059.7,-325.96"/>
</g>
<!-- Node34 -->
<g id="node34" class="node">
<title>Node34</title>
<g id="a_node34"><a xlink:href="ml_8h.html" target="_top" xlink:title="ODP Machine Learning (ML) offload.">
<polygon fill="white" stroke="black" points="323.5,-336.5 323.5,-355.5 361.5,-355.5 361.5,-336.5 323.5,-336.5"/>
<text text-anchor="middle" x="342.5" y="-343.5" font-family="Helvetica,sans-Serif" font-size="10.00">ml.h</text>
</a>
</g>
</g>
<!-- Node33&#45;&gt;Node34 -->
<g id="edge40" class="edge">
<title>Node33&#45;&gt;Node34</title>
<path fill="none" stroke="midnightblue" d="M342.5,-381.8C342.5,-372.91 342.5,-362.78 342.5,-355.75"/>
<polygon fill="midnightblue" stroke="midnightblue" points="339,-382.08 342.5,-392.08 346,-382.08 339,-382.08"/>
</g>
<!-- Node36 -->
<g id="node36" class="node">
<title>Node36</title>
<g id="a_node36"><a xlink:href="packet_8h.html" target="_top" xlink:title="ODP packet descriptor.">
<polygon fill="white" stroke="black" points="717.5,-224.5 717.5,-243.5 775.5,-243.5 775.5,-224.5 717.5,-224.5"/>
<text text-anchor="middle" x="746.5" y="-231.5" font-family="Helvetica,sans-Serif" font-size="10.00">packet.h</text>
</a>
</g>
</g>
<!-- Node35&#45;&gt;Node36 -->
<g id="edge42" class="edge">
<title>Node35&#45;&gt;Node36</title>
<path fill="none" stroke="midnightblue" d="M746.5,-269.8C746.5,-260.91 746.5,-250.78 746.5,-243.75"/>
<polygon fill="midnightblue" stroke="midnightblue" points="743,-270.08 746.5,-280.08 750,-270.08 743,-270.08"/>
</g>
<!-- Node36&#45;&gt;Node12 -->
<g id="edge44" class="edge">
<title>Node36&#45;&gt;Node12</title>
<path fill="none" stroke="midnightblue" d="M746.5,-213.93C746.5,-177.92 746.5,-101.23 746.5,-75.57"/>
<polygon fill="midnightblue" stroke="midnightblue" points="743,-214.08 746.5,-224.08 750,-214.08 743,-214.08"/>
</g>
<!-- Node36&#45;&gt;Node13 -->
<g id="edge43" class="edge">
<title>Node36&#45;&gt;Node13</title>
<path fill="none" stroke="midnightblue" d="M726.19,-218.38C712.64,-208.62 695.26,-196.11 683.77,-187.83"/>
<polygon fill="midnightblue" stroke="midnightblue" points="724.29,-221.32 734.45,-224.32 728.38,-215.64 724.29,-221.32"/>
</g>
<!-- Node38 -->
<g id="node38" class="node">
<title>Node38</title>
<g id="a_node38"><a xlink:href="packet__io__types_8h.html" target="_top" xlink:title="ODP Packet IO.">
<polygon fill="white" stroke="black" points="639.5,-336.5 639.5,-355.5 743.5,-355.5 743.5,-336.5 639.5,-336.5"/>
<text text-anchor="middle" x="691.5" y="-343.5" font-family="Helvetica,sans-Serif" font-size="10.00">packet_io_types.h</text>
</a>
</g>
</g>
<!-- Node37&#45;&gt;Node38 -->
<g id="edge46" class="edge">
<title>Node37&#45;&gt;Node38</title>
<path fill="none" stroke="midnightblue" d="M880.09,-390.15C835.5,-379.95 769.65,-364.88 728.72,-355.52"/>
<polygon fill="midnightblue" stroke="midnightblue" points="879.58,-393.62 890.11,-392.44 881.14,-386.8 879.58,-393.62"/>
</g>
<!-- Node38&#45;&gt;Node10 -->
<g id="edge48" class="edge">
<title>Node38&#45;&gt;Node10</title>
<path fill="none" stroke="midnightblue" d="M629.05,-341.49C568.36,-336.62 482.37,-325.35 461.5,-300 433.89,-266.46 460.76,-209.05 472.56,-187.5"/>
<polygon fill="midnightblue" stroke="midnightblue" points="629.08,-345 639.32,-342.27 629.61,-338.02 629.08,-345"/>
</g>
<!-- Node38&#45;&gt;Node23 -->
<g id="edge47" class="edge">
<title>Node38&#45;&gt;Node23</title>
<path fill="none" stroke="midnightblue" d="M671.19,-330.38C657.64,-320.62 640.26,-308.11 628.77,-299.83"/>
<polygon fill="midnightblue" stroke="midnightblue" points="669.29,-333.32 679.45,-336.32 673.38,-327.64 669.29,-333.32"/>
</g>
<!-- Node38&#45;&gt;Node25 -->
<g id="edge50" class="edge">
<title>Node38&#45;&gt;Node25</title>
<path fill="none" stroke="midnightblue" d="M692.22,-326.34C693.68,-312.19 697.69,-293.04 708.5,-280 732.35,-251.22 758.9,-271.23 784.5,-244 799.82,-227.71 806.55,-201.26 809.12,-187.67"/>
<polygon fill="midnightblue" stroke="midnightblue" points="688.73,-326.17 691.53,-336.39 695.71,-326.65 688.73,-326.17"/>
</g>
<!-- Node38&#45;&gt;Node35 -->
<g id="edge49" class="edge">
<title>Node38&#45;&gt;Node35</title>
<path fill="none" stroke="midnightblue" d="M707.79,-329C717.54,-319.43 729.55,-307.64 737.59,-299.75"/>
<polygon fill="midnightblue" stroke="midnightblue" points="705.27,-326.58 700.58,-336.08 710.17,-331.57 705.27,-326.58"/>
</g>
<!-- Node39 -->
<g id="node39" class="node">
<title>Node39</title>
<g id="a_node39"><a xlink:href="spec_2traffic__mngr_8h.html" target="_top" xlink:title=" ">
<polygon fill="white" stroke="black" points="470.5,-280.5 470.5,-299.5 554.5,-299.5 554.5,-280.5 470.5,-280.5"/>
<text text-anchor="middle" x="512.5" y="-287.5" font-family="Helvetica,sans-Serif" font-size="10.00">traffic_mngr.h</text>
</a>
</g>
</g>
<!-- Node38&#45;&gt;Node39 -->
<g id="edge51" class="edge">
<title>Node38&#45;&gt;Node39</title>
<path fill="none" stroke="midnightblue" d="M653.17,-333.44C619.42,-323.26 571.05,-308.66 540.73,-299.52"/>
<polygon fill="midnightblue" stroke="midnightblue" points="652.55,-336.91 663.14,-336.44 654.57,-330.2 652.55,-336.91"/>
</g>
<!-- Node40 -->
<g id="node40" class="node">
<title>Node40</title>
<g id="a_node40"><a xlink:href="traffic__mngr_8h.html" target="_top" xlink:title="ODP Traffic manager.">
<polygon fill="white" stroke="black" points="470.5,-224.5 470.5,-243.5 554.5,-243.5 554.5,-224.5 470.5,-224.5"/>
<text text-anchor="middle" x="512.5" y="-231.5" font-family="Helvetica,sans-Serif" font-size="10.00">traffic_mngr.h</text>
</a>
</g>
</g>
<!-- Node39&#45;&gt;Node40 -->
<g id="edge52" class="edge">
<title>Node39&#45;&gt;Node40</title>
<path fill="none" stroke="midnightblue" d="M512.5,-269.8C512.5,-260.91 512.5,-250.78 512.5,-243.75"/>
<polygon fill="midnightblue" stroke="midnightblue" points="509,-270.08 512.5,-280.08 516,-270.08 509,-270.08"/>
</g>
<!-- Node40&#45;&gt;Node10 -->
<g id="edge53" class="edge">
<title>Node40&#45;&gt;Node10</title>
<path fill="none" stroke="midnightblue" d="M501.2,-215.57C495.18,-206.27 488.03,-195.25 483.17,-187.75"/>
<polygon fill="midnightblue" stroke="midnightblue" points="498.34,-217.6 506.72,-224.08 504.22,-213.79 498.34,-217.6"/>
</g>
<!-- Node42 -->
<g id="node42" class="node">
<title>Node42</title>
<g id="a_node42"><a xlink:href="pool_8h.html" target="_top" xlink:title="ODP pool.">
<polygon fill="white" stroke="black" points="380,-336.5 380,-355.5 427,-355.5 427,-336.5 380,-336.5"/>
<text text-anchor="middle" x="403.5" y="-343.5" font-family="Helvetica,sans-Serif" font-size="10.00">pool.h</text>
</a>
</g>
</g>
<!-- Node41&#45;&gt;Node42 -->
<g id="edge55" class="edge">
<title>Node41&#45;&gt;Node42</title>
<path fill="none" stroke="midnightblue" d="M403.5,-381.8C403.5,-372.91 403.5,-362.78 403.5,-355.75"/>
<polygon fill="midnightblue" stroke="midnightblue" points="400,-382.08 403.5,-392.08 407,-382.08 400,-382.08"/>
</g>
<!-- Node44 -->
<g id="node44" class="node">
<title>Node44</title>
<g id="a_node44"><a xlink:href="timer_8h.html" target="_top" xlink:title="ODP timer service.">
<polygon fill="white" stroke="black" points="445,-336.5 445,-355.5 496,-355.5 496,-336.5 445,-336.5"/>
<text text-anchor="middle" x="470.5" y="-343.5" font-family="Helvetica,sans-Serif" font-size="10.00">timer.h</text>
</a>
</g>
</g>
<!-- Node43&#45;&gt;Node44 -->
<g id="edge57" class="edge">
<title>Node43&#45;&gt;Node44</title>
<path fill="none" stroke="midnightblue" d="M470.5,-381.8C470.5,-372.91 470.5,-362.78 470.5,-355.75"/>
<polygon fill="midnightblue" stroke="midnightblue" points="467,-382.08 470.5,-392.08 474,-382.08 467,-382.08"/>
</g>
<!-- Node48 -->
<g id="node48" class="node">
<title>Node48</title>
<g id="a_node48"><a xlink:href="packet__flags_8h.html" target="_top" xlink:title="ODP packet flags.">
<polygon fill="white" stroke="black" points="1397.5,-560.5 1397.5,-579.5 1483.5,-579.5 1483.5,-560.5 1397.5,-560.5"/>
<text text-anchor="middle" x="1440.5" y="-567.5" font-family="Helvetica,sans-Serif" font-size="10.00">packet_flags.h</text>
</a>
</g>
</g>
<!-- Node47&#45;&gt;Node48 -->
<g id="edge69" class="edge">
<title>Node47&#45;&gt;Node48</title>
<path fill="none" stroke="midnightblue" d="M1440.5,-605.8C1440.5,-596.91 1440.5,-586.78 1440.5,-579.75"/>
<polygon fill="midnightblue" stroke="midnightblue" points="1437,-606.08 1440.5,-616.08 1444,-606.08 1437,-606.08"/>
</g>
<!-- Node49&#45;&gt;Node29 -->
<g id="edge74" class="edge">
<title>Node49&#45;&gt;Node29</title>
<path fill="none" stroke="midnightblue" d="M1241.21,-331.18C1224.46,-321.24 1202.4,-308.15 1188.08,-299.65"/>
<polygon fill="midnightblue" stroke="midnightblue" points="1239.49,-334.23 1249.88,-336.32 1243.07,-328.21 1239.49,-334.23"/>
</g>
<!-- Node49&#45;&gt;Node30 -->
<g id="edge75" class="edge">
<title>Node49&#45;&gt;Node30</title>
<path fill="none" stroke="midnightblue" d="M1271.62,-326.69C1275.16,-317.59 1279.27,-307.01 1282.1,-299.75"/>
<polygon fill="midnightblue" stroke="midnightblue" points="1268.33,-325.49 1267.97,-336.08 1274.85,-328.03 1268.33,-325.49"/>
</g>
<!-- Node50 -->
<g id="node50" class="node">
<title>Node50</title>
<g id="a_node50"><a xlink:href="queue__inlines_8h_source.html" target="_top" xlink:title=" ">
<polygon fill="white" stroke="black" points="1351,-280.5 1351,-299.5 1444,-299.5 1444,-280.5 1351,-280.5"/>
<text text-anchor="middle" x="1397.5" y="-287.5" font-family="Helvetica,sans-Serif" font-size="10.00">queue_inlines.h</text>
</a>
</g>
</g>
<!-- Node49&#45;&gt;Node50 -->
<g id="edge76" class="edge">
<title>Node49&#45;&gt;Node50</title>
<path fill="none" stroke="midnightblue" d="M1294.95,-332.64C1319.91,-322.5 1354.58,-308.43 1376.52,-299.52"/>
<polygon fill="midnightblue" stroke="midnightblue" points="1293.52,-329.44 1285.57,-336.44 1296.16,-335.92 1293.52,-329.44"/>
</g>
</g>
</svg>
