<?xml version="1.0" encoding="UTF-8" standalone="no"?>
<!DOCTYPE svg PUBLIC "-//W3C//DTD SVG 1.1//EN"
 "http://www.w3.org/Graphics/SVG/1.1/DTD/svg11.dtd">
<!-- Generated by graphviz version 2.43.0 (0)
 -->
<!-- Title: packet_types.h Pages: 1 -->
<svg width="1238pt" height="753pt"
 viewBox="0.00 0.00 1238.00 753.00" xmlns="http://www.w3.org/2000/svg" xmlns:xlink="http://www.w3.org/1999/xlink">
<g id="graph0" class="graph" transform="scale(1 1) rotate(0) translate(4 749)">
<title>packet_types.h</title>
<!-- Node1 -->
<g id="Node000001" class="node">
<title>Node1</title>
<g id="a_Node000001"><a xlink:title="ODP packet.">
<polygon fill="#999999" stroke="#666666" points="802,-745 712,-745 712,-726 802,-726 802,-745"/>
<text text-anchor="middle" x="757" y="-733" font-family="Helvetica,sans-Serif" font-size="10.00">packet_types.h</text>
</a>
</g>
</g>
<!-- Node2 -->
<g id="Node000002" class="node">
<title>Node2</title>
<g id="a_Node000002"><a xlink:title=" ">
<polygon fill="#e0e0e0" stroke="#999999" points="686,-690 580,-690 580,-660 686,-660 686,-690"/>
<text text-anchor="start" x="588" y="-678" font-family="Helvetica,sans-Serif" font-size="10.00">odp/api/abi/packet</text>
<text text-anchor="middle" x="633" y="-667" font-family="Helvetica,sans-Serif" font-size="10.00">_io_types.h</text>
</a>
</g>
</g>
<!-- Node1&#45;&gt;Node2 -->
<g id="edge1_Node000001_Node000002" class="edge">
<title>Node1&#45;&gt;Node2</title>
<g id="a_edge1_Node000001_Node000002"><a xlink:title=" ">
<path fill="none" stroke="#63b8ff" d="M738.97,-725.99C721.57,-717.79 694.66,-705.09 672.31,-694.55"/>
<polygon fill="#63b8ff" stroke="#63b8ff" points="673.59,-691.28 663.05,-690.18 670.6,-697.61 673.59,-691.28"/>
</a>
</g>
</g>
<!-- Node3 -->
<g id="Node000003" class="node">
<title>Node3</title>
<g id="a_Node000003"><a xlink:title=" ">
<polygon fill="#e0e0e0" stroke="#999999" points="810,-690 704,-690 704,-660 810,-660 810,-690"/>
<text text-anchor="start" x="712" y="-678" font-family="Helvetica,sans-Serif" font-size="10.00">odp/api/abi/packet</text>
<text text-anchor="middle" x="757" y="-667" font-family="Helvetica,sans-Serif" font-size="10.00">_types.h</text>
</a>
</g>
</g>
<!-- Node1&#45;&gt;Node3 -->
<g id="edge2_Node000001_Node000003" class="edge">
<title>Node1&#45;&gt;Node3</title>
<g id="a_edge2_Node000001_Node000003"><a xlink:title=" ">
<path fill="none" stroke="#63b8ff" d="M757,-725.87C757,-719.11 757,-709.35 757,-700.26"/>
<polygon fill="#63b8ff" stroke="#63b8ff" points="760.5,-700.11 757,-690.11 753.5,-700.11 760.5,-700.11"/>
</a>
</g>
</g>
<!-- Node4 -->
<g id="Node000004" class="node">
<title>Node4</title>
<g id="a_Node000004"><a xlink:href="spec_2packet__types_8h.html" target="_top" xlink:title="ODP packet types.">
<polygon fill="white" stroke="#666666" points="941.5,-690 828.5,-690 828.5,-660 941.5,-660 941.5,-690"/>
<text text-anchor="start" x="836.5" y="-678" font-family="Helvetica,sans-Serif" font-size="10.00">odp/api/spec/packet</text>
<text text-anchor="middle" x="885" y="-667" font-family="Helvetica,sans-Serif" font-size="10.00">_types.h</text>
</a>
</g>
</g>
<!-- Node1&#45;&gt;Node4 -->
<g id="edge3_Node000001_Node000004" class="edge">
<title>Node1&#45;&gt;Node4</title>
<g id="a_edge3_Node000001_Node000004"><a xlink:title=" ">
<path fill="none" stroke="#63b8ff" d="M775.61,-725.99C793.65,-717.75 821.6,-704.98 844.73,-694.4"/>
<polygon fill="#63b8ff" stroke="#63b8ff" points="846.34,-697.52 853.98,-690.18 843.43,-691.15 846.34,-697.52"/>
</a>
</g>
</g>
<!-- Node5 -->
<g id="Node000005" class="node">
<title>Node5</title>
<g id="a_Node000005"><a xlink:title=" ">
<polygon fill="#e0e0e0" stroke="#999999" points="418.5,-19 297.5,-19 297.5,0 418.5,0 418.5,-19"/>
<text text-anchor="middle" x="358" y="-7" font-family="Helvetica,sans-Serif" font-size="10.00">odp/visibility_begin.h</text>
</a>
</g>
</g>
<!-- Node4&#45;&gt;Node5 -->
<g id="edge4_Node000004_Node000005" class="edge">
<title>Node4&#45;&gt;Node5</title>
<g id="a_edge4_Node000004_Node000005"><a xlink:title=" ">
<path fill="none" stroke="#63b8ff" d="M828.17,-661.64C825.08,-661.06 822,-660.51 819,-660 728.55,-644.64 0,-646.74 0,-555 0,-555 0,-555 0,-129.5 0,-89.87 15.55,-76.25 49,-55 87.42,-30.59 208.43,-19.06 287.13,-14.01"/>
<polygon fill="#63b8ff" stroke="#63b8ff" points="287.7,-17.48 297.46,-13.37 287.26,-10.49 287.7,-17.48"/>
</a>
</g>
</g>
<!-- Node6 -->
<g id="Node000006" class="node">
<title>Node6</title>
<g id="a_Node000006"><a xlink:href="proto__stats__types_8h.html" target="_top" xlink:title="ODP proto stats types.">
<polygon fill="white" stroke="#666666" points="1020,-382 910,-382 910,-352 1020,-352 1020,-382"/>
<text text-anchor="start" x="918" y="-370" font-family="Helvetica,sans-Serif" font-size="10.00">odp/api/proto_stats</text>
<text text-anchor="middle" x="965" y="-359" font-family="Helvetica,sans-Serif" font-size="10.00">_types.h</text>
</a>
</g>
</g>
<!-- Node4&#45;&gt;Node6 -->
<g id="edge5_Node000004_Node000006" class="edge">
<title>Node4&#45;&gt;Node6</title>
<g id="a_edge5_Node000004_Node000006"><a xlink:title=" ">
<path fill="none" stroke="#63b8ff" d="M897.72,-659.77C915.34,-638.56 945,-596.65 945,-555 945,-555 945,-555 945,-492.5 945,-457.22 952.93,-417.02 958.8,-392.08"/>
<polygon fill="#63b8ff" stroke="#63b8ff" points="962.27,-392.62 961.24,-382.07 955.47,-390.96 962.27,-392.62"/>
</a>
</g>
</g>
<!-- Node16 -->
<g id="Node000016" class="node">
<title>Node16</title>
<g id="a_Node000016"><a xlink:title=" ">
<polygon fill="#e0e0e0" stroke="#999999" points="945,-19 833,-19 833,0 945,0 945,-19"/>
<text text-anchor="middle" x="889" y="-7" font-family="Helvetica,sans-Serif" font-size="10.00">odp/visibility_end.h</text>
</a>
</g>
</g>
<!-- Node4&#45;&gt;Node16 -->
<g id="edge51_Node000004_Node000016" class="edge">
<title>Node4&#45;&gt;Node16</title>
<g id="a_edge51_Node000004_Node000016"><a xlink:title=" ">
<path fill="none" stroke="#63b8ff" d="M941.58,-666.41C1039.46,-651.68 1230,-615.27 1230,-555 1230,-555 1230,-555 1230,-129.5 1230,-74.08 1180.8,-77.17 1130,-55 1074,-30.56 1004.99,-19.54 955.19,-14.57"/>
<polygon fill="#63b8ff" stroke="#63b8ff" points="955.46,-11.08 945.18,-13.63 954.81,-18.05 955.46,-11.08"/>
</a>
</g>
</g>
<!-- Node17 -->
<g id="Node000017" class="node">
<title>Node17</title>
<g id="a_Node000017"><a xlink:href="queue__types_8h.html" target="_top" xlink:title="ODP queue.">
<polygon fill="white" stroke="#666666" points="888.5,-624 761.5,-624 761.5,-605 888.5,-605 888.5,-624"/>
<text text-anchor="middle" x="825" y="-612" font-family="Helvetica,sans-Serif" font-size="10.00">odp/api/queue_types.h</text>
</a>
</g>
</g>
<!-- Node4&#45;&gt;Node17 -->
<g id="edge21_Node000004_Node000017" class="edge">
<title>Node4&#45;&gt;Node17</title>
<g id="a_edge21_Node000004_Node000017"><a xlink:title=" ">
<path fill="none" stroke="#63b8ff" d="M870.48,-659.84C861.68,-651.26 850.43,-640.3 841.33,-631.42"/>
<polygon fill="#63b8ff" stroke="#63b8ff" points="843.59,-628.74 833.99,-624.27 838.71,-633.75 843.59,-628.74"/>
</a>
</g>
</g>
<!-- Node7 -->
<g id="Node000007" class="node">
<title>Node7</title>
<g id="a_Node000007"><a xlink:title=" ">
<polygon fill="#e0e0e0" stroke="#999999" points="1164,-316 1036,-316 1036,-286 1164,-286 1164,-316"/>
<text text-anchor="start" x="1044" y="-304" font-family="Helvetica,sans-Serif" font-size="10.00">odp/api/abi/proto_stats</text>
<text text-anchor="middle" x="1100" y="-293" font-family="Helvetica,sans-Serif" font-size="10.00">_types.h</text>
</a>
</g>
</g>
<!-- Node6&#45;&gt;Node7 -->
<g id="edge6_Node000006_Node000007" class="edge">
<title>Node6&#45;&gt;Node7</title>
<g id="a_edge6_Node000006_Node000007"><a xlink:title=" ">
<path fill="none" stroke="#63b8ff" d="M994.63,-351.95C1014.23,-342.66 1040.14,-330.38 1061.37,-320.32"/>
<polygon fill="#63b8ff" stroke="#63b8ff" points="1062.91,-323.46 1070.44,-316.01 1059.91,-317.13 1062.91,-323.46"/>
</a>
</g>
</g>
<!-- Node8 -->
<g id="Node000008" class="node">
<title>Node8</title>
<g id="a_Node000008"><a xlink:href="spec_2proto__stats__types_8h.html" target="_top" xlink:title="ODP proto stats types.">
<polygon fill="white" stroke="#666666" points="1017.5,-316 910.5,-316 910.5,-286 1017.5,-286 1017.5,-316"/>
<text text-anchor="start" x="918.5" y="-304" font-family="Helvetica,sans-Serif" font-size="10.00">odp/api/spec/proto</text>
<text text-anchor="middle" x="964" y="-293" font-family="Helvetica,sans-Serif" font-size="10.00">_stats_types.h</text>
</a>
</g>
</g>
<!-- Node6&#45;&gt;Node8 -->
<g id="edge7_Node000006_Node000008" class="edge">
<title>Node6&#45;&gt;Node8</title>
<g id="a_edge7_Node000006_Node000008"><a xlink:title=" ">
<path fill="none" stroke="#63b8ff" d="M964.78,-351.8C964.66,-344.34 964.52,-334.99 964.38,-326.41"/>
<polygon fill="#63b8ff" stroke="#63b8ff" points="967.88,-326.11 964.22,-316.16 960.88,-326.22 967.88,-326.11"/>
</a>
</g>
</g>
<!-- Node8&#45;&gt;Node5 -->
<g id="edge8_Node000008_Node000005" class="edge">
<title>Node8&#45;&gt;Node5</title>
<g id="a_edge8_Node000008_Node000005"><a xlink:title=" ">
<path fill="none" stroke="#63b8ff" d="M946.3,-285.96C914.06,-260.95 842.9,-208.29 776,-176 729.67,-153.64 713.68,-159.31 666,-140 648.13,-132.76 644.64,-128.77 627,-121 587.2,-103.46 574.82,-104.61 536,-85 513.54,-73.66 510.72,-65.81 488,-55 459.29,-41.33 425.23,-29.83 399.17,-21.95"/>
<polygon fill="#63b8ff" stroke="#63b8ff" points="399.84,-18.5 389.25,-19.01 397.84,-25.21 399.84,-18.5"/>
</a>
</g>
</g>
<!-- Node9 -->
<g id="Node000009" class="node">
<title>Node9</title>
<g id="a_Node000009"><a xlink:href="std__types_8h.html" target="_top" xlink:title="Standard C language types and definitions for ODP.">
<polygon fill="white" stroke="#666666" points="676,-250 564,-250 564,-231 676,-231 676,-250"/>
<text text-anchor="middle" x="620" y="-238" font-family="Helvetica,sans-Serif" font-size="10.00">odp/api/std_types.h</text>
</a>
</g>
</g>
<!-- Node8&#45;&gt;Node9 -->
<g id="edge9_Node000008_Node000009" class="edge">
<title>Node8&#45;&gt;Node9</title>
<g id="a_edge9_Node000008_Node000009"><a xlink:title=" ">
<path fill="none" stroke="#63b8ff" d="M910.25,-290.86C847.83,-280.24 745.14,-262.78 680.12,-251.72"/>
<polygon fill="#63b8ff" stroke="#63b8ff" points="680.47,-248.23 670.02,-250.01 679.29,-255.13 680.47,-248.23"/>
</a>
</g>
</g>
<!-- Node8&#45;&gt;Node16 -->
<g id="edge20_Node000008_Node000016" class="edge">
<title>Node8&#45;&gt;Node16</title>
<g id="a_edge20_Node000008_Node000016"><a xlink:title=" ">
<path fill="none" stroke="#63b8ff" d="M964.21,-285.67C964.5,-264.14 965,-222.17 965,-186.5 965,-186.5 965,-186.5 965,-129.5 965,-94.71 960.28,-83.96 941,-55 933.18,-43.25 921.43,-32.83 911.07,-25.03"/>
<polygon fill="#63b8ff" stroke="#63b8ff" points="912.99,-22.1 902.82,-19.12 908.91,-27.79 912.99,-22.1"/>
</a>
</g>
</g>
<!-- Node10 -->
<g id="Node000010" class="node">
<title>Node10</title>
<g id="a_Node000010"><a xlink:title=" ">
<polygon fill="#e0e0e0" stroke="#999999" points="612,-195 482,-195 482,-176 612,-176 612,-195"/>
<text text-anchor="middle" x="547" y="-183" font-family="Helvetica,sans-Serif" font-size="10.00">odp/api/abi/std_types.h</text>
</a>
</g>
</g>
<!-- Node9&#45;&gt;Node10 -->
<g id="edge10_Node000009_Node000010" class="edge">
<title>Node9&#45;&gt;Node10</title>
<g id="a_edge10_Node000009_Node000010"><a xlink:title=" ">
<path fill="none" stroke="#63b8ff" d="M608.27,-230.98C597.27,-223 580.58,-210.88 567.4,-201.31"/>
<polygon fill="#63b8ff" stroke="#63b8ff" points="569.09,-198.21 558.94,-195.17 564.98,-203.88 569.09,-198.21"/>
</a>
</g>
</g>
<!-- Node11 -->
<g id="Node000011" class="node">
<title>Node11</title>
<g id="a_Node000011"><a xlink:href="spec_2std__types_8h.html" target="_top" xlink:title="Common types and definitions for ODP API files.">
<polygon fill="white" stroke="#666666" points="767.5,-195 630.5,-195 630.5,-176 767.5,-176 767.5,-195"/>
<text text-anchor="middle" x="699" y="-183" font-family="Helvetica,sans-Serif" font-size="10.00">odp/api/spec/std_types.h</text>
</a>
</g>
</g>
<!-- Node9&#45;&gt;Node11 -->
<g id="edge11_Node000009_Node000011" class="edge">
<title>Node9&#45;&gt;Node11</title>
<g id="a_edge11_Node000009_Node000011"><a xlink:title=" ">
<path fill="none" stroke="#63b8ff" d="M632.69,-230.98C644.83,-222.84 663.36,-210.41 677.75,-200.76"/>
<polygon fill="#63b8ff" stroke="#63b8ff" points="679.72,-203.65 686.08,-195.17 675.82,-197.84 679.72,-203.65"/>
</a>
</g>
</g>
<!-- Node11&#45;&gt;Node5 -->
<g id="edge12_Node000011_Node000005" class="edge">
<title>Node11&#45;&gt;Node5</title>
<g id="a_edge12_Node000011_Node000005"><a xlink:title=" ">
<path fill="none" stroke="#63b8ff" d="M656.56,-175.98C627.14,-168.98 587.71,-157.35 556,-140 504.53,-111.84 504.56,-86.41 455,-55 434.65,-42.1 409.95,-30.83 390.56,-22.85"/>
<polygon fill="#63b8ff" stroke="#63b8ff" points="391.83,-19.59 381.24,-19.1 389.21,-26.08 391.83,-19.59"/>
</a>
</g>
</g>
<!-- Node12 -->
<g id="Node000012" class="node">
<title>Node12</title>
<g id="a_Node000012"><a xlink:title=" ">
<polygon fill="#e0e0e0" stroke="#999999" points="618.5,-140 565.5,-140 565.5,-121 618.5,-121 618.5,-140"/>
<text text-anchor="middle" x="592" y="-128" font-family="Helvetica,sans-Serif" font-size="10.00">stdint.h</text>
</a>
</g>
</g>
<!-- Node11&#45;&gt;Node12 -->
<g id="edge13_Node000011_Node000012" class="edge">
<title>Node11&#45;&gt;Node12</title>
<g id="a_edge13_Node000011_Node000012"><a xlink:title=" ">
<path fill="none" stroke="#63b8ff" d="M681.81,-175.98C664.75,-167.54 638.37,-154.47 618.6,-144.68"/>
<polygon fill="#63b8ff" stroke="#63b8ff" points="620.02,-141.47 609.5,-140.17 616.91,-147.75 620.02,-141.47"/>
</a>
</g>
</g>
<!-- Node13 -->
<g id="Node000013" class="node">
<title>Node13</title>
<g id="a_Node000013"><a xlink:href="align_8h.html" target="_top" xlink:title="ODP alignments.">
<polygon fill="white" stroke="#666666" points="764.5,-140 675.5,-140 675.5,-121 764.5,-121 764.5,-140"/>
<text text-anchor="middle" x="720" y="-128" font-family="Helvetica,sans-Serif" font-size="10.00">odp/api/align.h</text>
</a>
</g>
</g>
<!-- Node11&#45;&gt;Node13 -->
<g id="edge14_Node000011_Node000013" class="edge">
<title>Node11&#45;&gt;Node13</title>
<g id="a_edge14_Node000011_Node000013"><a xlink:title=" ">
<path fill="none" stroke="#63b8ff" d="M702.47,-175.75C705.28,-168.65 709.34,-158.4 712.85,-149.56"/>
<polygon fill="#63b8ff" stroke="#63b8ff" points="716.17,-150.68 716.6,-140.09 709.66,-148.1 716.17,-150.68"/>
</a>
</g>
</g>
<!-- Node11&#45;&gt;Node16 -->
<g id="edge19_Node000011_Node000016" class="edge">
<title>Node11&#45;&gt;Node16</title>
<g id="a_edge19_Node000011_Node000016"><a xlink:title=" ">
<path fill="none" stroke="#63b8ff" d="M717.33,-175.99C733.16,-168.08 756.07,-155.25 773,-140 808.13,-108.34 804.62,-89.47 837,-55 847.04,-44.31 859.49,-33.58 869.69,-25.34"/>
<polygon fill="#63b8ff" stroke="#63b8ff" points="871.96,-28.01 877.62,-19.06 867.61,-22.52 871.96,-28.01"/>
</a>
</g>
</g>
<!-- Node14 -->
<g id="Node000014" class="node">
<title>Node14</title>
<g id="a_Node000014"><a xlink:title=" ">
<polygon fill="#e0e0e0" stroke="#999999" points="652.5,-79.5 545.5,-79.5 545.5,-60.5 652.5,-60.5 652.5,-79.5"/>
<text text-anchor="middle" x="599" y="-67.5" font-family="Helvetica,sans-Serif" font-size="10.00">odp/api/abi/align.h</text>
</a>
</g>
</g>
<!-- Node13&#45;&gt;Node14 -->
<g id="edge15_Node000013_Node000014" class="edge">
<title>Node13&#45;&gt;Node14</title>
<g id="a_edge15_Node000013_Node000014"><a xlink:title=" ">
<path fill="none" stroke="#63b8ff" d="M702.41,-120.99C682.24,-111.25 648.98,-95.16 625.64,-83.88"/>
<polygon fill="#63b8ff" stroke="#63b8ff" points="627.14,-80.72 616.62,-79.52 624.1,-87.02 627.14,-80.72"/>
</a>
</g>
</g>
<!-- Node15 -->
<g id="Node000015" class="node">
<title>Node15</title>
<g id="a_Node000015"><a xlink:href="spec_2align_8h.html" target="_top" xlink:title="ODP alignments.">
<polygon fill="white" stroke="#666666" points="785,-79.5 671,-79.5 671,-60.5 785,-60.5 785,-79.5"/>
<text text-anchor="middle" x="728" y="-67.5" font-family="Helvetica,sans-Serif" font-size="10.00">odp/api/spec/align.h</text>
</a>
</g>
</g>
<!-- Node13&#45;&gt;Node15 -->
<g id="edge16_Node000013_Node000015" class="edge">
<title>Node13&#45;&gt;Node15</title>
<g id="a_edge16_Node000013_Node000015"><a xlink:title=" ">
<path fill="none" stroke="#63b8ff" d="M721.18,-120.87C722.29,-112.75 723.99,-100.31 725.42,-89.89"/>
<polygon fill="#63b8ff" stroke="#63b8ff" points="728.93,-90.05 726.81,-79.67 721.99,-89.1 728.93,-90.05"/>
</a>
</g>
</g>
<!-- Node15&#45;&gt;Node5 -->
<g id="edge17_Node000015_Node000005" class="edge">
<title>Node15&#45;&gt;Node5</title>
<g id="a_edge17_Node000015_Node000005"><a xlink:title=" ">
<path fill="none" stroke="#63b8ff" d="M689.11,-60.46C679.91,-58.56 670.13,-56.62 661,-55 581.66,-40.9 490.06,-27.9 428.53,-19.63"/>
<polygon fill="#63b8ff" stroke="#63b8ff" points="428.91,-16.16 418.54,-18.3 427.98,-23.09 428.91,-16.16"/>
</a>
</g>
</g>
<!-- Node15&#45;&gt;Node16 -->
<g id="edge18_Node000015_Node000016" class="edge">
<title>Node15&#45;&gt;Node16</title>
<g id="a_edge18_Node000015_Node000016"><a xlink:title=" ">
<path fill="none" stroke="#63b8ff" d="M751.41,-60.49C778.95,-50.49 824.87,-33.8 856.01,-22.49"/>
<polygon fill="#63b8ff" stroke="#63b8ff" points="857.36,-25.72 865.56,-19.02 854.97,-19.14 857.36,-25.72"/>
</a>
</g>
</g>
<!-- Node18 -->
<g id="Node000018" class="node">
<title>Node18</title>
<g id="a_Node000018"><a xlink:title=" ">
<polygon fill="#e0e0e0" stroke="#999999" points="897.5,-563.5 752.5,-563.5 752.5,-544.5 897.5,-544.5 897.5,-563.5"/>
<text text-anchor="middle" x="825" y="-551.5" font-family="Helvetica,sans-Serif" font-size="10.00">odp/api/abi/queue_types.h</text>
</a>
</g>
</g>
<!-- Node17&#45;&gt;Node18 -->
<g id="edge22_Node000017_Node000018" class="edge">
<title>Node17&#45;&gt;Node18</title>
<g id="a_edge22_Node000017_Node000018"><a xlink:title=" ">
<path fill="none" stroke="#63b8ff" d="M825,-604.87C825,-596.75 825,-584.31 825,-573.89"/>
<polygon fill="#63b8ff" stroke="#63b8ff" points="828.5,-573.67 825,-563.67 821.5,-573.67 828.5,-573.67"/>
</a>
</g>
</g>
<!-- Node19 -->
<g id="Node000019" class="node">
<title>Node19</title>
<g id="a_Node000019"><a xlink:href="spec_2queue__types_8h.html" target="_top" xlink:title="ODP queue types.">
<polygon fill="white" stroke="#666666" points="655.5,-569 544.5,-569 544.5,-539 655.5,-539 655.5,-569"/>
<text text-anchor="start" x="552.5" y="-557" font-family="Helvetica,sans-Serif" font-size="10.00">odp/api/spec/queue</text>
<text text-anchor="middle" x="600" y="-546" font-family="Helvetica,sans-Serif" font-size="10.00">_types.h</text>
</a>
</g>
</g>
<!-- Node17&#45;&gt;Node19 -->
<g id="edge23_Node000017_Node000019" class="edge">
<title>Node17&#45;&gt;Node19</title>
<g id="a_edge23_Node000017_Node000019"><a xlink:title=" ">
<path fill="none" stroke="#63b8ff" d="M792.28,-604.99C758.77,-596.28 705.8,-582.51 663.93,-571.62"/>
<polygon fill="#63b8ff" stroke="#63b8ff" points="664.65,-568.19 654.09,-569.06 662.89,-574.97 664.65,-568.19"/>
</a>
</g>
</g>
<!-- Node19&#45;&gt;Node5 -->
<g id="edge24_Node000019_Node000005" class="edge">
<title>Node19&#45;&gt;Node5</title>
<g id="a_edge24_Node000019_Node000005"><a xlink:title=" ">
<path fill="none" stroke="#63b8ff" d="M544.32,-552.91C402.35,-551.2 38,-536.79 38,-434 38,-434 38,-434 38,-129.5 38,-88.86 56.55,-76.54 91,-55 122.88,-35.06 219.25,-22.66 287.01,-16.17"/>
<polygon fill="#63b8ff" stroke="#63b8ff" points="287.58,-19.63 297.21,-15.21 286.93,-12.66 287.58,-19.63"/>
</a>
</g>
</g>
<!-- Node19&#45;&gt;Node16 -->
<g id="edge50_Node000019_Node000016" class="edge">
<title>Node19&#45;&gt;Node16</title>
<g id="a_edge50_Node000019_Node000016"><a xlink:title=" ">
<path fill="none" stroke="#63b8ff" d="M655.69,-547.66C803.06,-532.79 1192,-488.38 1192,-434 1192,-434 1192,-434 1192,-129.5 1192,-77.39 1034.8,-38.61 946.86,-20.99"/>
<polygon fill="#63b8ff" stroke="#63b8ff" points="947.5,-17.55 937.01,-19.05 946.14,-24.42 947.5,-17.55"/>
</a>
</g>
</g>
<!-- Node20 -->
<g id="Node000020" class="node">
<title>Node20</title>
<g id="a_Node000020"><a xlink:href="event__vector__types_8h.html" target="_top" xlink:title="ODP event vector API type definitions.">
<polygon fill="white" stroke="#666666" points="522.5,-382 403.5,-382 403.5,-352 522.5,-352 522.5,-382"/>
<text text-anchor="start" x="411.5" y="-370" font-family="Helvetica,sans-Serif" font-size="10.00">odp/api/event_vector</text>
<text text-anchor="middle" x="463" y="-359" font-family="Helvetica,sans-Serif" font-size="10.00">_types.h</text>
</a>
</g>
</g>
<!-- Node19&#45;&gt;Node20 -->
<g id="edge25_Node000019_Node000020" class="edge">
<title>Node19&#45;&gt;Node20</title>
<g id="a_edge25_Node000019_Node000020"><a xlink:title=" ">
<path fill="none" stroke="#63b8ff" d="M572.18,-538.93C556.13,-530 536.19,-517.41 521,-503 499.26,-482.37 494.36,-475.3 482,-448 473.97,-430.25 469.1,-408.68 466.3,-392.42"/>
<polygon fill="#63b8ff" stroke="#63b8ff" points="469.69,-391.45 464.69,-382.12 462.78,-392.54 469.69,-391.45"/>
</a>
</g>
</g>
<!-- Node27 -->
<g id="Node000027" class="node">
<title>Node27</title>
<g id="a_Node000027"><a xlink:href="schedule__types_8h.html" target="_top" xlink:title="ODP schedule.">
<polygon fill="white" stroke="#666666" points="670,-503 530,-503 530,-484 670,-484 670,-503"/>
<text text-anchor="middle" x="600" y="-491" font-family="Helvetica,sans-Serif" font-size="10.00">odp/api/schedule_types.h</text>
</a>
</g>
</g>
<!-- Node19&#45;&gt;Node27 -->
<g id="edge37_Node000019_Node000027" class="edge">
<title>Node19&#45;&gt;Node27</title>
<g id="a_edge37_Node000019_Node000027"><a xlink:title=" ">
<path fill="none" stroke="#63b8ff" d="M600,-538.84C600,-531.21 600,-521.7 600,-513.45"/>
<polygon fill="#63b8ff" stroke="#63b8ff" points="603.5,-513.27 600,-503.27 596.5,-513.27 603.5,-513.27"/>
</a>
</g>
</g>
<!-- Node21 -->
<g id="Node000021" class="node">
<title>Node21</title>
<g id="a_Node000021"><a xlink:title=" ">
<polygon fill="#e0e0e0" stroke="#999999" points="242.5,-316 105.5,-316 105.5,-286 242.5,-286 242.5,-316"/>
<text text-anchor="start" x="113.5" y="-304" font-family="Helvetica,sans-Serif" font-size="10.00">odp/api/abi/event_vector</text>
<text text-anchor="middle" x="174" y="-293" font-family="Helvetica,sans-Serif" font-size="10.00">_types.h</text>
</a>
</g>
</g>
<!-- Node20&#45;&gt;Node21 -->
<g id="edge26_Node000020_Node000021" class="edge">
<title>Node20&#45;&gt;Node21</title>
<g id="a_edge26_Node000020_Node000021"><a xlink:title=" ">
<path fill="none" stroke="#63b8ff" d="M403.47,-352.82C358.18,-342.79 295.61,-328.93 247.24,-318.22"/>
<polygon fill="#63b8ff" stroke="#63b8ff" points="247.98,-314.8 237.46,-316.05 246.47,-321.63 247.98,-314.8"/>
</a>
</g>
</g>
<!-- Node22 -->
<g id="Node000022" class="node">
<title>Node22</title>
<g id="a_Node000022"><a xlink:title=" ">
<polygon fill="#e0e0e0" stroke="#999999" points="397,-310.5 261,-310.5 261,-291.5 397,-291.5 397,-310.5"/>
<text text-anchor="middle" x="329" y="-298.5" font-family="Helvetica,sans-Serif" font-size="10.00">odp/api/abi/pool_types.h</text>
</a>
</g>
</g>
<!-- Node20&#45;&gt;Node22 -->
<g id="edge27_Node000020_Node000022" class="edge">
<title>Node20&#45;&gt;Node22</title>
<g id="a_edge27_Node000020_Node000022"><a xlink:title=" ">
<path fill="none" stroke="#63b8ff" d="M433.59,-351.95C410.51,-340.93 378.62,-325.7 356.14,-314.96"/>
<polygon fill="#63b8ff" stroke="#63b8ff" points="357.37,-311.67 346.83,-310.52 354.35,-317.99 357.37,-311.67"/>
</a>
</g>
</g>
<!-- Node23 -->
<g id="Node000023" class="node">
<title>Node23</title>
<g id="a_Node000023"><a xlink:href="spec_2event__vector__types_8h.html" target="_top" xlink:title="ODP event vector API type definitions.">
<polygon fill="white" stroke="#666666" points="524.5,-316 415.5,-316 415.5,-286 524.5,-286 524.5,-316"/>
<text text-anchor="start" x="423.5" y="-304" font-family="Helvetica,sans-Serif" font-size="10.00">odp/api/spec/event</text>
<text text-anchor="middle" x="470" y="-293" font-family="Helvetica,sans-Serif" font-size="10.00">_vector_types.h</text>
</a>
</g>
</g>
<!-- Node20&#45;&gt;Node23 -->
<g id="edge28_Node000020_Node000023" class="edge">
<title>Node20&#45;&gt;Node23</title>
<g id="a_edge28_Node000020_Node000023"><a xlink:title=" ">
<path fill="none" stroke="#63b8ff" d="M464.55,-351.8C465.38,-344.26 466.41,-334.78 467.36,-326.13"/>
<polygon fill="#63b8ff" stroke="#63b8ff" points="470.84,-326.49 468.45,-316.16 463.88,-325.72 470.84,-326.49"/>
</a>
</g>
</g>
<!-- Node23&#45;&gt;Node5 -->
<g id="edge29_Node000023_Node000005" class="edge">
<title>Node23&#45;&gt;Node5</title>
<g id="a_edge29_Node000023_Node000005"><a xlink:title=" ">
<path fill="none" stroke="#63b8ff" d="M415.19,-286.76C329.93,-262.88 168.28,-203.64 100,-85 93.35,-73.44 91.41,-65.2 100,-55 123.53,-27.06 219.24,-16.66 287.2,-12.79"/>
<polygon fill="#63b8ff" stroke="#63b8ff" points="287.63,-16.27 297.43,-12.25 287.26,-9.28 287.63,-16.27"/>
</a>
</g>
</g>
<!-- Node23&#45;&gt;Node9 -->
<g id="edge35_Node000023_Node000009" class="edge">
<title>Node23&#45;&gt;Node9</title>
<g id="a_edge35_Node000023_Node000009"><a xlink:title=" ">
<path fill="none" stroke="#63b8ff" d="M505.93,-285.99C531.07,-276.18 564.33,-263.21 588.45,-253.81"/>
<polygon fill="#63b8ff" stroke="#63b8ff" points="589.8,-257.03 597.85,-250.14 587.26,-250.51 589.8,-257.03"/>
</a>
</g>
</g>
<!-- Node23&#45;&gt;Node16 -->
<g id="edge36_Node000023_Node000016" class="edge">
<title>Node23&#45;&gt;Node16</title>
<g id="a_edge36_Node000023_Node000016"><a xlink:title=" ">
<path fill="none" stroke="#63b8ff" d="M482.9,-285.78C498.36,-269.7 525.87,-244.07 555,-231 645.8,-190.27 693.38,-250.48 776,-195 837.3,-153.83 871.09,-67.09 883.47,-29.04"/>
<polygon fill="#63b8ff" stroke="#63b8ff" points="886.88,-29.88 886.52,-19.29 880.2,-27.79 886.88,-29.88"/>
</a>
</g>
</g>
<!-- Node24 -->
<g id="Node000024" class="node">
<title>Node24</title>
<g id="a_Node000024"><a xlink:href="event__types_8h.html" target="_top" xlink:title="ODP event API type definitions.">
<polygon fill="white" stroke="#666666" points="412.5,-140 287.5,-140 287.5,-121 412.5,-121 412.5,-140"/>
<text text-anchor="middle" x="350" y="-128" font-family="Helvetica,sans-Serif" font-size="10.00">odp/api/event_types.h</text>
</a>
</g>
</g>
<!-- Node23&#45;&gt;Node24 -->
<g id="edge30_Node000023_Node000024" class="edge">
<title>Node23&#45;&gt;Node24</title>
<g id="a_edge30_Node000023_Node000024"><a xlink:title=" ">
<path fill="none" stroke="#63b8ff" d="M459.98,-285.92C438.04,-255.12 385.86,-181.85 362.13,-148.53"/>
<polygon fill="#63b8ff" stroke="#63b8ff" points="364.89,-146.37 356.23,-140.25 359.19,-150.43 364.89,-146.37"/>
</a>
</g>
</g>
<!-- Node25 -->
<g id="Node000025" class="node">
<title>Node25</title>
<g id="a_Node000025"><a xlink:title=" ">
<polygon fill="#e0e0e0" stroke="#999999" points="285.5,-79.5 142.5,-79.5 142.5,-60.5 285.5,-60.5 285.5,-79.5"/>
<text text-anchor="middle" x="214" y="-67.5" font-family="Helvetica,sans-Serif" font-size="10.00">odp/api/abi/event_types.h</text>
</a>
</g>
</g>
<!-- Node24&#45;&gt;Node25 -->
<g id="edge31_Node000024_Node000025" class="edge">
<title>Node24&#45;&gt;Node25</title>
<g id="a_edge31_Node000024_Node000025"><a xlink:title=" ">
<path fill="none" stroke="#63b8ff" d="M330.22,-120.99C307.36,-111.16 269.51,-94.88 243.24,-83.58"/>
<polygon fill="#63b8ff" stroke="#63b8ff" points="244.37,-80.25 233.8,-79.52 241.6,-86.68 244.37,-80.25"/>
</a>
</g>
</g>
<!-- Node26 -->
<g id="Node000026" class="node">
<title>Node26</title>
<g id="a_Node000026"><a xlink:href="spec_2event__types_8h.html" target="_top" xlink:title="ODP event API type definitions.">
<polygon fill="white" stroke="#666666" points="412.5,-85 303.5,-85 303.5,-55 412.5,-55 412.5,-85"/>
<text text-anchor="start" x="311.5" y="-73" font-family="Helvetica,sans-Serif" font-size="10.00">odp/api/spec/event</text>
<text text-anchor="middle" x="358" y="-62" font-family="Helvetica,sans-Serif" font-size="10.00">_types.h</text>
</a>
</g>
</g>
<!-- Node24&#45;&gt;Node26 -->
<g id="edge32_Node000024_Node000026" class="edge">
<title>Node24&#45;&gt;Node26</title>
<g id="a_edge32_Node000024_Node000026"><a xlink:title=" ">
<path fill="none" stroke="#63b8ff" d="M351.18,-120.87C352.11,-114.11 353.44,-104.35 354.68,-95.26"/>
<polygon fill="#63b8ff" stroke="#63b8ff" points="358.18,-95.5 356.07,-85.11 351.25,-94.55 358.18,-95.5"/>
</a>
</g>
</g>
<!-- Node26&#45;&gt;Node5 -->
<g id="edge33_Node000026_Node000005" class="edge">
<title>Node26&#45;&gt;Node5</title>
<g id="a_edge33_Node000026_Node000005"><a xlink:title=" ">
<path fill="none" stroke="#63b8ff" d="M358,-54.84C358,-47.21 358,-37.7 358,-29.45"/>
<polygon fill="#63b8ff" stroke="#63b8ff" points="361.5,-29.27 358,-19.27 354.5,-29.27 361.5,-29.27"/>
</a>
</g>
</g>
<!-- Node26&#45;&gt;Node16 -->
<g id="edge34_Node000026_Node000016" class="edge">
<title>Node26&#45;&gt;Node16</title>
<g id="a_edge34_Node000026_Node000016"><a xlink:title=" ">
<path fill="none" stroke="#63b8ff" d="M412.83,-62.96C511.04,-52.14 716.61,-29.49 822.62,-17.81"/>
<polygon fill="#63b8ff" stroke="#63b8ff" points="823.32,-21.26 832.88,-16.68 822.55,-14.3 823.32,-21.26"/>
</a>
</g>
</g>
<!-- Node28 -->
<g id="Node000028" class="node">
<title>Node28</title>
<g id="a_Node000028"><a xlink:title=" ">
<polygon fill="#e0e0e0" stroke="#999999" points="751.5,-448 634.5,-448 634.5,-418 751.5,-418 751.5,-448"/>
<text text-anchor="start" x="642.5" y="-436" font-family="Helvetica,sans-Serif" font-size="10.00">odp/api/abi/schedule</text>
<text text-anchor="middle" x="693" y="-425" font-family="Helvetica,sans-Serif" font-size="10.00">_types.h</text>
</a>
</g>
</g>
<!-- Node27&#45;&gt;Node28 -->
<g id="edge38_Node000027_Node000028" class="edge">
<title>Node27&#45;&gt;Node28</title>
<g id="a_edge38_Node000027_Node000028"><a xlink:title=" ">
<path fill="none" stroke="#63b8ff" d="M613.72,-483.87C626.34,-475.93 645.51,-463.87 661.84,-453.6"/>
<polygon fill="#63b8ff" stroke="#63b8ff" points="663.96,-456.4 670.56,-448.11 660.23,-450.48 663.96,-456.4"/>
</a>
</g>
</g>
<!-- Node29 -->
<g id="Node000029" class="node">
<title>Node29</title>
<g id="a_Node000029"><a xlink:href="spec_2schedule__types_8h.html" target="_top" xlink:title="ODP schedule types.">
<polygon fill="white" stroke="#666666" points="616.5,-448 491.5,-448 491.5,-418 616.5,-418 616.5,-448"/>
<text text-anchor="start" x="499.5" y="-436" font-family="Helvetica,sans-Serif" font-size="10.00">odp/api/spec/schedule</text>
<text text-anchor="middle" x="554" y="-425" font-family="Helvetica,sans-Serif" font-size="10.00">_types.h</text>
</a>
</g>
</g>
<!-- Node27&#45;&gt;Node29 -->
<g id="edge39_Node000027_Node000029" class="edge">
<title>Node27&#45;&gt;Node29</title>
<g id="a_edge39_Node000027_Node000029"><a xlink:title=" ">
<path fill="none" stroke="#63b8ff" d="M593.21,-483.87C587.49,-476.59 579.05,-465.85 571.46,-456.2"/>
<polygon fill="#63b8ff" stroke="#63b8ff" points="574.03,-453.81 565.1,-448.11 568.53,-458.14 574.03,-453.81"/>
</a>
</g>
</g>
<!-- Node29&#45;&gt;Node5 -->
<g id="edge40_Node000029_Node000005" class="edge">
<title>Node29&#45;&gt;Node5</title>
<g id="a_edge40_Node000029_Node000005"><a xlink:title=" ">
<path fill="none" stroke="#63b8ff" d="M491.06,-425.47C377.2,-412.23 144.3,-378.06 96,-316 84.2,-300.83 53.81,-137.13 133,-55 153.99,-33.23 229.27,-21.63 287.03,-15.79"/>
<polygon fill="#63b8ff" stroke="#63b8ff" points="287.62,-19.25 297.23,-14.8 286.94,-12.29 287.62,-19.25"/>
</a>
</g>
</g>
<!-- Node29&#45;&gt;Node9 -->
<g id="edge42_Node000029_Node000009" class="edge">
<title>Node29&#45;&gt;Node9</title>
<g id="a_edge42_Node000029_Node000009"><a xlink:title=" ">
<path fill="none" stroke="#63b8ff" d="M552.65,-417.8C550.72,-390.58 549.55,-329.88 572,-286 578.01,-274.26 588.43,-264.03 598.03,-256.34"/>
<polygon fill="#63b8ff" stroke="#63b8ff" points="600.22,-259.07 606.12,-250.27 596.02,-253.47 600.22,-259.07"/>
</a>
</g>
</g>
<!-- Node29&#45;&gt;Node16 -->
<g id="edge49_Node000029_Node000016" class="edge">
<title>Node29&#45;&gt;Node16</title>
<g id="a_edge49_Node000029_Node000016"><a xlink:title=" ">
<path fill="none" stroke="#63b8ff" d="M611.62,-417.95C691.73,-397.2 830.46,-356.44 862,-316 925.94,-234.01 890.75,-188.65 899,-85 900.06,-71.71 900.47,-68.25 899,-55 898.04,-46.34 896.06,-36.91 894.11,-28.97"/>
<polygon fill="#63b8ff" stroke="#63b8ff" points="897.49,-28.06 891.57,-19.27 890.72,-29.83 897.49,-28.06"/>
</a>
</g>
</g>
<!-- Node29&#45;&gt;Node20 -->
<g id="edge41_Node000029_Node000020" class="edge">
<title>Node29&#45;&gt;Node20</title>
<g id="a_edge41_Node000029_Node000020"><a xlink:title=" ">
<path fill="none" stroke="#63b8ff" d="M533.8,-417.8C521.32,-409.01 505.1,-397.61 491.34,-387.93"/>
<polygon fill="#63b8ff" stroke="#63b8ff" points="493.33,-385.05 483.14,-382.16 489.31,-390.78 493.33,-385.05"/>
</a>
</g>
</g>
<!-- Node30 -->
<g id="Node000030" class="node">
<title>Node30</title>
<g id="a_Node000030"><a xlink:href="thrmask_8h.html" target="_top" xlink:title="ODP thread masks.">
<polygon fill="white" stroke="#666666" points="699.5,-376.5 594.5,-376.5 594.5,-357.5 699.5,-357.5 699.5,-376.5"/>
<text text-anchor="middle" x="647" y="-364.5" font-family="Helvetica,sans-Serif" font-size="10.00">odp/api/thrmask.h</text>
</a>
</g>
</g>
<!-- Node29&#45;&gt;Node30 -->
<g id="edge43_Node000029_Node000030" class="edge">
<title>Node29&#45;&gt;Node30</title>
<g id="a_edge43_Node000029_Node000030"><a xlink:title=" ">
<path fill="none" stroke="#63b8ff" d="M574.64,-417.8C589.94,-407.27 610.71,-392.97 626.08,-382.4"/>
<polygon fill="#63b8ff" stroke="#63b8ff" points="628.16,-385.21 634.42,-376.66 624.2,-379.44 628.16,-385.21"/>
</a>
</g>
</g>
<!-- Node31 -->
<g id="Node000031" class="node">
<title>Node31</title>
<g id="a_Node000031"><a xlink:title=" ">
<polygon fill="#e0e0e0" stroke="#999999" points="853.5,-310.5 730.5,-310.5 730.5,-291.5 853.5,-291.5 853.5,-310.5"/>
<text text-anchor="middle" x="792" y="-298.5" font-family="Helvetica,sans-Serif" font-size="10.00">odp/api/abi/thrmask.h</text>
</a>
</g>
</g>
<!-- Node30&#45;&gt;Node31 -->
<g id="edge44_Node000030_Node000031" class="edge">
<title>Node30&#45;&gt;Node31</title>
<g id="a_edge44_Node000030_Node000031"><a xlink:title=" ">
<path fill="none" stroke="#63b8ff" d="M666.56,-357.37C691.31,-346.44 734.17,-327.52 762.81,-314.88"/>
<polygon fill="#63b8ff" stroke="#63b8ff" points="764.56,-317.94 772.29,-310.7 761.73,-311.54 764.56,-317.94"/>
</a>
</g>
</g>
<!-- Node32 -->
<g id="Node000032" class="node">
<title>Node32</title>
<g id="a_Node000032"><a xlink:href="spec_2thrmask_8h.html" target="_top" xlink:title="ODP thread masks.">
<polygon fill="white" stroke="#666666" points="712.5,-310.5 581.5,-310.5 581.5,-291.5 712.5,-291.5 712.5,-310.5"/>
<text text-anchor="middle" x="647" y="-298.5" font-family="Helvetica,sans-Serif" font-size="10.00">odp/api/spec/thrmask.h</text>
</a>
</g>
</g>
<!-- Node30&#45;&gt;Node32 -->
<g id="edge45_Node000030_Node000032" class="edge">
<title>Node30&#45;&gt;Node32</title>
<g id="a_edge45_Node000030_Node000032"><a xlink:title=" ">
<path fill="none" stroke="#63b8ff" d="M647,-357.37C647,-348.16 647,-333.29 647,-321.27"/>
<polygon fill="#63b8ff" stroke="#63b8ff" points="650.5,-320.91 647,-310.91 643.5,-320.91 650.5,-320.91"/>
</a>
</g>
</g>
<!-- Node32&#45;&gt;Node5 -->
<g id="edge46_Node000032_Node000005" class="edge">
<title>Node32&#45;&gt;Node5</title>
<g id="a_edge46_Node000032_Node000005"><a xlink:title=" ">
<path fill="none" stroke="#63b8ff" d="M621.76,-291.39C583.93,-277.22 512.77,-245.42 473,-195 431.9,-142.88 461.47,-107.61 421,-55 411.21,-42.27 396.77,-31.71 384.19,-24.07"/>
<polygon fill="#63b8ff" stroke="#63b8ff" points="385.85,-20.99 375.44,-19.04 382.36,-27.06 385.85,-20.99"/>
</a>
</g>
</g>
<!-- Node32&#45;&gt;Node9 -->
<g id="edge47_Node000032_Node000009" class="edge">
<title>Node32&#45;&gt;Node9</title>
<g id="a_edge47_Node000032_Node000009"><a xlink:title=" ">
<path fill="none" stroke="#63b8ff" d="M643.02,-291.37C639.15,-282.99 633.16,-270.01 628.26,-259.39"/>
<polygon fill="#63b8ff" stroke="#63b8ff" points="631.37,-257.78 624,-250.17 625.01,-260.71 631.37,-257.78"/>
</a>
</g>
</g>
<!-- Node32&#45;&gt;Node16 -->
<g id="edge48_Node000032_Node000016" class="edge">
<title>Node32&#45;&gt;Node16</title>
<g id="a_edge48_Node000032_Node000016"><a xlink:title=" ">
<path fill="none" stroke="#63b8ff" d="M670.64,-291.37C718.24,-272.52 824.52,-222.63 865,-140 882.88,-103.51 887.5,-55.28 888.65,-29.19"/>
<polygon fill="#63b8ff" stroke="#63b8ff" points="892.15,-29.28 888.97,-19.17 885.16,-29.06 892.15,-29.28"/>
</a>
</g>
</g>
</g>
</svg>
