<?xml version="1.0" encoding="UTF-8" standalone="no"?>
<!DOCTYPE svg PUBLIC "-//W3C//DTD SVG 1.1//EN"
 "http://www.w3.org/Graphics/SVG/1.1/DTD/svg11.dtd">
<!-- Generated by graphviz version 2.43.0 (0)
 -->
<!-- Title: hints.h Pages: 1 -->
<svg width="1573pt" height="368pt"
 viewBox="0.00 0.00 1572.50 368.00" xmlns="http://www.w3.org/2000/svg" xmlns:xlink="http://www.w3.org/1999/xlink">
<g id="graph0" class="graph" transform="scale(1 1) rotate(0) translate(4 364)">
<title>hints.h</title>
<!-- Node1 -->
<g id="Node000001" class="node">
<title>Node1</title>
<g id="a_Node000001"><a xlink:title="ODP compiler hints.">
<polygon fill="#999999" stroke="#666666" points="364,-360 314,-360 314,-341 364,-341 364,-360"/>
<text text-anchor="middle" x="339" y="-348" font-family="Helvetica,sans-Serif" font-size="10.00">hints.h</text>
</a>
</g>
</g>
<!-- Node2 -->
<g id="Node000002" class="node">
<title>Node2</title>
<g id="a_Node000002"><a xlink:href="hints_8h.html" target="_top" xlink:title="ODP compiler hints.">
<polygon fill="white" stroke="#666666" points="364,-305 314,-305 314,-286 364,-286 364,-305"/>
<text text-anchor="middle" x="339" y="-293" font-family="Helvetica,sans-Serif" font-size="10.00">hints.h</text>
</a>
</g>
</g>
<!-- Node1&#45;&gt;Node2 -->
<g id="edge1_Node000001_Node000002" class="edge">
<title>Node1&#45;&gt;Node2</title>
<g id="a_edge1_Node000001_Node000002"><a xlink:title=" ">
<path fill="none" stroke="#63b8ff" d="M339,-330.66C339,-321.93 339,-311.99 339,-305.09"/>
<polygon fill="#63b8ff" stroke="#63b8ff" points="335.5,-330.75 339,-340.75 342.5,-330.75 335.5,-330.75"/>
</a>
</g>
</g>
<!-- Node3 -->
<g id="Node000003" class="node">
<title>Node3</title>
<g id="a_Node000003"><a xlink:href="buffer__inlines_8h_source.html" target="_top" xlink:title=" ">
<polygon fill="white" stroke="#666666" points="92,-24.5 0,-24.5 0,-5.5 92,-5.5 92,-24.5"/>
<text text-anchor="middle" x="46" y="-12.5" font-family="Helvetica,sans-Serif" font-size="10.00">buffer_inlines.h</text>
</a>
</g>
</g>
<!-- Node2&#45;&gt;Node3 -->
<g id="edge2_Node000002_Node000003" class="edge">
<title>Node2&#45;&gt;Node3</title>
<g id="a_edge2_Node000002_Node000003"><a xlink:title=" ">
<path fill="none" stroke="#63b8ff" d="M303.56,-292.87C259.82,-289.58 184.19,-279.71 127,-250 90.3,-230.94 59,-227.85 59,-186.5 59,-186.5 59,-186.5 59,-129.5 59,-90.03 51.14,-43.34 47.65,-24.5"/>
<polygon fill="#63b8ff" stroke="#63b8ff" points="303.49,-296.37 313.71,-293.55 303.97,-289.38 303.49,-296.37"/>
</a>
</g>
</g>
<!-- Node4 -->
<g id="Node000004" class="node">
<title>Node4</title>
<g id="a_Node000004"><a xlink:href="cpu__inlines_8h_source.html" target="_top" xlink:title=" ">
<polygon fill="white" stroke="#666666" points="216,-250 136,-250 136,-231 216,-231 216,-250"/>
<text text-anchor="middle" x="176" y="-238" font-family="Helvetica,sans-Serif" font-size="10.00">cpu_inlines.h</text>
</a>
</g>
</g>
<!-- Node2&#45;&gt;Node4 -->
<g id="edge3_Node000002_Node000004" class="edge">
<title>Node2&#45;&gt;Node4</title>
<g id="a_edge3_Node000002_Node000004"><a xlink:title=" ">
<path fill="none" stroke="#63b8ff" d="M304.08,-283.14C273.54,-273.21 229.86,-259.01 202.22,-250.03"/>
<polygon fill="#63b8ff" stroke="#63b8ff" points="303.3,-286.57 313.89,-286.33 305.46,-279.91 303.3,-286.57"/>
</a>
</g>
</g>
<!-- Node5 -->
<g id="Node000005" class="node">
<title>Node5</title>
<g id="a_Node000005"><a xlink:href="debug__inlines_8h.html" target="_top" xlink:title="ODP Debug inlines.">
<polygon fill="white" stroke="#666666" points="644.5,-85 551.5,-85 551.5,-66 644.5,-66 644.5,-85"/>
<text text-anchor="middle" x="598" y="-73" font-family="Helvetica,sans-Serif" font-size="10.00">debug_inlines.h</text>
</a>
</g>
</g>
<!-- Node2&#45;&gt;Node5 -->
<g id="edge4_Node000002_Node000005" class="edge">
<title>Node2&#45;&gt;Node5</title>
<g id="a_edge4_Node000002_Node000005"><a xlink:title=" ">
<path fill="none" stroke="#63b8ff" d="M363.55,-280.65C377.58,-272.36 395.26,-261.27 410,-250 484.81,-192.82 564.64,-111.36 589.88,-85.05"/>
<polygon fill="#63b8ff" stroke="#63b8ff" points="361.39,-277.85 354.5,-285.9 364.91,-283.91 361.39,-277.85"/>
</a>
</g>
</g>
<!-- Node7 -->
<g id="Node000007" class="node">
<title>Node7</title>
<g id="a_Node000007"><a xlink:href="dma__inlines_8h_source.html" target="_top" xlink:title=" ">
<polygon fill="white" stroke="#666666" points="419.5,-24.5 334.5,-24.5 334.5,-5.5 419.5,-5.5 419.5,-24.5"/>
<text text-anchor="middle" x="377" y="-12.5" font-family="Helvetica,sans-Serif" font-size="10.00">dma_inlines.h</text>
</a>
</g>
</g>
<!-- Node2&#45;&gt;Node7 -->
<g id="edge18_Node000002_Node000007" class="edge">
<title>Node2&#45;&gt;Node7</title>
<g id="a_edge18_Node000002_Node000007"><a xlink:title=" ">
<path fill="none" stroke="#63b8ff" d="M344.22,-276.23C349.84,-254.9 358,-218.44 358,-186.5 358,-186.5 358,-186.5 358,-129.5 358,-89.94 369.37,-43.68 374.52,-24.75"/>
<polygon fill="#63b8ff" stroke="#63b8ff" points="340.83,-275.34 341.56,-285.91 347.58,-277.19 340.83,-275.34"/>
</a>
</g>
</g>
<!-- Node11 -->
<g id="Node000011" class="node">
<title>Node11</title>
<g id="a_Node000011"><a xlink:href="packet__inlines_8h.html" target="_top" xlink:title="ODP packet inline functions.">
<polygon fill="white" stroke="#666666" points="205.5,-24.5 110.5,-24.5 110.5,-5.5 205.5,-5.5 205.5,-24.5"/>
<text text-anchor="middle" x="158" y="-12.5" font-family="Helvetica,sans-Serif" font-size="10.00">packet_inlines.h</text>
</a>
</g>
</g>
<!-- Node2&#45;&gt;Node11 -->
<g id="edge31_Node000002_Node000011" class="edge">
<title>Node2&#45;&gt;Node11</title>
<g id="a_edge31_Node000002_Node000011"><a xlink:title=" ">
<path fill="none" stroke="#63b8ff" d="M323.95,-278.24C307.06,-258.24 282,-222.49 282,-186.5 282,-186.5 282,-186.5 282,-129.5 282,-98.29 273.54,-88.59 252,-66 233.12,-46.2 204.65,-32.58 183.99,-24.62"/>
<polygon fill="#63b8ff" stroke="#63b8ff" points="321.36,-280.6 330.59,-285.8 326.62,-275.98 321.36,-280.6"/>
</a>
</g>
</g>
<!-- Node13 -->
<g id="Node000013" class="node">
<title>Node13</title>
<g id="a_Node000013"><a xlink:href="queue__inlines_8h_source.html" target="_top" xlink:title=" ">
<polygon fill="white" stroke="#666666" points="316.5,-24.5 223.5,-24.5 223.5,-5.5 316.5,-5.5 316.5,-24.5"/>
<text text-anchor="middle" x="270" y="-12.5" font-family="Helvetica,sans-Serif" font-size="10.00">queue_inlines.h</text>
</a>
</g>
</g>
<!-- Node2&#45;&gt;Node13 -->
<g id="edge32_Node000002_Node000013" class="edge">
<title>Node2&#45;&gt;Node13</title>
<g id="a_edge32_Node000002_Node000013"><a xlink:title=" ">
<path fill="none" stroke="#63b8ff" d="M333.78,-276.23C328.16,-254.9 320,-218.44 320,-186.5 320,-186.5 320,-186.5 320,-129.5 320,-87.08 290.39,-42.74 276.74,-24.55"/>
<polygon fill="#63b8ff" stroke="#63b8ff" points="330.42,-277.19 336.44,-285.91 337.17,-275.34 330.42,-277.19"/>
</a>
</g>
</g>
<!-- Node17 -->
<g id="Node000017" class="node">
<title>Node17</title>
<g id="a_Node000017"><a xlink:href="timer__inlines_8h_source.html" target="_top" xlink:title=" ">
<polygon fill="white" stroke="#666666" points="526.5,-24.5 437.5,-24.5 437.5,-5.5 526.5,-5.5 526.5,-24.5"/>
<text text-anchor="middle" x="482" y="-12.5" font-family="Helvetica,sans-Serif" font-size="10.00">timer_inlines.h</text>
</a>
</g>
</g>
<!-- Node2&#45;&gt;Node17 -->
<g id="edge34_Node000002_Node000017" class="edge">
<title>Node2&#45;&gt;Node17</title>
<g id="a_edge34_Node000002_Node000017"><a xlink:title=" ">
<path fill="none" stroke="#63b8ff" d="M354.05,-278.24C370.94,-258.24 396,-222.49 396,-186.5 396,-186.5 396,-186.5 396,-129.5 396,-81.79 444.88,-41.51 468.94,-24.57"/>
<polygon fill="#63b8ff" stroke="#63b8ff" points="351.38,-275.98 347.41,-285.8 356.64,-280.6 351.38,-275.98"/>
</a>
</g>
</g>
<!-- Node18 -->
<g id="Node000018" class="node">
<title>Node18</title>
<g id="a_Node000018"><a xlink:href="event__validation__external_8h.html" target="_top" xlink:title="ODP event validation.">
<polygon fill="white" stroke="#666666" points="243.5,-85 90.5,-85 90.5,-66 243.5,-66 243.5,-85"/>
<text text-anchor="middle" x="167" y="-73" font-family="Helvetica,sans-Serif" font-size="10.00">event_validation_external.h</text>
</a>
</g>
</g>
<!-- Node2&#45;&gt;Node18 -->
<g id="edge19_Node000002_Node000018" class="edge">
<title>Node2&#45;&gt;Node18</title>
<g id="a_edge19_Node000002_Node000018"><a xlink:title=" ">
<path fill="none" stroke="#63b8ff" d="M311.11,-281.15C297.01,-273.44 280.33,-262.74 268,-250 216.37,-196.65 180.74,-111.97 170.22,-85.03"/>
<polygon fill="#63b8ff" stroke="#63b8ff" points="309.89,-284.46 320.37,-285.99 313.13,-278.25 309.89,-284.46"/>
</a>
</g>
</g>
<!-- Node19 -->
<g id="Node000019" class="node">
<title>Node19</title>
<g id="a_Node000019"><a xlink:href="spec_2init_8h.html" target="_top" xlink:title=" ">
<polygon fill="white" stroke="#666666" points="503.5,-250 462.5,-250 462.5,-231 503.5,-231 503.5,-250"/>
<text text-anchor="middle" x="483" y="-238" font-family="Helvetica,sans-Serif" font-size="10.00">init.h</text>
</a>
</g>
</g>
<!-- Node2&#45;&gt;Node19 -->
<g id="edge23_Node000002_Node000019" class="edge">
<title>Node2&#45;&gt;Node19</title>
<g id="a_edge23_Node000002_Node000019"><a xlink:title=" ">
<path fill="none" stroke="#63b8ff" d="M371.82,-282.42C399.61,-272.19 438.6,-257.84 462.26,-249.13"/>
<polygon fill="#63b8ff" stroke="#63b8ff" points="370.31,-279.25 362.14,-285.98 372.73,-285.82 370.31,-279.25"/>
</a>
</g>
</g>
<!-- Node25 -->
<g id="Node000025" class="node">
<title>Node25</title>
<g id="a_Node000025"><a xlink:href="time__inlines_8h_source.html" target="_top" xlink:title=" ">
<polygon fill="white" stroke="#666666" points="608,-250 522,-250 522,-231 608,-231 608,-250"/>
<text text-anchor="middle" x="565" y="-238" font-family="Helvetica,sans-Serif" font-size="10.00">time_inlines.h</text>
</a>
</g>
</g>
<!-- Node2&#45;&gt;Node25 -->
<g id="edge33_Node000002_Node000025" class="edge">
<title>Node2&#45;&gt;Node25</title>
<g id="a_edge33_Node000002_Node000025"><a xlink:title=" ">
<path fill="none" stroke="#63b8ff" d="M373.83,-286.33C415.81,-276.49 486.02,-260.02 528.67,-250.02"/>
<polygon fill="#63b8ff" stroke="#63b8ff" points="372.99,-282.93 364.05,-288.63 374.58,-289.75 372.99,-282.93"/>
</a>
</g>
</g>
<!-- Node5&#45;&gt;Node3 -->
<g id="edge5_Node000005_Node000003" class="edge">
<title>Node5&#45;&gt;Node3</title>
<g id="a_edge5_Node000005_Node000003"><a xlink:title=" ">
<path fill="none" stroke="#63b8ff" d="M541.43,-72.38C448.8,-68.25 259.23,-57.04 101,-30 92.74,-28.59 83.91,-26.57 75.79,-24.51"/>
<polygon fill="#63b8ff" stroke="#63b8ff" points="541.29,-75.88 551.43,-72.82 541.59,-68.88 541.29,-75.88"/>
</a>
</g>
</g>
<!-- Node6 -->
<g id="Node000006" class="node">
<title>Node6</title>
<g id="a_Node000006"><a xlink:href="crypto__inlines_8h_source.html" target="_top" xlink:title=" ">
<polygon fill="white" stroke="#666666" points="764,-24.5 670,-24.5 670,-5.5 764,-5.5 764,-24.5"/>
<text text-anchor="middle" x="717" y="-12.5" font-family="Helvetica,sans-Serif" font-size="10.00">crypto_inlines.h</text>
</a>
</g>
</g>
<!-- Node5&#45;&gt;Node6 -->
<g id="edge6_Node000005_Node000006" class="edge">
<title>Node5&#45;&gt;Node6</title>
<g id="a_edge6_Node000005_Node000006"><a xlink:title=" ">
<path fill="none" stroke="#63b8ff" d="M624.48,-61.48C647.41,-50.21 679.93,-34.23 699.68,-24.52"/>
<polygon fill="#63b8ff" stroke="#63b8ff" points="622.73,-58.44 615.3,-65.99 625.82,-64.72 622.73,-58.44"/>
</a>
</g>
</g>
<!-- Node5&#45;&gt;Node7 -->
<g id="edge7_Node000005_Node000007" class="edge">
<title>Node5&#45;&gt;Node7</title>
<g id="a_edge7_Node000005_Node000007"><a xlink:title=" ">
<path fill="none" stroke="#63b8ff" d="M555.02,-63.4C520.63,-54.48 471.18,-41.58 428,-30 421.53,-28.26 414.6,-26.38 408,-24.57"/>
<polygon fill="#63b8ff" stroke="#63b8ff" points="554.18,-66.8 564.74,-65.92 555.94,-60.02 554.18,-66.8"/>
</a>
</g>
</g>
<!-- Node8 -->
<g id="Node000008" class="node">
<title>Node8</title>
<g id="a_Node000008"><a xlink:href="event__inlines_8h_source.html" target="_top" xlink:title=" ">
<polygon fill="white" stroke="#666666" points="873.5,-24.5 782.5,-24.5 782.5,-5.5 873.5,-5.5 873.5,-24.5"/>
<text text-anchor="middle" x="828" y="-12.5" font-family="Helvetica,sans-Serif" font-size="10.00">event_inlines.h</text>
</a>
</g>
</g>
<!-- Node5&#45;&gt;Node8 -->
<g id="edge8_Node000005_Node000008" class="edge">
<title>Node5&#45;&gt;Node8</title>
<g id="a_edge8_Node000005_Node000008"><a xlink:title=" ">
<path fill="none" stroke="#63b8ff" d="M641.55,-63.43C676.96,-54.43 728.2,-41.4 773,-30 779.97,-28.23 787.44,-26.33 794.55,-24.52"/>
<polygon fill="#63b8ff" stroke="#63b8ff" points="640.38,-60.12 631.55,-65.97 642.1,-66.9 640.38,-60.12"/>
</a>
</g>
</g>
<!-- Node9 -->
<g id="Node000009" class="node">
<title>Node9</title>
<g id="a_Node000009"><a xlink:href="event__vector__inlines_8h.html" target="_top" xlink:title="Event vector inline functions.">
<polygon fill="white" stroke="#666666" points="1018.5,-24.5 891.5,-24.5 891.5,-5.5 1018.5,-5.5 1018.5,-24.5"/>
<text text-anchor="middle" x="955" y="-12.5" font-family="Helvetica,sans-Serif" font-size="10.00">event_vector_inlines.h</text>
</a>
</g>
</g>
<!-- Node5&#45;&gt;Node9 -->
<g id="edge9_Node000005_Node000009" class="edge">
<title>Node5&#45;&gt;Node9</title>
<g id="a_edge9_Node000005_Node000009"><a xlink:title=" ">
<path fill="none" stroke="#63b8ff" d="M654.51,-65.79C731.13,-53.97 860.99,-33.86 883,-30 892.53,-28.33 902.75,-26.42 912.41,-24.55"/>
<polygon fill="#63b8ff" stroke="#63b8ff" points="653.88,-62.35 644.53,-67.33 654.94,-69.27 653.88,-62.35"/>
</a>
</g>
</g>
<!-- Node10 -->
<g id="Node000010" class="node">
<title>Node10</title>
<g id="a_Node000010"><a xlink:href="ipsec__inlines_8h_source.html" target="_top" xlink:title=" ">
<polygon fill="white" stroke="#666666" points="1125.5,-24.5 1036.5,-24.5 1036.5,-5.5 1125.5,-5.5 1125.5,-24.5"/>
<text text-anchor="middle" x="1081" y="-12.5" font-family="Helvetica,sans-Serif" font-size="10.00">ipsec_inlines.h</text>
</a>
</g>
</g>
<!-- Node5&#45;&gt;Node10 -->
<g id="edge10_Node000005_Node000010" class="edge">
<title>Node5&#45;&gt;Node10</title>
<g id="a_edge10_Node000005_Node000010"><a xlink:title=" ">
<path fill="none" stroke="#63b8ff" d="M654.83,-65.98C821.48,-45.99 866.83,-58.85 1028,-30 1035.87,-28.59 1044.28,-26.6 1052.03,-24.56"/>
<polygon fill="#63b8ff" stroke="#63b8ff" points="654.23,-62.53 644.72,-67.21 655.08,-69.47 654.23,-62.53"/>
</a>
</g>
</g>
<!-- Node5&#45;&gt;Node11 -->
<g id="edge11_Node000005_Node000011" class="edge">
<title>Node5&#45;&gt;Node11</title>
<g id="a_edge11_Node000005_Node000011"><a xlink:title=" ">
<path fill="none" stroke="#63b8ff" d="M541.11,-70.23C465.84,-64.04 329.24,-50.99 214,-30 205.92,-28.53 197.26,-26.56 189.24,-24.57"/>
<polygon fill="#63b8ff" stroke="#63b8ff" points="541.06,-73.73 551.31,-71.05 541.63,-66.76 541.06,-73.73"/>
</a>
</g>
</g>
<!-- Node12 -->
<g id="Node000012" class="node">
<title>Node12</title>
<g id="a_Node000012"><a xlink:href="packet__vector__inlines_8h.html" target="_top" xlink:title="Packet vector inline functions.">
<polygon fill="white" stroke="#666666" points="1274.5,-24.5 1143.5,-24.5 1143.5,-5.5 1274.5,-5.5 1274.5,-24.5"/>
<text text-anchor="middle" x="1209" y="-12.5" font-family="Helvetica,sans-Serif" font-size="10.00">packet_vector_inlines.h</text>
</a>
</g>
</g>
<!-- Node5&#45;&gt;Node12 -->
<g id="edge12_Node000005_Node000012" class="edge">
<title>Node5&#45;&gt;Node12</title>
<g id="a_edge12_Node000005_Node000012"><a xlink:title=" ">
<path fill="none" stroke="#63b8ff" d="M654.7,-66.02C868.73,-42.37 925.67,-57.55 1135,-30 1145.89,-28.57 1157.6,-26.57 1168.42,-24.53"/>
<polygon fill="#63b8ff" stroke="#63b8ff" points="654.26,-62.55 644.72,-67.14 655.04,-69.5 654.26,-62.55"/>
</a>
</g>
</g>
<!-- Node5&#45;&gt;Node13 -->
<g id="edge13_Node000005_Node000013" class="edge">
<title>Node5&#45;&gt;Node13</title>
<g id="a_edge13_Node000005_Node000013"><a xlink:title=" ">
<path fill="none" stroke="#63b8ff" d="M541.43,-66.76C486.03,-58.83 399.35,-45.49 325,-30 317.38,-28.41 309.22,-26.47 301.59,-24.55"/>
<polygon fill="#63b8ff" stroke="#63b8ff" points="541.01,-70.23 551.4,-68.17 541.99,-63.3 541.01,-70.23"/>
</a>
</g>
</g>
<!-- Node14 -->
<g id="Node000014" class="node">
<title>Node14</title>
<g id="a_Node000014"><a xlink:href="rwlock__recursive__inlines_8h_source.html" target="_top" xlink:title=" ">
<polygon fill="white" stroke="#666666" points="1439,-24.5 1293,-24.5 1293,-5.5 1439,-5.5 1439,-24.5"/>
<text text-anchor="middle" x="1366" y="-12.5" font-family="Helvetica,sans-Serif" font-size="10.00">rwlock_recursive_inlines.h</text>
</a>
</g>
</g>
<!-- Node5&#45;&gt;Node14 -->
<g id="edge14_Node000005_Node000014" class="edge">
<title>Node5&#45;&gt;Node14</title>
<g id="a_edge14_Node000005_Node000014"><a xlink:title=" ">
<path fill="none" stroke="#63b8ff" d="M654.75,-66.04C934.67,-37.5 1008.6,-61.28 1284,-30 1296.2,-28.61 1309.33,-26.61 1321.44,-24.54"/>
<polygon fill="#63b8ff" stroke="#63b8ff" points="654.3,-62.57 644.71,-67.08 655.02,-69.53 654.3,-62.57"/>
</a>
</g>
</g>
<!-- Node15 -->
<g id="Node000015" class="node">
<title>Node15</title>
<g id="a_Node000015"><a xlink:href="schedule__inlines_8h_source.html" target="_top" xlink:title=" ">
<polygon fill="white" stroke="#666666" points="1564.5,-24.5 1457.5,-24.5 1457.5,-5.5 1564.5,-5.5 1564.5,-24.5"/>
<text text-anchor="middle" x="1511" y="-12.5" font-family="Helvetica,sans-Serif" font-size="10.00">schedule_inlines.h</text>
</a>
</g>
</g>
<!-- Node5&#45;&gt;Node15 -->
<g id="edge15_Node000005_Node000015" class="edge">
<title>Node5&#45;&gt;Node15</title>
<g id="a_edge15_Node000005_Node000015"><a xlink:title=" ">
<path fill="none" stroke="#63b8ff" d="M654.68,-66.06C1007.29,-32.27 1101.07,-76.06 1448,-30 1457.66,-28.72 1468.03,-26.69 1477.52,-24.57"/>
<polygon fill="#63b8ff" stroke="#63b8ff" points="654.32,-62.58 644.7,-67.03 655,-69.55 654.32,-62.58"/>
</a>
</g>
</g>
<!-- Node16 -->
<g id="Node000016" class="node">
<title>Node16</title>
<g id="a_Node000016"><a xlink:href="spinlock__recursive__inlines_8h_source.html" target="_top" xlink:title=" ">
<polygon fill="white" stroke="#666666" points="651.5,-30 544.5,-30 544.5,0 651.5,0 651.5,-30"/>
<text text-anchor="start" x="552.5" y="-18" font-family="Helvetica,sans-Serif" font-size="10.00">spinlock_recursive</text>
<text text-anchor="middle" x="598" y="-7" font-family="Helvetica,sans-Serif" font-size="10.00">_inlines.h</text>
</a>
</g>
</g>
<!-- Node5&#45;&gt;Node16 -->
<g id="edge16_Node000005_Node000016" class="edge">
<title>Node5&#45;&gt;Node16</title>
<g id="a_edge16_Node000005_Node000016"><a xlink:title=" ">
<path fill="none" stroke="#63b8ff" d="M598,-55.65C598,-47.36 598,-37.78 598,-30.11"/>
<polygon fill="#63b8ff" stroke="#63b8ff" points="594.5,-55.87 598,-65.87 601.5,-55.87 594.5,-55.87"/>
</a>
</g>
</g>
<!-- Node5&#45;&gt;Node17 -->
<g id="edge17_Node000005_Node000017" class="edge">
<title>Node5&#45;&gt;Node17</title>
<g id="a_edge17_Node000005_Node000017"><a xlink:title=" ">
<path fill="none" stroke="#63b8ff" d="M571.68,-61.23C549.47,-50.03 518.32,-34.32 499.19,-24.67"/>
<polygon fill="#63b8ff" stroke="#63b8ff" points="570.38,-64.49 580.88,-65.87 573.53,-58.24 570.38,-64.49"/>
</a>
</g>
</g>
<!-- Node18&#45;&gt;Node3 -->
<g id="edge20_Node000018_Node000003" class="edge">
<title>Node18&#45;&gt;Node3</title>
<g id="a_edge20_Node000018_Node000003"><a xlink:title=" ">
<path fill="none" stroke="#63b8ff" d="M140.39,-61.63C117.05,-50.35 83.79,-34.27 63.62,-24.52"/>
<polygon fill="#63b8ff" stroke="#63b8ff" points="138.88,-64.79 149.41,-65.99 141.93,-58.49 138.88,-64.79"/>
</a>
</g>
</g>
<!-- Node18&#45;&gt;Node11 -->
<g id="edge21_Node000018_Node000011" class="edge">
<title>Node18&#45;&gt;Node11</title>
<g id="a_edge21_Node000018_Node000011"><a xlink:title=" ">
<path fill="none" stroke="#63b8ff" d="M164.1,-55.66C162.5,-45.24 160.58,-32.8 159.33,-24.67"/>
<polygon fill="#63b8ff" stroke="#63b8ff" points="160.69,-56.52 165.67,-65.87 167.61,-55.45 160.69,-56.52"/>
</a>
</g>
</g>
<!-- Node18&#45;&gt;Node13 -->
<g id="edge22_Node000018_Node000013" class="edge">
<title>Node18&#45;&gt;Node13</title>
<g id="a_edge22_Node000018_Node000013"><a xlink:title=" ">
<path fill="none" stroke="#63b8ff" d="M190.9,-60.92C210.59,-49.74 237.9,-34.23 254.74,-24.67"/>
<polygon fill="#63b8ff" stroke="#63b8ff" points="189.16,-57.89 182.2,-65.87 192.62,-63.97 189.16,-57.89"/>
</a>
</g>
</g>
<!-- Node20 -->
<g id="Node000020" class="node">
<title>Node20</title>
<g id="a_Node000020"><a xlink:href="init_8h.html" target="_top" xlink:title="ODP initialization.">
<polygon fill="white" stroke="#666666" points="662.5,-195 621.5,-195 621.5,-176 662.5,-176 662.5,-195"/>
<text text-anchor="middle" x="642" y="-183" font-family="Helvetica,sans-Serif" font-size="10.00">init.h</text>
</a>
</g>
</g>
<!-- Node19&#45;&gt;Node20 -->
<g id="edge24_Node000019_Node000020" class="edge">
<title>Node19&#45;&gt;Node20</title>
<g id="a_edge24_Node000019_Node000020"><a xlink:title=" ">
<path fill="none" stroke="#63b8ff" d="M513.44,-229.35C545.17,-218.78 594.02,-202.49 621.46,-193.35"/>
<polygon fill="#63b8ff" stroke="#63b8ff" points="512.17,-226.09 503.79,-232.57 514.38,-232.73 512.17,-226.09"/>
</a>
</g>
</g>
<!-- Node20&#45;&gt;Node5 -->
<g id="edge25_Node000020_Node000005" class="edge">
<title>Node20&#45;&gt;Node5</title>
<g id="a_edge25_Node000020_Node000005"><a xlink:title=" ">
<path fill="none" stroke="#63b8ff" d="M631.07,-167.14C626.31,-159.1 620.94,-149.28 617,-140 609,-121.14 602.94,-97.81 599.99,-85.34"/>
<polygon fill="#63b8ff" stroke="#63b8ff" points="628.23,-169.21 636.43,-175.93 634.21,-165.57 628.23,-169.21"/>
</a>
</g>
</g>
<!-- Node21 -->
<g id="Node000021" class="node">
<title>Node21</title>
<g id="a_Node000021"><a xlink:href="spec_2shared__memory_8h.html" target="_top" xlink:title="ODP shared memory.">
<polygon fill="white" stroke="#666666" points="875,-140 771,-140 771,-121 875,-121 875,-140"/>
<text text-anchor="middle" x="823" y="-128" font-family="Helvetica,sans-Serif" font-size="10.00">shared_memory.h</text>
</a>
</g>
</g>
<!-- Node20&#45;&gt;Node21 -->
<g id="edge26_Node000020_Node000021" class="edge">
<title>Node20&#45;&gt;Node21</title>
<g id="a_edge26_Node000020_Node000021"><a xlink:title=" ">
<path fill="none" stroke="#63b8ff" d="M672.57,-175.55C706.41,-165.64 760.57,-149.78 793.84,-140.04"/>
<polygon fill="#63b8ff" stroke="#63b8ff" points="671.38,-172.25 662.76,-178.42 673.34,-178.97 671.38,-172.25"/>
</a>
</g>
</g>
<!-- Node23 -->
<g id="Node000023" class="node">
<title>Node23</title>
<g id="a_Node000023"><a xlink:href="thread__inline__types_8h_source.html" target="_top" xlink:title=" ">
<polygon fill="white" stroke="#666666" points="748,-140 626,-140 626,-121 748,-121 748,-140"/>
<text text-anchor="middle" x="687" y="-128" font-family="Helvetica,sans-Serif" font-size="10.00">thread_inline_types.h</text>
</a>
</g>
</g>
<!-- Node20&#45;&gt;Node23 -->
<g id="edge28_Node000020_Node000023" class="edge">
<title>Node20&#45;&gt;Node23</title>
<g id="a_edge28_Node000020_Node000023"><a xlink:title=" ">
<path fill="none" stroke="#63b8ff" d="M656.05,-167.96C663.89,-158.72 673.33,-147.6 679.71,-140.09"/>
<polygon fill="#63b8ff" stroke="#63b8ff" points="653.24,-165.86 649.43,-175.75 658.57,-170.39 653.24,-165.86"/>
</a>
</g>
</g>
<!-- Node22 -->
<g id="Node000022" class="node">
<title>Node22</title>
<g id="a_Node000022"><a xlink:href="shared__memory_8h.html" target="_top" xlink:title="ODP shared memory.">
<polygon fill="white" stroke="#666666" points="880,-85 776,-85 776,-66 880,-66 880,-85"/>
<text text-anchor="middle" x="828" y="-73" font-family="Helvetica,sans-Serif" font-size="10.00">shared_memory.h</text>
</a>
</g>
</g>
<!-- Node21&#45;&gt;Node22 -->
<g id="edge27_Node000021_Node000022" class="edge">
<title>Node21&#45;&gt;Node22</title>
<g id="a_edge27_Node000021_Node000022"><a xlink:title=" ">
<path fill="none" stroke="#63b8ff" d="M824.78,-110.66C825.6,-101.93 826.54,-91.99 827.19,-85.09"/>
<polygon fill="#63b8ff" stroke="#63b8ff" points="821.28,-110.46 823.83,-120.75 828.25,-111.12 821.28,-110.46"/>
</a>
</g>
</g>
<!-- Node23&#45;&gt;Node5 -->
<g id="edge29_Node000023_Node000005" class="edge">
<title>Node23&#45;&gt;Node5</title>
<g id="a_edge29_Node000023_Node000005"><a xlink:title=" ">
<path fill="none" stroke="#63b8ff" d="M663.82,-115.7C647.61,-106.04 626.45,-93.44 612.56,-85.17"/>
<polygon fill="#63b8ff" stroke="#63b8ff" points="662.32,-118.88 672.7,-120.98 665.9,-112.86 662.32,-118.88"/>
</a>
</g>
</g>
<!-- Node24 -->
<g id="Node000024" class="node">
<title>Node24</title>
<g id="a_Node000024"><a xlink:href="thread__inlines_8h_source.html" target="_top" xlink:title=" ">
<polygon fill="white" stroke="#666666" points="757.5,-85 662.5,-85 662.5,-66 757.5,-66 757.5,-85"/>
<text text-anchor="middle" x="710" y="-73" font-family="Helvetica,sans-Serif" font-size="10.00">thread_inlines.h</text>
</a>
</g>
</g>
<!-- Node23&#45;&gt;Node24 -->
<g id="edge30_Node000023_Node000024" class="edge">
<title>Node23&#45;&gt;Node24</title>
<g id="a_edge30_Node000023_Node000024"><a xlink:title=" ">
<path fill="none" stroke="#63b8ff" d="M694.8,-111.53C698.68,-102.6 703.18,-92.22 706.27,-85.09"/>
<polygon fill="#63b8ff" stroke="#63b8ff" points="691.57,-110.18 690.8,-120.75 697.99,-112.97 691.57,-110.18"/>
</a>
</g>
</g>
</g>
</svg>
