<?xml version="1.0" encoding="UTF-8" standalone="no"?>
<!DOCTYPE svg PUBLIC "-//W3C//DTD SVG 1.1//EN"
 "http://www.w3.org/Graphics/SVG/1.1/DTD/svg11.dtd">
<!-- Generated by graphviz version 2.43.0 (0)
 -->
<!-- Title: schedule_types.h Pages: 1 -->
<svg width="821pt" height="445pt"
 viewBox="0.00 0.00 821.00 445.00" xmlns="http://www.w3.org/2000/svg" xmlns:xlink="http://www.w3.org/1999/xlink">
<g id="graph0" class="graph" transform="scale(1 1) rotate(0) translate(4 441)">
<title>schedule_types.h</title>
<!-- Node1 -->
<g id="Node000001" class="node">
<title>Node1</title>
<g id="a_Node000001"><a xlink:title="ODP schedule types.">
<polygon fill="#999999" stroke="#666666" points="526.5,-437 425.5,-437 425.5,-418 526.5,-418 526.5,-437"/>
<text text-anchor="middle" x="476" y="-425" font-family="Helvetica,sans-Serif" font-size="10.00">schedule_types.h</text>
</a>
</g>
</g>
<!-- Node2 -->
<g id="Node000002" class="node">
<title>Node2</title>
<g id="a_Node000002"><a xlink:title=" ">
<polygon fill="#e0e0e0" stroke="#999999" points="384.5,-19 263.5,-19 263.5,0 384.5,0 384.5,-19"/>
<text text-anchor="middle" x="324" y="-7" font-family="Helvetica,sans-Serif" font-size="10.00">odp/visibility_begin.h</text>
</a>
</g>
</g>
<!-- Node1&#45;&gt;Node2 -->
<g id="edge1_Node000001_Node000002" class="edge">
<title>Node1&#45;&gt;Node2</title>
<g id="a_edge1_Node000001_Node000002"><a xlink:title=" ">
<path fill="none" stroke="#63b8ff" d="M425.06,-423.96C302.26,-416.45 0,-389.13 0,-302 0,-302 0,-302 0,-129.5 0,-92.92 5.7,-76.91 35,-55 68.54,-29.92 178.89,-18.68 253.11,-13.86"/>
<polygon fill="#63b8ff" stroke="#63b8ff" points="253.57,-17.34 263.33,-13.23 253.13,-10.36 253.57,-17.34"/>
</a>
</g>
</g>
<!-- Node3 -->
<g id="Node000003" class="node">
<title>Node3</title>
<g id="a_Node000003"><a xlink:href="event__vector__types_8h.html" target="_top" xlink:title="ODP event vector API type definitions.">
<polygon fill="white" stroke="#666666" points="379.5,-382 260.5,-382 260.5,-352 379.5,-352 379.5,-382"/>
<text text-anchor="start" x="268.5" y="-370" font-family="Helvetica,sans-Serif" font-size="10.00">odp/api/event_vector</text>
<text text-anchor="middle" x="320" y="-359" font-family="Helvetica,sans-Serif" font-size="10.00">_types.h</text>
</a>
</g>
</g>
<!-- Node1&#45;&gt;Node3 -->
<g id="edge2_Node000001_Node000003" class="edge">
<title>Node1&#45;&gt;Node3</title>
<g id="a_edge2_Node000001_Node000003"><a xlink:title=" ">
<path fill="none" stroke="#63b8ff" d="M453.32,-417.99C430.77,-409.54 395.51,-396.32 366.92,-385.59"/>
<polygon fill="#63b8ff" stroke="#63b8ff" points="368.1,-382.3 357.5,-382.06 365.64,-388.85 368.1,-382.3"/>
</a>
</g>
</g>
<!-- Node10 -->
<g id="Node000010" class="node">
<title>Node10</title>
<g id="a_Node000010"><a xlink:title=" ">
<polygon fill="#e0e0e0" stroke="#999999" points="774,-19 662,-19 662,0 774,0 774,-19"/>
<text text-anchor="middle" x="718" y="-7" font-family="Helvetica,sans-Serif" font-size="10.00">odp/visibility_end.h</text>
</a>
</g>
</g>
<!-- Node1&#45;&gt;Node10 -->
<g id="edge31_Node000001_Node000010" class="edge">
<title>Node1&#45;&gt;Node10</title>
<g id="a_edge31_Node000001_Node000010"><a xlink:title=" ">
<path fill="none" stroke="#63b8ff" d="M526.82,-418.59C620.96,-402.49 813,-362.27 813,-302 813,-302 813,-302 813,-129.5 813,-83.22 768.58,-44.59 740.49,-24.79"/>
<polygon fill="#63b8ff" stroke="#63b8ff" points="742.26,-21.76 732.02,-19.03 738.32,-27.55 742.26,-21.76"/>
</a>
</g>
</g>
<!-- Node11 -->
<g id="Node000011" class="node">
<title>Node11</title>
<g id="a_Node000011"><a xlink:href="std__types_8h.html" target="_top" xlink:title="Standard C language types and definitions for ODP.">
<polygon fill="white" stroke="#666666" points="533,-250 421,-250 421,-231 533,-231 533,-250"/>
<text text-anchor="middle" x="477" y="-238" font-family="Helvetica,sans-Serif" font-size="10.00">odp/api/std_types.h</text>
</a>
</g>
</g>
<!-- Node1&#45;&gt;Node11 -->
<g id="edge24_Node000001_Node000011" class="edge">
<title>Node1&#45;&gt;Node11</title>
<g id="a_edge24_Node000001_Node000011"><a xlink:title=" ">
<path fill="none" stroke="#63b8ff" d="M476.05,-417.58C476.2,-389.07 476.69,-299.74 476.9,-260.41"/>
<polygon fill="#63b8ff" stroke="#63b8ff" points="480.4,-260.35 476.95,-250.33 473.4,-260.31 480.4,-260.35"/>
</a>
</g>
</g>
<!-- Node18 -->
<g id="Node000018" class="node">
<title>Node18</title>
<g id="a_Node000018"><a xlink:href="thrmask_8h.html" target="_top" xlink:title="ODP thread masks.">
<polygon fill="white" stroke="#666666" points="622.5,-376.5 517.5,-376.5 517.5,-357.5 622.5,-357.5 622.5,-376.5"/>
<text text-anchor="middle" x="570" y="-364.5" font-family="Helvetica,sans-Serif" font-size="10.00">odp/api/thrmask.h</text>
</a>
</g>
</g>
<!-- Node1&#45;&gt;Node18 -->
<g id="edge25_Node000001_Node000018" class="edge">
<title>Node1&#45;&gt;Node18</title>
<g id="a_edge25_Node000001_Node000018"><a xlink:title=" ">
<path fill="none" stroke="#63b8ff" d="M489.87,-417.87C505,-408.45 529.46,-393.23 547.38,-382.08"/>
<polygon fill="#63b8ff" stroke="#63b8ff" points="549.43,-384.92 556.07,-376.67 545.73,-378.98 549.43,-384.92"/>
</a>
</g>
</g>
<!-- Node4 -->
<g id="Node000004" class="node">
<title>Node4</title>
<g id="a_Node000004"><a xlink:title=" ">
<polygon fill="#e0e0e0" stroke="#999999" points="165.5,-316 28.5,-316 28.5,-286 165.5,-286 165.5,-316"/>
<text text-anchor="start" x="36.5" y="-304" font-family="Helvetica,sans-Serif" font-size="10.00">odp/api/abi/event_vector</text>
<text text-anchor="middle" x="97" y="-293" font-family="Helvetica,sans-Serif" font-size="10.00">_types.h</text>
</a>
</g>
</g>
<!-- Node3&#45;&gt;Node4 -->
<g id="edge3_Node000003_Node000004" class="edge">
<title>Node3&#45;&gt;Node4</title>
<g id="a_edge3_Node000003_Node000004"><a xlink:title=" ">
<path fill="none" stroke="#63b8ff" d="M271.06,-351.95C237.08,-342.2 191.62,-329.16 155.69,-318.84"/>
<polygon fill="#63b8ff" stroke="#63b8ff" points="156.4,-315.41 145.82,-316.01 154.47,-322.14 156.4,-315.41"/>
</a>
</g>
</g>
<!-- Node5 -->
<g id="Node000005" class="node">
<title>Node5</title>
<g id="a_Node000005"><a xlink:title=" ">
<polygon fill="#e0e0e0" stroke="#999999" points="320,-310.5 184,-310.5 184,-291.5 320,-291.5 320,-310.5"/>
<text text-anchor="middle" x="252" y="-298.5" font-family="Helvetica,sans-Serif" font-size="10.00">odp/api/abi/pool_types.h</text>
</a>
</g>
</g>
<!-- Node3&#45;&gt;Node5 -->
<g id="edge4_Node000003_Node000005" class="edge">
<title>Node3&#45;&gt;Node5</title>
<g id="a_edge4_Node000003_Node000005"><a xlink:title=" ">
<path fill="none" stroke="#63b8ff" d="M304.91,-351.8C294.2,-341.72 279.83,-328.19 268.77,-317.78"/>
<polygon fill="#63b8ff" stroke="#63b8ff" points="271.08,-315.15 261.4,-310.84 266.28,-320.25 271.08,-315.15"/>
</a>
</g>
</g>
<!-- Node6 -->
<g id="Node000006" class="node">
<title>Node6</title>
<g id="a_Node000006"><a xlink:href="spec_2event__vector__types_8h.html" target="_top" xlink:title="ODP event vector API type definitions.">
<polygon fill="white" stroke="#666666" points="447.5,-316 338.5,-316 338.5,-286 447.5,-286 447.5,-316"/>
<text text-anchor="start" x="346.5" y="-304" font-family="Helvetica,sans-Serif" font-size="10.00">odp/api/spec/event</text>
<text text-anchor="middle" x="393" y="-293" font-family="Helvetica,sans-Serif" font-size="10.00">_vector_types.h</text>
</a>
</g>
</g>
<!-- Node3&#45;&gt;Node6 -->
<g id="edge5_Node000003_Node000006" class="edge">
<title>Node3&#45;&gt;Node6</title>
<g id="a_edge5_Node000003_Node000006"><a xlink:title=" ">
<path fill="none" stroke="#63b8ff" d="M336.2,-351.8C345.84,-343.34 358.25,-332.46 369.01,-323.03"/>
<polygon fill="#63b8ff" stroke="#63b8ff" points="371.63,-325.39 376.84,-316.16 367.02,-320.12 371.63,-325.39"/>
</a>
</g>
</g>
<!-- Node6&#45;&gt;Node2 -->
<g id="edge6_Node000006_Node000002" class="edge">
<title>Node6&#45;&gt;Node2</title>
<g id="a_edge6_Node000006_Node000002"><a xlink:title=" ">
<path fill="none" stroke="#63b8ff" d="M340.24,-285.91C241.34,-259.13 38,-202.17 38,-186.5 38,-186.5 38,-186.5 38,-129.5 38,-95.33 31.84,-78.12 57,-55 84.95,-29.32 183.96,-18.33 253.21,-13.71"/>
<polygon fill="#63b8ff" stroke="#63b8ff" points="253.44,-17.21 263.19,-13.08 252.99,-10.22 253.44,-17.21"/>
</a>
</g>
</g>
<!-- Node7 -->
<g id="Node000007" class="node">
<title>Node7</title>
<g id="a_Node000007"><a xlink:href="event__types_8h.html" target="_top" xlink:title="ODP event API type definitions.">
<polygon fill="white" stroke="#666666" points="336.5,-140 211.5,-140 211.5,-121 336.5,-121 336.5,-140"/>
<text text-anchor="middle" x="274" y="-128" font-family="Helvetica,sans-Serif" font-size="10.00">odp/api/event_types.h</text>
</a>
</g>
</g>
<!-- Node6&#45;&gt;Node7 -->
<g id="edge7_Node000006_Node000007" class="edge">
<title>Node6&#45;&gt;Node7</title>
<g id="a_edge7_Node000006_Node000007"><a xlink:title=" ">
<path fill="none" stroke="#63b8ff" d="M383.06,-285.92C361.31,-255.12 309.56,-181.85 286.02,-148.53"/>
<polygon fill="#63b8ff" stroke="#63b8ff" points="288.81,-146.4 280.18,-140.25 283.09,-150.44 288.81,-146.4"/>
</a>
</g>
</g>
<!-- Node6&#45;&gt;Node10 -->
<g id="edge23_Node000006_Node000010" class="edge">
<title>Node6&#45;&gt;Node10</title>
<g id="a_edge23_Node000006_Node000010"><a xlink:title=" ">
<path fill="none" stroke="#63b8ff" d="M392.65,-285.75C393.09,-269.9 396.43,-244.72 412,-231 496.56,-156.5 575.82,-266.41 663,-195 713.62,-153.54 718.98,-67.61 718.71,-29.46"/>
<polygon fill="#63b8ff" stroke="#63b8ff" points="722.2,-29.18 718.48,-19.25 715.2,-29.33 722.2,-29.18"/>
</a>
</g>
</g>
<!-- Node6&#45;&gt;Node11 -->
<g id="edge12_Node000006_Node000011" class="edge">
<title>Node6&#45;&gt;Node11</title>
<g id="a_edge12_Node000006_Node000011"><a xlink:title=" ">
<path fill="none" stroke="#63b8ff" d="M413.33,-285.84C426.27,-276.83 442.99,-265.18 456.05,-256.09"/>
<polygon fill="#63b8ff" stroke="#63b8ff" points="458.21,-258.85 464.41,-250.27 454.21,-253.11 458.21,-258.85"/>
</a>
</g>
</g>
<!-- Node8 -->
<g id="Node000008" class="node">
<title>Node8</title>
<g id="a_Node000008"><a xlink:title=" ">
<polygon fill="#e0e0e0" stroke="#999999" points="209.5,-79.5 66.5,-79.5 66.5,-60.5 209.5,-60.5 209.5,-79.5"/>
<text text-anchor="middle" x="138" y="-67.5" font-family="Helvetica,sans-Serif" font-size="10.00">odp/api/abi/event_types.h</text>
</a>
</g>
</g>
<!-- Node7&#45;&gt;Node8 -->
<g id="edge8_Node000007_Node000008" class="edge">
<title>Node7&#45;&gt;Node8</title>
<g id="a_edge8_Node000007_Node000008"><a xlink:title=" ">
<path fill="none" stroke="#63b8ff" d="M254.22,-120.99C231.36,-111.16 193.51,-94.88 167.24,-83.58"/>
<polygon fill="#63b8ff" stroke="#63b8ff" points="168.37,-80.25 157.8,-79.52 165.6,-86.68 168.37,-80.25"/>
</a>
</g>
</g>
<!-- Node9 -->
<g id="Node000009" class="node">
<title>Node9</title>
<g id="a_Node000009"><a xlink:href="spec_2event__types_8h.html" target="_top" xlink:title="ODP event API type definitions.">
<polygon fill="white" stroke="#666666" points="336.5,-85 227.5,-85 227.5,-55 336.5,-55 336.5,-85"/>
<text text-anchor="start" x="235.5" y="-73" font-family="Helvetica,sans-Serif" font-size="10.00">odp/api/spec/event</text>
<text text-anchor="middle" x="282" y="-62" font-family="Helvetica,sans-Serif" font-size="10.00">_types.h</text>
</a>
</g>
</g>
<!-- Node7&#45;&gt;Node9 -->
<g id="edge9_Node000007_Node000009" class="edge">
<title>Node7&#45;&gt;Node9</title>
<g id="a_edge9_Node000007_Node000009"><a xlink:title=" ">
<path fill="none" stroke="#63b8ff" d="M275.18,-120.87C276.11,-114.11 277.44,-104.35 278.68,-95.26"/>
<polygon fill="#63b8ff" stroke="#63b8ff" points="282.18,-95.5 280.07,-85.11 275.25,-94.55 282.18,-95.5"/>
</a>
</g>
</g>
<!-- Node9&#45;&gt;Node2 -->
<g id="edge10_Node000009_Node000002" class="edge">
<title>Node9&#45;&gt;Node2</title>
<g id="a_edge10_Node000009_Node000002"><a xlink:title=" ">
<path fill="none" stroke="#63b8ff" d="M292.17,-54.84C298.08,-46.61 305.56,-36.18 311.79,-27.51"/>
<polygon fill="#63b8ff" stroke="#63b8ff" points="314.72,-29.43 317.71,-19.27 309.03,-25.35 314.72,-29.43"/>
</a>
</g>
</g>
<!-- Node9&#45;&gt;Node10 -->
<g id="edge11_Node000009_Node000010" class="edge">
<title>Node9&#45;&gt;Node10</title>
<g id="a_edge11_Node000009_Node000010"><a xlink:title=" ">
<path fill="none" stroke="#63b8ff" d="M336.78,-61.65C416.86,-50.91 565.7,-30.94 651.8,-19.38"/>
<polygon fill="#63b8ff" stroke="#63b8ff" points="652.28,-22.85 661.72,-18.05 651.35,-15.91 652.28,-22.85"/>
</a>
</g>
</g>
<!-- Node12 -->
<g id="Node000012" class="node">
<title>Node12</title>
<g id="a_Node000012"><a xlink:title=" ">
<polygon fill="#e0e0e0" stroke="#999999" points="460,-195 330,-195 330,-176 460,-176 460,-195"/>
<text text-anchor="middle" x="395" y="-183" font-family="Helvetica,sans-Serif" font-size="10.00">odp/api/abi/std_types.h</text>
</a>
</g>
</g>
<!-- Node11&#45;&gt;Node12 -->
<g id="edge13_Node000011_Node000012" class="edge">
<title>Node11&#45;&gt;Node12</title>
<g id="a_edge13_Node000011_Node000012"><a xlink:title=" ">
<path fill="none" stroke="#63b8ff" d="M463.83,-230.98C451.23,-222.84 432,-210.41 417.06,-200.76"/>
<polygon fill="#63b8ff" stroke="#63b8ff" points="418.71,-197.66 408.41,-195.17 414.91,-203.54 418.71,-197.66"/>
</a>
</g>
</g>
<!-- Node13 -->
<g id="Node000013" class="node">
<title>Node13</title>
<g id="a_Node000013"><a xlink:href="spec_2std__types_8h.html" target="_top" xlink:title="Common types and definitions for ODP API files.">
<polygon fill="white" stroke="#666666" points="653.5,-195 516.5,-195 516.5,-176 653.5,-176 653.5,-195"/>
<text text-anchor="middle" x="585" y="-183" font-family="Helvetica,sans-Serif" font-size="10.00">odp/api/spec/std_types.h</text>
</a>
</g>
</g>
<!-- Node11&#45;&gt;Node13 -->
<g id="edge14_Node000011_Node000013" class="edge">
<title>Node11&#45;&gt;Node13</title>
<g id="a_edge14_Node000011_Node000013"><a xlink:title=" ">
<path fill="none" stroke="#63b8ff" d="M494.35,-230.98C511.57,-222.54 538.2,-209.47 558.15,-199.68"/>
<polygon fill="#63b8ff" stroke="#63b8ff" points="559.9,-202.72 567.33,-195.17 556.81,-196.43 559.9,-202.72"/>
</a>
</g>
</g>
<!-- Node13&#45;&gt;Node2 -->
<g id="edge15_Node000013_Node000002" class="edge">
<title>Node13&#45;&gt;Node2</title>
<g id="a_edge15_Node000013_Node000002"><a xlink:title=" ">
<path fill="none" stroke="#63b8ff" d="M541.38,-175.94C514.31,-169.2 479.73,-157.89 453,-140 411.37,-112.14 415.05,-89.77 379,-55 367.98,-44.37 354.65,-33.54 343.87,-25.22"/>
<polygon fill="#63b8ff" stroke="#63b8ff" points="345.95,-22.41 335.87,-19.15 341.72,-27.98 345.95,-22.41"/>
</a>
</g>
</g>
<!-- Node13&#45;&gt;Node10 -->
<g id="edge22_Node000013_Node000010" class="edge">
<title>Node13&#45;&gt;Node10</title>
<g id="a_edge22_Node000013_Node000010"><a xlink:title=" ">
<path fill="none" stroke="#63b8ff" d="M594.36,-175.83C603.8,-167 618.69,-152.83 631,-140 653.67,-116.38 661.52,-112.03 680,-85 692.38,-66.89 703.39,-44.2 710.33,-28.65"/>
<polygon fill="#63b8ff" stroke="#63b8ff" points="713.67,-29.73 714.45,-19.16 707.25,-26.94 713.67,-29.73"/>
</a>
</g>
</g>
<!-- Node14 -->
<g id="Node000014" class="node">
<title>Node14</title>
<g id="a_Node000014"><a xlink:title=" ">
<polygon fill="#e0e0e0" stroke="#999999" points="621.5,-140 568.5,-140 568.5,-121 621.5,-121 621.5,-140"/>
<text text-anchor="middle" x="595" y="-128" font-family="Helvetica,sans-Serif" font-size="10.00">stdint.h</text>
</a>
</g>
</g>
<!-- Node13&#45;&gt;Node14 -->
<g id="edge16_Node000013_Node000014" class="edge">
<title>Node13&#45;&gt;Node14</title>
<g id="a_edge16_Node000013_Node000014"><a xlink:title=" ">
<path fill="none" stroke="#63b8ff" d="M586.65,-175.75C587.96,-168.8 589.84,-158.85 591.48,-150.13"/>
<polygon fill="#63b8ff" stroke="#63b8ff" points="594.96,-150.56 593.38,-140.09 588.09,-149.27 594.96,-150.56"/>
</a>
</g>
</g>
<!-- Node15 -->
<g id="Node000015" class="node">
<title>Node15</title>
<g id="a_Node000015"><a xlink:href="align_8h.html" target="_top" xlink:title="ODP alignments.">
<polygon fill="white" stroke="#666666" points="550.5,-140 461.5,-140 461.5,-121 550.5,-121 550.5,-140"/>
<text text-anchor="middle" x="506" y="-128" font-family="Helvetica,sans-Serif" font-size="10.00">odp/api/align.h</text>
</a>
</g>
</g>
<!-- Node13&#45;&gt;Node15 -->
<g id="edge17_Node000013_Node000015" class="edge">
<title>Node13&#45;&gt;Node15</title>
<g id="a_edge17_Node000013_Node000015"><a xlink:title=" ">
<path fill="none" stroke="#63b8ff" d="M572.31,-175.98C560.17,-167.84 541.64,-155.41 527.25,-145.76"/>
<polygon fill="#63b8ff" stroke="#63b8ff" points="529.18,-142.84 518.92,-140.17 525.28,-148.65 529.18,-142.84"/>
</a>
</g>
</g>
<!-- Node16 -->
<g id="Node000016" class="node">
<title>Node16</title>
<g id="a_Node000016"><a xlink:title=" ">
<polygon fill="#e0e0e0" stroke="#999999" points="670.5,-79.5 563.5,-79.5 563.5,-60.5 670.5,-60.5 670.5,-79.5"/>
<text text-anchor="middle" x="617" y="-67.5" font-family="Helvetica,sans-Serif" font-size="10.00">odp/api/abi/align.h</text>
</a>
</g>
</g>
<!-- Node15&#45;&gt;Node16 -->
<g id="edge18_Node000015_Node000016" class="edge">
<title>Node15&#45;&gt;Node16</title>
<g id="a_edge18_Node000015_Node000016"><a xlink:title=" ">
<path fill="none" stroke="#63b8ff" d="M522.38,-120.87C540.58,-111.28 570.2,-95.67 591.45,-84.47"/>
<polygon fill="#63b8ff" stroke="#63b8ff" points="593.34,-87.43 600.55,-79.67 590.08,-81.23 593.34,-87.43"/>
</a>
</g>
</g>
<!-- Node17 -->
<g id="Node000017" class="node">
<title>Node17</title>
<g id="a_Node000017"><a xlink:href="spec_2align_8h.html" target="_top" xlink:title="ODP alignments.">
<polygon fill="white" stroke="#666666" points="545,-79.5 431,-79.5 431,-60.5 545,-60.5 545,-79.5"/>
<text text-anchor="middle" x="488" y="-67.5" font-family="Helvetica,sans-Serif" font-size="10.00">odp/api/spec/align.h</text>
</a>
</g>
</g>
<!-- Node15&#45;&gt;Node17 -->
<g id="edge19_Node000015_Node000017" class="edge">
<title>Node15&#45;&gt;Node17</title>
<g id="a_edge19_Node000015_Node000017"><a xlink:title=" ">
<path fill="none" stroke="#63b8ff" d="M503.34,-120.87C500.82,-112.66 496.94,-100.04 493.71,-89.55"/>
<polygon fill="#63b8ff" stroke="#63b8ff" points="496.95,-88.2 490.67,-79.67 490.26,-90.25 496.95,-88.2"/>
</a>
</g>
</g>
<!-- Node17&#45;&gt;Node2 -->
<g id="edge20_Node000017_Node000002" class="edge">
<title>Node17&#45;&gt;Node2</title>
<g id="a_edge20_Node000017_Node000002"><a xlink:title=" ">
<path fill="none" stroke="#63b8ff" d="M464.15,-60.49C436.1,-50.49 389.33,-33.8 357.6,-22.49"/>
<polygon fill="#63b8ff" stroke="#63b8ff" points="358.47,-19.08 347.88,-19.02 356.12,-25.67 358.47,-19.08"/>
</a>
</g>
</g>
<!-- Node17&#45;&gt;Node10 -->
<g id="edge21_Node000017_Node000010" class="edge">
<title>Node17&#45;&gt;Node10</title>
<g id="a_edge21_Node000017_Node000010"><a xlink:title=" ">
<path fill="none" stroke="#63b8ff" d="M521.44,-60.49C561.9,-50.2 630.1,-32.86 674.58,-21.54"/>
<polygon fill="#63b8ff" stroke="#63b8ff" points="675.69,-24.87 684.52,-19.02 673.96,-18.09 675.69,-24.87"/>
</a>
</g>
</g>
<!-- Node19 -->
<g id="Node000019" class="node">
<title>Node19</title>
<g id="a_Node000019"><a xlink:title=" ">
<polygon fill="#e0e0e0" stroke="#999999" points="776.5,-310.5 653.5,-310.5 653.5,-291.5 776.5,-291.5 776.5,-310.5"/>
<text text-anchor="middle" x="715" y="-298.5" font-family="Helvetica,sans-Serif" font-size="10.00">odp/api/abi/thrmask.h</text>
</a>
</g>
</g>
<!-- Node18&#45;&gt;Node19 -->
<g id="edge26_Node000018_Node000019" class="edge">
<title>Node18&#45;&gt;Node19</title>
<g id="a_edge26_Node000018_Node000019"><a xlink:title=" ">
<path fill="none" stroke="#63b8ff" d="M589.56,-357.37C614.31,-346.44 657.17,-327.52 685.81,-314.88"/>
<polygon fill="#63b8ff" stroke="#63b8ff" points="687.56,-317.94 695.29,-310.7 684.73,-311.54 687.56,-317.94"/>
</a>
</g>
</g>
<!-- Node20 -->
<g id="Node000020" class="node">
<title>Node20</title>
<g id="a_Node000020"><a xlink:href="spec_2thrmask_8h.html" target="_top" xlink:title="ODP thread masks.">
<polygon fill="white" stroke="#666666" points="635.5,-310.5 504.5,-310.5 504.5,-291.5 635.5,-291.5 635.5,-310.5"/>
<text text-anchor="middle" x="570" y="-298.5" font-family="Helvetica,sans-Serif" font-size="10.00">odp/api/spec/thrmask.h</text>
</a>
</g>
</g>
<!-- Node18&#45;&gt;Node20 -->
<g id="edge27_Node000018_Node000020" class="edge">
<title>Node18&#45;&gt;Node20</title>
<g id="a_edge27_Node000018_Node000020"><a xlink:title=" ">
<path fill="none" stroke="#63b8ff" d="M570,-357.37C570,-348.16 570,-333.29 570,-321.27"/>
<polygon fill="#63b8ff" stroke="#63b8ff" points="573.5,-320.91 570,-310.91 566.5,-320.91 573.5,-320.91"/>
</a>
</g>
</g>
<!-- Node20&#45;&gt;Node2 -->
<g id="edge28_Node000020_Node000002" class="edge">
<title>Node20&#45;&gt;Node2</title>
<g id="a_edge28_Node000020_Node000002"><a xlink:title=" ">
<path fill="none" stroke="#63b8ff" d="M568,-291.21C564.51,-277.33 556.31,-250 542,-231 502.58,-178.66 473.3,-185.35 426,-140 402.79,-117.75 399.01,-110.17 379,-85 363.76,-65.82 347.18,-43.08 336.25,-27.81"/>
<polygon fill="#63b8ff" stroke="#63b8ff" points="338.89,-25.49 330.24,-19.37 333.19,-29.55 338.89,-25.49"/>
</a>
</g>
</g>
<!-- Node20&#45;&gt;Node10 -->
<g id="edge30_Node000020_Node000010" class="edge">
<title>Node20&#45;&gt;Node10</title>
<g id="a_edge30_Node000020_Node000010"><a xlink:title=" ">
<path fill="none" stroke="#63b8ff" d="M596.8,-291.36C652.37,-272.65 775,-226.77 775,-186.5 775,-186.5 775,-186.5 775,-129.5 775,-94.71 766.91,-85.94 751,-55 745.9,-45.07 738.64,-35 732.23,-26.96"/>
<polygon fill="#63b8ff" stroke="#63b8ff" points="734.82,-24.6 725.75,-19.13 729.43,-29.06 734.82,-24.6"/>
</a>
</g>
</g>
<!-- Node20&#45;&gt;Node11 -->
<g id="edge29_Node000020_Node000011" class="edge">
<title>Node20&#45;&gt;Node11</title>
<g id="a_edge29_Node000020_Node000011"><a xlink:title=" ">
<path fill="none" stroke="#63b8ff" d="M556.28,-291.37C541.3,-281.95 517.11,-266.73 499.38,-255.58"/>
<polygon fill="#63b8ff" stroke="#63b8ff" points="501.11,-252.53 490.78,-250.17 497.38,-258.45 501.11,-252.53"/>
</a>
</g>
</g>
</g>
</svg>
