<?xml version="1.0" encoding="UTF-8" standalone="no"?>
<!DOCTYPE svg PUBLIC "-//W3C//DTD SVG 1.1//EN"
 "http://www.w3.org/Graphics/SVG/1.1/DTD/svg11.dtd">
<!-- Generated by graphviz version 2.43.0 (0)
 -->
<!-- Title: packet_io_stats.h Pages: 1 -->
<svg width="974pt" height="687pt"
 viewBox="0.00 0.00 974.00 687.00" xmlns="http://www.w3.org/2000/svg" xmlns:xlink="http://www.w3.org/1999/xlink">
<g id="graph0" class="graph" transform="scale(1 1) rotate(0) translate(4 683)">
<title>packet_io_stats.h</title>
<!-- Node1 -->
<g id="Node000001" class="node">
<title>Node1</title>
<g id="a_Node000001"><a xlink:title="ODP Packet IO statistics.">
<polygon fill="#999999" stroke="#666666" points="638.5,-679 537.5,-679 537.5,-660 638.5,-660 638.5,-679"/>
<text text-anchor="middle" x="588" y="-667" font-family="Helvetica,sans-Serif" font-size="10.00">packet_io_stats.h</text>
</a>
</g>
</g>
<!-- Node2 -->
<g id="Node000002" class="node">
<title>Node2</title>
<g id="a_Node000002"><a xlink:title=" ">
<polygon fill="#e0e0e0" stroke="#999999" points="893.5,-19 772.5,-19 772.5,0 893.5,0 893.5,-19"/>
<text text-anchor="middle" x="833" y="-7" font-family="Helvetica,sans-Serif" font-size="10.00">odp/visibility_begin.h</text>
</a>
</g>
</g>
<!-- Node1&#45;&gt;Node2 -->
<g id="edge1_Node000001_Node000002" class="edge">
<title>Node1&#45;&gt;Node2</title>
<g id="a_edge1_Node000001_Node000002"><a xlink:title=" ">
<path fill="none" stroke="#63b8ff" d="M638.59,-663.99C741.59,-653.4 966,-622.58 966,-555 966,-555 966,-555 966,-129.5 966,-75.94 905.37,-40.46 865.98,-23.06"/>
<polygon fill="#63b8ff" stroke="#63b8ff" points="867.04,-19.71 856.47,-19.02 864.31,-26.15 867.04,-19.71"/>
</a>
</g>
</g>
<!-- Node3 -->
<g id="Node000003" class="node">
<title>Node3</title>
<g id="a_Node000003"><a xlink:href="queue__types_8h.html" target="_top" xlink:title="ODP queue.">
<polygon fill="white" stroke="#666666" points="651.5,-624 524.5,-624 524.5,-605 651.5,-605 651.5,-624"/>
<text text-anchor="middle" x="588" y="-612" font-family="Helvetica,sans-Serif" font-size="10.00">odp/api/queue_types.h</text>
</a>
</g>
</g>
<!-- Node1&#45;&gt;Node3 -->
<g id="edge2_Node000001_Node000003" class="edge">
<title>Node1&#45;&gt;Node3</title>
<g id="a_edge2_Node000001_Node000003"><a xlink:title=" ">
<path fill="none" stroke="#63b8ff" d="M588,-659.75C588,-652.8 588,-642.85 588,-634.13"/>
<polygon fill="#63b8ff" stroke="#63b8ff" points="591.5,-634.09 588,-624.09 584.5,-634.09 591.5,-634.09"/>
</a>
</g>
</g>
<!-- Node13 -->
<g id="Node000013" class="node">
<title>Node13</title>
<g id="a_Node000013"><a xlink:title=" ">
<polygon fill="#e0e0e0" stroke="#999999" points="270,-19 158,-19 158,0 270,0 270,-19"/>
<text text-anchor="middle" x="214" y="-7" font-family="Helvetica,sans-Serif" font-size="10.00">odp/visibility_end.h</text>
</a>
</g>
</g>
<!-- Node1&#45;&gt;Node13 -->
<g id="edge42_Node000001_Node000013" class="edge">
<title>Node1&#45;&gt;Node13</title>
<g id="a_edge42_Node000001_Node000013"><a xlink:title=" ">
<path fill="none" stroke="#63b8ff" d="M537.36,-664.06C394.73,-650.89 0,-609.52 0,-555 0,-555 0,-555 0,-129.5 0,-60.9 85.03,-31.5 147.89,-19.14"/>
<polygon fill="#63b8ff" stroke="#63b8ff" points="148.58,-22.57 157.77,-17.3 147.3,-15.69 148.58,-22.57"/>
</a>
</g>
</g>
<!-- Node4 -->
<g id="Node000004" class="node">
<title>Node4</title>
<g id="a_Node000004"><a xlink:title=" ">
<polygon fill="#e0e0e0" stroke="#999999" points="733.5,-563.5 588.5,-563.5 588.5,-544.5 733.5,-544.5 733.5,-563.5"/>
<text text-anchor="middle" x="661" y="-551.5" font-family="Helvetica,sans-Serif" font-size="10.00">odp/api/abi/queue_types.h</text>
</a>
</g>
</g>
<!-- Node3&#45;&gt;Node4 -->
<g id="edge3_Node000003_Node000004" class="edge">
<title>Node3&#45;&gt;Node4</title>
<g id="a_edge3_Node000003_Node000004"><a xlink:title=" ">
<path fill="none" stroke="#63b8ff" d="M598.77,-604.87C610.2,-595.71 628.48,-581.06 642.28,-570.01"/>
<polygon fill="#63b8ff" stroke="#63b8ff" points="644.57,-572.65 650.18,-563.67 640.19,-567.19 644.57,-572.65"/>
</a>
</g>
</g>
<!-- Node5 -->
<g id="Node000005" class="node">
<title>Node5</title>
<g id="a_Node000005"><a xlink:href="spec_2queue__types_8h.html" target="_top" xlink:title="ODP queue types.">
<polygon fill="white" stroke="#666666" points="570.5,-569 459.5,-569 459.5,-539 570.5,-539 570.5,-569"/>
<text text-anchor="start" x="467.5" y="-557" font-family="Helvetica,sans-Serif" font-size="10.00">odp/api/spec/queue</text>
<text text-anchor="middle" x="515" y="-546" font-family="Helvetica,sans-Serif" font-size="10.00">_types.h</text>
</a>
</g>
</g>
<!-- Node3&#45;&gt;Node5 -->
<g id="edge4_Node000003_Node000005" class="edge">
<title>Node3&#45;&gt;Node5</title>
<g id="a_edge4_Node000003_Node000005"><a xlink:title=" ">
<path fill="none" stroke="#63b8ff" d="M577.23,-604.87C567.6,-597.15 553.11,-585.54 540.53,-575.46"/>
<polygon fill="#63b8ff" stroke="#63b8ff" points="542.61,-572.64 532.61,-569.11 538.23,-578.1 542.61,-572.64"/>
</a>
</g>
</g>
<!-- Node5&#45;&gt;Node2 -->
<g id="edge5_Node000005_Node000002" class="edge">
<title>Node5&#45;&gt;Node2</title>
<g id="a_edge5_Node000005_Node000002"><a xlink:title=" ">
<path fill="none" stroke="#63b8ff" d="M570.7,-539.88C683.43,-512.94 928,-452.37 928,-434 928,-434 928,-434 928,-129.5 928,-83.22 883.58,-44.59 855.49,-24.79"/>
<polygon fill="#63b8ff" stroke="#63b8ff" points="857.26,-21.76 847.02,-19.03 853.32,-27.55 857.26,-21.76"/>
</a>
</g>
</g>
<!-- Node6 -->
<g id="Node000006" class="node">
<title>Node6</title>
<g id="a_Node000006"><a xlink:href="event__vector__types_8h.html" target="_top" xlink:title="ODP event vector API type definitions.">
<polygon fill="white" stroke="#666666" points="525.5,-382 406.5,-382 406.5,-352 525.5,-352 525.5,-382"/>
<text text-anchor="start" x="414.5" y="-370" font-family="Helvetica,sans-Serif" font-size="10.00">odp/api/event_vector</text>
<text text-anchor="middle" x="466" y="-359" font-family="Helvetica,sans-Serif" font-size="10.00">_types.h</text>
</a>
</g>
</g>
<!-- Node5&#45;&gt;Node6 -->
<g id="edge6_Node000005_Node000006" class="edge">
<title>Node5&#45;&gt;Node6</title>
<g id="a_edge6_Node000005_Node000006"><a xlink:title=" ">
<path fill="none" stroke="#63b8ff" d="M504.43,-538.9C497.77,-529.28 489.59,-515.98 485,-503 471.88,-465.94 467.79,-420.13 466.53,-392.53"/>
<polygon fill="#63b8ff" stroke="#63b8ff" points="470.02,-392.1 466.16,-382.24 463.02,-392.36 470.02,-392.1"/>
</a>
</g>
</g>
<!-- Node5&#45;&gt;Node13 -->
<g id="edge41_Node000005_Node000013" class="edge">
<title>Node5&#45;&gt;Node13</title>
<g id="a_edge41_Node000005_Node000013"><a xlink:title=" ">
<path fill="none" stroke="#63b8ff" d="M459.35,-550.81C333.52,-544.34 38,-519.99 38,-434 38,-434 38,-434 38,-129.5 38,-68.51 111.42,-36.67 163.42,-21.76"/>
<polygon fill="#63b8ff" stroke="#63b8ff" points="164.46,-25.1 173.18,-19.08 162.61,-18.35 164.46,-25.1"/>
</a>
</g>
</g>
<!-- Node21 -->
<g id="Node000021" class="node">
<title>Node21</title>
<g id="a_Node000021"><a xlink:href="schedule__types_8h.html" target="_top" xlink:title="ODP schedule.">
<polygon fill="white" stroke="#666666" points="634,-503 494,-503 494,-484 634,-484 634,-503"/>
<text text-anchor="middle" x="564" y="-491" font-family="Helvetica,sans-Serif" font-size="10.00">odp/api/schedule_types.h</text>
</a>
</g>
</g>
<!-- Node5&#45;&gt;Node21 -->
<g id="edge28_Node000005_Node000021" class="edge">
<title>Node5&#45;&gt;Node21</title>
<g id="a_edge28_Node000005_Node000021"><a xlink:title=" ">
<path fill="none" stroke="#63b8ff" d="M526.86,-538.84C533.9,-530.43 542.86,-519.74 550.21,-510.96"/>
<polygon fill="#63b8ff" stroke="#63b8ff" points="552.92,-513.18 556.66,-503.27 547.55,-508.68 552.92,-513.18"/>
</a>
</g>
</g>
<!-- Node7 -->
<g id="Node000007" class="node">
<title>Node7</title>
<g id="a_Node000007"><a xlink:title=" ">
<polygon fill="#e0e0e0" stroke="#999999" points="250.5,-316 113.5,-316 113.5,-286 250.5,-286 250.5,-316"/>
<text text-anchor="start" x="121.5" y="-304" font-family="Helvetica,sans-Serif" font-size="10.00">odp/api/abi/event_vector</text>
<text text-anchor="middle" x="182" y="-293" font-family="Helvetica,sans-Serif" font-size="10.00">_types.h</text>
</a>
</g>
</g>
<!-- Node6&#45;&gt;Node7 -->
<g id="edge7_Node000006_Node000007" class="edge">
<title>Node6&#45;&gt;Node7</title>
<g id="a_edge7_Node000006_Node000007"><a xlink:title=" ">
<path fill="none" stroke="#63b8ff" d="M406.46,-352.58C362.12,-342.59 301.37,-328.9 254.24,-318.28"/>
<polygon fill="#63b8ff" stroke="#63b8ff" points="254.93,-314.85 244.41,-316.06 253.39,-321.68 254.93,-314.85"/>
</a>
</g>
</g>
<!-- Node8 -->
<g id="Node000008" class="node">
<title>Node8</title>
<g id="a_Node000008"><a xlink:title=" ">
<polygon fill="#e0e0e0" stroke="#999999" points="405,-310.5 269,-310.5 269,-291.5 405,-291.5 405,-310.5"/>
<text text-anchor="middle" x="337" y="-298.5" font-family="Helvetica,sans-Serif" font-size="10.00">odp/api/abi/pool_types.h</text>
</a>
</g>
</g>
<!-- Node6&#45;&gt;Node8 -->
<g id="edge8_Node000006_Node000008" class="edge">
<title>Node6&#45;&gt;Node8</title>
<g id="a_edge8_Node000006_Node000008"><a xlink:title=" ">
<path fill="none" stroke="#63b8ff" d="M437.69,-351.95C415.57,-340.98 385.04,-325.83 363.42,-315.11"/>
<polygon fill="#63b8ff" stroke="#63b8ff" points="364.68,-311.83 354.17,-310.52 361.57,-318.1 364.68,-311.83"/>
</a>
</g>
</g>
<!-- Node9 -->
<g id="Node000009" class="node">
<title>Node9</title>
<g id="a_Node000009"><a xlink:href="spec_2event__vector__types_8h.html" target="_top" xlink:title="ODP event vector API type definitions.">
<polygon fill="white" stroke="#666666" points="532.5,-316 423.5,-316 423.5,-286 532.5,-286 532.5,-316"/>
<text text-anchor="start" x="431.5" y="-304" font-family="Helvetica,sans-Serif" font-size="10.00">odp/api/spec/event</text>
<text text-anchor="middle" x="478" y="-293" font-family="Helvetica,sans-Serif" font-size="10.00">_vector_types.h</text>
</a>
</g>
</g>
<!-- Node6&#45;&gt;Node9 -->
<g id="edge9_Node000006_Node000009" class="edge">
<title>Node6&#45;&gt;Node9</title>
<g id="a_edge9_Node000006_Node000009"><a xlink:title=" ">
<path fill="none" stroke="#63b8ff" d="M468.66,-351.8C470.08,-344.26 471.85,-334.78 473.48,-326.13"/>
<polygon fill="#63b8ff" stroke="#63b8ff" points="476.94,-326.64 475.34,-316.16 470.06,-325.35 476.94,-326.64"/>
</a>
</g>
</g>
<!-- Node9&#45;&gt;Node2 -->
<g id="edge10_Node000009_Node000002" class="edge">
<title>Node9&#45;&gt;Node2</title>
<g id="a_edge10_Node000009_Node000002"><a xlink:title=" ">
<path fill="none" stroke="#63b8ff" d="M501.76,-285.92C566.97,-246.93 746.89,-137.05 792,-85 806.91,-67.79 818.74,-44.28 825.78,-28.31"/>
<polygon fill="#63b8ff" stroke="#63b8ff" points="829.03,-29.61 829.71,-19.04 822.58,-26.88 829.03,-29.61"/>
</a>
</g>
</g>
<!-- Node10 -->
<g id="Node000010" class="node">
<title>Node10</title>
<g id="a_Node000010"><a xlink:href="event__types_8h.html" target="_top" xlink:title="ODP event API type definitions.">
<polygon fill="white" stroke="#666666" points="285.5,-140 160.5,-140 160.5,-121 285.5,-121 285.5,-140"/>
<text text-anchor="middle" x="223" y="-128" font-family="Helvetica,sans-Serif" font-size="10.00">odp/api/event_types.h</text>
</a>
</g>
</g>
<!-- Node9&#45;&gt;Node10 -->
<g id="edge11_Node000009_Node000010" class="edge">
<title>Node9&#45;&gt;Node10</title>
<g id="a_edge11_Node000009_Node000010"><a xlink:title=" ">
<path fill="none" stroke="#63b8ff" d="M423.28,-286.7C374.8,-274.58 310.15,-257.47 300,-250 264.39,-223.81 240.76,-175.78 229.89,-149.64"/>
<polygon fill="#63b8ff" stroke="#63b8ff" points="233.08,-148.18 226.13,-140.19 226.58,-150.77 233.08,-148.18"/>
</a>
</g>
</g>
<!-- Node9&#45;&gt;Node13 -->
<g id="edge27_Node000009_Node000013" class="edge">
<title>Node9&#45;&gt;Node13</title>
<g id="a_edge27_Node000009_Node000013"><a xlink:title=" ">
<path fill="none" stroke="#63b8ff" d="M423.32,-287.87C368.09,-275.4 289.1,-256.86 276,-250 181,-200.28 139.16,-184.82 100,-85 95.13,-72.59 92.48,-66.01 100,-55 111.23,-38.57 129.5,-28.2 148.16,-21.66"/>
<polygon fill="#63b8ff" stroke="#63b8ff" points="149.44,-24.93 157.92,-18.58 147.33,-18.26 149.44,-24.93"/>
</a>
</g>
</g>
<!-- Node14 -->
<g id="Node000014" class="node">
<title>Node14</title>
<g id="a_Node000014"><a xlink:href="std__types_8h.html" target="_top" xlink:title="Standard C language types and definitions for ODP.">
<polygon fill="white" stroke="#666666" points="758,-250 646,-250 646,-231 758,-231 758,-250"/>
<text text-anchor="middle" x="702" y="-238" font-family="Helvetica,sans-Serif" font-size="10.00">odp/api/std_types.h</text>
</a>
</g>
</g>
<!-- Node9&#45;&gt;Node14 -->
<g id="edge16_Node000009_Node000014" class="edge">
<title>Node9&#45;&gt;Node14</title>
<g id="a_edge16_Node000009_Node000014"><a xlink:title=" ">
<path fill="none" stroke="#63b8ff" d="M531.65,-285.99C570.81,-275.76 623.18,-262.09 659.46,-252.61"/>
<polygon fill="#63b8ff" stroke="#63b8ff" points="660.46,-255.97 669.25,-250.05 658.69,-249.19 660.46,-255.97"/>
</a>
</g>
</g>
<!-- Node11 -->
<g id="Node000011" class="node">
<title>Node11</title>
<g id="a_Node000011"><a xlink:title=" ">
<polygon fill="#e0e0e0" stroke="#999999" points="285.5,-79.5 142.5,-79.5 142.5,-60.5 285.5,-60.5 285.5,-79.5"/>
<text text-anchor="middle" x="214" y="-67.5" font-family="Helvetica,sans-Serif" font-size="10.00">odp/api/abi/event_types.h</text>
</a>
</g>
</g>
<!-- Node10&#45;&gt;Node11 -->
<g id="edge12_Node000010_Node000011" class="edge">
<title>Node10&#45;&gt;Node11</title>
<g id="a_edge12_Node000010_Node000011"><a xlink:title=" ">
<path fill="none" stroke="#63b8ff" d="M221.67,-120.87C220.41,-112.66 218.47,-100.04 216.85,-89.55"/>
<polygon fill="#63b8ff" stroke="#63b8ff" points="220.31,-89.02 215.33,-79.67 213.39,-90.08 220.31,-89.02"/>
</a>
</g>
</g>
<!-- Node12 -->
<g id="Node000012" class="node">
<title>Node12</title>
<g id="a_Node000012"><a xlink:href="spec_2event__types_8h.html" target="_top" xlink:title="ODP event API type definitions.">
<polygon fill="white" stroke="#666666" points="489.5,-85 380.5,-85 380.5,-55 489.5,-55 489.5,-85"/>
<text text-anchor="start" x="388.5" y="-73" font-family="Helvetica,sans-Serif" font-size="10.00">odp/api/spec/event</text>
<text text-anchor="middle" x="435" y="-62" font-family="Helvetica,sans-Serif" font-size="10.00">_types.h</text>
</a>
</g>
</g>
<!-- Node10&#45;&gt;Node12 -->
<g id="edge13_Node000010_Node000012" class="edge">
<title>Node10&#45;&gt;Node12</title>
<g id="a_edge13_Node000010_Node000012"><a xlink:title=" ">
<path fill="none" stroke="#63b8ff" d="M253.83,-120.99C285.27,-112.32 334.89,-98.62 374.26,-87.76"/>
<polygon fill="#63b8ff" stroke="#63b8ff" points="375.32,-91.1 384.03,-85.06 373.46,-84.35 375.32,-91.1"/>
</a>
</g>
</g>
<!-- Node12&#45;&gt;Node2 -->
<g id="edge14_Node000012_Node000002" class="edge">
<title>Node12&#45;&gt;Node2</title>
<g id="a_edge14_Node000012_Node000002"><a xlink:title=" ">
<path fill="none" stroke="#63b8ff" d="M489.75,-56.71C492.88,-56.11 495.98,-55.53 499,-55 589.42,-39.11 694.51,-25.98 762.29,-18.2"/>
<polygon fill="#63b8ff" stroke="#63b8ff" points="762.89,-21.65 772.43,-17.04 762.1,-14.7 762.89,-21.65"/>
</a>
</g>
</g>
<!-- Node12&#45;&gt;Node13 -->
<g id="edge15_Node000012_Node000013" class="edge">
<title>Node12&#45;&gt;Node13</title>
<g id="a_edge15_Node000012_Node000013"><a xlink:title=" ">
<path fill="none" stroke="#63b8ff" d="M382.06,-54.99C343.59,-44.8 292.21,-31.2 256.43,-21.73"/>
<polygon fill="#63b8ff" stroke="#63b8ff" points="256.88,-18.23 246.31,-19.05 255.09,-25 256.88,-18.23"/>
</a>
</g>
</g>
<!-- Node15 -->
<g id="Node000015" class="node">
<title>Node15</title>
<g id="a_Node000015"><a xlink:title=" ">
<polygon fill="#e0e0e0" stroke="#999999" points="822,-195 692,-195 692,-176 822,-176 822,-195"/>
<text text-anchor="middle" x="757" y="-183" font-family="Helvetica,sans-Serif" font-size="10.00">odp/api/abi/std_types.h</text>
</a>
</g>
</g>
<!-- Node14&#45;&gt;Node15 -->
<g id="edge17_Node000014_Node000015" class="edge">
<title>Node14&#45;&gt;Node15</title>
<g id="a_edge17_Node000014_Node000015"><a xlink:title=" ">
<path fill="none" stroke="#63b8ff" d="M711.08,-230.75C719.09,-223.03 730.96,-211.6 740.62,-202.28"/>
<polygon fill="#63b8ff" stroke="#63b8ff" points="743.31,-204.55 748.09,-195.09 738.46,-199.51 743.31,-204.55"/>
</a>
</g>
</g>
<!-- Node16 -->
<g id="Node000016" class="node">
<title>Node16</title>
<g id="a_Node000016"><a xlink:href="spec_2std__types_8h.html" target="_top" xlink:title="Common types and definitions for ODP API files.">
<polygon fill="white" stroke="#666666" points="635.5,-195 498.5,-195 498.5,-176 635.5,-176 635.5,-195"/>
<text text-anchor="middle" x="567" y="-183" font-family="Helvetica,sans-Serif" font-size="10.00">odp/api/spec/std_types.h</text>
</a>
</g>
</g>
<!-- Node14&#45;&gt;Node16 -->
<g id="edge18_Node000014_Node000016" class="edge">
<title>Node14&#45;&gt;Node16</title>
<g id="a_edge18_Node000014_Node000016"><a xlink:title=" ">
<path fill="none" stroke="#63b8ff" d="M680.31,-230.98C658.2,-222.3 623.68,-208.75 598.55,-198.88"/>
<polygon fill="#63b8ff" stroke="#63b8ff" points="599.67,-195.57 589.08,-195.17 597.11,-202.08 599.67,-195.57"/>
</a>
</g>
</g>
<!-- Node16&#45;&gt;Node2 -->
<g id="edge19_Node000016_Node000002" class="edge">
<title>Node16&#45;&gt;Node2</title>
<g id="a_edge19_Node000016_Node000002"><a xlink:title=" ">
<path fill="none" stroke="#63b8ff" d="M600.49,-175.95C626.26,-168.56 662.21,-156.47 691,-140 745.09,-109.05 795.85,-54.33 819.34,-26.99"/>
<polygon fill="#63b8ff" stroke="#63b8ff" points="822.19,-29.04 825.97,-19.15 816.84,-24.52 822.19,-29.04"/>
</a>
</g>
</g>
<!-- Node16&#45;&gt;Node13 -->
<g id="edge26_Node000016_Node000013" class="edge">
<title>Node16&#45;&gt;Node13</title>
<g id="a_edge26_Node000016_Node000013"><a xlink:title=" ">
<path fill="none" stroke="#63b8ff" d="M547.88,-175.88C512.27,-159.59 433.7,-122.54 371,-85 351.01,-73.03 348.55,-65.98 328,-55 303.19,-41.74 273.55,-30.3 250.71,-22.33"/>
<polygon fill="#63b8ff" stroke="#63b8ff" points="251.65,-18.96 241.05,-19.03 249.38,-25.58 251.65,-18.96"/>
</a>
</g>
</g>
<!-- Node17 -->
<g id="Node000017" class="node">
<title>Node17</title>
<g id="a_Node000017"><a xlink:title=" ">
<polygon fill="#e0e0e0" stroke="#999999" points="681.5,-140 628.5,-140 628.5,-121 681.5,-121 681.5,-140"/>
<text text-anchor="middle" x="655" y="-128" font-family="Helvetica,sans-Serif" font-size="10.00">stdint.h</text>
</a>
</g>
</g>
<!-- Node16&#45;&gt;Node17 -->
<g id="edge20_Node000016_Node000017" class="edge">
<title>Node16&#45;&gt;Node17</title>
<g id="a_edge20_Node000016_Node000017"><a xlink:title=" ">
<path fill="none" stroke="#63b8ff" d="M581.14,-175.98C594.79,-167.77 615.69,-155.18 631.78,-145.49"/>
<polygon fill="#63b8ff" stroke="#63b8ff" points="633.84,-148.33 640.6,-140.17 630.23,-142.33 633.84,-148.33"/>
</a>
</g>
</g>
<!-- Node18 -->
<g id="Node000018" class="node">
<title>Node18</title>
<g id="a_Node000018"><a xlink:href="align_8h.html" target="_top" xlink:title="ODP alignments.">
<polygon fill="white" stroke="#666666" points="610.5,-140 521.5,-140 521.5,-121 610.5,-121 610.5,-140"/>
<text text-anchor="middle" x="566" y="-128" font-family="Helvetica,sans-Serif" font-size="10.00">odp/api/align.h</text>
</a>
</g>
</g>
<!-- Node16&#45;&gt;Node18 -->
<g id="edge21_Node000016_Node000018" class="edge">
<title>Node16&#45;&gt;Node18</title>
<g id="a_edge21_Node000016_Node000018"><a xlink:title=" ">
<path fill="none" stroke="#63b8ff" d="M566.83,-175.75C566.7,-168.8 566.52,-158.85 566.35,-150.13"/>
<polygon fill="#63b8ff" stroke="#63b8ff" points="569.85,-150.02 566.16,-140.09 562.85,-150.15 569.85,-150.02"/>
</a>
</g>
</g>
<!-- Node19 -->
<g id="Node000019" class="node">
<title>Node19</title>
<g id="a_Node000019"><a xlink:title=" ">
<polygon fill="#e0e0e0" stroke="#999999" points="747.5,-79.5 640.5,-79.5 640.5,-60.5 747.5,-60.5 747.5,-79.5"/>
<text text-anchor="middle" x="694" y="-67.5" font-family="Helvetica,sans-Serif" font-size="10.00">odp/api/abi/align.h</text>
</a>
</g>
</g>
<!-- Node18&#45;&gt;Node19 -->
<g id="edge22_Node000018_Node000019" class="edge">
<title>Node18&#45;&gt;Node19</title>
<g id="a_edge22_Node000018_Node000019"><a xlink:title=" ">
<path fill="none" stroke="#63b8ff" d="M584.61,-120.99C606.04,-111.2 641.44,-95.02 666.15,-83.73"/>
<polygon fill="#63b8ff" stroke="#63b8ff" points="667.72,-86.86 675.37,-79.52 664.82,-80.49 667.72,-86.86"/>
</a>
</g>
</g>
<!-- Node20 -->
<g id="Node000020" class="node">
<title>Node20</title>
<g id="a_Node000020"><a xlink:href="spec_2align_8h.html" target="_top" xlink:title="ODP alignments.">
<polygon fill="white" stroke="#666666" points="622,-79.5 508,-79.5 508,-60.5 622,-60.5 622,-79.5"/>
<text text-anchor="middle" x="565" y="-67.5" font-family="Helvetica,sans-Serif" font-size="10.00">odp/api/spec/align.h</text>
</a>
</g>
</g>
<!-- Node18&#45;&gt;Node20 -->
<g id="edge23_Node000018_Node000020" class="edge">
<title>Node18&#45;&gt;Node20</title>
<g id="a_edge23_Node000018_Node000020"><a xlink:title=" ">
<path fill="none" stroke="#63b8ff" d="M565.85,-120.87C565.71,-112.75 565.5,-100.31 565.32,-89.89"/>
<polygon fill="#63b8ff" stroke="#63b8ff" points="568.82,-89.61 565.15,-79.67 561.82,-89.73 568.82,-89.61"/>
</a>
</g>
</g>
<!-- Node20&#45;&gt;Node2 -->
<g id="edge24_Node000020_Node000002" class="edge">
<title>Node20&#45;&gt;Node2</title>
<g id="a_edge24_Node000020_Node000002"><a xlink:title=" ">
<path fill="none" stroke="#63b8ff" d="M603.97,-60.49C651.6,-50.1 732.25,-32.49 784.03,-21.19"/>
<polygon fill="#63b8ff" stroke="#63b8ff" points="784.96,-24.57 793.98,-19.02 783.47,-17.73 784.96,-24.57"/>
</a>
</g>
</g>
<!-- Node20&#45;&gt;Node13 -->
<g id="edge25_Node000020_Node000013" class="edge">
<title>Node20&#45;&gt;Node13</title>
<g id="a_edge25_Node000020_Node000013"><a xlink:title=" ">
<path fill="none" stroke="#63b8ff" d="M525.74,-60.45C516.65,-58.57 507,-56.64 498,-55 423.67,-41.42 337.92,-28.34 280.26,-19.91"/>
<polygon fill="#63b8ff" stroke="#63b8ff" points="280.58,-16.42 270.18,-18.45 279.57,-23.35 280.58,-16.42"/>
</a>
</g>
</g>
<!-- Node22 -->
<g id="Node000022" class="node">
<title>Node22</title>
<g id="a_Node000022"><a xlink:title=" ">
<polygon fill="#e0e0e0" stroke="#999999" points="758.5,-448 641.5,-448 641.5,-418 758.5,-418 758.5,-448"/>
<text text-anchor="start" x="649.5" y="-436" font-family="Helvetica,sans-Serif" font-size="10.00">odp/api/abi/schedule</text>
<text text-anchor="middle" x="700" y="-425" font-family="Helvetica,sans-Serif" font-size="10.00">_types.h</text>
</a>
</g>
</g>
<!-- Node21&#45;&gt;Node22 -->
<g id="edge29_Node000021_Node000022" class="edge">
<title>Node21&#45;&gt;Node22</title>
<g id="a_edge29_Node000021_Node000022"><a xlink:title=" ">
<path fill="none" stroke="#63b8ff" d="M583.78,-483.99C603.09,-475.68 633.1,-462.78 657.79,-452.16"/>
<polygon fill="#63b8ff" stroke="#63b8ff" points="659.5,-455.23 667.3,-448.06 656.73,-448.8 659.5,-455.23"/>
</a>
</g>
</g>
<!-- Node23 -->
<g id="Node000023" class="node">
<title>Node23</title>
<g id="a_Node000023"><a xlink:href="spec_2schedule__types_8h.html" target="_top" xlink:title="ODP schedule types.">
<polygon fill="white" stroke="#666666" points="623.5,-448 498.5,-448 498.5,-418 623.5,-418 623.5,-448"/>
<text text-anchor="start" x="506.5" y="-436" font-family="Helvetica,sans-Serif" font-size="10.00">odp/api/spec/schedule</text>
<text text-anchor="middle" x="561" y="-425" font-family="Helvetica,sans-Serif" font-size="10.00">_types.h</text>
</a>
</g>
</g>
<!-- Node21&#45;&gt;Node23 -->
<g id="edge30_Node000021_Node000023" class="edge">
<title>Node21&#45;&gt;Node23</title>
<g id="a_edge30_Node000021_Node000023"><a xlink:title=" ">
<path fill="none" stroke="#63b8ff" d="M563.56,-483.87C563.21,-477.11 562.71,-467.35 562.24,-458.26"/>
<polygon fill="#63b8ff" stroke="#63b8ff" points="565.73,-457.92 561.72,-448.11 558.74,-458.28 565.73,-457.92"/>
</a>
</g>
</g>
<!-- Node23&#45;&gt;Node2 -->
<g id="edge31_Node000023_Node000002" class="edge">
<title>Node23&#45;&gt;Node2</title>
<g id="a_edge31_Node000023_Node000002"><a xlink:title=" ">
<path fill="none" stroke="#63b8ff" d="M609.9,-417.95C701.55,-390.93 890,-331.75 890,-302 890,-302 890,-302 890,-129.5 890,-89.64 863.66,-48.98 846.79,-27.03"/>
<polygon fill="#63b8ff" stroke="#63b8ff" points="849.42,-24.71 840.45,-19.07 843.95,-29.07 849.42,-24.71"/>
</a>
</g>
</g>
<!-- Node23&#45;&gt;Node6 -->
<g id="edge32_Node000023_Node000006" class="edge">
<title>Node23&#45;&gt;Node6</title>
<g id="a_edge32_Node000023_Node000006"><a xlink:title=" ">
<path fill="none" stroke="#63b8ff" d="M539.92,-417.8C526.88,-409.01 509.95,-397.61 495.58,-387.93"/>
<polygon fill="#63b8ff" stroke="#63b8ff" points="497.27,-384.85 487.02,-382.16 493.36,-390.65 497.27,-384.85"/>
</a>
</g>
</g>
<!-- Node23&#45;&gt;Node13 -->
<g id="edge40_Node000023_Node000013" class="edge">
<title>Node23&#45;&gt;Node13</title>
<g id="a_edge40_Node000023_Node000013"><a xlink:title=" ">
<path fill="none" stroke="#63b8ff" d="M498.2,-425.45C384.58,-412.17 152.19,-377.95 104,-316 84.11,-290.42 -1.23,-252.61 133,-55 143,-40.27 159.56,-29.95 175.1,-22.98"/>
<polygon fill="#63b8ff" stroke="#63b8ff" points="176.67,-26.12 184.58,-19.07 174,-19.65 176.67,-26.12"/>
</a>
</g>
</g>
<!-- Node23&#45;&gt;Node14 -->
<g id="edge33_Node000023_Node000014" class="edge">
<title>Node23&#45;&gt;Node14</title>
<g id="a_edge33_Node000023_Node000014"><a xlink:title=" ">
<path fill="none" stroke="#63b8ff" d="M558.54,-417.7C554.5,-389.24 549.74,-324.88 581,-286 594.68,-268.98 615.51,-258.48 636.04,-251.98"/>
<polygon fill="#63b8ff" stroke="#63b8ff" points="637.11,-255.32 645.75,-249.19 635.17,-248.59 637.11,-255.32"/>
</a>
</g>
</g>
<!-- Node24 -->
<g id="Node000024" class="node">
<title>Node24</title>
<g id="a_Node000024"><a xlink:href="thrmask_8h.html" target="_top" xlink:title="ODP thread masks.">
<polygon fill="white" stroke="#666666" points="707.5,-376.5 602.5,-376.5 602.5,-357.5 707.5,-357.5 707.5,-376.5"/>
<text text-anchor="middle" x="655" y="-364.5" font-family="Helvetica,sans-Serif" font-size="10.00">odp/api/thrmask.h</text>
</a>
</g>
</g>
<!-- Node23&#45;&gt;Node24 -->
<g id="edge34_Node000023_Node000024" class="edge">
<title>Node23&#45;&gt;Node24</title>
<g id="a_edge34_Node000023_Node000024"><a xlink:title=" ">
<path fill="none" stroke="#63b8ff" d="M581.86,-417.8C597.32,-407.27 618.32,-392.97 633.85,-382.4"/>
<polygon fill="#63b8ff" stroke="#63b8ff" points="635.99,-385.18 642.28,-376.66 632.05,-379.39 635.99,-385.18"/>
</a>
</g>
</g>
<!-- Node25 -->
<g id="Node000025" class="node">
<title>Node25</title>
<g id="a_Node000025"><a xlink:title=" ">
<polygon fill="#e0e0e0" stroke="#999999" points="861.5,-310.5 738.5,-310.5 738.5,-291.5 861.5,-291.5 861.5,-310.5"/>
<text text-anchor="middle" x="800" y="-298.5" font-family="Helvetica,sans-Serif" font-size="10.00">odp/api/abi/thrmask.h</text>
</a>
</g>
</g>
<!-- Node24&#45;&gt;Node25 -->
<g id="edge35_Node000024_Node000025" class="edge">
<title>Node24&#45;&gt;Node25</title>
<g id="a_edge35_Node000024_Node000025"><a xlink:title=" ">
<path fill="none" stroke="#63b8ff" d="M674.56,-357.37C699.31,-346.44 742.17,-327.52 770.81,-314.88"/>
<polygon fill="#63b8ff" stroke="#63b8ff" points="772.56,-317.94 780.29,-310.7 769.73,-311.54 772.56,-317.94"/>
</a>
</g>
</g>
<!-- Node26 -->
<g id="Node000026" class="node">
<title>Node26</title>
<g id="a_Node000026"><a xlink:href="spec_2thrmask_8h.html" target="_top" xlink:title="ODP thread masks.">
<polygon fill="white" stroke="#666666" points="720.5,-310.5 589.5,-310.5 589.5,-291.5 720.5,-291.5 720.5,-310.5"/>
<text text-anchor="middle" x="655" y="-298.5" font-family="Helvetica,sans-Serif" font-size="10.00">odp/api/spec/thrmask.h</text>
</a>
</g>
</g>
<!-- Node24&#45;&gt;Node26 -->
<g id="edge36_Node000024_Node000026" class="edge">
<title>Node24&#45;&gt;Node26</title>
<g id="a_edge36_Node000024_Node000026"><a xlink:title=" ">
<path fill="none" stroke="#63b8ff" d="M655,-357.37C655,-348.16 655,-333.29 655,-321.27"/>
<polygon fill="#63b8ff" stroke="#63b8ff" points="658.5,-320.91 655,-310.91 651.5,-320.91 658.5,-320.91"/>
</a>
</g>
</g>
<!-- Node26&#45;&gt;Node2 -->
<g id="edge37_Node000026_Node000002" class="edge">
<title>Node26&#45;&gt;Node2</title>
<g id="a_edge37_Node000026_Node000002"><a xlink:title=" ">
<path fill="none" stroke="#63b8ff" d="M679.95,-291.47C732.96,-272.57 852,-225.77 852,-186.5 852,-186.5 852,-186.5 852,-129.5 852,-93.54 843.44,-52.23 837.81,-28.96"/>
<polygon fill="#63b8ff" stroke="#63b8ff" points="841.16,-27.93 835.33,-19.09 834.37,-29.64 841.16,-27.93"/>
</a>
</g>
</g>
<!-- Node26&#45;&gt;Node13 -->
<g id="edge39_Node000026_Node000013" class="edge">
<title>Node26&#45;&gt;Node13</title>
<g id="a_edge39_Node000026_Node000013"><a xlink:title=" ">
<path fill="none" stroke="#63b8ff" d="M589.25,-291.74C490.16,-277.42 314,-243.9 314,-186.5 314,-186.5 314,-186.5 314,-129.5 314,-95.22 315.09,-82.03 294,-55 282.83,-40.68 265.68,-30.28 250.13,-23.15"/>
<polygon fill="#63b8ff" stroke="#63b8ff" points="251.29,-19.84 240.72,-19.13 248.54,-26.28 251.29,-19.84"/>
</a>
</g>
</g>
<!-- Node26&#45;&gt;Node14 -->
<g id="edge38_Node000026_Node000014" class="edge">
<title>Node26&#45;&gt;Node14</title>
<g id="a_edge38_Node000026_Node000014"><a xlink:title=" ">
<path fill="none" stroke="#63b8ff" d="M661.94,-291.37C668.95,-282.64 679.96,-268.93 688.67,-258.09"/>
<polygon fill="#63b8ff" stroke="#63b8ff" points="691.5,-260.16 695.04,-250.17 686.04,-255.77 691.5,-260.16"/>
</a>
</g>
</g>
</g>
</svg>
