<?xml version="1.0" encoding="UTF-8" standalone="no"?>
<!DOCTYPE svg PUBLIC "-//W3C//DTD SVG 1.1//EN"
 "http://www.w3.org/Graphics/SVG/1.1/DTD/svg11.dtd">
<!-- Generated by graphviz version 2.43.0 (0)
 -->
<!-- Title: packet_types.h Pages: 1 -->
<svg width="1274pt" height="687pt"
 viewBox="0.00 0.00 1274.00 687.00" xmlns="http://www.w3.org/2000/svg" xmlns:xlink="http://www.w3.org/1999/xlink">
<g id="graph0" class="graph" transform="scale(1 1) rotate(0) translate(4 683)">
<title>packet_types.h</title>
<!-- Node1 -->
<g id="Node000001" class="node">
<title>Node1</title>
<g id="a_Node000001"><a xlink:title="ODP packet types.">
<polygon fill="#999999" stroke="#666666" points="269,-679 179,-679 179,-660 269,-660 269,-679"/>
<text text-anchor="middle" x="224" y="-667" font-family="Helvetica,sans-Serif" font-size="10.00">packet_types.h</text>
</a>
</g>
</g>
<!-- Node2 -->
<g id="Node000002" class="node">
<title>Node2</title>
<g id="a_Node000002"><a xlink:title=" ">
<polygon fill="#e0e0e0" stroke="#999999" points="398.5,-19 277.5,-19 277.5,0 398.5,0 398.5,-19"/>
<text text-anchor="middle" x="338" y="-7" font-family="Helvetica,sans-Serif" font-size="10.00">odp/visibility_begin.h</text>
</a>
</g>
</g>
<!-- Node1&#45;&gt;Node2 -->
<g id="edge1_Node000001_Node000002" class="edge">
<title>Node1&#45;&gt;Node2</title>
<g id="a_edge1_Node000001_Node000002"><a xlink:title=" ">
<path fill="none" stroke="#63b8ff" d="M178.94,-665.45C113.53,-658.3 0,-634.45 0,-555 0,-555 0,-555 0,-129.5 0,-88.34 19.81,-76.35 55,-55 89.7,-33.94 195.2,-21.65 267.11,-15.5"/>
<polygon fill="#63b8ff" stroke="#63b8ff" points="267.78,-18.96 277.46,-14.64 267.2,-11.98 267.78,-18.96"/>
</a>
</g>
</g>
<!-- Node3 -->
<g id="Node000003" class="node">
<title>Node3</title>
<g id="a_Node000003"><a xlink:href="deprecated_8h.html" target="_top" xlink:title="Control deprecated API definitions.">
<polygon fill="white" stroke="#666666" points="283.5,-624 164.5,-624 164.5,-605 283.5,-605 283.5,-624"/>
<text text-anchor="middle" x="224" y="-612" font-family="Helvetica,sans-Serif" font-size="10.00">odp/api/deprecated.h</text>
</a>
</g>
</g>
<!-- Node1&#45;&gt;Node3 -->
<g id="edge2_Node000001_Node000003" class="edge">
<title>Node1&#45;&gt;Node3</title>
<g id="a_edge2_Node000001_Node000003"><a xlink:title=" ">
<path fill="none" stroke="#63b8ff" d="M224,-659.75C224,-652.8 224,-642.85 224,-634.13"/>
<polygon fill="#63b8ff" stroke="#63b8ff" points="227.5,-634.09 224,-624.09 220.5,-634.09 227.5,-634.09"/>
</a>
</g>
</g>
<!-- Node5 -->
<g id="Node000005" class="node">
<title>Node5</title>
<g id="a_Node000005"><a xlink:title=" ">
<polygon fill="#e0e0e0" stroke="#999999" points="1131,-19 1019,-19 1019,0 1131,0 1131,-19"/>
<text text-anchor="middle" x="1075" y="-7" font-family="Helvetica,sans-Serif" font-size="10.00">odp/visibility_end.h</text>
</a>
</g>
</g>
<!-- Node1&#45;&gt;Node5 -->
<g id="edge52_Node000001_Node000005" class="edge">
<title>Node1&#45;&gt;Node5</title>
<g id="a_edge52_Node000001_Node000005"><a xlink:title=" ">
<path fill="none" stroke="#63b8ff" d="M269.11,-668.4C469.11,-667.36 1266,-656.85 1266,-555 1266,-555 1266,-555 1266,-129.5 1266,-66.48 1190.16,-35.63 1134.06,-21.43"/>
<polygon fill="#63b8ff" stroke="#63b8ff" points="1134.73,-17.99 1124.19,-19.05 1133.09,-24.8 1134.73,-17.99"/>
</a>
</g>
</g>
<!-- Node6 -->
<g id="Node000006" class="node">
<title>Node6</title>
<g id="a_Node000006"><a xlink:href="proto__stats__types_8h.html" target="_top" xlink:title="ODP proto stats types.">
<polygon fill="white" stroke="#666666" points="191,-382 81,-382 81,-352 191,-352 191,-382"/>
<text text-anchor="start" x="89" y="-370" font-family="Helvetica,sans-Serif" font-size="10.00">odp/api/proto_stats</text>
<text text-anchor="middle" x="136" y="-359" font-family="Helvetica,sans-Serif" font-size="10.00">_types.h</text>
</a>
</g>
</g>
<!-- Node1&#45;&gt;Node6 -->
<g id="edge6_Node000001_Node000006" class="edge">
<title>Node1&#45;&gt;Node6</title>
<g id="a_edge6_Node000001_Node000006"><a xlink:title=" ">
<path fill="none" stroke="#63b8ff" d="M202.91,-659.9C187.46,-652.56 167.15,-640.55 155,-624 136.17,-598.36 136,-586.81 136,-555 136,-555 136,-555 136,-492.5 136,-457.67 136,-417.35 136,-392.26"/>
<polygon fill="#63b8ff" stroke="#63b8ff" points="139.5,-392.19 136,-382.19 132.5,-392.19 139.5,-392.19"/>
</a>
</g>
</g>
<!-- Node16 -->
<g id="Node000016" class="node">
<title>Node16</title>
<g id="a_Node000016"><a xlink:href="queue__types_8h.html" target="_top" xlink:title="ODP queue.">
<polygon fill="white" stroke="#666666" points="711.5,-624 584.5,-624 584.5,-605 711.5,-605 711.5,-624"/>
<text text-anchor="middle" x="648" y="-612" font-family="Helvetica,sans-Serif" font-size="10.00">odp/api/queue_types.h</text>
</a>
</g>
</g>
<!-- Node1&#45;&gt;Node16 -->
<g id="edge22_Node000001_Node000016" class="edge">
<title>Node1&#45;&gt;Node16</title>
<g id="a_edge22_Node000001_Node000016"><a xlink:title=" ">
<path fill="none" stroke="#63b8ff" d="M269.38,-662.83C342.33,-653.71 486.39,-635.7 574.26,-624.72"/>
<polygon fill="#63b8ff" stroke="#63b8ff" points="574.93,-628.16 584.42,-623.45 574.07,-621.21 574.93,-628.16"/>
</a>
</g>
</g>
<!-- Node4 -->
<g id="Node000004" class="node">
<title>Node4</title>
<g id="a_Node000004"><a xlink:href="spec_2deprecated_8h.html" target="_top" xlink:title="Macro for deprecated API definitions.">
<polygon fill="white" stroke="#666666" points="290.5,-79.5 145.5,-79.5 145.5,-60.5 290.5,-60.5 290.5,-79.5"/>
<text text-anchor="middle" x="218" y="-67.5" font-family="Helvetica,sans-Serif" font-size="10.00">odp/api/spec/deprecated.h</text>
</a>
</g>
</g>
<!-- Node3&#45;&gt;Node4 -->
<g id="edge3_Node000003_Node000004" class="edge">
<title>Node3&#45;&gt;Node4</title>
<g id="a_edge3_Node000003_Node000004"><a xlink:title=" ">
<path fill="none" stroke="#63b8ff" d="M223.75,-604.84C223.22,-585.21 222,-535.83 222,-494.5 222,-494.5 222,-494.5 222,-366 222,-261.65 219.47,-136.55 218.43,-89.82"/>
<polygon fill="#63b8ff" stroke="#63b8ff" points="221.93,-89.61 218.2,-79.69 214.93,-89.76 221.93,-89.61"/>
</a>
</g>
</g>
<!-- Node4&#45;&gt;Node2 -->
<g id="edge4_Node000004_Node000002" class="edge">
<title>Node4&#45;&gt;Node2</title>
<g id="a_edge4_Node000004_Node000002"><a xlink:title=" ">
<path fill="none" stroke="#63b8ff" d="M235.45,-60.49C255.36,-50.79 288.14,-34.81 311.27,-23.53"/>
<polygon fill="#63b8ff" stroke="#63b8ff" points="313.07,-26.54 320.53,-19.02 310.01,-20.25 313.07,-26.54"/>
</a>
</g>
</g>
<!-- Node4&#45;&gt;Node5 -->
<g id="edge5_Node000004_Node000005" class="edge">
<title>Node4&#45;&gt;Node5</title>
<g id="a_edge5_Node000004_Node000005"><a xlink:title=" ">
<path fill="none" stroke="#63b8ff" d="M290.7,-64.04C454.62,-52.85 851.02,-25.79 1008.7,-15.03"/>
<polygon fill="#63b8ff" stroke="#63b8ff" points="1008.99,-18.51 1018.73,-14.34 1008.52,-11.53 1008.99,-18.51"/>
</a>
</g>
</g>
<!-- Node7 -->
<g id="Node000007" class="node">
<title>Node7</title>
<g id="a_Node000007"><a xlink:title=" ">
<polygon fill="#e0e0e0" stroke="#999999" points="194,-316 66,-316 66,-286 194,-286 194,-316"/>
<text text-anchor="start" x="74" y="-304" font-family="Helvetica,sans-Serif" font-size="10.00">odp/api/abi/proto_stats</text>
<text text-anchor="middle" x="130" y="-293" font-family="Helvetica,sans-Serif" font-size="10.00">_types.h</text>
</a>
</g>
</g>
<!-- Node6&#45;&gt;Node7 -->
<g id="edge7_Node000006_Node000007" class="edge">
<title>Node6&#45;&gt;Node7</title>
<g id="a_edge7_Node000006_Node000007"><a xlink:title=" ">
<path fill="none" stroke="#63b8ff" d="M134.67,-351.8C133.96,-344.26 133.07,-334.78 132.26,-326.13"/>
<polygon fill="#63b8ff" stroke="#63b8ff" points="135.75,-325.79 131.33,-316.16 128.78,-326.45 135.75,-325.79"/>
</a>
</g>
</g>
<!-- Node8 -->
<g id="Node000008" class="node">
<title>Node8</title>
<g id="a_Node000008"><a xlink:href="spec_2proto__stats__types_8h.html" target="_top" xlink:title="ODP proto stats types.">
<polygon fill="white" stroke="#666666" points="395.5,-316 288.5,-316 288.5,-286 395.5,-286 395.5,-316"/>
<text text-anchor="start" x="296.5" y="-304" font-family="Helvetica,sans-Serif" font-size="10.00">odp/api/spec/proto</text>
<text text-anchor="middle" x="342" y="-293" font-family="Helvetica,sans-Serif" font-size="10.00">_stats_types.h</text>
</a>
</g>
</g>
<!-- Node6&#45;&gt;Node8 -->
<g id="edge8_Node000006_Node000008" class="edge">
<title>Node6&#45;&gt;Node8</title>
<g id="a_edge8_Node000006_Node000008"><a xlink:title=" ">
<path fill="none" stroke="#63b8ff" d="M181.21,-351.95C212.33,-342.28 253.87,-329.38 286.93,-319.11"/>
<polygon fill="#63b8ff" stroke="#63b8ff" points="288.39,-322.32 296.9,-316.01 286.31,-315.64 288.39,-322.32"/>
</a>
</g>
</g>
<!-- Node8&#45;&gt;Node2 -->
<g id="edge9_Node000008_Node000002" class="edge">
<title>Node8&#45;&gt;Node2</title>
<g id="a_edge9_Node000008_Node000002"><a xlink:title=" ">
<path fill="none" stroke="#63b8ff" d="M313.55,-285.96C241.81,-248.75 64.2,-144.34 136,-55 152.42,-34.56 215.83,-22.96 267.28,-16.77"/>
<polygon fill="#63b8ff" stroke="#63b8ff" points="267.86,-20.22 277.39,-15.6 267.05,-13.27 267.86,-20.22"/>
</a>
</g>
</g>
<!-- Node8&#45;&gt;Node5 -->
<g id="edge21_Node000008_Node000005" class="edge">
<title>Node8&#45;&gt;Node5</title>
<g id="a_edge21_Node000008_Node000005"><a xlink:title=" ">
<path fill="none" stroke="#63b8ff" d="M371.67,-285.83C439.03,-253.96 609.06,-175.19 756,-121 807.05,-102.18 824.67,-109.98 873,-85 892.43,-74.96 892.42,-64.73 912,-55 944.12,-39.04 982.74,-28.18 1014.33,-21.18"/>
<polygon fill="#63b8ff" stroke="#63b8ff" points="1015.27,-24.56 1024.32,-19.04 1013.8,-17.71 1015.27,-24.56"/>
</a>
</g>
</g>
<!-- Node9 -->
<g id="Node000009" class="node">
<title>Node9</title>
<g id="a_Node000009"><a xlink:href="std__types_8h.html" target="_top" xlink:title="Standard C language types and definitions for ODP.">
<polygon fill="white" stroke="#666666" points="875,-250 763,-250 763,-231 875,-231 875,-250"/>
<text text-anchor="middle" x="819" y="-238" font-family="Helvetica,sans-Serif" font-size="10.00">odp/api/std_types.h</text>
</a>
</g>
</g>
<!-- Node8&#45;&gt;Node9 -->
<g id="edge10_Node000008_Node000009" class="edge">
<title>Node8&#45;&gt;Node9</title>
<g id="a_edge10_Node000008_Node000009"><a xlink:title=" ">
<path fill="none" stroke="#63b8ff" d="M395.54,-287.68C398.73,-287.07 401.9,-286.51 405,-286 526.93,-265.96 670.62,-252.84 752.64,-246.34"/>
<polygon fill="#63b8ff" stroke="#63b8ff" points="753.12,-249.81 762.82,-245.54 752.58,-242.83 753.12,-249.81"/>
</a>
</g>
</g>
<!-- Node10 -->
<g id="Node000010" class="node">
<title>Node10</title>
<g id="a_Node000010"><a xlink:title=" ">
<polygon fill="#e0e0e0" stroke="#999999" points="1029,-195 899,-195 899,-176 1029,-176 1029,-195"/>
<text text-anchor="middle" x="964" y="-183" font-family="Helvetica,sans-Serif" font-size="10.00">odp/api/abi/std_types.h</text>
</a>
</g>
</g>
<!-- Node9&#45;&gt;Node10 -->
<g id="edge11_Node000009_Node000010" class="edge">
<title>Node9&#45;&gt;Node10</title>
<g id="a_edge11_Node000009_Node000010"><a xlink:title=" ">
<path fill="none" stroke="#63b8ff" d="M842.3,-230.98C866.25,-222.23 903.78,-208.51 930.83,-198.62"/>
<polygon fill="#63b8ff" stroke="#63b8ff" points="932.09,-201.89 940.28,-195.17 929.69,-195.32 932.09,-201.89"/>
</a>
</g>
</g>
<!-- Node11 -->
<g id="Node000011" class="node">
<title>Node11</title>
<g id="a_Node000011"><a xlink:href="spec_2std__types_8h.html" target="_top" xlink:title="Common types and definitions for ODP API files.">
<polygon fill="white" stroke="#666666" points="880.5,-195 743.5,-195 743.5,-176 880.5,-176 880.5,-195"/>
<text text-anchor="middle" x="812" y="-183" font-family="Helvetica,sans-Serif" font-size="10.00">odp/api/spec/std_types.h</text>
</a>
</g>
</g>
<!-- Node9&#45;&gt;Node11 -->
<g id="edge12_Node000009_Node000011" class="edge">
<title>Node9&#45;&gt;Node11</title>
<g id="a_edge12_Node000009_Node000011"><a xlink:title=" ">
<path fill="none" stroke="#63b8ff" d="M817.84,-230.75C816.93,-223.8 815.61,-213.85 814.46,-205.13"/>
<polygon fill="#63b8ff" stroke="#63b8ff" points="817.91,-204.54 813.13,-195.09 810.97,-205.46 817.91,-204.54"/>
</a>
</g>
</g>
<!-- Node11&#45;&gt;Node2 -->
<g id="edge13_Node000011_Node000002" class="edge">
<title>Node11&#45;&gt;Node2</title>
<g id="a_edge13_Node000011_Node000002"><a xlink:title=" ">
<path fill="none" stroke="#63b8ff" d="M743.37,-182.67C654.95,-179.15 507.26,-169 462,-140 424.52,-115.98 440.44,-86.52 409,-55 396.48,-42.45 379.79,-31.76 365.73,-24.01"/>
<polygon fill="#63b8ff" stroke="#63b8ff" points="366.99,-20.71 356.51,-19.12 363.71,-26.9 366.99,-20.71"/>
</a>
</g>
</g>
<!-- Node11&#45;&gt;Node5 -->
<g id="edge20_Node000011_Node000005" class="edge">
<title>Node11&#45;&gt;Node5</title>
<g id="a_edge20_Node000011_Node000005"><a xlink:title=" ">
<path fill="none" stroke="#63b8ff" d="M853.9,-175.9C903.61,-163.7 986.14,-136.82 1037,-85 1052.68,-69.02 1063.26,-45.26 1069.19,-28.89"/>
<polygon fill="#63b8ff" stroke="#63b8ff" points="1072.53,-29.95 1072.43,-19.35 1065.9,-27.7 1072.53,-29.95"/>
</a>
</g>
</g>
<!-- Node12 -->
<g id="Node000012" class="node">
<title>Node12</title>
<g id="a_Node000012"><a xlink:title=" ">
<polygon fill="#e0e0e0" stroke="#999999" points="924.5,-140 871.5,-140 871.5,-121 924.5,-121 924.5,-140"/>
<text text-anchor="middle" x="898" y="-128" font-family="Helvetica,sans-Serif" font-size="10.00">stdint.h</text>
</a>
</g>
</g>
<!-- Node11&#45;&gt;Node12 -->
<g id="edge14_Node000011_Node000012" class="edge">
<title>Node11&#45;&gt;Node12</title>
<g id="a_edge14_Node000011_Node000012"><a xlink:title=" ">
<path fill="none" stroke="#63b8ff" d="M825.82,-175.98C839.15,-167.77 859.58,-155.18 875.31,-145.49"/>
<polygon fill="#63b8ff" stroke="#63b8ff" points="877.25,-148.4 883.93,-140.17 873.58,-142.44 877.25,-148.4"/>
</a>
</g>
</g>
<!-- Node13 -->
<g id="Node000013" class="node">
<title>Node13</title>
<g id="a_Node000013"><a xlink:href="align_8h.html" target="_top" xlink:title="ODP alignments.">
<polygon fill="white" stroke="#666666" points="853.5,-140 764.5,-140 764.5,-121 853.5,-121 853.5,-140"/>
<text text-anchor="middle" x="809" y="-128" font-family="Helvetica,sans-Serif" font-size="10.00">odp/api/align.h</text>
</a>
</g>
</g>
<!-- Node11&#45;&gt;Node13 -->
<g id="edge15_Node000011_Node000013" class="edge">
<title>Node11&#45;&gt;Node13</title>
<g id="a_edge15_Node000011_Node000013"><a xlink:title=" ">
<path fill="none" stroke="#63b8ff" d="M811.5,-175.75C811.11,-168.8 810.55,-158.85 810.05,-150.13"/>
<polygon fill="#63b8ff" stroke="#63b8ff" points="813.55,-149.88 809.49,-140.09 806.56,-150.27 813.55,-149.88"/>
</a>
</g>
</g>
<!-- Node14 -->
<g id="Node000014" class="node">
<title>Node14</title>
<g id="a_Node000014"><a xlink:title=" ">
<polygon fill="#e0e0e0" stroke="#999999" points="1027.5,-79.5 920.5,-79.5 920.5,-60.5 1027.5,-60.5 1027.5,-79.5"/>
<text text-anchor="middle" x="974" y="-67.5" font-family="Helvetica,sans-Serif" font-size="10.00">odp/api/abi/align.h</text>
</a>
</g>
</g>
<!-- Node13&#45;&gt;Node14 -->
<g id="edge16_Node000013_Node000014" class="edge">
<title>Node13&#45;&gt;Node14</title>
<g id="a_edge16_Node000013_Node000014"><a xlink:title=" ">
<path fill="none" stroke="#63b8ff" d="M832.99,-120.99C861.22,-110.99 908.28,-94.3 940.19,-82.99"/>
<polygon fill="#63b8ff" stroke="#63b8ff" points="941.72,-86.16 949.98,-79.52 939.38,-79.56 941.72,-86.16"/>
</a>
</g>
</g>
<!-- Node15 -->
<g id="Node000015" class="node">
<title>Node15</title>
<g id="a_Node000015"><a xlink:href="spec_2align_8h.html" target="_top" xlink:title="ODP alignments.">
<polygon fill="white" stroke="#666666" points="864,-79.5 750,-79.5 750,-60.5 864,-60.5 864,-79.5"/>
<text text-anchor="middle" x="807" y="-67.5" font-family="Helvetica,sans-Serif" font-size="10.00">odp/api/spec/align.h</text>
</a>
</g>
</g>
<!-- Node13&#45;&gt;Node15 -->
<g id="edge17_Node000013_Node000015" class="edge">
<title>Node13&#45;&gt;Node15</title>
<g id="a_edge17_Node000013_Node000015"><a xlink:title=" ">
<path fill="none" stroke="#63b8ff" d="M808.7,-120.87C808.43,-112.75 808,-100.31 807.65,-89.89"/>
<polygon fill="#63b8ff" stroke="#63b8ff" points="811.14,-89.54 807.3,-79.67 804.14,-89.78 811.14,-89.54"/>
</a>
</g>
</g>
<!-- Node15&#45;&gt;Node2 -->
<g id="edge18_Node000015_Node000002" class="edge">
<title>Node15&#45;&gt;Node2</title>
<g id="a_edge18_Node000015_Node000002"><a xlink:title=" ">
<path fill="none" stroke="#63b8ff" d="M769.77,-60.43C760.41,-58.46 750.37,-56.51 741,-55 625.2,-36.37 489.42,-23.14 408.72,-16.17"/>
<polygon fill="#63b8ff" stroke="#63b8ff" points="408.94,-12.68 398.68,-15.31 408.34,-19.65 408.94,-12.68"/>
</a>
</g>
</g>
<!-- Node15&#45;&gt;Node5 -->
<g id="edge19_Node000015_Node000005" class="edge">
<title>Node15&#45;&gt;Node5</title>
<g id="a_edge19_Node000015_Node000005"><a xlink:title=" ">
<path fill="none" stroke="#63b8ff" d="M845.97,-60.49C893.6,-50.1 974.25,-32.49 1026.03,-21.19"/>
<polygon fill="#63b8ff" stroke="#63b8ff" points="1026.96,-24.57 1035.98,-19.02 1025.47,-17.73 1026.96,-24.57"/>
</a>
</g>
</g>
<!-- Node17 -->
<g id="Node000017" class="node">
<title>Node17</title>
<g id="a_Node000017"><a xlink:title=" ">
<polygon fill="#e0e0e0" stroke="#999999" points="866.5,-563.5 721.5,-563.5 721.5,-544.5 866.5,-544.5 866.5,-563.5"/>
<text text-anchor="middle" x="794" y="-551.5" font-family="Helvetica,sans-Serif" font-size="10.00">odp/api/abi/queue_types.h</text>
</a>
</g>
</g>
<!-- Node16&#45;&gt;Node17 -->
<g id="edge23_Node000016_Node000017" class="edge">
<title>Node16&#45;&gt;Node17</title>
<g id="a_edge23_Node000016_Node000017"><a xlink:title=" ">
<path fill="none" stroke="#63b8ff" d="M669.23,-604.99C693.99,-595.07 735.12,-578.59 763.35,-567.28"/>
<polygon fill="#63b8ff" stroke="#63b8ff" points="764.76,-570.49 772.74,-563.52 762.16,-563.99 764.76,-570.49"/>
</a>
</g>
</g>
<!-- Node18 -->
<g id="Node000018" class="node">
<title>Node18</title>
<g id="a_Node000018"><a xlink:href="spec_2queue__types_8h.html" target="_top" xlink:title="ODP queue types.">
<polygon fill="white" stroke="#666666" points="703.5,-569 592.5,-569 592.5,-539 703.5,-539 703.5,-569"/>
<text text-anchor="start" x="600.5" y="-557" font-family="Helvetica,sans-Serif" font-size="10.00">odp/api/spec/queue</text>
<text text-anchor="middle" x="648" y="-546" font-family="Helvetica,sans-Serif" font-size="10.00">_types.h</text>
</a>
</g>
</g>
<!-- Node16&#45;&gt;Node18 -->
<g id="edge24_Node000016_Node000018" class="edge">
<title>Node16&#45;&gt;Node18</title>
<g id="a_edge24_Node000016_Node000018"><a xlink:title=" ">
<path fill="none" stroke="#63b8ff" d="M648,-604.87C648,-598.11 648,-588.35 648,-579.26"/>
<polygon fill="#63b8ff" stroke="#63b8ff" points="651.5,-579.11 648,-569.11 644.5,-579.11 651.5,-579.11"/>
</a>
</g>
</g>
<!-- Node18&#45;&gt;Node2 -->
<g id="edge25_Node000018_Node000002" class="edge">
<title>Node18&#45;&gt;Node2</title>
<g id="a_edge25_Node000018_Node000002"><a xlink:title=" ">
<path fill="none" stroke="#63b8ff" d="M592.25,-553.85C441.66,-554.66 38,-546.35 38,-434 38,-434 38,-434 38,-129.5 38,-80.91 74.79,-77.21 118,-55 164.3,-31.21 222.19,-20.13 266.96,-14.97"/>
<polygon fill="#63b8ff" stroke="#63b8ff" points="267.61,-18.42 277.18,-13.87 266.86,-11.46 267.61,-18.42"/>
</a>
</g>
</g>
<!-- Node18&#45;&gt;Node5 -->
<g id="edge51_Node000018_Node000005" class="edge">
<title>Node18&#45;&gt;Node5</title>
<g id="a_edge51_Node000018_Node000005"><a xlink:title=" ">
<path fill="none" stroke="#63b8ff" d="M703.65,-540.92C706.81,-540.26 709.95,-539.62 713,-539 827.47,-515.77 1228,-550.8 1228,-434 1228,-434 1228,-434 1228,-129.5 1228,-72.29 1160.51,-38.58 1115.18,-22.39"/>
<polygon fill="#63b8ff" stroke="#63b8ff" points="1116.19,-19.04 1105.59,-19.11 1113.92,-25.66 1116.19,-19.04"/>
</a>
</g>
</g>
<!-- Node19 -->
<g id="Node000019" class="node">
<title>Node19</title>
<g id="a_Node000019"><a xlink:href="event__vector__types_8h.html" target="_top" xlink:title="ODP event vector API type definitions.">
<polygon fill="white" stroke="#666666" points="707.5,-382 588.5,-382 588.5,-352 707.5,-352 707.5,-382"/>
<text text-anchor="start" x="596.5" y="-370" font-family="Helvetica,sans-Serif" font-size="10.00">odp/api/event_vector</text>
<text text-anchor="middle" x="648" y="-359" font-family="Helvetica,sans-Serif" font-size="10.00">_types.h</text>
</a>
</g>
</g>
<!-- Node18&#45;&gt;Node19 -->
<g id="edge26_Node000018_Node000019" class="edge">
<title>Node18&#45;&gt;Node19</title>
<g id="a_edge26_Node000018_Node000019"><a xlink:title=" ">
<path fill="none" stroke="#63b8ff" d="M648,-538.79C648,-507.3 648,-431.36 648,-392.22"/>
<polygon fill="#63b8ff" stroke="#63b8ff" points="651.5,-392 648,-382 644.5,-392 651.5,-392"/>
</a>
</g>
</g>
<!-- Node26 -->
<g id="Node000026" class="node">
<title>Node26</title>
<g id="a_Node000026"><a xlink:href="schedule__types_8h.html" target="_top" xlink:title="ODP schedule.">
<polygon fill="white" stroke="#666666" points="893,-503 753,-503 753,-484 893,-484 893,-503"/>
<text text-anchor="middle" x="823" y="-491" font-family="Helvetica,sans-Serif" font-size="10.00">odp/api/schedule_types.h</text>
</a>
</g>
</g>
<!-- Node18&#45;&gt;Node26 -->
<g id="edge38_Node000018_Node000026" class="edge">
<title>Node18&#45;&gt;Node26</title>
<g id="a_edge38_Node000018_Node000026"><a xlink:title=" ">
<path fill="none" stroke="#63b8ff" d="M689.92,-538.99C719.73,-529.02 759.33,-515.78 787.56,-506.35"/>
<polygon fill="#63b8ff" stroke="#63b8ff" points="789.04,-509.54 797.41,-503.05 786.82,-502.9 789.04,-509.54"/>
</a>
</g>
</g>
<!-- Node20 -->
<g id="Node000020" class="node">
<title>Node20</title>
<g id="a_Node000020"><a xlink:title=" ">
<polygon fill="#e0e0e0" stroke="#999999" points="832.5,-316 695.5,-316 695.5,-286 832.5,-286 832.5,-316"/>
<text text-anchor="start" x="703.5" y="-304" font-family="Helvetica,sans-Serif" font-size="10.00">odp/api/abi/event_vector</text>
<text text-anchor="middle" x="764" y="-293" font-family="Helvetica,sans-Serif" font-size="10.00">_types.h</text>
</a>
</g>
</g>
<!-- Node19&#45;&gt;Node20 -->
<g id="edge27_Node000019_Node000020" class="edge">
<title>Node19&#45;&gt;Node20</title>
<g id="a_edge27_Node000019_Node000020"><a xlink:title=" ">
<path fill="none" stroke="#63b8ff" d="M673.46,-351.95C689.93,-342.87 711.57,-330.93 729.57,-321"/>
<polygon fill="#63b8ff" stroke="#63b8ff" points="731.54,-323.91 738.6,-316.01 728.16,-317.78 731.54,-323.91"/>
</a>
</g>
</g>
<!-- Node21 -->
<g id="Node000021" class="node">
<title>Node21</title>
<g id="a_Node000021"><a xlink:title=" ">
<polygon fill="#e0e0e0" stroke="#999999" points="677,-310.5 541,-310.5 541,-291.5 677,-291.5 677,-310.5"/>
<text text-anchor="middle" x="609" y="-298.5" font-family="Helvetica,sans-Serif" font-size="10.00">odp/api/abi/pool_types.h</text>
</a>
</g>
</g>
<!-- Node19&#45;&gt;Node21 -->
<g id="edge28_Node000019_Node000021" class="edge">
<title>Node19&#45;&gt;Node21</title>
<g id="a_edge28_Node000019_Node000021"><a xlink:title=" ">
<path fill="none" stroke="#63b8ff" d="M639.34,-351.8C633.56,-342.31 625.92,-329.76 619.74,-319.63"/>
<polygon fill="#63b8ff" stroke="#63b8ff" points="622.58,-317.56 614.39,-310.84 616.6,-321.21 622.58,-317.56"/>
</a>
</g>
</g>
<!-- Node22 -->
<g id="Node000022" class="node">
<title>Node22</title>
<g id="a_Node000022"><a xlink:href="spec_2event__vector__types_8h.html" target="_top" xlink:title="ODP event vector API type definitions.">
<polygon fill="white" stroke="#666666" points="522.5,-316 413.5,-316 413.5,-286 522.5,-286 522.5,-316"/>
<text text-anchor="start" x="421.5" y="-304" font-family="Helvetica,sans-Serif" font-size="10.00">odp/api/spec/event</text>
<text text-anchor="middle" x="468" y="-293" font-family="Helvetica,sans-Serif" font-size="10.00">_vector_types.h</text>
</a>
</g>
</g>
<!-- Node19&#45;&gt;Node22 -->
<g id="edge29_Node000019_Node000022" class="edge">
<title>Node19&#45;&gt;Node22</title>
<g id="a_edge29_Node000019_Node000022"><a xlink:title=" ">
<path fill="none" stroke="#63b8ff" d="M608.5,-351.95C581.53,-342.37 545.63,-329.6 516.87,-319.37"/>
<polygon fill="#63b8ff" stroke="#63b8ff" points="518,-316.06 507.41,-316.01 515.66,-322.66 518,-316.06"/>
</a>
</g>
</g>
<!-- Node22&#45;&gt;Node2 -->
<g id="edge30_Node000022_Node000002" class="edge">
<title>Node22&#45;&gt;Node2</title>
<g id="a_edge30_Node000022_Node000002"><a xlink:title=" ">
<path fill="none" stroke="#63b8ff" d="M459.2,-285.87C442.4,-258.49 405.29,-195.98 381,-140 364.33,-101.57 350.17,-54.44 343.01,-28.97"/>
<polygon fill="#63b8ff" stroke="#63b8ff" points="346.34,-27.89 340.31,-19.18 339.6,-29.75 346.34,-27.89"/>
</a>
</g>
</g>
<!-- Node22&#45;&gt;Node5 -->
<g id="edge37_Node000022_Node000005" class="edge">
<title>Node22&#45;&gt;Node5</title>
<g id="a_edge37_Node000022_Node000005"><a xlink:title=" ">
<path fill="none" stroke="#63b8ff" d="M522.74,-287.6C525.86,-287.02 528.97,-286.49 532,-286 644.81,-267.95 962.93,-281.12 1038,-195 1079.65,-147.22 1079.42,-65.9 1076.87,-29.31"/>
<polygon fill="#63b8ff" stroke="#63b8ff" points="1080.34,-28.78 1076.01,-19.11 1073.36,-29.37 1080.34,-28.78"/>
</a>
</g>
</g>
<!-- Node22&#45;&gt;Node9 -->
<g id="edge36_Node000022_Node000009" class="edge">
<title>Node22&#45;&gt;Node9</title>
<g id="a_edge36_Node000022_Node000009"><a xlink:title=" ">
<path fill="none" stroke="#63b8ff" d="M522.77,-287.79C525.89,-287.16 528.98,-286.56 532,-286 607.28,-271.94 694.26,-258.9 752.55,-250.62"/>
<polygon fill="#63b8ff" stroke="#63b8ff" points="753.32,-254.05 762.73,-249.18 752.34,-247.12 753.32,-254.05"/>
</a>
</g>
</g>
<!-- Node23 -->
<g id="Node000023" class="node">
<title>Node23</title>
<g id="a_Node000023"><a xlink:href="event__types_8h.html" target="_top" xlink:title="ODP event API type definitions.">
<polygon fill="white" stroke="#666666" points="595.5,-140 470.5,-140 470.5,-121 595.5,-121 595.5,-140"/>
<text text-anchor="middle" x="533" y="-128" font-family="Helvetica,sans-Serif" font-size="10.00">odp/api/event_types.h</text>
</a>
</g>
</g>
<!-- Node22&#45;&gt;Node23 -->
<g id="edge31_Node000022_Node000023" class="edge">
<title>Node22&#45;&gt;Node23</title>
<g id="a_edge31_Node000022_Node000023"><a xlink:title=" ">
<path fill="none" stroke="#63b8ff" d="M473.43,-285.92C485.16,-255.52 512.85,-183.73 525.93,-149.83"/>
<polygon fill="#63b8ff" stroke="#63b8ff" points="529.29,-150.84 529.62,-140.25 522.76,-148.33 529.29,-150.84"/>
</a>
</g>
</g>
<!-- Node24 -->
<g id="Node000024" class="node">
<title>Node24</title>
<g id="a_Node000024"><a xlink:title=" ">
<polygon fill="#e0e0e0" stroke="#999999" points="604.5,-79.5 461.5,-79.5 461.5,-60.5 604.5,-60.5 604.5,-79.5"/>
<text text-anchor="middle" x="533" y="-67.5" font-family="Helvetica,sans-Serif" font-size="10.00">odp/api/abi/event_types.h</text>
</a>
</g>
</g>
<!-- Node23&#45;&gt;Node24 -->
<g id="edge32_Node000023_Node000024" class="edge">
<title>Node23&#45;&gt;Node24</title>
<g id="a_edge32_Node000023_Node000024"><a xlink:title=" ">
<path fill="none" stroke="#63b8ff" d="M533,-120.87C533,-112.75 533,-100.31 533,-89.89"/>
<polygon fill="#63b8ff" stroke="#63b8ff" points="536.5,-89.67 533,-79.67 529.5,-89.67 536.5,-89.67"/>
</a>
</g>
</g>
<!-- Node25 -->
<g id="Node000025" class="node">
<title>Node25</title>
<g id="a_Node000025"><a xlink:href="spec_2event__types_8h.html" target="_top" xlink:title="ODP event API type definitions.">
<polygon fill="white" stroke="#666666" points="731.5,-85 622.5,-85 622.5,-55 731.5,-55 731.5,-85"/>
<text text-anchor="start" x="630.5" y="-73" font-family="Helvetica,sans-Serif" font-size="10.00">odp/api/spec/event</text>
<text text-anchor="middle" x="677" y="-62" font-family="Helvetica,sans-Serif" font-size="10.00">_types.h</text>
</a>
</g>
</g>
<!-- Node23&#45;&gt;Node25 -->
<g id="edge33_Node000023_Node000025" class="edge">
<title>Node23&#45;&gt;Node25</title>
<g id="a_edge33_Node000023_Node000025"><a xlink:title=" ">
<path fill="none" stroke="#63b8ff" d="M553.94,-120.99C574.57,-112.61 606.73,-99.55 633,-88.87"/>
<polygon fill="#63b8ff" stroke="#63b8ff" points="634.43,-92.07 642.38,-85.06 631.8,-85.59 634.43,-92.07"/>
</a>
</g>
</g>
<!-- Node25&#45;&gt;Node2 -->
<g id="edge34_Node000025_Node000002" class="edge">
<title>Node25&#45;&gt;Node2</title>
<g id="a_edge34_Node000025_Node000002"><a xlink:title=" ">
<path fill="none" stroke="#63b8ff" d="M622.41,-56.66C619.57,-56.08 616.75,-55.53 614,-55 543.88,-41.57 463.22,-28.88 407.28,-20.52"/>
<polygon fill="#63b8ff" stroke="#63b8ff" points="407.54,-17.02 397.13,-19.01 406.51,-23.94 407.54,-17.02"/>
</a>
</g>
</g>
<!-- Node25&#45;&gt;Node5 -->
<g id="edge35_Node000025_Node000005" class="edge">
<title>Node25&#45;&gt;Node5</title>
<g id="a_edge35_Node000025_Node000005"><a xlink:title=" ">
<path fill="none" stroke="#63b8ff" d="M731.75,-56.71C734.88,-56.11 737.98,-55.53 741,-55 833.48,-38.75 941.29,-25.39 1008.86,-17.67"/>
<polygon fill="#63b8ff" stroke="#63b8ff" points="1009.39,-21.14 1018.94,-16.53 1008.61,-14.18 1009.39,-21.14"/>
</a>
</g>
</g>
<!-- Node27 -->
<g id="Node000027" class="node">
<title>Node27</title>
<g id="a_Node000027"><a xlink:title=" ">
<polygon fill="#e0e0e0" stroke="#999999" points="1020.5,-448 903.5,-448 903.5,-418 1020.5,-418 1020.5,-448"/>
<text text-anchor="start" x="911.5" y="-436" font-family="Helvetica,sans-Serif" font-size="10.00">odp/api/abi/schedule</text>
<text text-anchor="middle" x="962" y="-425" font-family="Helvetica,sans-Serif" font-size="10.00">_types.h</text>
</a>
</g>
</g>
<!-- Node26&#45;&gt;Node27 -->
<g id="edge39_Node000026_Node000027" class="edge">
<title>Node26&#45;&gt;Node27</title>
<g id="a_edge39_Node000026_Node000027"><a xlink:title=" ">
<path fill="none" stroke="#63b8ff" d="M843.21,-483.99C863.04,-475.65 893.9,-462.66 919.19,-452.02"/>
<polygon fill="#63b8ff" stroke="#63b8ff" points="920.72,-455.17 928.58,-448.06 918.01,-448.72 920.72,-455.17"/>
</a>
</g>
</g>
<!-- Node28 -->
<g id="Node000028" class="node">
<title>Node28</title>
<g id="a_Node000028"><a xlink:href="spec_2schedule__types_8h.html" target="_top" xlink:title="ODP schedule types.">
<polygon fill="white" stroke="#666666" points="885.5,-448 760.5,-448 760.5,-418 885.5,-418 885.5,-448"/>
<text text-anchor="start" x="768.5" y="-436" font-family="Helvetica,sans-Serif" font-size="10.00">odp/api/spec/schedule</text>
<text text-anchor="middle" x="823" y="-425" font-family="Helvetica,sans-Serif" font-size="10.00">_types.h</text>
</a>
</g>
</g>
<!-- Node26&#45;&gt;Node28 -->
<g id="edge40_Node000026_Node000028" class="edge">
<title>Node26&#45;&gt;Node28</title>
<g id="a_edge40_Node000026_Node000028"><a xlink:title=" ">
<path fill="none" stroke="#63b8ff" d="M823,-483.87C823,-477.11 823,-467.35 823,-458.26"/>
<polygon fill="#63b8ff" stroke="#63b8ff" points="826.5,-458.11 823,-448.11 819.5,-458.11 826.5,-458.11"/>
</a>
</g>
</g>
<!-- Node28&#45;&gt;Node2 -->
<g id="edge41_Node000028_Node000002" class="edge">
<title>Node28&#45;&gt;Node2</title>
<g id="a_edge41_Node000028_Node000002"><a xlink:title=" ">
<path fill="none" stroke="#63b8ff" d="M760.24,-428.22C630.45,-418.95 339.64,-390.19 280,-316 243.78,-270.94 308.76,-87.46 330.96,-28.7"/>
<polygon fill="#63b8ff" stroke="#63b8ff" points="334.27,-29.83 334.57,-19.24 327.73,-27.33 334.27,-29.83"/>
</a>
</g>
</g>
<!-- Node28&#45;&gt;Node5 -->
<g id="edge50_Node000028_Node000005" class="edge">
<title>Node28&#45;&gt;Node5</title>
<g id="a_edge50_Node000028_Node000005"><a xlink:title=" ">
<path fill="none" stroke="#63b8ff" d="M885.5,-419.07C957.65,-402.4 1078.29,-369.08 1171,-316 1180.1,-310.79 1190,-312.49 1190,-302 1190,-302 1190,-302 1190,-129.5 1190,-79.34 1136.51,-42.25 1102.5,-23.73"/>
<polygon fill="#63b8ff" stroke="#63b8ff" points="1103.96,-20.55 1093.48,-19.01 1100.71,-26.75 1103.96,-20.55"/>
</a>
</g>
</g>
<!-- Node28&#45;&gt;Node9 -->
<g id="edge43_Node000028_Node000009" class="edge">
<title>Node28&#45;&gt;Node9</title>
<g id="a_edge43_Node000028_Node000009"><a xlink:title=" ">
<path fill="none" stroke="#63b8ff" d="M828.28,-417.72C837.28,-391.36 853.53,-333.44 842,-286 839.69,-276.51 834.98,-266.78 830.42,-258.85"/>
<polygon fill="#63b8ff" stroke="#63b8ff" points="833.32,-256.89 825.1,-250.2 827.36,-260.55 833.32,-256.89"/>
</a>
</g>
</g>
<!-- Node28&#45;&gt;Node19 -->
<g id="edge42_Node000028_Node000019" class="edge">
<title>Node28&#45;&gt;Node19</title>
<g id="a_edge42_Node000028_Node000019"><a xlink:title=" ">
<path fill="none" stroke="#63b8ff" d="M784.6,-417.95C758.49,-408.41 723.78,-395.71 695.87,-385.51"/>
<polygon fill="#63b8ff" stroke="#63b8ff" points="696.91,-382.16 686.31,-382.01 694.5,-388.73 696.91,-382.16"/>
</a>
</g>
</g>
<!-- Node29 -->
<g id="Node000029" class="node">
<title>Node29</title>
<g id="a_Node000029"><a xlink:href="thrmask_8h.html" target="_top" xlink:title="ODP thread masks.">
<polygon fill="white" stroke="#666666" points="1007.5,-376.5 902.5,-376.5 902.5,-357.5 1007.5,-357.5 1007.5,-376.5"/>
<text text-anchor="middle" x="955" y="-364.5" font-family="Helvetica,sans-Serif" font-size="10.00">odp/api/thrmask.h</text>
</a>
</g>
</g>
<!-- Node28&#45;&gt;Node29 -->
<g id="edge44_Node000028_Node000029" class="edge">
<title>Node28&#45;&gt;Node29</title>
<g id="a_edge44_Node000028_Node000029"><a xlink:title=" ">
<path fill="none" stroke="#63b8ff" d="M851.97,-417.95C874.71,-406.93 906.12,-391.7 928.27,-380.96"/>
<polygon fill="#63b8ff" stroke="#63b8ff" points="929.96,-384.03 937.43,-376.52 926.91,-377.73 929.96,-384.03"/>
</a>
</g>
</g>
<!-- Node30 -->
<g id="Node000030" class="node">
<title>Node30</title>
<g id="a_Node000030"><a xlink:title=" ">
<polygon fill="#e0e0e0" stroke="#999999" points="1161.5,-310.5 1038.5,-310.5 1038.5,-291.5 1161.5,-291.5 1161.5,-310.5"/>
<text text-anchor="middle" x="1100" y="-298.5" font-family="Helvetica,sans-Serif" font-size="10.00">odp/api/abi/thrmask.h</text>
</a>
</g>
</g>
<!-- Node29&#45;&gt;Node30 -->
<g id="edge45_Node000029_Node000030" class="edge">
<title>Node29&#45;&gt;Node30</title>
<g id="a_edge45_Node000029_Node000030"><a xlink:title=" ">
<path fill="none" stroke="#63b8ff" d="M974.56,-357.37C999.31,-346.44 1042.17,-327.52 1070.81,-314.88"/>
<polygon fill="#63b8ff" stroke="#63b8ff" points="1072.56,-317.94 1080.29,-310.7 1069.73,-311.54 1072.56,-317.94"/>
</a>
</g>
</g>
<!-- Node31 -->
<g id="Node000031" class="node">
<title>Node31</title>
<g id="a_Node000031"><a xlink:href="spec_2thrmask_8h.html" target="_top" xlink:title="ODP thread masks.">
<polygon fill="white" stroke="#666666" points="1020.5,-310.5 889.5,-310.5 889.5,-291.5 1020.5,-291.5 1020.5,-310.5"/>
<text text-anchor="middle" x="955" y="-298.5" font-family="Helvetica,sans-Serif" font-size="10.00">odp/api/spec/thrmask.h</text>
</a>
</g>
</g>
<!-- Node29&#45;&gt;Node31 -->
<g id="edge46_Node000029_Node000031" class="edge">
<title>Node29&#45;&gt;Node31</title>
<g id="a_edge46_Node000029_Node000031"><a xlink:title=" ">
<path fill="none" stroke="#63b8ff" d="M955,-357.37C955,-348.16 955,-333.29 955,-321.27"/>
<polygon fill="#63b8ff" stroke="#63b8ff" points="958.5,-320.91 955,-310.91 951.5,-320.91 958.5,-320.91"/>
</a>
</g>
</g>
<!-- Node31&#45;&gt;Node2 -->
<g id="edge47_Node000031_Node000002" class="edge">
<title>Node31&#45;&gt;Node2</title>
<g id="a_edge47_Node000031_Node000002"><a xlink:title=" ">
<path fill="none" stroke="#63b8ff" d="M948.68,-291.18C937.47,-276.23 912.57,-246.1 884,-231 794.57,-183.73 523.85,-193.5 438,-140 426.21,-132.65 374.05,-60.93 350.1,-27.49"/>
<polygon fill="#63b8ff" stroke="#63b8ff" points="352.81,-25.27 344.15,-19.16 347.12,-29.34 352.81,-25.27"/>
</a>
</g>
</g>
<!-- Node31&#45;&gt;Node5 -->
<g id="edge49_Node000031_Node000005" class="edge">
<title>Node31&#45;&gt;Node5</title>
<g id="a_edge49_Node000031_Node000005"><a xlink:title=" ">
<path fill="none" stroke="#63b8ff" d="M1000.58,-291.42C1053.03,-278.59 1132,-248.92 1132,-186.5 1132,-186.5 1132,-186.5 1132,-129.5 1132,-94.71 1123.91,-85.94 1108,-55 1102.9,-45.07 1095.64,-35 1089.23,-26.96"/>
<polygon fill="#63b8ff" stroke="#63b8ff" points="1091.82,-24.6 1082.75,-19.13 1086.43,-29.06 1091.82,-24.6"/>
</a>
</g>
</g>
<!-- Node31&#45;&gt;Node9 -->
<g id="edge48_Node000031_Node000009" class="edge">
<title>Node31&#45;&gt;Node9</title>
<g id="a_edge48_Node000031_Node000009"><a xlink:title=" ">
<path fill="none" stroke="#63b8ff" d="M935.22,-291.49C912.36,-281.66 874.51,-265.38 848.24,-254.08"/>
<polygon fill="#63b8ff" stroke="#63b8ff" points="849.37,-250.75 838.8,-250.02 846.6,-257.18 849.37,-250.75"/>
</a>
</g>
</g>
</g>
</svg>
