<?xml version="1.0" encoding="UTF-8" standalone="no"?>
<!DOCTYPE svg PUBLIC "-//W3C//DTD SVG 1.1//EN"
 "http://www.w3.org/Graphics/SVG/1.1/DTD/svg11.dtd">
<!-- Generated by graphviz version 2.43.0 (0)
 -->
<!-- Title: packet_flags.h Pages: 1 -->
<svg width="1398pt" height="808pt"
 viewBox="0.00 0.00 1398.00 808.00" xmlns="http://www.w3.org/2000/svg" xmlns:xlink="http://www.w3.org/1999/xlink">
<g id="graph0" class="graph" transform="scale(1 1) rotate(0) translate(4 804)">
<title>packet_flags.h</title>
<!-- Node1 -->
<g id="Node000001" class="node">
<title>Node1</title>
<g id="a_Node000001"><a xlink:title="ODP packet flags.">
<polygon fill="#999999" stroke="#666666" points="1301,-800 1215,-800 1215,-781 1301,-781 1301,-800"/>
<text text-anchor="middle" x="1258" y="-788" font-family="Helvetica,sans-Serif" font-size="10.00">packet_flags.h</text>
</a>
</g>
</g>
<!-- Node2 -->
<g id="Node000002" class="node">
<title>Node2</title>
<g id="a_Node000002"><a xlink:title=" ">
<polygon fill="#e0e0e0" stroke="#999999" points="412.5,-19 291.5,-19 291.5,0 412.5,0 412.5,-19"/>
<text text-anchor="middle" x="352" y="-7" font-family="Helvetica,sans-Serif" font-size="10.00">odp/visibility_begin.h</text>
</a>
</g>
</g>
<!-- Node1&#45;&gt;Node2 -->
<g id="edge1_Node000001_Node000002" class="edge">
<title>Node1&#45;&gt;Node2</title>
<g id="a_edge1_Node000001_Node000002"><a xlink:title=" ">
<path fill="none" stroke="#63b8ff" d="M1214.7,-787.91C993.49,-779.52 0,-738.36 0,-676 0,-676 0,-676 0,-129.5 0,-90.11 14.88,-76.32 48,-55 85.51,-30.86 203.75,-19.27 281.23,-14.13"/>
<polygon fill="#63b8ff" stroke="#63b8ff" points="281.66,-17.61 291.41,-13.48 281.21,-10.63 281.66,-17.61"/>
</a>
</g>
</g>
<!-- Node3 -->
<g id="Node000003" class="node">
<title>Node3</title>
<g id="a_Node000003"><a xlink:href="packet__types_8h.html" target="_top" xlink:title="ODP packet.">
<polygon fill="white" stroke="#666666" points="1166.5,-745 1037.5,-745 1037.5,-726 1166.5,-726 1166.5,-745"/>
<text text-anchor="middle" x="1102" y="-733" font-family="Helvetica,sans-Serif" font-size="10.00">odp/api/packet_types.h</text>
</a>
</g>
</g>
<!-- Node1&#45;&gt;Node3 -->
<g id="edge2_Node000001_Node000003" class="edge">
<title>Node1&#45;&gt;Node3</title>
<g id="a_edge2_Node000001_Node000003"><a xlink:title=" ">
<path fill="none" stroke="#63b8ff" d="M1232.94,-780.98C1206.97,-772.16 1166.19,-758.31 1137.04,-748.41"/>
<polygon fill="#63b8ff" stroke="#63b8ff" points="1137.85,-744.99 1127.26,-745.08 1135.6,-751.61 1137.85,-744.99"/>
</a>
</g>
</g>
<!-- Node9 -->
<g id="Node000009" class="node">
<title>Node9</title>
<g id="a_Node000009"><a xlink:title=" ">
<polygon fill="#e0e0e0" stroke="#999999" points="1085,-19 973,-19 973,0 1085,0 1085,-19"/>
<text text-anchor="middle" x="1029" y="-7" font-family="Helvetica,sans-Serif" font-size="10.00">odp/visibility_end.h</text>
</a>
</g>
</g>
<!-- Node1&#45;&gt;Node9 -->
<g id="edge59_Node000001_Node000009" class="edge">
<title>Node1&#45;&gt;Node9</title>
<g id="a_edge59_Node000001_Node000009"><a xlink:title=" ">
<path fill="none" stroke="#63b8ff" d="M1283.14,-780.93C1321.44,-766.1 1390,-731.76 1390,-676 1390,-676 1390,-676 1390,-129.5 1390,-75.14 1342.83,-76.72 1293,-55 1229.45,-27.31 1150.35,-16.78 1095.38,-12.81"/>
<polygon fill="#63b8ff" stroke="#63b8ff" points="1095.27,-9.3 1085.06,-12.12 1094.81,-16.28 1095.27,-9.3"/>
</a>
</g>
</g>
<!-- Node13 -->
<g id="Node000013" class="node">
<title>Node13</title>
<g id="a_Node000013"><a xlink:href="std__types_8h.html" target="_top" xlink:title="Standard C language types and definitions for ODP.">
<polygon fill="white" stroke="#666666" points="940,-250 828,-250 828,-231 940,-231 940,-250"/>
<text text-anchor="middle" x="884" y="-238" font-family="Helvetica,sans-Serif" font-size="10.00">odp/api/std_types.h</text>
</a>
</g>
</g>
<!-- Node1&#45;&gt;Node13 -->
<g id="edge58_Node000001_Node000013" class="edge">
<title>Node1&#45;&gt;Node13</title>
<g id="a_edge58_Node000001_Node000013"><a xlink:title=" ">
<path fill="none" stroke="#63b8ff" d="M1265.79,-780.82C1281.17,-762.72 1314,-719.07 1314,-676 1314,-676 1314,-676 1314,-366 1314,-329.46 1322.41,-310.17 1295,-286 1269.71,-263.7 1060.04,-250.16 950.35,-244.53"/>
<polygon fill="#63b8ff" stroke="#63b8ff" points="950.21,-241.02 940.05,-244.01 949.86,-248.01 950.21,-241.02"/>
</a>
</g>
</g>
<!-- Node4 -->
<g id="Node000004" class="node">
<title>Node4</title>
<g id="a_Node000004"><a xlink:title=" ">
<polygon fill="#e0e0e0" stroke="#999999" points="975,-690 869,-690 869,-660 975,-660 975,-690"/>
<text text-anchor="start" x="877" y="-678" font-family="Helvetica,sans-Serif" font-size="10.00">odp/api/abi/packet</text>
<text text-anchor="middle" x="922" y="-667" font-family="Helvetica,sans-Serif" font-size="10.00">_io_types.h</text>
</a>
</g>
</g>
<!-- Node3&#45;&gt;Node4 -->
<g id="edge3_Node000003_Node000004" class="edge">
<title>Node3&#45;&gt;Node4</title>
<g id="a_edge3_Node000003_Node000004"><a xlink:title=" ">
<path fill="none" stroke="#63b8ff" d="M1075.83,-725.99C1049.47,-717.43 1008.07,-703.97 974.85,-693.18"/>
<polygon fill="#63b8ff" stroke="#63b8ff" points="975.87,-689.83 965.27,-690.06 973.7,-696.48 975.87,-689.83"/>
</a>
</g>
</g>
<!-- Node5 -->
<g id="Node000005" class="node">
<title>Node5</title>
<g id="a_Node000005"><a xlink:title=" ">
<polygon fill="#e0e0e0" stroke="#999999" points="1099,-690 993,-690 993,-660 1099,-660 1099,-690"/>
<text text-anchor="start" x="1001" y="-678" font-family="Helvetica,sans-Serif" font-size="10.00">odp/api/abi/packet</text>
<text text-anchor="middle" x="1046" y="-667" font-family="Helvetica,sans-Serif" font-size="10.00">_types.h</text>
</a>
</g>
</g>
<!-- Node3&#45;&gt;Node5 -->
<g id="edge4_Node000003_Node000005" class="edge">
<title>Node3&#45;&gt;Node5</title>
<g id="a_edge4_Node000003_Node000005"><a xlink:title=" ">
<path fill="none" stroke="#63b8ff" d="M1093.74,-725.87C1086.63,-718.44 1076.07,-707.42 1066.69,-697.62"/>
<polygon fill="#63b8ff" stroke="#63b8ff" points="1068.95,-694.92 1059.51,-690.11 1063.9,-699.76 1068.95,-694.92"/>
</a>
</g>
</g>
<!-- Node6 -->
<g id="Node000006" class="node">
<title>Node6</title>
<g id="a_Node000006"><a xlink:href="spec_2packet__types_8h.html" target="_top" xlink:title="ODP packet types.">
<polygon fill="white" stroke="#666666" points="1230.5,-690 1117.5,-690 1117.5,-660 1230.5,-660 1230.5,-690"/>
<text text-anchor="start" x="1125.5" y="-678" font-family="Helvetica,sans-Serif" font-size="10.00">odp/api/spec/packet</text>
<text text-anchor="middle" x="1174" y="-667" font-family="Helvetica,sans-Serif" font-size="10.00">_types.h</text>
</a>
</g>
</g>
<!-- Node3&#45;&gt;Node6 -->
<g id="edge5_Node000003_Node000006" class="edge">
<title>Node3&#45;&gt;Node6</title>
<g id="a_edge5_Node000003_Node000006"><a xlink:title=" ">
<path fill="none" stroke="#63b8ff" d="M1112.62,-725.87C1122.12,-718.15 1136.42,-706.54 1148.82,-696.46"/>
<polygon fill="#63b8ff" stroke="#63b8ff" points="1151.07,-699.14 1156.63,-690.11 1146.66,-693.7 1151.07,-699.14"/>
</a>
</g>
</g>
<!-- Node6&#45;&gt;Node2 -->
<g id="edge6_Node000006_Node000002" class="edge">
<title>Node6&#45;&gt;Node2</title>
<g id="a_edge6_Node000006_Node000002"><a xlink:title=" ">
<path fill="none" stroke="#63b8ff" d="M1117.21,-661.42C1114.1,-660.9 1111.02,-660.42 1108,-660 989.68,-643.54 38,-674.46 38,-555 38,-555 38,-555 38,-129.5 38,-89.87 53.8,-76.64 87,-55 118.22,-34.65 213.72,-22.36 281.09,-16.01"/>
<polygon fill="#63b8ff" stroke="#63b8ff" points="281.59,-19.47 291.22,-15.07 280.95,-12.5 281.59,-19.47"/>
</a>
</g>
</g>
<!-- Node7 -->
<g id="Node000007" class="node">
<title>Node7</title>
<g id="a_Node000007"><a xlink:href="deprecated_8h.html" target="_top" xlink:title="Control deprecated API definitions.">
<polygon fill="white" stroke="#666666" points="1189.5,-624 1070.5,-624 1070.5,-605 1189.5,-605 1189.5,-624"/>
<text text-anchor="middle" x="1130" y="-612" font-family="Helvetica,sans-Serif" font-size="10.00">odp/api/deprecated.h</text>
</a>
</g>
</g>
<!-- Node6&#45;&gt;Node7 -->
<g id="edge7_Node000006_Node000007" class="edge">
<title>Node6&#45;&gt;Node7</title>
<g id="a_edge7_Node000006_Node000007"><a xlink:title=" ">
<path fill="none" stroke="#63b8ff" d="M1163.35,-659.84C1157.16,-651.61 1149.31,-641.18 1142.79,-632.51"/>
<polygon fill="#63b8ff" stroke="#63b8ff" points="1145.4,-630.15 1136.59,-624.27 1139.81,-634.36 1145.4,-630.15"/>
</a>
</g>
</g>
<!-- Node6&#45;&gt;Node9 -->
<g id="edge57_Node000006_Node000009" class="edge">
<title>Node6&#45;&gt;Node9</title>
<g id="a_edge57_Node000006_Node000009"><a xlink:title=" ">
<path fill="none" stroke="#63b8ff" d="M1205.41,-660C1256.51,-634.83 1352,-576.79 1352,-494.5 1352,-494.5 1352,-494.5 1352,-129.5 1352,-74.94 1187.67,-37.67 1093.44,-20.78"/>
<polygon fill="#63b8ff" stroke="#63b8ff" points="1093.88,-17.31 1083.43,-19.02 1092.67,-24.2 1093.88,-17.31"/>
</a>
</g>
</g>
<!-- Node10 -->
<g id="Node000010" class="node">
<title>Node10</title>
<g id="a_Node000010"><a xlink:href="proto__stats__types_8h.html" target="_top" xlink:title="ODP proto stats types.">
<polygon fill="white" stroke="#666666" points="1273,-382 1163,-382 1163,-352 1273,-352 1273,-382"/>
<text text-anchor="start" x="1171" y="-370" font-family="Helvetica,sans-Serif" font-size="10.00">odp/api/proto_stats</text>
<text text-anchor="middle" x="1218" y="-359" font-family="Helvetica,sans-Serif" font-size="10.00">_types.h</text>
</a>
</g>
</g>
<!-- Node6&#45;&gt;Node10 -->
<g id="edge11_Node000006_Node000010" class="edge">
<title>Node6&#45;&gt;Node10</title>
<g id="a_edge11_Node000006_Node000010"><a xlink:title=" ">
<path fill="none" stroke="#63b8ff" d="M1182.9,-659.97C1195.76,-638.32 1218,-595.09 1218,-555 1218,-555 1218,-555 1218,-492.5 1218,-457.67 1218,-417.35 1218,-392.26"/>
<polygon fill="#63b8ff" stroke="#63b8ff" points="1221.5,-392.19 1218,-382.19 1214.5,-392.19 1221.5,-392.19"/>
</a>
</g>
</g>
<!-- Node20 -->
<g id="Node000020" class="node">
<title>Node20</title>
<g id="a_Node000020"><a xlink:href="queue__types_8h.html" target="_top" xlink:title="ODP queue.">
<polygon fill="white" stroke="#666666" points="711.5,-624 584.5,-624 584.5,-605 711.5,-605 711.5,-624"/>
<text text-anchor="middle" x="648" y="-612" font-family="Helvetica,sans-Serif" font-size="10.00">odp/api/queue_types.h</text>
</a>
</g>
</g>
<!-- Node6&#45;&gt;Node20 -->
<g id="edge27_Node000006_Node000020" class="edge">
<title>Node6&#45;&gt;Node20</title>
<g id="a_edge27_Node000006_Node000020"><a xlink:title=" ">
<path fill="none" stroke="#63b8ff" d="M1117.19,-661.53C1114.09,-660.98 1111.01,-660.46 1108,-660 972.47,-639.14 812.87,-626.3 721.75,-620.07"/>
<polygon fill="#63b8ff" stroke="#63b8ff" points="721.74,-616.56 711.53,-619.37 721.27,-623.54 721.74,-616.56"/>
</a>
</g>
</g>
<!-- Node8 -->
<g id="Node000008" class="node">
<title>Node8</title>
<g id="a_Node000008"><a xlink:href="spec_2deprecated_8h.html" target="_top" xlink:title="Macro for deprecated API definitions.">
<polygon fill="white" stroke="#666666" points="1101.5,-79.5 956.5,-79.5 956.5,-60.5 1101.5,-60.5 1101.5,-79.5"/>
<text text-anchor="middle" x="1029" y="-67.5" font-family="Helvetica,sans-Serif" font-size="10.00">odp/api/spec/deprecated.h</text>
</a>
</g>
</g>
<!-- Node7&#45;&gt;Node8 -->
<g id="edge8_Node000007_Node000008" class="edge">
<title>Node7&#45;&gt;Node8</title>
<g id="a_edge8_Node000007_Node000008"><a xlink:title=" ">
<path fill="none" stroke="#63b8ff" d="M1130,-604.84C1130,-585.21 1130,-535.82 1130,-494.5 1130,-494.5 1130,-494.5 1130,-432 1130,-345.67 1092,-327.83 1092,-241.5 1092,-241.5 1092,-241.5 1092,-184.5 1092,-145.68 1063.47,-107.71 1044.81,-87.02"/>
<polygon fill="#63b8ff" stroke="#63b8ff" points="1047.15,-84.4 1037.76,-79.5 1042.05,-89.19 1047.15,-84.4"/>
</a>
</g>
</g>
<!-- Node8&#45;&gt;Node2 -->
<g id="edge9_Node000008_Node000002" class="edge">
<title>Node8&#45;&gt;Node2</title>
<g id="a_edge9_Node000008_Node000002"><a xlink:title=" ">
<path fill="none" stroke="#63b8ff" d="M956.23,-62.71C825.39,-51.41 552.03,-27.78 422.71,-16.61"/>
<polygon fill="#63b8ff" stroke="#63b8ff" points="422.79,-13.1 412.52,-15.73 422.18,-20.08 422.79,-13.1"/>
</a>
</g>
</g>
<!-- Node8&#45;&gt;Node9 -->
<g id="edge10_Node000008_Node000009" class="edge">
<title>Node8&#45;&gt;Node9</title>
<g id="a_edge10_Node000008_Node000009"><a xlink:title=" ">
<path fill="none" stroke="#63b8ff" d="M1029,-60.37C1029,-52.25 1029,-39.81 1029,-29.39"/>
<polygon fill="#63b8ff" stroke="#63b8ff" points="1032.5,-29.17 1029,-19.17 1025.5,-29.17 1032.5,-29.17"/>
</a>
</g>
</g>
<!-- Node11 -->
<g id="Node000011" class="node">
<title>Node11</title>
<g id="a_Node000011"><a xlink:title=" ">
<polygon fill="#e0e0e0" stroke="#999999" points="1286,-316 1158,-316 1158,-286 1286,-286 1286,-316"/>
<text text-anchor="start" x="1166" y="-304" font-family="Helvetica,sans-Serif" font-size="10.00">odp/api/abi/proto_stats</text>
<text text-anchor="middle" x="1222" y="-293" font-family="Helvetica,sans-Serif" font-size="10.00">_types.h</text>
</a>
</g>
</g>
<!-- Node10&#45;&gt;Node11 -->
<g id="edge12_Node000010_Node000011" class="edge">
<title>Node10&#45;&gt;Node11</title>
<g id="a_edge12_Node000010_Node000011"><a xlink:title=" ">
<path fill="none" stroke="#63b8ff" d="M1218.89,-351.8C1219.35,-344.34 1219.94,-334.99 1220.47,-326.41"/>
<polygon fill="#63b8ff" stroke="#63b8ff" points="1223.98,-326.36 1221.11,-316.16 1217,-325.93 1223.98,-326.36"/>
</a>
</g>
</g>
<!-- Node12 -->
<g id="Node000012" class="node">
<title>Node12</title>
<g id="a_Node000012"><a xlink:href="spec_2proto__stats__types_8h.html" target="_top" xlink:title="ODP proto stats types.">
<polygon fill="white" stroke="#666666" points="1023.5,-316 916.5,-316 916.5,-286 1023.5,-286 1023.5,-316"/>
<text text-anchor="start" x="924.5" y="-304" font-family="Helvetica,sans-Serif" font-size="10.00">odp/api/spec/proto</text>
<text text-anchor="middle" x="970" y="-293" font-family="Helvetica,sans-Serif" font-size="10.00">_stats_types.h</text>
</a>
</g>
</g>
<!-- Node10&#45;&gt;Node12 -->
<g id="edge13_Node000010_Node000012" class="edge">
<title>Node10&#45;&gt;Node12</title>
<g id="a_edge13_Node000010_Node000012"><a xlink:title=" ">
<path fill="none" stroke="#63b8ff" d="M1163.58,-351.95C1125.24,-342.06 1073.8,-328.79 1033.58,-318.41"/>
<polygon fill="#63b8ff" stroke="#63b8ff" points="1034.43,-315.01 1023.87,-315.9 1032.68,-321.79 1034.43,-315.01"/>
</a>
</g>
</g>
<!-- Node12&#45;&gt;Node2 -->
<g id="edge14_Node000012_Node000002" class="edge">
<title>Node12&#45;&gt;Node2</title>
<g id="a_edge14_Node000012_Node000002"><a xlink:title=" ">
<path fill="none" stroke="#63b8ff" d="M970.01,-285.89C969.2,-269.92 965.22,-244.39 949,-231 890.24,-182.48 674.69,-231.87 608,-195 538.75,-156.72 563.29,-99.7 498,-55 474.06,-38.61 443.88,-28.1 417.19,-21.43"/>
<polygon fill="#63b8ff" stroke="#63b8ff" points="417.68,-17.96 407.15,-19.07 416.08,-24.77 417.68,-17.96"/>
</a>
</g>
</g>
<!-- Node12&#45;&gt;Node9 -->
<g id="edge26_Node000012_Node000009" class="edge">
<title>Node12&#45;&gt;Node9</title>
<g id="a_edge26_Node000012_Node000009"><a xlink:title=" ">
<path fill="none" stroke="#63b8ff" d="M983.62,-285.92C1013.76,-253.65 1085.45,-170.54 1111,-85 1114.82,-72.22 1117.82,-66.46 1111,-55 1102.08,-40.02 1086.16,-29.76 1070.71,-22.91"/>
<polygon fill="#63b8ff" stroke="#63b8ff" points="1071.8,-19.58 1061.21,-19.08 1069.17,-26.07 1071.8,-19.58"/>
</a>
</g>
</g>
<!-- Node12&#45;&gt;Node13 -->
<g id="edge15_Node000012_Node000013" class="edge">
<title>Node12&#45;&gt;Node13</title>
<g id="a_edge15_Node000012_Node000013"><a xlink:title=" ">
<path fill="none" stroke="#63b8ff" d="M949.18,-285.84C935.85,-276.77 918.61,-265.04 905.21,-255.92"/>
<polygon fill="#63b8ff" stroke="#63b8ff" points="906.87,-252.83 896.63,-250.09 902.93,-258.61 906.87,-252.83"/>
</a>
</g>
</g>
<!-- Node14 -->
<g id="Node000014" class="node">
<title>Node14</title>
<g id="a_Node000014"><a xlink:title=" ">
<polygon fill="#e0e0e0" stroke="#999999" points="979,-195 849,-195 849,-176 979,-176 979,-195"/>
<text text-anchor="middle" x="914" y="-183" font-family="Helvetica,sans-Serif" font-size="10.00">odp/api/abi/std_types.h</text>
</a>
</g>
</g>
<!-- Node13&#45;&gt;Node14 -->
<g id="edge16_Node000013_Node000014" class="edge">
<title>Node13&#45;&gt;Node14</title>
<g id="a_edge16_Node000013_Node000014"><a xlink:title=" ">
<path fill="none" stroke="#63b8ff" d="M888.95,-230.75C893.06,-223.49 899.03,-212.95 904.1,-203.98"/>
<polygon fill="#63b8ff" stroke="#63b8ff" points="907.26,-205.52 909.14,-195.09 901.17,-202.07 907.26,-205.52"/>
</a>
</g>
</g>
<!-- Node15 -->
<g id="Node000015" class="node">
<title>Node15</title>
<g id="a_Node000015"><a xlink:href="spec_2std__types_8h.html" target="_top" xlink:title="Common types and definitions for ODP API files.">
<polygon fill="white" stroke="#666666" points="754.5,-195 617.5,-195 617.5,-176 754.5,-176 754.5,-195"/>
<text text-anchor="middle" x="686" y="-183" font-family="Helvetica,sans-Serif" font-size="10.00">odp/api/spec/std_types.h</text>
</a>
</g>
</g>
<!-- Node13&#45;&gt;Node15 -->
<g id="edge17_Node000013_Node000015" class="edge">
<title>Node13&#45;&gt;Node15</title>
<g id="a_edge17_Node000013_Node000015"><a xlink:title=" ">
<path fill="none" stroke="#63b8ff" d="M852.19,-230.98C818.51,-221.97 765.2,-207.7 728.08,-197.76"/>
<polygon fill="#63b8ff" stroke="#63b8ff" points="728.63,-194.29 718.06,-195.08 726.82,-201.05 728.63,-194.29"/>
</a>
</g>
</g>
<!-- Node15&#45;&gt;Node2 -->
<g id="edge18_Node000015_Node000002" class="edge">
<title>Node15&#45;&gt;Node2</title>
<g id="a_edge18_Node000015_Node000002"><a xlink:title=" ">
<path fill="none" stroke="#63b8ff" d="M668.15,-175.98C652.1,-167.89 628.32,-154.79 610,-140 570.1,-107.8 576.1,-81.16 532,-55 498.99,-35.42 457.68,-24.43 422.97,-18.27"/>
<polygon fill="#63b8ff" stroke="#63b8ff" points="423.33,-14.78 412.89,-16.58 422.18,-21.68 423.33,-14.78"/>
</a>
</g>
</g>
<!-- Node15&#45;&gt;Node9 -->
<g id="edge25_Node000015_Node000009" class="edge">
<title>Node15&#45;&gt;Node9</title>
<g id="a_edge25_Node000015_Node000009"><a xlink:title=" ">
<path fill="none" stroke="#63b8ff" d="M712.46,-175.91C733.86,-168.29 764.24,-155.9 788,-140 833.19,-109.76 828.96,-82.28 876,-55 903.94,-38.8 938.21,-28.12 967.23,-21.3"/>
<polygon fill="#63b8ff" stroke="#63b8ff" points="968.27,-24.65 977.26,-19.04 966.73,-17.82 968.27,-24.65"/>
</a>
</g>
</g>
<!-- Node16 -->
<g id="Node000016" class="node">
<title>Node16</title>
<g id="a_Node000016"><a xlink:title=" ">
<polygon fill="#e0e0e0" stroke="#999999" points="779.5,-140 726.5,-140 726.5,-121 779.5,-121 779.5,-140"/>
<text text-anchor="middle" x="753" y="-128" font-family="Helvetica,sans-Serif" font-size="10.00">stdint.h</text>
</a>
</g>
</g>
<!-- Node15&#45;&gt;Node16 -->
<g id="edge19_Node000015_Node000016" class="edge">
<title>Node15&#45;&gt;Node16</title>
<g id="a_edge19_Node000015_Node000016"><a xlink:title=" ">
<path fill="none" stroke="#63b8ff" d="M696.76,-175.98C706.77,-168.07 721.89,-156.11 733.93,-146.58"/>
<polygon fill="#63b8ff" stroke="#63b8ff" points="736.37,-149.12 742.04,-140.17 732.03,-143.63 736.37,-149.12"/>
</a>
</g>
</g>
<!-- Node17 -->
<g id="Node000017" class="node">
<title>Node17</title>
<g id="a_Node000017"><a xlink:href="align_8h.html" target="_top" xlink:title="ODP alignments.">
<polygon fill="white" stroke="#666666" points="708.5,-140 619.5,-140 619.5,-121 708.5,-121 708.5,-140"/>
<text text-anchor="middle" x="664" y="-128" font-family="Helvetica,sans-Serif" font-size="10.00">odp/api/align.h</text>
</a>
</g>
</g>
<!-- Node15&#45;&gt;Node17 -->
<g id="edge20_Node000015_Node000017" class="edge">
<title>Node15&#45;&gt;Node17</title>
<g id="a_edge20_Node000015_Node000017"><a xlink:title=" ">
<path fill="none" stroke="#63b8ff" d="M682.37,-175.75C679.42,-168.65 675.17,-158.4 671.49,-149.56"/>
<polygon fill="#63b8ff" stroke="#63b8ff" points="674.63,-147.98 667.57,-140.09 668.17,-150.67 674.63,-147.98"/>
</a>
</g>
</g>
<!-- Node18 -->
<g id="Node000018" class="node">
<title>Node18</title>
<g id="a_Node000018"><a xlink:title=" ">
<polygon fill="#e0e0e0" stroke="#999999" points="823.5,-79.5 716.5,-79.5 716.5,-60.5 823.5,-60.5 823.5,-79.5"/>
<text text-anchor="middle" x="770" y="-67.5" font-family="Helvetica,sans-Serif" font-size="10.00">odp/api/abi/align.h</text>
</a>
</g>
</g>
<!-- Node17&#45;&gt;Node18 -->
<g id="edge21_Node000017_Node000018" class="edge">
<title>Node17&#45;&gt;Node18</title>
<g id="a_edge21_Node000017_Node000018"><a xlink:title=" ">
<path fill="none" stroke="#63b8ff" d="M679.64,-120.87C696.94,-111.32 725.05,-95.81 745.33,-84.62"/>
<polygon fill="#63b8ff" stroke="#63b8ff" points="747.23,-87.56 754.3,-79.67 743.85,-81.43 747.23,-87.56"/>
</a>
</g>
</g>
<!-- Node19 -->
<g id="Node000019" class="node">
<title>Node19</title>
<g id="a_Node000019"><a xlink:href="spec_2align_8h.html" target="_top" xlink:title="ODP alignments.">
<polygon fill="white" stroke="#666666" points="698,-79.5 584,-79.5 584,-60.5 698,-60.5 698,-79.5"/>
<text text-anchor="middle" x="641" y="-67.5" font-family="Helvetica,sans-Serif" font-size="10.00">odp/api/spec/align.h</text>
</a>
</g>
</g>
<!-- Node17&#45;&gt;Node19 -->
<g id="edge22_Node000017_Node000019" class="edge">
<title>Node17&#45;&gt;Node19</title>
<g id="a_edge22_Node000017_Node000019"><a xlink:title=" ">
<path fill="none" stroke="#63b8ff" d="M660.61,-120.87C657.34,-112.57 652.31,-99.78 648.16,-89.22"/>
<polygon fill="#63b8ff" stroke="#63b8ff" points="651.32,-87.69 644.41,-79.67 644.81,-90.25 651.32,-87.69"/>
</a>
</g>
</g>
<!-- Node19&#45;&gt;Node2 -->
<g id="edge23_Node000019_Node000002" class="edge">
<title>Node19&#45;&gt;Node2</title>
<g id="a_edge23_Node000019_Node000002"><a xlink:title=" ">
<path fill="none" stroke="#63b8ff" d="M598.98,-60.49C547.4,-50.05 459.92,-32.35 404.11,-21.05"/>
<polygon fill="#63b8ff" stroke="#63b8ff" points="404.57,-17.57 394.07,-19.02 403.18,-24.43 404.57,-17.57"/>
</a>
</g>
</g>
<!-- Node19&#45;&gt;Node9 -->
<g id="edge24_Node000019_Node000009" class="edge">
<title>Node19&#45;&gt;Node9</title>
<g id="a_edge24_Node000019_Node000009"><a xlink:title=" ">
<path fill="none" stroke="#63b8ff" d="M678.95,-60.46C688.11,-58.54 697.88,-56.59 707,-55 795.12,-39.59 897.57,-26.2 962.82,-18.24"/>
<polygon fill="#63b8ff" stroke="#63b8ff" points="963.46,-21.69 972.97,-17.01 962.62,-14.74 963.46,-21.69"/>
</a>
</g>
</g>
<!-- Node21 -->
<g id="Node000021" class="node">
<title>Node21</title>
<g id="a_Node000021"><a xlink:title=" ">
<polygon fill="#e0e0e0" stroke="#999999" points="574.5,-563.5 429.5,-563.5 429.5,-544.5 574.5,-544.5 574.5,-563.5"/>
<text text-anchor="middle" x="502" y="-551.5" font-family="Helvetica,sans-Serif" font-size="10.00">odp/api/abi/queue_types.h</text>
</a>
</g>
</g>
<!-- Node20&#45;&gt;Node21 -->
<g id="edge28_Node000020_Node000021" class="edge">
<title>Node20&#45;&gt;Node21</title>
<g id="a_edge28_Node000020_Node000021"><a xlink:title=" ">
<path fill="none" stroke="#63b8ff" d="M626.77,-604.99C602.01,-595.07 560.88,-578.59 532.65,-567.28"/>
<polygon fill="#63b8ff" stroke="#63b8ff" points="533.84,-563.99 523.26,-563.52 531.24,-570.49 533.84,-563.99"/>
</a>
</g>
</g>
<!-- Node22 -->
<g id="Node000022" class="node">
<title>Node22</title>
<g id="a_Node000022"><a xlink:href="spec_2queue__types_8h.html" target="_top" xlink:title="ODP queue types.">
<polygon fill="white" stroke="#666666" points="703.5,-569 592.5,-569 592.5,-539 703.5,-539 703.5,-569"/>
<text text-anchor="start" x="600.5" y="-557" font-family="Helvetica,sans-Serif" font-size="10.00">odp/api/spec/queue</text>
<text text-anchor="middle" x="648" y="-546" font-family="Helvetica,sans-Serif" font-size="10.00">_types.h</text>
</a>
</g>
</g>
<!-- Node20&#45;&gt;Node22 -->
<g id="edge29_Node000020_Node000022" class="edge">
<title>Node20&#45;&gt;Node22</title>
<g id="a_edge29_Node000020_Node000022"><a xlink:title=" ">
<path fill="none" stroke="#63b8ff" d="M648,-604.87C648,-598.11 648,-588.35 648,-579.26"/>
<polygon fill="#63b8ff" stroke="#63b8ff" points="651.5,-579.11 648,-569.11 644.5,-579.11 651.5,-579.11"/>
</a>
</g>
</g>
<!-- Node22&#45;&gt;Node2 -->
<g id="edge30_Node000022_Node000002" class="edge">
<title>Node22&#45;&gt;Node2</title>
<g id="a_edge30_Node000022_Node000002"><a xlink:title=" ">
<path fill="none" stroke="#63b8ff" d="M592.34,-540.98C589.18,-540.31 586.05,-539.64 583,-539 470.43,-515.22 76,-549.06 76,-434 76,-434 76,-434 76,-129.5 76,-40.09 199.66,-17.06 281.43,-11.6"/>
<polygon fill="#63b8ff" stroke="#63b8ff" points="281.66,-15.09 291.43,-11.01 281.24,-8.11 281.66,-15.09"/>
</a>
</g>
</g>
<!-- Node22&#45;&gt;Node9 -->
<g id="edge56_Node000022_Node000009" class="edge">
<title>Node22&#45;&gt;Node9</title>
<g id="a_edge56_Node000022_Node000009"><a xlink:title=" ">
<path fill="none" stroke="#63b8ff" d="M683.36,-538.99C759.1,-507.71 939.98,-426.21 1061,-316 1089.87,-289.71 1095.36,-281.08 1119,-250 1172.04,-180.26 1207.06,-119.73 1148,-55 1133.24,-38.82 1112.03,-28.5 1091.6,-21.93"/>
<polygon fill="#63b8ff" stroke="#63b8ff" points="1092.56,-18.56 1081.97,-19.07 1090.57,-25.27 1092.56,-18.56"/>
</a>
</g>
</g>
<!-- Node23 -->
<g id="Node000023" class="node">
<title>Node23</title>
<g id="a_Node000023"><a xlink:href="event__vector__types_8h.html" target="_top" xlink:title="ODP event vector API type definitions.">
<polygon fill="white" stroke="#666666" points="395.5,-382 276.5,-382 276.5,-352 395.5,-352 395.5,-382"/>
<text text-anchor="start" x="284.5" y="-370" font-family="Helvetica,sans-Serif" font-size="10.00">odp/api/event_vector</text>
<text text-anchor="middle" x="336" y="-359" font-family="Helvetica,sans-Serif" font-size="10.00">_types.h</text>
</a>
</g>
</g>
<!-- Node22&#45;&gt;Node23 -->
<g id="edge31_Node000022_Node000023" class="edge">
<title>Node22&#45;&gt;Node23</title>
<g id="a_edge31_Node000022_Node000023"><a xlink:title=" ">
<path fill="none" stroke="#63b8ff" d="M624.29,-538.94C568.99,-506.15 431.39,-424.56 368.4,-387.21"/>
<polygon fill="#63b8ff" stroke="#63b8ff" points="370.06,-384.13 359.67,-382.04 366.49,-390.15 370.06,-384.13"/>
</a>
</g>
</g>
<!-- Node30 -->
<g id="Node000030" class="node">
<title>Node30</title>
<g id="a_Node000030"><a xlink:href="schedule__types_8h.html" target="_top" xlink:title="ODP schedule.">
<polygon fill="white" stroke="#666666" points="718,-503 578,-503 578,-484 718,-484 718,-503"/>
<text text-anchor="middle" x="648" y="-491" font-family="Helvetica,sans-Serif" font-size="10.00">odp/api/schedule_types.h</text>
</a>
</g>
</g>
<!-- Node22&#45;&gt;Node30 -->
<g id="edge43_Node000022_Node000030" class="edge">
<title>Node22&#45;&gt;Node30</title>
<g id="a_edge43_Node000022_Node000030"><a xlink:title=" ">
<path fill="none" stroke="#63b8ff" d="M648,-538.84C648,-531.21 648,-521.7 648,-513.45"/>
<polygon fill="#63b8ff" stroke="#63b8ff" points="651.5,-513.27 648,-503.27 644.5,-513.27 651.5,-513.27"/>
</a>
</g>
</g>
<!-- Node24 -->
<g id="Node000024" class="node">
<title>Node24</title>
<g id="a_Node000024"><a xlink:title=" ">
<polygon fill="#e0e0e0" stroke="#999999" points="395.5,-316 258.5,-316 258.5,-286 395.5,-286 395.5,-316"/>
<text text-anchor="start" x="266.5" y="-304" font-family="Helvetica,sans-Serif" font-size="10.00">odp/api/abi/event_vector</text>
<text text-anchor="middle" x="327" y="-293" font-family="Helvetica,sans-Serif" font-size="10.00">_types.h</text>
</a>
</g>
</g>
<!-- Node23&#45;&gt;Node24 -->
<g id="edge32_Node000023_Node000024" class="edge">
<title>Node23&#45;&gt;Node24</title>
<g id="a_edge32_Node000023_Node000024"><a xlink:title=" ">
<path fill="none" stroke="#63b8ff" d="M334,-351.8C332.94,-344.26 331.61,-334.78 330.39,-326.13"/>
<polygon fill="#63b8ff" stroke="#63b8ff" points="333.85,-325.58 328.99,-316.16 326.92,-326.55 333.85,-325.58"/>
</a>
</g>
</g>
<!-- Node25 -->
<g id="Node000025" class="node">
<title>Node25</title>
<g id="a_Node000025"><a xlink:title=" ">
<polygon fill="#e0e0e0" stroke="#999999" points="240,-310.5 104,-310.5 104,-291.5 240,-291.5 240,-310.5"/>
<text text-anchor="middle" x="172" y="-298.5" font-family="Helvetica,sans-Serif" font-size="10.00">odp/api/abi/pool_types.h</text>
</a>
</g>
</g>
<!-- Node23&#45;&gt;Node25 -->
<g id="edge33_Node000023_Node000025" class="edge">
<title>Node23&#45;&gt;Node25</title>
<g id="a_edge33_Node000023_Node000025"><a xlink:title=" ">
<path fill="none" stroke="#63b8ff" d="M300.01,-351.95C271.12,-340.68 230.97,-325.01 203.38,-314.25"/>
<polygon fill="#63b8ff" stroke="#63b8ff" points="204.41,-310.89 193.83,-310.52 201.87,-317.41 204.41,-310.89"/>
</a>
</g>
</g>
<!-- Node26 -->
<g id="Node000026" class="node">
<title>Node26</title>
<g id="a_Node000026"><a xlink:href="spec_2event__vector__types_8h.html" target="_top" xlink:title="ODP event vector API type definitions.">
<polygon fill="white" stroke="#666666" points="561.5,-316 452.5,-316 452.5,-286 561.5,-286 561.5,-316"/>
<text text-anchor="start" x="460.5" y="-304" font-family="Helvetica,sans-Serif" font-size="10.00">odp/api/spec/event</text>
<text text-anchor="middle" x="507" y="-293" font-family="Helvetica,sans-Serif" font-size="10.00">_vector_types.h</text>
</a>
</g>
</g>
<!-- Node23&#45;&gt;Node26 -->
<g id="edge34_Node000023_Node000026" class="edge">
<title>Node23&#45;&gt;Node26</title>
<g id="a_edge34_Node000023_Node000026"><a xlink:title=" ">
<path fill="none" stroke="#63b8ff" d="M373.53,-351.95C398.92,-342.45 432.66,-329.82 459.86,-319.64"/>
<polygon fill="#63b8ff" stroke="#63b8ff" points="461.42,-322.8 469.56,-316.01 458.97,-316.24 461.42,-322.8"/>
</a>
</g>
</g>
<!-- Node26&#45;&gt;Node2 -->
<g id="edge35_Node000026_Node000002" class="edge">
<title>Node26&#45;&gt;Node2</title>
<g id="a_edge35_Node000026_Node000002"><a xlink:title=" ">
<path fill="none" stroke="#63b8ff" d="M452.31,-288.26C352.73,-266.12 152,-217.64 152,-186.5 152,-186.5 152,-186.5 152,-129.5 152,-95.33 146.73,-79.06 171,-55 186.72,-39.41 237.35,-27.77 281.08,-20.32"/>
<polygon fill="#63b8ff" stroke="#63b8ff" points="281.86,-23.74 291.15,-18.65 280.72,-16.83 281.86,-23.74"/>
</a>
</g>
</g>
<!-- Node26&#45;&gt;Node9 -->
<g id="edge42_Node000026_Node000009" class="edge">
<title>Node26&#45;&gt;Node9</title>
<g id="a_edge42_Node000026_Node000009"><a xlink:title=" ">
<path fill="none" stroke="#63b8ff" d="M553.53,-285.98C606.53,-268.88 694.65,-237 763,-195 844.08,-145.18 844.3,-105.43 925,-55 946.57,-41.52 972.93,-30.3 993.71,-22.49"/>
<polygon fill="#63b8ff" stroke="#63b8ff" points="994.94,-25.77 1003.12,-19.04 992.53,-19.19 994.94,-25.77"/>
</a>
</g>
</g>
<!-- Node26&#45;&gt;Node13 -->
<g id="edge41_Node000026_Node000013" class="edge">
<title>Node26&#45;&gt;Node13</title>
<g id="a_edge41_Node000026_Node000013"><a xlink:title=" ">
<path fill="none" stroke="#63b8ff" d="M561.79,-288.26C565.92,-287.46 570.02,-286.7 574,-286 657.69,-271.26 754.75,-257.93 817.65,-249.79"/>
<polygon fill="#63b8ff" stroke="#63b8ff" points="818.36,-253.22 827.83,-248.47 817.46,-246.28 818.36,-253.22"/>
</a>
</g>
</g>
<!-- Node27 -->
<g id="Node000027" class="node">
<title>Node27</title>
<g id="a_Node000027"><a xlink:href="event__types_8h.html" target="_top" xlink:title="ODP event API type definitions.">
<polygon fill="white" stroke="#666666" points="451.5,-140 326.5,-140 326.5,-121 451.5,-121 451.5,-140"/>
<text text-anchor="middle" x="389" y="-128" font-family="Helvetica,sans-Serif" font-size="10.00">odp/api/event_types.h</text>
</a>
</g>
</g>
<!-- Node26&#45;&gt;Node27 -->
<g id="edge36_Node000026_Node000027" class="edge">
<title>Node26&#45;&gt;Node27</title>
<g id="a_edge36_Node000026_Node000027"><a xlink:title=" ">
<path fill="none" stroke="#63b8ff" d="M497.14,-285.92C475.57,-255.12 424.26,-181.85 400.92,-148.53"/>
<polygon fill="#63b8ff" stroke="#63b8ff" points="403.73,-146.44 395.13,-140.25 398,-150.45 403.73,-146.44"/>
</a>
</g>
</g>
<!-- Node28 -->
<g id="Node000028" class="node">
<title>Node28</title>
<g id="a_Node000028"><a xlink:title=" ">
<polygon fill="#e0e0e0" stroke="#999999" points="323.5,-79.5 180.5,-79.5 180.5,-60.5 323.5,-60.5 323.5,-79.5"/>
<text text-anchor="middle" x="252" y="-67.5" font-family="Helvetica,sans-Serif" font-size="10.00">odp/api/abi/event_types.h</text>
</a>
</g>
</g>
<!-- Node27&#45;&gt;Node28 -->
<g id="edge37_Node000027_Node000028" class="edge">
<title>Node27&#45;&gt;Node28</title>
<g id="a_edge37_Node000027_Node000028"><a xlink:title=" ">
<path fill="none" stroke="#63b8ff" d="M369.08,-120.99C346.05,-111.16 307.92,-94.88 281.46,-83.58"/>
<polygon fill="#63b8ff" stroke="#63b8ff" points="282.52,-80.22 271.95,-79.52 279.77,-86.66 282.52,-80.22"/>
</a>
</g>
</g>
<!-- Node29 -->
<g id="Node000029" class="node">
<title>Node29</title>
<g id="a_Node000029"><a xlink:href="spec_2event__types_8h.html" target="_top" xlink:title="ODP event API type definitions.">
<polygon fill="white" stroke="#666666" points="489.5,-85 380.5,-85 380.5,-55 489.5,-55 489.5,-85"/>
<text text-anchor="start" x="388.5" y="-73" font-family="Helvetica,sans-Serif" font-size="10.00">odp/api/spec/event</text>
<text text-anchor="middle" x="435" y="-62" font-family="Helvetica,sans-Serif" font-size="10.00">_types.h</text>
</a>
</g>
</g>
<!-- Node27&#45;&gt;Node29 -->
<g id="edge38_Node000027_Node000029" class="edge">
<title>Node27&#45;&gt;Node29</title>
<g id="a_edge38_Node000027_Node000029"><a xlink:title=" ">
<path fill="none" stroke="#63b8ff" d="M395.79,-120.87C401.51,-113.59 409.95,-102.85 417.54,-93.2"/>
<polygon fill="#63b8ff" stroke="#63b8ff" points="420.47,-95.14 423.9,-85.11 414.97,-90.81 420.47,-95.14"/>
</a>
</g>
</g>
<!-- Node29&#45;&gt;Node2 -->
<g id="edge39_Node000029_Node000002" class="edge">
<title>Node29&#45;&gt;Node2</title>
<g id="a_edge39_Node000029_Node000002"><a xlink:title=" ">
<path fill="none" stroke="#63b8ff" d="M414.91,-54.84C402.12,-45.83 385.6,-34.18 372.7,-25.09"/>
<polygon fill="#63b8ff" stroke="#63b8ff" points="374.63,-22.17 364.44,-19.27 370.59,-27.89 374.63,-22.17"/>
</a>
</g>
</g>
<!-- Node29&#45;&gt;Node9 -->
<g id="edge40_Node000029_Node000009" class="edge">
<title>Node29&#45;&gt;Node9</title>
<g id="a_edge40_Node000029_Node000009"><a xlink:title=" ">
<path fill="none" stroke="#63b8ff" d="M489.52,-63.52C515.41,-60.93 546.8,-57.79 575,-55 712.79,-41.36 874.11,-25.59 962.57,-16.97"/>
<polygon fill="#63b8ff" stroke="#63b8ff" points="963.12,-20.43 972.73,-15.98 962.44,-13.47 963.12,-20.43"/>
</a>
</g>
</g>
<!-- Node31 -->
<g id="Node000031" class="node">
<title>Node31</title>
<g id="a_Node000031"><a xlink:title=" ">
<polygon fill="#e0e0e0" stroke="#999999" points="636.5,-448 519.5,-448 519.5,-418 636.5,-418 636.5,-448"/>
<text text-anchor="start" x="527.5" y="-436" font-family="Helvetica,sans-Serif" font-size="10.00">odp/api/abi/schedule</text>
<text text-anchor="middle" x="578" y="-425" font-family="Helvetica,sans-Serif" font-size="10.00">_types.h</text>
</a>
</g>
</g>
<!-- Node30&#45;&gt;Node31 -->
<g id="edge44_Node000030_Node000031" class="edge">
<title>Node30&#45;&gt;Node31</title>
<g id="a_edge44_Node000030_Node000031"><a xlink:title=" ">
<path fill="none" stroke="#63b8ff" d="M637.67,-483.87C628.52,-476.22 614.81,-464.76 602.83,-454.75"/>
<polygon fill="#63b8ff" stroke="#63b8ff" points="604.81,-451.84 594.89,-448.11 600.32,-457.21 604.81,-451.84"/>
</a>
</g>
</g>
<!-- Node32 -->
<g id="Node000032" class="node">
<title>Node32</title>
<g id="a_Node000032"><a xlink:href="spec_2schedule__types_8h.html" target="_top" xlink:title="ODP schedule types.">
<polygon fill="white" stroke="#666666" points="779.5,-448 654.5,-448 654.5,-418 779.5,-418 779.5,-448"/>
<text text-anchor="start" x="662.5" y="-436" font-family="Helvetica,sans-Serif" font-size="10.00">odp/api/spec/schedule</text>
<text text-anchor="middle" x="717" y="-425" font-family="Helvetica,sans-Serif" font-size="10.00">_types.h</text>
</a>
</g>
</g>
<!-- Node30&#45;&gt;Node32 -->
<g id="edge45_Node000030_Node000032" class="edge">
<title>Node30&#45;&gt;Node32</title>
<g id="a_edge45_Node000030_Node000032"><a xlink:title=" ">
<path fill="none" stroke="#63b8ff" d="M658.18,-483.87C667.2,-476.22 680.72,-464.76 692.53,-454.75"/>
<polygon fill="#63b8ff" stroke="#63b8ff" points="694.99,-457.25 700.35,-448.11 690.46,-451.91 694.99,-457.25"/>
</a>
</g>
</g>
<!-- Node32&#45;&gt;Node2 -->
<g id="edge46_Node000032_Node000002" class="edge">
<title>Node32&#45;&gt;Node2</title>
<g id="a_edge46_Node000032_Node000002"><a xlink:title=" ">
<path fill="none" stroke="#63b8ff" d="M674.57,-417.86C619.32,-398.6 520.64,-361.29 443,-316 424.11,-304.98 423.86,-295.16 404,-286 333.87,-253.65 306.61,-276.32 234,-250 177.27,-229.44 114,-246.84 114,-186.5 114,-186.5 114,-186.5 114,-129.5 114,-92.73 121.15,-77.8 150,-55 170.26,-38.99 231.53,-26.92 281.32,-19.42"/>
<polygon fill="#63b8ff" stroke="#63b8ff" points="282.05,-22.85 291.43,-17.93 281.03,-15.93 282.05,-22.85"/>
</a>
</g>
</g>
<!-- Node32&#45;&gt;Node9 -->
<g id="edge55_Node000032_Node000009" class="edge">
<title>Node32&#45;&gt;Node9</title>
<g id="a_edge55_Node000032_Node000009"><a xlink:title=" ">
<path fill="none" stroke="#63b8ff" d="M779.74,-423.84C849.48,-411.71 961.53,-382.71 1032,-316 1121.65,-231.13 1193.85,-158.78 1127,-55 1116.84,-39.23 1099.57,-28.98 1082.34,-22.35"/>
<polygon fill="#63b8ff" stroke="#63b8ff" points="1083.41,-19.02 1072.81,-19.03 1081.1,-25.63 1083.41,-19.02"/>
</a>
</g>
</g>
<!-- Node32&#45;&gt;Node13 -->
<g id="edge48_Node000032_Node000013" class="edge">
<title>Node32&#45;&gt;Node13</title>
<g id="a_edge48_Node000032_Node000013"><a xlink:title=" ">
<path fill="none" stroke="#63b8ff" d="M743.87,-417.97C777.13,-399.22 833.15,-362.83 864,-316 875.15,-299.08 880.1,-276.14 882.29,-260.21"/>
<polygon fill="#63b8ff" stroke="#63b8ff" points="885.8,-260.36 883.45,-250.03 878.84,-259.57 885.8,-260.36"/>
</a>
</g>
</g>
<!-- Node32&#45;&gt;Node23 -->
<g id="edge47_Node000032_Node000023" class="edge">
<title>Node32&#45;&gt;Node23</title>
<g id="a_edge47_Node000032_Node000023"><a xlink:title=" ">
<path fill="none" stroke="#63b8ff" d="M654.2,-419.64C651.09,-419.07 648.01,-418.52 645,-418 540.9,-399.91 514.15,-399.82 410,-382 408.55,-381.75 407.08,-381.5 405.61,-381.24"/>
<polygon fill="#63b8ff" stroke="#63b8ff" points="406.2,-377.79 395.74,-379.49 404.98,-384.68 406.2,-377.79"/>
</a>
</g>
</g>
<!-- Node33 -->
<g id="Node000033" class="node">
<title>Node33</title>
<g id="a_Node000033"><a xlink:href="thrmask_8h.html" target="_top" xlink:title="ODP thread masks.">
<polygon fill="white" stroke="#666666" points="769.5,-376.5 664.5,-376.5 664.5,-357.5 769.5,-357.5 769.5,-376.5"/>
<text text-anchor="middle" x="717" y="-364.5" font-family="Helvetica,sans-Serif" font-size="10.00">odp/api/thrmask.h</text>
</a>
</g>
</g>
<!-- Node32&#45;&gt;Node33 -->
<g id="edge49_Node000032_Node000033" class="edge">
<title>Node32&#45;&gt;Node33</title>
<g id="a_edge49_Node000032_Node000033"><a xlink:title=" ">
<path fill="none" stroke="#63b8ff" d="M717,-417.8C717,-408.7 717,-396.79 717,-386.9"/>
<polygon fill="#63b8ff" stroke="#63b8ff" points="720.5,-386.84 717,-376.84 713.5,-386.84 720.5,-386.84"/>
</a>
</g>
</g>
<!-- Node34 -->
<g id="Node000034" class="node">
<title>Node34</title>
<g id="a_Node000034"><a xlink:title=" ">
<polygon fill="#e0e0e0" stroke="#999999" points="706.5,-310.5 583.5,-310.5 583.5,-291.5 706.5,-291.5 706.5,-310.5"/>
<text text-anchor="middle" x="645" y="-298.5" font-family="Helvetica,sans-Serif" font-size="10.00">odp/api/abi/thrmask.h</text>
</a>
</g>
</g>
<!-- Node33&#45;&gt;Node34 -->
<g id="edge50_Node000033_Node000034" class="edge">
<title>Node33&#45;&gt;Node34</title>
<g id="a_edge50_Node000033_Node000034"><a xlink:title=" ">
<path fill="none" stroke="#63b8ff" d="M707.29,-357.37C695.87,-347.21 676.68,-330.16 662.61,-317.65"/>
<polygon fill="#63b8ff" stroke="#63b8ff" points="664.82,-314.93 655.02,-310.91 660.17,-320.16 664.82,-314.93"/>
</a>
</g>
</g>
<!-- Node35 -->
<g id="Node000035" class="node">
<title>Node35</title>
<g id="a_Node000035"><a xlink:href="spec_2thrmask_8h.html" target="_top" xlink:title="ODP thread masks.">
<polygon fill="white" stroke="#666666" points="855.5,-310.5 724.5,-310.5 724.5,-291.5 855.5,-291.5 855.5,-310.5"/>
<text text-anchor="middle" x="790" y="-298.5" font-family="Helvetica,sans-Serif" font-size="10.00">odp/api/spec/thrmask.h</text>
</a>
</g>
</g>
<!-- Node33&#45;&gt;Node35 -->
<g id="edge51_Node000033_Node000035" class="edge">
<title>Node33&#45;&gt;Node35</title>
<g id="a_edge51_Node000033_Node000035"><a xlink:title=" ">
<path fill="none" stroke="#63b8ff" d="M726.85,-357.37C738.43,-347.21 757.88,-330.16 772.14,-317.65"/>
<polygon fill="#63b8ff" stroke="#63b8ff" points="774.63,-320.13 779.84,-310.91 770.02,-314.87 774.63,-320.13"/>
</a>
</g>
</g>
<!-- Node35&#45;&gt;Node2 -->
<g id="edge52_Node000035_Node000002" class="edge">
<title>Node35&#45;&gt;Node2</title>
<g id="a_edge52_Node000035_Node000002"><a xlink:title=" ">
<path fill="none" stroke="#63b8ff" d="M760.51,-291.45C711.84,-276.54 612.76,-242.74 539,-195 498.61,-168.86 500.54,-146.9 460,-121 424.04,-98.03 399.07,-117.13 371,-85 357.59,-69.65 353.41,-46.09 352.23,-29.59"/>
<polygon fill="#63b8ff" stroke="#63b8ff" points="355.72,-29.32 351.81,-19.48 348.73,-29.61 355.72,-29.32"/>
</a>
</g>
</g>
<!-- Node35&#45;&gt;Node9 -->
<g id="edge54_Node000035_Node000009" class="edge">
<title>Node35&#45;&gt;Node9</title>
<g id="a_edge54_Node000035_Node000009"><a xlink:title=" ">
<path fill="none" stroke="#63b8ff" d="M791.42,-291.45C795.42,-269.76 808.59,-211.75 840,-176 861.54,-151.48 881.44,-163.58 904,-140 933.27,-109.41 917.5,-85.37 947,-55 960.37,-41.24 978.91,-30.69 994.99,-23.32"/>
<polygon fill="#63b8ff" stroke="#63b8ff" points="996.83,-26.34 1004.61,-19.15 994.04,-19.92 996.83,-26.34"/>
</a>
</g>
</g>
<!-- Node35&#45;&gt;Node13 -->
<g id="edge53_Node000035_Node000013" class="edge">
<title>Node35&#45;&gt;Node13</title>
<g id="a_edge53_Node000035_Node000013"><a xlink:title=" ">
<path fill="none" stroke="#63b8ff" d="M803.87,-291.37C819,-281.95 843.46,-266.73 861.38,-255.58"/>
<polygon fill="#63b8ff" stroke="#63b8ff" points="863.43,-258.42 870.07,-250.17 859.73,-252.48 863.43,-258.42"/>
</a>
</g>
</g>
</g>
</svg>
