<?xml version="1.0" encoding="UTF-8" standalone="no"?>
<!DOCTYPE svg PUBLIC "-//W3C//DTD SVG 1.1//EN"
 "http://www.w3.org/Graphics/SVG/1.1/DTD/svg11.dtd">
<!-- Generated by graphviz version 2.43.0 (0)
 -->
<!-- Title: packet_types.h Pages: 1 -->
<svg width="1238pt" height="687pt"
 viewBox="0.00 0.00 1238.00 687.00" xmlns="http://www.w3.org/2000/svg" xmlns:xlink="http://www.w3.org/1999/xlink">
<g id="graph0" class="graph" transform="scale(1 1) rotate(0) translate(4 683)">
<title>packet_types.h</title>
<!-- Node1 -->
<g id="Node000001" class="node">
<title>Node1</title>
<g id="a_Node000001"><a xlink:title="ODP packet types.">
<polygon fill="#999999" stroke="#666666" points="962,-679 872,-679 872,-660 962,-660 962,-679"/>
<text text-anchor="middle" x="917" y="-667" font-family="Helvetica,sans-Serif" font-size="10.00">packet_types.h</text>
</a>
</g>
</g>
<!-- Node2 -->
<g id="Node000002" class="node">
<title>Node2</title>
<g id="a_Node000002"><a xlink:title=" ">
<polygon fill="#e0e0e0" stroke="#999999" points="418.5,-19 297.5,-19 297.5,0 418.5,0 418.5,-19"/>
<text text-anchor="middle" x="358" y="-7" font-family="Helvetica,sans-Serif" font-size="10.00">odp/visibility_begin.h</text>
</a>
</g>
</g>
<!-- Node1&#45;&gt;Node2 -->
<g id="edge1_Node000001_Node000002" class="edge">
<title>Node1&#45;&gt;Node2</title>
<g id="a_edge1_Node000001_Node000002"><a xlink:title=" ">
<path fill="none" stroke="#63b8ff" d="M871.84,-667.72C687.27,-663.93 0,-643.88 0,-555 0,-555 0,-555 0,-129.5 0,-89.87 15.55,-76.25 49,-55 87.42,-30.59 208.43,-19.06 287.13,-14.01"/>
<polygon fill="#63b8ff" stroke="#63b8ff" points="287.7,-17.48 297.46,-13.37 287.26,-10.49 287.7,-17.48"/>
</a>
</g>
</g>
<!-- Node3 -->
<g id="Node000003" class="node">
<title>Node3</title>
<g id="a_Node000003"><a xlink:href="proto__stats__types_8h.html" target="_top" xlink:title="ODP proto stats types.">
<polygon fill="white" stroke="#666666" points="1020,-382 910,-382 910,-352 1020,-352 1020,-382"/>
<text text-anchor="start" x="918" y="-370" font-family="Helvetica,sans-Serif" font-size="10.00">odp/api/proto_stats</text>
<text text-anchor="middle" x="965" y="-359" font-family="Helvetica,sans-Serif" font-size="10.00">_types.h</text>
</a>
</g>
</g>
<!-- Node1&#45;&gt;Node3 -->
<g id="edge2_Node000001_Node000003" class="edge">
<title>Node1&#45;&gt;Node3</title>
<g id="a_edge2_Node000001_Node000003"><a xlink:title=" ">
<path fill="none" stroke="#63b8ff" d="M919.09,-659.73C923.43,-640.75 933,-594.4 933,-555 933,-555 933,-555 933,-492.5 933,-456.57 945.66,-416.59 955.05,-391.87"/>
<polygon fill="#63b8ff" stroke="#63b8ff" points="958.43,-392.85 958.83,-382.26 951.91,-390.28 958.43,-392.85"/>
</a>
</g>
</g>
<!-- Node13 -->
<g id="Node000013" class="node">
<title>Node13</title>
<g id="a_Node000013"><a xlink:title=" ">
<polygon fill="#e0e0e0" stroke="#999999" points="945,-19 833,-19 833,0 945,0 945,-19"/>
<text text-anchor="middle" x="889" y="-7" font-family="Helvetica,sans-Serif" font-size="10.00">odp/visibility_end.h</text>
</a>
</g>
</g>
<!-- Node1&#45;&gt;Node13 -->
<g id="edge48_Node000001_Node000013" class="edge">
<title>Node1&#45;&gt;Node13</title>
<g id="a_edge48_Node000001_Node000013"><a xlink:title=" ">
<path fill="none" stroke="#63b8ff" d="M962.18,-661.78C1048.86,-647.62 1230,-611.29 1230,-555 1230,-555 1230,-555 1230,-129.5 1230,-74.08 1180.8,-77.17 1130,-55 1074,-30.56 1004.99,-19.54 955.19,-14.57"/>
<polygon fill="#63b8ff" stroke="#63b8ff" points="955.46,-11.08 945.18,-13.63 954.81,-18.05 955.46,-11.08"/>
</a>
</g>
</g>
<!-- Node14 -->
<g id="Node000014" class="node">
<title>Node14</title>
<g id="a_Node000014"><a xlink:href="queue__types_8h.html" target="_top" xlink:title="ODP queue.">
<polygon fill="white" stroke="#666666" points="851.5,-624 724.5,-624 724.5,-605 851.5,-605 851.5,-624"/>
<text text-anchor="middle" x="788" y="-612" font-family="Helvetica,sans-Serif" font-size="10.00">odp/api/queue_types.h</text>
</a>
</g>
</g>
<!-- Node1&#45;&gt;Node14 -->
<g id="edge18_Node000001_Node000014" class="edge">
<title>Node1&#45;&gt;Node14</title>
<g id="a_edge18_Node000001_Node000014"><a xlink:title=" ">
<path fill="none" stroke="#63b8ff" d="M896.27,-659.98C875.24,-651.34 842.45,-637.87 818.46,-628.02"/>
<polygon fill="#63b8ff" stroke="#63b8ff" points="819.68,-624.73 809.1,-624.17 817.02,-631.21 819.68,-624.73"/>
</a>
</g>
</g>
<!-- Node4 -->
<g id="Node000004" class="node">
<title>Node4</title>
<g id="a_Node000004"><a xlink:title=" ">
<polygon fill="#e0e0e0" stroke="#999999" points="1164,-316 1036,-316 1036,-286 1164,-286 1164,-316"/>
<text text-anchor="start" x="1044" y="-304" font-family="Helvetica,sans-Serif" font-size="10.00">odp/api/abi/proto_stats</text>
<text text-anchor="middle" x="1100" y="-293" font-family="Helvetica,sans-Serif" font-size="10.00">_types.h</text>
</a>
</g>
</g>
<!-- Node3&#45;&gt;Node4 -->
<g id="edge3_Node000003_Node000004" class="edge">
<title>Node3&#45;&gt;Node4</title>
<g id="a_edge3_Node000003_Node000004"><a xlink:title=" ">
<path fill="none" stroke="#63b8ff" d="M994.63,-351.95C1014.23,-342.66 1040.14,-330.38 1061.37,-320.32"/>
<polygon fill="#63b8ff" stroke="#63b8ff" points="1062.91,-323.46 1070.44,-316.01 1059.91,-317.13 1062.91,-323.46"/>
</a>
</g>
</g>
<!-- Node5 -->
<g id="Node000005" class="node">
<title>Node5</title>
<g id="a_Node000005"><a xlink:href="spec_2proto__stats__types_8h.html" target="_top" xlink:title="ODP proto stats types.">
<polygon fill="white" stroke="#666666" points="1017.5,-316 910.5,-316 910.5,-286 1017.5,-286 1017.5,-316"/>
<text text-anchor="start" x="918.5" y="-304" font-family="Helvetica,sans-Serif" font-size="10.00">odp/api/spec/proto</text>
<text text-anchor="middle" x="964" y="-293" font-family="Helvetica,sans-Serif" font-size="10.00">_stats_types.h</text>
</a>
</g>
</g>
<!-- Node3&#45;&gt;Node5 -->
<g id="edge4_Node000003_Node000005" class="edge">
<title>Node3&#45;&gt;Node5</title>
<g id="a_edge4_Node000003_Node000005"><a xlink:title=" ">
<path fill="none" stroke="#63b8ff" d="M964.78,-351.8C964.66,-344.34 964.52,-334.99 964.38,-326.41"/>
<polygon fill="#63b8ff" stroke="#63b8ff" points="967.88,-326.11 964.22,-316.16 960.88,-326.22 967.88,-326.11"/>
</a>
</g>
</g>
<!-- Node5&#45;&gt;Node2 -->
<g id="edge5_Node000005_Node000002" class="edge">
<title>Node5&#45;&gt;Node2</title>
<g id="a_edge5_Node000005_Node000002"><a xlink:title=" ">
<path fill="none" stroke="#63b8ff" d="M945.43,-285.94C912,-261.13 838.84,-209.08 771,-176 727.41,-154.75 712.76,-158.65 668,-140 650.2,-132.58 646.67,-128.71 629,-121 588.37,-103.28 575.64,-104.83 536,-85 513.5,-73.74 510.72,-65.81 488,-55 459.29,-41.33 425.23,-29.83 399.17,-21.95"/>
<polygon fill="#63b8ff" stroke="#63b8ff" points="399.84,-18.5 389.25,-19.01 397.84,-25.21 399.84,-18.5"/>
</a>
</g>
</g>
<!-- Node6 -->
<g id="Node000006" class="node">
<title>Node6</title>
<g id="a_Node000006"><a xlink:href="std__types_8h.html" target="_top" xlink:title="Standard C language types and definitions for ODP.">
<polygon fill="white" stroke="#666666" points="688,-250 576,-250 576,-231 688,-231 688,-250"/>
<text text-anchor="middle" x="632" y="-238" font-family="Helvetica,sans-Serif" font-size="10.00">odp/api/std_types.h</text>
</a>
</g>
</g>
<!-- Node5&#45;&gt;Node6 -->
<g id="edge6_Node000005_Node000006" class="edge">
<title>Node5&#45;&gt;Node6</title>
<g id="a_edge6_Node000005_Node000006"><a xlink:title=" ">
<path fill="none" stroke="#63b8ff" d="M910.29,-290.54C850.05,-279.92 752.68,-262.76 690.54,-251.81"/>
<polygon fill="#63b8ff" stroke="#63b8ff" points="690.96,-248.33 680.5,-250.05 689.74,-255.23 690.96,-248.33"/>
</a>
</g>
</g>
<!-- Node5&#45;&gt;Node13 -->
<g id="edge17_Node000005_Node000013" class="edge">
<title>Node5&#45;&gt;Node13</title>
<g id="a_edge17_Node000005_Node000013"><a xlink:title=" ">
<path fill="none" stroke="#63b8ff" d="M964.21,-285.67C964.5,-264.14 965,-222.17 965,-186.5 965,-186.5 965,-186.5 965,-129.5 965,-94.71 960.28,-83.96 941,-55 933.18,-43.25 921.43,-32.83 911.07,-25.03"/>
<polygon fill="#63b8ff" stroke="#63b8ff" points="912.99,-22.1 902.82,-19.12 908.91,-27.79 912.99,-22.1"/>
</a>
</g>
</g>
<!-- Node7 -->
<g id="Node000007" class="node">
<title>Node7</title>
<g id="a_Node000007"><a xlink:title=" ">
<polygon fill="#e0e0e0" stroke="#999999" points="607,-195 477,-195 477,-176 607,-176 607,-195"/>
<text text-anchor="middle" x="542" y="-183" font-family="Helvetica,sans-Serif" font-size="10.00">odp/api/abi/std_types.h</text>
</a>
</g>
</g>
<!-- Node6&#45;&gt;Node7 -->
<g id="edge7_Node000006_Node000007" class="edge">
<title>Node6&#45;&gt;Node7</title>
<g id="a_edge7_Node000006_Node000007"><a xlink:title=" ">
<path fill="none" stroke="#63b8ff" d="M617.54,-230.98C603.58,-222.77 582.21,-210.18 565.75,-200.49"/>
<polygon fill="#63b8ff" stroke="#63b8ff" points="567.12,-197.23 556.72,-195.17 563.56,-203.26 567.12,-197.23"/>
</a>
</g>
</g>
<!-- Node8 -->
<g id="Node000008" class="node">
<title>Node8</title>
<g id="a_Node000008"><a xlink:href="spec_2std__types_8h.html" target="_top" xlink:title="Common types and definitions for ODP API files.">
<polygon fill="white" stroke="#666666" points="762.5,-195 625.5,-195 625.5,-176 762.5,-176 762.5,-195"/>
<text text-anchor="middle" x="694" y="-183" font-family="Helvetica,sans-Serif" font-size="10.00">odp/api/spec/std_types.h</text>
</a>
</g>
</g>
<!-- Node6&#45;&gt;Node8 -->
<g id="edge8_Node000006_Node000008" class="edge">
<title>Node6&#45;&gt;Node8</title>
<g id="a_edge8_Node000006_Node000008"><a xlink:title=" ">
<path fill="none" stroke="#63b8ff" d="M641.96,-230.98C651.13,-223.15 664.94,-211.34 676.03,-201.86"/>
<polygon fill="#63b8ff" stroke="#63b8ff" points="678.53,-204.33 683.86,-195.17 673.98,-199.01 678.53,-204.33"/>
</a>
</g>
</g>
<!-- Node8&#45;&gt;Node2 -->
<g id="edge9_Node000008_Node000002" class="edge">
<title>Node8&#45;&gt;Node2</title>
<g id="a_edge9_Node000008_Node000002"><a xlink:title=" ">
<path fill="none" stroke="#63b8ff" d="M655.2,-175.93C627.1,-168.76 588.8,-156.95 558,-140 506,-111.38 505.29,-86.53 455,-55 434.45,-42.12 409.56,-30.78 390.14,-22.77"/>
<polygon fill="#63b8ff" stroke="#63b8ff" points="391.39,-19.5 380.81,-19 388.77,-25.99 391.39,-19.5"/>
</a>
</g>
</g>
<!-- Node9 -->
<g id="Node000009" class="node">
<title>Node9</title>
<g id="a_Node000009"><a xlink:title=" ">
<polygon fill="#e0e0e0" stroke="#999999" points="620.5,-140 567.5,-140 567.5,-121 620.5,-121 620.5,-140"/>
<text text-anchor="middle" x="594" y="-128" font-family="Helvetica,sans-Serif" font-size="10.00">stdint.h</text>
</a>
</g>
</g>
<!-- Node8&#45;&gt;Node9 -->
<g id="edge10_Node000008_Node000009" class="edge">
<title>Node8&#45;&gt;Node9</title>
<g id="a_edge10_Node000008_Node000009"><a xlink:title=" ">
<path fill="none" stroke="#63b8ff" d="M677.93,-175.98C662.14,-167.61 637.78,-154.7 619.37,-144.95"/>
<polygon fill="#63b8ff" stroke="#63b8ff" points="620.83,-141.76 610.36,-140.17 617.56,-147.95 620.83,-141.76"/>
</a>
</g>
</g>
<!-- Node10 -->
<g id="Node000010" class="node">
<title>Node10</title>
<g id="a_Node000010"><a xlink:href="align_8h.html" target="_top" xlink:title="ODP alignments.">
<polygon fill="white" stroke="#666666" points="766.5,-140 677.5,-140 677.5,-121 766.5,-121 766.5,-140"/>
<text text-anchor="middle" x="722" y="-128" font-family="Helvetica,sans-Serif" font-size="10.00">odp/api/align.h</text>
</a>
</g>
</g>
<!-- Node8&#45;&gt;Node10 -->
<g id="edge11_Node000008_Node000010" class="edge">
<title>Node8&#45;&gt;Node10</title>
<g id="a_edge11_Node000008_Node000010"><a xlink:title=" ">
<path fill="none" stroke="#63b8ff" d="M698.62,-175.75C702.46,-168.49 708.02,-157.95 712.76,-148.98"/>
<polygon fill="#63b8ff" stroke="#63b8ff" points="715.89,-150.57 717.46,-140.09 709.7,-147.3 715.89,-150.57"/>
</a>
</g>
</g>
<!-- Node8&#45;&gt;Node13 -->
<g id="edge16_Node000008_Node000013" class="edge">
<title>Node8&#45;&gt;Node13</title>
<g id="a_edge16_Node000008_Node000013"><a xlink:title=" ">
<path fill="none" stroke="#63b8ff" d="M715.22,-175.95C732.56,-168.27 757.05,-155.79 775,-140 810.11,-109.12 805.24,-89.32 837,-55 846.96,-44.23 859.41,-33.5 869.62,-25.28"/>
<polygon fill="#63b8ff" stroke="#63b8ff" points="871.89,-27.95 877.58,-19.01 867.56,-22.45 871.89,-27.95"/>
</a>
</g>
</g>
<!-- Node11 -->
<g id="Node000011" class="node">
<title>Node11</title>
<g id="a_Node000011"><a xlink:title=" ">
<polygon fill="#e0e0e0" stroke="#999999" points="652.5,-79.5 545.5,-79.5 545.5,-60.5 652.5,-60.5 652.5,-79.5"/>
<text text-anchor="middle" x="599" y="-67.5" font-family="Helvetica,sans-Serif" font-size="10.00">odp/api/abi/align.h</text>
</a>
</g>
</g>
<!-- Node10&#45;&gt;Node11 -->
<g id="edge12_Node000010_Node000011" class="edge">
<title>Node10&#45;&gt;Node11</title>
<g id="a_edge12_Node000010_Node000011"><a xlink:title=" ">
<path fill="none" stroke="#63b8ff" d="M704.11,-120.99C683.62,-111.25 649.81,-95.16 626.08,-83.88"/>
<polygon fill="#63b8ff" stroke="#63b8ff" points="627.44,-80.65 616.91,-79.52 624.43,-86.97 627.44,-80.65"/>
</a>
</g>
</g>
<!-- Node12 -->
<g id="Node000012" class="node">
<title>Node12</title>
<g id="a_Node000012"><a xlink:href="spec_2align_8h.html" target="_top" xlink:title="ODP alignments.">
<polygon fill="white" stroke="#666666" points="785,-79.5 671,-79.5 671,-60.5 785,-60.5 785,-79.5"/>
<text text-anchor="middle" x="728" y="-67.5" font-family="Helvetica,sans-Serif" font-size="10.00">odp/api/spec/align.h</text>
</a>
</g>
</g>
<!-- Node10&#45;&gt;Node12 -->
<g id="edge13_Node000010_Node000012" class="edge">
<title>Node10&#45;&gt;Node12</title>
<g id="a_edge13_Node000010_Node000012"><a xlink:title=" ">
<path fill="none" stroke="#63b8ff" d="M722.89,-120.87C723.72,-112.75 724.99,-100.31 726.06,-89.89"/>
<polygon fill="#63b8ff" stroke="#63b8ff" points="729.57,-89.97 727.11,-79.67 722.61,-89.26 729.57,-89.97"/>
</a>
</g>
</g>
<!-- Node12&#45;&gt;Node2 -->
<g id="edge14_Node000012_Node000002" class="edge">
<title>Node12&#45;&gt;Node2</title>
<g id="a_edge14_Node000012_Node000002"><a xlink:title=" ">
<path fill="none" stroke="#63b8ff" d="M689.11,-60.46C679.91,-58.56 670.13,-56.62 661,-55 581.66,-40.9 490.06,-27.9 428.53,-19.63"/>
<polygon fill="#63b8ff" stroke="#63b8ff" points="428.91,-16.16 418.54,-18.3 427.98,-23.09 428.91,-16.16"/>
</a>
</g>
</g>
<!-- Node12&#45;&gt;Node13 -->
<g id="edge15_Node000012_Node000013" class="edge">
<title>Node12&#45;&gt;Node13</title>
<g id="a_edge15_Node000012_Node000013"><a xlink:title=" ">
<path fill="none" stroke="#63b8ff" d="M751.41,-60.49C778.95,-50.49 824.87,-33.8 856.01,-22.49"/>
<polygon fill="#63b8ff" stroke="#63b8ff" points="857.36,-25.72 865.56,-19.02 854.97,-19.14 857.36,-25.72"/>
</a>
</g>
</g>
<!-- Node15 -->
<g id="Node000015" class="node">
<title>Node15</title>
<g id="a_Node000015"><a xlink:title=" ">
<polygon fill="#e0e0e0" stroke="#999999" points="860.5,-563.5 715.5,-563.5 715.5,-544.5 860.5,-544.5 860.5,-563.5"/>
<text text-anchor="middle" x="788" y="-551.5" font-family="Helvetica,sans-Serif" font-size="10.00">odp/api/abi/queue_types.h</text>
</a>
</g>
</g>
<!-- Node14&#45;&gt;Node15 -->
<g id="edge19_Node000014_Node000015" class="edge">
<title>Node14&#45;&gt;Node15</title>
<g id="a_edge19_Node000014_Node000015"><a xlink:title=" ">
<path fill="none" stroke="#63b8ff" d="M788,-604.87C788,-596.75 788,-584.31 788,-573.89"/>
<polygon fill="#63b8ff" stroke="#63b8ff" points="791.5,-573.67 788,-563.67 784.5,-573.67 791.5,-573.67"/>
</a>
</g>
</g>
<!-- Node16 -->
<g id="Node000016" class="node">
<title>Node16</title>
<g id="a_Node000016"><a xlink:href="spec_2queue__types_8h.html" target="_top" xlink:title="ODP queue types.">
<polygon fill="white" stroke="#666666" points="632.5,-569 521.5,-569 521.5,-539 632.5,-539 632.5,-569"/>
<text text-anchor="start" x="529.5" y="-557" font-family="Helvetica,sans-Serif" font-size="10.00">odp/api/spec/queue</text>
<text text-anchor="middle" x="577" y="-546" font-family="Helvetica,sans-Serif" font-size="10.00">_types.h</text>
</a>
</g>
</g>
<!-- Node14&#45;&gt;Node16 -->
<g id="edge20_Node000014_Node000016" class="edge">
<title>Node14&#45;&gt;Node16</title>
<g id="a_edge20_Node000014_Node000016"><a xlink:title=" ">
<path fill="none" stroke="#63b8ff" d="M757.32,-604.99C726.02,-596.32 676.63,-582.62 637.45,-571.76"/>
<polygon fill="#63b8ff" stroke="#63b8ff" points="638.3,-568.36 627.73,-569.06 636.43,-575.11 638.3,-568.36"/>
</a>
</g>
</g>
<!-- Node16&#45;&gt;Node2 -->
<g id="edge21_Node000016_Node000002" class="edge">
<title>Node16&#45;&gt;Node2</title>
<g id="a_edge21_Node000016_Node000002"><a xlink:title=" ">
<path fill="none" stroke="#63b8ff" d="M521.35,-552.41C383.63,-549.45 38,-532.23 38,-434 38,-434 38,-434 38,-129.5 38,-88.86 56.55,-76.54 91,-55 122.88,-35.06 219.25,-22.66 287.01,-16.17"/>
<polygon fill="#63b8ff" stroke="#63b8ff" points="287.58,-19.63 297.21,-15.21 286.93,-12.66 287.58,-19.63"/>
</a>
</g>
</g>
<!-- Node16&#45;&gt;Node13 -->
<g id="edge47_Node000016_Node000013" class="edge">
<title>Node16&#45;&gt;Node13</title>
<g id="a_edge47_Node000016_Node000013"><a xlink:title=" ">
<path fill="none" stroke="#63b8ff" d="M632.66,-545.16C784.05,-523.45 1192,-462.34 1192,-434 1192,-434 1192,-434 1192,-129.5 1192,-77.39 1034.8,-38.61 946.86,-20.99"/>
<polygon fill="#63b8ff" stroke="#63b8ff" points="947.5,-17.55 937.01,-19.05 946.14,-24.42 947.5,-17.55"/>
</a>
</g>
</g>
<!-- Node17 -->
<g id="Node000017" class="node">
<title>Node17</title>
<g id="a_Node000017"><a xlink:href="event__vector__types_8h.html" target="_top" xlink:title="ODP event vector API type definitions.">
<polygon fill="white" stroke="#666666" points="522.5,-382 403.5,-382 403.5,-352 522.5,-352 522.5,-382"/>
<text text-anchor="start" x="411.5" y="-370" font-family="Helvetica,sans-Serif" font-size="10.00">odp/api/event_vector</text>
<text text-anchor="middle" x="463" y="-359" font-family="Helvetica,sans-Serif" font-size="10.00">_types.h</text>
</a>
</g>
</g>
<!-- Node16&#45;&gt;Node17 -->
<g id="edge22_Node000016_Node000017" class="edge">
<title>Node16&#45;&gt;Node17</title>
<g id="a_edge22_Node000016_Node000017"><a xlink:title=" ">
<path fill="none" stroke="#63b8ff" d="M543.71,-538.84C527.8,-530.53 509.71,-518.57 498,-503 473.22,-470.06 465.92,-421.22 463.81,-392.2"/>
<polygon fill="#63b8ff" stroke="#63b8ff" points="467.3,-391.91 463.23,-382.13 460.31,-392.31 467.3,-391.91"/>
</a>
</g>
</g>
<!-- Node24 -->
<g id="Node000024" class="node">
<title>Node24</title>
<g id="a_Node000024"><a xlink:href="schedule__types_8h.html" target="_top" xlink:title="ODP schedule.">
<polygon fill="white" stroke="#666666" points="647,-503 507,-503 507,-484 647,-484 647,-503"/>
<text text-anchor="middle" x="577" y="-491" font-family="Helvetica,sans-Serif" font-size="10.00">odp/api/schedule_types.h</text>
</a>
</g>
</g>
<!-- Node16&#45;&gt;Node24 -->
<g id="edge34_Node000016_Node000024" class="edge">
<title>Node16&#45;&gt;Node24</title>
<g id="a_edge34_Node000016_Node000024"><a xlink:title=" ">
<path fill="none" stroke="#63b8ff" d="M577,-538.84C577,-531.21 577,-521.7 577,-513.45"/>
<polygon fill="#63b8ff" stroke="#63b8ff" points="580.5,-513.27 577,-503.27 573.5,-513.27 580.5,-513.27"/>
</a>
</g>
</g>
<!-- Node18 -->
<g id="Node000018" class="node">
<title>Node18</title>
<g id="a_Node000018"><a xlink:title=" ">
<polygon fill="#e0e0e0" stroke="#999999" points="242.5,-316 105.5,-316 105.5,-286 242.5,-286 242.5,-316"/>
<text text-anchor="start" x="113.5" y="-304" font-family="Helvetica,sans-Serif" font-size="10.00">odp/api/abi/event_vector</text>
<text text-anchor="middle" x="174" y="-293" font-family="Helvetica,sans-Serif" font-size="10.00">_types.h</text>
</a>
</g>
</g>
<!-- Node17&#45;&gt;Node18 -->
<g id="edge23_Node000017_Node000018" class="edge">
<title>Node17&#45;&gt;Node18</title>
<g id="a_edge23_Node000017_Node000018"><a xlink:title=" ">
<path fill="none" stroke="#63b8ff" d="M403.47,-352.82C358.18,-342.79 295.61,-328.93 247.24,-318.22"/>
<polygon fill="#63b8ff" stroke="#63b8ff" points="247.98,-314.8 237.46,-316.05 246.47,-321.63 247.98,-314.8"/>
</a>
</g>
</g>
<!-- Node19 -->
<g id="Node000019" class="node">
<title>Node19</title>
<g id="a_Node000019"><a xlink:title=" ">
<polygon fill="#e0e0e0" stroke="#999999" points="397,-310.5 261,-310.5 261,-291.5 397,-291.5 397,-310.5"/>
<text text-anchor="middle" x="329" y="-298.5" font-family="Helvetica,sans-Serif" font-size="10.00">odp/api/abi/pool_types.h</text>
</a>
</g>
</g>
<!-- Node17&#45;&gt;Node19 -->
<g id="edge24_Node000017_Node000019" class="edge">
<title>Node17&#45;&gt;Node19</title>
<g id="a_edge24_Node000017_Node000019"><a xlink:title=" ">
<path fill="none" stroke="#63b8ff" d="M433.59,-351.95C410.51,-340.93 378.62,-325.7 356.14,-314.96"/>
<polygon fill="#63b8ff" stroke="#63b8ff" points="357.37,-311.67 346.83,-310.52 354.35,-317.99 357.37,-311.67"/>
</a>
</g>
</g>
<!-- Node20 -->
<g id="Node000020" class="node">
<title>Node20</title>
<g id="a_Node000020"><a xlink:href="spec_2event__vector__types_8h.html" target="_top" xlink:title="ODP event vector API type definitions.">
<polygon fill="white" stroke="#666666" points="524.5,-316 415.5,-316 415.5,-286 524.5,-286 524.5,-316"/>
<text text-anchor="start" x="423.5" y="-304" font-family="Helvetica,sans-Serif" font-size="10.00">odp/api/spec/event</text>
<text text-anchor="middle" x="470" y="-293" font-family="Helvetica,sans-Serif" font-size="10.00">_vector_types.h</text>
</a>
</g>
</g>
<!-- Node17&#45;&gt;Node20 -->
<g id="edge25_Node000017_Node000020" class="edge">
<title>Node17&#45;&gt;Node20</title>
<g id="a_edge25_Node000017_Node000020"><a xlink:title=" ">
<path fill="none" stroke="#63b8ff" d="M464.55,-351.8C465.38,-344.26 466.41,-334.78 467.36,-326.13"/>
<polygon fill="#63b8ff" stroke="#63b8ff" points="470.84,-326.49 468.45,-316.16 463.88,-325.72 470.84,-326.49"/>
</a>
</g>
</g>
<!-- Node20&#45;&gt;Node2 -->
<g id="edge26_Node000020_Node000002" class="edge">
<title>Node20&#45;&gt;Node2</title>
<g id="a_edge26_Node000020_Node000002"><a xlink:title=" ">
<path fill="none" stroke="#63b8ff" d="M415.19,-286.76C329.93,-262.88 168.28,-203.64 100,-85 93.35,-73.44 91.41,-65.2 100,-55 123.53,-27.06 219.24,-16.66 287.2,-12.79"/>
<polygon fill="#63b8ff" stroke="#63b8ff" points="287.63,-16.27 297.43,-12.25 287.26,-9.28 287.63,-16.27"/>
</a>
</g>
</g>
<!-- Node20&#45;&gt;Node6 -->
<g id="edge32_Node000020_Node000006" class="edge">
<title>Node20&#45;&gt;Node6</title>
<g id="a_edge32_Node000020_Node000006"><a xlink:title=" ">
<path fill="none" stroke="#63b8ff" d="M508.8,-285.99C536.19,-276.1 572.52,-262.98 598.61,-253.56"/>
<polygon fill="#63b8ff" stroke="#63b8ff" points="599.86,-256.83 608.08,-250.14 597.48,-250.24 599.86,-256.83"/>
</a>
</g>
</g>
<!-- Node20&#45;&gt;Node13 -->
<g id="edge33_Node000020_Node000013" class="edge">
<title>Node20&#45;&gt;Node13</title>
<g id="a_edge33_Node000020_Node000013"><a xlink:title=" ">
<path fill="none" stroke="#63b8ff" d="M485.15,-285.9C503.21,-269.93 534.97,-244.41 567,-231 651.93,-195.45 694.41,-246.09 771,-195 833.19,-153.52 869.45,-66.94 882.93,-28.99"/>
<polygon fill="#63b8ff" stroke="#63b8ff" points="886.33,-29.86 886.26,-19.27 879.71,-27.6 886.33,-29.86"/>
</a>
</g>
</g>
<!-- Node21 -->
<g id="Node000021" class="node">
<title>Node21</title>
<g id="a_Node000021"><a xlink:href="event__types_8h.html" target="_top" xlink:title="ODP event API type definitions.">
<polygon fill="white" stroke="#666666" points="412.5,-140 287.5,-140 287.5,-121 412.5,-121 412.5,-140"/>
<text text-anchor="middle" x="350" y="-128" font-family="Helvetica,sans-Serif" font-size="10.00">odp/api/event_types.h</text>
</a>
</g>
</g>
<!-- Node20&#45;&gt;Node21 -->
<g id="edge27_Node000020_Node000021" class="edge">
<title>Node20&#45;&gt;Node21</title>
<g id="a_edge27_Node000020_Node000021"><a xlink:title=" ">
<path fill="none" stroke="#63b8ff" d="M459.98,-285.92C438.04,-255.12 385.86,-181.85 362.13,-148.53"/>
<polygon fill="#63b8ff" stroke="#63b8ff" points="364.89,-146.37 356.23,-140.25 359.19,-150.43 364.89,-146.37"/>
</a>
</g>
</g>
<!-- Node22 -->
<g id="Node000022" class="node">
<title>Node22</title>
<g id="a_Node000022"><a xlink:title=" ">
<polygon fill="#e0e0e0" stroke="#999999" points="285.5,-79.5 142.5,-79.5 142.5,-60.5 285.5,-60.5 285.5,-79.5"/>
<text text-anchor="middle" x="214" y="-67.5" font-family="Helvetica,sans-Serif" font-size="10.00">odp/api/abi/event_types.h</text>
</a>
</g>
</g>
<!-- Node21&#45;&gt;Node22 -->
<g id="edge28_Node000021_Node000022" class="edge">
<title>Node21&#45;&gt;Node22</title>
<g id="a_edge28_Node000021_Node000022"><a xlink:title=" ">
<path fill="none" stroke="#63b8ff" d="M330.22,-120.99C307.36,-111.16 269.51,-94.88 243.24,-83.58"/>
<polygon fill="#63b8ff" stroke="#63b8ff" points="244.37,-80.25 233.8,-79.52 241.6,-86.68 244.37,-80.25"/>
</a>
</g>
</g>
<!-- Node23 -->
<g id="Node000023" class="node">
<title>Node23</title>
<g id="a_Node000023"><a xlink:href="spec_2event__types_8h.html" target="_top" xlink:title="ODP event API type definitions.">
<polygon fill="white" stroke="#666666" points="412.5,-85 303.5,-85 303.5,-55 412.5,-55 412.5,-85"/>
<text text-anchor="start" x="311.5" y="-73" font-family="Helvetica,sans-Serif" font-size="10.00">odp/api/spec/event</text>
<text text-anchor="middle" x="358" y="-62" font-family="Helvetica,sans-Serif" font-size="10.00">_types.h</text>
</a>
</g>
</g>
<!-- Node21&#45;&gt;Node23 -->
<g id="edge29_Node000021_Node000023" class="edge">
<title>Node21&#45;&gt;Node23</title>
<g id="a_edge29_Node000021_Node000023"><a xlink:title=" ">
<path fill="none" stroke="#63b8ff" d="M351.18,-120.87C352.11,-114.11 353.44,-104.35 354.68,-95.26"/>
<polygon fill="#63b8ff" stroke="#63b8ff" points="358.18,-95.5 356.07,-85.11 351.25,-94.55 358.18,-95.5"/>
</a>
</g>
</g>
<!-- Node23&#45;&gt;Node2 -->
<g id="edge30_Node000023_Node000002" class="edge">
<title>Node23&#45;&gt;Node2</title>
<g id="a_edge30_Node000023_Node000002"><a xlink:title=" ">
<path fill="none" stroke="#63b8ff" d="M358,-54.84C358,-47.21 358,-37.7 358,-29.45"/>
<polygon fill="#63b8ff" stroke="#63b8ff" points="361.5,-29.27 358,-19.27 354.5,-29.27 361.5,-29.27"/>
</a>
</g>
</g>
<!-- Node23&#45;&gt;Node13 -->
<g id="edge31_Node000023_Node000013" class="edge">
<title>Node23&#45;&gt;Node13</title>
<g id="a_edge31_Node000023_Node000013"><a xlink:title=" ">
<path fill="none" stroke="#63b8ff" d="M412.83,-62.96C511.04,-52.14 716.61,-29.49 822.62,-17.81"/>
<polygon fill="#63b8ff" stroke="#63b8ff" points="823.32,-21.26 832.88,-16.68 822.55,-14.3 823.32,-21.26"/>
</a>
</g>
</g>
<!-- Node25 -->
<g id="Node000025" class="node">
<title>Node25</title>
<g id="a_Node000025"><a xlink:title=" ">
<polygon fill="#e0e0e0" stroke="#999999" points="751.5,-448 634.5,-448 634.5,-418 751.5,-418 751.5,-448"/>
<text text-anchor="start" x="642.5" y="-436" font-family="Helvetica,sans-Serif" font-size="10.00">odp/api/abi/schedule</text>
<text text-anchor="middle" x="693" y="-425" font-family="Helvetica,sans-Serif" font-size="10.00">_types.h</text>
</a>
</g>
</g>
<!-- Node24&#45;&gt;Node25 -->
<g id="edge35_Node000024_Node000025" class="edge">
<title>Node24&#45;&gt;Node25</title>
<g id="a_edge35_Node000024_Node000025"><a xlink:title=" ">
<path fill="none" stroke="#63b8ff" d="M594.12,-483.87C610.29,-475.71 635.1,-463.2 655.82,-452.75"/>
<polygon fill="#63b8ff" stroke="#63b8ff" points="657.66,-455.74 665.01,-448.11 654.51,-449.49 657.66,-455.74"/>
</a>
</g>
</g>
<!-- Node26 -->
<g id="Node000026" class="node">
<title>Node26</title>
<g id="a_Node000026"><a xlink:href="spec_2schedule__types_8h.html" target="_top" xlink:title="ODP schedule types.">
<polygon fill="white" stroke="#666666" points="616.5,-448 491.5,-448 491.5,-418 616.5,-418 616.5,-448"/>
<text text-anchor="start" x="499.5" y="-436" font-family="Helvetica,sans-Serif" font-size="10.00">odp/api/spec/schedule</text>
<text text-anchor="middle" x="554" y="-425" font-family="Helvetica,sans-Serif" font-size="10.00">_types.h</text>
</a>
</g>
</g>
<!-- Node24&#45;&gt;Node26 -->
<g id="edge36_Node000024_Node000026" class="edge">
<title>Node24&#45;&gt;Node26</title>
<g id="a_edge36_Node000024_Node000026"><a xlink:title=" ">
<path fill="none" stroke="#63b8ff" d="M573.61,-483.87C570.89,-476.96 566.95,-466.93 563.31,-457.67"/>
<polygon fill="#63b8ff" stroke="#63b8ff" points="566.47,-456.14 559.55,-448.11 559.95,-458.7 566.47,-456.14"/>
</a>
</g>
</g>
<!-- Node26&#45;&gt;Node2 -->
<g id="edge37_Node000026_Node000002" class="edge">
<title>Node26&#45;&gt;Node2</title>
<g id="a_edge37_Node000026_Node000002"><a xlink:title=" ">
<path fill="none" stroke="#63b8ff" d="M491.06,-425.47C377.2,-412.23 144.3,-378.06 96,-316 84.2,-300.83 53.81,-137.13 133,-55 153.99,-33.23 229.27,-21.63 287.03,-15.79"/>
<polygon fill="#63b8ff" stroke="#63b8ff" points="287.62,-19.25 297.23,-14.8 286.94,-12.29 287.62,-19.25"/>
</a>
</g>
</g>
<!-- Node26&#45;&gt;Node6 -->
<g id="edge39_Node000026_Node000006" class="edge">
<title>Node26&#45;&gt;Node6</title>
<g id="a_edge39_Node000026_Node000006"><a xlink:title=" ">
<path fill="none" stroke="#63b8ff" d="M552.27,-417.99C549.58,-390.58 547.05,-328.81 572,-286 579.6,-272.96 592.68,-262.59 604.7,-255.14"/>
<polygon fill="#63b8ff" stroke="#63b8ff" points="606.65,-258.05 613.57,-250.03 603.16,-251.99 606.65,-258.05"/>
</a>
</g>
</g>
<!-- Node26&#45;&gt;Node13 -->
<g id="edge46_Node000026_Node000013" class="edge">
<title>Node26&#45;&gt;Node13</title>
<g id="a_edge46_Node000026_Node000013"><a xlink:title=" ">
<path fill="none" stroke="#63b8ff" d="M611.62,-417.95C691.73,-397.2 830.46,-356.44 862,-316 925.94,-234.01 890.75,-188.65 899,-85 900.06,-71.71 900.47,-68.25 899,-55 898.04,-46.34 896.06,-36.91 894.11,-28.97"/>
<polygon fill="#63b8ff" stroke="#63b8ff" points="897.49,-28.06 891.57,-19.27 890.72,-29.83 897.49,-28.06"/>
</a>
</g>
</g>
<!-- Node26&#45;&gt;Node17 -->
<g id="edge38_Node000026_Node000017" class="edge">
<title>Node26&#45;&gt;Node17</title>
<g id="a_edge38_Node000026_Node000017"><a xlink:title=" ">
<path fill="none" stroke="#63b8ff" d="M533.8,-417.8C521.32,-409.01 505.1,-397.61 491.34,-387.93"/>
<polygon fill="#63b8ff" stroke="#63b8ff" points="493.33,-385.05 483.14,-382.16 489.31,-390.78 493.33,-385.05"/>
</a>
</g>
</g>
<!-- Node27 -->
<g id="Node000027" class="node">
<title>Node27</title>
<g id="a_Node000027"><a xlink:href="thrmask_8h.html" target="_top" xlink:title="ODP thread masks.">
<polygon fill="white" stroke="#666666" points="699.5,-376.5 594.5,-376.5 594.5,-357.5 699.5,-357.5 699.5,-376.5"/>
<text text-anchor="middle" x="647" y="-364.5" font-family="Helvetica,sans-Serif" font-size="10.00">odp/api/thrmask.h</text>
</a>
</g>
</g>
<!-- Node26&#45;&gt;Node27 -->
<g id="edge40_Node000026_Node000027" class="edge">
<title>Node26&#45;&gt;Node27</title>
<g id="a_edge40_Node000026_Node000027"><a xlink:title=" ">
<path fill="none" stroke="#63b8ff" d="M574.64,-417.8C589.94,-407.27 610.71,-392.97 626.08,-382.4"/>
<polygon fill="#63b8ff" stroke="#63b8ff" points="628.16,-385.21 634.42,-376.66 624.2,-379.44 628.16,-385.21"/>
</a>
</g>
</g>
<!-- Node28 -->
<g id="Node000028" class="node">
<title>Node28</title>
<g id="a_Node000028"><a xlink:title=" ">
<polygon fill="#e0e0e0" stroke="#999999" points="853.5,-310.5 730.5,-310.5 730.5,-291.5 853.5,-291.5 853.5,-310.5"/>
<text text-anchor="middle" x="792" y="-298.5" font-family="Helvetica,sans-Serif" font-size="10.00">odp/api/abi/thrmask.h</text>
</a>
</g>
</g>
<!-- Node27&#45;&gt;Node28 -->
<g id="edge41_Node000027_Node000028" class="edge">
<title>Node27&#45;&gt;Node28</title>
<g id="a_edge41_Node000027_Node000028"><a xlink:title=" ">
<path fill="none" stroke="#63b8ff" d="M666.56,-357.37C691.31,-346.44 734.17,-327.52 762.81,-314.88"/>
<polygon fill="#63b8ff" stroke="#63b8ff" points="764.56,-317.94 772.29,-310.7 761.73,-311.54 764.56,-317.94"/>
</a>
</g>
</g>
<!-- Node29 -->
<g id="Node000029" class="node">
<title>Node29</title>
<g id="a_Node000029"><a xlink:href="spec_2thrmask_8h.html" target="_top" xlink:title="ODP thread masks.">
<polygon fill="white" stroke="#666666" points="712.5,-310.5 581.5,-310.5 581.5,-291.5 712.5,-291.5 712.5,-310.5"/>
<text text-anchor="middle" x="647" y="-298.5" font-family="Helvetica,sans-Serif" font-size="10.00">odp/api/spec/thrmask.h</text>
</a>
</g>
</g>
<!-- Node27&#45;&gt;Node29 -->
<g id="edge42_Node000027_Node000029" class="edge">
<title>Node27&#45;&gt;Node29</title>
<g id="a_edge42_Node000027_Node000029"><a xlink:title=" ">
<path fill="none" stroke="#63b8ff" d="M647,-357.37C647,-348.16 647,-333.29 647,-321.27"/>
<polygon fill="#63b8ff" stroke="#63b8ff" points="650.5,-320.91 647,-310.91 643.5,-320.91 650.5,-320.91"/>
</a>
</g>
</g>
<!-- Node29&#45;&gt;Node2 -->
<g id="edge43_Node000029_Node000002" class="edge">
<title>Node29&#45;&gt;Node2</title>
<g id="a_edge43_Node000029_Node000002"><a xlink:title=" ">
<path fill="none" stroke="#63b8ff" d="M620.82,-291.4C581.97,-277.32 509.22,-245.76 468,-195 426.62,-144.05 460.19,-107.65 421,-55 411.48,-42.21 397.18,-31.69 384.61,-24.09"/>
<polygon fill="#63b8ff" stroke="#63b8ff" points="386.28,-21.01 375.86,-19.09 382.8,-27.09 386.28,-21.01"/>
</a>
</g>
</g>
<!-- Node29&#45;&gt;Node6 -->
<g id="edge44_Node000029_Node000006" class="edge">
<title>Node29&#45;&gt;Node6</title>
<g id="a_edge44_Node000029_Node000006"><a xlink:title=" ">
<path fill="none" stroke="#63b8ff" d="M644.79,-291.37C642.68,-283.16 639.45,-270.54 636.76,-260.05"/>
<polygon fill="#63b8ff" stroke="#63b8ff" points="640.1,-258.98 634.22,-250.17 633.32,-260.72 640.1,-258.98"/>
</a>
</g>
</g>
<!-- Node29&#45;&gt;Node13 -->
<g id="edge45_Node000029_Node000013" class="edge">
<title>Node29&#45;&gt;Node13</title>
<g id="a_edge45_Node000029_Node000013"><a xlink:title=" ">
<path fill="none" stroke="#63b8ff" d="M670.02,-291.38C716.95,-272.4 822.8,-222.04 865,-140 883.59,-103.87 887.93,-55.5 888.85,-29.29"/>
<polygon fill="#63b8ff" stroke="#63b8ff" points="892.35,-29.3 889.07,-19.22 885.36,-29.15 892.35,-29.3"/>
</a>
</g>
</g>
</g>
</svg>
