<?xml version="1.0" encoding="UTF-8" standalone="no"?>
<!DOCTYPE svg PUBLIC "-//W3C//DTD SVG 1.1//EN"
 "http://www.w3.org/Graphics/SVG/1.1/DTD/svg11.dtd">
<!-- Generated by graphviz version 2.43.0 (0)
 -->
<!-- Title: packet_flags.h Pages: 1 -->
<svg width="1351pt" height="808pt"
 viewBox="0.00 0.00 1351.00 808.00" xmlns="http://www.w3.org/2000/svg" xmlns:xlink="http://www.w3.org/1999/xlink">
<g id="graph0" class="graph" transform="scale(1 1) rotate(0) translate(4 804)">
<title>packet_flags.h</title>
<!-- Node1 -->
<g id="Node000001" class="node">
<title>Node1</title>
<g id="a_Node000001"><a xlink:title="ODP packet flags.">
<polygon fill="#999999" stroke="#666666" points="1263,-800 1177,-800 1177,-781 1263,-781 1263,-800"/>
<text text-anchor="middle" x="1220" y="-788" font-family="Helvetica,sans-Serif" font-size="10.00">packet_flags.h</text>
</a>
</g>
</g>
<!-- Node2 -->
<g id="Node000002" class="node">
<title>Node2</title>
<g id="a_Node000002"><a xlink:title=" ">
<polygon fill="#e0e0e0" stroke="#999999" points="311.5,-19 190.5,-19 190.5,0 311.5,0 311.5,-19"/>
<text text-anchor="middle" x="251" y="-7" font-family="Helvetica,sans-Serif" font-size="10.00">odp/visibility_begin.h</text>
</a>
</g>
</g>
<!-- Node1&#45;&gt;Node2 -->
<g id="edge1_Node000001_Node000002" class="edge">
<title>Node1&#45;&gt;Node2</title>
<g id="a_edge1_Node000001_Node000002"><a xlink:title=" ">
<path fill="none" stroke="#63b8ff" d="M1176.94,-787.8C960.31,-778.96 0,-736.39 0,-676 0,-676 0,-676 0,-129.5 0,-91.05 12.8,-77.49 44,-55 83.34,-26.65 137.1,-15.7 179.98,-11.74"/>
<polygon fill="#63b8ff" stroke="#63b8ff" points="180.39,-15.22 190.07,-10.92 179.82,-8.25 180.39,-15.22"/>
</a>
</g>
</g>
<!-- Node3 -->
<g id="Node000003" class="node">
<title>Node3</title>
<g id="a_Node000003"><a xlink:href="packet__types_8h.html" target="_top" xlink:title="ODP packet.">
<polygon fill="white" stroke="#666666" points="1178.5,-745 1049.5,-745 1049.5,-726 1178.5,-726 1178.5,-745"/>
<text text-anchor="middle" x="1114" y="-733" font-family="Helvetica,sans-Serif" font-size="10.00">odp/api/packet_types.h</text>
</a>
</g>
</g>
<!-- Node1&#45;&gt;Node3 -->
<g id="edge2_Node000001_Node000003" class="edge">
<title>Node1&#45;&gt;Node3</title>
<g id="a_edge2_Node000001_Node000003"><a xlink:title=" ">
<path fill="none" stroke="#63b8ff" d="M1202.97,-780.98C1186.07,-772.54 1159.94,-759.47 1140.36,-749.68"/>
<polygon fill="#63b8ff" stroke="#63b8ff" points="1141.85,-746.51 1131.34,-745.17 1138.72,-752.77 1141.85,-746.51"/>
</a>
</g>
</g>
<!-- Node10 -->
<g id="Node000010" class="node">
<title>Node10</title>
<g id="a_Node000010"><a xlink:href="std__types_8h.html" target="_top" xlink:title="Standard C language types and definitions for ODP.">
<polygon fill="white" stroke="#666666" points="799,-250 687,-250 687,-231 799,-231 799,-250"/>
<text text-anchor="middle" x="743" y="-238" font-family="Helvetica,sans-Serif" font-size="10.00">odp/api/std_types.h</text>
</a>
</g>
</g>
<!-- Node1&#45;&gt;Node10 -->
<g id="edge54_Node000001_Node000010" class="edge">
<title>Node1&#45;&gt;Node10</title>
<g id="a_edge54_Node000001_Node000010"><a xlink:title=" ">
<path fill="none" stroke="#63b8ff" d="M1226.14,-780.79C1240.26,-759.61 1272.55,-703.9 1255,-660 1233.7,-606.73 948.09,-315.69 899,-286 871.84,-269.57 838.35,-258.98 809.38,-252.28"/>
<polygon fill="#63b8ff" stroke="#63b8ff" points="809.86,-248.8 799.34,-250.06 808.35,-255.63 809.86,-248.8"/>
</a>
</g>
</g>
<!-- Node17 -->
<g id="Node000017" class="node">
<title>Node17</title>
<g id="a_Node000017"><a xlink:title=" ">
<polygon fill="#e0e0e0" stroke="#999999" points="1082,-19 970,-19 970,0 1082,0 1082,-19"/>
<text text-anchor="middle" x="1026" y="-7" font-family="Helvetica,sans-Serif" font-size="10.00">odp/visibility_end.h</text>
</a>
</g>
</g>
<!-- Node1&#45;&gt;Node17 -->
<g id="edge55_Node000001_Node000017" class="edge">
<title>Node1&#45;&gt;Node17</title>
<g id="a_edge55_Node000001_Node000017"><a xlink:title=" ">
<path fill="none" stroke="#63b8ff" d="M1242.27,-780.93C1277.72,-765.66 1343,-730.19 1343,-676 1343,-676 1343,-676 1343,-129.5 1343,-89.12 1325.13,-76.58 1291,-55 1258.79,-34.63 1159.78,-22.14 1092.34,-15.76"/>
<polygon fill="#63b8ff" stroke="#63b8ff" points="1092.49,-12.26 1082.21,-14.83 1091.85,-19.23 1092.49,-12.26"/>
</a>
</g>
</g>
<!-- Node4 -->
<g id="Node000004" class="node">
<title>Node4</title>
<g id="a_Node000004"><a xlink:title=" ">
<polygon fill="#e0e0e0" stroke="#999999" points="990,-690 884,-690 884,-660 990,-660 990,-690"/>
<text text-anchor="start" x="892" y="-678" font-family="Helvetica,sans-Serif" font-size="10.00">odp/api/abi/packet</text>
<text text-anchor="middle" x="937" y="-667" font-family="Helvetica,sans-Serif" font-size="10.00">_io_types.h</text>
</a>
</g>
</g>
<!-- Node3&#45;&gt;Node4 -->
<g id="edge3_Node000003_Node000004" class="edge">
<title>Node3&#45;&gt;Node4</title>
<g id="a_edge3_Node000003_Node000004"><a xlink:title=" ">
<path fill="none" stroke="#63b8ff" d="M1088.26,-725.99C1062.46,-717.46 1021.98,-704.09 989.39,-693.32"/>
<polygon fill="#63b8ff" stroke="#63b8ff" points="990.15,-689.88 979.55,-690.06 987.95,-696.53 990.15,-689.88"/>
</a>
</g>
</g>
<!-- Node5 -->
<g id="Node000005" class="node">
<title>Node5</title>
<g id="a_Node000005"><a xlink:title=" ">
<polygon fill="#e0e0e0" stroke="#999999" points="1114,-690 1008,-690 1008,-660 1114,-660 1114,-690"/>
<text text-anchor="start" x="1016" y="-678" font-family="Helvetica,sans-Serif" font-size="10.00">odp/api/abi/packet</text>
<text text-anchor="middle" x="1061" y="-667" font-family="Helvetica,sans-Serif" font-size="10.00">_types.h</text>
</a>
</g>
</g>
<!-- Node3&#45;&gt;Node5 -->
<g id="edge4_Node000003_Node000005" class="edge">
<title>Node3&#45;&gt;Node5</title>
<g id="a_edge4_Node000003_Node000005"><a xlink:title=" ">
<path fill="none" stroke="#63b8ff" d="M1106.18,-725.87C1099.45,-718.44 1089.46,-707.42 1080.59,-697.62"/>
<polygon fill="#63b8ff" stroke="#63b8ff" points="1083.1,-695.18 1073.79,-690.11 1077.91,-699.88 1083.1,-695.18"/>
</a>
</g>
</g>
<!-- Node6 -->
<g id="Node000006" class="node">
<title>Node6</title>
<g id="a_Node000006"><a xlink:href="spec_2packet__types_8h.html" target="_top" xlink:title="ODP packet types.">
<polygon fill="white" stroke="#666666" points="1245.5,-690 1132.5,-690 1132.5,-660 1245.5,-660 1245.5,-690"/>
<text text-anchor="start" x="1140.5" y="-678" font-family="Helvetica,sans-Serif" font-size="10.00">odp/api/spec/packet</text>
<text text-anchor="middle" x="1189" y="-667" font-family="Helvetica,sans-Serif" font-size="10.00">_types.h</text>
</a>
</g>
</g>
<!-- Node3&#45;&gt;Node6 -->
<g id="edge5_Node000003_Node000006" class="edge">
<title>Node3&#45;&gt;Node6</title>
<g id="a_edge5_Node000003_Node000006"><a xlink:title=" ">
<path fill="none" stroke="#63b8ff" d="M1125.07,-725.87C1134.96,-718.15 1149.85,-706.54 1162.77,-696.46"/>
<polygon fill="#63b8ff" stroke="#63b8ff" points="1165.17,-699.02 1170.9,-690.11 1160.87,-693.51 1165.17,-699.02"/>
</a>
</g>
</g>
<!-- Node6&#45;&gt;Node2 -->
<g id="edge6_Node000006_Node000002" class="edge">
<title>Node6&#45;&gt;Node2</title>
<g id="a_edge6_Node000006_Node000002"><a xlink:title=" ">
<path fill="none" stroke="#63b8ff" d="M1132.21,-661.42C1129.1,-660.9 1126.02,-660.42 1123,-660 1003.03,-643.36 38,-676.12 38,-555 38,-555 38,-555 38,-129.5 38,-92.33 46.96,-78.2 76,-55 105.43,-31.49 145.77,-20.25 180.31,-14.93"/>
<polygon fill="#63b8ff" stroke="#63b8ff" points="180.94,-18.38 190.36,-13.53 179.97,-11.45 180.94,-18.38"/>
</a>
</g>
</g>
<!-- Node7 -->
<g id="Node000007" class="node">
<title>Node7</title>
<g id="a_Node000007"><a xlink:href="proto__stats__types_8h.html" target="_top" xlink:title="ODP proto stats types.">
<polygon fill="white" stroke="#666666" points="1230,-382 1120,-382 1120,-352 1230,-352 1230,-382"/>
<text text-anchor="start" x="1128" y="-370" font-family="Helvetica,sans-Serif" font-size="10.00">odp/api/proto_stats</text>
<text text-anchor="middle" x="1175" y="-359" font-family="Helvetica,sans-Serif" font-size="10.00">_types.h</text>
</a>
</g>
</g>
<!-- Node6&#45;&gt;Node7 -->
<g id="edge7_Node000006_Node000007" class="edge">
<title>Node6&#45;&gt;Node7</title>
<g id="a_edge7_Node000006_Node000007"><a xlink:title=" ">
<path fill="none" stroke="#63b8ff" d="M1190.78,-659.74C1193.4,-637.43 1198,-592.92 1198,-555 1198,-555 1198,-555 1198,-492.5 1198,-456.92 1188.8,-416.56 1182.04,-391.69"/>
<polygon fill="#63b8ff" stroke="#63b8ff" points="1185.4,-390.71 1179.33,-382.03 1178.67,-392.61 1185.4,-390.71"/>
</a>
</g>
</g>
<!-- Node6&#45;&gt;Node17 -->
<g id="edge53_Node000006_Node000017" class="edge">
<title>Node6&#45;&gt;Node17</title>
<g id="a_edge53_Node000006_Node000017"><a xlink:title=" ">
<path fill="none" stroke="#63b8ff" d="M1198.69,-659.77C1226.57,-617.4 1305,-487.59 1305,-368 1305,-368 1305,-368 1305,-129.5 1305,-37.37 1174.69,-15.59 1092.19,-11.03"/>
<polygon fill="#63b8ff" stroke="#63b8ff" points="1092.28,-7.53 1082.12,-10.54 1091.94,-14.52 1092.28,-7.53"/>
</a>
</g>
</g>
<!-- Node18 -->
<g id="Node000018" class="node">
<title>Node18</title>
<g id="a_Node000018"><a xlink:href="queue__types_8h.html" target="_top" xlink:title="ODP queue.">
<polygon fill="white" stroke="#666666" points="720.5,-624 593.5,-624 593.5,-605 720.5,-605 720.5,-624"/>
<text text-anchor="middle" x="657" y="-612" font-family="Helvetica,sans-Serif" font-size="10.00">odp/api/queue_types.h</text>
</a>
</g>
</g>
<!-- Node6&#45;&gt;Node18 -->
<g id="edge23_Node000006_Node000018" class="edge">
<title>Node6&#45;&gt;Node18</title>
<g id="a_edge23_Node000006_Node000018"><a xlink:title=" ">
<path fill="none" stroke="#63b8ff" d="M1132.19,-661.52C1129.09,-660.97 1126.01,-660.46 1123,-660 985.18,-638.87 822.78,-626.08 730.66,-619.93"/>
<polygon fill="#63b8ff" stroke="#63b8ff" points="730.81,-616.44 720.6,-619.27 730.35,-623.42 730.81,-616.44"/>
</a>
</g>
</g>
<!-- Node8 -->
<g id="Node000008" class="node">
<title>Node8</title>
<g id="a_Node000008"><a xlink:title=" ">
<polygon fill="#e0e0e0" stroke="#999999" points="1239,-316 1111,-316 1111,-286 1239,-286 1239,-316"/>
<text text-anchor="start" x="1119" y="-304" font-family="Helvetica,sans-Serif" font-size="10.00">odp/api/abi/proto_stats</text>
<text text-anchor="middle" x="1175" y="-293" font-family="Helvetica,sans-Serif" font-size="10.00">_types.h</text>
</a>
</g>
</g>
<!-- Node7&#45;&gt;Node8 -->
<g id="edge8_Node000007_Node000008" class="edge">
<title>Node7&#45;&gt;Node8</title>
<g id="a_edge8_Node000007_Node000008"><a xlink:title=" ">
<path fill="none" stroke="#63b8ff" d="M1175,-351.8C1175,-344.34 1175,-334.99 1175,-326.41"/>
<polygon fill="#63b8ff" stroke="#63b8ff" points="1178.5,-326.16 1175,-316.16 1171.5,-326.16 1178.5,-326.16"/>
</a>
</g>
</g>
<!-- Node9 -->
<g id="Node000009" class="node">
<title>Node9</title>
<g id="a_Node000009"><a xlink:href="spec_2proto__stats__types_8h.html" target="_top" xlink:title="ODP proto stats types.">
<polygon fill="white" stroke="#666666" points="1054.5,-316 947.5,-316 947.5,-286 1054.5,-286 1054.5,-316"/>
<text text-anchor="start" x="955.5" y="-304" font-family="Helvetica,sans-Serif" font-size="10.00">odp/api/spec/proto</text>
<text text-anchor="middle" x="1001" y="-293" font-family="Helvetica,sans-Serif" font-size="10.00">_stats_types.h</text>
</a>
</g>
</g>
<!-- Node7&#45;&gt;Node9 -->
<g id="edge9_Node000007_Node000009" class="edge">
<title>Node7&#45;&gt;Node9</title>
<g id="a_edge9_Node000007_Node000009"><a xlink:title=" ">
<path fill="none" stroke="#63b8ff" d="M1136.81,-351.95C1110.86,-342.41 1076.34,-329.71 1048.6,-319.51"/>
<polygon fill="#63b8ff" stroke="#63b8ff" points="1049.69,-316.18 1039.1,-316.01 1047.27,-322.75 1049.69,-316.18"/>
</a>
</g>
</g>
<!-- Node9&#45;&gt;Node2 -->
<g id="edge10_Node000009_Node000002" class="edge">
<title>Node9&#45;&gt;Node2</title>
<g id="a_edge10_Node000009_Node000002"><a xlink:title=" ">
<path fill="none" stroke="#63b8ff" d="M983.87,-285.64C952.62,-260.13 883.45,-206.68 817,-176 748.72,-144.47 558.26,-118.66 491,-85 471.44,-75.21 471.82,-64.25 452,-55 411.04,-35.88 361.48,-24.79 321.83,-18.46"/>
<polygon fill="#63b8ff" stroke="#63b8ff" points="322.12,-14.96 311.71,-16.91 321.06,-21.88 322.12,-14.96"/>
</a>
</g>
</g>
<!-- Node9&#45;&gt;Node10 -->
<g id="edge11_Node000009_Node000010" class="edge">
<title>Node9&#45;&gt;Node10</title>
<g id="a_edge11_Node000009_Node000010"><a xlink:title=" ">
<path fill="none" stroke="#63b8ff" d="M947.23,-287.81C901.06,-277.34 835.12,-262.39 790.78,-252.33"/>
<polygon fill="#63b8ff" stroke="#63b8ff" points="791.35,-248.87 780.82,-250.08 789.8,-255.7 791.35,-248.87"/>
</a>
</g>
</g>
<!-- Node9&#45;&gt;Node17 -->
<g id="edge22_Node000009_Node000017" class="edge">
<title>Node9&#45;&gt;Node17</title>
<g id="a_edge22_Node000009_Node000017"><a xlink:title=" ">
<path fill="none" stroke="#63b8ff" d="M1010.33,-285.99C1023.25,-265.2 1045,-224.54 1045,-186.5 1045,-186.5 1045,-186.5 1045,-129.5 1045,-93.54 1036.44,-52.23 1030.81,-28.96"/>
<polygon fill="#63b8ff" stroke="#63b8ff" points="1034.16,-27.93 1028.33,-19.09 1027.37,-29.64 1034.16,-27.93"/>
</a>
</g>
</g>
<!-- Node11 -->
<g id="Node000011" class="node">
<title>Node11</title>
<g id="a_Node000011"><a xlink:title=" ">
<polygon fill="#e0e0e0" stroke="#999999" points="808,-195 678,-195 678,-176 808,-176 808,-195"/>
<text text-anchor="middle" x="743" y="-183" font-family="Helvetica,sans-Serif" font-size="10.00">odp/api/abi/std_types.h</text>
</a>
</g>
</g>
<!-- Node10&#45;&gt;Node11 -->
<g id="edge12_Node000010_Node000011" class="edge">
<title>Node10&#45;&gt;Node11</title>
<g id="a_edge12_Node000010_Node000011"><a xlink:title=" ">
<path fill="none" stroke="#63b8ff" d="M743,-230.75C743,-223.8 743,-213.85 743,-205.13"/>
<polygon fill="#63b8ff" stroke="#63b8ff" points="746.5,-205.09 743,-195.09 739.5,-205.09 746.5,-205.09"/>
</a>
</g>
</g>
<!-- Node12 -->
<g id="Node000012" class="node">
<title>Node12</title>
<g id="a_Node000012"><a xlink:href="spec_2std__types_8h.html" target="_top" xlink:title="Common types and definitions for ODP API files.">
<polygon fill="white" stroke="#666666" points="621.5,-195 484.5,-195 484.5,-176 621.5,-176 621.5,-195"/>
<text text-anchor="middle" x="553" y="-183" font-family="Helvetica,sans-Serif" font-size="10.00">odp/api/spec/std_types.h</text>
</a>
</g>
</g>
<!-- Node10&#45;&gt;Node12 -->
<g id="edge13_Node000010_Node000012" class="edge">
<title>Node10&#45;&gt;Node12</title>
<g id="a_edge13_Node000010_Node000012"><a xlink:title=" ">
<path fill="none" stroke="#63b8ff" d="M712.47,-230.98C680.3,-222.01 629.44,-207.82 593.83,-197.89"/>
<polygon fill="#63b8ff" stroke="#63b8ff" points="594.34,-194.4 583.77,-195.08 592.46,-201.14 594.34,-194.4"/>
</a>
</g>
</g>
<!-- Node12&#45;&gt;Node2 -->
<g id="edge14_Node000012_Node000002" class="edge">
<title>Node12&#45;&gt;Node2</title>
<g id="a_edge14_Node000012_Node000002"><a xlink:title=" ">
<path fill="none" stroke="#63b8ff" d="M523.04,-175.93C477.6,-161.97 389.91,-131.15 327,-85 303.15,-67.5 279.41,-42.75 264.97,-26.67"/>
<polygon fill="#63b8ff" stroke="#63b8ff" points="267.55,-24.31 258.31,-19.13 262.3,-28.94 267.55,-24.31"/>
</a>
</g>
</g>
<!-- Node13 -->
<g id="Node000013" class="node">
<title>Node13</title>
<g id="a_Node000013"><a xlink:title=" ">
<polygon fill="#e0e0e0" stroke="#999999" points="492.5,-140 439.5,-140 439.5,-121 492.5,-121 492.5,-140"/>
<text text-anchor="middle" x="466" y="-128" font-family="Helvetica,sans-Serif" font-size="10.00">stdint.h</text>
</a>
</g>
</g>
<!-- Node12&#45;&gt;Node13 -->
<g id="edge15_Node000012_Node000013" class="edge">
<title>Node12&#45;&gt;Node13</title>
<g id="a_edge15_Node000012_Node000013"><a xlink:title=" ">
<path fill="none" stroke="#63b8ff" d="M539.02,-175.98C525.53,-167.77 504.87,-155.18 488.96,-145.49"/>
<polygon fill="#63b8ff" stroke="#63b8ff" points="490.59,-142.38 480.23,-140.17 486.95,-148.36 490.59,-142.38"/>
</a>
</g>
</g>
<!-- Node14 -->
<g id="Node000014" class="node">
<title>Node14</title>
<g id="a_Node000014"><a xlink:href="align_8h.html" target="_top" xlink:title="ODP alignments.">
<polygon fill="white" stroke="#666666" points="599.5,-140 510.5,-140 510.5,-121 599.5,-121 599.5,-140"/>
<text text-anchor="middle" x="555" y="-128" font-family="Helvetica,sans-Serif" font-size="10.00">odp/api/align.h</text>
</a>
</g>
</g>
<!-- Node12&#45;&gt;Node14 -->
<g id="edge16_Node000012_Node000014" class="edge">
<title>Node12&#45;&gt;Node14</title>
<g id="a_edge16_Node000012_Node000014"><a xlink:title=" ">
<path fill="none" stroke="#63b8ff" d="M553.33,-175.75C553.59,-168.8 553.97,-158.85 554.3,-150.13"/>
<polygon fill="#63b8ff" stroke="#63b8ff" points="557.8,-150.21 554.68,-140.09 550.8,-149.95 557.8,-150.21"/>
</a>
</g>
</g>
<!-- Node12&#45;&gt;Node17 -->
<g id="edge21_Node000012_Node000017" class="edge">
<title>Node12&#45;&gt;Node17</title>
<g id="a_edge21_Node000012_Node000017"><a xlink:title=" ">
<path fill="none" stroke="#63b8ff" d="M621.5,-177.29C719.78,-166.72 890.33,-147.48 902,-140 939.48,-115.97 923.56,-86.52 955,-55 967.52,-42.45 984.21,-31.76 998.27,-24.01"/>
<polygon fill="#63b8ff" stroke="#63b8ff" points="1000.29,-26.9 1007.49,-19.12 997.01,-20.71 1000.29,-26.9"/>
</a>
</g>
</g>
<!-- Node15 -->
<g id="Node000015" class="node">
<title>Node15</title>
<g id="a_Node000015"><a xlink:title=" ">
<polygon fill="#e0e0e0" stroke="#999999" points="443.5,-79.5 336.5,-79.5 336.5,-60.5 443.5,-60.5 443.5,-79.5"/>
<text text-anchor="middle" x="390" y="-67.5" font-family="Helvetica,sans-Serif" font-size="10.00">odp/api/abi/align.h</text>
</a>
</g>
</g>
<!-- Node14&#45;&gt;Node15 -->
<g id="edge17_Node000014_Node000015" class="edge">
<title>Node14&#45;&gt;Node15</title>
<g id="a_edge17_Node000014_Node000015"><a xlink:title=" ">
<path fill="none" stroke="#63b8ff" d="M531.01,-120.99C502.78,-110.99 455.72,-94.3 423.81,-82.99"/>
<polygon fill="#63b8ff" stroke="#63b8ff" points="424.62,-79.56 414.02,-79.52 422.28,-86.16 424.62,-79.56"/>
</a>
</g>
</g>
<!-- Node16 -->
<g id="Node000016" class="node">
<title>Node16</title>
<g id="a_Node000016"><a xlink:href="spec_2align_8h.html" target="_top" xlink:title="ODP alignments.">
<polygon fill="white" stroke="#666666" points="614,-79.5 500,-79.5 500,-60.5 614,-60.5 614,-79.5"/>
<text text-anchor="middle" x="557" y="-67.5" font-family="Helvetica,sans-Serif" font-size="10.00">odp/api/spec/align.h</text>
</a>
</g>
</g>
<!-- Node14&#45;&gt;Node16 -->
<g id="edge18_Node000014_Node000016" class="edge">
<title>Node14&#45;&gt;Node16</title>
<g id="a_edge18_Node000014_Node000016"><a xlink:title=" ">
<path fill="none" stroke="#63b8ff" d="M555.3,-120.87C555.57,-112.75 556,-100.31 556.35,-89.89"/>
<polygon fill="#63b8ff" stroke="#63b8ff" points="559.86,-89.78 556.7,-79.67 552.86,-89.54 559.86,-89.78"/>
</a>
</g>
</g>
<!-- Node16&#45;&gt;Node2 -->
<g id="edge19_Node000016_Node000002" class="edge">
<title>Node16&#45;&gt;Node2</title>
<g id="a_edge19_Node000016_Node000002"><a xlink:title=" ">
<path fill="none" stroke="#63b8ff" d="M513.83,-60.43C504.65,-58.63 495,-56.74 486,-55 424.66,-43.14 354.25,-29.85 306.61,-20.91"/>
<polygon fill="#63b8ff" stroke="#63b8ff" points="306.98,-17.42 296.51,-19.01 305.69,-24.3 306.98,-17.42"/>
</a>
</g>
</g>
<!-- Node16&#45;&gt;Node17 -->
<g id="edge20_Node000016_Node000017" class="edge">
<title>Node16&#45;&gt;Node17</title>
<g id="a_edge20_Node000016_Node000017"><a xlink:title=" ">
<path fill="none" stroke="#63b8ff" d="M594.23,-60.43C603.59,-58.46 613.63,-56.51 623,-55 740.72,-36.06 879.1,-22.7 959.26,-15.83"/>
<polygon fill="#63b8ff" stroke="#63b8ff" points="960.03,-19.28 969.7,-14.94 959.44,-12.3 960.03,-19.28"/>
</a>
</g>
</g>
<!-- Node19 -->
<g id="Node000019" class="node">
<title>Node19</title>
<g id="a_Node000019"><a xlink:title=" ">
<polygon fill="#e0e0e0" stroke="#999999" points="583.5,-563.5 438.5,-563.5 438.5,-544.5 583.5,-544.5 583.5,-563.5"/>
<text text-anchor="middle" x="511" y="-551.5" font-family="Helvetica,sans-Serif" font-size="10.00">odp/api/abi/queue_types.h</text>
</a>
</g>
</g>
<!-- Node18&#45;&gt;Node19 -->
<g id="edge24_Node000018_Node000019" class="edge">
<title>Node18&#45;&gt;Node19</title>
<g id="a_edge24_Node000018_Node000019"><a xlink:title=" ">
<path fill="none" stroke="#63b8ff" d="M635.77,-604.99C611.01,-595.07 569.88,-578.59 541.65,-567.28"/>
<polygon fill="#63b8ff" stroke="#63b8ff" points="542.84,-563.99 532.26,-563.52 540.24,-570.49 542.84,-563.99"/>
</a>
</g>
</g>
<!-- Node20 -->
<g id="Node000020" class="node">
<title>Node20</title>
<g id="a_Node000020"><a xlink:href="spec_2queue__types_8h.html" target="_top" xlink:title="ODP queue types.">
<polygon fill="white" stroke="#666666" points="712.5,-569 601.5,-569 601.5,-539 712.5,-539 712.5,-569"/>
<text text-anchor="start" x="609.5" y="-557" font-family="Helvetica,sans-Serif" font-size="10.00">odp/api/spec/queue</text>
<text text-anchor="middle" x="657" y="-546" font-family="Helvetica,sans-Serif" font-size="10.00">_types.h</text>
</a>
</g>
</g>
<!-- Node18&#45;&gt;Node20 -->
<g id="edge25_Node000018_Node000020" class="edge">
<title>Node18&#45;&gt;Node20</title>
<g id="a_edge25_Node000018_Node000020"><a xlink:title=" ">
<path fill="none" stroke="#63b8ff" d="M657,-604.87C657,-598.11 657,-588.35 657,-579.26"/>
<polygon fill="#63b8ff" stroke="#63b8ff" points="660.5,-579.11 657,-569.11 653.5,-579.11 660.5,-579.11"/>
</a>
</g>
</g>
<!-- Node20&#45;&gt;Node2 -->
<g id="edge26_Node000020_Node000002" class="edge">
<title>Node20&#45;&gt;Node2</title>
<g id="a_edge26_Node000020_Node000002"><a xlink:title=" ">
<path fill="none" stroke="#63b8ff" d="M601.44,-541.01C463.05,-511.11 114,-435.55 114,-434 114,-434 114,-434 114,-129.5 114,-75.1 176.32,-39.95 216.89,-22.83"/>
<polygon fill="#63b8ff" stroke="#63b8ff" points="218.24,-26.06 226.19,-19.06 215.61,-19.57 218.24,-26.06"/>
</a>
</g>
</g>
<!-- Node20&#45;&gt;Node17 -->
<g id="edge52_Node000020_Node000017" class="edge">
<title>Node20&#45;&gt;Node17</title>
<g id="a_edge52_Node000020_Node000017"><a xlink:title=" ">
<path fill="none" stroke="#63b8ff" d="M712.72,-544.11C843.96,-522.03 1166.94,-460.78 1239,-382 1281.97,-335.02 1267,-305.17 1267,-241.5 1267,-241.5 1267,-241.5 1267,-129.5 1267,-51.33 1163.81,-24.51 1092.48,-15.31"/>
<polygon fill="#63b8ff" stroke="#63b8ff" points="1092.55,-11.79 1082.2,-14.07 1091.71,-18.74 1092.55,-11.79"/>
</a>
</g>
</g>
<!-- Node21 -->
<g id="Node000021" class="node">
<title>Node21</title>
<g id="a_Node000021"><a xlink:href="event__vector__types_8h.html" target="_top" xlink:title="ODP event vector API type definitions.">
<polygon fill="white" stroke="#666666" points="716.5,-382 597.5,-382 597.5,-352 716.5,-352 716.5,-382"/>
<text text-anchor="start" x="605.5" y="-370" font-family="Helvetica,sans-Serif" font-size="10.00">odp/api/event_vector</text>
<text text-anchor="middle" x="657" y="-359" font-family="Helvetica,sans-Serif" font-size="10.00">_types.h</text>
</a>
</g>
</g>
<!-- Node20&#45;&gt;Node21 -->
<g id="edge27_Node000020_Node000021" class="edge">
<title>Node20&#45;&gt;Node21</title>
<g id="a_edge27_Node000020_Node000021"><a xlink:title=" ">
<path fill="none" stroke="#63b8ff" d="M657,-538.79C657,-507.3 657,-431.36 657,-392.22"/>
<polygon fill="#63b8ff" stroke="#63b8ff" points="660.5,-392 657,-382 653.5,-392 660.5,-392"/>
</a>
</g>
</g>
<!-- Node28 -->
<g id="Node000028" class="node">
<title>Node28</title>
<g id="a_Node000028"><a xlink:href="schedule__types_8h.html" target="_top" xlink:title="ODP schedule.">
<polygon fill="white" stroke="#666666" points="590,-503 450,-503 450,-484 590,-484 590,-503"/>
<text text-anchor="middle" x="520" y="-491" font-family="Helvetica,sans-Serif" font-size="10.00">odp/api/schedule_types.h</text>
</a>
</g>
</g>
<!-- Node20&#45;&gt;Node28 -->
<g id="edge39_Node000020_Node000028" class="edge">
<title>Node20&#45;&gt;Node28</title>
<g id="a_edge39_Node000020_Node000028"><a xlink:title=" ">
<path fill="none" stroke="#63b8ff" d="M624.19,-538.99C601.53,-529.31 571.65,-516.56 549.7,-507.18"/>
<polygon fill="#63b8ff" stroke="#63b8ff" points="550.8,-503.85 540.23,-503.14 548.05,-510.29 550.8,-503.85"/>
</a>
</g>
</g>
<!-- Node22 -->
<g id="Node000022" class="node">
<title>Node22</title>
<g id="a_Node000022"><a xlink:title=" ">
<polygon fill="#e0e0e0" stroke="#999999" points="608.5,-316 471.5,-316 471.5,-286 608.5,-286 608.5,-316"/>
<text text-anchor="start" x="479.5" y="-304" font-family="Helvetica,sans-Serif" font-size="10.00">odp/api/abi/event_vector</text>
<text text-anchor="middle" x="540" y="-293" font-family="Helvetica,sans-Serif" font-size="10.00">_types.h</text>
</a>
</g>
</g>
<!-- Node21&#45;&gt;Node22 -->
<g id="edge28_Node000021_Node000022" class="edge">
<title>Node21&#45;&gt;Node22</title>
<g id="a_edge28_Node000021_Node000022"><a xlink:title=" ">
<path fill="none" stroke="#63b8ff" d="M631.32,-351.95C614.71,-342.87 592.88,-330.93 574.73,-321"/>
<polygon fill="#63b8ff" stroke="#63b8ff" points="576.07,-317.74 565.62,-316.01 572.71,-323.88 576.07,-317.74"/>
</a>
</g>
</g>
<!-- Node23 -->
<g id="Node000023" class="node">
<title>Node23</title>
<g id="a_Node000023"><a xlink:title=" ">
<polygon fill="#e0e0e0" stroke="#999999" points="763,-310.5 627,-310.5 627,-291.5 763,-291.5 763,-310.5"/>
<text text-anchor="middle" x="695" y="-298.5" font-family="Helvetica,sans-Serif" font-size="10.00">odp/api/abi/pool_types.h</text>
</a>
</g>
</g>
<!-- Node21&#45;&gt;Node23 -->
<g id="edge29_Node000021_Node000023" class="edge">
<title>Node21&#45;&gt;Node23</title>
<g id="a_edge29_Node000021_Node000023"><a xlink:title=" ">
<path fill="none" stroke="#63b8ff" d="M665.43,-351.8C671.07,-342.31 678.52,-329.76 684.53,-319.63"/>
<polygon fill="#63b8ff" stroke="#63b8ff" points="687.65,-321.23 689.75,-310.84 681.63,-317.66 687.65,-321.23"/>
</a>
</g>
</g>
<!-- Node24 -->
<g id="Node000024" class="node">
<title>Node24</title>
<g id="a_Node000024"><a xlink:href="spec_2event__vector__types_8h.html" target="_top" xlink:title="ODP event vector API type definitions.">
<polygon fill="white" stroke="#666666" points="890.5,-316 781.5,-316 781.5,-286 890.5,-286 890.5,-316"/>
<text text-anchor="start" x="789.5" y="-304" font-family="Helvetica,sans-Serif" font-size="10.00">odp/api/spec/event</text>
<text text-anchor="middle" x="836" y="-293" font-family="Helvetica,sans-Serif" font-size="10.00">_vector_types.h</text>
</a>
</g>
</g>
<!-- Node21&#45;&gt;Node24 -->
<g id="edge30_Node000021_Node000024" class="edge">
<title>Node21&#45;&gt;Node24</title>
<g id="a_edge30_Node000021_Node000024"><a xlink:title=" ">
<path fill="none" stroke="#63b8ff" d="M696.28,-351.95C722.98,-342.41 758.49,-329.71 787.03,-319.51"/>
<polygon fill="#63b8ff" stroke="#63b8ff" points="788.57,-322.67 796.81,-316.01 786.21,-316.08 788.57,-322.67"/>
</a>
</g>
</g>
<!-- Node24&#45;&gt;Node2 -->
<g id="edge31_Node000024_Node000002" class="edge">
<title>Node24&#45;&gt;Node2</title>
<g id="a_edge31_Node000024_Node000002"><a xlink:title=" ">
<path fill="none" stroke="#63b8ff" d="M781.58,-285.97C695.15,-263.38 530.56,-219.05 475,-195 386.86,-156.84 354.76,-155 289,-85 273.67,-68.68 263.02,-44.99 256.97,-28.73"/>
<polygon fill="#63b8ff" stroke="#63b8ff" points="260.27,-27.55 253.66,-19.27 253.66,-29.86 260.27,-27.55"/>
</a>
</g>
</g>
<!-- Node24&#45;&gt;Node10 -->
<g id="edge37_Node000024_Node000010" class="edge">
<title>Node24&#45;&gt;Node10</title>
<g id="a_edge37_Node000024_Node000010"><a xlink:title=" ">
<path fill="none" stroke="#63b8ff" d="M813.49,-285.84C798.94,-276.68 780.07,-264.82 765.51,-255.66"/>
<polygon fill="#63b8ff" stroke="#63b8ff" points="766.99,-252.46 756.66,-250.09 763.26,-258.38 766.99,-252.46"/>
</a>
</g>
</g>
<!-- Node24&#45;&gt;Node17 -->
<g id="edge38_Node000024_Node000017" class="edge">
<title>Node24&#45;&gt;Node17</title>
<g id="a_edge38_Node000024_Node000017"><a xlink:title=" ">
<path fill="none" stroke="#63b8ff" d="M853.03,-285.9C883.29,-259.99 946.65,-201.77 983,-140 1004.35,-103.72 1016.78,-55.41 1022.38,-29.25"/>
<polygon fill="#63b8ff" stroke="#63b8ff" points="1025.86,-29.7 1024.43,-19.2 1019.01,-28.3 1025.86,-29.7"/>
</a>
</g>
</g>
<!-- Node25 -->
<g id="Node000025" class="node">
<title>Node25</title>
<g id="a_Node000025"><a xlink:href="event__types_8h.html" target="_top" xlink:title="ODP event API type definitions.">
<polygon fill="white" stroke="#666666" points="893.5,-140 768.5,-140 768.5,-121 893.5,-121 893.5,-140"/>
<text text-anchor="middle" x="831" y="-128" font-family="Helvetica,sans-Serif" font-size="10.00">odp/api/event_types.h</text>
</a>
</g>
</g>
<!-- Node24&#45;&gt;Node25 -->
<g id="edge32_Node000024_Node000025" class="edge">
<title>Node24&#45;&gt;Node25</title>
<g id="a_edge32_Node000024_Node000025"><a xlink:title=" ">
<path fill="none" stroke="#63b8ff" d="M835.58,-285.92C834.68,-255.65 832.57,-184.35 831.56,-150.27"/>
<polygon fill="#63b8ff" stroke="#63b8ff" points="835.05,-150.15 831.26,-140.25 828.06,-150.35 835.05,-150.15"/>
</a>
</g>
</g>
<!-- Node26 -->
<g id="Node000026" class="node">
<title>Node26</title>
<g id="a_Node000026"><a xlink:title=" ">
<polygon fill="#e0e0e0" stroke="#999999" points="902.5,-79.5 759.5,-79.5 759.5,-60.5 902.5,-60.5 902.5,-79.5"/>
<text text-anchor="middle" x="831" y="-67.5" font-family="Helvetica,sans-Serif" font-size="10.00">odp/api/abi/event_types.h</text>
</a>
</g>
</g>
<!-- Node25&#45;&gt;Node26 -->
<g id="edge33_Node000025_Node000026" class="edge">
<title>Node25&#45;&gt;Node26</title>
<g id="a_edge33_Node000025_Node000026"><a xlink:title=" ">
<path fill="none" stroke="#63b8ff" d="M831,-120.87C831,-112.75 831,-100.31 831,-89.89"/>
<polygon fill="#63b8ff" stroke="#63b8ff" points="834.5,-89.67 831,-79.67 827.5,-89.67 834.5,-89.67"/>
</a>
</g>
</g>
<!-- Node27 -->
<g id="Node000027" class="node">
<title>Node27</title>
<g id="a_Node000027"><a xlink:href="spec_2event__types_8h.html" target="_top" xlink:title="ODP event API type definitions.">
<polygon fill="white" stroke="#666666" points="741.5,-85 632.5,-85 632.5,-55 741.5,-55 741.5,-85"/>
<text text-anchor="start" x="640.5" y="-73" font-family="Helvetica,sans-Serif" font-size="10.00">odp/api/spec/event</text>
<text text-anchor="middle" x="687" y="-62" font-family="Helvetica,sans-Serif" font-size="10.00">_types.h</text>
</a>
</g>
</g>
<!-- Node25&#45;&gt;Node27 -->
<g id="edge34_Node000025_Node000027" class="edge">
<title>Node25&#45;&gt;Node27</title>
<g id="a_edge34_Node000025_Node000027"><a xlink:title=" ">
<path fill="none" stroke="#63b8ff" d="M810.06,-120.99C789.43,-112.61 757.27,-99.55 731,-88.87"/>
<polygon fill="#63b8ff" stroke="#63b8ff" points="732.2,-85.59 721.62,-85.06 729.57,-92.07 732.2,-85.59"/>
</a>
</g>
</g>
<!-- Node27&#45;&gt;Node2 -->
<g id="edge35_Node000027_Node000002" class="edge">
<title>Node27&#45;&gt;Node2</title>
<g id="a_edge35_Node000027_Node000002"><a xlink:title=" ">
<path fill="none" stroke="#63b8ff" d="M632.25,-56.66C629.13,-56.07 626.03,-55.51 623,-55 518.87,-37.42 397.19,-24.24 322.1,-16.95"/>
<polygon fill="#63b8ff" stroke="#63b8ff" points="322.11,-13.44 311.82,-15.96 321.44,-20.4 322.11,-13.44"/>
</a>
</g>
</g>
<!-- Node27&#45;&gt;Node17 -->
<g id="edge36_Node000027_Node000017" class="edge">
<title>Node27&#45;&gt;Node17</title>
<g id="a_edge36_Node000027_Node000017"><a xlink:title=" ">
<path fill="none" stroke="#63b8ff" d="M741.59,-56.66C744.43,-56.08 747.25,-55.53 750,-55 821.35,-41.33 903.62,-28.43 959.65,-20.08"/>
<polygon fill="#63b8ff" stroke="#63b8ff" points="960.42,-23.5 969.8,-18.57 959.39,-16.58 960.42,-23.5"/>
</a>
</g>
</g>
<!-- Node29 -->
<g id="Node000029" class="node">
<title>Node29</title>
<g id="a_Node000029"><a xlink:title=" ">
<polygon fill="#e0e0e0" stroke="#999999" points="439.5,-448 322.5,-448 322.5,-418 439.5,-418 439.5,-448"/>
<text text-anchor="start" x="330.5" y="-436" font-family="Helvetica,sans-Serif" font-size="10.00">odp/api/abi/schedule</text>
<text text-anchor="middle" x="381" y="-425" font-family="Helvetica,sans-Serif" font-size="10.00">_types.h</text>
</a>
</g>
</g>
<!-- Node28&#45;&gt;Node29 -->
<g id="edge40_Node000028_Node000029" class="edge">
<title>Node28&#45;&gt;Node29</title>
<g id="a_edge40_Node000028_Node000029"><a xlink:title=" ">
<path fill="none" stroke="#63b8ff" d="M499.79,-483.99C479.96,-475.65 449.1,-462.66 423.81,-452.02"/>
<polygon fill="#63b8ff" stroke="#63b8ff" points="424.99,-448.72 414.42,-448.06 422.28,-455.17 424.99,-448.72"/>
</a>
</g>
</g>
<!-- Node30 -->
<g id="Node000030" class="node">
<title>Node30</title>
<g id="a_Node000030"><a xlink:href="spec_2schedule__types_8h.html" target="_top" xlink:title="ODP schedule types.">
<polygon fill="white" stroke="#666666" points="582.5,-448 457.5,-448 457.5,-418 582.5,-418 582.5,-448"/>
<text text-anchor="start" x="465.5" y="-436" font-family="Helvetica,sans-Serif" font-size="10.00">odp/api/spec/schedule</text>
<text text-anchor="middle" x="520" y="-425" font-family="Helvetica,sans-Serif" font-size="10.00">_types.h</text>
</a>
</g>
</g>
<!-- Node28&#45;&gt;Node30 -->
<g id="edge41_Node000028_Node000030" class="edge">
<title>Node28&#45;&gt;Node30</title>
<g id="a_edge41_Node000028_Node000030"><a xlink:title=" ">
<path fill="none" stroke="#63b8ff" d="M520,-483.87C520,-477.11 520,-467.35 520,-458.26"/>
<polygon fill="#63b8ff" stroke="#63b8ff" points="523.5,-458.11 520,-448.11 516.5,-458.11 523.5,-458.11"/>
</a>
</g>
</g>
<!-- Node30&#45;&gt;Node2 -->
<g id="edge42_Node000030_Node000002" class="edge">
<title>Node30&#45;&gt;Node2</title>
<g id="a_edge42_Node000030_Node000002"><a xlink:title=" ">
<path fill="none" stroke="#63b8ff" d="M457.33,-419.2C393.96,-406.16 303.14,-387.14 287,-382 216.04,-359.42 191.77,-361.73 133,-316 100.1,-290.4 76,-283.19 76,-241.5 76,-241.5 76,-241.5 76,-129.5 76,-94.71 75.1,-79.29 100,-55 121.44,-34.09 152.19,-22.93 180.36,-17"/>
<polygon fill="#63b8ff" stroke="#63b8ff" points="181.03,-20.43 190.19,-15.11 179.71,-13.56 181.03,-20.43"/>
</a>
</g>
</g>
<!-- Node30&#45;&gt;Node10 -->
<g id="edge44_Node000030_Node000010" class="edge">
<title>Node30&#45;&gt;Node10</title>
<g id="a_edge44_Node000030_Node000010"><a xlink:title=" ">
<path fill="none" stroke="#63b8ff" d="M505.81,-417.97C479.19,-389.98 427.46,-326.44 462,-286 489.04,-254.34 602.31,-245.08 676.52,-242.45"/>
<polygon fill="#63b8ff" stroke="#63b8ff" points="676.84,-245.94 686.72,-242.12 676.62,-238.94 676.84,-245.94"/>
</a>
</g>
</g>
<!-- Node30&#45;&gt;Node17 -->
<g id="edge51_Node000030_Node000017" class="edge">
<title>Node30&#45;&gt;Node17</title>
<g id="a_edge51_Node000030_Node000017"><a xlink:title=" ">
<path fill="none" stroke="#63b8ff" d="M582.67,-430.67C729.42,-425.88 1083,-403.76 1083,-302 1083,-302 1083,-302 1083,-129.5 1083,-89.64 1056.66,-48.98 1039.79,-27.03"/>
<polygon fill="#63b8ff" stroke="#63b8ff" points="1042.42,-24.71 1033.45,-19.07 1036.95,-29.07 1042.42,-24.71"/>
</a>
</g>
</g>
<!-- Node30&#45;&gt;Node21 -->
<g id="edge43_Node000030_Node000021" class="edge">
<title>Node30&#45;&gt;Node21</title>
<g id="a_edge43_Node000030_Node000021"><a xlink:title=" ">
<path fill="none" stroke="#63b8ff" d="M550.07,-417.95C569.96,-408.66 596.26,-396.38 617.79,-386.32"/>
<polygon fill="#63b8ff" stroke="#63b8ff" points="619.43,-389.42 627,-382.01 616.46,-383.07 619.43,-389.42"/>
</a>
</g>
</g>
<!-- Node31 -->
<g id="Node000031" class="node">
<title>Node31</title>
<g id="a_Node000031"><a xlink:href="thrmask_8h.html" target="_top" xlink:title="ODP thread masks.">
<polygon fill="white" stroke="#666666" points="401.5,-376.5 296.5,-376.5 296.5,-357.5 401.5,-357.5 401.5,-376.5"/>
<text text-anchor="middle" x="349" y="-364.5" font-family="Helvetica,sans-Serif" font-size="10.00">odp/api/thrmask.h</text>
</a>
</g>
</g>
<!-- Node30&#45;&gt;Node31 -->
<g id="edge45_Node000030_Node000031" class="edge">
<title>Node30&#45;&gt;Node31</title>
<g id="a_edge45_Node000030_Node000031"><a xlink:title=" ">
<path fill="none" stroke="#63b8ff" d="M482.47,-417.95C452.22,-406.63 410.12,-390.88 381.34,-380.1"/>
<polygon fill="#63b8ff" stroke="#63b8ff" points="382.35,-376.74 371.76,-376.52 379.9,-383.3 382.35,-376.74"/>
</a>
</g>
</g>
<!-- Node32 -->
<g id="Node000032" class="node">
<title>Node32</title>
<g id="a_Node000032"><a xlink:title=" ">
<polygon fill="#e0e0e0" stroke="#999999" points="265.5,-310.5 142.5,-310.5 142.5,-291.5 265.5,-291.5 265.5,-310.5"/>
<text text-anchor="middle" x="204" y="-298.5" font-family="Helvetica,sans-Serif" font-size="10.00">odp/api/abi/thrmask.h</text>
</a>
</g>
</g>
<!-- Node31&#45;&gt;Node32 -->
<g id="edge46_Node000031_Node000032" class="edge">
<title>Node31&#45;&gt;Node32</title>
<g id="a_edge46_Node000031_Node000032"><a xlink:title=" ">
<path fill="none" stroke="#63b8ff" d="M329.44,-357.37C304.69,-346.44 261.83,-327.52 233.19,-314.88"/>
<polygon fill="#63b8ff" stroke="#63b8ff" points="234.27,-311.54 223.71,-310.7 231.44,-317.94 234.27,-311.54"/>
</a>
</g>
</g>
<!-- Node33 -->
<g id="Node000033" class="node">
<title>Node33</title>
<g id="a_Node000033"><a xlink:href="spec_2thrmask_8h.html" target="_top" xlink:title="ODP thread masks.">
<polygon fill="white" stroke="#666666" points="414.5,-310.5 283.5,-310.5 283.5,-291.5 414.5,-291.5 414.5,-310.5"/>
<text text-anchor="middle" x="349" y="-298.5" font-family="Helvetica,sans-Serif" font-size="10.00">odp/api/spec/thrmask.h</text>
</a>
</g>
</g>
<!-- Node31&#45;&gt;Node33 -->
<g id="edge47_Node000031_Node000033" class="edge">
<title>Node31&#45;&gt;Node33</title>
<g id="a_edge47_Node000031_Node000033"><a xlink:title=" ">
<path fill="none" stroke="#63b8ff" d="M349,-357.37C349,-348.16 349,-333.29 349,-321.27"/>
<polygon fill="#63b8ff" stroke="#63b8ff" points="352.5,-320.91 349,-310.91 345.5,-320.91 352.5,-320.91"/>
</a>
</g>
</g>
<!-- Node33&#45;&gt;Node2 -->
<g id="edge48_Node000033_Node000002" class="edge">
<title>Node33&#45;&gt;Node2</title>
<g id="a_edge48_Node000033_Node000002"><a xlink:title=" ">
<path fill="none" stroke="#63b8ff" d="M328.62,-291.49C295.1,-275.98 232,-239.7 232,-186.5 232,-186.5 232,-186.5 232,-129.5 232,-93.54 240.56,-52.23 246.19,-28.96"/>
<polygon fill="#63b8ff" stroke="#63b8ff" points="249.63,-29.64 248.67,-19.09 242.84,-27.93 249.63,-29.64"/>
</a>
</g>
</g>
<!-- Node33&#45;&gt;Node10 -->
<g id="edge49_Node000033_Node000010" class="edge">
<title>Node33&#45;&gt;Node10</title>
<g id="a_edge49_Node000033_Node000010"><a xlink:title=" ">
<path fill="none" stroke="#63b8ff" d="M396.34,-291.45C407.07,-289.59 418.42,-287.68 429,-286 514.25,-272.5 612.85,-258.85 676.47,-250.29"/>
<polygon fill="#63b8ff" stroke="#63b8ff" points="677.32,-253.71 686.76,-248.91 676.39,-246.77 677.32,-253.71"/>
</a>
</g>
</g>
<!-- Node33&#45;&gt;Node17 -->
<g id="edge50_Node000033_Node000017" class="edge">
<title>Node33&#45;&gt;Node17</title>
<g id="a_edge50_Node000033_Node000017"><a xlink:title=" ">
<path fill="none" stroke="#63b8ff" d="M374.51,-291.39C424.24,-274.4 537.4,-234.75 630,-195 647.72,-187.39 650.56,-181.63 669,-176 779.31,-142.33 826.27,-197.93 926,-140 971.5,-113.57 1003.52,-57.58 1017.73,-28.65"/>
<polygon fill="#63b8ff" stroke="#63b8ff" points="1021.04,-29.86 1022.16,-19.32 1014.71,-26.86 1021.04,-29.86"/>
</a>
</g>
</g>
</g>
</svg>
