<?xml version="1.0" encoding="UTF-8" standalone="no"?>
<!DOCTYPE svg PUBLIC "-//W3C//DTD SVG 1.1//EN"
 "http://www.w3.org/Graphics/SVG/1.1/DTD/svg11.dtd">
<!-- Generated by graphviz version 2.43.0 (0)
 -->
<!-- Title: thread.h Pages: 1 -->
<svg width="611pt" height="203pt"
 viewBox="0.00 0.00 611.00 203.00" xmlns="http://www.w3.org/2000/svg" xmlns:xlink="http://www.w3.org/1999/xlink">
<g id="graph0" class="graph" transform="scale(1 1) rotate(0) translate(4 199)">
<title>thread.h</title>
<!-- Node1 -->
<g id="Node000001" class="node">
<title>Node1</title>
<g id="a_Node000001"><a xlink:title="ODP thread API.">
<polygon fill="#999999" stroke="#666666" points="360,-195 303,-195 303,-176 360,-176 360,-195"/>
<text text-anchor="middle" x="331.5" y="-183" font-family="Helvetica,sans-Serif" font-size="10.00">thread.h</text>
</a>
</g>
</g>
<!-- Node2 -->
<g id="Node000002" class="node">
<title>Node2</title>
<g id="a_Node000002"><a xlink:href="thread_8h.html" target="_top" xlink:title="ODP thread API.">
<polygon fill="white" stroke="#666666" points="360,-140 303,-140 303,-121 360,-121 360,-140"/>
<text text-anchor="middle" x="331.5" y="-128" font-family="Helvetica,sans-Serif" font-size="10.00">thread.h</text>
</a>
</g>
</g>
<!-- Node1&#45;&gt;Node2 -->
<g id="edge1_Node000001_Node000002" class="edge">
<title>Node1&#45;&gt;Node2</title>
<g id="a_edge1_Node000001_Node000002"><a xlink:title=" ">
<path fill="none" stroke="#63b8ff" d="M331.5,-165.66C331.5,-156.93 331.5,-146.99 331.5,-140.09"/>
<polygon fill="#63b8ff" stroke="#63b8ff" points="328,-165.75 331.5,-175.75 335,-165.75 328,-165.75"/>
</a>
</g>
</g>
<!-- Node3 -->
<g id="Node000003" class="node">
<title>Node3</title>
<g id="a_Node000003"><a xlink:href="cpu_8h.html" target="_top" xlink:title="ODP CPU.">
<polygon fill="white" stroke="#666666" points="187,-79.5 144,-79.5 144,-60.5 187,-60.5 187,-79.5"/>
<text text-anchor="middle" x="165.5" y="-67.5" font-family="Helvetica,sans-Serif" font-size="10.00">cpu.h</text>
</a>
</g>
</g>
<!-- Node2&#45;&gt;Node3 -->
<g id="edge2_Node000002_Node000003" class="edge">
<title>Node2&#45;&gt;Node3</title>
<g id="a_edge2_Node000002_Node000003"><a xlink:title=" ">
<path fill="none" stroke="#63b8ff" d="M292.84,-117.95C265.63,-109.53 228.51,-97.47 196.5,-85 192.32,-83.37 187.89,-81.48 183.72,-79.62"/>
<polygon fill="#63b8ff" stroke="#63b8ff" points="292.16,-121.4 302.75,-120.99 294.21,-114.71 292.16,-121.4"/>
</a>
</g>
</g>
<!-- Node7 -->
<g id="Node000007" class="node">
<title>Node7</title>
<g id="a_Node000007"><a xlink:href="abi-default_2rwlock__recursive_8h.html" target="_top" xlink:title="ODP recursive read/write lock.">
<polygon fill="white" stroke="#666666" points="313.5,-79.5 205.5,-79.5 205.5,-60.5 313.5,-60.5 313.5,-79.5"/>
<text text-anchor="middle" x="259.5" y="-67.5" font-family="Helvetica,sans-Serif" font-size="10.00">rwlock_recursive.h</text>
</a>
</g>
</g>
<!-- Node2&#45;&gt;Node7 -->
<g id="edge6_Node000002_Node000007" class="edge">
<title>Node2&#45;&gt;Node7</title>
<g id="a_edge6_Node000002_Node000007"><a xlink:title=" ">
<path fill="none" stroke="#63b8ff" d="M313.08,-114.54C299.49,-103.49 281.46,-88.84 270.17,-79.67"/>
<polygon fill="#63b8ff" stroke="#63b8ff" points="310.91,-117.28 320.88,-120.87 315.32,-111.85 310.91,-117.28"/>
</a>
</g>
</g>
<!-- Node8 -->
<g id="Node000008" class="node">
<title>Node8</title>
<g id="a_Node000008"><a xlink:href="rwlock__recursive__inlines_8h_source.html" target="_top" xlink:title=" ">
<polygon fill="white" stroke="#666666" points="477.5,-79.5 331.5,-79.5 331.5,-60.5 477.5,-60.5 477.5,-79.5"/>
<text text-anchor="middle" x="404.5" y="-67.5" font-family="Helvetica,sans-Serif" font-size="10.00">rwlock_recursive_inlines.h</text>
</a>
</g>
</g>
<!-- Node2&#45;&gt;Node8 -->
<g id="edge7_Node000002_Node000008" class="edge">
<title>Node2&#45;&gt;Node8</title>
<g id="a_edge7_Node000002_Node000008"><a xlink:title=" ">
<path fill="none" stroke="#63b8ff" d="M350.17,-114.54C363.96,-103.49 382.24,-88.84 393.68,-79.67"/>
<polygon fill="#63b8ff" stroke="#63b8ff" points="347.89,-111.88 342.27,-120.87 352.26,-117.35 347.89,-111.88"/>
</a>
</g>
</g>
<!-- Node9 -->
<g id="Node000009" class="node">
<title>Node9</title>
<g id="a_Node000009"><a xlink:href="spinlock__recursive__inlines_8h_source.html" target="_top" xlink:title=" ">
<polygon fill="white" stroke="#666666" points="603,-85 496,-85 496,-55 603,-55 603,-85"/>
<text text-anchor="start" x="504" y="-73" font-family="Helvetica,sans-Serif" font-size="10.00">spinlock_recursive</text>
<text text-anchor="middle" x="549.5" y="-62" font-family="Helvetica,sans-Serif" font-size="10.00">_inlines.h</text>
</a>
</g>
</g>
<!-- Node2&#45;&gt;Node9 -->
<g id="edge8_Node000002_Node000009" class="edge">
<title>Node2&#45;&gt;Node9</title>
<g id="a_edge8_Node000002_Node000009"><a xlink:title=" ">
<path fill="none" stroke="#63b8ff" d="M370.37,-119.07C405.65,-109.6 457.98,-95.56 496.98,-85.09"/>
<polygon fill="#63b8ff" stroke="#63b8ff" points="369.2,-115.76 360.45,-121.73 371.01,-122.52 369.2,-115.76"/>
</a>
</g>
</g>
<!-- Node4 -->
<g id="Node000004" class="node">
<title>Node4</title>
<g id="a_Node000004"><a xlink:href="rwlock__inlines_8h_source.html" target="_top" xlink:title=" ">
<polygon fill="white" stroke="#666666" points="95,-19 0,-19 0,0 95,0 95,-19"/>
<text text-anchor="middle" x="47.5" y="-7" font-family="Helvetica,sans-Serif" font-size="10.00">rwlock_inlines.h</text>
</a>
</g>
</g>
<!-- Node3&#45;&gt;Node4 -->
<g id="edge3_Node000003_Node000004" class="edge">
<title>Node3&#45;&gt;Node4</title>
<g id="a_edge3_Node000003_Node000004"><a xlink:title=" ">
<path fill="none" stroke="#63b8ff" d="M139.24,-55.98C116.5,-44.71 84.26,-28.73 64.68,-19.02"/>
<polygon fill="#63b8ff" stroke="#63b8ff" points="137.83,-59.19 148.34,-60.49 140.94,-52.92 137.83,-59.19"/>
</a>
</g>
</g>
<!-- Node5 -->
<g id="Node000005" class="node">
<title>Node5</title>
<g id="a_Node000005"><a xlink:href="spinlock__inlines_8h_source.html" target="_top" xlink:title=" ">
<polygon fill="white" stroke="#666666" points="217.5,-19 113.5,-19 113.5,0 217.5,0 217.5,-19"/>
<text text-anchor="middle" x="165.5" y="-7" font-family="Helvetica,sans-Serif" font-size="10.00">spinlock_inlines.h</text>
</a>
</g>
</g>
<!-- Node3&#45;&gt;Node5 -->
<g id="edge4_Node000003_Node000005" class="edge">
<title>Node3&#45;&gt;Node5</title>
<g id="a_edge4_Node000003_Node000005"><a xlink:title=" ">
<path fill="none" stroke="#63b8ff" d="M165.5,-50.16C165.5,-39.74 165.5,-27.3 165.5,-19.17"/>
<polygon fill="#63b8ff" stroke="#63b8ff" points="162,-50.37 165.5,-60.37 169,-50.37 162,-50.37"/>
</a>
</g>
</g>
<!-- Node6 -->
<g id="Node000006" class="node">
<title>Node6</title>
<g id="a_Node000006"><a xlink:href="ticketlock__inlines_8h_source.html" target="_top" xlink:title=" ">
<polygon fill="white" stroke="#666666" points="345.5,-19 235.5,-19 235.5,0 345.5,0 345.5,-19"/>
<text text-anchor="middle" x="290.5" y="-7" font-family="Helvetica,sans-Serif" font-size="10.00">ticketlock_inlines.h</text>
</a>
</g>
</g>
<!-- Node3&#45;&gt;Node6 -->
<g id="edge5_Node000003_Node000006" class="edge">
<title>Node3&#45;&gt;Node6</title>
<g id="a_edge5_Node000003_Node000006"><a xlink:title=" ">
<path fill="none" stroke="#63b8ff" d="M192.99,-56.13C217.1,-44.85 251.46,-28.77 272.3,-19.02"/>
<polygon fill="#63b8ff" stroke="#63b8ff" points="191.25,-53.08 183.68,-60.49 194.22,-59.42 191.25,-53.08"/>
</a>
</g>
</g>
</g>
</svg>
