<?xml version="1.0" encoding="UTF-8" standalone="no"?>
<!DOCTYPE svg PUBLIC "-//W3C//DTD SVG 1.1//EN"
 "http://www.w3.org/Graphics/SVG/1.1/DTD/svg11.dtd">
<!-- Generated by graphviz version 2.43.0 (0)
 -->
<!-- Title: ml_types.h Pages: 1 -->
<svg width="1041pt" height="687pt"
 viewBox="0.00 0.00 1041.00 687.00" xmlns="http://www.w3.org/2000/svg" xmlns:xlink="http://www.w3.org/1999/xlink">
<g id="graph0" class="graph" transform="scale(1 1) rotate(0) translate(4 683)">
<title>ml_types.h</title>
<!-- Node1 -->
<g id="Node000001" class="node">
<title>Node1</title>
<g id="a_Node000001"><a xlink:title="ODP Machine Learning (ML) types.">
<polygon fill="#999999" stroke="#666666" points="515.5,-679 444.5,-679 444.5,-660 515.5,-660 515.5,-679"/>
<text text-anchor="middle" x="480" y="-667" font-family="Helvetica,sans-Serif" font-size="10.00">ml_types.h</text>
</a>
</g>
</g>
<!-- Node2 -->
<g id="Node000002" class="node">
<title>Node2</title>
<g id="a_Node000002"><a xlink:title=" ">
<polygon fill="#e0e0e0" stroke="#999999" points="444.5,-19 323.5,-19 323.5,0 444.5,0 444.5,-19"/>
<text text-anchor="middle" x="384" y="-7" font-family="Helvetica,sans-Serif" font-size="10.00">odp/visibility_begin.h</text>
</a>
</g>
</g>
<!-- Node1&#45;&gt;Node2 -->
<g id="edge1_Node000001_Node000002" class="edge">
<title>Node1&#45;&gt;Node2</title>
<g id="a_edge1_Node000001_Node000002"><a xlink:title=" ">
<path fill="none" stroke="#63b8ff" d="M444.31,-667.7C333.07,-664.25 0,-646.3 0,-555 0,-555 0,-555 0,-129.5 0,-81.88 34.26,-75.99 77,-55 117.37,-35.18 235.71,-22.28 313.12,-15.71"/>
<polygon fill="#63b8ff" stroke="#63b8ff" points="313.62,-19.18 323.29,-14.86 313.03,-12.2 313.62,-19.18"/>
</a>
</g>
</g>
<!-- Node3 -->
<g id="Node000003" class="node">
<title>Node3</title>
<g id="a_Node000003"><a xlink:href="event__types_8h.html" target="_top" xlink:title="ODP event API type definitions.">
<polygon fill="white" stroke="#666666" points="270.5,-250 145.5,-250 145.5,-231 270.5,-231 270.5,-250"/>
<text text-anchor="middle" x="208" y="-238" font-family="Helvetica,sans-Serif" font-size="10.00">odp/api/event_types.h</text>
</a>
</g>
</g>
<!-- Node1&#45;&gt;Node3 -->
<g id="edge2_Node000001_Node000003" class="edge">
<title>Node1&#45;&gt;Node3</title>
<g id="a_edge2_Node000001_Node000003"><a xlink:title=" ">
<path fill="none" stroke="#63b8ff" d="M444.15,-666.13C345.27,-658.6 76,-631.13 76,-555 76,-555 76,-555 76,-366 76,-329.46 71.06,-313.61 95,-286 108.95,-269.92 129.47,-259.6 149.22,-253"/>
<polygon fill="#63b8ff" stroke="#63b8ff" points="150.29,-256.33 158.82,-250.05 148.23,-249.64 150.29,-256.33"/>
</a>
</g>
</g>
<!-- Node6 -->
<g id="Node000006" class="node">
<title>Node6</title>
<g id="a_Node000006"><a xlink:title=" ">
<polygon fill="#e0e0e0" stroke="#999999" points="955,-19 843,-19 843,0 955,0 955,-19"/>
<text text-anchor="middle" x="899" y="-7" font-family="Helvetica,sans-Serif" font-size="10.00">odp/visibility_end.h</text>
</a>
</g>
</g>
<!-- Node1&#45;&gt;Node6 -->
<g id="edge44_Node000001_Node000006" class="edge">
<title>Node1&#45;&gt;Node6</title>
<g id="a_edge44_Node000001_Node000006"><a xlink:title=" ">
<path fill="none" stroke="#63b8ff" d="M515.86,-668.81C638.4,-668.9 1033,-660.97 1033,-555 1033,-555 1033,-555 1033,-129.5 1033,-75.75 971.98,-40.35 932.29,-23.01"/>
<polygon fill="#63b8ff" stroke="#63b8ff" points="933.53,-19.74 922.96,-19.09 930.82,-26.19 933.53,-19.74"/>
</a>
</g>
</g>
<!-- Node7 -->
<g id="Node000007" class="node">
<title>Node7</title>
<g id="a_Node000007"><a xlink:href="queue__types_8h.html" target="_top" xlink:title="ODP queue.">
<polygon fill="white" stroke="#666666" points="543.5,-624 416.5,-624 416.5,-605 543.5,-605 543.5,-624"/>
<text text-anchor="middle" x="480" y="-612" font-family="Helvetica,sans-Serif" font-size="10.00">odp/api/queue_types.h</text>
</a>
</g>
</g>
<!-- Node1&#45;&gt;Node7 -->
<g id="edge7_Node000001_Node000007" class="edge">
<title>Node1&#45;&gt;Node7</title>
<g id="a_edge7_Node000001_Node000007"><a xlink:title=" ">
<path fill="none" stroke="#63b8ff" d="M480,-659.75C480,-652.8 480,-642.85 480,-634.13"/>
<polygon fill="#63b8ff" stroke="#63b8ff" points="483.5,-634.09 480,-624.09 476.5,-634.09 483.5,-634.09"/>
</a>
</g>
</g>
<!-- Node14 -->
<g id="Node000014" class="node">
<title>Node14</title>
<g id="a_Node000014"><a xlink:href="std__types_8h.html" target="_top" xlink:title="Standard C language types and definitions for ODP.">
<polygon fill="white" stroke="#666666" points="722,-250 610,-250 610,-231 722,-231 722,-250"/>
<text text-anchor="middle" x="666" y="-238" font-family="Helvetica,sans-Serif" font-size="10.00">odp/api/std_types.h</text>
</a>
</g>
</g>
<!-- Node1&#45;&gt;Node14 -->
<g id="edge43_Node000001_Node000014" class="edge">
<title>Node1&#45;&gt;Node14</title>
<g id="a_edge43_Node000001_Node000014"><a xlink:title=" ">
<path fill="none" stroke="#63b8ff" d="M515.8,-668.27C632.6,-666.55 995,-653.31 995,-555 995,-555 995,-555 995,-432 995,-354.58 964.29,-329.13 900,-286 873.1,-267.95 791.47,-255.33 732.18,-248.25"/>
<polygon fill="#63b8ff" stroke="#63b8ff" points="732.47,-244.76 722.13,-247.07 731.66,-251.71 732.47,-244.76"/>
</a>
</g>
</g>
<!-- Node4 -->
<g id="Node000004" class="node">
<title>Node4</title>
<g id="a_Node000004"><a xlink:title=" ">
<polygon fill="#e0e0e0" stroke="#999999" points="275.5,-195 132.5,-195 132.5,-176 275.5,-176 275.5,-195"/>
<text text-anchor="middle" x="204" y="-183" font-family="Helvetica,sans-Serif" font-size="10.00">odp/api/abi/event_types.h</text>
</a>
</g>
</g>
<!-- Node3&#45;&gt;Node4 -->
<g id="edge3_Node000003_Node000004" class="edge">
<title>Node3&#45;&gt;Node4</title>
<g id="a_edge3_Node000003_Node000004"><a xlink:title=" ">
<path fill="none" stroke="#63b8ff" d="M207.34,-230.75C206.82,-223.8 206.06,-213.85 205.41,-205.13"/>
<polygon fill="#63b8ff" stroke="#63b8ff" points="208.89,-204.8 204.65,-195.09 201.91,-205.32 208.89,-204.8"/>
</a>
</g>
</g>
<!-- Node5 -->
<g id="Node000005" class="node">
<title>Node5</title>
<g id="a_Node000005"><a xlink:href="spec_2event__types_8h.html" target="_top" xlink:title="ODP event API type definitions.">
<polygon fill="white" stroke="#666666" points="479.5,-85 370.5,-85 370.5,-55 479.5,-55 479.5,-85"/>
<text text-anchor="start" x="378.5" y="-73" font-family="Helvetica,sans-Serif" font-size="10.00">odp/api/spec/event</text>
<text text-anchor="middle" x="425" y="-62" font-family="Helvetica,sans-Serif" font-size="10.00">_types.h</text>
</a>
</g>
</g>
<!-- Node3&#45;&gt;Node5 -->
<g id="edge4_Node000003_Node000005" class="edge">
<title>Node3&#45;&gt;Node5</title>
<g id="a_edge4_Node000003_Node000005"><a xlink:title=" ">
<path fill="none" stroke="#63b8ff" d="M224.58,-230.99C240.36,-222.61 264.54,-209.06 284,-195 329.22,-162.34 376.98,-117.94 403.69,-92.09"/>
<polygon fill="#63b8ff" stroke="#63b8ff" points="406.24,-94.49 410.96,-85 401.35,-89.48 406.24,-94.49"/>
</a>
</g>
</g>
<!-- Node5&#45;&gt;Node2 -->
<g id="edge5_Node000005_Node000002" class="edge">
<title>Node5&#45;&gt;Node2</title>
<g id="a_edge5_Node000005_Node000002"><a xlink:title=" ">
<path fill="none" stroke="#63b8ff" d="M415.08,-54.84C409.31,-46.61 402,-36.18 395.92,-27.51"/>
<polygon fill="#63b8ff" stroke="#63b8ff" points="398.75,-25.45 390.14,-19.27 393.02,-29.46 398.75,-25.45"/>
</a>
</g>
</g>
<!-- Node5&#45;&gt;Node6 -->
<g id="edge6_Node000005_Node000006" class="edge">
<title>Node5&#45;&gt;Node6</title>
<g id="a_edge6_Node000005_Node000006"><a xlink:title=" ">
<path fill="none" stroke="#63b8ff" d="M479.84,-62.23C567.42,-51.42 738.59,-30.3 832.83,-18.67"/>
<polygon fill="#63b8ff" stroke="#63b8ff" points="833.33,-22.13 842.82,-17.43 832.47,-15.18 833.33,-22.13"/>
</a>
</g>
</g>
<!-- Node8 -->
<g id="Node000008" class="node">
<title>Node8</title>
<g id="a_Node000008"><a xlink:title=" ">
<polygon fill="#e0e0e0" stroke="#999999" points="625.5,-563.5 480.5,-563.5 480.5,-544.5 625.5,-544.5 625.5,-563.5"/>
<text text-anchor="middle" x="553" y="-551.5" font-family="Helvetica,sans-Serif" font-size="10.00">odp/api/abi/queue_types.h</text>
</a>
</g>
</g>
<!-- Node7&#45;&gt;Node8 -->
<g id="edge8_Node000007_Node000008" class="edge">
<title>Node7&#45;&gt;Node8</title>
<g id="a_edge8_Node000007_Node000008"><a xlink:title=" ">
<path fill="none" stroke="#63b8ff" d="M490.77,-604.87C502.2,-595.71 520.48,-581.06 534.28,-570.01"/>
<polygon fill="#63b8ff" stroke="#63b8ff" points="536.57,-572.65 542.18,-563.67 532.19,-567.19 536.57,-572.65"/>
</a>
</g>
</g>
<!-- Node9 -->
<g id="Node000009" class="node">
<title>Node9</title>
<g id="a_Node000009"><a xlink:href="spec_2queue__types_8h.html" target="_top" xlink:title="ODP queue types.">
<polygon fill="white" stroke="#666666" points="462.5,-569 351.5,-569 351.5,-539 462.5,-539 462.5,-569"/>
<text text-anchor="start" x="359.5" y="-557" font-family="Helvetica,sans-Serif" font-size="10.00">odp/api/spec/queue</text>
<text text-anchor="middle" x="407" y="-546" font-family="Helvetica,sans-Serif" font-size="10.00">_types.h</text>
</a>
</g>
</g>
<!-- Node7&#45;&gt;Node9 -->
<g id="edge9_Node000007_Node000009" class="edge">
<title>Node7&#45;&gt;Node9</title>
<g id="a_edge9_Node000007_Node000009"><a xlink:title=" ">
<path fill="none" stroke="#63b8ff" d="M469.23,-604.87C459.6,-597.15 445.11,-585.54 432.53,-575.46"/>
<polygon fill="#63b8ff" stroke="#63b8ff" points="434.61,-572.64 424.61,-569.11 430.23,-578.1 434.61,-572.64"/>
</a>
</g>
</g>
<!-- Node9&#45;&gt;Node2 -->
<g id="edge10_Node000009_Node000002" class="edge">
<title>Node9&#45;&gt;Node2</title>
<g id="a_edge10_Node000009_Node000002"><a xlink:title=" ">
<path fill="none" stroke="#63b8ff" d="M361.75,-538.87C263.22,-504.98 38,-409.17 38,-241.5 38,-241.5 38,-241.5 38,-129.5 38,-71.85 211.95,-36.12 313.17,-20.22"/>
<polygon fill="#63b8ff" stroke="#63b8ff" points="313.99,-23.63 323.34,-18.65 312.92,-16.72 313.99,-23.63"/>
</a>
</g>
</g>
<!-- Node9&#45;&gt;Node6 -->
<g id="edge42_Node000009_Node000006" class="edge">
<title>Node9&#45;&gt;Node6</title>
<g id="a_edge42_Node000009_Node000006"><a xlink:title=" ">
<path fill="none" stroke="#63b8ff" d="M454.62,-538.96C594.6,-496.27 995,-363.52 995,-241.5 995,-241.5 995,-241.5 995,-129.5 995,-83.27 950.57,-44.87 922.16,-25.04"/>
<polygon fill="#63b8ff" stroke="#63b8ff" points="923.83,-21.94 913.58,-19.27 919.93,-27.75 923.83,-21.94"/>
</a>
</g>
</g>
<!-- Node10 -->
<g id="Node000010" class="node">
<title>Node10</title>
<g id="a_Node000010"><a xlink:href="event__vector__types_8h.html" target="_top" xlink:title="ODP event vector API type definitions.">
<polygon fill="white" stroke="#666666" points="417.5,-382 298.5,-382 298.5,-352 417.5,-352 417.5,-382"/>
<text text-anchor="start" x="306.5" y="-370" font-family="Helvetica,sans-Serif" font-size="10.00">odp/api/event_vector</text>
<text text-anchor="middle" x="358" y="-359" font-family="Helvetica,sans-Serif" font-size="10.00">_types.h</text>
</a>
</g>
</g>
<!-- Node9&#45;&gt;Node10 -->
<g id="edge11_Node000009_Node000010" class="edge">
<title>Node9&#45;&gt;Node10</title>
<g id="a_edge11_Node000009_Node000010"><a xlink:title=" ">
<path fill="none" stroke="#63b8ff" d="M396.43,-538.9C389.77,-529.28 381.59,-515.98 377,-503 363.88,-465.94 359.79,-420.13 358.53,-392.53"/>
<polygon fill="#63b8ff" stroke="#63b8ff" points="362.02,-392.1 358.16,-382.24 355.02,-392.36 362.02,-392.1"/>
</a>
</g>
</g>
<!-- Node21 -->
<g id="Node000021" class="node">
<title>Node21</title>
<g id="a_Node000021"><a xlink:href="schedule__types_8h.html" target="_top" xlink:title="ODP schedule.">
<polygon fill="white" stroke="#666666" points="526,-503 386,-503 386,-484 526,-484 526,-503"/>
<text text-anchor="middle" x="456" y="-491" font-family="Helvetica,sans-Serif" font-size="10.00">odp/api/schedule_types.h</text>
</a>
</g>
</g>
<!-- Node9&#45;&gt;Node21 -->
<g id="edge29_Node000009_Node000021" class="edge">
<title>Node9&#45;&gt;Node21</title>
<g id="a_edge29_Node000009_Node000021"><a xlink:title=" ">
<path fill="none" stroke="#63b8ff" d="M418.86,-538.84C425.9,-530.43 434.86,-519.74 442.21,-510.96"/>
<polygon fill="#63b8ff" stroke="#63b8ff" points="444.92,-513.18 448.66,-503.27 439.55,-508.68 444.92,-513.18"/>
</a>
</g>
</g>
<!-- Node11 -->
<g id="Node000011" class="node">
<title>Node11</title>
<g id="a_Node000011"><a xlink:title=" ">
<polygon fill="#e0e0e0" stroke="#999999" points="241.5,-316 104.5,-316 104.5,-286 241.5,-286 241.5,-316"/>
<text text-anchor="start" x="112.5" y="-304" font-family="Helvetica,sans-Serif" font-size="10.00">odp/api/abi/event_vector</text>
<text text-anchor="middle" x="173" y="-293" font-family="Helvetica,sans-Serif" font-size="10.00">_types.h</text>
</a>
</g>
</g>
<!-- Node10&#45;&gt;Node11 -->
<g id="edge12_Node000010_Node000011" class="edge">
<title>Node10&#45;&gt;Node11</title>
<g id="a_edge12_Node000010_Node000011"><a xlink:title=" ">
<path fill="none" stroke="#63b8ff" d="M317.4,-351.95C289.69,-342.37 252.79,-329.6 223.22,-319.37"/>
<polygon fill="#63b8ff" stroke="#63b8ff" points="224.1,-315.97 213.5,-316.01 221.81,-322.59 224.1,-315.97"/>
</a>
</g>
</g>
<!-- Node12 -->
<g id="Node000012" class="node">
<title>Node12</title>
<g id="a_Node000012"><a xlink:title=" ">
<polygon fill="#e0e0e0" stroke="#999999" points="396,-310.5 260,-310.5 260,-291.5 396,-291.5 396,-310.5"/>
<text text-anchor="middle" x="328" y="-298.5" font-family="Helvetica,sans-Serif" font-size="10.00">odp/api/abi/pool_types.h</text>
</a>
</g>
</g>
<!-- Node10&#45;&gt;Node12 -->
<g id="edge13_Node000010_Node000012" class="edge">
<title>Node10&#45;&gt;Node12</title>
<g id="a_edge13_Node000010_Node000012"><a xlink:title=" ">
<path fill="none" stroke="#63b8ff" d="M351.34,-351.8C346.94,-342.41 341.13,-330.02 336.41,-319.95"/>
<polygon fill="#63b8ff" stroke="#63b8ff" points="339.56,-318.41 332.15,-310.84 333.22,-321.38 339.56,-318.41"/>
</a>
</g>
</g>
<!-- Node13 -->
<g id="Node000013" class="node">
<title>Node13</title>
<g id="a_Node000013"><a xlink:href="spec_2event__vector__types_8h.html" target="_top" xlink:title="ODP event vector API type definitions.">
<polygon fill="white" stroke="#666666" points="523.5,-316 414.5,-316 414.5,-286 523.5,-286 523.5,-316"/>
<text text-anchor="start" x="422.5" y="-304" font-family="Helvetica,sans-Serif" font-size="10.00">odp/api/spec/event</text>
<text text-anchor="middle" x="469" y="-293" font-family="Helvetica,sans-Serif" font-size="10.00">_vector_types.h</text>
</a>
</g>
</g>
<!-- Node10&#45;&gt;Node13 -->
<g id="edge14_Node000010_Node000013" class="edge">
<title>Node10&#45;&gt;Node13</title>
<g id="a_edge14_Node000010_Node000013"><a xlink:title=" ">
<path fill="none" stroke="#63b8ff" d="M382.36,-351.95C397.97,-342.95 418.45,-331.14 435.58,-321.27"/>
<polygon fill="#63b8ff" stroke="#63b8ff" points="437.78,-324.04 444.7,-316.01 434.29,-317.98 437.78,-324.04"/>
</a>
</g>
</g>
<!-- Node13&#45;&gt;Node2 -->
<g id="edge15_Node000013_Node000002" class="edge">
<title>Node13&#45;&gt;Node2</title>
<g id="a_edge15_Node000013_Node000002"><a xlink:title=" ">
<path fill="none" stroke="#63b8ff" d="M414.06,-286.7C366.06,-271.41 304,-241.09 304,-186.5 304,-186.5 304,-186.5 304,-129.5 304,-94.71 308.2,-83.6 328,-55 336.42,-42.83 349.13,-32.35 360.32,-24.62"/>
<polygon fill="#63b8ff" stroke="#63b8ff" points="362.4,-27.44 368.85,-19.04 358.57,-21.59 362.4,-27.44"/>
</a>
</g>
</g>
<!-- Node13&#45;&gt;Node3 -->
<g id="edge16_Node000013_Node000003" class="edge">
<title>Node13&#45;&gt;Node3</title>
<g id="a_edge16_Node000013_Node000003"><a xlink:title=" ">
<path fill="none" stroke="#63b8ff" d="M414.29,-287.74C367.45,-277.24 300.69,-262.28 255.93,-252.24"/>
<polygon fill="#63b8ff" stroke="#63b8ff" points="256.69,-248.83 246.17,-250.06 255.16,-255.66 256.69,-248.83"/>
</a>
</g>
</g>
<!-- Node13&#45;&gt;Node6 -->
<g id="edge28_Node000013_Node000006" class="edge">
<title>Node13&#45;&gt;Node6</title>
<g id="a_edge28_Node000013_Node000006"><a xlink:title=" ">
<path fill="none" stroke="#63b8ff" d="M493.28,-285.91C519.37,-271.11 562.3,-247.7 601,-231 645.91,-211.62 660.76,-215.87 705,-195 747.39,-174.99 756.69,-167.02 795,-140 826.76,-117.59 838.85,-115.46 863,-85 876.49,-67.99 886.6,-45.1 892.62,-29.2"/>
<polygon fill="#63b8ff" stroke="#63b8ff" points="896.03,-30.06 896.12,-19.47 889.44,-27.69 896.03,-30.06"/>
</a>
</g>
</g>
<!-- Node13&#45;&gt;Node14 -->
<g id="edge17_Node000013_Node000014" class="edge">
<title>Node13&#45;&gt;Node14</title>
<g id="a_edge17_Node000013_Node000014"><a xlink:title=" ">
<path fill="none" stroke="#63b8ff" d="M516.19,-285.99C550.18,-275.89 595.5,-262.44 627.36,-252.98"/>
<polygon fill="#63b8ff" stroke="#63b8ff" points="628.61,-256.26 637.2,-250.05 626.61,-249.55 628.61,-256.26"/>
</a>
</g>
</g>
<!-- Node15 -->
<g id="Node000015" class="node">
<title>Node15</title>
<g id="a_Node000015"><a xlink:title=" ">
<polygon fill="#e0e0e0" stroke="#999999" points="882,-195 752,-195 752,-176 882,-176 882,-195"/>
<text text-anchor="middle" x="817" y="-183" font-family="Helvetica,sans-Serif" font-size="10.00">odp/api/abi/std_types.h</text>
</a>
</g>
</g>
<!-- Node14&#45;&gt;Node15 -->
<g id="edge18_Node000014_Node000015" class="edge">
<title>Node14&#45;&gt;Node15</title>
<g id="a_edge18_Node000014_Node000015"><a xlink:title=" ">
<path fill="none" stroke="#63b8ff" d="M690.26,-230.98C715.32,-222.19 754.63,-208.39 782.83,-198.49"/>
<polygon fill="#63b8ff" stroke="#63b8ff" points="784.02,-201.78 792.3,-195.17 781.7,-195.18 784.02,-201.78"/>
</a>
</g>
</g>
<!-- Node16 -->
<g id="Node000016" class="node">
<title>Node16</title>
<g id="a_Node000016"><a xlink:href="spec_2std__types_8h.html" target="_top" xlink:title="Common types and definitions for ODP API files.">
<polygon fill="white" stroke="#666666" points="695.5,-195 558.5,-195 558.5,-176 695.5,-176 695.5,-195"/>
<text text-anchor="middle" x="627" y="-183" font-family="Helvetica,sans-Serif" font-size="10.00">odp/api/spec/std_types.h</text>
</a>
</g>
</g>
<!-- Node14&#45;&gt;Node16 -->
<g id="edge19_Node000014_Node000016" class="edge">
<title>Node14&#45;&gt;Node16</title>
<g id="a_edge19_Node000014_Node000016"><a xlink:title=" ">
<path fill="none" stroke="#63b8ff" d="M659.56,-230.75C654.11,-223.34 646.14,-212.5 639.44,-203.41"/>
<polygon fill="#63b8ff" stroke="#63b8ff" points="642.07,-201.07 633.32,-195.09 636.43,-205.22 642.07,-201.07"/>
</a>
</g>
</g>
<!-- Node16&#45;&gt;Node2 -->
<g id="edge20_Node000016_Node000002" class="edge">
<title>Node16&#45;&gt;Node2</title>
<g id="a_edge20_Node000016_Node000002"><a xlink:title=" ">
<path fill="none" stroke="#63b8ff" d="M619.58,-175.68C612.07,-166.73 600.16,-152.46 590,-140 559.42,-102.51 561.82,-82.48 522,-55 498.59,-38.84 468.96,-28.28 443.16,-21.52"/>
<polygon fill="#63b8ff" stroke="#63b8ff" points="443.66,-18.04 433.11,-19.03 441.97,-24.83 443.66,-18.04"/>
</a>
</g>
</g>
<!-- Node16&#45;&gt;Node6 -->
<g id="edge27_Node000016_Node000006" class="edge">
<title>Node16&#45;&gt;Node6</title>
<g id="a_edge27_Node000016_Node000006"><a xlink:title=" ">
<path fill="none" stroke="#63b8ff" d="M672.16,-175.99C701.02,-169.21 738.43,-157.83 768,-140 818.93,-109.29 865,-54.85 886.39,-27.37"/>
<polygon fill="#63b8ff" stroke="#63b8ff" points="889.38,-29.23 892.67,-19.16 883.82,-24.98 889.38,-29.23"/>
</a>
</g>
</g>
<!-- Node17 -->
<g id="Node000017" class="node">
<title>Node17</title>
<g id="a_Node000017"><a xlink:title=" ">
<polygon fill="#e0e0e0" stroke="#999999" points="651.5,-140 598.5,-140 598.5,-121 651.5,-121 651.5,-140"/>
<text text-anchor="middle" x="625" y="-128" font-family="Helvetica,sans-Serif" font-size="10.00">stdint.h</text>
</a>
</g>
</g>
<!-- Node16&#45;&gt;Node17 -->
<g id="edge21_Node000016_Node000017" class="edge">
<title>Node16&#45;&gt;Node17</title>
<g id="a_edge21_Node000016_Node000017"><a xlink:title=" ">
<path fill="none" stroke="#63b8ff" d="M626.67,-175.75C626.41,-168.8 626.03,-158.85 625.7,-150.13"/>
<polygon fill="#63b8ff" stroke="#63b8ff" points="629.2,-149.95 625.32,-140.09 622.2,-150.21 629.2,-149.95"/>
</a>
</g>
</g>
<!-- Node18 -->
<g id="Node000018" class="node">
<title>Node18</title>
<g id="a_Node000018"><a xlink:href="align_8h.html" target="_top" xlink:title="ODP alignments.">
<polygon fill="white" stroke="#666666" points="758.5,-140 669.5,-140 669.5,-121 758.5,-121 758.5,-140"/>
<text text-anchor="middle" x="714" y="-128" font-family="Helvetica,sans-Serif" font-size="10.00">odp/api/align.h</text>
</a>
</g>
</g>
<!-- Node16&#45;&gt;Node18 -->
<g id="edge22_Node000016_Node000018" class="edge">
<title>Node16&#45;&gt;Node18</title>
<g id="a_edge22_Node000016_Node000018"><a xlink:title=" ">
<path fill="none" stroke="#63b8ff" d="M640.98,-175.98C654.47,-167.77 675.13,-155.18 691.04,-145.49"/>
<polygon fill="#63b8ff" stroke="#63b8ff" points="693.05,-148.36 699.77,-140.17 689.41,-142.38 693.05,-148.36"/>
</a>
</g>
</g>
<!-- Node19 -->
<g id="Node000019" class="node">
<title>Node19</title>
<g id="a_Node000019"><a xlink:title=" ">
<polygon fill="#e0e0e0" stroke="#999999" points="813.5,-79.5 706.5,-79.5 706.5,-60.5 813.5,-60.5 813.5,-79.5"/>
<text text-anchor="middle" x="760" y="-67.5" font-family="Helvetica,sans-Serif" font-size="10.00">odp/api/abi/align.h</text>
</a>
</g>
</g>
<!-- Node18&#45;&gt;Node19 -->
<g id="edge23_Node000018_Node000019" class="edge">
<title>Node18&#45;&gt;Node19</title>
<g id="a_edge23_Node000018_Node000019"><a xlink:title=" ">
<path fill="none" stroke="#63b8ff" d="M720.79,-120.87C727.65,-112.14 738.43,-98.43 746.95,-87.59"/>
<polygon fill="#63b8ff" stroke="#63b8ff" points="749.75,-89.69 753.18,-79.67 744.25,-85.36 749.75,-89.69"/>
</a>
</g>
</g>
<!-- Node20 -->
<g id="Node000020" class="node">
<title>Node20</title>
<g id="a_Node000020"><a xlink:href="spec_2align_8h.html" target="_top" xlink:title="ODP alignments.">
<polygon fill="white" stroke="#666666" points="688,-79.5 574,-79.5 574,-60.5 688,-60.5 688,-79.5"/>
<text text-anchor="middle" x="631" y="-67.5" font-family="Helvetica,sans-Serif" font-size="10.00">odp/api/spec/align.h</text>
</a>
</g>
</g>
<!-- Node18&#45;&gt;Node20 -->
<g id="edge24_Node000018_Node000020" class="edge">
<title>Node18&#45;&gt;Node20</title>
<g id="a_edge24_Node000018_Node000020"><a xlink:title=" ">
<path fill="none" stroke="#63b8ff" d="M701.75,-120.87C688.64,-111.62 667.58,-96.78 651.85,-85.69"/>
<polygon fill="#63b8ff" stroke="#63b8ff" points="653.49,-82.57 643.3,-79.67 649.45,-88.29 653.49,-82.57"/>
</a>
</g>
</g>
<!-- Node20&#45;&gt;Node2 -->
<g id="edge25_Node000020_Node000002" class="edge">
<title>Node20&#45;&gt;Node2</title>
<g id="a_edge25_Node000020_Node000002"><a xlink:title=" ">
<path fill="none" stroke="#63b8ff" d="M595.08,-60.49C551.36,-50.14 477.47,-32.64 429.73,-21.33"/>
<polygon fill="#63b8ff" stroke="#63b8ff" points="430.5,-17.92 419.96,-19.02 428.88,-24.73 430.5,-17.92"/>
</a>
</g>
</g>
<!-- Node20&#45;&gt;Node6 -->
<g id="edge26_Node000020_Node000006" class="edge">
<title>Node20&#45;&gt;Node6</title>
<g id="a_edge26_Node000020_Node000006"><a xlink:title=" ">
<path fill="none" stroke="#63b8ff" d="M669.97,-60.49C717.6,-50.1 798.25,-32.49 850.03,-21.19"/>
<polygon fill="#63b8ff" stroke="#63b8ff" points="850.96,-24.57 859.98,-19.02 849.47,-17.73 850.96,-24.57"/>
</a>
</g>
</g>
<!-- Node22 -->
<g id="Node000022" class="node">
<title>Node22</title>
<g id="a_Node000022"><a xlink:title=" ">
<polygon fill="#e0e0e0" stroke="#999999" points="509.5,-448 392.5,-448 392.5,-418 509.5,-418 509.5,-448"/>
<text text-anchor="start" x="400.5" y="-436" font-family="Helvetica,sans-Serif" font-size="10.00">odp/api/abi/schedule</text>
<text text-anchor="middle" x="451" y="-425" font-family="Helvetica,sans-Serif" font-size="10.00">_types.h</text>
</a>
</g>
</g>
<!-- Node21&#45;&gt;Node22 -->
<g id="edge30_Node000021_Node000022" class="edge">
<title>Node21&#45;&gt;Node22</title>
<g id="a_edge30_Node000021_Node000022"><a xlink:title=" ">
<path fill="none" stroke="#63b8ff" d="M455.26,-483.87C454.68,-477.11 453.85,-467.35 453.07,-458.26"/>
<polygon fill="#63b8ff" stroke="#63b8ff" points="456.55,-457.78 452.21,-448.11 449.57,-458.38 456.55,-457.78"/>
</a>
</g>
</g>
<!-- Node23 -->
<g id="Node000023" class="node">
<title>Node23</title>
<g id="a_Node000023"><a xlink:href="spec_2schedule__types_8h.html" target="_top" xlink:title="ODP schedule types.">
<polygon fill="white" stroke="#666666" points="652.5,-448 527.5,-448 527.5,-418 652.5,-418 652.5,-448"/>
<text text-anchor="start" x="535.5" y="-436" font-family="Helvetica,sans-Serif" font-size="10.00">odp/api/spec/schedule</text>
<text text-anchor="middle" x="590" y="-425" font-family="Helvetica,sans-Serif" font-size="10.00">_types.h</text>
</a>
</g>
</g>
<!-- Node21&#45;&gt;Node23 -->
<g id="edge31_Node000021_Node000023" class="edge">
<title>Node21&#45;&gt;Node23</title>
<g id="a_edge31_Node000021_Node000023"><a xlink:title=" ">
<path fill="none" stroke="#63b8ff" d="M475.48,-483.99C494.52,-475.68 524.09,-462.78 548.41,-452.16"/>
<polygon fill="#63b8ff" stroke="#63b8ff" points="550.02,-455.27 557.78,-448.06 547.22,-448.86 550.02,-455.27"/>
</a>
</g>
</g>
<!-- Node23&#45;&gt;Node2 -->
<g id="edge32_Node000023_Node000002" class="edge">
<title>Node23&#45;&gt;Node2</title>
<g id="a_edge32_Node000023_Node000002"><a xlink:title=" ">
<path fill="none" stroke="#63b8ff" d="M586.13,-417.59C578.49,-390.53 559.86,-330.81 533,-286 472.55,-185.15 401.75,-195.29 361,-85 353.92,-65.83 363.18,-43.37 371.98,-28.16"/>
<polygon fill="#63b8ff" stroke="#63b8ff" points="375.18,-29.65 377.52,-19.32 369.24,-25.94 375.18,-29.65"/>
</a>
</g>
</g>
<!-- Node23&#45;&gt;Node6 -->
<g id="edge41_Node000023_Node000006" class="edge">
<title>Node23&#45;&gt;Node6</title>
<g id="a_edge41_Node000023_Node000006"><a xlink:title=" ">
<path fill="none" stroke="#63b8ff" d="M652.64,-424.09C721.82,-412.21 832.34,-383.44 900,-316 944.41,-271.73 956,-249.21 956,-186.5 956,-186.5 956,-186.5 956,-129.5 956,-89.64 929.66,-48.98 912.79,-27.03"/>
<polygon fill="#63b8ff" stroke="#63b8ff" points="915.42,-24.71 906.45,-19.07 909.95,-29.07 915.42,-24.71"/>
</a>
</g>
</g>
<!-- Node23&#45;&gt;Node10 -->
<g id="edge33_Node000023_Node000010" class="edge">
<title>Node23&#45;&gt;Node10</title>
<g id="a_edge33_Node000023_Node000010"><a xlink:title=" ">
<path fill="none" stroke="#63b8ff" d="M539.09,-417.95C503.58,-408.16 456.04,-395.05 418.58,-384.71"/>
<polygon fill="#63b8ff" stroke="#63b8ff" points="419.37,-381.3 408.79,-382.01 417.5,-388.05 419.37,-381.3"/>
</a>
</g>
</g>
<!-- Node23&#45;&gt;Node14 -->
<g id="edge34_Node000023_Node000014" class="edge">
<title>Node23&#45;&gt;Node14</title>
<g id="a_edge34_Node000023_Node000014"><a xlink:title=" ">
<path fill="none" stroke="#63b8ff" d="M588.6,-417.62C586.6,-390.1 585.56,-328.91 610,-286 617.18,-273.4 629.46,-263.03 640.7,-255.49"/>
<polygon fill="#63b8ff" stroke="#63b8ff" points="642.75,-258.33 649.37,-250.05 639.03,-252.4 642.75,-258.33"/>
</a>
</g>
</g>
<!-- Node24 -->
<g id="Node000024" class="node">
<title>Node24</title>
<g id="a_Node000024"><a xlink:href="thrmask_8h.html" target="_top" xlink:title="ODP thread masks.">
<polygon fill="white" stroke="#666666" points="736.5,-376.5 631.5,-376.5 631.5,-357.5 736.5,-357.5 736.5,-376.5"/>
<text text-anchor="middle" x="684" y="-364.5" font-family="Helvetica,sans-Serif" font-size="10.00">odp/api/thrmask.h</text>
</a>
</g>
</g>
<!-- Node23&#45;&gt;Node24 -->
<g id="edge35_Node000023_Node000024" class="edge">
<title>Node23&#45;&gt;Node24</title>
<g id="a_edge35_Node000023_Node000024"><a xlink:title=" ">
<path fill="none" stroke="#63b8ff" d="M610.86,-417.8C626.32,-407.27 647.32,-392.97 662.85,-382.4"/>
<polygon fill="#63b8ff" stroke="#63b8ff" points="664.99,-385.18 671.28,-376.66 661.05,-379.39 664.99,-385.18"/>
</a>
</g>
</g>
<!-- Node25 -->
<g id="Node000025" class="node">
<title>Node25</title>
<g id="a_Node000025"><a xlink:title=" ">
<polygon fill="#e0e0e0" stroke="#999999" points="890.5,-310.5 767.5,-310.5 767.5,-291.5 890.5,-291.5 890.5,-310.5"/>
<text text-anchor="middle" x="829" y="-298.5" font-family="Helvetica,sans-Serif" font-size="10.00">odp/api/abi/thrmask.h</text>
</a>
</g>
</g>
<!-- Node24&#45;&gt;Node25 -->
<g id="edge36_Node000024_Node000025" class="edge">
<title>Node24&#45;&gt;Node25</title>
<g id="a_edge36_Node000024_Node000025"><a xlink:title=" ">
<path fill="none" stroke="#63b8ff" d="M703.56,-357.37C728.31,-346.44 771.17,-327.52 799.81,-314.88"/>
<polygon fill="#63b8ff" stroke="#63b8ff" points="801.56,-317.94 809.29,-310.7 798.73,-311.54 801.56,-317.94"/>
</a>
</g>
</g>
<!-- Node26 -->
<g id="Node000026" class="node">
<title>Node26</title>
<g id="a_Node000026"><a xlink:href="spec_2thrmask_8h.html" target="_top" xlink:title="ODP thread masks.">
<polygon fill="white" stroke="#666666" points="749.5,-310.5 618.5,-310.5 618.5,-291.5 749.5,-291.5 749.5,-310.5"/>
<text text-anchor="middle" x="684" y="-298.5" font-family="Helvetica,sans-Serif" font-size="10.00">odp/api/spec/thrmask.h</text>
</a>
</g>
</g>
<!-- Node24&#45;&gt;Node26 -->
<g id="edge37_Node000024_Node000026" class="edge">
<title>Node24&#45;&gt;Node26</title>
<g id="a_edge37_Node000024_Node000026"><a xlink:title=" ">
<path fill="none" stroke="#63b8ff" d="M684,-357.37C684,-348.16 684,-333.29 684,-321.27"/>
<polygon fill="#63b8ff" stroke="#63b8ff" points="687.5,-320.91 684,-310.91 680.5,-320.91 687.5,-320.91"/>
</a>
</g>
</g>
<!-- Node26&#45;&gt;Node2 -->
<g id="edge38_Node000026_Node000002" class="edge">
<title>Node26&#45;&gt;Node2</title>
<g id="a_edge38_Node000026_Node000002"><a xlink:title=" ">
<path fill="none" stroke="#63b8ff" d="M666.55,-291.34C649.08,-282.27 621.88,-266.98 601,-250 575.13,-228.97 568.25,-222.9 550,-195 512.84,-138.2 537.23,-102.75 489,-55 473.35,-39.51 451.48,-29.08 431.75,-22.24"/>
<polygon fill="#63b8ff" stroke="#63b8ff" points="432.57,-18.82 421.98,-19.07 430.41,-25.48 432.57,-18.82"/>
</a>
</g>
</g>
<!-- Node26&#45;&gt;Node6 -->
<g id="edge40_Node000026_Node000006" class="edge">
<title>Node26&#45;&gt;Node6</title>
<g id="a_edge40_Node000026_Node000006"><a xlink:title=" ">
<path fill="none" stroke="#63b8ff" d="M717.03,-291.37C781.53,-273.55 918,-230.64 918,-186.5 918,-186.5 918,-186.5 918,-129.5 918,-93.54 909.44,-52.23 903.81,-28.96"/>
<polygon fill="#63b8ff" stroke="#63b8ff" points="907.16,-27.93 901.33,-19.09 900.37,-29.64 907.16,-27.93"/>
</a>
</g>
</g>
<!-- Node26&#45;&gt;Node14 -->
<g id="edge39_Node000026_Node000014" class="edge">
<title>Node26&#45;&gt;Node14</title>
<g id="a_edge39_Node000026_Node000014"><a xlink:title=" ">
<path fill="none" stroke="#63b8ff" d="M681.34,-291.37C678.82,-283.16 674.94,-270.54 671.71,-260.05"/>
<polygon fill="#63b8ff" stroke="#63b8ff" points="674.95,-258.7 668.67,-250.17 668.26,-260.75 674.95,-258.7"/>
</a>
</g>
</g>
</g>
</svg>
