<?xml version="1.0" encoding="UTF-8" standalone="no"?>
<!DOCTYPE svg PUBLIC "-//W3C//DTD SVG 1.1//EN"
 "http://www.w3.org/Graphics/SVG/1.1/DTD/svg11.dtd">
<!-- Generated by graphviz version 2.43.0 (0)
 -->
<!-- Title: init.h Pages: 1 -->
<svg width="1461pt" height="258pt"
 viewBox="0.00 0.00 1460.50 258.00" xmlns="http://www.w3.org/2000/svg" xmlns:xlink="http://www.w3.org/1999/xlink">
<g id="graph0" class="graph" transform="scale(1 1) rotate(0) translate(4 254)">
<title>init.h</title>
<!-- Node1 -->
<g id="Node000001" class="node">
<title>Node1</title>
<g id="a_Node000001"><a xlink:title=" ">
<polygon fill="#999999" stroke="#666666" points="689.5,-250 648.5,-250 648.5,-231 689.5,-231 689.5,-250"/>
<text text-anchor="middle" x="669" y="-238" font-family="Helvetica,sans-Serif" font-size="10.00">init.h</text>
</a>
</g>
</g>
<!-- Node2 -->
<g id="Node000002" class="node">
<title>Node2</title>
<g id="a_Node000002"><a xlink:href="init_8h.html" target="_top" xlink:title="ODP initialization.">
<polygon fill="white" stroke="#666666" points="689.5,-195 648.5,-195 648.5,-176 689.5,-176 689.5,-195"/>
<text text-anchor="middle" x="669" y="-183" font-family="Helvetica,sans-Serif" font-size="10.00">init.h</text>
</a>
</g>
</g>
<!-- Node1&#45;&gt;Node2 -->
<g id="edge1_Node000001_Node000002" class="edge">
<title>Node1&#45;&gt;Node2</title>
<g id="a_edge1_Node000001_Node000002"><a xlink:title=" ">
<path fill="none" stroke="#63b8ff" d="M669,-220.66C669,-211.93 669,-201.99 669,-195.09"/>
<polygon fill="#63b8ff" stroke="#63b8ff" points="665.5,-220.75 669,-230.75 672.5,-220.75 665.5,-220.75"/>
</a>
</g>
</g>
<!-- Node3 -->
<g id="Node000003" class="node">
<title>Node3</title>
<g id="a_Node000003"><a xlink:href="debug__inlines_8h.html" target="_top" xlink:title="ODP Debug inlines.">
<polygon fill="white" stroke="#666666" points="725.5,-85 632.5,-85 632.5,-66 725.5,-66 725.5,-85"/>
<text text-anchor="middle" x="679" y="-73" font-family="Helvetica,sans-Serif" font-size="10.00">debug_inlines.h</text>
</a>
</g>
</g>
<!-- Node2&#45;&gt;Node3 -->
<g id="edge2_Node000002_Node000003" class="edge">
<title>Node2&#45;&gt;Node3</title>
<g id="a_edge2_Node000002_Node000003"><a xlink:title=" ">
<path fill="none" stroke="#63b8ff" d="M670.76,-165.48C672.95,-141.84 676.59,-102.5 678.2,-85.16"/>
<polygon fill="#63b8ff" stroke="#63b8ff" points="667.26,-165.38 669.82,-175.66 674.23,-166.03 667.26,-165.38"/>
</a>
</g>
</g>
<!-- Node16 -->
<g id="Node000016" class="node">
<title>Node16</title>
<g id="a_Node000016"><a xlink:href="spec_2shared__memory_8h.html" target="_top" xlink:title="ODP shared memory.">
<polygon fill="white" stroke="#666666" points="632,-140 528,-140 528,-121 632,-121 632,-140"/>
<text text-anchor="middle" x="580" y="-128" font-family="Helvetica,sans-Serif" font-size="10.00">shared_memory.h</text>
</a>
</g>
</g>
<!-- Node2&#45;&gt;Node16 -->
<g id="edge15_Node000002_Node000016" class="edge">
<title>Node2&#45;&gt;Node16</title>
<g id="a_edge15_Node000002_Node000016"><a xlink:title=" ">
<path fill="none" stroke="#63b8ff" d="M645.82,-170.7C629.61,-161.04 608.45,-148.44 594.56,-140.17"/>
<polygon fill="#63b8ff" stroke="#63b8ff" points="644.32,-173.88 654.7,-175.98 647.9,-167.86 644.32,-173.88"/>
</a>
</g>
</g>
<!-- Node18 -->
<g id="Node000018" class="node">
<title>Node18</title>
<g id="a_Node000018"><a xlink:href="thread__inline__types_8h_source.html" target="_top" xlink:title=" ">
<polygon fill="white" stroke="#666666" points="819,-140 697,-140 697,-121 819,-121 819,-140"/>
<text text-anchor="middle" x="758" y="-128" font-family="Helvetica,sans-Serif" font-size="10.00">thread_inline_types.h</text>
</a>
</g>
</g>
<!-- Node2&#45;&gt;Node18 -->
<g id="edge17_Node000002_Node000018" class="edge">
<title>Node2&#45;&gt;Node18</title>
<g id="a_edge17_Node000002_Node000018"><a xlink:title=" ">
<path fill="none" stroke="#63b8ff" d="M692.18,-170.7C708.39,-161.04 729.55,-148.44 743.44,-140.17"/>
<polygon fill="#63b8ff" stroke="#63b8ff" points="690.1,-167.86 683.3,-175.98 693.68,-173.88 690.1,-167.86"/>
</a>
</g>
</g>
<!-- Node4 -->
<g id="Node000004" class="node">
<title>Node4</title>
<g id="a_Node000004"><a xlink:href="buffer__inlines_8h_source.html" target="_top" xlink:title=" ">
<polygon fill="white" stroke="#666666" points="92,-24.5 0,-24.5 0,-5.5 92,-5.5 92,-24.5"/>
<text text-anchor="middle" x="46" y="-12.5" font-family="Helvetica,sans-Serif" font-size="10.00">buffer_inlines.h</text>
</a>
</g>
</g>
<!-- Node3&#45;&gt;Node4 -->
<g id="edge3_Node000003_Node000004" class="edge">
<title>Node3&#45;&gt;Node4</title>
<g id="a_edge3_Node000003_Node000004"><a xlink:title=" ">
<path fill="none" stroke="#63b8ff" d="M622.18,-66.02C390.08,-41.26 327.36,-66.31 101,-30 92.63,-28.66 83.68,-26.64 75.48,-24.55"/>
<polygon fill="#63b8ff" stroke="#63b8ff" points="621.97,-69.52 632.29,-67.12 622.72,-62.56 621.97,-69.52"/>
</a>
</g>
</g>
<!-- Node5 -->
<g id="Node000005" class="node">
<title>Node5</title>
<g id="a_Node000005"><a xlink:href="crypto__inlines_8h_source.html" target="_top" xlink:title=" ">
<polygon fill="white" stroke="#666666" points="204,-24.5 110,-24.5 110,-5.5 204,-5.5 204,-24.5"/>
<text text-anchor="middle" x="157" y="-12.5" font-family="Helvetica,sans-Serif" font-size="10.00">crypto_inlines.h</text>
</a>
</g>
</g>
<!-- Node3&#45;&gt;Node5 -->
<g id="edge4_Node000003_Node000005" class="edge">
<title>Node3&#45;&gt;Node5</title>
<g id="a_edge4_Node000003_Node000005"><a xlink:title=" ">
<path fill="none" stroke="#63b8ff" d="M622.34,-66.01C439.65,-44.81 390.23,-59.74 213,-30 204.6,-28.59 195.6,-26.57 187.33,-24.51"/>
<polygon fill="#63b8ff" stroke="#63b8ff" points="621.94,-69.49 632.28,-67.18 622.76,-62.53 621.94,-69.49"/>
</a>
</g>
</g>
<!-- Node6 -->
<g id="Node000006" class="node">
<title>Node6</title>
<g id="a_Node000006"><a xlink:href="dma__inlines_8h_source.html" target="_top" xlink:title=" ">
<polygon fill="white" stroke="#666666" points="307.5,-24.5 222.5,-24.5 222.5,-5.5 307.5,-5.5 307.5,-24.5"/>
<text text-anchor="middle" x="265" y="-12.5" font-family="Helvetica,sans-Serif" font-size="10.00">dma_inlines.h</text>
</a>
</g>
</g>
<!-- Node3&#45;&gt;Node6 -->
<g id="edge5_Node000003_Node000006" class="edge">
<title>Node3&#45;&gt;Node6</title>
<g id="a_edge5_Node000003_Node000006"><a xlink:title=" ">
<path fill="none" stroke="#63b8ff" d="M622.22,-65.95C485.1,-48.07 447.69,-55.64 316,-30 308.52,-28.54 300.53,-26.56 293.14,-24.54"/>
<polygon fill="#63b8ff" stroke="#63b8ff" points="621.89,-69.44 632.27,-67.29 622.81,-62.5 621.89,-69.44"/>
</a>
</g>
</g>
<!-- Node7 -->
<g id="Node000007" class="node">
<title>Node7</title>
<g id="a_Node000007"><a xlink:href="event__inlines_8h_source.html" target="_top" xlink:title=" ">
<polygon fill="white" stroke="#666666" points="416.5,-24.5 325.5,-24.5 325.5,-5.5 416.5,-5.5 416.5,-24.5"/>
<text text-anchor="middle" x="371" y="-12.5" font-family="Helvetica,sans-Serif" font-size="10.00">event_inlines.h</text>
</a>
</g>
</g>
<!-- Node3&#45;&gt;Node7 -->
<g id="edge6_Node000003_Node000007" class="edge">
<title>Node3&#45;&gt;Node7</title>
<g id="a_edge6_Node000003_Node000007"><a xlink:title=" ">
<path fill="none" stroke="#63b8ff" d="M622.25,-65.1C559.27,-54.58 461.68,-37.95 425,-30 417.62,-28.4 409.72,-26.47 402.31,-24.57"/>
<polygon fill="#63b8ff" stroke="#63b8ff" points="621.99,-68.61 632.43,-66.8 623.14,-61.7 621.99,-68.61"/>
</a>
</g>
</g>
<!-- Node8 -->
<g id="Node000008" class="node">
<title>Node8</title>
<g id="a_Node000008"><a xlink:href="event__vector__inlines_8h.html" target="_top" xlink:title="Event vector inline functions.">
<polygon fill="white" stroke="#666666" points="561.5,-24.5 434.5,-24.5 434.5,-5.5 561.5,-5.5 561.5,-24.5"/>
<text text-anchor="middle" x="498" y="-12.5" font-family="Helvetica,sans-Serif" font-size="10.00">event_vector_inlines.h</text>
</a>
</g>
</g>
<!-- Node3&#45;&gt;Node8 -->
<g id="edge7_Node000003_Node000008" class="edge">
<title>Node3&#45;&gt;Node8</title>
<g id="a_edge7_Node000003_Node000008"><a xlink:title=" ">
<path fill="none" stroke="#63b8ff" d="M642.85,-62.82C607.85,-51.5 555.6,-34.62 524.35,-24.52"/>
<polygon fill="#63b8ff" stroke="#63b8ff" points="642.09,-66.25 652.68,-65.99 644.24,-59.59 642.09,-66.25"/>
</a>
</g>
</g>
<!-- Node9 -->
<g id="Node000009" class="node">
<title>Node9</title>
<g id="a_Node000009"><a xlink:href="ipsec__inlines_8h_source.html" target="_top" xlink:title=" ">
<polygon fill="white" stroke="#666666" points="668.5,-24.5 579.5,-24.5 579.5,-5.5 668.5,-5.5 668.5,-24.5"/>
<text text-anchor="middle" x="624" y="-12.5" font-family="Helvetica,sans-Serif" font-size="10.00">ipsec_inlines.h</text>
</a>
</g>
</g>
<!-- Node3&#45;&gt;Node9 -->
<g id="edge8_Node000003_Node000009" class="edge">
<title>Node3&#45;&gt;Node9</title>
<g id="a_edge8_Node000003_Node000009"><a xlink:title=" ">
<path fill="none" stroke="#63b8ff" d="M663.74,-58.27C653.51,-47.39 640.45,-33.49 632.15,-24.67"/>
<polygon fill="#63b8ff" stroke="#63b8ff" points="661.48,-60.98 670.88,-65.87 666.58,-56.19 661.48,-60.98"/>
</a>
</g>
</g>
<!-- Node10 -->
<g id="Node000010" class="node">
<title>Node10</title>
<g id="a_Node000010"><a xlink:href="packet__inlines_8h.html" target="_top" xlink:title="ODP packet inline functions.">
<polygon fill="white" stroke="#666666" points="781.5,-24.5 686.5,-24.5 686.5,-5.5 781.5,-5.5 781.5,-24.5"/>
<text text-anchor="middle" x="734" y="-12.5" font-family="Helvetica,sans-Serif" font-size="10.00">packet_inlines.h</text>
</a>
</g>
</g>
<!-- Node3&#45;&gt;Node10 -->
<g id="edge9_Node000003_Node000010" class="edge">
<title>Node3&#45;&gt;Node10</title>
<g id="a_edge9_Node000003_Node000010"><a xlink:title=" ">
<path fill="none" stroke="#63b8ff" d="M694.26,-58.27C704.49,-47.39 717.55,-33.49 725.85,-24.67"/>
<polygon fill="#63b8ff" stroke="#63b8ff" points="691.42,-56.19 687.12,-65.87 696.52,-60.98 691.42,-56.19"/>
</a>
</g>
</g>
<!-- Node11 -->
<g id="Node000011" class="node">
<title>Node11</title>
<g id="a_Node000011"><a xlink:href="packet__vector__inlines_8h.html" target="_top" xlink:title="Packet vector inline functions.">
<polygon fill="white" stroke="#666666" points="930.5,-24.5 799.5,-24.5 799.5,-5.5 930.5,-5.5 930.5,-24.5"/>
<text text-anchor="middle" x="865" y="-12.5" font-family="Helvetica,sans-Serif" font-size="10.00">packet_vector_inlines.h</text>
</a>
</g>
</g>
<!-- Node3&#45;&gt;Node11 -->
<g id="edge10_Node000003_Node000011" class="edge">
<title>Node3&#45;&gt;Node11</title>
<g id="a_edge10_Node000003_Node000011"><a xlink:title=" ">
<path fill="none" stroke="#63b8ff" d="M715.68,-62.96C751.66,-51.65 805.67,-34.66 837.92,-24.52"/>
<polygon fill="#63b8ff" stroke="#63b8ff" points="714.54,-59.65 706.05,-65.99 716.64,-66.33 714.54,-59.65"/>
</a>
</g>
</g>
<!-- Node12 -->
<g id="Node000012" class="node">
<title>Node12</title>
<g id="a_Node000012"><a xlink:href="rwlock__recursive__inlines_8h_source.html" target="_top" xlink:title=" ">
<polygon fill="white" stroke="#666666" points="1095,-24.5 949,-24.5 949,-5.5 1095,-5.5 1095,-24.5"/>
<text text-anchor="middle" x="1022" y="-12.5" font-family="Helvetica,sans-Serif" font-size="10.00">rwlock_recursive_inlines.h</text>
</a>
</g>
</g>
<!-- Node3&#45;&gt;Node12 -->
<g id="edge11_Node000003_Node000012" class="edge">
<title>Node3&#45;&gt;Node12</title>
<g id="a_edge11_Node000003_Node000012"><a xlink:title=" ">
<path fill="none" stroke="#63b8ff" d="M735.54,-64.86C788.4,-55.85 869.55,-42.02 940,-30 950.39,-28.23 961.53,-26.33 972.13,-24.52"/>
<polygon fill="#63b8ff" stroke="#63b8ff" points="734.95,-61.41 725.68,-66.55 736.12,-68.31 734.95,-61.41"/>
</a>
</g>
</g>
<!-- Node13 -->
<g id="Node000013" class="node">
<title>Node13</title>
<g id="a_Node000013"><a xlink:href="schedule__inlines_8h_source.html" target="_top" xlink:title=" ">
<polygon fill="white" stroke="#666666" points="1220.5,-24.5 1113.5,-24.5 1113.5,-5.5 1220.5,-5.5 1220.5,-24.5"/>
<text text-anchor="middle" x="1167" y="-12.5" font-family="Helvetica,sans-Serif" font-size="10.00">schedule_inlines.h</text>
</a>
</g>
</g>
<!-- Node3&#45;&gt;Node13 -->
<g id="edge12_Node000003_Node000013" class="edge">
<title>Node3&#45;&gt;Node13</title>
<g id="a_edge12_Node000003_Node000013"><a xlink:title=" ">
<path fill="none" stroke="#63b8ff" d="M735.7,-65.99C900.23,-46.02 944.45,-55.41 1104,-30 1113.18,-28.54 1123.03,-26.55 1132.16,-24.54"/>
<polygon fill="#63b8ff" stroke="#63b8ff" points="735.22,-62.52 725.73,-67.22 736.08,-69.47 735.22,-62.52"/>
</a>
</g>
</g>
<!-- Node14 -->
<g id="Node000014" class="node">
<title>Node14</title>
<g id="a_Node000014"><a xlink:href="spinlock__recursive__inlines_8h_source.html" target="_top" xlink:title=" ">
<polygon fill="white" stroke="#666666" points="1345.5,-30 1238.5,-30 1238.5,0 1345.5,0 1345.5,-30"/>
<text text-anchor="start" x="1246.5" y="-18" font-family="Helvetica,sans-Serif" font-size="10.00">spinlock_recursive</text>
<text text-anchor="middle" x="1292" y="-7" font-family="Helvetica,sans-Serif" font-size="10.00">_inlines.h</text>
</a>
</g>
</g>
<!-- Node3&#45;&gt;Node14 -->
<g id="edge13_Node000003_Node000014" class="edge">
<title>Node3&#45;&gt;Node14</title>
<g id="a_edge13_Node000003_Node000014"><a xlink:title=" ">
<path fill="none" stroke="#63b8ff" d="M735.97,-66C955.99,-42.05 1015.11,-61.89 1230,-30 1232.73,-29.59 1235.52,-29.14 1238.32,-28.64"/>
<polygon fill="#63b8ff" stroke="#63b8ff" points="735.27,-62.55 725.71,-67.13 736.04,-69.51 735.27,-62.55"/>
</a>
</g>
</g>
<!-- Node15 -->
<g id="Node000015" class="node">
<title>Node15</title>
<g id="a_Node000015"><a xlink:href="timer__inlines_8h_source.html" target="_top" xlink:title=" ">
<polygon fill="white" stroke="#666666" points="1452.5,-24.5 1363.5,-24.5 1363.5,-5.5 1452.5,-5.5 1452.5,-24.5"/>
<text text-anchor="middle" x="1408" y="-12.5" font-family="Helvetica,sans-Serif" font-size="10.00">timer_inlines.h</text>
</a>
</g>
</g>
<!-- Node3&#45;&gt;Node15 -->
<g id="edge14_Node000003_Node000015" class="edge">
<title>Node3&#45;&gt;Node15</title>
<g id="a_edge14_Node000003_Node000015"><a xlink:title=" ">
<path fill="none" stroke="#63b8ff" d="M736.01,-66.02C1011.33,-38.13 1085.75,-72.93 1355,-30 1363.18,-28.7 1371.92,-26.66 1379.89,-24.54"/>
<polygon fill="#63b8ff" stroke="#63b8ff" points="735.3,-62.57 725.71,-67.08 736.02,-69.53 735.3,-62.57"/>
</a>
</g>
</g>
<!-- Node17 -->
<g id="Node000017" class="node">
<title>Node17</title>
<g id="a_Node000017"><a xlink:href="shared__memory_8h.html" target="_top" xlink:title="ODP shared memory.">
<polygon fill="white" stroke="#666666" points="614,-85 510,-85 510,-66 614,-66 614,-85"/>
<text text-anchor="middle" x="562" y="-73" font-family="Helvetica,sans-Serif" font-size="10.00">shared_memory.h</text>
</a>
</g>
</g>
<!-- Node16&#45;&gt;Node17 -->
<g id="edge16_Node000016_Node000017" class="edge">
<title>Node16&#45;&gt;Node17</title>
<g id="a_edge16_Node000016_Node000017"><a xlink:title=" ">
<path fill="none" stroke="#63b8ff" d="M573.8,-111.24C570.79,-102.37 567.31,-92.14 564.92,-85.09"/>
<polygon fill="#63b8ff" stroke="#63b8ff" points="570.5,-112.4 577.03,-120.75 577.13,-110.15 570.5,-112.4"/>
</a>
</g>
</g>
<!-- Node18&#45;&gt;Node3 -->
<g id="edge18_Node000018_Node000003" class="edge">
<title>Node18&#45;&gt;Node3</title>
<g id="a_edge18_Node000018_Node000003"><a xlink:title=" ">
<path fill="none" stroke="#63b8ff" d="M736.61,-115.15C722.33,-105.57 704.03,-93.29 691.92,-85.17"/>
<polygon fill="#63b8ff" stroke="#63b8ff" points="735.05,-118.32 745.31,-120.98 738.95,-112.51 735.05,-118.32"/>
</a>
</g>
</g>
<!-- Node19 -->
<g id="Node000019" class="node">
<title>Node19</title>
<g id="a_Node000019"><a xlink:href="thread__inlines_8h_source.html" target="_top" xlink:title=" ">
<polygon fill="white" stroke="#666666" points="838.5,-85 743.5,-85 743.5,-66 838.5,-66 838.5,-85"/>
<text text-anchor="middle" x="791" y="-73" font-family="Helvetica,sans-Serif" font-size="10.00">thread_inlines.h</text>
</a>
</g>
</g>
<!-- Node18&#45;&gt;Node19 -->
<g id="edge19_Node000018_Node000019" class="edge">
<title>Node18&#45;&gt;Node19</title>
<g id="a_edge19_Node000018_Node000019"><a xlink:title=" ">
<path fill="none" stroke="#63b8ff" d="M768.83,-112.1C774.47,-103.04 781.12,-92.37 785.65,-85.09"/>
<polygon fill="#63b8ff" stroke="#63b8ff" points="765.76,-110.41 763.45,-120.75 771.71,-114.11 765.76,-110.41"/>
</a>
</g>
</g>
</g>
</svg>
