<?xml version="1.0" encoding="UTF-8" standalone="no"?>
<!DOCTYPE svg PUBLIC "-//W3C//DTD SVG 1.1//EN"
 "http://www.w3.org/Graphics/SVG/1.1/DTD/svg11.dtd">
<!-- Generated by graphviz version 2.43.0 (0)
 -->
<!-- Title: buffer_types.h Pages: 1 -->
<svg width="461pt" height="247pt"
 viewBox="0.00 0.00 461.00 247.00" xmlns="http://www.w3.org/2000/svg" xmlns:xlink="http://www.w3.org/1999/xlink">
<g id="graph0" class="graph" transform="scale(1 1) rotate(0) translate(4 243)">
<title>buffer_types.h</title>
<!-- Node1 -->
<g id="Node000001" class="node">
<title>Node1</title>
<g id="a_Node000001"><a xlink:title="ODP buffer types.">
<polygon fill="#999999" stroke="#666666" points="177.5,-239 91.5,-239 91.5,-220 177.5,-220 177.5,-239"/>
<text text-anchor="middle" x="134.5" y="-227" font-family="Helvetica,sans-Serif" font-size="10.00">buffer_types.h</text>
</a>
</g>
</g>
<!-- Node2 -->
<g id="Node000002" class="node">
<title>Node2</title>
<g id="a_Node000002"><a xlink:href="buffer__types_8h.html" target="_top" xlink:title="ODP buffer types.">
<polygon fill="white" stroke="#666666" points="177.5,-184 91.5,-184 91.5,-165 177.5,-165 177.5,-184"/>
<text text-anchor="middle" x="134.5" y="-172" font-family="Helvetica,sans-Serif" font-size="10.00">buffer_types.h</text>
</a>
</g>
</g>
<!-- Node1&#45;&gt;Node2 -->
<g id="edge1_Node000001_Node000002" class="edge">
<title>Node1&#45;&gt;Node2</title>
<g id="a_edge1_Node000001_Node000002"><a xlink:title=" ">
<path fill="none" stroke="#63b8ff" d="M134.5,-209.66C134.5,-200.93 134.5,-190.99 134.5,-184.09"/>
<polygon fill="#63b8ff" stroke="#63b8ff" points="131,-209.75 134.5,-219.75 138,-209.75 131,-209.75"/>
</a>
</g>
</g>
<!-- Node3 -->
<g id="Node000003" class="node">
<title>Node3</title>
<g id="a_Node000003"><a xlink:href="spec_2buffer_8h.html" target="_top" xlink:title="ODP buffer.">
<polygon fill="white" stroke="#666666" points="69,-129 16,-129 16,-110 69,-110 69,-129"/>
<text text-anchor="middle" x="42.5" y="-117" font-family="Helvetica,sans-Serif" font-size="10.00">buffer.h</text>
</a>
</g>
</g>
<!-- Node2&#45;&gt;Node3 -->
<g id="edge2_Node000002_Node000003" class="edge">
<title>Node2&#45;&gt;Node3</title>
<g id="a_edge2_Node000002_Node000003"><a xlink:title=" ">
<path fill="none" stroke="#63b8ff" d="M111.01,-159.97C94.19,-150.28 72.05,-137.52 57.55,-129.17"/>
<polygon fill="#63b8ff" stroke="#63b8ff" points="109.31,-163.03 119.72,-164.98 112.8,-156.96 109.31,-163.03"/>
</a>
</g>
</g>
<!-- Node6 -->
<g id="Node000006" class="node">
<title>Node6</title>
<g id="a_Node000006"><a xlink:href="buffer__inlines_8h_source.html" target="_top" xlink:title=" ">
<polygon fill="white" stroke="#666666" points="212.5,-74 120.5,-74 120.5,-55 212.5,-55 212.5,-74"/>
<text text-anchor="middle" x="166.5" y="-62" font-family="Helvetica,sans-Serif" font-size="10.00">buffer_inlines.h</text>
</a>
</g>
</g>
<!-- Node2&#45;&gt;Node6 -->
<g id="edge5_Node000002_Node000006" class="edge">
<title>Node2&#45;&gt;Node6</title>
<g id="a_edge5_Node000002_Node000006"><a xlink:title=" ">
<path fill="none" stroke="#63b8ff" d="M122.99,-155.73C116.09,-142.72 109.85,-124.83 116.5,-110 123.54,-94.31 139.15,-81.89 151.07,-74.2"/>
<polygon fill="#63b8ff" stroke="#63b8ff" points="120.1,-157.73 128.18,-164.59 126.14,-154.19 120.1,-157.73"/>
</a>
</g>
</g>
<!-- Node7 -->
<g id="Node000007" class="node">
<title>Node7</title>
<g id="a_Node000007"><a xlink:href="event__inlines_8h_source.html" target="_top" xlink:title=" ">
<polygon fill="white" stroke="#666666" points="217,-129 126,-129 126,-110 217,-110 217,-129"/>
<text text-anchor="middle" x="171.5" y="-117" font-family="Helvetica,sans-Serif" font-size="10.00">event_inlines.h</text>
</a>
</g>
</g>
<!-- Node2&#45;&gt;Node7 -->
<g id="edge6_Node000002_Node000007" class="edge">
<title>Node2&#45;&gt;Node7</title>
<g id="a_edge6_Node000002_Node000007"><a xlink:title=" ">
<path fill="none" stroke="#63b8ff" d="M146.45,-156.39C152.81,-147.27 160.37,-136.45 165.5,-129.09"/>
<polygon fill="#63b8ff" stroke="#63b8ff" points="143.46,-154.55 140.61,-164.75 149.2,-158.55 143.46,-154.55"/>
</a>
</g>
</g>
<!-- Node8 -->
<g id="Node000008" class="node">
<title>Node8</title>
<g id="a_Node000008"><a xlink:href="event__validation__external_8h.html" target="_top" xlink:title="ODP event validation.">
<polygon fill="white" stroke="#666666" points="388,-129 235,-129 235,-110 388,-110 388,-129"/>
<text text-anchor="middle" x="311.5" y="-117" font-family="Helvetica,sans-Serif" font-size="10.00">event_validation_external.h</text>
</a>
</g>
</g>
<!-- Node2&#45;&gt;Node8 -->
<g id="edge7_Node000002_Node000008" class="edge">
<title>Node2&#45;&gt;Node8</title>
<g id="a_edge7_Node000002_Node000008"><a xlink:title=" ">
<path fill="none" stroke="#63b8ff" d="M172.72,-162.06C205.8,-152.15 252.91,-138.04 282.84,-129.08"/>
<polygon fill="#63b8ff" stroke="#63b8ff" points="171.51,-158.76 162.94,-164.98 173.52,-165.47 171.51,-158.76"/>
</a>
</g>
</g>
<!-- Node4 -->
<g id="Node000004" class="node">
<title>Node4</title>
<g id="a_Node000004"><a xlink:href="buffer_8h.html" target="_top" xlink:title="ODP buffer descriptor.">
<polygon fill="white" stroke="#666666" points="69,-74 16,-74 16,-55 69,-55 69,-74"/>
<text text-anchor="middle" x="42.5" y="-62" font-family="Helvetica,sans-Serif" font-size="10.00">buffer.h</text>
</a>
</g>
</g>
<!-- Node3&#45;&gt;Node4 -->
<g id="edge3_Node000003_Node000004" class="edge">
<title>Node3&#45;&gt;Node4</title>
<g id="a_edge3_Node000003_Node000004"><a xlink:title=" ">
<path fill="none" stroke="#63b8ff" d="M42.5,-99.66C42.5,-90.93 42.5,-80.99 42.5,-74.09"/>
<polygon fill="#63b8ff" stroke="#63b8ff" points="39,-99.75 42.5,-109.75 46,-99.75 39,-99.75"/>
</a>
</g>
</g>
<!-- Node5 -->
<g id="Node000005" class="node">
<title>Node5</title>
<g id="a_Node000005"><a xlink:href="dma__inlines_8h_source.html" target="_top" xlink:title=" ">
<polygon fill="white" stroke="#666666" points="85,-19 0,-19 0,0 85,0 85,-19"/>
<text text-anchor="middle" x="42.5" y="-7" font-family="Helvetica,sans-Serif" font-size="10.00">dma_inlines.h</text>
</a>
</g>
</g>
<!-- Node4&#45;&gt;Node5 -->
<g id="edge4_Node000004_Node000005" class="edge">
<title>Node4&#45;&gt;Node5</title>
<g id="a_edge4_Node000004_Node000005"><a xlink:title=" ">
<path fill="none" stroke="#63b8ff" d="M42.5,-44.66C42.5,-35.93 42.5,-25.99 42.5,-19.09"/>
<polygon fill="#63b8ff" stroke="#63b8ff" points="39,-44.75 42.5,-54.75 46,-44.75 39,-44.75"/>
</a>
</g>
</g>
<!-- Node8&#45;&gt;Node6 -->
<g id="edge8_Node000008_Node000006" class="edge">
<title>Node8&#45;&gt;Node6</title>
<g id="a_edge8_Node000008_Node000006"><a xlink:title=" ">
<path fill="none" stroke="#63b8ff" d="M278.81,-106.55C251.88,-96.71 214.34,-82.98 190.22,-74.17"/>
<polygon fill="#63b8ff" stroke="#63b8ff" points="277.61,-109.84 288.2,-109.98 280.01,-103.26 277.61,-109.84"/>
</a>
</g>
</g>
<!-- Node9 -->
<g id="Node000009" class="node">
<title>Node9</title>
<g id="a_Node000009"><a xlink:href="packet__inlines_8h.html" target="_top" xlink:title="ODP packet inline functions.">
<polygon fill="white" stroke="#666666" points="342,-74 247,-74 247,-55 342,-55 342,-74"/>
<text text-anchor="middle" x="294.5" y="-62" font-family="Helvetica,sans-Serif" font-size="10.00">packet_inlines.h</text>
</a>
</g>
</g>
<!-- Node8&#45;&gt;Node9 -->
<g id="edge9_Node000008_Node000009" class="edge">
<title>Node8&#45;&gt;Node9</title>
<g id="a_edge9_Node000008_Node000009"><a xlink:title=" ">
<path fill="none" stroke="#63b8ff" d="M305.55,-99.95C302.73,-91.15 299.49,-81.06 297.25,-74.09"/>
<polygon fill="#63b8ff" stroke="#63b8ff" points="302.31,-101.29 308.69,-109.75 308.97,-99.16 302.31,-101.29"/>
</a>
</g>
</g>
<!-- Node10 -->
<g id="Node000010" class="node">
<title>Node10</title>
<g id="a_Node000010"><a xlink:href="queue__inlines_8h_source.html" target="_top" xlink:title=" ">
<polygon fill="white" stroke="#666666" points="453,-74 360,-74 360,-55 453,-55 453,-74"/>
<text text-anchor="middle" x="406.5" y="-62" font-family="Helvetica,sans-Serif" font-size="10.00">queue_inlines.h</text>
</a>
</g>
</g>
<!-- Node8&#45;&gt;Node10 -->
<g id="edge10_Node000008_Node000010" class="edge">
<title>Node8&#45;&gt;Node10</title>
<g id="a_edge10_Node000008_Node000010"><a xlink:title=" ">
<path fill="none" stroke="#63b8ff" d="M335.76,-104.97C353.13,-95.28 375.99,-82.52 390.96,-74.17"/>
<polygon fill="#63b8ff" stroke="#63b8ff" points="333.79,-102.06 326.76,-109.98 337.2,-108.17 333.79,-102.06"/>
</a>
</g>
</g>
</g>
</svg>
