<?xml version="1.0" encoding="UTF-8" standalone="no"?>
<!DOCTYPE svg PUBLIC "-//W3C//DTD SVG 1.1//EN"
 "http://www.w3.org/Graphics/SVG/1.1/DTD/svg11.dtd">
<!-- Generated by graphviz version 2.43.0 (0)
 -->
<!-- Title: comp.h Pages: 1 -->
<svg width="1389pt" height="808pt"
 viewBox="0.00 0.00 1389.00 808.00" xmlns="http://www.w3.org/2000/svg" xmlns:xlink="http://www.w3.org/1999/xlink">
<g id="graph0" class="graph" transform="scale(1 1) rotate(0) translate(4 804)">
<title>comp.h</title>
<!-- Node1 -->
<g id="Node000001" class="node">
<title>Node1</title>
<g id="a_Node000001"><a xlink:title="ODP Compression.">
<polygon fill="#999999" stroke="#666666" points="861.5,-800 808.5,-800 808.5,-781 861.5,-781 861.5,-800"/>
<text text-anchor="middle" x="835" y="-788" font-family="Helvetica,sans-Serif" font-size="10.00">comp.h</text>
</a>
</g>
</g>
<!-- Node2 -->
<g id="Node000002" class="node">
<title>Node2</title>
<g id="a_Node000002"><a xlink:title=" ">
<polygon fill="#e0e0e0" stroke="#999999" points="511.5,-19 390.5,-19 390.5,0 511.5,0 511.5,-19"/>
<text text-anchor="middle" x="451" y="-7" font-family="Helvetica,sans-Serif" font-size="10.00">odp/visibility_begin.h</text>
</a>
</g>
</g>
<!-- Node1&#45;&gt;Node2 -->
<g id="edge1_Node000001_Node000002" class="edge">
<title>Node1&#45;&gt;Node2</title>
<g id="a_edge1_Node000001_Node000002"><a xlink:title=" ">
<path fill="none" stroke="#63b8ff" d="M808.28,-788.72C701.5,-785.42 305.36,-771.64 183,-745 98.07,-726.51 0,-762.92 0,-676 0,-676 0,-676 0,-129.5 0,-88.61 18.67,-75.59 54,-55 107.75,-23.68 281.13,-14.4 380.08,-11.66"/>
<polygon fill="#63b8ff" stroke="#63b8ff" points="380.39,-15.15 390.29,-11.39 380.21,-8.15 380.39,-15.15"/>
</a>
</g>
</g>
<!-- Node3 -->
<g id="Node000003" class="node">
<title>Node3</title>
<g id="a_Node000003"><a xlink:href="event__types_8h.html" target="_top" xlink:title="ODP event API type definitions.">
<polygon fill="white" stroke="#666666" points="323.5,-250 198.5,-250 198.5,-231 323.5,-231 323.5,-250"/>
<text text-anchor="middle" x="261" y="-238" font-family="Helvetica,sans-Serif" font-size="10.00">odp/api/event_types.h</text>
</a>
</g>
</g>
<!-- Node1&#45;&gt;Node3 -->
<g id="edge2_Node000001_Node000003" class="edge">
<title>Node1&#45;&gt;Node3</title>
<g id="a_edge2_Node000001_Node000003"><a xlink:title=" ">
<path fill="none" stroke="#63b8ff" d="M808.43,-788.39C674.09,-782.44 76,-751.69 76,-676 76,-676 76,-676 76,-432 76,-362.34 82.83,-334.32 133,-286 149.98,-269.65 173.27,-259.28 195.33,-252.72"/>
<polygon fill="#63b8ff" stroke="#63b8ff" points="196.31,-256.08 205.02,-250.05 194.45,-249.33 196.31,-256.08"/>
</a>
</g>
</g>
<!-- Node6 -->
<g id="Node000006" class="node">
<title>Node6</title>
<g id="a_Node000006"><a xlink:title=" ">
<polygon fill="#e0e0e0" stroke="#999999" points="1120,-19 1008,-19 1008,0 1120,0 1120,-19"/>
<text text-anchor="middle" x="1064" y="-7" font-family="Helvetica,sans-Serif" font-size="10.00">odp/visibility_end.h</text>
</a>
</g>
</g>
<!-- Node1&#45;&gt;Node6 -->
<g id="edge57_Node000001_Node000006" class="edge">
<title>Node1&#45;&gt;Node6</title>
<g id="a_edge57_Node000001_Node000006"><a xlink:title=" ">
<path fill="none" stroke="#63b8ff" d="M861.7,-789.71C971.32,-789.89 1381,-783.35 1381,-676 1381,-676 1381,-676 1381,-129.5 1381,-89.12 1363.13,-76.58 1329,-55 1296.79,-34.63 1197.78,-22.14 1130.34,-15.76"/>
<polygon fill="#63b8ff" stroke="#63b8ff" points="1130.49,-12.26 1120.21,-14.83 1129.85,-19.23 1130.49,-12.26"/>
</a>
</g>
</g>
<!-- Node7 -->
<g id="Node000007" class="node">
<title>Node7</title>
<g id="a_Node000007"><a xlink:href="packet__types_8h.html" target="_top" xlink:title="ODP packet.">
<polygon fill="white" stroke="#666666" points="1075.5,-745 946.5,-745 946.5,-726 1075.5,-726 1075.5,-745"/>
<text text-anchor="middle" x="1011" y="-733" font-family="Helvetica,sans-Serif" font-size="10.00">odp/api/packet_types.h</text>
</a>
</g>
</g>
<!-- Node1&#45;&gt;Node7 -->
<g id="edge7_Node000001_Node000007" class="edge">
<title>Node1&#45;&gt;Node7</title>
<g id="a_edge7_Node000001_Node000007"><a xlink:title=" ">
<path fill="none" stroke="#63b8ff" d="M861.73,-781.45C891.27,-772.55 939.11,-758.15 972.64,-748.05"/>
<polygon fill="#63b8ff" stroke="#63b8ff" points="973.99,-751.3 982.56,-745.07 971.97,-744.6 973.99,-751.3"/>
</a>
</g>
</g>
<!-- Node14 -->
<g id="Node000014" class="node">
<title>Node14</title>
<g id="a_Node000014"><a xlink:href="std__types_8h.html" target="_top" xlink:title="Standard C language types and definitions for ODP.">
<polygon fill="white" stroke="#666666" points="966,-250 854,-250 854,-231 966,-231 966,-250"/>
<text text-anchor="middle" x="910" y="-238" font-family="Helvetica,sans-Serif" font-size="10.00">odp/api/std_types.h</text>
</a>
</g>
</g>
<!-- Node1&#45;&gt;Node14 -->
<g id="edge56_Node000001_Node000014" class="edge">
<title>Node1&#45;&gt;Node14</title>
<g id="a_edge56_Node000001_Node000014"><a xlink:title=" ">
<path fill="none" stroke="#63b8ff" d="M837.36,-780.87C843.19,-759.86 859.12,-704.52 877,-660 907.45,-584.19 957,-576.2 957,-494.5 957,-494.5 957,-494.5 957,-366 957,-325.57 935.04,-282.24 921.14,-258.86"/>
<polygon fill="#63b8ff" stroke="#63b8ff" points="923.99,-256.81 915.76,-250.13 918.03,-260.48 923.99,-256.81"/>
</a>
</g>
</g>
<!-- Node21 -->
<g id="Node000021" class="node">
<title>Node21</title>
<g id="a_Node000021"><a xlink:href="queue__types_8h.html" target="_top" xlink:title="ODP queue.">
<polygon fill="white" stroke="#666666" points="829.5,-624 702.5,-624 702.5,-605 829.5,-605 829.5,-624"/>
<text text-anchor="middle" x="766" y="-612" font-family="Helvetica,sans-Serif" font-size="10.00">odp/api/queue_types.h</text>
</a>
</g>
</g>
<!-- Node1&#45;&gt;Node21 -->
<g id="edge55_Node000001_Node000021" class="edge">
<title>Node1&#45;&gt;Node21</title>
<g id="a_edge55_Node000001_Node000021"><a xlink:title=" ">
<path fill="none" stroke="#63b8ff" d="M831.48,-780.63C820.69,-753.4 787.85,-670.61 773.2,-633.65"/>
<polygon fill="#63b8ff" stroke="#63b8ff" points="776.37,-632.15 769.43,-624.14 769.86,-634.73 776.37,-632.15"/>
</a>
</g>
</g>
<!-- Node4 -->
<g id="Node000004" class="node">
<title>Node4</title>
<g id="a_Node000004"><a xlink:title=" ">
<polygon fill="#e0e0e0" stroke="#999999" points="327.5,-195 184.5,-195 184.5,-176 327.5,-176 327.5,-195"/>
<text text-anchor="middle" x="256" y="-183" font-family="Helvetica,sans-Serif" font-size="10.00">odp/api/abi/event_types.h</text>
</a>
</g>
</g>
<!-- Node3&#45;&gt;Node4 -->
<g id="edge3_Node000003_Node000004" class="edge">
<title>Node3&#45;&gt;Node4</title>
<g id="a_edge3_Node000003_Node000004"><a xlink:title=" ">
<path fill="none" stroke="#63b8ff" d="M260.17,-230.75C259.52,-223.8 258.58,-213.85 257.76,-205.13"/>
<polygon fill="#63b8ff" stroke="#63b8ff" points="261.23,-204.72 256.81,-195.09 254.27,-205.37 261.23,-204.72"/>
</a>
</g>
</g>
<!-- Node5 -->
<g id="Node000005" class="node">
<title>Node5</title>
<g id="a_Node000005"><a xlink:href="spec_2event__types_8h.html" target="_top" xlink:title="ODP event API type definitions.">
<polygon fill="white" stroke="#666666" points="683.5,-85 574.5,-85 574.5,-55 683.5,-55 683.5,-85"/>
<text text-anchor="start" x="582.5" y="-73" font-family="Helvetica,sans-Serif" font-size="10.00">odp/api/spec/event</text>
<text text-anchor="middle" x="629" y="-62" font-family="Helvetica,sans-Serif" font-size="10.00">_types.h</text>
</a>
</g>
</g>
<!-- Node3&#45;&gt;Node5 -->
<g id="edge4_Node000003_Node000005" class="edge">
<title>Node3&#45;&gt;Node5</title>
<g id="a_edge4_Node000003_Node000005"><a xlink:title=" ">
<path fill="none" stroke="#63b8ff" d="M279.76,-230.91C336.97,-204.72 510.17,-125.41 589.07,-89.28"/>
<polygon fill="#63b8ff" stroke="#63b8ff" points="590.57,-92.44 598.21,-85.1 587.66,-86.08 590.57,-92.44"/>
</a>
</g>
</g>
<!-- Node5&#45;&gt;Node2 -->
<g id="edge5_Node000005_Node000002" class="edge">
<title>Node5&#45;&gt;Node2</title>
<g id="a_edge5_Node000005_Node000002"><a xlink:title=" ">
<path fill="none" stroke="#63b8ff" d="M586.36,-54.99C555.91,-44.98 515.41,-31.67 486.67,-22.22"/>
<polygon fill="#63b8ff" stroke="#63b8ff" points="487.62,-18.85 477.03,-19.05 485.43,-25.5 487.62,-18.85"/>
</a>
</g>
</g>
<!-- Node5&#45;&gt;Node6 -->
<g id="edge6_Node000005_Node000006" class="edge">
<title>Node5&#45;&gt;Node6</title>
<g id="a_edge6_Node000005_Node000006"><a xlink:title=" ">
<path fill="none" stroke="#63b8ff" d="M683.57,-56.52C686.42,-55.98 689.24,-55.47 692,-55 798.4,-36.86 923.17,-23.54 997.79,-16.41"/>
<polygon fill="#63b8ff" stroke="#63b8ff" points="998.35,-19.87 1007.97,-15.45 997.69,-12.91 998.35,-19.87"/>
</a>
</g>
</g>
<!-- Node8 -->
<g id="Node000008" class="node">
<title>Node8</title>
<g id="a_Node000008"><a xlink:title=" ">
<polygon fill="#e0e0e0" stroke="#999999" points="1248,-690 1142,-690 1142,-660 1248,-660 1248,-690"/>
<text text-anchor="start" x="1150" y="-678" font-family="Helvetica,sans-Serif" font-size="10.00">odp/api/abi/packet</text>
<text text-anchor="middle" x="1195" y="-667" font-family="Helvetica,sans-Serif" font-size="10.00">_io_types.h</text>
</a>
</g>
</g>
<!-- Node7&#45;&gt;Node8 -->
<g id="edge8_Node000007_Node000008" class="edge">
<title>Node7&#45;&gt;Node8</title>
<g id="a_edge8_Node000007_Node000008"><a xlink:title=" ">
<path fill="none" stroke="#63b8ff" d="M1037.76,-725.99C1064.7,-717.43 1107.02,-703.97 1140.98,-693.18"/>
<polygon fill="#63b8ff" stroke="#63b8ff" points="1142.29,-696.43 1150.76,-690.06 1140.17,-689.76 1142.29,-696.43"/>
</a>
</g>
</g>
<!-- Node9 -->
<g id="Node000009" class="node">
<title>Node9</title>
<g id="a_Node000009"><a xlink:title=" ">
<polygon fill="#e0e0e0" stroke="#999999" points="1124,-690 1018,-690 1018,-660 1124,-660 1124,-690"/>
<text text-anchor="start" x="1026" y="-678" font-family="Helvetica,sans-Serif" font-size="10.00">odp/api/abi/packet</text>
<text text-anchor="middle" x="1071" y="-667" font-family="Helvetica,sans-Serif" font-size="10.00">_types.h</text>
</a>
</g>
</g>
<!-- Node7&#45;&gt;Node9 -->
<g id="edge9_Node000007_Node000009" class="edge">
<title>Node7&#45;&gt;Node9</title>
<g id="a_edge9_Node000007_Node000009"><a xlink:title=" ">
<path fill="none" stroke="#63b8ff" d="M1019.85,-725.87C1027.54,-718.37 1039,-707.2 1049.13,-697.33"/>
<polygon fill="#63b8ff" stroke="#63b8ff" points="1051.81,-699.6 1056.52,-690.11 1046.92,-694.59 1051.81,-699.6"/>
</a>
</g>
</g>
<!-- Node10 -->
<g id="Node000010" class="node">
<title>Node10</title>
<g id="a_Node000010"><a xlink:href="spec_2packet__types_8h.html" target="_top" xlink:title="ODP packet types.">
<polygon fill="white" stroke="#666666" points="999.5,-690 886.5,-690 886.5,-660 999.5,-660 999.5,-690"/>
<text text-anchor="start" x="894.5" y="-678" font-family="Helvetica,sans-Serif" font-size="10.00">odp/api/spec/packet</text>
<text text-anchor="middle" x="943" y="-667" font-family="Helvetica,sans-Serif" font-size="10.00">_types.h</text>
</a>
</g>
</g>
<!-- Node7&#45;&gt;Node10 -->
<g id="edge10_Node000007_Node000010" class="edge">
<title>Node7&#45;&gt;Node10</title>
<g id="a_edge10_Node000007_Node000010"><a xlink:title=" ">
<path fill="none" stroke="#63b8ff" d="M1000.97,-725.87C992.08,-718.22 978.75,-706.76 967.12,-696.75"/>
<polygon fill="#63b8ff" stroke="#63b8ff" points="969.27,-693.98 959.41,-690.11 964.7,-699.29 969.27,-693.98"/>
</a>
</g>
</g>
<!-- Node10&#45;&gt;Node2 -->
<g id="edge11_Node000010_Node000002" class="edge">
<title>Node10&#45;&gt;Node2</title>
<g id="a_edge11_Node000010_Node000002"><a xlink:title=" ">
<path fill="none" stroke="#63b8ff" d="M935.17,-659.62C919.22,-631.79 880.23,-570.51 830,-539 774.48,-504.17 745.83,-531.88 687,-503 651.48,-485.57 639.13,-480.8 617,-448 575.07,-385.86 613.21,-347.27 570,-286 526.42,-224.21 432,-262.11 432,-186.5 432,-186.5 432,-186.5 432,-129.5 432,-93.54 440.56,-52.23 446.19,-28.96"/>
<polygon fill="#63b8ff" stroke="#63b8ff" points="449.63,-29.64 448.67,-19.09 442.84,-27.93 449.63,-29.64"/>
</a>
</g>
</g>
<!-- Node10&#45;&gt;Node6 -->
<g id="edge54_Node000010_Node000006" class="edge">
<title>Node10&#45;&gt;Node6</title>
<g id="a_edge54_Node000010_Node000006"><a xlink:title=" ">
<path fill="none" stroke="#63b8ff" d="M999.89,-660.06C1110.32,-632.62 1343,-572.68 1343,-555 1343,-555 1343,-555 1343,-129.5 1343,-37.37 1212.69,-15.59 1130.19,-11.03"/>
<polygon fill="#63b8ff" stroke="#63b8ff" points="1130.28,-7.53 1120.12,-10.54 1129.94,-14.52 1130.28,-7.53"/>
</a>
</g>
</g>
<!-- Node11 -->
<g id="Node000011" class="node">
<title>Node11</title>
<g id="a_Node000011"><a xlink:href="proto__stats__types_8h.html" target="_top" xlink:title="ODP proto stats types.">
<polygon fill="white" stroke="#666666" points="1297,-382 1187,-382 1187,-352 1297,-352 1297,-382"/>
<text text-anchor="start" x="1195" y="-370" font-family="Helvetica,sans-Serif" font-size="10.00">odp/api/proto_stats</text>
<text text-anchor="middle" x="1242" y="-359" font-family="Helvetica,sans-Serif" font-size="10.00">_types.h</text>
</a>
</g>
</g>
<!-- Node10&#45;&gt;Node11 -->
<g id="edge12_Node000010_Node000011" class="edge">
<title>Node10&#45;&gt;Node11</title>
<g id="a_edge12_Node000010_Node000011"><a xlink:title=" ">
<path fill="none" stroke="#63b8ff" d="M999.82,-660.71C1050.92,-644.97 1118,-613.23 1118,-555 1118,-555 1118,-555 1118,-492.5 1118,-443.85 1166.13,-407.49 1202.41,-387"/>
<polygon fill="#63b8ff" stroke="#63b8ff" points="1204.24,-389.99 1211.35,-382.13 1200.89,-383.84 1204.24,-389.99"/>
</a>
</g>
</g>
<!-- Node10&#45;&gt;Node21 -->
<g id="edge28_Node000010_Node000021" class="edge">
<title>Node10&#45;&gt;Node21</title>
<g id="a_edge28_Node000010_Node000021"><a xlink:title=" ">
<path fill="none" stroke="#63b8ff" d="M900.6,-659.99C870.32,-649.98 830.05,-636.67 801.47,-627.22"/>
<polygon fill="#63b8ff" stroke="#63b8ff" points="802.47,-623.87 791.88,-624.05 800.28,-630.52 802.47,-623.87"/>
</a>
</g>
</g>
<!-- Node12 -->
<g id="Node000012" class="node">
<title>Node12</title>
<g id="a_Node000012"><a xlink:title=" ">
<polygon fill="#e0e0e0" stroke="#999999" points="1315,-316 1187,-316 1187,-286 1315,-286 1315,-316"/>
<text text-anchor="start" x="1195" y="-304" font-family="Helvetica,sans-Serif" font-size="10.00">odp/api/abi/proto_stats</text>
<text text-anchor="middle" x="1251" y="-293" font-family="Helvetica,sans-Serif" font-size="10.00">_types.h</text>
</a>
</g>
</g>
<!-- Node11&#45;&gt;Node12 -->
<g id="edge13_Node000011_Node000012" class="edge">
<title>Node11&#45;&gt;Node12</title>
<g id="a_edge13_Node000011_Node000012"><a xlink:title=" ">
<path fill="none" stroke="#63b8ff" d="M1244,-351.8C1245.06,-344.26 1246.39,-334.78 1247.61,-326.13"/>
<polygon fill="#63b8ff" stroke="#63b8ff" points="1251.08,-326.55 1249.01,-316.16 1244.15,-325.58 1251.08,-326.55"/>
</a>
</g>
</g>
<!-- Node13 -->
<g id="Node000013" class="node">
<title>Node13</title>
<g id="a_Node000013"><a xlink:href="spec_2proto__stats__types_8h.html" target="_top" xlink:title="ODP proto stats types.">
<polygon fill="white" stroke="#666666" points="1092.5,-316 985.5,-316 985.5,-286 1092.5,-286 1092.5,-316"/>
<text text-anchor="start" x="993.5" y="-304" font-family="Helvetica,sans-Serif" font-size="10.00">odp/api/spec/proto</text>
<text text-anchor="middle" x="1039" y="-293" font-family="Helvetica,sans-Serif" font-size="10.00">_stats_types.h</text>
</a>
</g>
</g>
<!-- Node11&#45;&gt;Node13 -->
<g id="edge14_Node000011_Node000013" class="edge">
<title>Node11&#45;&gt;Node13</title>
<g id="a_edge14_Node000011_Node000013"><a xlink:title=" ">
<path fill="none" stroke="#63b8ff" d="M1197.45,-351.95C1166.78,-342.28 1125.84,-329.38 1093.27,-319.11"/>
<polygon fill="#63b8ff" stroke="#63b8ff" points="1094.03,-315.68 1083.45,-316.01 1091.93,-322.36 1094.03,-315.68"/>
</a>
</g>
</g>
<!-- Node13&#45;&gt;Node2 -->
<g id="edge15_Node000013_Node000002" class="edge">
<title>Node13&#45;&gt;Node2</title>
<g id="a_edge15_Node000013_Node000002"><a xlink:title=" ">
<path fill="none" stroke="#63b8ff" d="M1029.68,-285.82C1018.56,-270.03 998.48,-244.91 975,-231 918.61,-197.6 893.45,-217.79 832,-195 814.3,-188.43 811.69,-182.6 794,-176 674.55,-131.47 626.96,-157.34 522,-85 498.66,-68.92 476.99,-44.16 463.87,-27.66"/>
<polygon fill="#63b8ff" stroke="#63b8ff" points="466.4,-25.21 457.51,-19.44 460.87,-29.49 466.4,-25.21"/>
</a>
</g>
</g>
<!-- Node13&#45;&gt;Node6 -->
<g id="edge27_Node000013_Node000006" class="edge">
<title>Node13&#45;&gt;Node6</title>
<g id="a_edge27_Node000013_Node000006"><a xlink:title=" ">
<path fill="none" stroke="#63b8ff" d="M1048.33,-285.99C1061.25,-265.2 1083,-224.54 1083,-186.5 1083,-186.5 1083,-186.5 1083,-129.5 1083,-93.54 1074.44,-52.23 1068.81,-28.96"/>
<polygon fill="#63b8ff" stroke="#63b8ff" points="1072.16,-27.93 1066.33,-19.09 1065.37,-29.64 1072.16,-27.93"/>
</a>
</g>
</g>
<!-- Node13&#45;&gt;Node14 -->
<g id="edge16_Node000013_Node000014" class="edge">
<title>Node13&#45;&gt;Node14</title>
<g id="a_edge16_Node000013_Node000014"><a xlink:title=" ">
<path fill="none" stroke="#63b8ff" d="M1008.1,-285.99C986.87,-276.36 958.89,-263.67 938.25,-254.31"/>
<polygon fill="#63b8ff" stroke="#63b8ff" points="939.6,-251.08 929.05,-250.14 936.71,-257.46 939.6,-251.08"/>
</a>
</g>
</g>
<!-- Node15 -->
<g id="Node000015" class="node">
<title>Node15</title>
<g id="a_Node000015"><a xlink:title=" ">
<polygon fill="#e0e0e0" stroke="#999999" points="785,-195 655,-195 655,-176 785,-176 785,-195"/>
<text text-anchor="middle" x="720" y="-183" font-family="Helvetica,sans-Serif" font-size="10.00">odp/api/abi/std_types.h</text>
</a>
</g>
</g>
<!-- Node14&#45;&gt;Node15 -->
<g id="edge17_Node000014_Node000015" class="edge">
<title>Node14&#45;&gt;Node15</title>
<g id="a_edge17_Node000014_Node000015"><a xlink:title=" ">
<path fill="none" stroke="#63b8ff" d="M879.47,-230.98C847.3,-222.01 796.44,-207.82 760.83,-197.89"/>
<polygon fill="#63b8ff" stroke="#63b8ff" points="761.34,-194.4 750.77,-195.08 759.46,-201.14 761.34,-194.4"/>
</a>
</g>
</g>
<!-- Node16 -->
<g id="Node000016" class="node">
<title>Node16</title>
<g id="a_Node000016"><a xlink:href="spec_2std__types_8h.html" target="_top" xlink:title="Common types and definitions for ODP API files.">
<polygon fill="white" stroke="#666666" points="978.5,-195 841.5,-195 841.5,-176 978.5,-176 978.5,-195"/>
<text text-anchor="middle" x="910" y="-183" font-family="Helvetica,sans-Serif" font-size="10.00">odp/api/spec/std_types.h</text>
</a>
</g>
</g>
<!-- Node14&#45;&gt;Node16 -->
<g id="edge18_Node000014_Node000016" class="edge">
<title>Node14&#45;&gt;Node16</title>
<g id="a_edge18_Node000014_Node000016"><a xlink:title=" ">
<path fill="none" stroke="#63b8ff" d="M910,-230.75C910,-223.8 910,-213.85 910,-205.13"/>
<polygon fill="#63b8ff" stroke="#63b8ff" points="913.5,-205.09 910,-195.09 906.5,-205.09 913.5,-205.09"/>
</a>
</g>
</g>
<!-- Node16&#45;&gt;Node2 -->
<g id="edge19_Node000016_Node000002" class="edge">
<title>Node16&#45;&gt;Node2</title>
<g id="a_edge19_Node000016_Node000002"><a xlink:title=" ">
<path fill="none" stroke="#63b8ff" d="M862.48,-175.95C794.26,-162.54 665.72,-133.03 565,-85 543.97,-74.97 541.43,-67.86 522,-55 506.08,-44.46 487.82,-33.03 473.8,-24.4"/>
<polygon fill="#63b8ff" stroke="#63b8ff" points="475.63,-21.41 465.28,-19.16 471.97,-27.38 475.63,-21.41"/>
</a>
</g>
</g>
<!-- Node16&#45;&gt;Node6 -->
<g id="edge26_Node000016_Node000006" class="edge">
<title>Node16&#45;&gt;Node6</title>
<g id="a_edge26_Node000016_Node000006"><a xlink:title=" ">
<path fill="none" stroke="#63b8ff" d="M918.2,-175.71C926.1,-167.02 938.1,-153.15 947,-140 971.07,-104.42 963.61,-86.33 993,-55 1005.05,-42.16 1021.58,-31.51 1035.66,-23.85"/>
<polygon fill="#63b8ff" stroke="#63b8ff" points="1037.67,-26.75 1044.93,-19.04 1034.44,-20.54 1037.67,-26.75"/>
</a>
</g>
</g>
<!-- Node17 -->
<g id="Node000017" class="node">
<title>Node17</title>
<g id="a_Node000017"><a xlink:title=" ">
<polygon fill="#e0e0e0" stroke="#999999" points="938.5,-140 885.5,-140 885.5,-121 938.5,-121 938.5,-140"/>
<text text-anchor="middle" x="912" y="-128" font-family="Helvetica,sans-Serif" font-size="10.00">stdint.h</text>
</a>
</g>
</g>
<!-- Node16&#45;&gt;Node17 -->
<g id="edge20_Node000016_Node000017" class="edge">
<title>Node16&#45;&gt;Node17</title>
<g id="a_edge20_Node000016_Node000017"><a xlink:title=" ">
<path fill="none" stroke="#63b8ff" d="M910.33,-175.75C910.59,-168.8 910.97,-158.85 911.3,-150.13"/>
<polygon fill="#63b8ff" stroke="#63b8ff" points="914.8,-150.21 911.68,-140.09 907.8,-149.95 914.8,-150.21"/>
</a>
</g>
</g>
<!-- Node18 -->
<g id="Node000018" class="node">
<title>Node18</title>
<g id="a_Node000018"><a xlink:href="align_8h.html" target="_top" xlink:title="ODP alignments.">
<polygon fill="white" stroke="#666666" points="867.5,-140 778.5,-140 778.5,-121 867.5,-121 867.5,-140"/>
<text text-anchor="middle" x="823" y="-128" font-family="Helvetica,sans-Serif" font-size="10.00">odp/api/align.h</text>
</a>
</g>
</g>
<!-- Node16&#45;&gt;Node18 -->
<g id="edge21_Node000016_Node000018" class="edge">
<title>Node16&#45;&gt;Node18</title>
<g id="a_edge21_Node000016_Node000018"><a xlink:title=" ">
<path fill="none" stroke="#63b8ff" d="M896.02,-175.98C882.53,-167.77 861.87,-155.18 845.96,-145.49"/>
<polygon fill="#63b8ff" stroke="#63b8ff" points="847.59,-142.38 837.23,-140.17 843.95,-148.36 847.59,-142.38"/>
</a>
</g>
</g>
<!-- Node19 -->
<g id="Node000019" class="node">
<title>Node19</title>
<g id="a_Node000019"><a xlink:title=" ">
<polygon fill="#e0e0e0" stroke="#999999" points="808.5,-79.5 701.5,-79.5 701.5,-60.5 808.5,-60.5 808.5,-79.5"/>
<text text-anchor="middle" x="755" y="-67.5" font-family="Helvetica,sans-Serif" font-size="10.00">odp/api/abi/align.h</text>
</a>
</g>
</g>
<!-- Node18&#45;&gt;Node19 -->
<g id="edge22_Node000018_Node000019" class="edge">
<title>Node18&#45;&gt;Node19</title>
<g id="a_edge22_Node000018_Node000019"><a xlink:title=" ">
<path fill="none" stroke="#63b8ff" d="M812.97,-120.87C802.42,-111.8 785.61,-97.34 772.81,-86.32"/>
<polygon fill="#63b8ff" stroke="#63b8ff" points="774.94,-83.54 765.07,-79.67 770.37,-88.84 774.94,-83.54"/>
</a>
</g>
</g>
<!-- Node20 -->
<g id="Node000020" class="node">
<title>Node20</title>
<g id="a_Node000020"><a xlink:href="spec_2align_8h.html" target="_top" xlink:title="ODP alignments.">
<polygon fill="white" stroke="#666666" points="941,-79.5 827,-79.5 827,-60.5 941,-60.5 941,-79.5"/>
<text text-anchor="middle" x="884" y="-67.5" font-family="Helvetica,sans-Serif" font-size="10.00">odp/api/spec/align.h</text>
</a>
</g>
</g>
<!-- Node18&#45;&gt;Node20 -->
<g id="edge23_Node000018_Node000020" class="edge">
<title>Node18&#45;&gt;Node20</title>
<g id="a_edge23_Node000018_Node000020"><a xlink:title=" ">
<path fill="none" stroke="#63b8ff" d="M832,-120.87C841.37,-111.88 856.25,-97.61 867.7,-86.64"/>
<polygon fill="#63b8ff" stroke="#63b8ff" points="870.17,-89.12 874.96,-79.67 865.32,-84.06 870.17,-89.12"/>
</a>
</g>
</g>
<!-- Node20&#45;&gt;Node2 -->
<g id="edge24_Node000020_Node000002" class="edge">
<title>Node20&#45;&gt;Node2</title>
<g id="a_edge24_Node000020_Node000002"><a xlink:title=" ">
<path fill="none" stroke="#63b8ff" d="M845.84,-60.44C836.44,-58.49 826.38,-56.55 817,-55 714.91,-38.16 595.82,-24.84 521.9,-17.32"/>
<polygon fill="#63b8ff" stroke="#63b8ff" points="522.08,-13.82 511.78,-16.29 521.37,-20.78 522.08,-13.82"/>
</a>
</g>
</g>
<!-- Node20&#45;&gt;Node6 -->
<g id="edge25_Node000020_Node000006" class="edge">
<title>Node20&#45;&gt;Node6</title>
<g id="a_edge25_Node000020_Node000006"><a xlink:title=" ">
<path fill="none" stroke="#63b8ff" d="M910.17,-60.49C941.23,-50.4 993.19,-33.51 1028.02,-22.19"/>
<polygon fill="#63b8ff" stroke="#63b8ff" points="1029.37,-25.44 1037.79,-19.02 1027.2,-18.78 1029.37,-25.44"/>
</a>
</g>
</g>
<!-- Node22 -->
<g id="Node000022" class="node">
<title>Node22</title>
<g id="a_Node000022"><a xlink:title=" ">
<polygon fill="#e0e0e0" stroke="#999999" points="692.5,-563.5 547.5,-563.5 547.5,-544.5 692.5,-544.5 692.5,-563.5"/>
<text text-anchor="middle" x="620" y="-551.5" font-family="Helvetica,sans-Serif" font-size="10.00">odp/api/abi/queue_types.h</text>
</a>
</g>
</g>
<!-- Node21&#45;&gt;Node22 -->
<g id="edge29_Node000021_Node000022" class="edge">
<title>Node21&#45;&gt;Node22</title>
<g id="a_edge29_Node000021_Node000022"><a xlink:title=" ">
<path fill="none" stroke="#63b8ff" d="M744.77,-604.99C720.01,-595.07 678.88,-578.59 650.65,-567.28"/>
<polygon fill="#63b8ff" stroke="#63b8ff" points="651.84,-563.99 641.26,-563.52 649.24,-570.49 651.84,-563.99"/>
</a>
</g>
</g>
<!-- Node23 -->
<g id="Node000023" class="node">
<title>Node23</title>
<g id="a_Node000023"><a xlink:href="spec_2queue__types_8h.html" target="_top" xlink:title="ODP queue types.">
<polygon fill="white" stroke="#666666" points="821.5,-569 710.5,-569 710.5,-539 821.5,-539 821.5,-569"/>
<text text-anchor="start" x="718.5" y="-557" font-family="Helvetica,sans-Serif" font-size="10.00">odp/api/spec/queue</text>
<text text-anchor="middle" x="766" y="-546" font-family="Helvetica,sans-Serif" font-size="10.00">_types.h</text>
</a>
</g>
</g>
<!-- Node21&#45;&gt;Node23 -->
<g id="edge30_Node000021_Node000023" class="edge">
<title>Node21&#45;&gt;Node23</title>
<g id="a_edge30_Node000021_Node000023"><a xlink:title=" ">
<path fill="none" stroke="#63b8ff" d="M766,-604.87C766,-598.11 766,-588.35 766,-579.26"/>
<polygon fill="#63b8ff" stroke="#63b8ff" points="769.5,-579.11 766,-569.11 762.5,-579.11 769.5,-579.11"/>
</a>
</g>
</g>
<!-- Node23&#45;&gt;Node2 -->
<g id="edge31_Node000023_Node000002" class="edge">
<title>Node23&#45;&gt;Node2</title>
<g id="a_edge31_Node000023_Node000002"><a xlink:title=" ">
<path fill="none" stroke="#63b8ff" d="M710.38,-540.36C540.2,-501.49 38,-385.33 38,-368 38,-368 38,-368 38,-129.5 38,-83.14 69.52,-75.7 111,-55 156.81,-32.14 294.56,-19.91 380.01,-14.34"/>
<polygon fill="#63b8ff" stroke="#63b8ff" points="380.41,-17.83 390.16,-13.7 379.96,-10.84 380.41,-17.83"/>
</a>
</g>
</g>
<!-- Node23&#45;&gt;Node6 -->
<g id="edge53_Node000023_Node000006" class="edge">
<title>Node23&#45;&gt;Node6</title>
<g id="a_edge53_Node000023_Node000006"><a xlink:title=" ">
<path fill="none" stroke="#63b8ff" d="M821.89,-544.01C930.39,-523.03 1159,-460.07 1159,-302 1159,-302 1159,-302 1159,-129.5 1159,-83.22 1114.58,-44.59 1086.49,-24.79"/>
<polygon fill="#63b8ff" stroke="#63b8ff" points="1088.26,-21.76 1078.02,-19.03 1084.32,-27.55 1088.26,-21.76"/>
</a>
</g>
</g>
<!-- Node24 -->
<g id="Node000024" class="node">
<title>Node24</title>
<g id="a_Node000024"><a xlink:href="event__vector__types_8h.html" target="_top" xlink:title="ODP event vector API type definitions.">
<polygon fill="white" stroke="#666666" points="566.5,-382 447.5,-382 447.5,-352 566.5,-352 566.5,-382"/>
<text text-anchor="start" x="455.5" y="-370" font-family="Helvetica,sans-Serif" font-size="10.00">odp/api/event_vector</text>
<text text-anchor="middle" x="507" y="-359" font-family="Helvetica,sans-Serif" font-size="10.00">_types.h</text>
</a>
</g>
</g>
<!-- Node23&#45;&gt;Node24 -->
<g id="edge32_Node000023_Node000024" class="edge">
<title>Node23&#45;&gt;Node24</title>
<g id="a_edge32_Node000023_Node000024"><a xlink:title=" ">
<path fill="none" stroke="#63b8ff" d="M710.63,-538.99C685.05,-530.94 655.07,-519.16 631,-503 584.79,-471.97 543.84,-420.32 522.53,-390.72"/>
<polygon fill="#63b8ff" stroke="#63b8ff" points="525.2,-388.43 516.57,-382.28 519.49,-392.47 525.2,-388.43"/>
</a>
</g>
</g>
<!-- Node28 -->
<g id="Node000028" class="node">
<title>Node28</title>
<g id="a_Node000028"><a xlink:href="schedule__types_8h.html" target="_top" xlink:title="ODP schedule.">
<polygon fill="white" stroke="#666666" points="836,-503 696,-503 696,-484 836,-484 836,-503"/>
<text text-anchor="middle" x="766" y="-491" font-family="Helvetica,sans-Serif" font-size="10.00">odp/api/schedule_types.h</text>
</a>
</g>
</g>
<!-- Node23&#45;&gt;Node28 -->
<g id="edge40_Node000023_Node000028" class="edge">
<title>Node23&#45;&gt;Node28</title>
<g id="a_edge40_Node000023_Node000028"><a xlink:title=" ">
<path fill="none" stroke="#63b8ff" d="M766,-538.84C766,-531.21 766,-521.7 766,-513.45"/>
<polygon fill="#63b8ff" stroke="#63b8ff" points="769.5,-513.27 766,-503.27 762.5,-513.27 769.5,-513.27"/>
</a>
</g>
</g>
<!-- Node25 -->
<g id="Node000025" class="node">
<title>Node25</title>
<g id="a_Node000025"><a xlink:title=" ">
<polygon fill="#e0e0e0" stroke="#999999" points="279.5,-316 142.5,-316 142.5,-286 279.5,-286 279.5,-316"/>
<text text-anchor="start" x="150.5" y="-304" font-family="Helvetica,sans-Serif" font-size="10.00">odp/api/abi/event_vector</text>
<text text-anchor="middle" x="211" y="-293" font-family="Helvetica,sans-Serif" font-size="10.00">_types.h</text>
</a>
</g>
</g>
<!-- Node24&#45;&gt;Node25 -->
<g id="edge33_Node000024_Node000025" class="edge">
<title>Node24&#45;&gt;Node25</title>
<g id="a_edge33_Node000024_Node000025"><a xlink:title=" ">
<path fill="none" stroke="#63b8ff" d="M447.46,-353.13C400.85,-343.05 335.75,-328.97 285.65,-318.14"/>
<polygon fill="#63b8ff" stroke="#63b8ff" points="286.36,-314.71 275.84,-316.02 284.88,-321.55 286.36,-314.71"/>
</a>
</g>
</g>
<!-- Node26 -->
<g id="Node000026" class="node">
<title>Node26</title>
<g id="a_Node000026"><a xlink:title=" ">
<polygon fill="#e0e0e0" stroke="#999999" points="434,-310.5 298,-310.5 298,-291.5 434,-291.5 434,-310.5"/>
<text text-anchor="middle" x="366" y="-298.5" font-family="Helvetica,sans-Serif" font-size="10.00">odp/api/abi/pool_types.h</text>
</a>
</g>
</g>
<!-- Node24&#45;&gt;Node26 -->
<g id="edge34_Node000024_Node000026" class="edge">
<title>Node24&#45;&gt;Node26</title>
<g id="a_edge34_Node000024_Node000026"><a xlink:title=" ">
<path fill="none" stroke="#63b8ff" d="M476.06,-351.95C451.55,-340.83 417.61,-325.42 393.92,-314.67"/>
<polygon fill="#63b8ff" stroke="#63b8ff" points="395.32,-311.46 384.76,-310.52 392.42,-317.84 395.32,-311.46"/>
</a>
</g>
</g>
<!-- Node27 -->
<g id="Node000027" class="node">
<title>Node27</title>
<g id="a_Node000027"><a xlink:href="spec_2event__vector__types_8h.html" target="_top" xlink:title="ODP event vector API type definitions.">
<polygon fill="white" stroke="#666666" points="561.5,-316 452.5,-316 452.5,-286 561.5,-286 561.5,-316"/>
<text text-anchor="start" x="460.5" y="-304" font-family="Helvetica,sans-Serif" font-size="10.00">odp/api/spec/event</text>
<text text-anchor="middle" x="507" y="-293" font-family="Helvetica,sans-Serif" font-size="10.00">_vector_types.h</text>
</a>
</g>
</g>
<!-- Node24&#45;&gt;Node27 -->
<g id="edge35_Node000024_Node000027" class="edge">
<title>Node24&#45;&gt;Node27</title>
<g id="a_edge35_Node000024_Node000027"><a xlink:title=" ">
<path fill="none" stroke="#63b8ff" d="M507,-351.8C507,-344.34 507,-334.99 507,-326.41"/>
<polygon fill="#63b8ff" stroke="#63b8ff" points="510.5,-326.16 507,-316.16 503.5,-326.16 510.5,-326.16"/>
</a>
</g>
</g>
<!-- Node27&#45;&gt;Node2 -->
<g id="edge36_Node000027_Node000002" class="edge">
<title>Node27&#45;&gt;Node2</title>
<g id="a_edge36_Node000027_Node000002"><a xlink:title=" ">
<path fill="none" stroke="#63b8ff" d="M458.39,-285.92C414.25,-269.8 356,-238.64 356,-186.5 356,-186.5 356,-186.5 356,-129.5 356,-83.22 400.42,-44.59 428.51,-24.79"/>
<polygon fill="#63b8ff" stroke="#63b8ff" points="430.68,-27.55 436.98,-19.03 426.74,-21.76 430.68,-27.55"/>
</a>
</g>
</g>
<!-- Node27&#45;&gt;Node3 -->
<g id="edge37_Node000027_Node000003" class="edge">
<title>Node27&#45;&gt;Node3</title>
<g id="a_edge37_Node000027_Node000003"><a xlink:title=" ">
<path fill="none" stroke="#63b8ff" d="M452.4,-287.02C408.6,-276.6 347.82,-262.15 306.59,-252.34"/>
<polygon fill="#63b8ff" stroke="#63b8ff" points="307.35,-248.92 296.81,-250.02 305.73,-255.73 307.35,-248.92"/>
</a>
</g>
</g>
<!-- Node27&#45;&gt;Node6 -->
<g id="edge39_Node000027_Node000006" class="edge">
<title>Node27&#45;&gt;Node6</title>
<g id="a_edge39_Node000027_Node000006"><a xlink:title=" ">
<path fill="none" stroke="#63b8ff" d="M561.54,-288.79C685.77,-263.17 979.77,-201.96 988,-195 1039.14,-151.69 1017.81,-116.69 1044,-55 1047.72,-46.23 1052.04,-36.57 1055.7,-28.5"/>
<polygon fill="#63b8ff" stroke="#63b8ff" points="1058.93,-29.87 1059.91,-19.32 1052.56,-26.95 1058.93,-29.87"/>
</a>
</g>
</g>
<!-- Node27&#45;&gt;Node14 -->
<g id="edge38_Node000027_Node000014" class="edge">
<title>Node27&#45;&gt;Node14</title>
<g id="a_edge38_Node000027_Node000014"><a xlink:title=" ">
<path fill="none" stroke="#63b8ff" d="M561.77,-292.05C634.99,-281.42 764.67,-262.6 843.44,-251.16"/>
<polygon fill="#63b8ff" stroke="#63b8ff" points="844.33,-254.57 853.73,-249.67 843.33,-247.64 844.33,-254.57"/>
</a>
</g>
</g>
<!-- Node29 -->
<g id="Node000029" class="node">
<title>Node29</title>
<g id="a_Node000029"><a xlink:title=" ">
<polygon fill="#e0e0e0" stroke="#999999" points="743.5,-448 626.5,-448 626.5,-418 743.5,-418 743.5,-448"/>
<text text-anchor="start" x="634.5" y="-436" font-family="Helvetica,sans-Serif" font-size="10.00">odp/api/abi/schedule</text>
<text text-anchor="middle" x="685" y="-425" font-family="Helvetica,sans-Serif" font-size="10.00">_types.h</text>
</a>
</g>
</g>
<!-- Node28&#45;&gt;Node29 -->
<g id="edge41_Node000028_Node000029" class="edge">
<title>Node28&#45;&gt;Node29</title>
<g id="a_edge41_Node000028_Node000029"><a xlink:title=" ">
<path fill="none" stroke="#63b8ff" d="M754.05,-483.87C743.26,-476.08 726.98,-464.32 712.93,-454.17"/>
<polygon fill="#63b8ff" stroke="#63b8ff" points="714.7,-451.13 704.54,-448.11 710.6,-456.81 714.7,-451.13"/>
</a>
</g>
</g>
<!-- Node30 -->
<g id="Node000030" class="node">
<title>Node30</title>
<g id="a_Node000030"><a xlink:href="spec_2schedule__types_8h.html" target="_top" xlink:title="ODP schedule types.">
<polygon fill="white" stroke="#666666" points="886.5,-448 761.5,-448 761.5,-418 886.5,-418 886.5,-448"/>
<text text-anchor="start" x="769.5" y="-436" font-family="Helvetica,sans-Serif" font-size="10.00">odp/api/spec/schedule</text>
<text text-anchor="middle" x="824" y="-425" font-family="Helvetica,sans-Serif" font-size="10.00">_types.h</text>
</a>
</g>
</g>
<!-- Node28&#45;&gt;Node30 -->
<g id="edge42_Node000028_Node000030" class="edge">
<title>Node28&#45;&gt;Node30</title>
<g id="a_edge42_Node000028_Node000030"><a xlink:title=" ">
<path fill="none" stroke="#63b8ff" d="M774.56,-483.87C781.99,-476.37 793.07,-465.2 802.86,-455.33"/>
<polygon fill="#63b8ff" stroke="#63b8ff" points="805.45,-457.68 810.01,-448.11 800.48,-452.75 805.45,-457.68"/>
</a>
</g>
</g>
<!-- Node30&#45;&gt;Node2 -->
<g id="edge43_Node000030_Node000002" class="edge">
<title>Node30&#45;&gt;Node2</title>
<g id="a_edge43_Node000030_Node000002"><a xlink:title=" ">
<path fill="none" stroke="#63b8ff" d="M761.22,-419.49C758.11,-418.97 755.02,-418.47 752,-418 598.56,-394.32 76,-396.76 76,-241.5 76,-241.5 76,-241.5 76,-129.5 76,-66.39 271.39,-32.39 380.09,-18.35"/>
<polygon fill="#63b8ff" stroke="#63b8ff" points="380.85,-21.78 390.33,-17.06 379.97,-14.84 380.85,-21.78"/>
</a>
</g>
</g>
<!-- Node30&#45;&gt;Node6 -->
<g id="edge52_Node000030_Node000006" class="edge">
<title>Node30&#45;&gt;Node6</title>
<g id="a_edge52_Node000030_Node000006"><a xlink:title=" ">
<path fill="none" stroke="#63b8ff" d="M886.62,-417.91C973.76,-396.47 1121,-352.73 1121,-302 1121,-302 1121,-302 1121,-129.5 1121,-89.64 1094.66,-48.98 1077.79,-27.03"/>
<polygon fill="#63b8ff" stroke="#63b8ff" points="1080.42,-24.71 1071.45,-19.07 1074.95,-29.07 1080.42,-24.71"/>
</a>
</g>
</g>
<!-- Node30&#45;&gt;Node14 -->
<g id="edge45_Node000030_Node000014" class="edge">
<title>Node30&#45;&gt;Node14</title>
<g id="a_edge45_Node000030_Node000014"><a xlink:title=" ">
<path fill="none" stroke="#63b8ff" d="M848.28,-417.82C861.11,-409.08 876.03,-396.74 885,-382 908.43,-343.49 911.18,-288.76 910.82,-260.31"/>
<polygon fill="#63b8ff" stroke="#63b8ff" points="914.31,-260.05 910.53,-250.16 907.31,-260.25 914.31,-260.05"/>
</a>
</g>
</g>
<!-- Node30&#45;&gt;Node24 -->
<g id="edge44_Node000030_Node000024" class="edge">
<title>Node30&#45;&gt;Node24</title>
<g id="a_edge44_Node000030_Node000024"><a xlink:title=" ">
<path fill="none" stroke="#63b8ff" d="M761.37,-419.36C708.12,-408.6 631.74,-393.18 576.59,-382.05"/>
<polygon fill="#63b8ff" stroke="#63b8ff" points="577.04,-378.57 566.55,-380.02 575.66,-385.43 577.04,-378.57"/>
</a>
</g>
</g>
<!-- Node31 -->
<g id="Node000031" class="node">
<title>Node31</title>
<g id="a_Node000031"><a xlink:href="thrmask_8h.html" target="_top" xlink:title="ODP thread masks.">
<polygon fill="white" stroke="#666666" points="876.5,-376.5 771.5,-376.5 771.5,-357.5 876.5,-357.5 876.5,-376.5"/>
<text text-anchor="middle" x="824" y="-364.5" font-family="Helvetica,sans-Serif" font-size="10.00">odp/api/thrmask.h</text>
</a>
</g>
</g>
<!-- Node30&#45;&gt;Node31 -->
<g id="edge46_Node000030_Node000031" class="edge">
<title>Node30&#45;&gt;Node31</title>
<g id="a_edge46_Node000030_Node000031"><a xlink:title=" ">
<path fill="none" stroke="#63b8ff" d="M824,-417.8C824,-408.7 824,-396.79 824,-386.9"/>
<polygon fill="#63b8ff" stroke="#63b8ff" points="827.5,-386.84 824,-376.84 820.5,-386.84 827.5,-386.84"/>
</a>
</g>
</g>
<!-- Node32 -->
<g id="Node000032" class="node">
<title>Node32</title>
<g id="a_Node000032"><a xlink:title=" ">
<polygon fill="#e0e0e0" stroke="#999999" points="741.5,-310.5 618.5,-310.5 618.5,-291.5 741.5,-291.5 741.5,-310.5"/>
<text text-anchor="middle" x="680" y="-298.5" font-family="Helvetica,sans-Serif" font-size="10.00">odp/api/abi/thrmask.h</text>
</a>
</g>
</g>
<!-- Node31&#45;&gt;Node32 -->
<g id="edge47_Node000031_Node000032" class="edge">
<title>Node31&#45;&gt;Node32</title>
<g id="a_edge47_Node000031_Node000032"><a xlink:title=" ">
<path fill="none" stroke="#63b8ff" d="M804.58,-357.37C779.99,-346.44 737.43,-327.52 708.99,-314.88"/>
<polygon fill="#63b8ff" stroke="#63b8ff" points="710.13,-311.56 699.57,-310.7 707.29,-317.96 710.13,-311.56"/>
</a>
</g>
</g>
<!-- Node33 -->
<g id="Node000033" class="node">
<title>Node33</title>
<g id="a_Node000033"><a xlink:href="spec_2thrmask_8h.html" target="_top" xlink:title="ODP thread masks.">
<polygon fill="white" stroke="#666666" points="890.5,-310.5 759.5,-310.5 759.5,-291.5 890.5,-291.5 890.5,-310.5"/>
<text text-anchor="middle" x="825" y="-298.5" font-family="Helvetica,sans-Serif" font-size="10.00">odp/api/spec/thrmask.h</text>
</a>
</g>
</g>
<!-- Node31&#45;&gt;Node33 -->
<g id="edge48_Node000031_Node000033" class="edge">
<title>Node31&#45;&gt;Node33</title>
<g id="a_edge48_Node000031_Node000033"><a xlink:title=" ">
<path fill="none" stroke="#63b8ff" d="M824.13,-357.37C824.28,-348.16 824.51,-333.29 824.7,-321.27"/>
<polygon fill="#63b8ff" stroke="#63b8ff" points="828.2,-320.96 824.86,-310.91 821.2,-320.85 828.2,-320.96"/>
</a>
</g>
</g>
<!-- Node33&#45;&gt;Node2 -->
<g id="edge49_Node000033_Node000002" class="edge">
<title>Node33&#45;&gt;Node2</title>
<g id="a_edge49_Node000033_Node000002"><a xlink:title=" ">
<path fill="none" stroke="#63b8ff" d="M784.97,-291.49C692.13,-271.21 470,-219.26 470,-186.5 470,-186.5 470,-186.5 470,-129.5 470,-93.54 461.44,-52.23 455.81,-28.96"/>
<polygon fill="#63b8ff" stroke="#63b8ff" points="459.16,-27.93 453.33,-19.09 452.37,-29.64 459.16,-27.93"/>
</a>
</g>
</g>
<!-- Node33&#45;&gt;Node6 -->
<g id="edge51_Node000033_Node000006" class="edge">
<title>Node33&#45;&gt;Node6</title>
<g id="a_edge51_Node000033_Node000006"><a xlink:title=" ">
<path fill="none" stroke="#63b8ff" d="M890.71,-293.73C955.54,-283.49 1045,-256.66 1045,-186.5 1045,-186.5 1045,-186.5 1045,-129.5 1045,-93.54 1053.56,-52.23 1059.19,-28.96"/>
<polygon fill="#63b8ff" stroke="#63b8ff" points="1062.63,-29.64 1061.67,-19.09 1055.84,-27.93 1062.63,-29.64"/>
</a>
</g>
</g>
<!-- Node33&#45;&gt;Node14 -->
<g id="edge50_Node000033_Node000014" class="edge">
<title>Node33&#45;&gt;Node14</title>
<g id="a_edge50_Node000033_Node000014"><a xlink:title=" ">
<path fill="none" stroke="#63b8ff" d="M837.54,-291.37C851.1,-282.04 872.94,-267.01 889.1,-255.88"/>
<polygon fill="#63b8ff" stroke="#63b8ff" points="891.15,-258.72 897.41,-250.17 887.18,-252.95 891.15,-258.72"/>
</a>
</g>
</g>
</g>
</svg>
