<?xml version="1.0" encoding="UTF-8" standalone="no"?>
<!DOCTYPE svg PUBLIC "-//W3C//DTD SVG 1.1//EN"
 "http://www.w3.org/Graphics/SVG/1.1/DTD/svg11.dtd">
<!-- Generated by graphviz version 2.43.0 (0)
 -->
<!-- Title: odp_queue_info_t Pages: 1 -->
<svg width="294pt" height="225pt"
 viewBox="0.00 0.00 293.50 225.00" xmlns="http://www.w3.org/2000/svg" xmlns:xlink="http://www.w3.org/1999/xlink">
<g id="graph0" class="graph" transform="scale(1 1) rotate(0) translate(4 221)">
<title>odp_queue_info_t</title>
<!-- Node1 -->
<g id="Node000001" class="node">
<title>Node1</title>
<g id="a_Node000001"><a xlink:title="Queue information Retrieve information about a queue with odp_queue_info()">
<polygon fill="#999999" stroke="#666666" points="143,-19 40,-19 40,0 143,0 143,-19"/>
<text text-anchor="middle" x="91.5" y="-7" font-family="Helvetica,sans-Serif" font-size="10.00">odp_queue_info_t</text>
</a>
</g>
</g>
<!-- Node2 -->
<g id="Node000002" class="node">
<title>Node2</title>
<g id="a_Node000002"><a xlink:href="structodp__queue__param__t.html" target="_top" xlink:title="ODP Queue parameters.">
<polygon fill="white" stroke="#666666" points="149.5,-85 33.5,-85 33.5,-66 149.5,-66 149.5,-85"/>
<text text-anchor="middle" x="91.5" y="-73" font-family="Helvetica,sans-Serif" font-size="10.00">odp_queue_param_t</text>
</a>
</g>
</g>
<!-- Node2&#45;&gt;Node1 -->
<g id="edge1_Node000001_Node000002" class="edge">
<title>Node2&#45;&gt;Node1</title>
<g id="a_edge1_Node000001_Node000002"><a xlink:title=" ">
<path fill="none" stroke="#9a32cd" stroke-dasharray="5,2" d="M91.5,-55.58C91.5,-43.63 91.5,-28.72 91.5,-19.41"/>
<polygon fill="#9a32cd" stroke="#9a32cd" points="88,-55.87 91.5,-65.87 95,-55.87 88,-55.87"/>
</a>
</g>
<text text-anchor="middle" x="109" y="-40" font-family="Helvetica,sans-Serif" font-size="10.00" fill="grey"> param</text>
</g>
<!-- Node3 -->
<g id="Node000003" class="node">
<title>Node3</title>
<g id="a_Node000003"><a xlink:href="structodp__schedule__param__t.html" target="_top" xlink:title="Scheduler parameters.">
<polygon fill="white" stroke="#666666" points="129,-151 0,-151 0,-132 129,-132 129,-151"/>
<text text-anchor="middle" x="64.5" y="-139" font-family="Helvetica,sans-Serif" font-size="10.00">odp_schedule_param_t</text>
</a>
</g>
</g>
<!-- Node3&#45;&gt;Node2 -->
<g id="edge2_Node000002_Node000003" class="edge">
<title>Node3&#45;&gt;Node2</title>
<g id="a_edge2_Node000002_Node000003"><a xlink:title=" ">
<path fill="none" stroke="#9a32cd" stroke-dasharray="5,2" d="M72.17,-122.32C77.27,-110.24 83.73,-94.91 87.74,-85.41"/>
<polygon fill="#9a32cd" stroke="#9a32cd" points="68.8,-121.29 68.14,-131.87 75.25,-124.02 68.8,-121.29"/>
</a>
</g>
<text text-anchor="middle" x="96.5" y="-106" font-family="Helvetica,sans-Serif" font-size="10.00" fill="grey"> sched</text>
</g>
<!-- Node4 -->
<g id="Node000004" class="node">
<title>Node4</title>
<g id="a_Node000004"><a xlink:href="structodp__event__aggr__config__t.html" target="_top" xlink:title="Event vector configuration.">
<polygon fill="white" stroke="#666666" points="285.5,-151 147.5,-151 147.5,-132 285.5,-132 285.5,-151"/>
<text text-anchor="middle" x="216.5" y="-139" font-family="Helvetica,sans-Serif" font-size="10.00">odp_event_aggr_config_t</text>
</a>
</g>
</g>
<!-- Node4&#45;&gt;Node2 -->
<g id="edge3_Node000002_Node000004" class="edge">
<title>Node4&#45;&gt;Node2</title>
<g id="a_edge3_Node000002_Node000004"><a xlink:title=" ">
<path fill="none" stroke="#9a32cd" stroke-dasharray="5,2" d="M190.51,-127.19C165.89,-114.59 129.61,-96.01 108.49,-85.2"/>
<polygon fill="#9a32cd" stroke="#9a32cd" points="189.15,-130.43 199.64,-131.87 192.34,-124.2 189.15,-130.43"/>
</a>
</g>
<text text-anchor="middle" x="173" y="-106" font-family="Helvetica,sans-Serif" font-size="10.00" fill="grey"> aggr</text>
</g>
<!-- Node5 -->
<g id="Node000005" class="node">
<title>Node5</title>
<g id="a_Node000005"><a xlink:href="struct__odp__abi__pool__t.html" target="_top" xlink:title=" ">
<polygon fill="white" stroke="#666666" points="264,-217 169,-217 169,-198 264,-198 264,-217"/>
<text text-anchor="middle" x="216.5" y="-205" font-family="Helvetica,sans-Serif" font-size="10.00">_odp_abi_pool_t</text>
</a>
</g>
</g>
<!-- Node5&#45;&gt;Node4 -->
<g id="edge4_Node000004_Node000005" class="edge">
<title>Node5&#45;&gt;Node4</title>
<g id="a_edge4_Node000004_Node000005"><a xlink:title=" ">
<path fill="none" stroke="#9a32cd" stroke-dasharray="5,2" d="M216.5,-187.58C216.5,-175.63 216.5,-160.72 216.5,-151.41"/>
<polygon fill="#9a32cd" stroke="#9a32cd" points="213,-187.87 216.5,-197.87 220,-187.87 213,-187.87"/>
</a>
</g>
<text text-anchor="middle" x="229" y="-172" font-family="Helvetica,sans-Serif" font-size="10.00" fill="grey"> pool</text>
</g>
</g>
</svg>
