<?xml version="1.0" encoding="UTF-8" standalone="no"?>
<!DOCTYPE svg PUBLIC "-//W3C//DTD SVG 1.1//EN"
 "http://www.w3.org/Graphics/SVG/1.1/DTD/svg11.dtd">
<!-- Generated by graphviz version 2.43.0 (0)
 -->
<!-- Title: thread_types.h Pages: 1 -->
<svg width="1680pt" height="368pt"
 viewBox="0.00 0.00 1679.50 368.00" xmlns="http://www.w3.org/2000/svg" xmlns:xlink="http://www.w3.org/1999/xlink">
<g id="graph0" class="graph" transform="scale(1 1) rotate(0) translate(4 364)">
<title>thread_types.h</title>
<!-- Node1 -->
<g id="Node000001" class="node">
<title>Node1</title>
<g id="a_Node000001"><a xlink:title="ODP thread.">
<polygon fill="#999999" stroke="#666666" points="961,-360 872,-360 872,-341 961,-341 961,-360"/>
<text text-anchor="middle" x="916.5" y="-348" font-family="Helvetica,sans-Serif" font-size="10.00">thread_types.h</text>
</a>
</g>
</g>
<!-- Node2 -->
<g id="Node000002" class="node">
<title>Node2</title>
<g id="a_Node000002"><a xlink:href="spec_2init_8h.html" target="_top" xlink:title=" ">
<polygon fill="white" stroke="#666666" points="844,-305 803,-305 803,-286 844,-286 844,-305"/>
<text text-anchor="middle" x="823.5" y="-293" font-family="Helvetica,sans-Serif" font-size="10.00">init.h</text>
</a>
</g>
</g>
<!-- Node1&#45;&gt;Node2 -->
<g id="edge1_Node000001_Node000002" class="edge">
<title>Node1&#45;&gt;Node2</title>
<g id="a_edge1_Node000001_Node000002"><a xlink:title=" ">
<path fill="none" stroke="#63b8ff" d="M892.75,-335.97C875.75,-326.28 853.37,-313.52 838.71,-305.17"/>
<polygon fill="#63b8ff" stroke="#63b8ff" points="891.14,-339.07 901.56,-340.98 894.6,-332.99 891.14,-339.07"/>
</a>
</g>
</g>
<!-- Node19 -->
<g id="Node000019" class="node">
<title>Node19</title>
<g id="a_Node000019"><a xlink:href="thread__inline__types_8h_source.html" target="_top" xlink:title=" ">
<polygon fill="white" stroke="#666666" points="911.5,-195 789.5,-195 789.5,-176 911.5,-176 911.5,-195"/>
<text text-anchor="middle" x="850.5" y="-183" font-family="Helvetica,sans-Serif" font-size="10.00">thread_inline_types.h</text>
</a>
</g>
</g>
<!-- Node1&#45;&gt;Node19 -->
<g id="edge30_Node000001_Node000019" class="edge">
<title>Node1&#45;&gt;Node19</title>
<g id="a_edge30_Node000001_Node000019"><a xlink:title=" ">
<path fill="none" stroke="#63b8ff" d="M909.12,-331.28C894.97,-296.32 864.47,-221.01 854.07,-195.31"/>
<polygon fill="#63b8ff" stroke="#63b8ff" points="905.95,-332.78 912.95,-340.74 912.44,-330.15 905.95,-332.78"/>
</a>
</g>
</g>
<!-- Node20 -->
<g id="Node000020" class="node">
<title>Node20</title>
<g id="a_Node000020"><a xlink:href="thread__inlines_8h_source.html" target="_top" xlink:title=" ">
<polygon fill="white" stroke="#666666" points="963,-140 868,-140 868,-121 963,-121 963,-140"/>
<text text-anchor="middle" x="915.5" y="-128" font-family="Helvetica,sans-Serif" font-size="10.00">thread_inlines.h</text>
</a>
</g>
</g>
<!-- Node1&#45;&gt;Node20 -->
<g id="edge31_Node000001_Node000020" class="edge">
<title>Node1&#45;&gt;Node20</title>
<g id="a_edge31_Node000001_Node000020"><a xlink:title=" ">
<path fill="none" stroke="#63b8ff" d="M917.9,-330.76C920.06,-298.92 923.65,-232.26 920.5,-176 919.8,-163.43 917.98,-148.95 916.74,-140.01"/>
<polygon fill="#63b8ff" stroke="#63b8ff" points="914.4,-330.6 917.18,-340.83 921.39,-331.1 914.4,-330.6"/>
</a>
</g>
</g>
<!-- Node21 -->
<g id="Node000021" class="node">
<title>Node21</title>
<g id="a_Node000021"><a xlink:href="spec_2thread_8h.html" target="_top" xlink:title="ODP thread API.">
<polygon fill="white" stroke="#666666" points="1226,-305 1169,-305 1169,-286 1226,-286 1226,-305"/>
<text text-anchor="middle" x="1197.5" y="-293" font-family="Helvetica,sans-Serif" font-size="10.00">thread.h</text>
</a>
</g>
</g>
<!-- Node1&#45;&gt;Node21 -->
<g id="edge21_Node000001_Node000021" class="edge">
<title>Node1&#45;&gt;Node21</title>
<g id="a_edge21_Node000001_Node000021"><a xlink:title=" ">
<path fill="none" stroke="#63b8ff" d="M970.93,-339.23C1030.03,-328.09 1122.16,-310.71 1168.63,-301.95"/>
<polygon fill="#63b8ff" stroke="#63b8ff" points="970.2,-335.81 961.03,-341.1 971.5,-342.69 970.2,-335.81"/>
</a>
</g>
</g>
<!-- Node3 -->
<g id="Node000003" class="node">
<title>Node3</title>
<g id="a_Node000003"><a xlink:href="init_8h.html" target="_top" xlink:title="ODP initialization.">
<polygon fill="white" stroke="#666666" points="824,-250 783,-250 783,-231 824,-231 824,-250"/>
<text text-anchor="middle" x="803.5" y="-238" font-family="Helvetica,sans-Serif" font-size="10.00">init.h</text>
</a>
</g>
</g>
<!-- Node2&#45;&gt;Node3 -->
<g id="edge2_Node000002_Node000003" class="edge">
<title>Node2&#45;&gt;Node3</title>
<g id="a_edge2_Node000002_Node000003"><a xlink:title=" ">
<path fill="none" stroke="#63b8ff" d="M816.61,-276.24C813.26,-267.37 809.4,-257.14 806.74,-250.09"/>
<polygon fill="#63b8ff" stroke="#63b8ff" points="813.39,-277.63 820.2,-285.75 819.94,-275.16 813.39,-277.63"/>
</a>
</g>
</g>
<!-- Node4 -->
<g id="Node000004" class="node">
<title>Node4</title>
<g id="a_Node000004"><a xlink:href="debug__inlines_8h.html" target="_top" xlink:title="ODP Debug inlines.">
<polygon fill="white" stroke="#666666" points="826,-140 733,-140 733,-121 826,-121 826,-140"/>
<text text-anchor="middle" x="779.5" y="-128" font-family="Helvetica,sans-Serif" font-size="10.00">debug_inlines.h</text>
</a>
</g>
</g>
<!-- Node3&#45;&gt;Node4 -->
<g id="edge3_Node000003_Node000004" class="edge">
<title>Node3&#45;&gt;Node4</title>
<g id="a_edge3_Node000003_Node000004"><a xlink:title=" ">
<path fill="none" stroke="#63b8ff" d="M792.15,-222.14C787.6,-214.2 782.88,-204.47 780.5,-195 775.71,-175.97 777.1,-152.7 778.39,-140.29"/>
<polygon fill="#63b8ff" stroke="#63b8ff" points="789.24,-224.08 797.44,-230.79 795.21,-220.43 789.24,-224.08"/>
</a>
</g>
</g>
<!-- Node17 -->
<g id="Node000017" class="node">
<title>Node17</title>
<g id="a_Node000017"><a xlink:href="spec_2shared__memory_8h.html" target="_top" xlink:title="ODP shared memory.">
<polygon fill="white" stroke="#666666" points="724.5,-195 620.5,-195 620.5,-176 724.5,-176 724.5,-195"/>
<text text-anchor="middle" x="672.5" y="-183" font-family="Helvetica,sans-Serif" font-size="10.00">shared_memory.h</text>
</a>
</g>
</g>
<!-- Node3&#45;&gt;Node17 -->
<g id="edge16_Node000003_Node000017" class="edge">
<title>Node3&#45;&gt;Node17</title>
<g id="a_edge16_Node000003_Node000017"><a xlink:title=" ">
<path fill="none" stroke="#63b8ff" d="M773.24,-227.26C748.84,-217.39 715.15,-203.76 693.59,-195.03"/>
<polygon fill="#63b8ff" stroke="#63b8ff" points="772.16,-230.6 782.74,-231.1 774.79,-224.11 772.16,-230.6"/>
</a>
</g>
</g>
<!-- Node3&#45;&gt;Node19 -->
<g id="edge18_Node000003_Node000019" class="edge">
<title>Node3&#45;&gt;Node19</title>
<g id="a_edge18_Node000003_Node000019"><a xlink:title=" ">
<path fill="none" stroke="#63b8ff" d="M817.92,-223.24C826.16,-213.95 836.15,-202.68 842.88,-195.09"/>
<polygon fill="#63b8ff" stroke="#63b8ff" points="815.28,-220.94 811.26,-230.75 820.51,-225.59 815.28,-220.94"/>
</a>
</g>
</g>
<!-- Node5 -->
<g id="Node000005" class="node">
<title>Node5</title>
<g id="a_Node000005"><a xlink:href="buffer__inlines_8h_source.html" target="_top" xlink:title=" ">
<polygon fill="white" stroke="#666666" points="1050.5,-79.5 958.5,-79.5 958.5,-60.5 1050.5,-60.5 1050.5,-79.5"/>
<text text-anchor="middle" x="1004.5" y="-67.5" font-family="Helvetica,sans-Serif" font-size="10.00">buffer_inlines.h</text>
</a>
</g>
</g>
<!-- Node4&#45;&gt;Node5 -->
<g id="edge4_Node000004_Node000005" class="edge">
<title>Node4&#45;&gt;Node5</title>
<g id="a_edge4_Node000004_Node000005"><a xlink:title=" ">
<path fill="none" stroke="#63b8ff" d="M821.94,-118.47C865.43,-107.16 932.15,-89.81 971.74,-79.52"/>
<polygon fill="#63b8ff" stroke="#63b8ff" points="821.01,-115.09 812.22,-120.99 822.78,-121.86 821.01,-115.09"/>
</a>
</g>
</g>
<!-- Node6 -->
<g id="Node000006" class="node">
<title>Node6</title>
<g id="a_Node000006"><a xlink:href="crypto__inlines_8h_source.html" target="_top" xlink:title=" ">
<polygon fill="white" stroke="#666666" points="1162.5,-79.5 1068.5,-79.5 1068.5,-60.5 1162.5,-60.5 1162.5,-79.5"/>
<text text-anchor="middle" x="1115.5" y="-67.5" font-family="Helvetica,sans-Serif" font-size="10.00">crypto_inlines.h</text>
</a>
</g>
</g>
<!-- Node4&#45;&gt;Node6 -->
<g id="edge5_Node000004_Node000006" class="edge">
<title>Node4&#45;&gt;Node6</title>
<g id="a_edge5_Node000004_Node000006"><a xlink:title=" ">
<path fill="none" stroke="#63b8ff" d="M836.5,-121.93C893.27,-114.04 982.77,-100.66 1059.5,-85 1067.26,-83.42 1075.56,-81.48 1083.33,-79.55"/>
<polygon fill="#63b8ff" stroke="#63b8ff" points="835.72,-118.5 826.3,-123.34 836.68,-125.44 835.72,-118.5"/>
</a>
</g>
</g>
<!-- Node7 -->
<g id="Node000007" class="node">
<title>Node7</title>
<g id="a_Node000007"><a xlink:href="dma__inlines_8h_source.html" target="_top" xlink:title=" ">
<polygon fill="white" stroke="#666666" points="85,-79.5 0,-79.5 0,-60.5 85,-60.5 85,-79.5"/>
<text text-anchor="middle" x="42.5" y="-67.5" font-family="Helvetica,sans-Serif" font-size="10.00">dma_inlines.h</text>
</a>
</g>
</g>
<!-- Node4&#45;&gt;Node7 -->
<g id="edge6_Node000004_Node000007" class="edge">
<title>Node4&#45;&gt;Node7</title>
<g id="a_edge6_Node000004_Node000007"><a xlink:title=" ">
<path fill="none" stroke="#63b8ff" d="M722.75,-121.04C442.79,-92.81 367.02,-129.84 93.5,-85 85.62,-83.71 77.2,-81.68 69.53,-79.56"/>
<polygon fill="#63b8ff" stroke="#63b8ff" points="722.49,-124.54 732.79,-122.08 723.2,-117.57 722.49,-124.54"/>
</a>
</g>
</g>
<!-- Node8 -->
<g id="Node000008" class="node">
<title>Node8</title>
<g id="a_Node000008"><a xlink:href="event__inlines_8h_source.html" target="_top" xlink:title=" ">
<polygon fill="white" stroke="#666666" points="194,-79.5 103,-79.5 103,-60.5 194,-60.5 194,-79.5"/>
<text text-anchor="middle" x="148.5" y="-67.5" font-family="Helvetica,sans-Serif" font-size="10.00">event_inlines.h</text>
</a>
</g>
</g>
<!-- Node4&#45;&gt;Node8 -->
<g id="edge7_Node000004_Node000008" class="edge">
<title>Node4&#45;&gt;Node8</title>
<g id="a_edge7_Node000004_Node000008"><a xlink:title=" ">
<path fill="none" stroke="#63b8ff" d="M722.7,-121.02C491.02,-96.31 428.35,-121.76 202.5,-85 194.28,-83.66 185.49,-81.64 177.44,-79.55"/>
<polygon fill="#63b8ff" stroke="#63b8ff" points="722.47,-124.52 732.79,-122.12 723.22,-117.56 722.47,-124.52"/>
</a>
</g>
</g>
<!-- Node9 -->
<g id="Node000009" class="node">
<title>Node9</title>
<g id="a_Node000009"><a xlink:href="event__vector__inlines_8h.html" target="_top" xlink:title="Event vector inline functions.">
<polygon fill="white" stroke="#666666" points="339,-79.5 212,-79.5 212,-60.5 339,-60.5 339,-79.5"/>
<text text-anchor="middle" x="275.5" y="-67.5" font-family="Helvetica,sans-Serif" font-size="10.00">event_vector_inlines.h</text>
</a>
</g>
</g>
<!-- Node4&#45;&gt;Node9 -->
<g id="edge8_Node000004_Node000009" class="edge">
<title>Node4&#45;&gt;Node9</title>
<g id="a_edge8_Node000004_Node000009"><a xlink:title=" ">
<path fill="none" stroke="#63b8ff" d="M722.62,-120.97C555.16,-100.72 510.4,-108.58 347.5,-85 337.17,-83.5 326.06,-81.53 315.75,-79.54"/>
<polygon fill="#63b8ff" stroke="#63b8ff" points="722.42,-124.47 732.78,-122.21 723.28,-117.52 722.42,-124.47"/>
</a>
</g>
</g>
<!-- Node10 -->
<g id="Node000010" class="node">
<title>Node10</title>
<g id="a_Node000010"><a xlink:href="ipsec__inlines_8h_source.html" target="_top" xlink:title=" ">
<polygon fill="white" stroke="#666666" points="446,-79.5 357,-79.5 357,-60.5 446,-60.5 446,-79.5"/>
<text text-anchor="middle" x="401.5" y="-67.5" font-family="Helvetica,sans-Serif" font-size="10.00">ipsec_inlines.h</text>
</a>
</g>
</g>
<!-- Node4&#45;&gt;Node10 -->
<g id="edge9_Node000004_Node000010" class="edge">
<title>Node4&#45;&gt;Node10</title>
<g id="a_edge9_Node000004_Node000010"><a xlink:title=" ">
<path fill="none" stroke="#63b8ff" d="M722.78,-120.93C602.38,-104.17 569.7,-107.83 454.5,-85 446.84,-83.48 438.66,-81.5 431.06,-79.51"/>
<polygon fill="#63b8ff" stroke="#63b8ff" points="722.37,-124.41 732.76,-122.34 723.35,-117.48 722.37,-124.41"/>
</a>
</g>
</g>
<!-- Node11 -->
<g id="Node000011" class="node">
<title>Node11</title>
<g id="a_Node000011"><a xlink:href="packet__inlines_8h.html" target="_top" xlink:title="ODP packet inline functions.">
<polygon fill="white" stroke="#666666" points="559,-79.5 464,-79.5 464,-60.5 559,-60.5 559,-79.5"/>
<text text-anchor="middle" x="511.5" y="-67.5" font-family="Helvetica,sans-Serif" font-size="10.00">packet_inlines.h</text>
</a>
</g>
</g>
<!-- Node4&#45;&gt;Node11 -->
<g id="edge10_Node000004_Node000011" class="edge">
<title>Node4&#45;&gt;Node11</title>
<g id="a_edge10_Node000004_Node000011"><a xlink:title=" ">
<path fill="none" stroke="#63b8ff" d="M726.41,-118.94C683.45,-110.25 621.45,-97.4 567.5,-85 560.08,-83.29 552.13,-81.37 544.61,-79.5"/>
<polygon fill="#63b8ff" stroke="#63b8ff" points="725.86,-122.4 736.36,-120.94 727.24,-115.54 725.86,-122.4"/>
</a>
</g>
</g>
<!-- Node12 -->
<g id="Node000012" class="node">
<title>Node12</title>
<g id="a_Node000012"><a xlink:href="packet__vector__inlines_8h.html" target="_top" xlink:title="Packet vector inline functions.">
<polygon fill="white" stroke="#666666" points="708,-79.5 577,-79.5 577,-60.5 708,-60.5 708,-79.5"/>
<text text-anchor="middle" x="642.5" y="-67.5" font-family="Helvetica,sans-Serif" font-size="10.00">packet_vector_inlines.h</text>
</a>
</g>
</g>
<!-- Node4&#45;&gt;Node12 -->
<g id="edge11_Node000004_Node000012" class="edge">
<title>Node4&#45;&gt;Node12</title>
<g id="a_edge11_Node000004_Node000012"><a xlink:title=" ">
<path fill="none" stroke="#63b8ff" d="M750.07,-116.93C723.62,-105.64 685.49,-89.36 662.45,-79.52"/>
<polygon fill="#63b8ff" stroke="#63b8ff" points="749.01,-120.29 759.58,-120.99 751.76,-113.85 749.01,-120.29"/>
</a>
</g>
</g>
<!-- Node13 -->
<g id="Node000013" class="node">
<title>Node13</title>
<g id="a_Node000013"><a xlink:href="rwlock__recursive__inlines_8h_source.html" target="_top" xlink:title=" ">
<polygon fill="white" stroke="#666666" points="1326.5,-79.5 1180.5,-79.5 1180.5,-60.5 1326.5,-60.5 1326.5,-79.5"/>
<text text-anchor="middle" x="1253.5" y="-67.5" font-family="Helvetica,sans-Serif" font-size="10.00">rwlock_recursive_inlines.h</text>
</a>
</g>
</g>
<!-- Node4&#45;&gt;Node13 -->
<g id="edge12_Node000004_Node000013" class="edge">
<title>Node4&#45;&gt;Node13</title>
<g id="a_edge12_Node000004_Node000013"><a xlink:title=" ">
<path fill="none" stroke="#63b8ff" d="M836.14,-123.47C928.64,-113.55 1108.18,-93.99 1171.5,-85 1182.8,-83.4 1194.93,-81.45 1206.31,-79.52"/>
<polygon fill="#63b8ff" stroke="#63b8ff" points="835.68,-120 826.11,-124.54 836.43,-126.96 835.68,-120"/>
</a>
</g>
</g>
<!-- Node14 -->
<g id="Node000014" class="node">
<title>Node14</title>
<g id="a_Node000014"><a xlink:href="schedule__inlines_8h_source.html" target="_top" xlink:title=" ">
<polygon fill="white" stroke="#666666" points="833,-79.5 726,-79.5 726,-60.5 833,-60.5 833,-79.5"/>
<text text-anchor="middle" x="779.5" y="-67.5" font-family="Helvetica,sans-Serif" font-size="10.00">schedule_inlines.h</text>
</a>
</g>
</g>
<!-- Node4&#45;&gt;Node14 -->
<g id="edge13_Node000004_Node000014" class="edge">
<title>Node4&#45;&gt;Node14</title>
<g id="a_edge13_Node000004_Node000014"><a xlink:title=" ">
<path fill="none" stroke="#63b8ff" d="M779.5,-110.66C779.5,-100.24 779.5,-87.8 779.5,-79.67"/>
<polygon fill="#63b8ff" stroke="#63b8ff" points="776,-110.87 779.5,-120.87 783,-110.87 776,-110.87"/>
</a>
</g>
</g>
<!-- Node15 -->
<g id="Node000015" class="node">
<title>Node15</title>
<g id="a_Node000015"><a xlink:href="spinlock__recursive__inlines_8h_source.html" target="_top" xlink:title=" ">
<polygon fill="white" stroke="#666666" points="1452,-85 1345,-85 1345,-55 1452,-55 1452,-85"/>
<text text-anchor="start" x="1353" y="-73" font-family="Helvetica,sans-Serif" font-size="10.00">spinlock_recursive</text>
<text text-anchor="middle" x="1398.5" y="-62" font-family="Helvetica,sans-Serif" font-size="10.00">_inlines.h</text>
</a>
</g>
</g>
<!-- Node4&#45;&gt;Node15 -->
<g id="edge14_Node000004_Node000015" class="edge">
<title>Node4&#45;&gt;Node15</title>
<g id="a_edge14_Node000004_Node000015"><a xlink:title=" ">
<path fill="none" stroke="#63b8ff" d="M836.19,-123.26C844.02,-122.46 851.96,-121.69 859.5,-121 1070.79,-101.79 1125.63,-116.09 1335.5,-85 1338.6,-84.54 1341.78,-84.01 1344.98,-83.44"/>
<polygon fill="#63b8ff" stroke="#63b8ff" points="835.59,-119.8 826.01,-124.32 836.32,-126.77 835.59,-119.8"/>
</a>
</g>
</g>
<!-- Node16 -->
<g id="Node000016" class="node">
<title>Node16</title>
<g id="a_Node000016"><a xlink:href="timer__inlines_8h_source.html" target="_top" xlink:title=" ">
<polygon fill="white" stroke="#666666" points="940,-79.5 851,-79.5 851,-60.5 940,-60.5 940,-79.5"/>
<text text-anchor="middle" x="895.5" y="-67.5" font-family="Helvetica,sans-Serif" font-size="10.00">timer_inlines.h</text>
</a>
</g>
</g>
<!-- Node4&#45;&gt;Node16 -->
<g id="edge15_Node000004_Node000016" class="edge">
<title>Node4&#45;&gt;Node16</title>
<g id="a_edge15_Node000004_Node000016"><a xlink:title=" ">
<path fill="none" stroke="#63b8ff" d="M805.82,-116.23C828.03,-105.03 859.18,-89.32 878.31,-79.67"/>
<polygon fill="#63b8ff" stroke="#63b8ff" points="803.97,-113.24 796.62,-120.87 807.12,-119.49 803.97,-113.24"/>
</a>
</g>
</g>
<!-- Node18 -->
<g id="Node000018" class="node">
<title>Node18</title>
<g id="a_Node000018"><a xlink:href="shared__memory_8h.html" target="_top" xlink:title="ODP shared memory.">
<polygon fill="white" stroke="#666666" points="714.5,-140 610.5,-140 610.5,-121 714.5,-121 714.5,-140"/>
<text text-anchor="middle" x="662.5" y="-128" font-family="Helvetica,sans-Serif" font-size="10.00">shared_memory.h</text>
</a>
</g>
</g>
<!-- Node17&#45;&gt;Node18 -->
<g id="edge17_Node000017_Node000018" class="edge">
<title>Node17&#45;&gt;Node18</title>
<g id="a_edge17_Node000017_Node000018"><a xlink:title=" ">
<path fill="none" stroke="#63b8ff" d="M668.95,-165.66C667.3,-156.93 665.42,-146.99 664.12,-140.09"/>
<polygon fill="#63b8ff" stroke="#63b8ff" points="665.56,-166.57 670.85,-175.75 672.43,-165.27 665.56,-166.57"/>
</a>
</g>
</g>
<!-- Node19&#45;&gt;Node4 -->
<g id="edge19_Node000019_Node000004" class="edge">
<title>Node19&#45;&gt;Node4</title>
<g id="a_edge19_Node000019_Node000004"><a xlink:title=" ">
<path fill="none" stroke="#63b8ff" d="M830.91,-169.88C818.13,-160.34 801.89,-148.21 791.11,-140.17"/>
<polygon fill="#63b8ff" stroke="#63b8ff" points="828.99,-172.81 839.09,-175.98 833.17,-167.2 828.99,-172.81"/>
</a>
</g>
</g>
<!-- Node19&#45;&gt;Node20 -->
<g id="edge20_Node000019_Node000020" class="edge">
<title>Node19&#45;&gt;Node20</title>
<g id="a_edge20_Node000019_Node000020"><a xlink:title=" ">
<path fill="none" stroke="#63b8ff" d="M868.77,-169.6C880.42,-160.11 895.1,-148.13 904.87,-140.17"/>
<polygon fill="#63b8ff" stroke="#63b8ff" points="866.48,-166.95 860.94,-175.98 870.91,-172.38 866.48,-166.95"/>
</a>
</g>
</g>
<!-- Node22 -->
<g id="Node000022" class="node">
<title>Node22</title>
<g id="a_Node000022"><a xlink:href="thread_8h.html" target="_top" xlink:title="ODP thread API.">
<polygon fill="white" stroke="#666666" points="1427,-140 1370,-140 1370,-121 1427,-121 1427,-140"/>
<text text-anchor="middle" x="1398.5" y="-128" font-family="Helvetica,sans-Serif" font-size="10.00">thread.h</text>
</a>
</g>
</g>
<!-- Node21&#45;&gt;Node22 -->
<g id="edge22_Node000021_Node000022" class="edge">
<title>Node21&#45;&gt;Node22</title>
<g id="a_edge22_Node000021_Node000022"><a xlink:title=" ">
<path fill="none" stroke="#63b8ff" d="M1215.86,-279.61C1256.86,-246.36 1354.8,-166.94 1387.59,-140.34"/>
<polygon fill="#63b8ff" stroke="#63b8ff" points="1213.59,-276.95 1208.02,-285.97 1218,-282.39 1213.59,-276.95"/>
</a>
</g>
</g>
<!-- Node22&#45;&gt;Node13 -->
<g id="edge28_Node000022_Node000013" class="edge">
<title>Node22&#45;&gt;Node13</title>
<g id="a_edge28_Node000022_Node000013"><a xlink:title=" ">
<path fill="none" stroke="#63b8ff" d="M1368.09,-117.23C1340.07,-105.92 1299.21,-89.44 1274.61,-79.52"/>
<polygon fill="#63b8ff" stroke="#63b8ff" points="1366.83,-120.5 1377.42,-120.99 1369.45,-114.01 1366.83,-120.5"/>
</a>
</g>
</g>
<!-- Node22&#45;&gt;Node15 -->
<g id="edge29_Node000022_Node000015" class="edge">
<title>Node22&#45;&gt;Node15</title>
<g id="a_edge29_Node000022_Node000015"><a xlink:title=" ">
<path fill="none" stroke="#63b8ff" d="M1398.5,-110.65C1398.5,-102.36 1398.5,-92.78 1398.5,-85.11"/>
<polygon fill="#63b8ff" stroke="#63b8ff" points="1395,-110.87 1398.5,-120.87 1402,-110.87 1395,-110.87"/>
</a>
</g>
</g>
<!-- Node23 -->
<g id="Node000023" class="node">
<title>Node23</title>
<g id="a_Node000023"><a xlink:href="cpu_8h.html" target="_top" xlink:title="ODP CPU.">
<polygon fill="white" stroke="#666666" points="1513,-79.5 1470,-79.5 1470,-60.5 1513,-60.5 1513,-79.5"/>
<text text-anchor="middle" x="1491.5" y="-67.5" font-family="Helvetica,sans-Serif" font-size="10.00">cpu.h</text>
</a>
</g>
</g>
<!-- Node22&#45;&gt;Node23 -->
<g id="edge23_Node000022_Node000023" class="edge">
<title>Node22&#45;&gt;Node23</title>
<g id="a_edge23_Node000022_Node000023"><a xlink:title=" ">
<path fill="none" stroke="#63b8ff" d="M1420.81,-115.47C1438.52,-104.32 1462.72,-89.1 1477.72,-79.67"/>
<polygon fill="#63b8ff" stroke="#63b8ff" points="1418.82,-112.58 1412.22,-120.87 1422.55,-118.51 1418.82,-112.58"/>
</a>
</g>
</g>
<!-- Node27 -->
<g id="Node000027" class="node">
<title>Node27</title>
<g id="a_Node000027"><a xlink:href="abi-default_2rwlock__recursive_8h.html" target="_top" xlink:title="ODP recursive read/write lock.">
<polygon fill="white" stroke="#666666" points="1639.5,-79.5 1531.5,-79.5 1531.5,-60.5 1639.5,-60.5 1639.5,-79.5"/>
<text text-anchor="middle" x="1585.5" y="-67.5" font-family="Helvetica,sans-Serif" font-size="10.00">rwlock_recursive.h</text>
</a>
</g>
</g>
<!-- Node22&#45;&gt;Node27 -->
<g id="edge27_Node000022_Node000027" class="edge">
<title>Node22&#45;&gt;Node27</title>
<g id="a_edge27_Node000022_Node000027"><a xlink:title=" ">
<path fill="none" stroke="#63b8ff" d="M1435.38,-117.96C1471.55,-106.65 1525.85,-89.66 1558.28,-79.52"/>
<polygon fill="#63b8ff" stroke="#63b8ff" points="1434.19,-114.67 1425.69,-120.99 1436.28,-121.35 1434.19,-114.67"/>
</a>
</g>
</g>
<!-- Node24 -->
<g id="Node000024" class="node">
<title>Node24</title>
<g id="a_Node000024"><a xlink:href="rwlock__inlines_8h_source.html" target="_top" xlink:title=" ">
<polygon fill="white" stroke="#666666" points="1421,-19 1326,-19 1326,0 1421,0 1421,-19"/>
<text text-anchor="middle" x="1373.5" y="-7" font-family="Helvetica,sans-Serif" font-size="10.00">rwlock_inlines.h</text>
</a>
</g>
</g>
<!-- Node23&#45;&gt;Node24 -->
<g id="edge24_Node000023_Node000024" class="edge">
<title>Node23&#45;&gt;Node24</title>
<g id="a_edge24_Node000023_Node000024"><a xlink:title=" ">
<path fill="none" stroke="#63b8ff" d="M1465.24,-55.98C1442.5,-44.71 1410.26,-28.73 1390.68,-19.02"/>
<polygon fill="#63b8ff" stroke="#63b8ff" points="1463.83,-59.19 1474.34,-60.49 1466.94,-52.92 1463.83,-59.19"/>
</a>
</g>
</g>
<!-- Node25 -->
<g id="Node000025" class="node">
<title>Node25</title>
<g id="a_Node000025"><a xlink:href="spinlock__inlines_8h_source.html" target="_top" xlink:title=" ">
<polygon fill="white" stroke="#666666" points="1543.5,-19 1439.5,-19 1439.5,0 1543.5,0 1543.5,-19"/>
<text text-anchor="middle" x="1491.5" y="-7" font-family="Helvetica,sans-Serif" font-size="10.00">spinlock_inlines.h</text>
</a>
</g>
</g>
<!-- Node23&#45;&gt;Node25 -->
<g id="edge25_Node000023_Node000025" class="edge">
<title>Node23&#45;&gt;Node25</title>
<g id="a_edge25_Node000023_Node000025"><a xlink:title=" ">
<path fill="none" stroke="#63b8ff" d="M1491.5,-50.16C1491.5,-39.74 1491.5,-27.3 1491.5,-19.17"/>
<polygon fill="#63b8ff" stroke="#63b8ff" points="1488,-50.37 1491.5,-60.37 1495,-50.37 1488,-50.37"/>
</a>
</g>
</g>
<!-- Node26 -->
<g id="Node000026" class="node">
<title>Node26</title>
<g id="a_Node000026"><a xlink:href="ticketlock__inlines_8h_source.html" target="_top" xlink:title=" ">
<polygon fill="white" stroke="#666666" points="1671.5,-19 1561.5,-19 1561.5,0 1671.5,0 1671.5,-19"/>
<text text-anchor="middle" x="1616.5" y="-7" font-family="Helvetica,sans-Serif" font-size="10.00">ticketlock_inlines.h</text>
</a>
</g>
</g>
<!-- Node23&#45;&gt;Node26 -->
<g id="edge26_Node000023_Node000026" class="edge">
<title>Node23&#45;&gt;Node26</title>
<g id="a_edge26_Node000023_Node000026"><a xlink:title=" ">
<path fill="none" stroke="#63b8ff" d="M1518.99,-56.13C1543.1,-44.85 1577.46,-28.77 1598.3,-19.02"/>
<polygon fill="#63b8ff" stroke="#63b8ff" points="1517.25,-53.08 1509.68,-60.49 1520.22,-59.42 1517.25,-53.08"/>
</a>
</g>
</g>
</g>
</svg>
