<?xml version="1.0" encoding="UTF-8" standalone="no"?>
<!DOCTYPE svg PUBLIC "-//W3C//DTD SVG 1.1//EN"
 "http://www.w3.org/Graphics/SVG/1.1/DTD/svg11.dtd">
<!-- Generated by graphviz version 2.43.0 (0)
 -->
<!-- Title: thread_types.h Pages: 1 -->
<svg width="1918pt" height="368pt"
 viewBox="0.00 0.00 1918.00 368.00" xmlns="http://www.w3.org/2000/svg" xmlns:xlink="http://www.w3.org/1999/xlink">
<g id="graph0" class="graph" transform="scale(1 1) rotate(0) translate(4 364)">
<title>thread_types.h</title>
<!-- Node1 -->
<g id="Node000001" class="node">
<title>Node1</title>
<g id="a_Node000001"><a xlink:title="ODP thread.">
<polygon fill="#999999" stroke="#666666" points="1001.5,-360 912.5,-360 912.5,-341 1001.5,-341 1001.5,-360"/>
<text text-anchor="middle" x="957" y="-348" font-family="Helvetica,sans-Serif" font-size="10.00">thread_types.h</text>
</a>
</g>
</g>
<!-- Node2 -->
<g id="Node000002" class="node">
<title>Node2</title>
<g id="a_Node000002"><a xlink:href="spec_2init_8h.html" target="_top" xlink:title=" ">
<polygon fill="white" stroke="#666666" points="884.5,-305 843.5,-305 843.5,-286 884.5,-286 884.5,-305"/>
<text text-anchor="middle" x="864" y="-293" font-family="Helvetica,sans-Serif" font-size="10.00">init.h</text>
</a>
</g>
</g>
<!-- Node1&#45;&gt;Node2 -->
<g id="edge1_Node000001_Node000002" class="edge">
<title>Node1&#45;&gt;Node2</title>
<g id="a_edge1_Node000001_Node000002"><a xlink:title=" ">
<path fill="none" stroke="#63b8ff" d="M933.25,-335.97C916.25,-326.28 893.87,-313.52 879.21,-305.17"/>
<polygon fill="#63b8ff" stroke="#63b8ff" points="931.64,-339.07 942.06,-340.98 935.1,-332.99 931.64,-339.07"/>
</a>
</g>
</g>
<!-- Node20 -->
<g id="Node000020" class="node">
<title>Node20</title>
<g id="a_Node000020"><a xlink:href="thread__inline__types_8h_source.html" target="_top" xlink:title=" ">
<polygon fill="white" stroke="#666666" points="952,-195 830,-195 830,-176 952,-176 952,-195"/>
<text text-anchor="middle" x="891" y="-183" font-family="Helvetica,sans-Serif" font-size="10.00">thread_inline_types.h</text>
</a>
</g>
</g>
<!-- Node1&#45;&gt;Node20 -->
<g id="edge31_Node000001_Node000020" class="edge">
<title>Node1&#45;&gt;Node20</title>
<g id="a_edge31_Node000001_Node000020"><a xlink:title=" ">
<path fill="none" stroke="#63b8ff" d="M949.62,-331.28C935.47,-296.32 904.97,-221.01 894.57,-195.31"/>
<polygon fill="#63b8ff" stroke="#63b8ff" points="946.45,-332.78 953.45,-340.74 952.94,-330.15 946.45,-332.78"/>
</a>
</g>
</g>
<!-- Node21 -->
<g id="Node000021" class="node">
<title>Node21</title>
<g id="a_Node000021"><a xlink:href="thread__inlines_8h_source.html" target="_top" xlink:title=" ">
<polygon fill="white" stroke="#666666" points="1003.5,-140 908.5,-140 908.5,-121 1003.5,-121 1003.5,-140"/>
<text text-anchor="middle" x="956" y="-128" font-family="Helvetica,sans-Serif" font-size="10.00">thread_inlines.h</text>
</a>
</g>
</g>
<!-- Node1&#45;&gt;Node21 -->
<g id="edge32_Node000001_Node000021" class="edge">
<title>Node1&#45;&gt;Node21</title>
<g id="a_edge32_Node000001_Node000021"><a xlink:title=" ">
<path fill="none" stroke="#63b8ff" d="M958.4,-330.76C960.56,-298.92 964.15,-232.26 961,-176 960.3,-163.43 958.48,-148.95 957.24,-140.01"/>
<polygon fill="#63b8ff" stroke="#63b8ff" points="954.9,-330.6 957.68,-340.83 961.89,-331.1 954.9,-330.6"/>
</a>
</g>
</g>
<!-- Node22 -->
<g id="Node000022" class="node">
<title>Node22</title>
<g id="a_Node000022"><a xlink:href="spec_2thread_8h.html" target="_top" xlink:title="ODP thread API.">
<polygon fill="white" stroke="#666666" points="1324.5,-305 1267.5,-305 1267.5,-286 1324.5,-286 1324.5,-305"/>
<text text-anchor="middle" x="1296" y="-293" font-family="Helvetica,sans-Serif" font-size="10.00">thread.h</text>
</a>
</g>
</g>
<!-- Node1&#45;&gt;Node22 -->
<g id="edge22_Node000001_Node000022" class="edge">
<title>Node1&#45;&gt;Node22</title>
<g id="a_edge22_Node000001_Node000022"><a xlink:title=" ">
<path fill="none" stroke="#63b8ff" d="M1011.57,-340.97C1084.35,-329.59 1210.59,-309.85 1267.14,-301.01"/>
<polygon fill="#63b8ff" stroke="#63b8ff" points="1011.01,-337.51 1001.67,-342.52 1012.09,-344.43 1011.01,-337.51"/>
</a>
</g>
</g>
<!-- Node3 -->
<g id="Node000003" class="node">
<title>Node3</title>
<g id="a_Node000003"><a xlink:href="init_8h.html" target="_top" xlink:title="ODP initialization.">
<polygon fill="white" stroke="#666666" points="864.5,-250 823.5,-250 823.5,-231 864.5,-231 864.5,-250"/>
<text text-anchor="middle" x="844" y="-238" font-family="Helvetica,sans-Serif" font-size="10.00">init.h</text>
</a>
</g>
</g>
<!-- Node2&#45;&gt;Node3 -->
<g id="edge2_Node000002_Node000003" class="edge">
<title>Node2&#45;&gt;Node3</title>
<g id="a_edge2_Node000002_Node000003"><a xlink:title=" ">
<path fill="none" stroke="#63b8ff" d="M857.11,-276.24C853.76,-267.37 849.9,-257.14 847.24,-250.09"/>
<polygon fill="#63b8ff" stroke="#63b8ff" points="853.89,-277.63 860.7,-285.75 860.44,-275.16 853.89,-277.63"/>
</a>
</g>
</g>
<!-- Node4 -->
<g id="Node000004" class="node">
<title>Node4</title>
<g id="a_Node000004"><a xlink:href="debug__inlines_8h.html" target="_top" xlink:title="ODP Debug inlines.">
<polygon fill="white" stroke="#666666" points="866.5,-140 773.5,-140 773.5,-121 866.5,-121 866.5,-140"/>
<text text-anchor="middle" x="820" y="-128" font-family="Helvetica,sans-Serif" font-size="10.00">debug_inlines.h</text>
</a>
</g>
</g>
<!-- Node3&#45;&gt;Node4 -->
<g id="edge3_Node000003_Node000004" class="edge">
<title>Node3&#45;&gt;Node4</title>
<g id="a_edge3_Node000003_Node000004"><a xlink:title=" ">
<path fill="none" stroke="#63b8ff" d="M832.65,-222.14C828.1,-214.2 823.38,-204.47 821,-195 816.21,-175.97 817.6,-152.7 818.89,-140.29"/>
<polygon fill="#63b8ff" stroke="#63b8ff" points="829.74,-224.08 837.94,-230.79 835.71,-220.43 829.74,-224.08"/>
</a>
</g>
</g>
<!-- Node18 -->
<g id="Node000018" class="node">
<title>Node18</title>
<g id="a_Node000018"><a xlink:href="spec_2shared__memory_8h.html" target="_top" xlink:title="ODP shared memory.">
<polygon fill="white" stroke="#666666" points="765,-195 661,-195 661,-176 765,-176 765,-195"/>
<text text-anchor="middle" x="713" y="-183" font-family="Helvetica,sans-Serif" font-size="10.00">shared_memory.h</text>
</a>
</g>
</g>
<!-- Node3&#45;&gt;Node18 -->
<g id="edge17_Node000003_Node000018" class="edge">
<title>Node3&#45;&gt;Node18</title>
<g id="a_edge17_Node000003_Node000018"><a xlink:title=" ">
<path fill="none" stroke="#63b8ff" d="M813.74,-227.26C789.34,-217.39 755.65,-203.76 734.09,-195.03"/>
<polygon fill="#63b8ff" stroke="#63b8ff" points="812.66,-230.6 823.24,-231.1 815.29,-224.11 812.66,-230.6"/>
</a>
</g>
</g>
<!-- Node3&#45;&gt;Node20 -->
<g id="edge19_Node000003_Node000020" class="edge">
<title>Node3&#45;&gt;Node20</title>
<g id="a_edge19_Node000003_Node000020"><a xlink:title=" ">
<path fill="none" stroke="#63b8ff" d="M858.42,-223.24C866.66,-213.95 876.65,-202.68 883.38,-195.09"/>
<polygon fill="#63b8ff" stroke="#63b8ff" points="855.78,-220.94 851.76,-230.75 861.01,-225.59 855.78,-220.94"/>
</a>
</g>
</g>
<!-- Node5 -->
<g id="Node000005" class="node">
<title>Node5</title>
<g id="a_Node000005"><a xlink:href="buffer__inlines_8h_source.html" target="_top" xlink:title=" ">
<polygon fill="white" stroke="#666666" points="1274,-79.5 1182,-79.5 1182,-60.5 1274,-60.5 1274,-79.5"/>
<text text-anchor="middle" x="1228" y="-67.5" font-family="Helvetica,sans-Serif" font-size="10.00">buffer_inlines.h</text>
</a>
</g>
</g>
<!-- Node4&#45;&gt;Node5 -->
<g id="edge4_Node000004_Node000005" class="edge">
<title>Node4&#45;&gt;Node5</title>
<g id="a_edge4_Node000004_Node000005"><a xlink:title=" ">
<path fill="none" stroke="#63b8ff" d="M876.78,-123.21C961.67,-113.66 1117.6,-95.5 1173,-85 1180.94,-83.5 1189.43,-81.52 1197.32,-79.53"/>
<polygon fill="#63b8ff" stroke="#63b8ff" points="876.34,-119.74 866.79,-124.33 877.12,-126.69 876.34,-119.74"/>
</a>
</g>
</g>
<!-- Node6 -->
<g id="Node000006" class="node">
<title>Node6</title>
<g id="a_Node000006"><a xlink:href="crypto__inlines_8h_source.html" target="_top" xlink:title=" ">
<polygon fill="white" stroke="#666666" points="94,-79.5 0,-79.5 0,-60.5 94,-60.5 94,-79.5"/>
<text text-anchor="middle" x="47" y="-67.5" font-family="Helvetica,sans-Serif" font-size="10.00">crypto_inlines.h</text>
</a>
</g>
</g>
<!-- Node4&#45;&gt;Node6 -->
<g id="edge5_Node000004_Node000006" class="edge">
<title>Node4&#45;&gt;Node6</title>
<g id="a_edge5_Node000004_Node000006"><a xlink:title=" ">
<path fill="none" stroke="#63b8ff" d="M763.2,-121.04C469.57,-91.73 390.66,-128.38 103,-85 94.38,-83.7 85.15,-81.67 76.72,-79.55"/>
<polygon fill="#63b8ff" stroke="#63b8ff" points="762.99,-124.54 773.29,-122.07 763.7,-117.57 762.99,-124.54"/>
</a>
</g>
</g>
<!-- Node7 -->
<g id="Node000007" class="node">
<title>Node7</title>
<g id="a_Node000007"><a xlink:href="dma__inlines_8h_source.html" target="_top" xlink:title=" ">
<polygon fill="white" stroke="#666666" points="197.5,-79.5 112.5,-79.5 112.5,-60.5 197.5,-60.5 197.5,-79.5"/>
<text text-anchor="middle" x="155" y="-67.5" font-family="Helvetica,sans-Serif" font-size="10.00">dma_inlines.h</text>
</a>
</g>
</g>
<!-- Node4&#45;&gt;Node7 -->
<g id="edge6_Node000004_Node000007" class="edge">
<title>Node4&#45;&gt;Node7</title>
<g id="a_edge6_Node000004_Node000007"><a xlink:title=" ">
<path fill="none" stroke="#63b8ff" d="M763.25,-121.03C515.15,-95.15 447.86,-125.56 206,-85 198.12,-83.68 189.71,-81.64 182.03,-79.52"/>
<polygon fill="#63b8ff" stroke="#63b8ff" points="762.97,-124.52 773.29,-122.1 763.71,-117.56 762.97,-124.52"/>
</a>
</g>
</g>
<!-- Node8 -->
<g id="Node000008" class="node">
<title>Node8</title>
<g id="a_Node000008"><a xlink:href="event__inlines_8h_source.html" target="_top" xlink:title=" ">
<polygon fill="white" stroke="#666666" points="306.5,-79.5 215.5,-79.5 215.5,-60.5 306.5,-60.5 306.5,-79.5"/>
<text text-anchor="middle" x="261" y="-67.5" font-family="Helvetica,sans-Serif" font-size="10.00">event_inlines.h</text>
</a>
</g>
</g>
<!-- Node4&#45;&gt;Node8 -->
<g id="edge7_Node000004_Node000008" class="edge">
<title>Node4&#45;&gt;Node8</title>
<g id="a_edge7_Node000004_Node000008"><a xlink:title=" ">
<path fill="none" stroke="#63b8ff" d="M763.34,-121.02C563.4,-98.6 509.24,-117.71 315,-85 306.88,-83.63 298.2,-81.63 290.23,-79.56"/>
<polygon fill="#63b8ff" stroke="#63b8ff" points="762.95,-124.5 773.28,-122.16 763.74,-117.54 762.95,-124.5"/>
</a>
</g>
</g>
<!-- Node9 -->
<g id="Node000009" class="node">
<title>Node9</title>
<g id="a_Node000009"><a xlink:href="event__vector__inlines_8h.html" target="_top" xlink:title="Event vector inline functions.">
<polygon fill="white" stroke="#666666" points="451.5,-79.5 324.5,-79.5 324.5,-60.5 451.5,-60.5 451.5,-79.5"/>
<text text-anchor="middle" x="388" y="-67.5" font-family="Helvetica,sans-Serif" font-size="10.00">event_vector_inlines.h</text>
</a>
</g>
</g>
<!-- Node4&#45;&gt;Node9 -->
<g id="edge8_Node000004_Node000009" class="edge">
<title>Node4&#45;&gt;Node9</title>
<g id="a_edge8_Node000004_Node000009"><a xlink:title=" ">
<path fill="none" stroke="#63b8ff" d="M763.31,-120.96C627.49,-102.93 591.27,-105.51 460,-85 449.93,-83.43 439.13,-81.47 429.03,-79.52"/>
<polygon fill="#63b8ff" stroke="#63b8ff" points="762.89,-124.43 773.27,-122.29 763.82,-117.49 762.89,-124.43"/>
</a>
</g>
</g>
<!-- Node10 -->
<g id="Node000010" class="node">
<title>Node10</title>
<g id="a_Node000010"><a xlink:href="ipsec__inlines_8h_source.html" target="_top" xlink:title=" ">
<polygon fill="white" stroke="#666666" points="558.5,-79.5 469.5,-79.5 469.5,-60.5 558.5,-60.5 558.5,-79.5"/>
<text text-anchor="middle" x="514" y="-67.5" font-family="Helvetica,sans-Serif" font-size="10.00">ipsec_inlines.h</text>
</a>
</g>
</g>
<!-- Node4&#45;&gt;Node10 -->
<g id="edge9_Node000004_Node000010" class="edge">
<title>Node4&#45;&gt;Node10</title>
<g id="a_edge9_Node000004_Node000010"><a xlink:title=" ">
<path fill="none" stroke="#63b8ff" d="M763.2,-120.08C700.45,-109.58 603.47,-93.01 567,-85 559.66,-83.39 551.8,-81.44 544.44,-79.51"/>
<polygon fill="#63b8ff" stroke="#63b8ff" points="762.9,-123.58 773.34,-121.78 764.06,-116.68 762.9,-123.58"/>
</a>
</g>
</g>
<!-- Node11 -->
<g id="Node000011" class="node">
<title>Node11</title>
<g id="a_Node000011"><a xlink:href="packet__inlines_8h.html" target="_top" xlink:title="ODP packet inline functions.">
<polygon fill="white" stroke="#666666" points="671.5,-79.5 576.5,-79.5 576.5,-60.5 671.5,-60.5 671.5,-79.5"/>
<text text-anchor="middle" x="624" y="-67.5" font-family="Helvetica,sans-Serif" font-size="10.00">packet_inlines.h</text>
</a>
</g>
</g>
<!-- Node4&#45;&gt;Node11 -->
<g id="edge10_Node000004_Node000011" class="edge">
<title>Node4&#45;&gt;Node11</title>
<g id="a_edge10_Node000004_Node000011"><a xlink:title=" ">
<path fill="none" stroke="#63b8ff" d="M781.83,-118.11C743.92,-106.79 686.66,-89.7 652.53,-79.52"/>
<polygon fill="#63b8ff" stroke="#63b8ff" points="780.92,-121.49 791.5,-120.99 782.92,-114.78 780.92,-121.49"/>
</a>
</g>
</g>
<!-- Node12 -->
<g id="Node000012" class="node">
<title>Node12</title>
<g id="a_Node000012"><a xlink:href="packet__vector__inlines_8h.html" target="_top" xlink:title="Packet vector inline functions.">
<polygon fill="white" stroke="#666666" points="820.5,-79.5 689.5,-79.5 689.5,-60.5 820.5,-60.5 820.5,-79.5"/>
<text text-anchor="middle" x="755" y="-67.5" font-family="Helvetica,sans-Serif" font-size="10.00">packet_vector_inlines.h</text>
</a>
</g>
</g>
<!-- Node4&#45;&gt;Node12 -->
<g id="edge11_Node000004_Node000012" class="edge">
<title>Node4&#45;&gt;Node12</title>
<g id="a_edge11_Node000004_Node000012"><a xlink:title=" ">
<path fill="none" stroke="#63b8ff" d="M802.68,-113.91C790.49,-102.94 774.63,-88.67 764.63,-79.67"/>
<polygon fill="#63b8ff" stroke="#63b8ff" points="800.63,-116.78 810.41,-120.87 805.32,-111.58 800.63,-116.78"/>
</a>
</g>
</g>
<!-- Node13 -->
<g id="Node000013" class="node">
<title>Node13</title>
<g id="a_Node000013"><a xlink:href="queue__inlines_8h_source.html" target="_top" xlink:title=" ">
<polygon fill="white" stroke="#666666" points="931.5,-79.5 838.5,-79.5 838.5,-60.5 931.5,-60.5 931.5,-79.5"/>
<text text-anchor="middle" x="885" y="-67.5" font-family="Helvetica,sans-Serif" font-size="10.00">queue_inlines.h</text>
</a>
</g>
</g>
<!-- Node4&#45;&gt;Node13 -->
<g id="edge12_Node000004_Node000013" class="edge">
<title>Node4&#45;&gt;Node13</title>
<g id="a_edge12_Node000004_Node000013"><a xlink:title=" ">
<path fill="none" stroke="#63b8ff" d="M837.32,-113.91C849.51,-102.94 865.37,-88.67 875.37,-79.67"/>
<polygon fill="#63b8ff" stroke="#63b8ff" points="834.68,-111.58 829.59,-120.87 839.37,-116.78 834.68,-111.58"/>
</a>
</g>
</g>
<!-- Node14 -->
<g id="Node000014" class="node">
<title>Node14</title>
<g id="a_Node000014"><a xlink:href="rwlock__recursive__inlines_8h_source.html" target="_top" xlink:title=" ">
<polygon fill="white" stroke="#666666" points="1564,-79.5 1418,-79.5 1418,-60.5 1564,-60.5 1564,-79.5"/>
<text text-anchor="middle" x="1491" y="-67.5" font-family="Helvetica,sans-Serif" font-size="10.00">rwlock_recursive_inlines.h</text>
</a>
</g>
</g>
<!-- Node4&#45;&gt;Node14 -->
<g id="edge13_Node000004_Node000014" class="edge">
<title>Node4&#45;&gt;Node14</title>
<g id="a_edge13_Node000004_Node000014"><a xlink:title=" ">
<path fill="none" stroke="#63b8ff" d="M876.69,-123.23C884.52,-122.43 892.45,-121.67 900,-121 1125.91,-101.02 1183.84,-112.12 1409,-85 1421.04,-83.55 1434.01,-81.54 1446,-79.5"/>
<polygon fill="#63b8ff" stroke="#63b8ff" points="876.09,-119.77 866.51,-124.28 876.81,-126.73 876.09,-119.77"/>
</a>
</g>
</g>
<!-- Node15 -->
<g id="Node000015" class="node">
<title>Node15</title>
<g id="a_Node000015"><a xlink:href="schedule__inlines_8h_source.html" target="_top" xlink:title=" ">
<polygon fill="white" stroke="#666666" points="1056.5,-79.5 949.5,-79.5 949.5,-60.5 1056.5,-60.5 1056.5,-79.5"/>
<text text-anchor="middle" x="1003" y="-67.5" font-family="Helvetica,sans-Serif" font-size="10.00">schedule_inlines.h</text>
</a>
</g>
</g>
<!-- Node4&#45;&gt;Node15 -->
<g id="edge14_Node000004_Node000015" class="edge">
<title>Node4&#45;&gt;Node15</title>
<g id="a_edge14_Node000004_Node000015"><a xlink:title=" ">
<path fill="none" stroke="#63b8ff" d="M856.55,-117.82C891.94,-106.5 944.77,-89.62 976.36,-79.52"/>
<polygon fill="#63b8ff" stroke="#63b8ff" points="855.07,-114.61 846.61,-120.99 857.2,-121.28 855.07,-114.61"/>
</a>
</g>
</g>
<!-- Node16 -->
<g id="Node000016" class="node">
<title>Node16</title>
<g id="a_Node000016"><a xlink:href="spinlock__recursive__inlines_8h_source.html" target="_top" xlink:title=" ">
<polygon fill="white" stroke="#666666" points="1399.5,-85 1292.5,-85 1292.5,-55 1399.5,-55 1399.5,-85"/>
<text text-anchor="start" x="1300.5" y="-73" font-family="Helvetica,sans-Serif" font-size="10.00">spinlock_recursive</text>
<text text-anchor="middle" x="1346" y="-62" font-family="Helvetica,sans-Serif" font-size="10.00">_inlines.h</text>
</a>
</g>
</g>
<!-- Node4&#45;&gt;Node16 -->
<g id="edge15_Node000004_Node000016" class="edge">
<title>Node4&#45;&gt;Node16</title>
<g id="a_edge15_Node000004_Node000016"><a xlink:title=" ">
<path fill="none" stroke="#63b8ff" d="M876.7,-123.39C884.53,-122.57 892.46,-121.75 900,-121 1070.12,-103.97 1114.11,-111.6 1283,-85 1286.1,-84.51 1289.27,-83.96 1292.47,-83.37"/>
<polygon fill="#63b8ff" stroke="#63b8ff" points="876.1,-119.93 866.52,-124.46 876.83,-126.89 876.1,-119.93"/>
</a>
</g>
</g>
<!-- Node17 -->
<g id="Node000017" class="node">
<title>Node17</title>
<g id="a_Node000017"><a xlink:href="timer__inlines_8h_source.html" target="_top" xlink:title=" ">
<polygon fill="white" stroke="#666666" points="1163.5,-79.5 1074.5,-79.5 1074.5,-60.5 1163.5,-60.5 1163.5,-79.5"/>
<text text-anchor="middle" x="1119" y="-67.5" font-family="Helvetica,sans-Serif" font-size="10.00">timer_inlines.h</text>
</a>
</g>
</g>
<!-- Node4&#45;&gt;Node17 -->
<g id="edge16_Node000004_Node000017" class="edge">
<title>Node4&#45;&gt;Node17</title>
<g id="a_edge16_Node000004_Node000017"><a xlink:title=" ">
<path fill="none" stroke="#63b8ff" d="M876.9,-120.52C926.92,-112.32 1001.59,-99.31 1066,-85 1073.25,-83.39 1081,-81.46 1088.27,-79.56"/>
<polygon fill="#63b8ff" stroke="#63b8ff" points="876.23,-117.09 866.92,-122.15 877.36,-123.99 876.23,-117.09"/>
</a>
</g>
</g>
<!-- Node19 -->
<g id="Node000019" class="node">
<title>Node19</title>
<g id="a_Node000019"><a xlink:href="shared__memory_8h.html" target="_top" xlink:title="ODP shared memory.">
<polygon fill="white" stroke="#666666" points="755,-140 651,-140 651,-121 755,-121 755,-140"/>
<text text-anchor="middle" x="703" y="-128" font-family="Helvetica,sans-Serif" font-size="10.00">shared_memory.h</text>
</a>
</g>
</g>
<!-- Node18&#45;&gt;Node19 -->
<g id="edge18_Node000018_Node000019" class="edge">
<title>Node18&#45;&gt;Node19</title>
<g id="a_edge18_Node000018_Node000019"><a xlink:title=" ">
<path fill="none" stroke="#63b8ff" d="M709.45,-165.66C707.8,-156.93 705.92,-146.99 704.62,-140.09"/>
<polygon fill="#63b8ff" stroke="#63b8ff" points="706.06,-166.57 711.35,-175.75 712.93,-165.27 706.06,-166.57"/>
</a>
</g>
</g>
<!-- Node20&#45;&gt;Node4 -->
<g id="edge20_Node000020_Node000004" class="edge">
<title>Node20&#45;&gt;Node4</title>
<g id="a_edge20_Node000020_Node000004"><a xlink:title=" ">
<path fill="none" stroke="#63b8ff" d="M871.41,-169.88C858.63,-160.34 842.39,-148.21 831.61,-140.17"/>
<polygon fill="#63b8ff" stroke="#63b8ff" points="869.49,-172.81 879.59,-175.98 873.67,-167.2 869.49,-172.81"/>
</a>
</g>
</g>
<!-- Node20&#45;&gt;Node21 -->
<g id="edge21_Node000020_Node000021" class="edge">
<title>Node20&#45;&gt;Node21</title>
<g id="a_edge21_Node000020_Node000021"><a xlink:title=" ">
<path fill="none" stroke="#63b8ff" d="M909.27,-169.6C920.92,-160.11 935.6,-148.13 945.37,-140.17"/>
<polygon fill="#63b8ff" stroke="#63b8ff" points="906.98,-166.95 901.44,-175.98 911.41,-172.38 906.98,-166.95"/>
</a>
</g>
</g>
<!-- Node23 -->
<g id="Node000023" class="node">
<title>Node23</title>
<g id="a_Node000023"><a xlink:href="thread_8h.html" target="_top" xlink:title="ODP thread API.">
<polygon fill="white" stroke="#666666" points="1519.5,-140 1462.5,-140 1462.5,-121 1519.5,-121 1519.5,-140"/>
<text text-anchor="middle" x="1491" y="-128" font-family="Helvetica,sans-Serif" font-size="10.00">thread.h</text>
</a>
</g>
</g>
<!-- Node22&#45;&gt;Node23 -->
<g id="edge23_Node000022_Node000023" class="edge">
<title>Node22&#45;&gt;Node23</title>
<g id="a_edge23_Node000022_Node000023"><a xlink:title=" ">
<path fill="none" stroke="#63b8ff" d="M1314.07,-279.4C1353.98,-246.03 1448.67,-166.88 1480.42,-140.34"/>
<polygon fill="#63b8ff" stroke="#63b8ff" points="1311.64,-276.87 1306.21,-285.97 1316.13,-282.24 1311.64,-276.87"/>
</a>
</g>
</g>
<!-- Node23&#45;&gt;Node14 -->
<g id="edge29_Node000023_Node000014" class="edge">
<title>Node23&#45;&gt;Node14</title>
<g id="a_edge29_Node000023_Node000014"><a xlink:title=" ">
<path fill="none" stroke="#63b8ff" d="M1491,-110.66C1491,-100.24 1491,-87.8 1491,-79.67"/>
<polygon fill="#63b8ff" stroke="#63b8ff" points="1487.5,-110.87 1491,-120.87 1494.5,-110.87 1487.5,-110.87"/>
</a>
</g>
</g>
<!-- Node23&#45;&gt;Node16 -->
<g id="edge30_Node000023_Node000016" class="edge">
<title>Node23&#45;&gt;Node16</title>
<g id="a_edge30_Node000023_Node000016"><a xlink:title=" ">
<path fill="none" stroke="#63b8ff" d="M1460.53,-117.21C1437.26,-107.82 1405.16,-94.87 1380.86,-85.06"/>
<polygon fill="#63b8ff" stroke="#63b8ff" points="1459.33,-120.5 1469.92,-120.99 1461.95,-114.01 1459.33,-120.5"/>
</a>
</g>
</g>
<!-- Node24 -->
<g id="Node000024" class="node">
<title>Node24</title>
<g id="a_Node000024"><a xlink:href="cpu_8h.html" target="_top" xlink:title="ODP CPU.">
<polygon fill="white" stroke="#666666" points="1751.5,-79.5 1708.5,-79.5 1708.5,-60.5 1751.5,-60.5 1751.5,-79.5"/>
<text text-anchor="middle" x="1730" y="-67.5" font-family="Helvetica,sans-Serif" font-size="10.00">cpu.h</text>
</a>
</g>
</g>
<!-- Node23&#45;&gt;Node24 -->
<g id="edge24_Node000023_Node000024" class="edge">
<title>Node23&#45;&gt;Node24</title>
<g id="a_edge24_Node000023_Node000024"><a xlink:title=" ">
<path fill="none" stroke="#63b8ff" d="M1529.65,-123.77C1571.91,-116.92 1641.31,-103.96 1699,-85 1703.6,-83.49 1708.43,-81.51 1712.88,-79.52"/>
<polygon fill="#63b8ff" stroke="#63b8ff" points="1529.1,-120.31 1519.77,-125.34 1530.2,-127.23 1529.1,-120.31"/>
</a>
</g>
</g>
<!-- Node28 -->
<g id="Node000028" class="node">
<title>Node28</title>
<g id="a_Node000028"><a xlink:href="abi-default_2rwlock__recursive_8h.html" target="_top" xlink:title="ODP recursive read/write lock.">
<polygon fill="white" stroke="#666666" points="1690,-79.5 1582,-79.5 1582,-60.5 1690,-60.5 1690,-79.5"/>
<text text-anchor="middle" x="1636" y="-67.5" font-family="Helvetica,sans-Serif" font-size="10.00">rwlock_recursive.h</text>
</a>
</g>
</g>
<!-- Node23&#45;&gt;Node28 -->
<g id="edge28_Node000023_Node000028" class="edge">
<title>Node23&#45;&gt;Node28</title>
<g id="a_edge28_Node000023_Node000028"><a xlink:title=" ">
<path fill="none" stroke="#63b8ff" d="M1521.41,-117.23C1549.43,-105.92 1590.29,-89.44 1614.89,-79.52"/>
<polygon fill="#63b8ff" stroke="#63b8ff" points="1520.05,-114.01 1512.08,-120.99 1522.67,-120.5 1520.05,-114.01"/>
</a>
</g>
</g>
<!-- Node25 -->
<g id="Node000025" class="node">
<title>Node25</title>
<g id="a_Node000025"><a xlink:href="rwlock__inlines_8h_source.html" target="_top" xlink:title=" ">
<polygon fill="white" stroke="#666666" points="1659.5,-19 1564.5,-19 1564.5,0 1659.5,0 1659.5,-19"/>
<text text-anchor="middle" x="1612" y="-7" font-family="Helvetica,sans-Serif" font-size="10.00">rwlock_inlines.h</text>
</a>
</g>
</g>
<!-- Node24&#45;&gt;Node25 -->
<g id="edge25_Node000024_Node000025" class="edge">
<title>Node24&#45;&gt;Node25</title>
<g id="a_edge25_Node000024_Node000025"><a xlink:title=" ">
<path fill="none" stroke="#63b8ff" d="M1703.74,-55.98C1681,-44.71 1648.76,-28.73 1629.18,-19.02"/>
<polygon fill="#63b8ff" stroke="#63b8ff" points="1702.33,-59.19 1712.84,-60.49 1705.44,-52.92 1702.33,-59.19"/>
</a>
</g>
</g>
<!-- Node26 -->
<g id="Node000026" class="node">
<title>Node26</title>
<g id="a_Node000026"><a xlink:href="spinlock__inlines_8h_source.html" target="_top" xlink:title=" ">
<polygon fill="white" stroke="#666666" points="1782,-19 1678,-19 1678,0 1782,0 1782,-19"/>
<text text-anchor="middle" x="1730" y="-7" font-family="Helvetica,sans-Serif" font-size="10.00">spinlock_inlines.h</text>
</a>
</g>
</g>
<!-- Node24&#45;&gt;Node26 -->
<g id="edge26_Node000024_Node000026" class="edge">
<title>Node24&#45;&gt;Node26</title>
<g id="a_edge26_Node000024_Node000026"><a xlink:title=" ">
<path fill="none" stroke="#63b8ff" d="M1730,-50.16C1730,-39.74 1730,-27.3 1730,-19.17"/>
<polygon fill="#63b8ff" stroke="#63b8ff" points="1726.5,-50.37 1730,-60.37 1733.5,-50.37 1726.5,-50.37"/>
</a>
</g>
</g>
<!-- Node27 -->
<g id="Node000027" class="node">
<title>Node27</title>
<g id="a_Node000027"><a xlink:href="ticketlock__inlines_8h_source.html" target="_top" xlink:title=" ">
<polygon fill="white" stroke="#666666" points="1910,-19 1800,-19 1800,0 1910,0 1910,-19"/>
<text text-anchor="middle" x="1855" y="-7" font-family="Helvetica,sans-Serif" font-size="10.00">ticketlock_inlines.h</text>
</a>
</g>
</g>
<!-- Node24&#45;&gt;Node27 -->
<g id="edge27_Node000024_Node000027" class="edge">
<title>Node24&#45;&gt;Node27</title>
<g id="a_edge27_Node000024_Node000027"><a xlink:title=" ">
<path fill="none" stroke="#63b8ff" d="M1757.49,-56.13C1781.6,-44.85 1815.96,-28.77 1836.8,-19.02"/>
<polygon fill="#63b8ff" stroke="#63b8ff" points="1755.75,-53.08 1748.18,-60.49 1758.72,-59.42 1755.75,-53.08"/>
</a>
</g>
</g>
</g>
</svg>
