<?xml version="1.0" encoding="UTF-8" standalone="no"?>
<!DOCTYPE svg PUBLIC "-//W3C//DTD SVG 1.1//EN"
 "http://www.w3.org/Graphics/SVG/1.1/DTD/svg11.dtd">
<!-- Generated by graphviz version 2.43.0 (0)
 -->
<!-- Title: time_types.h Pages: 1 -->
<svg width="621pt" height="196pt"
 viewBox="0.00 0.00 620.50 196.00" xmlns="http://www.w3.org/2000/svg" xmlns:xlink="http://www.w3.org/1999/xlink">
<g id="graph0" class="graph" transform="scale(1 1) rotate(0) translate(4 192)">
<title>time_types.h</title>
<polygon fill="white" stroke="transparent" points="-4,4 -4,-192 616.5,-192 616.5,4 -4,4"/>
<!-- Node1 -->
<g id="node1" class="node">
<title>Node1</title>
<g id="a_node1"><a xlink:title="ODP time.">
<polygon fill="#bfbfbf" stroke="black" points="268,-168.5 268,-187.5 348,-187.5 348,-168.5 268,-168.5"/>
<text text-anchor="middle" x="308" y="-175.5" font-family="Helvetica,sans-Serif" font-size="10.00">time_types.h</text>
</a>
</g>
</g>
<!-- Node2 -->
<g id="node2" class="node">
<title>Node2</title>
<g id="a_node2"><a xlink:href="spec_2packet_8h.html" target="_top" xlink:title="ODP packet descriptor.">
<polygon fill="white" stroke="black" points="73,-112.5 73,-131.5 131,-131.5 131,-112.5 73,-112.5"/>
<text text-anchor="middle" x="102" y="-119.5" font-family="Helvetica,sans-Serif" font-size="10.00">packet.h</text>
</a>
</g>
</g>
<!-- Node1&#45;&gt;Node2 -->
<g id="edge1" class="edge">
<title>Node1&#45;&gt;Node2</title>
<path fill="none" stroke="midnightblue" d="M265.59,-165.88C225.44,-155.36 166.25,-139.84 131.16,-130.64"/>
<polygon fill="midnightblue" stroke="midnightblue" points="264.8,-169.29 275.36,-168.44 266.57,-162.52 264.8,-169.29"/>
</g>
<!-- Node6 -->
<g id="node6" class="node">
<title>Node6</title>
<g id="a_node6"><a xlink:href="spec_2packet__io_8h.html" target="_top" xlink:title="ODP Packet IO.">
<polygon fill="white" stroke="black" points="149,-112.5 149,-131.5 221,-131.5 221,-112.5 149,-112.5"/>
<text text-anchor="middle" x="185" y="-119.5" font-family="Helvetica,sans-Serif" font-size="10.00">packet_io.h</text>
</a>
</g>
</g>
<!-- Node1&#45;&gt;Node6 -->
<g id="edge5" class="edge">
<title>Node1&#45;&gt;Node6</title>
<path fill="none" stroke="midnightblue" d="M279.23,-164.37C256.19,-154.26 224.52,-140.35 204.4,-131.52"/>
<polygon fill="midnightblue" stroke="midnightblue" points="277.95,-167.63 288.51,-168.44 280.76,-161.22 277.95,-167.63"/>
</g>
<!-- Node8 -->
<g id="node8" class="node">
<title>Node8</title>
<g id="a_node8"><a xlink:href="spec_2time_8h.html" target="_top" xlink:title="ODP time.">
<polygon fill="white" stroke="black" points="239,-112.5 239,-131.5 287,-131.5 287,-112.5 239,-112.5"/>
<text text-anchor="middle" x="263" y="-119.5" font-family="Helvetica,sans-Serif" font-size="10.00">time.h</text>
</a>
</g>
</g>
<!-- Node1&#45;&gt;Node8 -->
<g id="edge7" class="edge">
<title>Node1&#45;&gt;Node8</title>
<path fill="none" stroke="midnightblue" d="M293.95,-160.14C286.11,-150.74 276.67,-139.4 270.29,-131.75"/>
<polygon fill="midnightblue" stroke="midnightblue" points="291.48,-162.64 300.57,-168.08 296.86,-158.16 291.48,-162.64"/>
</g>
<!-- Node10 -->
<g id="node10" class="node">
<title>Node10</title>
<g id="a_node10"><a xlink:href="packet__inlines_8h.html" target="_top" xlink:title="ODP packet inline functions.">
<polygon fill="white" stroke="black" points="305.5,-112.5 305.5,-131.5 400.5,-131.5 400.5,-112.5 305.5,-112.5"/>
<text text-anchor="middle" x="353" y="-119.5" font-family="Helvetica,sans-Serif" font-size="10.00">packet_inlines.h</text>
</a>
</g>
</g>
<!-- Node1&#45;&gt;Node10 -->
<g id="edge9" class="edge">
<title>Node1&#45;&gt;Node10</title>
<path fill="none" stroke="midnightblue" d="M322.05,-160.14C329.89,-150.74 339.33,-139.4 345.71,-131.75"/>
<polygon fill="midnightblue" stroke="midnightblue" points="319.14,-158.16 315.43,-168.08 324.52,-162.64 319.14,-158.16"/>
</g>
<!-- Node11 -->
<g id="node11" class="node">
<title>Node11</title>
<g id="a_node11"><a xlink:href="time__inlines_8h_source.html" target="_top" xlink:title=" ">
<polygon fill="white" stroke="black" points="419,-112.5 419,-131.5 505,-131.5 505,-112.5 419,-112.5"/>
<text text-anchor="middle" x="462" y="-119.5" font-family="Helvetica,sans-Serif" font-size="10.00">time_inlines.h</text>
</a>
</g>
</g>
<!-- Node1&#45;&gt;Node11 -->
<g id="edge10" class="edge">
<title>Node1&#45;&gt;Node11</title>
<path fill="none" stroke="midnightblue" d="M342.11,-165.04C371.09,-154.88 411.96,-140.55 437.71,-131.52"/>
<polygon fill="midnightblue" stroke="midnightblue" points="340.68,-161.83 332.4,-168.44 343,-168.44 340.68,-161.83"/>
</g>
<!-- Node12 -->
<g id="node12" class="node">
<title>Node12</title>
<g id="a_node12"><a xlink:href="timer__inlines_8h_source.html" target="_top" xlink:title=" ">
<polygon fill="white" stroke="black" points="523.5,-112.5 523.5,-131.5 612.5,-131.5 612.5,-112.5 523.5,-112.5"/>
<text text-anchor="middle" x="568" y="-119.5" font-family="Helvetica,sans-Serif" font-size="10.00">timer_inlines.h</text>
</a>
</g>
</g>
<!-- Node1&#45;&gt;Node12 -->
<g id="edge11" class="edge">
<title>Node1&#45;&gt;Node12</title>
<path fill="none" stroke="midnightblue" d="M358.15,-166.58C407.3,-156.38 481.32,-141 527.04,-131.51"/>
<polygon fill="midnightblue" stroke="midnightblue" points="357.13,-163.22 348.06,-168.68 358.56,-170.07 357.13,-163.22"/>
</g>
<!-- Node3 -->
<g id="node3" class="node">
<title>Node3</title>
<g id="a_node3"><a xlink:href="packet_8h.html" target="_top" xlink:title="ODP packet descriptor.">
<polygon fill="white" stroke="black" points="73,-56.5 73,-75.5 131,-75.5 131,-56.5 73,-56.5"/>
<text text-anchor="middle" x="102" y="-63.5" font-family="Helvetica,sans-Serif" font-size="10.00">packet.h</text>
</a>
</g>
</g>
<!-- Node2&#45;&gt;Node3 -->
<g id="edge2" class="edge">
<title>Node2&#45;&gt;Node3</title>
<path fill="none" stroke="midnightblue" d="M102,-101.8C102,-92.91 102,-82.78 102,-75.75"/>
<polygon fill="midnightblue" stroke="midnightblue" points="98.5,-102.08 102,-112.08 105.5,-102.08 98.5,-102.08"/>
</g>
<!-- Node4 -->
<g id="node4" class="node">
<title>Node4</title>
<g id="a_node4"><a xlink:href="crypto__inlines_8h_source.html" target="_top" xlink:title=" ">
<polygon fill="white" stroke="black" points="0,-0.5 0,-19.5 94,-19.5 94,-0.5 0,-0.5"/>
<text text-anchor="middle" x="47" y="-7.5" font-family="Helvetica,sans-Serif" font-size="10.00">crypto_inlines.h</text>
</a>
</g>
</g>
<!-- Node3&#45;&gt;Node4 -->
<g id="edge3" class="edge">
<title>Node3&#45;&gt;Node4</title>
<path fill="none" stroke="midnightblue" d="M85.71,-49C75.96,-39.43 63.95,-27.64 55.91,-19.75"/>
<polygon fill="midnightblue" stroke="midnightblue" points="83.33,-51.57 92.92,-56.08 88.23,-46.58 83.33,-51.57"/>
</g>
<!-- Node5 -->
<g id="node5" class="node">
<title>Node5</title>
<g id="a_node5"><a xlink:href="ipsec__inlines_8h_source.html" target="_top" xlink:title=" ">
<polygon fill="white" stroke="black" points="112.5,-0.5 112.5,-19.5 201.5,-19.5 201.5,-0.5 112.5,-0.5"/>
<text text-anchor="middle" x="157" y="-7.5" font-family="Helvetica,sans-Serif" font-size="10.00">ipsec_inlines.h</text>
</a>
</g>
</g>
<!-- Node3&#45;&gt;Node5 -->
<g id="edge4" class="edge">
<title>Node3&#45;&gt;Node5</title>
<path fill="none" stroke="midnightblue" d="M118.29,-49C128.04,-39.43 140.05,-27.64 148.09,-19.75"/>
<polygon fill="midnightblue" stroke="midnightblue" points="115.77,-46.58 111.08,-56.08 120.67,-51.57 115.77,-46.58"/>
</g>
<!-- Node7 -->
<g id="node7" class="node">
<title>Node7</title>
<g id="a_node7"><a xlink:href="packet__io_8h.html" target="_top" xlink:title="ODP Packet IO.">
<polygon fill="white" stroke="black" points="149,-56.5 149,-75.5 221,-75.5 221,-56.5 149,-56.5"/>
<text text-anchor="middle" x="185" y="-63.5" font-family="Helvetica,sans-Serif" font-size="10.00">packet_io.h</text>
</a>
</g>
</g>
<!-- Node6&#45;&gt;Node7 -->
<g id="edge6" class="edge">
<title>Node6&#45;&gt;Node7</title>
<path fill="none" stroke="midnightblue" d="M185,-101.8C185,-92.91 185,-82.78 185,-75.75"/>
<polygon fill="midnightblue" stroke="midnightblue" points="181.5,-102.08 185,-112.08 188.5,-102.08 181.5,-102.08"/>
</g>
<!-- Node9 -->
<g id="node9" class="node">
<title>Node9</title>
<g id="a_node9"><a xlink:href="time_8h.html" target="_top" xlink:title="ODP time.">
<polygon fill="white" stroke="black" points="239,-56.5 239,-75.5 287,-75.5 287,-56.5 239,-56.5"/>
<text text-anchor="middle" x="263" y="-63.5" font-family="Helvetica,sans-Serif" font-size="10.00">time.h</text>
</a>
</g>
</g>
<!-- Node8&#45;&gt;Node9 -->
<g id="edge8" class="edge">
<title>Node8&#45;&gt;Node9</title>
<path fill="none" stroke="midnightblue" d="M263,-101.8C263,-92.91 263,-82.78 263,-75.75"/>
<polygon fill="midnightblue" stroke="midnightblue" points="259.5,-102.08 263,-112.08 266.5,-102.08 259.5,-102.08"/>
</g>
</g>
</svg>
