<?xml version="1.0" encoding="UTF-8" standalone="no"?>
<!DOCTYPE svg PUBLIC "-//W3C//DTD SVG 1.1//EN"
 "http://www.w3.org/Graphics/SVG/1.1/DTD/svg11.dtd">
<!-- Generated by graphviz version 2.43.0 (0)
 -->
<!-- Title: timer_types.h Pages: 1 -->
<svg width="737pt" height="379pt"
 viewBox="0.00 0.00 736.55 379.00" xmlns="http://www.w3.org/2000/svg" xmlns:xlink="http://www.w3.org/1999/xlink">
<g id="graph0" class="graph" transform="scale(1 1) rotate(0) translate(4 375)">
<title>timer_types.h</title>
<!-- Node1 -->
<g id="Node000001" class="node">
<title>Node1</title>
<g id="a_Node000001"><a xlink:title="ODP timer service.">
<polygon fill="#999999" stroke="#666666" points="275.55,-371 191.55,-371 191.55,-352 275.55,-352 275.55,-371"/>
<text text-anchor="middle" x="233.55" y="-359" font-family="Helvetica,sans-Serif" font-size="10.00">timer_types.h</text>
</a>
</g>
</g>
<!-- Node2 -->
<g id="Node000002" class="node">
<title>Node2</title>
<g id="a_Node000002"><a xlink:title=" ">
<polygon fill="#e0e0e0" stroke="#999999" points="233.05,-310.5 92.05,-310.5 92.05,-291.5 233.05,-291.5 233.05,-310.5"/>
<text text-anchor="middle" x="162.55" y="-298.5" font-family="Helvetica,sans-Serif" font-size="10.00">odp/api/abi/timer_types.h</text>
</a>
</g>
</g>
<!-- Node1&#45;&gt;Node2 -->
<g id="edge1_Node000001_Node000002" class="edge">
<title>Node1&#45;&gt;Node2</title>
<g id="a_edge1_Node000001_Node000002"><a xlink:title=" ">
<path fill="none" stroke="#63b8ff" d="M223.08,-351.87C212.07,-342.8 194.52,-328.34 181.15,-317.32"/>
<polygon fill="#63b8ff" stroke="#63b8ff" points="183.02,-314.33 173.07,-310.67 178.57,-319.73 183.02,-314.33"/>
</a>
</g>
</g>
<!-- Node3 -->
<g id="Node000003" class="node">
<title>Node3</title>
<g id="a_Node000003"><a xlink:href="spec_2timer__types_8h.html" target="_top" xlink:title="ODP timer API type definitions.">
<polygon fill="white" stroke="#666666" points="358.05,-316 251.05,-316 251.05,-286 358.05,-286 358.05,-316"/>
<text text-anchor="start" x="259.05" y="-304" font-family="Helvetica,sans-Serif" font-size="10.00">odp/api/spec/timer</text>
<text text-anchor="middle" x="304.55" y="-293" font-family="Helvetica,sans-Serif" font-size="10.00">_types.h</text>
</a>
</g>
</g>
<!-- Node1&#45;&gt;Node3 -->
<g id="edge2_Node000001_Node000003" class="edge">
<title>Node1&#45;&gt;Node3</title>
<g id="a_edge2_Node000001_Node000003"><a xlink:title=" ">
<path fill="none" stroke="#63b8ff" d="M244.03,-351.87C253.31,-344.22 267.22,-332.76 279.37,-322.75"/>
<polygon fill="#63b8ff" stroke="#63b8ff" points="281.93,-325.17 287.42,-316.11 277.48,-319.77 281.93,-325.17"/>
</a>
</g>
</g>
<!-- Node4 -->
<g id="Node000004" class="node">
<title>Node4</title>
<g id="a_Node000004"><a xlink:title=" ">
<polygon fill="#e0e0e0" stroke="#999999" points="356.05,-19 235.05,-19 235.05,0 356.05,0 356.05,-19"/>
<text text-anchor="middle" x="295.55" y="-7" font-family="Helvetica,sans-Serif" font-size="10.00">odp/visibility_begin.h</text>
</a>
</g>
</g>
<!-- Node3&#45;&gt;Node4 -->
<g id="edge3_Node000003_Node000004" class="edge">
<title>Node3&#45;&gt;Node4</title>
<g id="a_edge3_Node000003_Node000004"><a xlink:title=" ">
<path fill="none" stroke="#63b8ff" d="M252.12,-285.91C165.4,-261.87 1.55,-212.94 1.55,-186.5 1.55,-186.5 1.55,-186.5 1.55,-129.5 1.55,-95.33 -4.66,-78.06 20.55,-55 49.64,-28.4 153.16,-17.63 224.54,-13.32"/>
<polygon fill="#63b8ff" stroke="#63b8ff" points="225.04,-16.8 234.83,-12.73 224.64,-9.81 225.04,-16.8"/>
</a>
</g>
</g>
<!-- Node5 -->
<g id="Node000005" class="node">
<title>Node5</title>
<g id="a_Node000005"><a xlink:href="event__types_8h.html" target="_top" xlink:title="ODP event API type definitions.">
<polygon fill="white" stroke="#666666" points="300.05,-140 175.05,-140 175.05,-121 300.05,-121 300.05,-140"/>
<text text-anchor="middle" x="237.55" y="-128" font-family="Helvetica,sans-Serif" font-size="10.00">odp/api/event_types.h</text>
</a>
</g>
</g>
<!-- Node3&#45;&gt;Node5 -->
<g id="edge4_Node000003_Node000005" class="edge">
<title>Node3&#45;&gt;Node5</title>
<g id="a_edge4_Node000003_Node000005"><a xlink:title=" ">
<path fill="none" stroke="#63b8ff" d="M298.96,-285.92C286.87,-255.52 258.32,-183.73 244.84,-149.83"/>
<polygon fill="#63b8ff" stroke="#63b8ff" points="247.98,-148.25 241.04,-140.25 241.48,-150.84 247.98,-148.25"/>
</a>
</g>
</g>
<!-- Node8 -->
<g id="Node000008" class="node">
<title>Node8</title>
<g id="a_Node000008"><a xlink:title=" ">
<polygon fill="#e0e0e0" stroke="#999999" points="502.55,-19 390.55,-19 390.55,0 502.55,0 502.55,-19"/>
<text text-anchor="middle" x="446.55" y="-7" font-family="Helvetica,sans-Serif" font-size="10.00">odp/visibility_end.h</text>
</a>
</g>
</g>
<!-- Node3&#45;&gt;Node8 -->
<g id="edge20_Node000003_Node000008" class="edge">
<title>Node3&#45;&gt;Node8</title>
<g id="a_edge20_Node000003_Node000008"><a xlink:title=" ">
<path fill="none" stroke="#63b8ff" d="M358.25,-296.9C472.35,-288.85 728.55,-262.32 728.55,-186.5 728.55,-186.5 728.55,-186.5 728.55,-129.5 728.55,-36.28 596.12,-14.94 512.77,-10.74"/>
<polygon fill="#63b8ff" stroke="#63b8ff" points="512.75,-7.24 502.61,-10.3 512.44,-14.23 512.75,-7.24"/>
</a>
</g>
</g>
<!-- Node9 -->
<g id="Node000009" class="node">
<title>Node9</title>
<g id="a_Node000009"><a xlink:href="std__types_8h.html" target="_top" xlink:title="Standard C language types and definitions for ODP.">
<polygon fill="white" stroke="#666666" points="422.55,-250 310.55,-250 310.55,-231 422.55,-231 422.55,-250"/>
<text text-anchor="middle" x="366.55" y="-238" font-family="Helvetica,sans-Serif" font-size="10.00">odp/api/std_types.h</text>
</a>
</g>
</g>
<!-- Node3&#45;&gt;Node9 -->
<g id="edge9_Node000003_Node000009" class="edge">
<title>Node3&#45;&gt;Node9</title>
<g id="a_edge9_Node000003_Node000009"><a xlink:title=" ">
<path fill="none" stroke="#63b8ff" d="M319.56,-285.84C328.75,-277.17 340.51,-266.08 349.97,-257.15"/>
<polygon fill="#63b8ff" stroke="#63b8ff" points="352.39,-259.67 357.26,-250.27 347.59,-254.58 352.39,-259.67"/>
</a>
</g>
</g>
<!-- Node6 -->
<g id="Node000006" class="node">
<title>Node6</title>
<g id="a_Node000006"><a xlink:title=" ">
<polygon fill="#e0e0e0" stroke="#999999" points="173.05,-79.5 30.05,-79.5 30.05,-60.5 173.05,-60.5 173.05,-79.5"/>
<text text-anchor="middle" x="101.55" y="-67.5" font-family="Helvetica,sans-Serif" font-size="10.00">odp/api/abi/event_types.h</text>
</a>
</g>
</g>
<!-- Node5&#45;&gt;Node6 -->
<g id="edge5_Node000005_Node000006" class="edge">
<title>Node5&#45;&gt;Node6</title>
<g id="a_edge5_Node000005_Node000006"><a xlink:title=" ">
<path fill="none" stroke="#63b8ff" d="M217.78,-120.99C194.91,-111.16 157.07,-94.88 130.8,-83.58"/>
<polygon fill="#63b8ff" stroke="#63b8ff" points="131.92,-80.25 121.35,-79.52 129.16,-86.68 131.92,-80.25"/>
</a>
</g>
</g>
<!-- Node7 -->
<g id="Node000007" class="node">
<title>Node7</title>
<g id="a_Node000007"><a xlink:href="spec_2event__types_8h.html" target="_top" xlink:title="ODP event API type definitions.">
<polygon fill="white" stroke="#666666" points="300.05,-85 191.05,-85 191.05,-55 300.05,-55 300.05,-85"/>
<text text-anchor="start" x="199.05" y="-73" font-family="Helvetica,sans-Serif" font-size="10.00">odp/api/spec/event</text>
<text text-anchor="middle" x="245.55" y="-62" font-family="Helvetica,sans-Serif" font-size="10.00">_types.h</text>
</a>
</g>
</g>
<!-- Node5&#45;&gt;Node7 -->
<g id="edge6_Node000005_Node000007" class="edge">
<title>Node5&#45;&gt;Node7</title>
<g id="a_edge6_Node000005_Node000007"><a xlink:title=" ">
<path fill="none" stroke="#63b8ff" d="M238.73,-120.87C239.66,-114.11 240.99,-104.35 242.24,-95.26"/>
<polygon fill="#63b8ff" stroke="#63b8ff" points="245.74,-95.5 243.62,-85.11 238.8,-94.55 245.74,-95.5"/>
</a>
</g>
</g>
<!-- Node7&#45;&gt;Node4 -->
<g id="edge7_Node000007_Node000004" class="edge">
<title>Node7&#45;&gt;Node4</title>
<g id="a_edge7_Node000007_Node000004"><a xlink:title=" ">
<path fill="none" stroke="#63b8ff" d="M257.66,-54.84C264.84,-46.43 273.98,-35.74 281.49,-26.96"/>
<polygon fill="#63b8ff" stroke="#63b8ff" points="284.23,-29.14 288.06,-19.27 278.9,-24.59 284.23,-29.14"/>
</a>
</g>
</g>
<!-- Node7&#45;&gt;Node8 -->
<g id="edge8_Node000007_Node000008" class="edge">
<title>Node7&#45;&gt;Node8</title>
<g id="a_edge8_Node000007_Node000008"><a xlink:title=" ">
<path fill="none" stroke="#63b8ff" d="M293.7,-54.99C328.54,-44.85 375.02,-31.32 407.55,-21.85"/>
<polygon fill="#63b8ff" stroke="#63b8ff" points="408.54,-25.21 417.16,-19.05 406.59,-18.49 408.54,-25.21"/>
</a>
</g>
</g>
<!-- Node10 -->
<g id="Node000010" class="node">
<title>Node10</title>
<g id="a_Node000010"><a xlink:title=" ">
<polygon fill="#e0e0e0" stroke="#999999" points="431.55,-195 301.55,-195 301.55,-176 431.55,-176 431.55,-195"/>
<text text-anchor="middle" x="366.55" y="-183" font-family="Helvetica,sans-Serif" font-size="10.00">odp/api/abi/std_types.h</text>
</a>
</g>
</g>
<!-- Node9&#45;&gt;Node10 -->
<g id="edge10_Node000009_Node000010" class="edge">
<title>Node9&#45;&gt;Node10</title>
<g id="a_edge10_Node000009_Node000010"><a xlink:title=" ">
<path fill="none" stroke="#63b8ff" d="M366.55,-230.75C366.55,-223.8 366.55,-213.85 366.55,-205.13"/>
<polygon fill="#63b8ff" stroke="#63b8ff" points="370.05,-205.09 366.55,-195.09 363.05,-205.09 370.05,-205.09"/>
</a>
</g>
</g>
<!-- Node11 -->
<g id="Node000011" class="node">
<title>Node11</title>
<g id="a_Node000011"><a xlink:href="spec_2std__types_8h.html" target="_top" xlink:title="Common types and definitions for ODP API files.">
<polygon fill="white" stroke="#666666" points="602.05,-195 465.05,-195 465.05,-176 602.05,-176 602.05,-195"/>
<text text-anchor="middle" x="533.55" y="-183" font-family="Helvetica,sans-Serif" font-size="10.00">odp/api/spec/std_types.h</text>
</a>
</g>
</g>
<!-- Node9&#45;&gt;Node11 -->
<g id="edge11_Node000009_Node000011" class="edge">
<title>Node9&#45;&gt;Node11</title>
<g id="a_edge11_Node000009_Node000011"><a xlink:title=" ">
<path fill="none" stroke="#63b8ff" d="M393.39,-230.98C421.42,-222.09 465.6,-208.07 496.86,-198.15"/>
<polygon fill="#63b8ff" stroke="#63b8ff" points="498.04,-201.44 506.51,-195.08 495.92,-194.77 498.04,-201.44"/>
</a>
</g>
</g>
<!-- Node11&#45;&gt;Node4 -->
<g id="edge12_Node000011_Node000004" class="edge">
<title>Node11&#45;&gt;Node4</title>
<g id="a_edge12_Node000011_Node000004"><a xlink:title=" ">
<path fill="none" stroke="#63b8ff" d="M509.65,-175.94C471.98,-161.57 397.93,-129.75 347.55,-85 329.19,-68.69 313.93,-44.67 304.79,-28.34"/>
<polygon fill="#63b8ff" stroke="#63b8ff" points="307.75,-26.45 299.92,-19.31 301.59,-29.77 307.75,-26.45"/>
</a>
</g>
</g>
<!-- Node11&#45;&gt;Node8 -->
<g id="edge19_Node000011_Node000008" class="edge">
<title>Node11&#45;&gt;Node8</title>
<g id="a_edge19_Node000011_Node000008"><a xlink:title=" ">
<path fill="none" stroke="#63b8ff" d="M547.9,-175.99C560.06,-168.08 577.14,-155.25 587.55,-140 609.32,-108.11 628.89,-85.77 605.55,-55 593.99,-39.75 551.21,-28.3 512.93,-20.83"/>
<polygon fill="#63b8ff" stroke="#63b8ff" points="513.28,-17.34 502.81,-18.93 511.99,-24.22 513.28,-17.34"/>
</a>
</g>
</g>
<!-- Node12 -->
<g id="Node000012" class="node">
<title>Node12</title>
<g id="a_Node000012"><a xlink:title=" ">
<polygon fill="#e0e0e0" stroke="#999999" points="700.05,-140 647.05,-140 647.05,-121 700.05,-121 700.05,-140"/>
<text text-anchor="middle" x="673.55" y="-128" font-family="Helvetica,sans-Serif" font-size="10.00">stdint.h</text>
</a>
</g>
</g>
<!-- Node11&#45;&gt;Node12 -->
<g id="edge13_Node000011_Node000012" class="edge">
<title>Node11&#45;&gt;Node12</title>
<g id="a_edge13_Node000011_Node000012"><a xlink:title=" ">
<path fill="none" stroke="#63b8ff" d="M556.05,-175.98C579.08,-167.27 615.09,-153.63 641.19,-143.75"/>
<polygon fill="#63b8ff" stroke="#63b8ff" points="642.54,-146.98 650.65,-140.17 640.06,-140.44 642.54,-146.98"/>
</a>
</g>
</g>
<!-- Node13 -->
<g id="Node000013" class="node">
<title>Node13</title>
<g id="a_Node000013"><a xlink:href="align_8h.html" target="_top" xlink:title="ODP alignments.">
<polygon fill="white" stroke="#666666" points="578.05,-140 489.05,-140 489.05,-121 578.05,-121 578.05,-140"/>
<text text-anchor="middle" x="533.55" y="-128" font-family="Helvetica,sans-Serif" font-size="10.00">odp/api/align.h</text>
</a>
</g>
</g>
<!-- Node11&#45;&gt;Node13 -->
<g id="edge14_Node000011_Node000013" class="edge">
<title>Node11&#45;&gt;Node13</title>
<g id="a_edge14_Node000011_Node000013"><a xlink:title=" ">
<path fill="none" stroke="#63b8ff" d="M533.55,-175.75C533.55,-168.8 533.55,-158.85 533.55,-150.13"/>
<polygon fill="#63b8ff" stroke="#63b8ff" points="537.05,-150.09 533.55,-140.09 530.05,-150.09 537.05,-150.09"/>
</a>
</g>
</g>
<!-- Node14 -->
<g id="Node000014" class="node">
<title>Node14</title>
<g id="a_Node000014"><a xlink:title=" ">
<polygon fill="#e0e0e0" stroke="#999999" points="596.05,-79.5 489.05,-79.5 489.05,-60.5 596.05,-60.5 596.05,-79.5"/>
<text text-anchor="middle" x="542.55" y="-67.5" font-family="Helvetica,sans-Serif" font-size="10.00">odp/api/abi/align.h</text>
</a>
</g>
</g>
<!-- Node13&#45;&gt;Node14 -->
<g id="edge15_Node000013_Node000014" class="edge">
<title>Node13&#45;&gt;Node14</title>
<g id="a_edge15_Node000013_Node000014"><a xlink:title=" ">
<path fill="none" stroke="#63b8ff" d="M534.88,-120.87C536.15,-112.66 538.09,-100.04 539.7,-89.55"/>
<polygon fill="#63b8ff" stroke="#63b8ff" points="543.16,-90.08 541.22,-79.67 536.24,-89.02 543.16,-90.08"/>
</a>
</g>
</g>
<!-- Node15 -->
<g id="Node000015" class="node">
<title>Node15</title>
<g id="a_Node000015"><a xlink:href="spec_2align_8h.html" target="_top" xlink:title="ODP alignments.">
<polygon fill="white" stroke="#666666" points="470.55,-79.5 356.55,-79.5 356.55,-60.5 470.55,-60.5 470.55,-79.5"/>
<text text-anchor="middle" x="413.55" y="-67.5" font-family="Helvetica,sans-Serif" font-size="10.00">odp/api/spec/align.h</text>
</a>
</g>
</g>
<!-- Node13&#45;&gt;Node15 -->
<g id="edge16_Node000013_Node000015" class="edge">
<title>Node13&#45;&gt;Node15</title>
<g id="a_edge16_Node000013_Node000015"><a xlink:title=" ">
<path fill="none" stroke="#63b8ff" d="M516.11,-120.99C496.2,-111.29 463.42,-95.31 440.28,-84.03"/>
<polygon fill="#63b8ff" stroke="#63b8ff" points="441.55,-80.75 431.02,-79.52 438.48,-87.04 441.55,-80.75"/>
</a>
</g>
</g>
<!-- Node15&#45;&gt;Node4 -->
<g id="edge17_Node000015_Node000004" class="edge">
<title>Node15&#45;&gt;Node4</title>
<g id="a_edge17_Node000015_Node000004"><a xlink:title=" ">
<path fill="none" stroke="#63b8ff" d="M396.4,-60.49C376.82,-50.79 344.58,-34.81 321.84,-23.53"/>
<polygon fill="#63b8ff" stroke="#63b8ff" points="323.25,-20.32 312.73,-19.02 320.14,-26.59 323.25,-20.32"/>
</a>
</g>
</g>
<!-- Node15&#45;&gt;Node8 -->
<g id="edge18_Node000015_Node000008" class="edge">
<title>Node15&#45;&gt;Node8</title>
<g id="a_edge18_Node000015_Node000008"><a xlink:title=" ">
<path fill="none" stroke="#63b8ff" d="M418.42,-60.37C423.2,-51.9 430.62,-38.74 436.65,-28.07"/>
<polygon fill="#63b8ff" stroke="#63b8ff" points="439.8,-29.6 441.66,-19.17 433.7,-26.16 439.8,-29.6"/>
</a>
</g>
</g>
</g>
</svg>
