<?xml version="1.0" encoding="UTF-8" standalone="no"?>
<!DOCTYPE svg PUBLIC "-//W3C//DTD SVG 1.1//EN"
 "http://www.w3.org/Graphics/SVG/1.1/DTD/svg11.dtd">
<!-- Generated by graphviz version 2.43.0 (0)
 -->
<!-- Title: time_types.h Pages: 1 -->
<svg width="621pt" height="192pt"
 viewBox="0.00 0.00 620.50 192.00" xmlns="http://www.w3.org/2000/svg" xmlns:xlink="http://www.w3.org/1999/xlink">
<g id="graph0" class="graph" transform="scale(1 1) rotate(0) translate(4 188)">
<title>time_types.h</title>
<!-- Node1 -->
<g id="Node000001" class="node">
<title>Node1</title>
<g id="a_Node000001"><a xlink:title="ODP time.">
<polygon fill="#999999" stroke="#666666" points="378,-184 298,-184 298,-165 378,-165 378,-184"/>
<text text-anchor="middle" x="338" y="-172" font-family="Helvetica,sans-Serif" font-size="10.00">time_types.h</text>
</a>
</g>
</g>
<!-- Node2 -->
<g id="Node000002" class="node">
<title>Node2</title>
<g id="a_Node000002"><a xlink:href="spec_2packet_8h.html" target="_top" xlink:title="ODP packet descriptor.">
<polygon fill="white" stroke="#666666" points="131,-129 73,-129 73,-110 131,-110 131,-129"/>
<text text-anchor="middle" x="102" y="-117" font-family="Helvetica,sans-Serif" font-size="10.00">packet.h</text>
</a>
</g>
</g>
<!-- Node1&#45;&gt;Node2 -->
<g id="edge1_Node000001_Node000002" class="edge">
<title>Node1&#45;&gt;Node2</title>
<g id="a_edge1_Node000001_Node000002"><a xlink:title=" ">
<path fill="none" stroke="#63b8ff" d="M290.31,-162.79C242.69,-152.1 171.03,-136 131.25,-127.07"/>
<polygon fill="#63b8ff" stroke="#63b8ff" points="289.56,-166.21 300.08,-164.98 291.09,-159.38 289.56,-166.21"/>
</a>
</g>
</g>
<!-- Node6 -->
<g id="Node000006" class="node">
<title>Node6</title>
<g id="a_Node000006"><a xlink:href="packet__inlines_8h.html" target="_top" xlink:title="ODP packet inline functions.">
<polygon fill="white" stroke="#666666" points="244.5,-129 149.5,-129 149.5,-110 244.5,-110 244.5,-129"/>
<text text-anchor="middle" x="197" y="-117" font-family="Helvetica,sans-Serif" font-size="10.00">packet_inlines.h</text>
</a>
</g>
</g>
<!-- Node1&#45;&gt;Node6 -->
<g id="edge5_Node000001_Node000006" class="edge">
<title>Node1&#45;&gt;Node6</title>
<g id="a_edge5_Node000001_Node000006"><a xlink:title=" ">
<path fill="none" stroke="#63b8ff" d="M305.86,-161.42C279.71,-151.59 243.41,-137.95 220.07,-129.17"/>
<polygon fill="#63b8ff" stroke="#63b8ff" points="304.75,-164.74 315.35,-164.98 307.22,-158.19 304.75,-164.74"/>
</a>
</g>
</g>
<!-- Node7 -->
<g id="Node000007" class="node">
<title>Node7</title>
<g id="a_Node000007"><a xlink:href="spec_2packet__io_8h.html" target="_top" xlink:title="ODP Packet IO.">
<polygon fill="white" stroke="#666666" points="335,-129 263,-129 263,-110 335,-110 335,-129"/>
<text text-anchor="middle" x="299" y="-117" font-family="Helvetica,sans-Serif" font-size="10.00">packet_io.h</text>
</a>
</g>
</g>
<!-- Node1&#45;&gt;Node7 -->
<g id="edge6_Node000001_Node000007" class="edge">
<title>Node1&#45;&gt;Node7</title>
<g id="a_edge6_Node000001_Node000007"><a xlink:title=" ">
<path fill="none" stroke="#63b8ff" d="M325.62,-156.67C318.86,-147.5 310.79,-136.52 305.32,-129.09"/>
<polygon fill="#63b8ff" stroke="#63b8ff" points="322.81,-158.77 331.56,-164.75 328.45,-154.62 322.81,-158.77"/>
</a>
</g>
</g>
<!-- Node9 -->
<g id="Node000009" class="node">
<title>Node9</title>
<g id="a_Node000009"><a xlink:href="spec_2time_8h.html" target="_top" xlink:title="ODP time.">
<polygon fill="white" stroke="#666666" points="401,-129 353,-129 353,-110 401,-110 401,-129"/>
<text text-anchor="middle" x="377" y="-117" font-family="Helvetica,sans-Serif" font-size="10.00">time.h</text>
</a>
</g>
</g>
<!-- Node1&#45;&gt;Node9 -->
<g id="edge8_Node000001_Node000009" class="edge">
<title>Node1&#45;&gt;Node9</title>
<g id="a_edge8_Node000001_Node000009"><a xlink:title=" ">
<path fill="none" stroke="#63b8ff" d="M350.38,-156.67C357.14,-147.5 365.21,-136.52 370.68,-129.09"/>
<polygon fill="#63b8ff" stroke="#63b8ff" points="347.55,-154.62 344.44,-164.75 353.19,-158.77 347.55,-154.62"/>
</a>
</g>
</g>
<!-- Node11 -->
<g id="Node000011" class="node">
<title>Node11</title>
<g id="a_Node000011"><a xlink:href="time__inlines_8h_source.html" target="_top" xlink:title=" ">
<polygon fill="white" stroke="#666666" points="505,-129 419,-129 419,-110 505,-110 505,-129"/>
<text text-anchor="middle" x="462" y="-117" font-family="Helvetica,sans-Serif" font-size="10.00">time_inlines.h</text>
</a>
</g>
</g>
<!-- Node1&#45;&gt;Node11 -->
<g id="edge10_Node000001_Node000011" class="edge">
<title>Node1&#45;&gt;Node11</title>
<g id="a_edge10_Node000001_Node000011"><a xlink:title=" ">
<path fill="none" stroke="#63b8ff" d="M367.18,-161.03C390.11,-151.23 421.45,-137.83 441.71,-129.17"/>
<polygon fill="#63b8ff" stroke="#63b8ff" points="365.74,-157.84 357.92,-164.98 368.49,-164.27 365.74,-157.84"/>
</a>
</g>
</g>
<!-- Node12 -->
<g id="Node000012" class="node">
<title>Node12</title>
<g id="a_Node000012"><a xlink:href="timer__inlines_8h_source.html" target="_top" xlink:title=" ">
<polygon fill="white" stroke="#666666" points="612.5,-129 523.5,-129 523.5,-110 612.5,-110 612.5,-129"/>
<text text-anchor="middle" x="568" y="-117" font-family="Helvetica,sans-Serif" font-size="10.00">timer_inlines.h</text>
</a>
</g>
</g>
<!-- Node1&#45;&gt;Node12 -->
<g id="edge11_Node000001_Node000012" class="edge">
<title>Node1&#45;&gt;Node12</title>
<g id="a_edge11_Node000001_Node000012"><a xlink:title=" ">
<path fill="none" stroke="#63b8ff" d="M384.91,-162.69C428,-152.76 491.03,-138.24 530.76,-129.08"/>
<polygon fill="#63b8ff" stroke="#63b8ff" points="383.91,-159.33 374.95,-164.98 385.48,-166.15 383.91,-159.33"/>
</a>
</g>
</g>
<!-- Node3 -->
<g id="Node000003" class="node">
<title>Node3</title>
<g id="a_Node000003"><a xlink:href="packet_8h.html" target="_top" xlink:title="ODP packet descriptor.">
<polygon fill="white" stroke="#666666" points="131,-74 73,-74 73,-55 131,-55 131,-74"/>
<text text-anchor="middle" x="102" y="-62" font-family="Helvetica,sans-Serif" font-size="10.00">packet.h</text>
</a>
</g>
</g>
<!-- Node2&#45;&gt;Node3 -->
<g id="edge2_Node000002_Node000003" class="edge">
<title>Node2&#45;&gt;Node3</title>
<g id="a_edge2_Node000002_Node000003"><a xlink:title=" ">
<path fill="none" stroke="#63b8ff" d="M102,-99.66C102,-90.93 102,-80.99 102,-74.09"/>
<polygon fill="#63b8ff" stroke="#63b8ff" points="98.5,-99.75 102,-109.75 105.5,-99.75 98.5,-99.75"/>
</a>
</g>
</g>
<!-- Node4 -->
<g id="Node000004" class="node">
<title>Node4</title>
<g id="a_Node000004"><a xlink:href="crypto__inlines_8h_source.html" target="_top" xlink:title=" ">
<polygon fill="white" stroke="#666666" points="94,-19 0,-19 0,0 94,0 94,-19"/>
<text text-anchor="middle" x="47" y="-7" font-family="Helvetica,sans-Serif" font-size="10.00">crypto_inlines.h</text>
</a>
</g>
</g>
<!-- Node3&#45;&gt;Node4 -->
<g id="edge3_Node000003_Node000004" class="edge">
<title>Node3&#45;&gt;Node4</title>
<g id="a_edge3_Node000003_Node000004"><a xlink:title=" ">
<path fill="none" stroke="#63b8ff" d="M85.71,-47.8C75.96,-38.41 63.95,-26.83 55.91,-19.09"/>
<polygon fill="#63b8ff" stroke="#63b8ff" points="83.29,-50.33 92.92,-54.75 88.15,-45.29 83.29,-50.33"/>
</a>
</g>
</g>
<!-- Node5 -->
<g id="Node000005" class="node">
<title>Node5</title>
<g id="a_Node000005"><a xlink:href="ipsec__inlines_8h_source.html" target="_top" xlink:title=" ">
<polygon fill="white" stroke="#666666" points="201.5,-19 112.5,-19 112.5,0 201.5,0 201.5,-19"/>
<text text-anchor="middle" x="157" y="-7" font-family="Helvetica,sans-Serif" font-size="10.00">ipsec_inlines.h</text>
</a>
</g>
</g>
<!-- Node3&#45;&gt;Node5 -->
<g id="edge4_Node000003_Node000005" class="edge">
<title>Node3&#45;&gt;Node5</title>
<g id="a_edge4_Node000003_Node000005"><a xlink:title=" ">
<path fill="none" stroke="#63b8ff" d="M118.29,-47.8C128.04,-38.41 140.05,-26.83 148.09,-19.09"/>
<polygon fill="#63b8ff" stroke="#63b8ff" points="115.85,-45.29 111.08,-54.75 120.71,-50.33 115.85,-45.29"/>
</a>
</g>
</g>
<!-- Node8 -->
<g id="Node000008" class="node">
<title>Node8</title>
<g id="a_Node000008"><a xlink:href="packet__io_8h.html" target="_top" xlink:title="ODP Packet IO.">
<polygon fill="white" stroke="#666666" points="335,-74 263,-74 263,-55 335,-55 335,-74"/>
<text text-anchor="middle" x="299" y="-62" font-family="Helvetica,sans-Serif" font-size="10.00">packet_io.h</text>
</a>
</g>
</g>
<!-- Node7&#45;&gt;Node8 -->
<g id="edge7_Node000007_Node000008" class="edge">
<title>Node7&#45;&gt;Node8</title>
<g id="a_edge7_Node000007_Node000008"><a xlink:title=" ">
<path fill="none" stroke="#63b8ff" d="M299,-99.66C299,-90.93 299,-80.99 299,-74.09"/>
<polygon fill="#63b8ff" stroke="#63b8ff" points="295.5,-99.75 299,-109.75 302.5,-99.75 295.5,-99.75"/>
</a>
</g>
</g>
<!-- Node10 -->
<g id="Node000010" class="node">
<title>Node10</title>
<g id="a_Node000010"><a xlink:href="time_8h.html" target="_top" xlink:title="ODP time.">
<polygon fill="white" stroke="#666666" points="401,-74 353,-74 353,-55 401,-55 401,-74"/>
<text text-anchor="middle" x="377" y="-62" font-family="Helvetica,sans-Serif" font-size="10.00">time.h</text>
</a>
</g>
</g>
<!-- Node9&#45;&gt;Node10 -->
<g id="edge9_Node000009_Node000010" class="edge">
<title>Node9&#45;&gt;Node10</title>
<g id="a_edge9_Node000009_Node000010"><a xlink:title=" ">
<path fill="none" stroke="#63b8ff" d="M377,-99.66C377,-90.93 377,-80.99 377,-74.09"/>
<polygon fill="#63b8ff" stroke="#63b8ff" points="373.5,-99.75 377,-109.75 380.5,-99.75 373.5,-99.75"/>
</a>
</g>
</g>
</g>
</svg>
